<svg width="61" height="16" viewBox="0 0 61 16" fill="none" xmlns="http://www.w3.org/2000/svg">
<g clip-path="url(#clip0_1237_20582)">
<path d="M16.7979 11.426V5.32621H17.587L21.3197 10.2401V5.32621H22.0656V11.426H21.2764L17.5447 6.46927V11.426H16.7979ZM28.1221 11.1869C27.6303 11.3747 27.1 11.4688 26.531 11.4688C24.3221 11.4688 23.2171 10.4095 23.2171 8.29091C23.2171 6.28621 24.2835 5.28338 26.4157 5.28338C27.028 5.28338 27.5964 5.36903 28.1221 5.53985V6.22221C27.6046 6.02462 27.0553 5.92334 26.5014 5.92338C24.8383 5.92338 24.0068 6.71303 24.0068 8.29044C24.0068 9.98221 24.8247 10.8288 26.4633 10.8288C26.7249 10.8288 27.0148 10.7944 27.3339 10.7257V8.65327H28.1226L28.1221 11.1869ZM29.3809 9.07162V5.32668H30.1696V9.07162C30.1696 10.2429 30.7527 10.8293 31.9188 10.8293C33.0844 10.8293 33.6675 10.2429 33.6675 9.07162V5.32668H34.4567V9.07162C34.4567 10.6697 33.6106 11.4693 31.9188 11.4693C30.227 11.4693 29.3809 10.6702 29.3809 9.07162ZM36.6529 5.32621V10.7864H39.844V11.426H35.8642V5.32621H36.6529ZM40.9823 11.426H40.1635L43.196 4.52197L46.2289 11.426H45.3546L44.5654 9.50644H42.548L42.7654 8.86738H44.3014L43.1621 6.10315L40.9823 11.426ZM47.0604 11.426V5.32621H49.6623C50.8228 5.32621 51.4026 5.81421 51.4026 6.78927C51.4026 7.58315 50.8355 8.17044 49.7009 8.55068L51.795 11.4255H50.7541L48.8139 8.68291V8.16715C49.9795 7.98174 50.5621 7.53374 50.5621 6.82362C50.5621 6.2608 50.2383 5.97891 49.5903 5.97891H47.8496V11.426H47.0604Z" fill="#CCCCCC"/>
<path d="M54.7513 5.32725V9.66984C54.7513 10.8416 54.0619 11.427 52.6826 11.427V10.7875C53.5358 10.7875 53.9626 10.4143 53.9626 9.66984V5.32725H54.7513ZM56.1588 11.2134V10.4882C56.7988 10.715 57.4892 10.8298 58.2318 10.8298C59.2807 10.8298 59.8059 10.4458 59.8059 9.67783C59.8059 9.02419 59.4191 8.69713 58.6454 8.69713H57.8605C56.5838 8.69713 55.9452 8.14231 55.9452 7.0336C55.9452 5.86748 56.7626 5.28442 58.3984 5.28442C59.1094 5.28442 59.7701 5.37054 60.3819 5.54042V6.26607C59.7701 6.03831 59.1094 5.92395 58.3984 5.92395C57.2897 5.92395 56.7349 6.29384 56.7349 7.03313C56.7349 7.68678 57.1099 8.01384 57.861 8.01384H58.6459C59.9452 8.01384 60.5956 8.56866 60.5956 9.67736C60.5956 10.8717 59.8078 11.4694 58.2323 11.4694C57.4897 11.4694 56.7988 11.3837 56.1588 11.2134Z" fill="#A6120D"/>
<path d="M8.69945 0.429443L1.57568 2.93627L2.70133 12.2694L8.70698 15.5701L14.7437 12.2252L15.8689 2.89203L8.69945 0.429443Z" fill="#B3B3B3"/>
<path d="M15.1579 3.43115L8.68311 1.22314V14.7813L14.1095 11.778L15.1579 3.43115Z" fill="#A6120D"/>
<path d="M2.37451 3.47114L3.33969 11.818L8.68275 14.7813V1.22314L2.37451 3.47114Z" fill="#DD1B16"/>
<path d="M10.4656 8.44098L8.68303 9.27439H6.80397L5.92067 11.4833L4.27832 11.5135L8.68256 1.71533L10.4656 8.44098ZM10.2929 8.02121L8.69479 4.85698L7.38373 7.96663H8.68303L10.2929 8.02121Z" fill="#F2F2F2"/>
<path d="M8.68311 1.71533L8.6944 4.85698L10.1824 7.96945H8.68593L8.68311 9.27251L10.7513 9.27439L11.7184 11.5139L13.2902 11.5431L8.68311 1.71533Z" fill="#B3B3B3"/>
</g>
<defs>
<clipPath id="clip0_1237_20582">
<rect width="59.2941" height="16" fill="white" transform="translate(0.913086)"/>
</clipPath>
</defs>
</svg>
