<svg width="25" height="24" viewBox="0 0 25 24" fill="none" xmlns="http://www.w3.org/2000/svg">
<g id="Frame">
<path id="Vector" d="M16.5587 15.2854H21.3944C21.3944 15.2854 22.3334 15.2854 22.3334 16.2244V21.0601C22.3334 21.0601 22.3334 21.9991 21.3944 21.9991H16.5587C16.5587 21.9991 15.6198 21.9991 15.6198 21.0601V16.2244C15.6198 16.2244 15.6198 15.2854 16.5587 15.2854Z" stroke="currentColor" stroke-width="1.2" stroke-linejoin="round"/>
<path id="Vector_2" d="M3.27235 2.00098H8.10806C8.10806 2.00098 9.04703 2.00098 9.04703 2.93995V7.77566C9.04703 7.77566 9.04703 8.71463 8.10806 8.71463H3.27235C3.27235 8.71463 2.33337 8.71463 2.33337 7.77566V2.93995C2.33337 2.93995 2.33337 2.00098 3.27235 2.00098Z" stroke="currentColor" stroke-width="1.2" stroke-linejoin="round"/>
<path id="Vector_3" d="M11.8636 5.35669H15.6553C17.4896 5.35669 18.9766 6.84367 18.9766 8.67794C18.9766 10.5122 17.4896 11.9992 15.6553 11.9992H12.476" stroke="currentColor" stroke-width="1.2" stroke-linecap="round" stroke-linejoin="round"/>
<path id="Vector_4" d="M12.8122 11.999H9.01107C7.1768 11.999 5.68982 13.486 5.68982 15.3203C5.68982 17.1545 7.1768 18.6415 9.01107 18.6415H12.9439" stroke="currentColor" stroke-width="1.2" stroke-linecap="round" stroke-linejoin="round"/>
<path id="Vector_5" d="M14.0292 3.18506L11.8578 5.35643L14.0292 7.52781" stroke="currentColor" stroke-width="1.2" stroke-linecap="round" stroke-linejoin="round"/>
<path id="Vector_6" d="M10.7728 20.813L12.9442 18.6416L10.7728 16.4702" stroke="currentColor" stroke-width="1.2" stroke-linecap="round" stroke-linejoin="round"/>
</g>
</svg>
