<svg width="24" height="24" viewBox="0 0 24 24" fill="none" xmlns="http://www.w3.org/2000/svg">
<path d="M6.9375 14V18H2.9375" stroke="#DBFE01" stroke-width="1.2" stroke-miterlimit="10" stroke-linecap="round" stroke-linejoin="round"/>
<path d="M18.9375 10V6H22.9375" stroke="#DBFE01" stroke-width="1.2" stroke-miterlimit="10" stroke-linecap="round" stroke-linejoin="round"/>
<path d="M19.2045 6C20.7156 7.6 21.6045 9.64445 21.6045 12.0445C21.6045 16.8445 17.6934 20.7556 12.8934 20.7556C11.7378 20.7556 10.5823 20.4889 9.51562 20.1334" stroke="#DBFE01" stroke-width="1.2" stroke-miterlimit="10" stroke-linecap="round" stroke-linejoin="round"/>
<path d="M6.67052 17.9997C5.15941 16.3997 4.27051 14.3552 4.27051 11.9552C4.27051 7.15526 8.18162 3.24414 12.9816 3.24414C14.1372 3.24414 15.2927 3.51081 16.3594 3.86636" stroke="#DBFE01" stroke-width="1.2" stroke-miterlimit="10" stroke-linecap="round" stroke-linejoin="round"/>
<path d="M10.3574 15.0958L12.2584 9.39288C12.3558 9.10052 12.6294 8.90332 12.9376 8.90332C13.2458 8.90332 13.5194 9.10052 13.6168 9.39288L15.5178 15.0958M11.0455 13.0317H14.8298" stroke="#DBFE01" stroke-width="1.2" stroke-linecap="round" stroke-linejoin="round"/>
</svg>
