<svg width="68" height="16" viewBox="0 0 68 16" fill="none" xmlns="http://www.w3.org/2000/svg">
<g clip-path="url(#clip0_1237_20747)">
<path d="M22.6355 5.48083L24.7022 11.0195H23.4382L23.0115 9.78416H20.9448L20.5182 11.0195H19.2915L21.3715 5.48083H22.6355ZM22.7208 8.8675L22.0182 6.85016H21.9968L21.2728 8.87416L22.7208 8.8675ZM29.0688 11.0195L28.1315 7.24883H28.1102L27.1942 11.0195H25.9582L24.4882 5.48083H25.7015L26.5682 9.2515H26.5895L27.5482 5.48083H28.7048L29.6422 9.29416H29.6635L30.5795 5.48083H31.7795L30.2882 11.0195H29.0688ZM33.2648 9.65016C33.3288 9.77816 33.4142 9.88349 33.5415 9.97016C33.6482 10.0555 33.7748 10.1195 33.9248 10.1408C34.0748 10.1622 34.2228 10.2048 34.3935 10.2048C34.5002 10.2048 34.6268 10.2048 34.7268 10.1835C34.8268 10.1622 34.9602 10.1408 35.0602 10.0768C35.1668 10.0342 35.2522 9.94883 35.3368 9.86349C35.4008 9.77816 35.4435 9.65016 35.4435 9.53016C35.4435 9.38083 35.4008 9.2535 35.2942 9.16816C35.1845 9.06392 35.0538 8.98436 34.9108 8.93483C34.7615 8.87083 34.5775 8.82816 34.3775 8.76416L33.7808 8.61483C33.5754 8.57347 33.3752 8.50906 33.1842 8.42283C32.9922 8.3375 32.8222 8.25216 32.6508 8.12483C32.5015 7.99683 32.3742 7.84816 32.2675 7.67816C32.1707 7.47884 32.1197 7.26041 32.1182 7.03883C32.1182 6.76216 32.1822 6.5055 32.3102 6.2935C32.4382 6.0815 32.5868 5.91016 32.7788 5.76016C32.9708 5.61016 33.2055 5.52683 33.4455 5.44016C33.6855 5.3535 33.9355 5.3335 34.1908 5.3335C34.4888 5.3335 34.7662 5.37616 35.0215 5.44016C35.2768 5.50416 35.5328 5.61083 35.7242 5.76016C35.9375 5.9095 36.0862 6.08016 36.2142 6.31349C36.3422 6.54683 36.4062 6.80349 36.4062 7.12283H35.2348C35.2348 6.95216 35.1922 6.82483 35.1282 6.71816C35.0642 6.6115 35.0002 6.52616 34.8948 6.46283C34.7907 6.39838 34.675 6.3549 34.5542 6.33483C34.4262 6.3135 34.2988 6.29216 34.1495 6.29216C34.0428 6.29216 33.9575 6.29216 33.8515 6.31349C33.7548 6.336 33.6616 6.3719 33.5748 6.42016C33.4902 6.46283 33.4255 6.52683 33.3828 6.61216C33.3402 6.6975 33.2975 6.78283 33.2975 6.91016C33.2975 7.01683 33.3188 7.10216 33.3615 7.16549C33.4042 7.22883 33.4895 7.2935 33.5948 7.3575C33.7228 7.4215 33.8928 7.46416 34.1062 7.52816L34.9368 7.7415L35.3635 7.84816C35.5555 7.91216 35.7255 7.9975 35.9168 8.1035C36.0875 8.2315 36.2502 8.38016 36.3855 8.57216C36.5208 8.76416 36.5775 9.01883 36.5775 9.33883C36.5775 9.59416 36.5348 9.82883 36.4282 10.0415C36.3215 10.2542 36.1948 10.4462 35.9815 10.5948C35.7682 10.7435 35.5548 10.8715 35.2575 10.9568C34.9808 11.0422 34.6395 11.0848 34.2562 11.0848C33.9582 11.0848 33.6595 11.0422 33.3615 10.9782C33.0848 10.8928 32.8282 10.7862 32.5948 10.6162C32.3815 10.4455 32.1902 10.2542 32.0615 9.99816C31.9328 9.74216 31.8695 9.46483 31.8695 9.1035H33.0408L33.2542 9.65683L33.2648 9.65016ZM40.7422 5.47416V9.9835H43.4262V11.0062H39.5062V5.4675L40.7422 5.47416ZM44.1502 7.5835C44.2568 7.41283 44.4055 7.28549 44.5768 7.17883C44.7482 7.07216 44.9602 7.00816 45.1735 6.96549C45.3912 6.92308 45.6124 6.90165 45.8342 6.90149C46.0262 6.90149 46.2388 6.92283 46.4522 6.94416C46.6528 6.96533 46.8478 7.02318 47.0275 7.11483C47.1982 7.20016 47.3475 7.30683 47.4542 7.44816C47.5608 7.58949 47.6248 7.7815 47.6248 8.0235V10.1102L47.6462 10.6215C47.6675 10.7922 47.7102 10.9195 47.7528 10.9835H46.6242C46.6028 10.9195 46.5815 10.8555 46.5815 10.7915C46.5815 10.7275 46.5602 10.6635 46.5602 10.5995C46.3846 10.7709 46.1737 10.9017 45.9422 10.9828C45.7065 11.0496 45.4631 11.0855 45.2182 11.0895C45.0386 11.0905 44.8597 11.069 44.6855 11.0255C44.5148 10.9828 44.3655 10.8975 44.2588 10.8122C44.1373 10.7117 44.0361 10.5888 43.9608 10.4502C43.8968 10.3008 43.8542 10.1302 43.8542 9.91683C43.8542 9.6835 43.8968 9.51216 43.9822 9.36349C44.0675 9.21483 44.1742 9.10816 44.3022 9.0015C44.4302 8.91616 44.5788 8.85216 44.7288 8.80949C44.8788 8.76683 45.0488 8.72416 45.2188 8.70283L45.7088 8.63883L46.1355 8.57483C46.2635 8.5535 46.3488 8.4895 46.4335 8.44683C46.4676 8.41364 46.4945 8.37391 46.5129 8.33004C46.5312 8.28616 46.5405 8.23904 46.5402 8.1915C46.5402 8.0635 46.5188 7.97816 46.4762 7.91483C46.4335 7.85149 46.3908 7.78683 46.3268 7.74416C46.2628 7.70149 46.1775 7.68016 46.0935 7.65883C46.0095 7.6375 45.9228 7.63749 45.8168 7.63749C45.6035 7.63749 45.4335 7.68016 45.3055 7.78683C45.1775 7.87216 45.1135 8.04216 45.0922 8.2555H43.9855C43.9855 7.9575 44.0495 7.74416 44.1562 7.57416L44.1502 7.5835ZM46.3235 9.13883C46.2595 9.16016 46.1742 9.18149 46.0902 9.20283C46.0062 9.22416 45.9195 9.22416 45.8348 9.2455C45.7483 9.24923 45.6625 9.26356 45.5795 9.28816L45.3462 9.35216C45.2692 9.37461 45.197 9.41074 45.1328 9.45883C45.0688 9.5015 45.0262 9.5655 44.9835 9.6295C44.9408 9.6935 44.9195 9.77883 44.9195 9.88483C44.918 9.97409 44.94 10.0622 44.9835 10.1402C45.0262 10.2042 45.0688 10.2682 45.1328 10.2895C45.1968 10.3108 45.2608 10.3535 45.3462 10.3748C45.4315 10.3962 45.5168 10.3962 45.6015 10.3962C45.8148 10.3962 45.9848 10.3535 46.1128 10.2895C46.2408 10.2255 46.3262 10.1402 46.3682 10.0342C46.4322 9.9275 46.4535 9.82083 46.4748 9.73616C46.4962 9.6515 46.4962 9.54416 46.4962 9.48083V9.07616C46.4535 9.07616 46.3895 9.11883 46.3255 9.14016L46.3235 9.13883ZM49.5182 6.98683V7.52016H49.5395C49.679 7.31978 49.8609 7.15251 50.0722 7.03016C50.2897 6.91879 50.5305 6.86032 50.7748 6.85949C51.0308 6.85949 51.2648 6.90216 51.4775 7.00883C51.6902 7.11549 51.8395 7.2855 51.9462 7.52016C52.0742 7.3495 52.2228 7.18683 52.4362 7.0515C52.6546 6.92066 52.9056 6.8541 53.1602 6.85949C53.3735 6.85949 53.5648 6.88083 53.7568 6.94483C53.9275 6.9875 54.0902 7.07283 54.2255 7.20016C54.3645 7.3184 54.4677 7.4731 54.5235 7.64683C54.5955 7.85938 54.6315 8.08243 54.6302 8.30683V10.9908H53.5222V8.71683C53.5222 8.58883 53.5222 8.4615 53.5008 8.3335C53.5008 8.2055 53.4582 8.12016 53.4155 8.01349C53.3728 7.92816 53.3088 7.86416 53.2022 7.80016C53.1168 7.75749 52.9888 7.71483 52.8402 7.71483C52.6915 7.71483 52.5635 7.73616 52.4568 7.80016C52.3715 7.86416 52.2862 7.92816 52.2235 8.0335C52.1608 8.13883 52.1382 8.24683 52.1168 8.3535C52.0955 8.46016 52.0955 8.58683 52.0955 8.71549V10.9522H50.9875V8.33216C50.9869 8.22259 50.9651 8.11418 50.9235 8.01283C50.8841 7.91751 50.8173 7.83606 50.7315 7.77883C50.6462 7.71483 50.5182 7.69349 50.3268 7.69349C50.2842 7.69349 50.1988 7.71483 50.1135 7.73616C50.0207 7.76135 49.9339 7.80487 49.8582 7.86416C49.7728 7.92816 49.7088 8.0135 49.6448 8.14083C49.5808 8.26816 49.5595 8.41749 49.5595 8.60949V10.9315H48.4515V6.93016H49.5168L49.5182 6.98683ZM56.5848 5.48016V7.50416H56.6062C56.7329 7.29489 56.9289 7.13661 57.1602 7.05683C57.3935 6.9715 57.6288 6.9075 57.8842 6.9075C58.0762 6.9075 58.2888 6.95016 58.4808 7.03549C58.6728 7.12083 58.8642 7.24883 59.0142 7.41883C59.1642 7.58883 59.2908 7.80216 59.3975 8.08549C59.5042 8.34083 59.5468 8.66083 59.5468 9.04416C59.5468 9.40616 59.5042 9.72549 59.3975 10.0028C59.3089 10.2454 59.1792 10.4709 59.0142 10.6695C58.8659 10.834 58.684 10.9647 58.4808 11.0528C58.2928 11.1357 58.0897 11.1793 57.8842 11.1808C57.5862 11.1808 57.3308 11.1382 57.0962 11.0315C56.8628 10.9462 56.6915 10.7762 56.5628 10.5628H56.5415V11.0742H55.5048V5.51683H56.5915L56.5848 5.48016ZM58.3528 8.52683C58.3102 8.37749 58.2675 8.22883 58.1822 8.12216C58.0968 7.99416 58.0115 7.90883 57.8842 7.84549C57.7775 7.78149 57.6288 7.73883 57.4575 7.73883C57.3089 7.73866 57.1625 7.77531 57.0315 7.84549C56.9035 7.90949 56.8182 8.01616 56.7335 8.12216C56.6482 8.25016 56.6055 8.37749 56.5628 8.52683C56.5202 8.67616 56.4988 8.84683 56.4988 9.01683C56.4991 9.18223 56.5206 9.34691 56.5628 9.50683C56.6055 9.65616 56.6482 9.80483 56.7335 9.91149C56.8188 10.0395 56.9042 10.1248 57.0315 10.1882C57.1625 10.2585 57.3088 10.2954 57.4575 10.2954C57.6062 10.2954 57.7525 10.2585 57.8835 10.1882C57.9977 10.1134 58.0984 10.0198 58.1815 9.91149C58.2668 9.78349 58.3095 9.65616 58.3522 9.50683C58.3948 9.3575 58.4162 9.18683 58.4162 9.01683C58.4172 8.85134 58.3963 8.68649 58.3528 8.52683ZM63.0595 10.5068C62.9315 10.7202 62.7615 10.8902 62.5482 10.9755C62.3348 11.0608 62.1015 11.1248 61.8455 11.1248C61.5735 11.1262 61.3045 11.068 61.0575 10.9542C60.8228 10.8475 60.6528 10.6775 60.5042 10.4855C60.3555 10.2935 60.2488 10.0588 60.1708 9.80416C60.0928 9.54949 60.0642 9.27083 60.0642 8.99483C60.0642 8.71883 60.1068 8.46149 60.1708 8.20683C60.2562 7.95149 60.3628 7.73816 60.5042 7.54016C60.6455 7.34216 60.8375 7.20683 61.0575 7.0715C61.2708 6.96483 61.5475 6.90083 61.8242 6.90083C62.0598 6.89687 62.2931 6.94801 62.5055 7.05016C62.7188 7.15683 62.8888 7.3055 63.0168 7.49683H63.0382V5.47283H64.1462V11.0115H63.1022L63.0595 10.5068ZM63.0168 8.5255C62.9955 8.37616 62.9315 8.24883 62.8675 8.12083C62.7822 8.01416 62.6968 7.9075 62.5695 7.84416C62.431 7.77421 62.278 7.73767 62.1228 7.7375C61.9308 7.7375 61.7895 7.78016 61.6762 7.84416C61.5482 7.90816 61.4628 8.01483 61.3782 8.12083C61.2928 8.24883 61.2502 8.37616 61.2075 8.5255C61.1648 8.67483 61.1648 8.84549 61.1648 8.99416C61.1651 9.15254 61.1867 9.31017 61.2288 9.46283C61.2715 9.61216 61.3142 9.76083 61.3995 9.8675C61.4764 9.987 61.578 10.0886 61.6975 10.1655C61.8308 10.2502 61.9742 10.2722 62.1442 10.2722C62.3142 10.2722 62.4775 10.2295 62.5908 10.1655C62.7188 10.1015 62.8042 9.99483 62.8888 9.8675C62.9528 9.7395 63.0168 9.61216 63.0382 9.46283C63.0639 9.3007 63.0781 9.13696 63.0808 8.97283L63.0168 8.5255ZM65.1048 7.5835C65.2115 7.41283 65.3602 7.28549 65.5315 7.17883C65.7028 7.07216 65.9148 7.00816 66.1282 6.96549C66.3458 6.92308 66.5671 6.90165 66.7888 6.90149C66.9808 6.90149 67.1935 6.92283 67.4068 6.94416C67.6074 6.96533 67.8025 7.02318 67.9822 7.11483C68.1528 7.20016 68.3022 7.30683 68.4088 7.44816C68.5155 7.58949 68.5795 7.7815 68.5795 8.0235V10.1102L68.6008 10.6215C68.6222 10.7922 68.6648 10.9195 68.7075 10.9835H67.5995C67.5782 10.9195 67.5568 10.8555 67.5568 10.7915C67.5568 10.7275 67.5355 10.6635 67.5355 10.5995C67.36 10.7709 67.149 10.9017 66.9175 10.9828C66.6818 11.0496 66.4384 11.0855 66.1935 11.0895C66.014 11.0905 65.835 11.069 65.6608 11.0255C65.4902 10.9828 65.3408 10.8975 65.2342 10.8122C65.1126 10.7117 65.0114 10.5888 64.9362 10.4502C64.8722 10.3008 64.8295 10.1302 64.8295 9.91683C64.8295 9.6835 64.8722 9.51216 64.9575 9.36349C65.0428 9.21483 65.1495 9.10816 65.2775 9.0015C65.4055 8.91616 65.5542 8.85216 65.7042 8.80949C65.8542 8.76683 66.0242 8.72416 66.1942 8.70283L66.6842 8.63883L67.1108 8.57483C67.2388 8.5535 67.3242 8.4895 67.4088 8.44683C67.4429 8.41364 67.4699 8.37391 67.4882 8.33004C67.5065 8.28616 67.5158 8.23904 67.5155 8.1915C67.5155 8.0635 67.4942 7.97816 67.4515 7.91483C67.4088 7.85149 67.3662 7.78683 67.3022 7.74416C67.2382 7.70149 67.1528 7.68016 67.0688 7.65883C66.9848 7.6375 66.9048 7.65016 66.7915 7.65016C66.5782 7.65016 66.4082 7.69283 66.2802 7.79949C66.1522 7.88483 66.0882 8.05483 66.0668 8.26816H64.9588C64.9162 7.97016 64.9802 7.75683 65.1082 7.58683L65.1048 7.5835ZM67.2782 9.13883C67.2142 9.16016 67.1288 9.18149 67.0448 9.20283C66.9608 9.22416 66.8742 9.22416 66.7895 9.2455C66.703 9.24923 66.6172 9.26356 66.5342 9.28816L66.3008 9.35216C66.2239 9.37461 66.1516 9.41074 66.0875 9.45883C66.0235 9.5015 65.9808 9.5655 65.9382 9.6295C65.8955 9.6935 65.8742 9.77883 65.8742 9.88483C65.8726 9.97409 65.8947 10.0622 65.9382 10.1402C65.9808 10.2042 66.0235 10.2682 66.0875 10.2895C66.1515 10.3108 66.2155 10.3535 66.3008 10.3748C66.3862 10.3962 66.4715 10.3962 66.5562 10.3962C66.7695 10.3962 66.9395 10.3535 67.0675 10.2895C67.1955 10.2255 67.2808 10.1402 67.3228 10.0342C67.3868 9.9275 67.4082 9.82083 67.4295 9.73616C67.4508 9.6515 67.4508 9.54416 67.4508 9.48083V9.07616C67.4082 9.07616 67.3442 9.11883 67.2802 9.14016L67.2782 9.13883Z" fill="#F58536"/>
<g clip-path="url(#clip1_1237_20747)">
<path d="M8.32217 8.34925C8.27421 8.41876 8.2338 8.47596 8.19489 8.53378C7.57438 9.46502 6.95408 10.3962 6.33397 11.3272C5.7571 12.1933 5.17962 13.0588 4.60154 13.9238C4.59194 13.9374 4.57965 13.9488 4.56547 13.9572C4.55128 13.9656 4.53552 13.9709 4.5192 13.9727C3.70305 13.9655 2.8871 13.9565 2.07135 13.9457C2.0623 13.9457 2.05295 13.9429 2.03516 13.9401C2.04174 13.9227 2.0494 13.9058 2.05808 13.8894C2.62731 12.9895 3.19655 12.0898 3.76578 11.1904C4.27067 10.3932 4.77586 9.59624 5.28136 8.7995C5.84155 7.91418 6.40143 7.02824 6.96101 6.14169C7.04365 6.01098 7.12961 5.88274 7.20803 5.74957C7.22814 5.71392 7.23418 5.6718 7.22492 5.63178C7.07412 5.14155 6.9203 4.65255 6.76678 4.16356C6.70103 3.95412 6.63226 3.74591 6.57073 3.53524C6.55083 3.46758 6.51795 3.44698 6.45009 3.44728C5.93736 3.44944 5.42764 3.44882 4.91641 3.44882C4.8193 3.44882 4.81899 3.44882 4.81899 3.35102C4.81899 2.7101 4.81899 2.06917 4.81719 1.42825C4.81719 1.3569 4.84011 1.34091 4.90586 1.34091C5.93514 1.34275 6.96463 1.34275 7.99432 1.34091C8.01823 1.33779 8.04244 1.34365 8.06242 1.35741C8.0824 1.37116 8.09679 1.39186 8.1029 1.41564C8.64579 2.808 9.18869 4.19985 9.73158 5.59118C10.365 7.21379 10.9983 8.83661 11.6317 10.4596C11.8284 10.9634 12.0265 11.4668 12.221 11.9718C12.2443 12.0333 12.2684 12.045 12.3293 12.026C12.8689 11.8559 13.4097 11.6904 13.949 11.52C14.0168 11.4985 14.0416 11.513 14.0627 11.5816C14.2466 12.1711 14.4342 12.7595 14.6206 13.3484C14.627 13.3687 14.6318 13.3893 14.6393 13.4176C14.6007 13.4321 14.5645 13.4484 14.5274 13.4588C13.3009 13.8551 12.0751 14.2517 10.8499 14.6484C10.7914 14.6672 10.7739 14.6469 10.7543 14.5967C10.3801 13.6298 10.005 12.6633 9.62903 11.6972C9.26127 10.7512 8.89331 9.80517 8.52515 8.85916C8.46995 8.71707 8.41567 8.57437 8.36047 8.43229C8.35173 8.40799 8.33966 8.38677 8.32217 8.34925Z" fill="#FA7E14"/>
</g>
</g>
<defs>
<clipPath id="clip0_1237_20747">
<rect width="68" height="16" fill="white"/>
</clipPath>
<clipPath id="clip1_1237_20747">
<rect width="12.7778" height="13.3333" fill="white" transform="translate(1.90283 1.3335)"/>
</clipPath>
</defs>
</svg>
