<svg width="24" height="25" viewBox="0 0 24 25" fill="none" xmlns="http://www.w3.org/2000/svg">
<g id="Frame">
<path id="Vector" d="M21.9999 8.61279V18.6127L12 22.8984L2.00009 18.6127V8.61279L12 12.8985L21.9999 8.61279Z" stroke="currentColor" stroke-width="1.2" stroke-linecap="round" stroke-linejoin="round"/>
<path id="Vector_2" d="M11.9996 22.8983V12.8984" stroke="currentColor" stroke-width="1.2" stroke-linecap="round" stroke-linejoin="round"/>
<path id="Vector_3" d="M7.71432 6.16406L2.00009 8.61261" stroke="currentColor" stroke-width="1.2" stroke-linecap="round" stroke-linejoin="round"/>
<path id="Vector_4" d="M16.2857 6.16406L21.9999 8.61261" stroke="currentColor" stroke-width="1.2" stroke-linecap="round" stroke-linejoin="round"/>
<path id="Vector_5" d="M7.71353 4.32699C7.71353 4.70587 8.16506 5.06923 8.96878 5.33714C9.77249 5.60504 10.8626 5.75555 11.9992 5.75555C13.1358 5.75555 14.2259 5.60504 15.0296 5.33714C15.8334 5.06923 16.2849 4.70587 16.2849 4.32699C16.2849 3.94812 15.8334 3.58476 15.0296 3.31685C14.2259 3.04895 13.1358 2.89844 11.9992 2.89844C10.8626 2.89844 9.77249 3.04895 8.96878 3.31685C8.16506 3.58476 7.71353 3.94812 7.71353 4.32699Z" stroke="currentColor" stroke-width="1.2" stroke-linecap="round" stroke-linejoin="round"/>
<path id="Vector_6" d="M7.71353 4.32715V7.18426C7.71353 7.97283 9.63256 8.61282 11.9992 8.61282C14.3658 8.61282 16.2849 7.97283 16.2849 7.18426V4.32715" stroke="currentColor" stroke-width="1.2" stroke-linecap="round" stroke-linejoin="round"/>
</g>
</svg>
