<svg width="37" height="16" viewBox="0 0 37 16" fill="none" xmlns="http://www.w3.org/2000/svg">
<path d="M22.2667 10.6244C20.3724 10.6244 19.3286 10.3621 19.2818 10.3039C19.229 8.68581 19.229 7.06649 19.2818 5.44845C19.3286 5.39603 20.3667 5.20361 22.2667 5.20361C24.0319 5.20361 24.7063 5.85061 24.7063 6.62591C24.7063 7.12714 24.4013 7.58179 23.7914 7.8441V7.93153C24.5245 7.98402 24.8822 8.46193 24.8822 9.00402C24.8822 9.83758 24.032 10.6244 22.2667 10.6244ZM21.0645 7.60511L22.208 7.61096C22.5834 7.55269 22.8356 7.34865 22.8356 7.03392C22.8356 6.63754 22.5365 6.42187 22.0028 6.42187C21.5454 6.42187 21.1994 6.49761 21.0704 6.59674C21.0645 6.92901 21.0645 7.27277 21.0645 7.60511ZM22.0087 9.27802C22.5423 9.27802 22.8649 9.03903 22.8649 8.63102C22.8649 8.29875 22.601 8.10056 22.208 8.08893L21.0645 8.08308C21.0645 8.42113 21.0645 8.75918 21.0704 9.09152C21.1935 9.19636 21.5454 9.27802 22.0087 9.27802ZM30.3939 6.21783C30.4409 7.63421 30.4409 8.98069 30.3939 10.368C29.8544 10.4554 29.2797 10.4554 28.7402 10.368L28.576 9.38293H28.4704C28.2593 10.2397 27.8019 10.5079 27.0923 10.5079C25.6555 10.5079 25.3916 9.34213 25.3916 7.90821C25.3916 7.54684 25.4033 7.0514 25.4033 6.21783C26.0371 6.12457 26.6813 6.12457 27.3151 6.21783V8.2929C27.3151 8.88748 27.6201 9.10892 27.9837 9.10892C28.2417 9.10892 28.5115 8.98069 28.6464 8.76503V6.21783C29.2251 6.12457 29.8152 6.12457 30.3939 6.21783ZM31.1193 10.368C31.0724 8.9516 31.0724 7.60511 31.1193 6.21783C31.6588 6.13039 32.2335 6.13039 32.7731 6.21783L32.9373 7.20295H33.0428C33.2539 6.34613 33.7113 6.07797 34.421 6.07797C35.8578 6.07797 36.1216 7.24374 36.1216 8.67759C36.1216 9.03903 36.1099 9.53448 36.1099 10.368C35.4761 10.4612 34.8319 10.4612 34.1981 10.368V8.2929C34.1981 7.69839 33.8932 7.47688 33.5296 7.47688C33.2716 7.47688 33.0018 7.60511 32.8669 7.82078V10.368C32.2881 10.4612 31.698 10.4612 31.1193 10.368Z" fill="#FBF0DF"/>
<g clip-path="url(#clip0_1237_20691)">
<path d="M14.006 5.28361C13.9757 5.25123 13.9434 5.21885 13.9112 5.18837C13.8789 5.1579 13.8486 5.12361 13.8163 5.09313C13.7841 5.06266 13.7537 5.02837 13.7214 4.9979C13.6892 4.96742 13.6588 4.93313 13.6266 4.90266C13.5943 4.87218 13.564 4.8379 13.5317 4.80742C13.4995 4.77694 13.4691 4.74266 13.4369 4.71218C13.4046 4.68171 13.3743 4.64742 13.342 4.61694C14.283 5.54546 14.8221 6.80861 14.8427 8.13313C14.8427 11.2893 11.6516 13.8569 7.72831 13.8569C5.5314 13.8569 3.56593 13.0512 2.25879 11.7884L2.35365 11.8836L2.44851 11.9788L2.54336 12.0741L2.63822 12.1693L2.73308 12.2646L2.82794 12.3598L2.9228 12.455C4.22804 13.7712 6.23714 14.6188 8.48718 14.6188C12.4105 14.6188 15.6015 12.0512 15.6015 8.90456C15.6015 7.5598 15.0248 6.28551 14.006 5.28361Z" fill="black"/>
<path d="M14.368 8.13336C14.368 11.0305 11.3952 13.3791 7.72796 13.3791C4.06075 13.3791 1.08789 11.0305 1.08789 8.13336C1.08789 6.33717 2.22619 4.7505 3.97537 3.80955C5.72456 2.86859 6.81353 1.90479 7.72796 1.90479C8.64239 1.90479 9.42402 2.69145 11.4805 3.80955C13.2297 4.7505 14.368 6.33717 14.368 8.13336Z" fill="#FBF0DF"/>
<path d="M14.3681 8.13342C14.3672 7.76125 14.3162 7.39091 14.2164 7.03247C13.6984 13.3753 5.99217 13.6801 2.9624 11.7829C4.32438 12.8428 6.00509 13.4058 7.72808 13.3791C11.3896 13.3791 14.3681 11.0268 14.3681 8.13342Z" fill="#F6DECE"/>
<path d="M5.17248 3.46098C6.02051 2.9505 7.14743 1.9924 8.25537 1.9905C8.08493 1.93519 7.90708 1.90628 7.72796 1.90479C7.26885 1.90479 6.77938 2.14288 6.1628 2.50098C5.94842 2.62669 5.72645 2.76574 5.49121 2.9105C5.04917 3.18479 4.54262 3.49526 3.97348 3.80574C2.16738 4.78669 1.08789 6.40383 1.08789 8.13336V8.36002C2.23757 4.28193 4.32635 3.97145 5.17248 3.46098Z" fill="#FFFEFC"/>
<path fill-rule="evenodd" clip-rule="evenodd" d="M7.18162 2.38679C7.18427 2.83655 7.09022 3.28158 6.90589 3.6915C6.72155 4.10143 6.45128 4.46658 6.11352 4.76203C6.0604 4.80965 6.10213 4.90108 6.17043 4.87441C6.80978 4.62489 7.67298 3.87822 7.30873 2.37155C7.29355 2.28584 7.18162 2.3087 7.18162 2.38679ZM7.61227 2.38679C7.84441 2.76706 7.99189 3.19324 8.04461 3.63609C8.09733 4.07895 8.05405 4.52802 7.91772 4.9525C7.89495 5.01917 7.97653 5.07631 8.02206 5.02108C8.43754 4.48774 8.7999 3.4287 7.71472 2.28584C7.6597 2.23631 7.57433 2.3125 7.61227 2.37917V2.38679ZM8.13589 2.35441C8.49941 2.6128 8.80352 2.94645 9.0277 3.33287C9.25188 3.71928 9.39092 4.14946 9.43545 4.59441C9.43353 4.61044 9.43783 4.6266 9.44745 4.63954C9.45708 4.65248 9.4713 4.6612 9.48716 4.66389C9.50302 4.66659 9.5193 4.66305 9.53264 4.65401C9.54597 4.64498 9.55532 4.63114 9.55876 4.61536C9.7333 3.9506 9.63465 2.81727 8.1985 2.2287C8.12261 2.19822 8.07329 2.30108 8.13589 2.34679V2.35441ZM4.63373 4.33536C5.06614 4.20566 5.4665 3.98598 5.80874 3.69061C6.15097 3.39525 6.42741 3.03083 6.62006 2.62108C6.65421 2.5525 6.76235 2.57917 6.74527 2.65536C6.41706 4.17917 5.3186 4.49727 4.63563 4.45536C4.56353 4.45727 4.56543 4.35631 4.63373 4.33536Z" fill="#CCBEA7"/>
<path d="M7.72862 13.8568C3.80529 13.8568 0.614258 11.2892 0.614258 8.13299C0.614258 6.22822 1.7867 4.45108 3.75027 3.38632C4.31942 3.08156 4.80699 2.77489 5.24144 2.50632C5.48048 2.35775 5.70624 2.2187 5.92442 2.08918C6.59032 1.69298 7.15947 1.42822 7.72862 1.42822C8.29777 1.42822 8.79482 1.65679 9.41709 2.02632C9.60681 2.13489 9.79653 2.25298 9.99952 2.38251C10.4719 2.67584 11.005 3.00727 11.707 3.38632C13.6705 4.45108 14.843 6.22632 14.843 8.13299C14.843 11.2892 11.652 13.8568 7.72862 13.8568ZM7.72862 1.90441C7.26951 1.90441 6.78004 2.14251 6.16346 2.5006C5.94908 2.62632 5.72711 2.76537 5.49186 2.91013C5.04982 3.18441 4.54328 3.49489 3.97413 3.80537C2.16803 4.78632 1.08855 6.40346 1.08855 8.13299C1.08855 11.0263 4.06709 13.3806 7.72862 13.3806C11.3901 13.3806 14.3687 11.0263 14.3687 8.13299C14.3687 6.40346 13.2892 4.78632 11.4812 3.80918C10.7641 3.42822 10.2044 3.07013 9.75099 2.78822C9.5442 2.6606 9.35449 2.54251 9.18185 2.43775C8.60701 2.09489 8.18773 1.90441 7.72862 1.90441Z" fill="black"/>
<path d="M9.06533 9.52417C8.98011 9.87463 8.78611 10.1888 8.51136 10.4213C8.3051 10.6221 8.03807 10.7481 7.7525 10.7794C7.45834 10.753 7.18195 10.6267 6.96897 10.4213C6.69703 10.1877 6.50576 9.87365 6.42259 9.52417C6.41983 9.50342 6.42184 9.48232 6.42846 9.46247C6.43509 9.44262 6.44615 9.42456 6.4608 9.40967C6.47545 9.39478 6.4933 9.38345 6.51298 9.37655C6.53267 9.36966 6.55366 9.36738 6.57436 9.36989H8.91546C8.93601 9.36769 8.95679 9.37021 8.97623 9.37724C8.99567 9.38428 9.01327 9.39565 9.0277 9.4105C9.04212 9.42536 9.05301 9.4433 9.05953 9.46299C9.06605 9.48268 9.06803 9.5036 9.06533 9.52417Z" fill="#B71422"/>
<path d="M6.96891 10.4365C7.18145 10.6421 7.45685 10.7696 7.75054 10.7984C8.04356 10.7692 8.31822 10.6417 8.53027 10.4365C8.5981 10.3731 8.66149 10.305 8.71999 10.2327C8.60312 10.0996 8.46036 9.9919 8.30049 9.91623C8.14062 9.84057 7.96703 9.79853 7.79038 9.79272C7.60137 9.79722 7.41627 9.84776 7.25103 9.94001C7.08579 10.0322 6.94535 10.1634 6.8418 10.3222C6.88543 10.3622 6.92337 10.4003 6.96891 10.4365Z" fill="#FF6164"/>
<path d="M6.99971 10.2856C7.09377 10.1635 7.21416 10.0645 7.35184 9.99584C7.48953 9.92722 7.64091 9.89083 7.79462 9.8894C8.07873 9.89782 8.34943 10.0126 8.55349 10.2113C8.59712 10.1637 8.63886 10.1142 8.6787 10.0646C8.43734 9.83386 8.11838 9.70264 7.78513 9.69702C7.60704 9.69856 7.4315 9.73967 7.2711 9.81739C7.1107 9.89511 6.96943 10.0075 6.85742 10.1465C6.90228 10.1955 6.94978 10.2419 6.99971 10.2856Z" fill="black"/>
<path d="M7.74502 10.8935C7.42889 10.8657 7.13138 10.7315 6.90079 10.5126C6.60712 10.2632 6.40041 9.92622 6.31077 9.55069C6.30434 9.51726 6.30543 9.4828 6.31397 9.44985C6.3225 9.41689 6.33826 9.38627 6.36009 9.36021C6.38609 9.32869 6.41892 9.30355 6.45608 9.28672C6.49323 9.26988 6.53373 9.26179 6.57447 9.26307H8.91557C8.95626 9.26221 8.99662 9.27049 9.03371 9.28729C9.0708 9.3041 9.10368 9.32901 9.12995 9.36021C9.15157 9.38636 9.16706 9.41706 9.17527 9.45003C9.18348 9.483 9.1842 9.5174 9.17738 9.55069C9.08774 9.92622 8.88103 10.2632 8.58736 10.5126C8.35726 10.7311 8.06049 10.8653 7.74502 10.8935ZM6.57447 9.48402C6.54412 9.48402 6.53653 9.49736 6.53463 9.50117C6.61483 9.82682 6.79624 10.1184 7.05256 10.3335C7.23999 10.5189 7.48368 10.6363 7.74502 10.6669C8.00569 10.6366 8.24911 10.5208 8.43749 10.3374C8.69301 10.1218 8.87371 9.83033 8.95352 9.50498C8.94938 9.49888 8.94365 9.49406 8.93695 9.49104C8.93025 9.48801 8.92286 9.4869 8.91557 9.48783L6.57447 9.48402Z" fill="black"/>
<path d="M10.6157 9.64177C11.2286 9.64177 11.7255 9.34841 11.7255 8.98654C11.7255 8.62466 11.2286 8.3313 10.6157 8.3313C10.0028 8.3313 9.50586 8.62466 9.50586 8.98654C9.50586 9.34841 10.0028 9.64177 10.6157 9.64177Z" fill="#FEBBD0"/>
<path d="M4.87302 9.64177C5.48597 9.64177 5.98286 9.34841 5.98286 8.98654C5.98286 8.62466 5.48597 8.3313 4.87302 8.3313C4.26008 8.3313 3.76318 8.62466 3.76318 8.98654C3.76318 9.34841 4.26008 9.64177 4.87302 9.64177Z" fill="#FEBBD0"/>
<path fill-rule="evenodd" clip-rule="evenodd" d="M5.39451 8.7238C5.60134 8.72418 5.80363 8.66295 5.97579 8.54785C6.14794 8.43276 6.28222 8.26898 6.36163 8.07724C6.44104 7.88549 6.46201 7.67441 6.42189 7.4707C6.38177 7.26698 6.28236 7.0798 6.13625 6.93283C5.99013 6.78586 5.80387 6.68571 5.60104 6.64506C5.39822 6.60441 5.18794 6.62508 4.99682 6.70446C4.8057 6.78384 4.64232 6.91836 4.52738 7.091C4.41243 7.26363 4.35107 7.46662 4.35107 7.67428C4.35107 7.9523 4.46095 8.21896 4.65658 8.41573C4.8522 8.6125 5.1176 8.7233 5.39451 8.7238ZM10.0938 8.7238C10.3009 8.72531 10.5037 8.66504 10.6766 8.55064C10.8495 8.43624 10.9847 8.27286 11.0649 8.08122C11.1452 7.88958 11.167 7.67832 11.1275 7.47424C11.0881 7.27015 10.9891 7.08243 10.8432 6.93489C10.6973 6.78735 10.5111 6.68663 10.3081 6.64551C10.1051 6.6044 9.89457 6.62473 9.70311 6.70394C9.51166 6.78314 9.34795 6.91766 9.23275 7.09041C9.11755 7.26316 9.05604 7.46638 9.05604 7.67428C9.05553 7.95147 9.16446 8.21756 9.35897 8.41427C9.55348 8.61099 9.81771 8.72229 10.0938 8.7238Z" fill="black"/>
<path fill-rule="evenodd" clip-rule="evenodd" d="M5.07197 7.74096C5.14972 7.74134 5.22583 7.71853 5.29066 7.67544C5.35549 7.63234 5.40612 7.5709 5.43614 7.49889C5.46615 7.42687 5.4742 7.34754 5.45926 7.27093C5.44432 7.19432 5.40707 7.12388 5.35223 7.06855C5.29738 7.01322 5.22741 6.97548 5.15118 6.96011C5.07495 6.94474 4.99589 6.95244 4.92402 6.98222C4.85215 7.01201 4.79071 7.06254 4.74747 7.12742C4.70423 7.1923 4.68115 7.26861 4.68115 7.34667C4.68115 7.45092 4.72227 7.55092 4.7955 7.6248C4.86874 7.69869 4.96814 7.74046 5.07197 7.74096ZM9.77124 7.74096C9.84899 7.74134 9.9251 7.71853 9.98993 7.67544C10.0548 7.63234 10.1054 7.5709 10.1354 7.49889C10.1654 7.42687 10.1735 7.34754 10.1585 7.27093C10.1436 7.19432 10.1063 7.12388 10.0515 7.06855C9.99665 7.01322 9.92668 6.97548 9.85045 6.96011C9.77422 6.94474 9.69516 6.95244 9.6233 6.98222C9.55143 7.01201 9.48998 7.06254 9.44674 7.12742C9.40351 7.1923 9.38043 7.26861 9.38043 7.34667C9.38041 7.45026 9.42101 7.54969 9.49343 7.62347C9.56585 7.69726 9.66428 7.73946 9.76745 7.74096H9.77124Z" fill="white"/>
</g>
<defs>
<clipPath id="clip0_1237_20691">
<rect width="15.1773" height="13.3333" fill="white" transform="translate(0.519043 1.33325)"/>
</clipPath>
</defs>
</svg>
