<svg width="57" height="16" viewBox="0 0 57 16" fill="none" xmlns="http://www.w3.org/2000/svg">
<path d="M20.9299 12.6809L19.0562 7.16771H20.3492L21.4856 10.8752L22.7145 7.15349H23.7475L24.9836 10.8752L26.1235 7.16771H27.381L25.5108 12.6809H24.46L23.2203 9.09786L21.9843 12.6809H20.9334H20.9299ZM29.7 12.7342C28.3962 12.7342 27.4344 11.7745 27.4344 10.5695V10.5553C27.4344 9.34668 28.4069 8.37272 29.7142 8.37272C31.0144 8.37272 31.9797 9.33247 31.9797 10.541V10.5553C31.9797 11.7567 31.0073 12.7342 29.7 12.7342ZM29.7142 11.7105C30.3946 11.7105 30.8042 11.188 30.8042 10.5695V10.5553C30.8042 9.93675 30.3554 9.39645 29.7 9.39645C29.016 9.39645 28.6099 9.91898 28.6099 10.5375V10.5553C28.6099 11.1702 29.0552 11.7105 29.7142 11.7105ZM32.8418 12.6418V8.44737H34.0316V9.29337C34.2738 8.71752 34.6656 8.34073 35.3709 8.36917V9.61328H35.3139C34.5231 9.61328 34.0351 10.0932 34.0351 11.092V12.6418H32.8454H32.8418ZM36.119 12.6418V6.93311H37.3088V9.97585L38.7016 8.44737H40.1265L38.5306 10.1003L40.1834 12.6418H38.8191L37.722 10.9285L37.3088 11.3657V12.6418H36.1154H36.119ZM42.5523 12.7342C41.2877 12.7342 40.358 11.8527 40.358 10.5695V10.5553C40.358 9.35735 41.2129 8.37272 42.4347 8.37272C43.8347 8.37272 44.4794 9.46043 44.4794 10.6477C44.4794 10.7401 44.4723 10.8503 44.4616 10.9605H41.5406C41.6582 11.5008 42.0322 11.7816 42.5665 11.7816C42.9655 11.7816 43.2576 11.6572 43.5853 11.3515L44.2657 11.9558C43.8502 12.4716 43.2151 12.7615 42.5523 12.7378V12.7342ZM41.5228 10.2176H43.3182C43.2469 9.68437 42.9335 9.32891 42.4347 9.32891C41.9396 9.32891 41.6154 9.67726 41.5228 10.2176ZM45.3629 12.6418V8.44737H46.5562V9.29337C46.7984 8.71752 47.1903 8.34073 47.8956 8.36917V9.61328H47.8315C47.0407 9.61328 46.5562 10.0932 46.5562 11.092V12.6418H45.3593H45.3629ZM50.1148 12.72C49.5271 12.72 48.868 12.5245 48.3123 12.0873L48.8217 11.3053C49.2015 11.601 49.6624 11.7746 50.1433 11.8029C50.4888 11.8029 50.6456 11.6785 50.6456 11.4937V11.4759C50.6456 11.22 50.2395 11.1311 49.7764 10.9925C49.1886 10.8183 48.5225 10.5446 48.5225 9.73414V9.71636C48.5225 8.86326 49.2136 8.38694 50.0578 8.38694C50.5921 8.38694 51.1728 8.56467 51.6252 8.87392L51.1728 9.69148C50.8306 9.46995 50.4392 9.33568 50.0329 9.30047C49.7479 9.30047 49.5947 9.42844 49.5947 9.59195V9.60617C49.5947 9.84077 49.9973 9.95097 50.4497 10.1074C51.0374 10.3029 51.7214 10.5837 51.7214 11.3515V11.3657C51.7214 12.297 51.0232 12.72 50.1148 12.72Z" fill="#EBEBEA"/>
<path d="M21.7097 3.65606H22.2654V5.15255H23.2379V5.63243H21.7061V3.65606H21.7097ZM23.8078 4.65135V4.64424C23.8078 4.07551 24.2709 3.61341 24.8871 3.61341C25.166 3.6038 25.4369 3.70717 25.6382 3.9C25.8395 4.09282 25.954 4.3587 25.9558 4.63713V4.64424C25.9558 5.21298 25.4927 5.67153 24.88 5.67153C24.6005 5.68212 24.3287 5.57918 24.1266 5.38625C23.9246 5.19332 23.8095 4.92687 23.8078 4.6478V4.65135ZM25.3965 4.65135V4.64424C25.3965 4.35988 25.1899 4.11105 24.8836 4.11105C24.5808 4.11105 24.3778 4.35277 24.3778 4.64069V4.64424C24.3778 4.92861 24.5844 5.17744 24.8871 5.17744C25.1935 5.17744 25.3965 4.93572 25.3965 4.6478V4.65135ZM26.6397 4.7651V3.65606H27.2026V4.75799C27.2026 5.04236 27.3486 5.17388 27.5695 5.17388C27.7903 5.17388 27.9364 5.04591 27.9364 4.76866V3.65606H28.4992V4.75088C28.4992 5.39071 28.1323 5.66797 27.5623 5.66797C26.9924 5.66797 26.6362 5.3836 26.6362 4.7651H26.6397ZM29.347 3.65606H30.1164C30.8289 3.65606 31.2456 4.06129 31.2456 4.63358V4.64069C31.2456 5.20943 30.8253 5.63598 30.1057 5.63598H29.347V3.65251V3.65606ZM30.1307 5.149C30.4584 5.149 30.6793 4.96771 30.6793 4.64424C30.6793 4.32433 30.4584 4.14304 30.1271 4.14304H29.9027V5.14189H30.1271V5.14544L30.1307 5.149ZM32.0543 3.65606H33.6537V4.13593H32.6064V4.47362H33.5539V4.92861H32.6064V5.63243H32.0543V3.65606ZM34.4231 3.65606H34.9752V5.15255H35.9442V5.63243H34.4231V3.65606ZM37.3904 3.64184H37.9247L38.7797 5.63243H38.1812L38.0387 5.28052H37.2657L37.1232 5.63598H36.5426L37.3904 3.64184ZM37.8784 4.85397L37.6576 4.29234L37.4331 4.85397H37.8784ZM39.4885 3.65606H40.4361C40.7424 3.65606 40.9526 3.73426 41.0879 3.86934C41.2055 3.98309 41.2661 4.13593 41.2661 4.33144V4.33855C41.2661 4.64424 41.1022 4.8433 40.8564 4.94283L41.3337 5.63953H40.6925L40.2865 5.04236H40.0442V5.63953H39.4885V3.65606ZM40.4111 4.60514C40.5999 4.60514 40.7068 4.51272 40.7068 4.37054V4.36343C40.7068 4.21058 40.5928 4.13238 40.4076 4.13238H40.0407V4.60514H40.4111ZM42.064 3.65606H43.667V4.11816H42.6161V4.4203H43.5743V4.85397H42.6126V5.16677H43.6883V5.63243H42.0675V3.65606H42.064ZM20.495 4.8824C20.4162 5.06326 20.2366 5.17948 20.039 5.17744C19.7362 5.17744 19.5296 4.92861 19.5296 4.64424C19.5296 4.35988 19.7327 4.11105 20.0355 4.11105C20.2478 4.10935 20.4379 4.24202 20.5092 4.44163H21.1005C20.9954 3.94883 20.5507 3.60257 20.0461 3.62052C19.4299 3.62052 18.9668 4.08262 18.9668 4.65135V4.65491C18.9685 4.93398 19.0836 5.20043 19.2856 5.39336C19.4877 5.58629 19.7595 5.68923 20.039 5.67863C20.5662 5.67863 20.9794 5.34095 21.0863 4.88951L20.5021 4.88596L20.495 4.8824Z" fill="#BCBCB8"/>
<path d="M5.03532 1.49487L6.78079 4.63715L5.17781 7.51638C5.0218 7.79594 5.0218 8.13614 5.17781 8.41569L6.78079 11.302L5.03532 14.4443C4.70689 14.2818 4.43415 14.0258 4.25164 13.7085L1.47314 8.89201C1.14372 8.31973 1.14372 7.6159 1.47314 7.04362L4.25164 2.22712C4.4347 1.91119 4.70739 1.65641 5.03532 1.49487Z" fill="url(#paint0_linear_1237_20729)"/>
<path opacity="0.7" d="M5.17802 7.51978C5.02332 7.79841 5.02332 8.1369 5.17802 8.41554L6.781 11.3019L5.03553 14.4442C4.7071 14.2817 4.43436 14.0256 4.25185 13.7083L1.47335 8.89185C1.2525 8.51151 2.48858 8.05652 5.17802 7.52333V7.51978Z" fill="url(#paint1_linear_1237_20729)"/>
<path opacity="0.5" d="M5.21337 1.81123L6.78073 4.63715L6.52069 5.08858L5.13857 2.7532C4.7396 2.10271 4.13047 2.4404 3.36816 3.7556L3.48215 3.5601L4.25159 2.22712C4.43274 1.91223 4.70283 1.65755 5.02814 1.49487L5.20981 1.81123H5.21337Z" fill="url(#paint2_linear_1237_20729)"/>
<path d="M13.0143 2.22718L15.7928 7.04367C16.1241 7.61241 16.1241 8.32333 15.7928 8.89207L13.0143 13.7086C12.6836 14.2801 12.0727 14.6323 11.4113 14.6328H8.63281L12.0881 8.41575C12.2428 8.13711 12.2428 7.79862 12.0881 7.51999L8.63281 1.30298H11.4113C12.0727 1.3034 12.6836 1.65565 13.0143 2.22718Z" fill="url(#paint3_linear_1237_20729)"/>
<path d="M11.2692 14.6114L8.52637 14.6363L11.8463 8.38731C11.997 8.10515 11.997 7.76661 11.8463 7.48444L8.52637 1.30298H9.15331L12.6371 7.456C12.8051 7.75177 12.8037 8.11414 12.6336 8.40864C11.8838 9.70898 11.1393 11.0123 10.4001 12.3187C9.72326 13.5059 10.0154 14.2702 11.2692 14.6114Z" fill="url(#paint4_linear_1237_20729)"/>
<path d="M5.85446 14.6328C5.56948 14.6328 5.28451 14.5652 5.03516 14.4444L8.46197 8.27712C8.56884 8.08517 8.56884 7.85056 8.46197 7.65862L5.03516 1.49493C5.28988 1.36906 5.57022 1.30339 5.85446 1.30298H8.63296L12.0883 7.51999C12.243 7.79862 12.243 8.13711 12.0883 8.41575L8.63296 14.6328H5.85446Z" fill="url(#paint5_linear_1237_20729)"/>
<path opacity="0.6" d="M11.8462 7.65862L8.3125 1.30298H8.6331L12.0884 7.51999C12.2431 7.79862 12.2431 8.13711 12.0884 8.41575L8.6331 14.6328H8.3125L11.8462 8.27712C11.953 8.08517 11.953 7.85056 11.8462 7.65862Z" fill="url(#paint6_linear_1237_20729)"/>
<path opacity="0.6" d="M8.46198 7.65838L5.03516 1.49469C5.14202 1.43782 5.27026 1.39517 5.39137 1.35962C6.14656 2.71392 7.26152 4.76849 8.73983 7.51975C8.89452 7.79839 8.89452 8.13688 8.73983 8.41552L5.33794 14.5614C5.21683 14.5259 5.15271 14.501 5.03872 14.4477L8.45841 8.28044C8.56528 8.08849 8.56528 7.85389 8.45841 7.66194L8.46198 7.65838Z" fill="url(#paint7_linear_1237_20729)"/>
<defs>
<linearGradient id="paint0_linear_1237_20729" x1="278.962" y1="1296.44" x2="-288.221" y2="382.327" gradientUnits="userSpaceOnUse">
<stop stop-color="#EB6F07"/>
<stop offset="1" stop-color="#FAB743"/>
</linearGradient>
<linearGradient id="paint1_linear_1237_20729" x1="433.402" y1="587.09" x2="141.109" y2="285.835" gradientUnits="userSpaceOnUse">
<stop stop-color="#D96504"/>
<stop offset="1" stop-color="#D96504" stop-opacity="0"/>
</linearGradient>
<linearGradient id="paint2_linear_1237_20729" x1="146.696" y1="32.7601" x2="301.294" y2="281.631" gradientUnits="userSpaceOnUse">
<stop stop-color="#EB6F07"/>
<stop offset="1" stop-color="#EB720A" stop-opacity="0"/>
</linearGradient>
<linearGradient id="paint3_linear_1237_20729" x1="379.055" y1="1334.28" x2="-128.613" y2="274.176" gradientUnits="userSpaceOnUse">
<stop stop-color="#EE6F05"/>
<stop offset="1" stop-color="#FAB743"/>
</linearGradient>
<linearGradient id="paint4_linear_1237_20729" x1="-132.102" y1="1334.64" x2="683.329" y2="1127.23" gradientUnits="userSpaceOnUse">
<stop stop-color="#D96504" stop-opacity="0.8"/>
<stop offset="0.498" stop-color="#D96504" stop-opacity="0.2"/>
<stop offset="1" stop-color="#D96504" stop-opacity="0"/>
</linearGradient>
<linearGradient id="paint5_linear_1237_20729" x1="363.492" y1="1334.28" x2="-154.563" y2="287.431" gradientUnits="userSpaceOnUse">
<stop stop-color="#FFA95F"/>
<stop offset="1" stop-color="#FFEBC8"/>
</linearGradient>
<linearGradient id="paint6_linear_1237_20729" x1="39.8372" y1="15.9657" x2="473.298" y2="84.256" gradientUnits="userSpaceOnUse">
<stop stop-color="white" stop-opacity="0.5"/>
<stop offset="1" stop-color="white" stop-opacity="0.1"/>
</linearGradient>
<linearGradient id="paint7_linear_1237_20729" x1="-47.3083" y1="1376.99" x2="488.469" y2="1297.89" gradientUnits="userSpaceOnUse">
<stop stop-color="white" stop-opacity="0.5"/>
<stop offset="1" stop-color="white" stop-opacity="0.1"/>
</linearGradient>
</defs>
</svg>
