<svg width="17" height="16" viewBox="0 0 17 16" fill="none" xmlns="http://www.w3.org/2000/svg">
<path fill-rule="evenodd" clip-rule="evenodd" d="M8.55664 15.9998C12.9749 15.9998 16.5566 12.418 16.5566 7.99976C16.5566 3.58148 12.9749 -0.000244141 8.55664 -0.000244141C4.13836 -0.000244141 0.556641 3.58148 0.556641 7.99976C0.556641 12.418 4.13836 15.9998 8.55664 15.9998ZM6.22303 11.8393C6.16052 11.9018 6.07574 11.9369 5.98733 11.9369C5.89893 11.9369 5.81414 11.9018 5.75163 11.8393L4.80882 10.8965C4.74631 10.834 4.71119 10.7492 4.71119 10.6608C4.71119 10.5724 4.74631 10.4876 4.80882 10.4251L8.5282 6.70568C8.55206 6.68327 8.56846 6.65407 8.57521 6.62204C8.58195 6.59001 8.57871 6.55668 8.56592 6.52655C8.55332 6.49532 8.5319 6.46843 8.50427 6.44918C8.47665 6.42992 8.44401 6.41913 8.41035 6.41812L5.83177 6.43227C5.76652 6.43162 5.7029 6.41184 5.64879 6.37538C5.59468 6.33892 5.55246 6.28738 5.52736 6.22715C5.50227 6.16692 5.4954 6.10065 5.50761 6.03656C5.51983 5.97246 5.55058 5.91336 5.59607 5.86658L7.04799 4.41465C7.08095 4.38236 7.12003 4.35696 7.16293 4.33996C7.20583 4.32296 7.2517 4.3147 7.29784 4.31566L11.795 4.53251C11.878 4.53856 11.9561 4.57427 12.015 4.63312C12.0738 4.69198 12.1095 4.77005 12.1156 4.85306L12.3324 9.35026C12.3355 9.39693 12.3286 9.44372 12.3124 9.48757C12.2961 9.53143 12.2708 9.57138 12.2382 9.60482L10.8004 11.0426C10.7524 11.0869 10.6927 11.1164 10.6284 11.1276C10.5641 11.1389 10.4979 11.1314 10.4378 11.106C10.3776 11.0806 10.3261 11.0385 10.2892 10.9846C10.2524 10.9308 10.2318 10.8674 10.23 10.8022L10.2347 8.24246C10.2337 8.2088 10.2229 8.17616 10.2036 8.14854C10.1844 8.12091 10.1575 8.09949 10.1263 8.0869C10.096 8.07501 10.0629 8.07226 10.0311 8.07896C9.99922 8.08566 9.97005 8.10153 9.94713 8.12461L6.22303 11.8393Z" fill="currentColor"/>
</svg>
