<svg xmlns="http://www.w3.org/2000/svg" width="59" height="58" viewBox="0 0 59 58" fill="none">
  <g filter="url(#filter0_d_457_445)">
    <path fill-rule="evenodd" clip-rule="evenodd" d="M9.3367 18.6166C7.17835 16.7989 7.04837 13.5512 9.05471 11.5712L12.1126 8.55336C14.0895 6.60236 17.3221 6.69388 19.1824 8.75353L21.8712 11.7304C26.0159 16.3191 33.2867 16.3191 37.4313 11.7304L40.1201 8.75353C41.9804 6.69388 45.213 6.60236 47.1899 8.55336L50.2478 11.5712C52.2542 13.5512 52.1242 16.7989 49.9658 18.6166L47.5952 20.613C42.3943 24.9931 42.3943 32.9244 47.5952 37.3045L49.9658 39.3009C52.1242 41.1186 52.2542 44.3663 50.2478 46.3463L47.2697 49.2855C45.2633 51.2655 41.9726 51.1372 40.1308 49.0072L37.5793 46.0564C33.4184 41.2444 25.8841 41.2444 21.7233 46.0564L19.1718 49.0072C17.3299 51.1372 14.0392 51.2655 12.0329 49.2855L9.05471 46.3463C7.04837 44.3663 7.17835 41.1186 9.3367 39.3009L12.017 37.0437C17.0553 32.8005 17.0553 25.117 12.017 20.8738L9.3367 18.6166Z" fill="#141413"/>
  </g>
  <g filter="url(#filter1_i_457_445)">
    <path fill-rule="evenodd" clip-rule="evenodd" d="M9.3367 18.6166C7.17835 16.7989 7.04837 13.5512 9.05471 11.5712L12.1126 8.55336C14.0895 6.60236 17.3221 6.69388 19.1824 8.75353L21.8712 11.7304C26.0159 16.3191 33.2867 16.3191 37.4313 11.7304L40.1201 8.75353C41.9804 6.69388 45.213 6.60236 47.1899 8.55336L50.2478 11.5712C52.2542 13.5512 52.1242 16.7989 49.9658 18.6166L47.5952 20.613C42.3943 24.9931 42.3943 32.9244 47.5952 37.3045L49.9658 39.3009C52.1242 41.1186 52.2542 44.3663 50.2478 46.3463L47.2697 49.2855C45.2633 51.2655 41.9726 51.1372 40.1308 49.0072L37.5793 46.0564C33.4184 41.2444 25.8841 41.2444 21.7233 46.0564L19.1718 49.0072C17.3299 51.1372 14.0392 51.2655 12.0329 49.2855L9.05471 46.3463C7.04837 44.3663 7.17835 41.1186 9.3367 39.3009L12.017 37.0437C17.0553 32.8005 17.0553 25.117 12.017 20.8738L9.3367 18.6166Z" fill="#141413"/>
  </g>
  <g filter="url(#filter2_i_457_445)">
    <path fill-rule="evenodd" clip-rule="evenodd" d="M6.4755 9.02552L9.53339 6.00769C12.993 2.59343 18.6501 2.75359 21.9056 6.35798L24.5944 9.33488C27.2884 12.3176 32.0144 12.3176 34.7085 9.33488L37.3972 6.35799C40.6528 2.7536 46.3099 2.59343 49.7695 6.00769L52.8274 9.02552C56.3385 12.4906 56.111 18.1739 52.3339 21.3549L49.9633 23.3514C46.4689 26.2942 46.4689 31.6231 49.9633 34.566L52.3339 36.5624C56.111 39.7434 56.3385 45.4267 52.8274 48.8918L49.8492 51.831C46.3381 55.2961 40.5793 55.0716 37.3561 51.344L34.8046 48.3932C32.1001 45.2654 27.2028 45.2654 24.4982 48.3932L21.9467 51.344C18.7235 55.0716 12.9648 55.2961 9.45367 51.831L6.4755 48.8918C2.96441 45.4267 3.19188 39.7434 6.96898 36.5624L9.64926 34.3052C12.9811 31.4992 12.9811 26.4182 9.64926 23.6122L6.96898 21.3549C3.19188 18.1739 2.96441 12.4906 6.4755 9.02552ZM9.05488 11.5711C7.04854 13.5512 7.17852 16.7988 9.33686 18.6165L12.0171 20.8737C17.0555 25.1169 17.0555 32.8004 12.0171 37.0436L9.33686 39.3009C7.17852 41.1186 7.04854 44.3662 9.05488 46.3462L12.0331 49.2854C14.0394 51.2655 17.3301 51.1372 19.1719 49.0071L21.7234 46.0563C25.8843 41.2444 33.4186 41.2444 37.5794 46.0563L40.1309 49.0071C41.9728 51.1372 45.2635 51.2655 47.2698 49.2854L50.248 46.3462C52.2543 44.3662 52.1244 41.1186 49.966 39.3009L47.5954 37.3044C42.3945 32.9243 42.3945 24.993 47.5954 20.6129L49.966 18.6165C52.1244 16.7988 52.2543 13.5512 50.248 11.5711L47.1901 8.55328C45.2132 6.60227 41.9806 6.6938 40.1203 8.75345L37.4315 11.7303C33.2868 16.3191 26.016 16.3191 21.8714 11.7303L19.1826 8.75344C17.3223 6.69379 14.0897 6.60227 12.1128 8.55328L9.05488 11.5711Z" fill="url(#paint0_linear_457_445)"/>
  </g>
  <defs>
    <filter id="filter0_d_457_445" x="0.519023" y="0.0363574" width="58.2645" height="57.7662" filterUnits="userSpaceOnUse" color-interpolation-filters="sRGB">
      <feFlood flood-opacity="0" result="BackgroundImageFix"/>
      <feColorMatrix in="SourceAlpha" type="matrix" values="0 0 0 0 0 0 0 0 0 0 0 0 0 0 0 0 0 0 127 0" result="hardAlpha"/>
      <feOffset/>
      <feGaussianBlur stdDeviation="3.55555"/>
      <feComposite in2="hardAlpha" operator="out"/>
      <feColorMatrix type="matrix" values="0 0 0 0 0 0 0 0 0 0 0 0 0 0 0 0 0 0 0.16 0"/>
      <feBlend mode="normal" in2="BackgroundImageFix" result="effect1_dropShadow_457_445"/>
      <feBlend mode="normal" in="SourceGraphic" in2="effect1_dropShadow_457_445" result="shape"/>
    </filter>
    <filter id="filter1_i_457_445" x="7.63013" y="7.14746" width="44.0423" height="47.0995" filterUnits="userSpaceOnUse" color-interpolation-filters="sRGB">
      <feFlood flood-opacity="0" result="BackgroundImageFix"/>
      <feBlend mode="normal" in="SourceGraphic" in2="BackgroundImageFix" result="shape"/>
      <feColorMatrix in="SourceAlpha" type="matrix" values="0 0 0 0 0 0 0 0 0 0 0 0 0 0 0 0 0 0 127 0" result="hardAlpha"/>
      <feOffset dy="7.1111"/>
      <feGaussianBlur stdDeviation="1.77778"/>
      <feComposite in2="hardAlpha" operator="arithmetic" k2="-1" k3="1"/>
      <feColorMatrix type="matrix" values="0 0 0 0 1 0 0 0 0 1 0 0 0 0 1 0 0 0 0.2 0"/>
      <feBlend mode="normal" in2="shape" result="effect1_innerShadow_457_445"/>
    </filter>
    <filter id="filter2_i_457_445" x="3.98248" y="3.54736" width="51.3379" height="57.8552" filterUnits="userSpaceOnUse" color-interpolation-filters="sRGB">
      <feFlood flood-opacity="0" result="BackgroundImageFix"/>
      <feBlend mode="normal" in="SourceGraphic" in2="BackgroundImageFix" result="shape"/>
      <feColorMatrix in="SourceAlpha" type="matrix" values="0 0 0 0 0 0 0 0 0 0 0 0 0 0 0 0 0 0 127 0" result="hardAlpha"/>
      <feOffset dy="7.1111"/>
      <feGaussianBlur stdDeviation="3.55555"/>
      <feComposite in2="hardAlpha" operator="arithmetic" k2="-1" k3="1"/>
      <feColorMatrix type="matrix" values="0 0 0 0 1 0 0 0 0 1 0 0 0 0 1 0 0 0 0.2 0"/>
      <feBlend mode="normal" in2="shape" result="effect1_innerShadow_457_445"/>
    </filter>
    <linearGradient id="paint0_linear_457_445" x1="52.1117" y1="6.30481" x2="11.332" y2="50.1465" gradientUnits="userSpaceOnUse">
      <stop stop-color="#77DA05"/>
      <stop offset="0.5" stop-color="#DBFE01"/>
      <stop offset="1" stop-color="#77DA05"/>
    </linearGradient>
  </defs>
</svg>
