<svg width="111" height="30" viewBox="0 0 111 30" fill="none" xmlns="http://www.w3.org/2000/svg">
<g filter="url(#filter0_d_377_16689)">
<path fill-rule="evenodd" clip-rule="evenodd" d="M6.64649 10.6908C5.75896 9.93338 5.70551 8.5802 6.53053 7.75518L7.78796 6.49775C8.60088 5.68483 9.93016 5.72297 10.6951 6.58116L11.8008 7.82153C13.5051 9.7335 16.4949 9.7335 18.1992 7.82153L19.3049 6.58116C20.0698 5.72297 21.3991 5.68483 22.212 6.49775L23.4695 7.75518C24.2945 8.5802 24.241 9.93338 23.3535 10.6908L22.3787 11.5226C20.2401 13.3476 20.2401 16.6524 22.3787 18.4774L23.3535 19.3092C24.241 20.0666 24.2945 21.4198 23.4695 22.2448L22.2448 23.4695C21.4198 24.2945 20.0666 24.241 19.3092 23.3535L18.2601 22.124C16.5491 20.119 13.4509 20.119 11.7399 22.124L10.6908 23.3535C9.93338 24.241 8.5802 24.2945 7.75518 23.4695L6.53053 22.2448C5.70551 21.4198 5.75896 20.0666 6.64649 19.3092L7.74864 18.3687C9.82046 16.6007 9.82046 13.3993 7.74864 11.6313L6.64649 10.6908Z" fill="#141413"/>
<path d="M6.17698 7.40163C5.1457 8.43291 5.21251 10.1244 6.32192 11.0711L7.42408 12.0116C9.26198 13.58 9.26198 16.42 7.42408 17.9884L6.32193 18.9289C5.21252 19.8756 5.1457 21.5671 6.17698 22.5984L7.40163 23.823C8.43291 24.8543 10.1244 24.7875 11.0711 23.6781L12.1203 22.4486C13.6316 20.6775 16.3684 20.6775 17.8797 22.4486L18.9289 23.6781C19.8756 24.7875 21.5671 24.8543 22.5984 23.823L23.823 22.5984C24.8543 21.5671 24.7875 19.8756 23.6781 18.9289L22.7033 18.097C20.7985 16.4716 20.7985 13.5284 22.7033 11.903L23.6781 11.0711C24.7875 10.1244 24.8543 8.43291 23.823 7.40163L22.5656 6.1442C21.5494 5.12805 19.8878 5.17572 18.9316 6.24846L17.826 7.48882C16.3205 9.17773 13.6795 9.17773 12.174 7.48883L11.0684 6.24845C10.1122 5.17572 8.45056 5.12805 7.43441 6.1442L6.17698 7.40163Z" stroke="url(#paint0_linear_377_16689)"/>
</g>
<g filter="url(#filter1_i_377_16689)">
<path fill-rule="evenodd" clip-rule="evenodd" d="M6.64649 10.6908C5.75896 9.93338 5.70551 8.5802 6.53053 7.75518L7.78796 6.49775C8.60088 5.68483 9.93016 5.72297 10.6951 6.58116L11.8008 7.82153C13.5051 9.7335 16.4949 9.7335 18.1992 7.82153L19.3049 6.58116C20.0698 5.72297 21.3991 5.68483 22.212 6.49775L23.4695 7.75518C24.2945 8.5802 24.241 9.93338 23.3535 10.6908L22.3787 11.5226C20.2401 13.3476 20.2401 16.6524 22.3787 18.4774L23.3535 19.3092C24.241 20.0666 24.2945 21.4198 23.4695 22.2448L22.2448 23.4695C21.4198 24.2945 20.0666 24.241 19.3092 23.3535L18.2601 22.124C16.5491 20.119 13.4509 20.119 11.7399 22.124L10.6908 23.3535C9.93338 24.241 8.5802 24.2945 7.75518 23.4695L6.53053 22.2448C5.70551 21.4198 5.75896 20.0666 6.64649 19.3092L7.74864 18.3687C9.82046 16.6007 9.82046 13.3993 7.74864 11.6313L6.64649 10.6908Z" fill="#141413"/>
</g>
<path d="M6.0002 7.22485C4.8658 8.35926 4.93929 10.2199 6.15964 11.2613L7.2618 12.2018C8.98274 13.6704 8.98274 16.3296 7.2618 17.7982L6.15964 18.7387C4.93929 19.7801 4.8658 21.6407 6.0002 22.7752L7.22485 23.9998C8.35926 25.1342 10.2199 25.0607 11.2613 23.8404L12.3105 22.6109C13.722 20.9568 16.278 20.9568 17.6895 22.6109L18.7387 23.8404C19.7801 25.0607 21.6407 25.1342 22.7751 23.9998L23.9998 22.7752C25.1342 21.6407 25.0607 19.7801 23.8404 18.7387L22.8655 17.9069C21.0778 16.3813 21.0778 13.6187 22.8655 12.0931L23.8404 11.2613C25.0607 10.2199 25.1342 8.35926 23.9998 7.22485L22.7424 5.96742C21.6246 4.84966 19.7968 4.9021 18.745 6.0821L17.6393 7.32247C16.2333 8.89985 13.7667 8.89985 12.3607 7.32248L11.255 6.0821C10.2032 4.90209 8.3754 4.84966 7.25763 5.96742L6.0002 7.22485Z" stroke="url(#paint1_linear_377_16689)" stroke-width="1.5"/>
<path id="fuse-letters" d="M48.192 6.7L47.544 10.516H39.84L39.24 13.996H45.816L45.168 17.644H38.592L37.56 23.5H33.48L36.432 6.7H48.192ZM51.6416 23.836C48.3776 23.836 46.7456 21.34 47.3216 18.124L48.5216 11.26H52.3136L51.1376 17.884C50.9456 19.084 51.6176 20.332 53.0816 20.332C54.2096 20.332 55.1456 19.444 55.3376 18.22L56.5376 11.26H60.3296L58.1936 23.5H55.4096L55.0496 22.372H54.9296C54.2816 23.164 53.1296 23.836 51.6416 23.836ZM66.0105 23.836C63.0345 23.836 60.7785 22.468 60.7305 19.66L64.3545 19.492C64.3545 20.26 64.8345 20.908 65.9385 20.908C66.6825 20.908 67.1865 20.5 67.1865 19.948C67.1865 18.316 61.8345 18.268 61.8345 14.812C61.8345 12.484 63.7785 10.924 66.6825 10.924C69.4185 10.924 71.6505 12.292 71.6985 14.98L68.0505 15.124C68.0265 14.26 67.5225 13.852 66.6825 13.852C66.1545 13.852 65.6025 14.116 65.6025 14.692C65.6025 16.276 71.0265 16.156 71.0265 19.66C71.0265 22.228 68.9625 23.836 66.0105 23.836ZM85.5566 16.588C85.5566 17.308 85.4606 17.932 85.2446 18.556H76.4846C76.7246 19.78 77.6126 20.644 78.9566 20.644C79.9646 20.644 80.7566 20.14 81.0446 19.78L84.8846 19.948C84.0446 21.772 81.8126 23.836 78.7646 23.836C75.4766 23.836 72.8846 21.34 72.8846 17.932C72.8846 14.404 75.8606 10.924 79.8926 10.924C83.0126 10.924 85.5566 13.276 85.5566 16.588ZM79.5806 14.068C78.2606 14.068 77.2046 14.98 76.7246 16.204H82.0526C81.9086 15.124 81.1406 14.068 79.5806 14.068ZM88.29 23.836C87.138 23.836 86.322 22.972 86.322 21.844C86.322 20.572 87.378 19.564 88.674 19.564C89.802 19.564 90.594 20.404 90.594 21.532C90.594 22.828 89.562 23.836 88.29 23.836ZM96.9071 9.868C95.7791 9.868 94.9631 9.052 94.9631 7.972C94.9631 6.748 95.9951 5.788 97.2671 5.788C98.3951 5.788 99.2111 6.604 99.2111 7.684C99.2111 8.884 98.1791 9.868 96.9071 9.868ZM91.6271 27.94C90.8591 27.94 90.0671 27.796 89.3711 27.46L89.9231 24.268C90.1631 24.412 90.4511 24.532 90.9311 24.532C91.7951 24.532 92.3711 24.004 92.5391 22.972L94.5791 11.26H98.3711L96.2111 23.644C95.7311 26.38 93.9311 27.94 91.6271 27.94ZM104.05 23.836C101.074 23.836 98.8176 22.468 98.7696 19.66L102.394 19.492C102.394 20.26 102.874 20.908 103.978 20.908C104.722 20.908 105.226 20.5 105.226 19.948C105.226 18.316 99.8736 18.268 99.8736 14.812C99.8736 12.484 101.818 10.924 104.722 10.924C107.458 10.924 109.69 12.292 109.738 14.98L106.09 15.124C106.066 14.26 105.562 13.852 104.722 13.852C104.194 13.852 103.642 14.116 103.642 14.692C103.642 16.276 109.066 16.156 109.066 19.66C109.066 22.228 107.002 23.836 104.05 23.836Z" fill="#141413"/>
<defs>
<filter id="filter0_d_377_16689" x="0.944733" y="0.911957" width="28.1105" height="28.1433" filterUnits="userSpaceOnUse" color-interpolation-filters="sRGB">
<feFlood flood-opacity="0" result="BackgroundImageFix"/>
<feColorMatrix in="SourceAlpha" type="matrix" values="0 0 0 0 0 0 0 0 0 0 0 0 0 0 0 0 0 0 127 0" result="hardAlpha"/>
<feOffset/>
<feGaussianBlur stdDeviation="2"/>
<feComposite in2="hardAlpha" operator="out"/>
<feColorMatrix type="matrix" values="0 0 0 0 0 0 0 0 0 0 0 0 0 0 0 0 0 0 0.16 0"/>
<feBlend mode="normal" in2="BackgroundImageFix" result="effect1_dropShadow_377_16689"/>
<feBlend mode="normal" in="SourceGraphic" in2="effect1_dropShadow_377_16689" result="shape"/>
</filter>
<filter id="filter1_i_377_16689" x="4.44473" y="4.41196" width="21.1105" height="25.1433" filterUnits="userSpaceOnUse" color-interpolation-filters="sRGB">
<feFlood flood-opacity="0" result="BackgroundImageFix"/>
<feBlend mode="normal" in="SourceGraphic" in2="BackgroundImageFix" result="shape"/>
<feColorMatrix in="SourceAlpha" type="matrix" values="0 0 0 0 0 0 0 0 0 0 0 0 0 0 0 0 0 0 127 0" result="hardAlpha"/>
<feOffset dy="4"/>
<feGaussianBlur stdDeviation="2"/>
<feComposite in2="hardAlpha" operator="arithmetic" k2="-1" k3="1"/>
<feColorMatrix type="matrix" values="0 0 0 0 1 0 0 0 0 1 0 0 0 0 1 0 0 0 0.2 0"/>
<feBlend mode="normal" in2="shape" result="effect1_innerShadow_377_16689"/>
</filter>
<linearGradient id="paint0_linear_377_16689" x1="24.2354" y1="5.56089" x2="7.22916" y2="23.6046" gradientUnits="userSpaceOnUse">
<stop stop-color="#77DA05"/>
<stop offset="0.5" stop-color="#DBFE01"/>
<stop offset="1" stop-color="#77DA05"/>
</linearGradient>
<linearGradient id="paint1_linear_377_16689" x1="24.2354" y1="5.56089" x2="7.22916" y2="23.6046" gradientUnits="userSpaceOnUse">
<stop stop-color="#77DA05"/>
<stop offset="0.5" stop-color="#DBFE01"/>
<stop offset="1" stop-color="#77DA05"/>
</linearGradient>
</defs>
</svg>
