<svg width="152" height="40" viewBox="0 0 152 40" fill="none" xmlns="http://www.w3.org/2000/svg">
<g clip-path="url(#clip0_397_2663)">
<path d="M90.0399 17.1438H94.0384V31.4242H90.0399V29.5677C88.6118 31.7098 86.7554 31.8526 85.6129 31.8526C81.186 31.8526 78.3299 28.4253 78.3299 24.284C78.3299 19.9999 81.186 16.7154 85.3273 16.7154C86.4697 16.7154 88.6118 16.8582 89.897 19.0002V17.1438H90.0399ZM82.614 24.284C82.614 26.5689 84.1849 28.2825 86.6125 28.2825C88.8974 28.2825 90.6111 26.5689 90.6111 24.284C90.6111 21.9991 89.0402 20.2855 86.6125 20.2855C84.3277 20.2855 82.614 21.9991 82.614 24.284ZM101.893 20.5711V31.4242H97.8941V20.5711H96.3232V17.1438H97.8941V12.2884H101.893V17.1438H104.606V20.5711H101.893ZM114.031 20.5711C113.031 19.7143 112.174 19.5715 111.746 19.5715C110.746 19.5715 110.175 19.9999 110.175 20.7139C110.175 21.1423 110.318 21.5707 111.46 21.9991L112.46 22.2847C113.603 22.7131 115.316 23.1416 116.03 24.284C116.459 24.8552 116.744 25.712 116.744 26.7117C116.744 27.9969 116.316 29.2821 115.173 30.2818C114.031 31.2814 112.603 31.8526 110.889 31.8526C107.89 31.8526 106.32 30.4246 105.32 29.4249L107.462 26.9973C108.319 27.8541 109.461 28.7109 110.604 28.7109C111.746 28.7109 112.603 28.1397 112.603 27.1401C112.603 26.2832 111.889 25.8548 111.318 25.712L110.461 25.4264C109.461 24.998 108.319 24.5696 107.462 23.7128C106.748 22.9988 106.32 22.1419 106.32 20.9995C106.32 19.5715 107.034 18.429 107.748 17.715C108.89 16.8582 110.318 16.7154 111.46 16.7154C112.46 16.7154 114.174 16.8582 116.03 18.2862L114.031 20.5711ZM122.742 19.0002C124.17 17.001 126.169 16.7154 127.312 16.7154C131.453 16.7154 134.309 19.9999 134.309 24.284C134.309 28.5681 131.453 31.8526 127.169 31.8526C126.312 31.8526 124.17 31.7098 122.599 29.5677V31.4242H118.743V7.43311H122.742V19.0002ZM122.314 24.284C122.314 26.5689 123.884 28.2825 126.312 28.2825C128.597 28.2825 130.311 26.5689 130.311 24.284C130.311 21.9991 128.74 20.2855 126.312 20.2855C123.884 20.2855 122.314 21.9991 122.314 24.284ZM140.878 29.2821L134.024 17.1438H138.736L143.163 25.2836L147.161 17.1438H151.731L140.307 38.9928H135.737L140.878 29.2821ZM77.3303 19.5715H67.334V23.57H72.6178C71.7609 26.2832 69.7617 28.1397 66.0488 28.1397C61.9074 28.1397 58.9086 24.7124 58.9086 20.5711C58.9086 16.4298 61.7646 12.8597 65.906 12.8597C68.1908 12.8597 70.4757 14.0021 71.9037 15.8585L75.1882 13.7165C73.0462 10.7176 69.6189 9.00395 65.906 9.00395C59.6226 9.00395 54.4816 14.1449 54.4816 20.5711C54.4816 26.9973 59.337 32.1382 65.906 32.1382C72.4749 32.1382 77.3303 26.9973 77.3303 20.5711C77.4731 20.1427 77.3303 19.8571 77.3303 19.5715Z" fill="white"/>
<path d="M35.917 20H25.9207V22.856H32.7753C31.7757 27.1402 28.634 30.7103 24.4927 32.1383L8.07022 15.7158C9.78387 10.7177 14.6392 7.14759 20.2086 7.14759C24.4927 7.14759 28.3484 9.28965 30.7761 12.5741L32.9181 10.7177C30.0621 6.86198 25.4923 4.2915 20.2086 4.2915C12.7828 4.2915 6.49938 9.57526 4.92853 16.5727L23.7787 35.4228C30.6333 33.7092 35.917 27.4258 35.917 20ZM4.50012 20.1428C4.50012 24.1413 6.07097 27.997 9.06985 30.9959C12.0687 33.9948 16.0673 35.5656 19.923 35.5656L4.50012 20.1428Z" fill="white"/>
<path d="M20.2086 0.00732422C9.21272 0.00732422 0.216064 9.00398 0.216064 19.9999C0.216064 30.9958 9.21272 39.9925 20.2086 39.9925C31.2046 39.9925 40.2012 30.9958 40.2012 19.9999C40.2012 9.00398 31.2046 0.00732422 20.2086 0.00732422ZM9.06992 31.1386C6.07103 28.1397 4.50019 24.1412 4.50019 20.2855L20.0658 35.7084C16.0673 35.5655 12.0688 34.1375 9.06992 31.1386ZM23.6359 35.2799L4.9286 16.5726C6.49945 9.5752 12.7828 4.29145 20.2086 4.29145C25.4924 4.29145 30.0621 6.86192 32.9182 10.7176L30.7761 12.5741C28.3485 9.28959 24.4928 7.14753 20.2086 7.14753C14.6393 7.14753 9.92674 10.7176 8.07029 15.7158L24.4928 32.1382C28.6341 30.7102 31.7758 27.1401 32.7754 22.856H25.9208V19.9999H35.9171C35.9171 27.4257 30.6333 33.7091 23.6359 35.2799Z" fill="#663399"/>
</g>
<defs>
<clipPath id="clip0_397_2663">
<rect width="151.515" height="40" fill="white" transform="translate(0.216064)"/>
</clipPath>
</defs>
</svg>
