<svg width="16" height="16" viewBox="0 0 16 16" fill="none" xmlns="http://www.w3.org/2000/svg">
<g id="Frame" clip-path="url(#clip0_389_598)">
<path id="Vector" d="M8.00239 3.53402e-07C6.09786 -0.000565477 4.2556 0.678347 2.80689 1.91466C1.35817 3.15097 0.398042 4.86357 0.0991495 6.7445C-0.199743 8.62543 0.18221 10.5513 1.17633 12.1758C2.17044 13.8003 3.7115 15.0168 5.52239 15.6067H5.70906C5.87935 15.615 6.04635 15.5577 6.17573 15.4467C6.25356 15.3789 6.31544 15.2947 6.35693 15.2002C6.39842 15.1057 6.4185 15.0032 6.41573 14.9V14.76V14.0333C6.41036 13.9901 6.39639 13.9483 6.37464 13.9105C6.35288 13.8727 6.32379 13.8397 6.28906 13.8133C6.25112 13.783 6.20699 13.7613 6.15977 13.7497C6.11256 13.7382 6.06339 13.7372 6.01573 13.7467C4.22239 14.1333 3.84239 13.0133 3.82239 12.94C3.59689 12.3465 3.19422 11.8368 2.66906 11.48L2.56906 11.4067C2.64778 11.3686 2.73529 11.3525 2.82239 11.36C2.98854 11.385 3.14556 11.452 3.27856 11.5547C3.41157 11.6573 3.51615 11.7923 3.58239 11.9467C3.84029 12.3957 4.26232 12.7272 4.75967 12.8715C5.25702 13.0157 5.79093 12.9614 6.24906 12.72C6.29856 12.698 6.34235 12.6649 6.37703 12.6233C6.41171 12.5817 6.43635 12.5327 6.44906 12.48C6.47609 12.174 6.60796 11.8867 6.82239 11.6667C6.87183 11.624 6.90766 11.5678 6.92544 11.505C6.94321 11.4422 6.94216 11.3756 6.92239 11.3133C6.90419 11.251 6.86783 11.1955 6.81796 11.154C6.76809 11.1124 6.70697 11.0867 6.64239 11.08C5.06239 10.9 3.44239 10.3467 3.44239 7.62C3.43089 6.93434 3.68397 6.2706 4.14906 5.76667C4.1911 5.72063 4.21909 5.66353 4.22972 5.6021C4.24035 5.54067 4.23318 5.47749 4.20906 5.42C4.02442 4.89996 4.02678 4.33183 4.21573 3.81333C4.83135 3.92334 5.40922 4.18705 5.89573 4.58C5.93621 4.60768 5.98252 4.62568 6.03107 4.63262C6.07962 4.63955 6.12911 4.63523 6.17573 4.62C6.77162 4.46108 7.38567 4.3804 8.00239 4.38C8.62153 4.37706 9.23822 4.45779 9.83573 4.62C9.88124 4.63518 9.92968 4.63947 9.97715 4.63252C10.0246 4.62557 10.0698 4.60758 10.1091 4.58C10.595 4.18606 11.1731 3.92223 11.7891 3.81333C11.9722 4.32637 11.9722 4.88696 11.7891 5.4C11.7649 5.45795 11.7584 5.52172 11.7703 5.58336C11.7821 5.645 11.8118 5.70179 11.8557 5.74667C12.3136 6.24658 12.5639 6.90213 12.5557 7.58C12.5557 10.3133 10.9357 10.86 9.34906 11.0333C9.28449 11.04 9.22336 11.0658 9.17349 11.1073C9.12362 11.1489 9.08727 11.2044 9.06906 11.2667C9.04984 11.3279 9.04907 11.3934 9.06686 11.4551C9.08464 11.5167 9.12019 11.5718 9.16906 11.6133C9.31653 11.7673 9.42916 11.9511 9.49933 12.1524C9.5695 12.3537 9.59555 12.5677 9.57573 12.78V14.9C9.57424 15.0036 9.59556 15.1063 9.63819 15.2008C9.68082 15.2953 9.74371 15.3792 9.82239 15.4467C9.92168 15.5223 10.0376 15.5733 10.1604 15.5953C10.2833 15.6173 10.4097 15.6098 10.5291 15.5733C12.3192 14.9642 13.8357 13.7406 14.8095 12.1196C15.7833 10.4987 16.1514 8.58519 15.8486 6.71865C15.5457 4.8521 14.5915 3.15317 13.1552 1.92325C11.7189 0.693334 9.89331 0.0119559 8.00239 3.53402e-07Z" fill="currentColor"/>
</g>
</svg>
