<svg width="24" height="25" viewBox="0 0 24 25" fill="none" xmlns="http://www.w3.org/2000/svg">
<path d="M6.9375 6.5C6.9375 6.69698 6.9763 6.89204 7.05168 7.07403C7.12706 7.25601 7.23755 7.42137 7.37684 7.56066C7.51613 7.69995 7.68149 7.81044 7.86348 7.88582C8.04546 7.9612 8.24052 8 8.4375 8C8.63448 8 8.82954 7.9612 9.01153 7.88582C9.19351 7.81044 9.35887 7.69995 9.49816 7.56066C9.63745 7.42137 9.74794 7.25601 9.82332 7.07403C9.8987 6.89204 9.9375 6.69698 9.9375 6.5C9.9375 6.30302 9.8987 6.10796 9.82332 5.92597C9.74794 5.74399 9.63745 5.57863 9.49816 5.43934C9.35887 5.30005 9.19351 5.18956 9.01153 5.11418C8.82954 5.0388 8.63448 5 8.4375 5C8.24052 5 8.04546 5.0388 7.86348 5.11418C7.68149 5.18956 7.51613 5.30005 7.37684 5.43934C7.23755 5.57863 7.12706 5.74399 7.05168 5.92597C6.9763 6.10796 6.9375 6.30302 6.9375 6.5Z" fill="#DBFE01" stroke="#DBFE01" stroke-width="1.2" stroke-linecap="round" stroke-linejoin="round"/>
<path d="M6.9375 18.5C6.9375 18.697 6.9763 18.892 7.05168 19.074C7.12706 19.256 7.23755 19.4214 7.37684 19.5607C7.51613 19.6999 7.68149 19.8104 7.86348 19.8858C8.04546 19.9612 8.24052 20 8.4375 20C8.63448 20 8.82954 19.9612 9.01153 19.8858C9.19351 19.8104 9.35887 19.6999 9.49816 19.5607C9.63745 19.4214 9.74794 19.256 9.82332 19.074C9.8987 18.892 9.9375 18.697 9.9375 18.5C9.9375 18.303 9.8987 18.108 9.82332 17.926C9.74794 17.744 9.63745 17.5786 9.49816 17.4393C9.35887 17.3001 9.19351 17.1896 9.01153 17.1142C8.82954 17.0388 8.63448 17 8.4375 17C8.24052 17 8.04546 17.0388 7.86348 17.1142C7.68149 17.1896 7.51613 17.3001 7.37684 17.4393C7.23755 17.5786 7.12706 17.744 7.05168 17.926C6.9763 18.108 6.9375 18.303 6.9375 18.5Z" fill="#DBFE01" stroke="#DBFE01" stroke-width="1.2" stroke-linecap="round" stroke-linejoin="round"/>
<path d="M15.9375 9.5C15.9375 9.89782 16.0955 10.2794 16.3768 10.5607C16.6581 10.842 17.0397 11 17.4375 11C17.8353 11 18.2169 10.842 18.4982 10.5607C18.7795 10.2794 18.9375 9.89782 18.9375 9.5C18.9375 9.10218 18.7795 8.72064 18.4982 8.43934C18.2169 8.15804 17.8353 8 17.4375 8C17.0397 8 16.6581 8.15804 16.3768 8.43934C16.0955 8.72064 15.9375 9.10218 15.9375 9.5Z" fill="#DBFE01" stroke="#DBFE01" stroke-width="1.2" stroke-linecap="round" stroke-linejoin="round"/>
<path d="M8.49316 7.83301V17.1663" stroke="#DBFE01" stroke-width="1.2" stroke-linecap="round" stroke-linejoin="round"/>
<path d="M17.382 10.5C17.382 10.9669 17.2901 11.4293 17.1114 11.8606C16.9327 12.292 16.6708 12.684 16.3406 13.0142C16.0105 13.3443 15.6185 13.6062 15.1871 13.7849C14.7558 13.9636 14.2934 14.0555 13.8265 14.0555H11.1598C10.4526 14.0555 9.77431 14.3365 9.27421 14.8366C8.77411 15.3367 8.49316 16.015 8.49316 16.7222" stroke="#DBFE01" stroke-width="1.2" stroke-linecap="round" stroke-linejoin="round"/>
</svg>
