<svg width="32" height="32" viewBox="0 0 32 32" fill="none" xmlns="http://www.w3.org/2000/svg">
<g id="Frame">
<g id="Vector">
<path fill-rule="evenodd" clip-rule="evenodd" d="M2.21854 12.0145C2.58689 12.1403 2.97976 12.2117 3.38985 12.2117C3.75818 12.2117 4.11346 12.1551 4.44898 12.0528V21.7767C4.44898 22.1203 4.63188 22.4405 4.92693 22.6123L14.2017 28.0199C14.6405 27.5027 15.2902 27.1736 16.0157 27.1736C16.8052 27.1736 17.5041 27.5635 17.9396 28.1611C17.9472 28.172 17.9555 28.1823 17.9631 28.1929C17.9938 28.2367 18.0224 28.2814 18.0502 28.3275L18.082 28.3799C18.1066 28.4223 18.1292 28.4655 18.1508 28.5092C18.1626 28.5327 18.1738 28.5565 18.1849 28.5804C18.2035 28.6209 18.2209 28.6621 18.2375 28.7039C18.2493 28.7337 18.2599 28.7637 18.2704 28.794C18.2837 28.8322 18.2967 28.8708 18.3079 28.9097C18.3188 28.9468 18.3274 28.9841 18.3366 29.0215L18.3605 29.1267C18.3697 29.1733 18.3758 29.2206 18.3822 29.2683C18.3857 29.2965 18.3911 29.3243 18.3937 29.3525C18.401 29.4297 18.4055 29.5076 18.4055 29.5868C18.4055 29.7129 18.393 29.8355 18.3742 29.9565L18.3675 30.0015C18.1722 31.1352 17.193 32 16.0157 32C14.9657 32 14.0739 31.3118 13.7537 30.3593L3.81172 24.5631C2.82554 23.9885 2.21854 22.926 2.21854 21.7767V12.0145ZM28.2432 6.09825C29.5611 6.09825 30.6329 7.18062 30.6329 8.51147C30.6329 9.23544 30.3144 9.88409 29.8128 10.3268V21.7767C29.8128 22.926 29.2058 23.9885 28.2196 24.5631L19.6777 29.5431C19.6681 28.7283 19.3954 27.9784 18.943 27.3704L27.1045 22.6123C27.3995 22.4405 27.5824 22.1203 27.5824 21.7767V10.8288C26.5853 10.5385 25.8535 9.61061 25.8535 8.51147C25.8535 7.97636 26.0291 7.48308 26.3222 7.08249C26.3267 7.07609 26.3315 7.06998 26.3359 7.06353C26.3913 6.98951 26.4506 6.9181 26.5137 6.85084L26.5223 6.84148C26.6533 6.70382 26.7998 6.58246 26.9598 6.47923C26.9763 6.46827 26.9938 6.45831 27.0108 6.44764C27.0741 6.40936 27.1389 6.37333 27.2058 6.34086C27.2252 6.3315 27.2447 6.32124 27.2644 6.31224C27.3482 6.27425 27.4336 6.23917 27.5222 6.2112L27.6959 6.16261C27.8718 6.12071 28.0549 6.09825 28.2432 6.09825ZM16.0155 0C16.5658 0 17.1158 0.143505 17.6087 0.430839L26.2014 5.44066C25.5689 5.87116 25.0794 6.49701 24.8102 7.22999L16.4935 2.38168C16.3486 2.29672 16.1832 2.25233 16.0155 2.25233C15.848 2.25233 15.6829 2.29672 15.5376 2.38168L5.74126 8.09327C5.76484 8.22933 5.77949 8.36836 5.77949 8.51153C5.77949 9.54987 5.12566 10.4344 4.21277 10.7742C4.20577 10.7768 4.19844 10.7796 4.19142 10.7819C4.1191 10.808 4.04582 10.8305 3.97061 10.8495L3.92569 10.861C3.85687 10.8771 3.78645 10.8897 3.71571 10.8996L3.65804 10.9084C3.56978 10.9183 3.48056 10.9248 3.38975 10.9248C3.29257 10.9248 3.19698 10.917 3.10234 10.9055C3.07685 10.9022 3.052 10.8977 3.02683 10.8939C2.95418 10.8825 2.8828 10.8681 2.81238 10.8504C2.79071 10.8449 2.76906 10.8398 2.74738 10.8337C2.56099 10.7806 2.38382 10.7069 2.21845 10.6126L2.07642 10.5249C1.42884 10.0929 1 9.35242 1 8.51153C1 7.18074 2.07221 6.09831 3.38975 6.09831C3.73164 6.09831 4.05601 6.17233 4.3501 6.30329L14.4224 0.430839C14.9153 0.143505 15.4656 0 16.0155 0Z" fill="#92928C"/>
<path d="M24.0214 18.9761C24.0214 18.55 23.8559 18.1492 23.5553 17.848L18.2584 12.5363C19.0854 11.8674 19.6261 10.8555 19.6261 9.70944C19.6261 7.6986 17.9947 6.06274 15.9893 6.06274C13.984 6.06274 12.3526 7.6986 12.3526 9.70944C12.3526 10.8555 12.8932 11.8671 13.7203 12.5363L8.42313 17.848C8.1225 18.1495 7.95703 18.55 7.95703 18.9761C7.95703 19.4022 8.1225 19.803 8.42313 20.1041C8.66767 20.3494 8.97894 20.4989 9.31473 20.5484C9.28624 20.6405 9.25622 20.7323 9.23926 20.8293C9.13377 21.4288 9.26745 22.0336 9.61565 22.5323C9.96385 23.031 10.4849 23.3637 11.0828 23.4695L15.5596 24.2611C15.6908 24.2845 15.8242 24.2964 15.9563 24.2964C15.9657 24.2964 15.9741 24.293 15.9836 24.293C15.9969 24.293 16.009 24.2964 16.0223 24.2964C16.1545 24.2964 16.2878 24.2845 16.4187 24.2614L20.8956 23.4699C21.4935 23.364 22.0145 23.0313 22.3627 22.5326C22.7109 22.0339 22.8446 21.4292 22.7391 20.8296C22.7221 20.7323 22.6921 20.6409 22.6636 20.5488C22.9997 20.4992 23.311 20.3494 23.5552 20.1045C23.8559 19.803 24.0214 19.4022 24.0214 18.9761ZM13.2618 9.70944C13.2618 8.1988 14.4828 6.97439 15.9893 6.97439C17.4959 6.97439 18.7169 8.1988 18.7169 9.70944C18.7169 11.2201 17.4959 12.4445 15.9893 12.4445C14.4828 12.4445 13.2618 11.2201 13.2618 9.70944ZM13.7855 22.4128C13.8264 22.6456 13.9076 22.8611 14.011 23.0619L11.241 22.572C10.4991 22.4408 10.0039 21.7317 10.1348 20.9878C10.2515 20.3244 10.827 19.8577 11.4761 19.8577C11.5546 19.8577 11.6344 19.8646 11.7147 19.8787L14.4623 20.3646C13.928 20.8736 13.6482 21.6318 13.7855 22.4128ZM20.7374 22.5721L16.2606 23.3637C16.1806 23.3777 16.1009 23.3846 16.0224 23.3846C15.373 23.3846 14.7975 22.9179 14.681 22.2545C14.5501 21.5106 15.0457 20.8016 15.7872 20.6703L20.2641 19.8787C20.3441 19.8644 20.4237 19.8577 20.5026 19.8577C21.152 19.8577 21.7273 20.3245 21.8439 20.9879C21.9745 21.7315 21.4793 22.4411 20.7374 22.5721ZM22.9125 19.4595C22.7795 19.5929 22.6049 19.6598 22.4303 19.6598C22.2558 19.6598 22.0812 19.5929 21.9482 19.4595L18.2599 15.7688C18.0823 15.5907 17.7944 15.5907 17.6171 15.7688C17.4398 15.9469 17.4395 16.2355 17.6171 16.4133L20.1765 18.9746C20.1531 18.9779 20.1292 18.9767 20.1062 18.9806L15.9893 19.7088L11.8726 18.981C11.8492 18.9767 11.8256 18.9782 11.8022 18.9749L14.3616 16.4137C14.5392 16.2355 14.5392 15.9469 14.3616 15.7691C14.184 15.5913 13.8961 15.591 13.7188 15.7691L10.0306 19.4599C9.89754 19.5933 9.72297 19.6601 9.54834 19.6601C9.37383 19.6601 9.19925 19.5933 9.06617 19.4599C8.79976 19.1928 8.79976 18.76 9.06617 18.4929L14.5101 13.0341C14.9631 13.2374 15.4617 13.3562 15.9893 13.3562C16.517 13.3562 17.0155 13.2374 17.4686 13.0338L22.9125 18.4926C23.1789 18.7597 23.1789 19.1925 22.9125 19.4595Z" fill="#92928C"/>
</g>
</g>
</svg>
