<svg width="32" height="32" viewBox="0 0 32 32" fill="none" xmlns="http://www.w3.org/2000/svg">
<g id="Frame">
<g id="Vector">
<path fill-rule="evenodd" clip-rule="evenodd" d="M2.22189 12.0145C2.59124 12.1403 2.98519 12.2117 3.3964 12.2117C3.76575 12.2117 4.122 12.1551 4.45844 12.0528V21.7767C4.45844 22.1203 4.64184 22.4405 4.93771 22.6123L14.2379 28.0199C14.6779 27.5027 15.3294 27.1736 16.0568 27.1736C16.8486 27.1736 17.5494 27.5635 17.986 28.1611C17.9937 28.172 18.002 28.1823 18.0097 28.1929C18.0404 28.2367 18.0691 28.2814 18.097 28.3275L18.1288 28.3799C18.1535 28.4223 18.1762 28.4655 18.1979 28.5092C18.2097 28.5327 18.2209 28.5565 18.2321 28.5804C18.2507 28.6209 18.2682 28.6621 18.2848 28.7039C18.2966 28.7337 18.3072 28.7637 18.3178 28.794C18.3311 28.8322 18.3442 28.8708 18.3554 28.9097C18.3663 28.9468 18.375 28.9841 18.3842 29.0215L18.4081 29.1267C18.4174 29.1733 18.4235 29.2206 18.4299 29.2683C18.4334 29.2965 18.4388 29.3243 18.4414 29.3525C18.4487 29.4297 18.4532 29.5076 18.4532 29.5868C18.4532 29.7129 18.4407 29.8355 18.4219 29.9565L18.4151 30.0015C18.2193 31.1352 17.2374 32 16.0568 32C15.004 32 14.1098 31.3118 13.7887 30.3593L3.81943 24.5631C2.83055 23.9885 2.22189 22.926 2.22189 21.7767V12.0145ZM28.3179 6.09825C29.6395 6.09825 30.7142 7.18062 30.7142 8.51147C30.7142 9.23544 30.3948 9.88409 29.8919 10.3268V21.7767C29.8919 22.926 29.2832 23.9885 28.2943 24.5631L19.729 29.5431C19.7194 28.7283 19.4459 27.9784 18.9922 27.3704L27.1761 22.6123C27.4719 22.4405 27.6554 22.1203 27.6554 21.7767V10.8288C26.6555 10.5385 25.9217 9.61061 25.9217 8.51147C25.9217 7.97636 26.0977 7.48308 26.3917 7.08249C26.3962 7.07609 26.401 7.06998 26.4054 7.06353C26.461 6.98951 26.5204 6.9181 26.5837 6.85084L26.5923 6.84148C26.7236 6.70382 26.8706 6.58246 27.0311 6.47923C27.0476 6.46827 27.0651 6.45831 27.0822 6.44764C27.1457 6.40936 27.2106 6.37333 27.2776 6.34086C27.2971 6.3315 27.3167 6.32124 27.3364 6.31224C27.4205 6.27425 27.5062 6.23917 27.595 6.2112L27.7691 6.16261C27.9455 6.12071 28.1291 6.09825 28.3179 6.09825ZM16.0567 0C16.6086 0 17.16 0.143505 17.6543 0.430839L26.2705 5.44066C25.6363 5.87116 25.1455 6.49701 24.8755 7.22999L16.536 2.38168C16.3907 2.29672 16.2248 2.25233 16.0567 2.25233C15.8887 2.25233 15.7232 2.29672 15.5775 2.38168L5.75427 8.09327C5.77791 8.22933 5.79261 8.36836 5.79261 8.51153C5.79261 9.54987 5.13698 10.4344 4.22159 10.7742C4.21456 10.7768 4.20721 10.7796 4.20018 10.7819C4.12766 10.808 4.05418 10.8305 3.97876 10.8495L3.93372 10.861C3.86471 10.8771 3.79409 10.8897 3.72316 10.8996L3.66533 10.9084C3.57683 10.9183 3.48736 10.9248 3.39631 10.9248C3.29886 10.9248 3.20301 10.917 3.10811 10.9055C3.08255 10.9022 3.05763 10.8977 3.03239 10.8939C2.95954 10.8825 2.88797 10.8681 2.81735 10.8504C2.79563 10.8449 2.77391 10.8398 2.75218 10.8337C2.56527 10.7806 2.38762 10.7069 2.22179 10.6126L2.07937 10.5249C1.43002 10.0929 1 9.35242 1 8.51153C1 7.18074 2.07515 6.09831 3.39631 6.09831C3.73914 6.09831 4.06439 6.17233 4.3593 6.30329L14.4592 0.430839C14.9535 0.143505 15.5053 0 16.0567 0Z" fill="#92928C"/>
<path d="M22.8437 10.5342C22.8437 10.4664 22.8257 10.4031 22.8031 10.3398C22.7986 10.3217 22.7895 10.3081 22.785 10.2946C22.7579 10.2404 22.7262 10.1951 22.6901 10.1499C22.6856 10.1454 22.681 10.1409 22.6765 10.1318C22.6404 10.0957 22.5996 10.0641 22.5499 10.0369L18.31 7.73161L18.5631 7.18921C18.7169 6.99934 18.8072 6.7824 18.8163 6.55188C18.8163 6.54737 18.8163 6.54281 18.8163 6.5338C18.8163 6.52924 18.8163 6.52474 18.8163 6.52023C18.8163 5.65687 17.7134 5.02856 16.19 5.02856C14.6668 5.02856 13.5638 5.65687 13.5638 6.52023C13.5638 6.74625 13.6407 6.94963 13.7808 7.13499L14.0113 7.67288L9.81659 10.0233C9.79852 10.0369 9.78044 10.0505 9.76237 10.0641C9.73979 10.0776 9.72166 10.0911 9.70358 10.1093C9.68551 10.1273 9.6765 10.1454 9.66293 10.1635C9.64486 10.1861 9.62678 10.2041 9.61321 10.2268C9.60415 10.2449 9.59514 10.2674 9.58607 10.2855C9.57706 10.3126 9.56349 10.3352 9.55443 10.3624C9.54542 10.385 9.54542 10.4121 9.54542 10.4392C9.54542 10.4618 9.53635 10.4844 9.53635 10.507V16.885L7.10903 18.0738C7.10453 18.0738 7.09546 18.0828 7.09096 18.0873C7.08189 18.0873 7.07739 18.0918 7.06832 18.0964C7.05025 18.1054 7.03668 18.1235 7.0186 18.1326C7.00053 18.1461 6.98246 18.1597 6.96438 18.1732C6.94631 18.1913 6.92823 18.2139 6.91016 18.2365C6.89659 18.2546 6.88302 18.2681 6.86945 18.2908C6.85588 18.3134 6.84687 18.3405 6.8333 18.3676C6.82423 18.3857 6.81523 18.4083 6.81066 18.4264C6.80166 18.4535 6.80166 18.4806 6.79715 18.5122C6.79715 18.5303 6.78809 18.5484 6.78809 18.571C6.78809 18.571 6.78809 18.5755 6.78809 18.5801C6.78809 18.5801 6.78809 18.5846 6.78809 18.5891V20.596C6.78809 20.7995 6.90109 20.9893 7.07739 21.0888L13.27 24.5332C13.2971 24.5467 13.3243 24.5557 13.3514 24.5648C13.3695 24.5693 13.383 24.5783 13.3966 24.5829C13.4418 24.5964 13.4915 24.6009 13.5412 24.6009C13.5909 24.6009 13.6361 24.5964 13.6859 24.5829C13.7039 24.5829 13.7175 24.5693 13.7356 24.5648C13.7627 24.5557 13.7899 24.5467 13.8169 24.5332L22.5454 19.7553C22.7262 19.6559 22.8392 19.466 22.8392 19.2581V10.5387L22.8437 10.5342ZM16.19 6.16314C16.963 6.16314 17.4602 6.37108 17.632 6.51117L17.6139 6.55188C17.4241 6.68746 16.9404 6.88183 16.19 6.88183C15.4397 6.88183 14.9244 6.67389 14.7526 6.53831L14.7436 6.51117C14.9109 6.37558 15.4081 6.15863 16.1946 6.15863L16.19 6.16314ZM16.954 7.95763L16.389 9.16C16.294 9.36343 15.955 9.35887 15.8646 9.15099L15.3493 7.94405C15.6115 7.98927 15.8917 8.01191 16.19 8.01191C16.4613 8.01191 16.7144 7.98927 16.954 7.95312V7.95763ZM14.4588 8.7306L14.8295 9.59395C15.051 10.1183 15.5618 10.4528 16.1313 10.4528C16.7009 10.4528 17.18 10.1318 17.415 9.63917L17.8264 8.75768L21.108 10.5432L16.1313 13.3231L16.0635 13.2824L11.2405 10.5206L14.4588 8.72154V8.7306ZM15.5618 19.8186L10.6619 17.0974V11.4924L15.5618 14.2994V19.8186ZM12.9852 23.0731L7.92266 20.2571V19.5429L12.9852 22.3589V23.0731ZM13.5684 21.3916L8.58257 18.6162L9.91152 17.9698L14.8973 20.7407L14.1379 21.1113L13.5684 21.3871V21.3916ZM21.7137 18.919L14.1153 23.0776V22.3815L16.3663 21.2876C16.3663 21.2876 16.3799 21.2786 16.3844 21.2741C16.389 21.2741 16.398 21.2696 16.407 21.2651C16.4251 21.256 16.4387 21.2424 16.4522 21.2289C16.4703 21.2153 16.4929 21.2018 16.5065 21.1837C16.5155 21.1746 16.5246 21.1656 16.5336 21.1566C16.5426 21.1475 16.5517 21.134 16.5562 21.1249C16.5698 21.1068 16.5878 21.0888 16.5969 21.0707C16.6104 21.0481 16.6195 21.021 16.6331 20.9983C16.6331 20.9938 16.6376 20.9893 16.6421 20.9803C16.6421 20.9713 16.6511 20.9622 16.6556 20.9531C16.6556 20.9441 16.6556 20.9396 16.6601 20.9305C16.6692 20.9034 16.6692 20.8763 16.6737 20.8492C16.6737 20.8311 16.6828 20.813 16.6828 20.7904C16.6828 20.7904 16.6828 20.7859 16.6828 20.7814C16.6828 20.7814 16.6828 20.7814 16.6828 20.7723L16.6918 14.2994L21.7137 11.4924V18.919Z" fill="#92928C"/>
</g>
</g>
</svg>
