<svg width="139" height="40" viewBox="0 0 139 40" fill="none" xmlns="http://www.w3.org/2000/svg">
<rect x="0.660986" y="0.392157" width="39.4771" height="39.2157" rx="1.69935" fill="url(#paint0_linear_397_2617)"/>
<rect x="0.660986" y="0.392157" width="39.4771" height="39.2157" rx="1.69935" stroke="#E535AB" stroke-width="0.784314"/>
<rect x="0.660986" y="0.392157" width="39.4771" height="39.2157" rx="1.69935" stroke="black" stroke-opacity="0.15" stroke-width="0.784314"/>
<g clip-path="url(#clip0_397_2617)">
<path d="M22.7221 9.52049L28.3299 12.7492C28.5894 12.4767 28.9087 12.2683 29.2626 12.1405C29.6166 12.0128 29.9954 11.9692 30.3691 12.0131C30.7428 12.0571 31.1012 12.1874 31.4158 12.3939C31.7304 12.6003 31.9927 12.8771 32.1818 13.2024C32.3678 13.5293 32.4756 13.8948 32.4968 14.2702C32.5179 14.6457 32.4518 15.021 32.3037 15.3667C32.1555 15.7124 31.9293 16.019 31.6429 16.2627C31.3564 16.5063 31.0173 16.6803 30.6524 16.771V23.2285C31.02 23.3151 31.3622 23.4866 31.6514 23.7295C31.9407 23.9724 32.1688 24.2798 32.3176 24.6269C32.4664 24.9741 32.5316 25.3513 32.508 25.7282C32.4844 26.1052 32.3727 26.4713 32.1818 26.7972C31.9895 27.1289 31.7213 27.4104 31.3992 27.6184C31.0771 27.8264 30.7103 27.955 30.3288 27.9937C29.9473 28.0324 29.5621 27.98 29.2048 27.841C28.8475 27.7019 28.5282 27.4801 28.2733 27.1937L22.7221 30.4111C22.8365 30.7711 22.8651 31.1529 22.8058 31.526C22.7465 31.8991 22.6008 32.2531 22.3804 32.5599C22.1599 32.8667 21.8709 33.1177 21.5362 33.293C21.2016 33.4682 20.8306 33.5628 20.4529 33.5693C20.0752 33.5757 19.7012 33.4938 19.3608 33.3301C19.0203 33.1664 18.7228 32.9254 18.4921 32.6263C18.2613 32.3272 18.1036 31.9783 18.0316 31.6075C17.9595 31.2367 17.9752 30.8541 18.0772 30.4904L12.492 27.2503C12.2316 27.5222 11.9114 27.7297 11.5568 27.8564C11.2023 27.983 10.8231 28.0253 10.4493 27.98C10.0755 27.9347 9.71747 27.8029 9.40347 27.5951C9.08948 27.3874 8.82819 27.1094 8.64031 26.7831C8.45242 26.4568 8.34311 26.0913 8.32104 25.7154C8.29896 25.3395 8.36473 24.9637 8.51313 24.6177C8.66153 24.2717 8.88848 23.9649 9.17599 23.7219C9.46351 23.4788 9.80369 23.306 10.1696 23.2172V16.7597C9.79857 16.6766 9.45231 16.5074 9.15876 16.2658C8.86521 16.0242 8.63259 15.7169 8.47971 15.3688C8.32682 15.0207 8.25795 14.6415 8.27865 14.2619C8.29935 13.8823 8.40905 13.5128 8.59888 13.1834C8.78871 12.854 9.05336 12.5739 9.37144 12.3656C9.68953 12.1573 10.0521 12.0268 10.43 11.9845C10.8078 11.9423 11.1903 11.9895 11.5465 12.1223C11.9028 12.2552 12.2228 12.4699 12.4807 12.7492L18.0772 9.52049C17.9688 9.15852 17.9465 8.77621 18.012 8.40408C18.0776 8.03195 18.2292 7.6803 18.4549 7.37719C18.6805 7.07408 18.9738 6.82791 19.3115 6.65831C19.6491 6.48871 20.0218 6.40039 20.3996 6.40039C20.7775 6.40039 21.1501 6.48871 21.4878 6.65831C21.8255 6.82791 22.1188 7.07408 22.3444 7.37719C22.57 7.6803 22.7217 8.03195 22.7873 8.40408C22.8528 8.77621 22.8305 9.15852 22.7221 9.52049ZM22.1443 10.5174C22.1229 10.5413 22.1002 10.564 22.0763 10.5854L29.3948 23.2625L29.4855 23.2285V16.771C29.1757 16.6942 28.8842 16.557 28.6276 16.3672C28.371 16.1775 28.1544 15.9389 27.9902 15.6653C27.826 15.3916 27.7174 15.0882 27.6707 14.7725C27.6241 14.4568 27.6402 14.135 27.7182 13.8255L27.7408 13.7575L22.1443 10.5174ZM18.723 10.5854L18.655 10.5174L13.0471 13.7462C13.2223 14.3621 13.1467 15.0223 12.8368 15.5826C12.5269 16.143 12.0079 16.558 11.3931 16.737L11.3138 16.771V23.2285L11.4044 23.2625L18.723 10.5741V10.5854ZM21.0794 11.1519C20.6262 11.2878 20.1731 11.2878 19.7199 11.1519L12.4014 23.8516C12.7413 24.1689 12.9678 24.5767 13.0811 25.0185H27.7182C27.8314 24.5654 28.058 24.1575 28.3979 23.8403L21.0794 11.1519ZM22.1896 29.5388L27.7635 26.3214L27.7182 26.1628H13.0811L13.0585 26.2534L18.655 29.4935C18.8855 29.2556 19.1624 29.0676 19.4685 28.9409C19.7746 28.8142 20.1033 28.7516 20.4346 28.7569C20.7658 28.7622 21.0924 28.8353 21.3942 28.9717C21.6961 29.1082 21.9668 29.305 22.1896 29.5501V29.5388Z" fill="white"/>
</g>
<path d="M57.3204 10.936V10.2085H61.4231V15.284C60.3459 15.7408 59.1363 15.9692 57.7941 15.9692C56.0403 15.9692 54.6925 15.4757 53.7507 14.4888C52.8146 13.4963 52.3465 12.0893 52.3465 10.2677C52.3465 9.1286 52.5777 8.12479 53.0401 7.25632C53.5082 6.38222 54.1737 5.70831 55.0365 5.23461C55.9049 4.75526 56.9228 4.51559 58.0902 4.51559C59.2632 4.51559 60.329 4.73834 61.2877 5.18385L60.9747 5.88595C60.0048 5.4348 59.0038 5.20923 57.9718 5.20923C56.5055 5.20923 55.341 5.6632 54.4782 6.57114C53.621 7.47908 53.1924 8.7 53.1924 10.2339C53.1924 11.9032 53.5984 13.1636 54.4105 14.0151C55.2282 14.861 56.4322 15.284 58.0225 15.284C59.0433 15.284 59.9117 15.1402 60.6279 14.8526V10.936H57.3204ZM67.5452 7.38321C67.9005 7.38321 68.2755 7.41704 68.6703 7.48472L68.5265 8.2122C68.1825 8.12761 67.8244 8.08531 67.4522 8.08531C66.7416 8.08531 66.1607 8.38702 65.7096 8.99043C65.2641 9.5882 65.0413 10.3411 65.0413 11.249V15.8169H64.2885V7.54393H64.9229L64.999 9.03273H65.0583C65.391 8.42931 65.7519 8.00354 66.141 7.75541C66.5358 7.50727 67.0038 7.38321 67.5452 7.38321ZM75.8761 15.8169H75.3262L75.1317 14.5057H75.0725C74.6551 15.0415 74.2294 15.4193 73.7951 15.6393C73.3609 15.8592 72.8393 15.9692 72.2302 15.9692C71.4238 15.9692 70.7922 15.7605 70.3354 15.3432C69.8842 14.9259 69.6587 14.3507 69.6587 13.6175C69.6587 12.8055 69.997 12.1767 70.6737 11.7312C71.3505 11.2857 72.3233 11.0516 73.5921 11.0291L75.1655 10.9868V10.4369C75.1655 9.63614 75.002 9.03836 74.6749 8.64361C74.3478 8.24885 73.8177 8.05147 73.0846 8.05147C72.3515 8.05147 71.576 8.26577 70.7583 8.69436L70.4707 8.03456C71.3843 7.6116 72.2894 7.40013 73.1861 7.40013C74.0884 7.40013 74.7623 7.63698 75.2078 8.11069C75.6533 8.5844 75.8761 9.31751 75.8761 10.31V15.8169ZM70.4623 13.6514C70.4623 14.1646 70.6202 14.565 70.936 14.8526C71.2574 15.1402 71.7058 15.284 72.281 15.284C73.1551 15.284 73.8487 15.033 74.3619 14.5311C74.8751 14.0236 75.1317 13.3215 75.1317 12.4248V11.6043L73.6852 11.672C72.5235 11.7227 71.6945 11.9032 71.1982 12.2133C70.7076 12.5179 70.4623 12.9972 70.4623 13.6514ZM82.3505 15.9692C81.076 15.9692 80.1483 15.4926 79.5675 14.5396H79.5167L79.5336 15.174C79.5562 15.5124 79.5675 15.924 79.5675 16.409V19.5643H78.8146V7.54393H79.4491L79.5929 8.71974H79.6436C80.2132 7.82872 81.1211 7.38321 82.3674 7.38321C83.484 7.38321 84.3356 7.74977 84.9221 8.48289C85.5086 9.21601 85.8018 10.2734 85.8018 11.655C85.8018 13.031 85.4916 14.0969 84.8713 14.8526C84.251 15.597 83.4107 15.9692 82.3505 15.9692ZM82.3336 15.3009C83.1795 15.3009 83.8337 14.9879 84.2961 14.3619C84.7642 13.7303 84.9982 12.8478 84.9982 11.7142C84.9982 9.28368 84.1213 8.06839 82.3674 8.06839C81.3975 8.06839 80.6869 8.33626 80.2357 8.872C79.7902 9.4021 79.5675 10.2621 79.5675 11.452V11.6973C79.5675 12.9944 79.7846 13.9192 80.2188 14.4719C80.6531 15.0246 81.358 15.3009 82.3336 15.3009ZM94.8706 15.8169H94.1262V10.4538C94.1262 9.62486 93.9514 9.02145 93.6017 8.64361C93.2577 8.26013 92.7135 8.06839 91.9691 8.06839C90.9766 8.06839 90.2519 8.31934 89.7951 8.82125C89.3384 9.32315 89.11 10.1324 89.11 11.249V15.8169H88.3571V3.97421H89.11V7.73849L89.0677 8.79587H89.1269C89.4314 8.30525 89.8177 7.94715 90.2858 7.72157C90.7595 7.496 91.3488 7.38321 92.0537 7.38321C93.9316 7.38321 94.8706 8.38984 94.8706 10.4031V15.8169ZM102.386 15.2417C103.722 15.2417 104.743 14.8103 105.448 13.9474C106.159 13.0846 106.514 11.8496 106.514 10.2424C106.514 8.63515 106.159 7.40577 105.448 6.55422C104.743 5.69703 103.725 5.26844 102.394 5.26844C101.069 5.26844 100.048 5.69985 99.3321 6.56268C98.6159 7.41986 98.2578 8.64643 98.2578 10.2424C98.2578 11.8383 98.613 13.0705 99.3236 13.939C100.034 14.8074 101.055 15.2417 102.386 15.2417ZM107.36 10.2339C107.36 11.7283 107.041 12.9634 106.404 13.939C105.772 14.909 104.887 15.5349 103.748 15.8169L106.285 18.4646H105.017L102.868 15.9522L102.623 15.9692H102.386C100.841 15.9692 99.6225 15.456 98.7315 14.4296C97.8517 13.4032 97.4119 12.0047 97.4119 10.2339C97.4119 8.45751 97.8574 7.06176 98.7484 6.04668C99.6394 5.02595 100.86 4.51559 102.411 4.51559C103.962 4.51559 105.174 5.02595 106.049 6.04668C106.923 7.0674 107.36 8.46315 107.36 10.2339ZM116.259 15.8169H110.177V4.68477H110.955V15.0894H116.259V15.8169Z" fill="white"/>
<path d="M54.3731 25.5736V29.4902H55.3375C56.2736 29.4902 56.9588 29.3294 57.393 29.008C57.8273 28.6809 58.0444 28.1846 58.0444 27.5192C58.0444 26.8481 57.847 26.3575 57.4522 26.0473C57.0631 25.7315 56.4569 25.5736 55.6335 25.5736H54.3731ZM55.7604 24.051C57.1421 24.051 58.1797 24.3358 58.8734 24.9053C59.5726 25.4693 59.9223 26.3208 59.9223 27.46C59.9223 28.5935 59.5416 29.4704 58.7803 30.0907C58.0246 30.7111 56.9419 31.0212 55.532 31.0212H54.3731V35.1831H52.5544V24.051H55.7604ZM64.0061 23.3404V35.1831H62.2128V23.3404H64.0061ZM73.368 35.1831H72.0907L71.7354 34.0073H71.6677C71.2617 34.5205 70.8528 34.8701 70.4411 35.0562C70.0351 35.2423 69.5078 35.3354 68.8593 35.3354C68.0303 35.3354 67.3846 35.1126 66.9222 34.6671C66.4597 34.216 66.2285 33.5702 66.2285 32.73C66.2285 31.0438 67.534 30.1612 70.1451 30.0823L71.5916 30.04V29.5917C71.5916 29.0503 71.4647 28.6471 71.2109 28.382C70.9628 28.117 70.5765 27.9844 70.052 27.9844C69.3809 27.9844 68.5858 28.1959 67.6666 28.6189L67.0914 27.3416C68.0275 26.8566 69.0369 26.6141 70.1197 26.6141C71.2081 26.6141 72.0202 26.8509 72.5559 27.3246C73.0973 27.7927 73.368 28.523 73.368 29.5155V35.1831ZM68.0895 32.7892C68.0895 33.167 68.2023 33.4575 68.4279 33.6605C68.6535 33.8635 68.9862 33.965 69.4261 33.965C70.0746 33.965 70.5962 33.7845 70.991 33.4236C71.3857 33.0627 71.5831 32.5523 71.5831 31.8925V31.1651L70.5004 31.2073C69.6545 31.2412 69.0398 31.385 68.6563 31.6388C68.2784 31.8869 68.0895 32.2704 68.0895 32.7892ZM76.3211 38.9305C75.9263 38.9305 75.5428 38.8882 75.1706 38.8036V37.3825C75.447 37.4445 75.7543 37.4755 76.0927 37.4755C76.9611 37.4755 77.5674 36.9764 77.9114 35.9783L78.2244 35.1831L74.8407 26.7663H76.7863L78.5035 31.5372C78.7629 32.214 78.9349 32.854 79.0195 33.4575H79.0787C79.1182 33.1755 79.2141 32.8005 79.3663 32.3324C79.5186 31.8587 80.153 30.0033 81.2696 26.7663H83.1983L79.5947 36.2997C78.9406 38.0535 77.8493 38.9305 76.3211 38.9305ZM86.9031 35.1493C86.39 35.1493 85.9811 35.2705 85.6766 35.513C85.3777 35.7555 85.2282 36.0741 85.2282 36.4689C85.2282 36.8693 85.4002 37.1738 85.7442 37.3825C86.0939 37.5911 86.5845 37.6954 87.2161 37.6954C88.1635 37.6954 88.8826 37.5573 89.3732 37.281C89.8638 37.0103 90.1091 36.6381 90.1091 36.1644C90.1091 35.8034 89.9766 35.544 89.7116 35.3861C89.4521 35.2282 88.9672 35.1493 88.2566 35.1493H86.9031ZM91.8432 26.7663V27.7476L90.4052 28.0098C90.7097 28.4328 90.862 28.9262 90.862 29.4902C90.862 30.353 90.5603 31.0353 89.9569 31.5372C89.3591 32.0335 88.5357 32.2816 87.4868 32.2816C87.1992 32.2816 86.9567 32.2619 86.7593 32.2224C86.3702 32.4593 86.1757 32.7384 86.1757 33.0599C86.1757 33.2573 86.2687 33.4039 86.4548 33.4998C86.6465 33.59 86.9765 33.6351 87.4445 33.6351H88.9079C89.8328 33.6351 90.5377 33.8325 91.0227 34.2272C91.5077 34.622 91.7502 35.1944 91.7502 35.9444C91.7502 36.8975 91.3554 37.6334 90.5659 38.1522C89.7764 38.6711 88.6401 38.9305 87.1569 38.9305C86.0178 38.9305 85.1437 38.7275 84.5346 38.3214C83.9312 37.9154 83.6295 37.3373 83.6295 36.5873C83.6295 36.0685 83.7902 35.6314 84.1117 35.2762C84.4387 34.9265 84.8983 34.6812 85.4905 34.5402C85.2536 34.4387 85.0562 34.2752 84.8983 34.0496C84.7461 33.824 84.6699 33.5731 84.6699 33.2967C84.6699 33.0204 84.7517 32.7751 84.9153 32.5608C85.0844 32.3409 85.3551 32.1181 85.7273 31.8925C85.2818 31.7008 84.9237 31.3934 84.653 30.9705C84.388 30.5419 84.2555 30.0485 84.2555 29.4902C84.2555 28.5766 84.5431 27.8688 85.1183 27.3669C85.6991 26.865 86.5225 26.6141 87.5883 26.6141C87.8195 26.6141 88.0677 26.631 88.3327 26.6648C88.6034 26.693 88.8008 26.7269 88.9249 26.7663H91.8432ZM87.5714 27.7645C87.0526 27.7645 86.6606 27.9111 86.3956 28.2044C86.1305 28.4976 85.998 28.9178 85.998 29.4648C85.998 30.0062 86.1334 30.4207 86.4041 30.7083C86.6747 30.9902 87.0639 31.1312 87.5714 31.1312C88.6034 31.1312 89.1194 30.5701 89.1194 29.4479C89.1194 28.3256 88.6034 27.7645 87.5714 27.7645ZM97.9389 26.6141C98.2998 26.6141 98.5959 26.6395 98.8271 26.6902L98.6579 28.3566C98.3929 28.2946 98.1278 28.2636 97.8628 28.2636C97.1522 28.2636 96.5713 28.4976 96.1202 28.9657C95.6803 29.4338 95.4604 30.04 95.4604 30.7844V35.1831H93.6671V26.7663H95.0713L95.3081 28.2467H95.3927C95.6803 27.7391 96.0469 27.3416 96.4924 27.0539C96.9435 26.7607 97.4257 26.6141 97.9389 26.6141ZM103.827 28.069C102.406 28.069 101.695 29.0362 101.695 30.9705C101.695 32.9048 102.411 33.872 103.844 33.872C105.265 33.872 105.975 32.9048 105.975 30.9705C105.975 29.0362 105.259 28.069 103.827 28.069ZM99.851 30.962C99.851 29.586 100.201 28.5174 100.9 27.756C101.599 26.9947 102.572 26.6141 103.818 26.6141C105.065 26.6141 106.043 27.0088 106.754 27.7983C107.464 28.5822 107.819 29.6481 107.819 30.9959C107.819 32.3437 107.467 33.4039 106.762 34.1765C106.057 34.9491 105.076 35.3354 103.818 35.3354C102.634 35.3579 101.673 34.9632 100.934 34.1511C100.195 33.3334 99.8341 32.2704 99.851 30.962ZM117.489 35.1831H116.076L115.822 34.0834H115.738C115.484 34.4782 115.126 34.7855 114.663 35.0055C114.206 35.2254 113.685 35.3354 113.098 35.3354C112.078 35.3354 111.316 35.0816 110.814 34.5741C110.312 34.0665 110.062 33.2967 110.062 32.2647V26.7663H111.863V31.9517C111.863 32.6059 111.996 33.0937 112.261 33.4152C112.532 33.731 112.946 33.8889 113.504 33.8889C114.26 33.8889 114.81 33.6661 115.154 33.2206C115.509 32.7695 115.687 32.0166 115.687 30.962V26.7663H117.489V35.1831ZM127.711 29.6932V35.1831H125.909V30.0062C125.909 29.352 125.777 28.867 125.512 28.5512C125.252 28.2298 124.841 28.069 124.277 28.069C123.521 28.069 122.968 28.2946 122.619 28.7458C122.269 29.1969 122.094 29.9441 122.094 30.9874V35.1831H120.301V26.7663H121.705L121.951 27.866H122.044C122.297 27.4656 122.656 27.1583 123.118 26.944C123.586 26.724 124.108 26.6141 124.683 26.6141C126.702 26.6141 127.711 27.6404 127.711 29.6932ZM135.827 34.0834C135.252 34.9181 134.426 35.3354 133.349 35.3354C132.272 35.3354 131.437 34.9547 130.845 34.1934C130.259 33.4264 129.965 32.3578 129.965 30.9874C129.965 29.6114 130.261 28.5371 130.854 27.7645C131.451 26.9976 132.292 26.6141 133.374 26.6141C134.457 26.6141 135.286 27.0229 135.861 27.8406H135.954C135.87 27.2316 135.827 26.7522 135.827 26.4026V23.3404H137.621V35.1831H136.225L135.912 34.0834H135.827ZM133.772 28.069C133.14 28.069 132.655 28.3256 132.317 28.8388C131.979 29.3464 131.809 30.071 131.809 31.0128C131.809 31.9546 131.976 32.6708 132.309 33.1614C132.641 33.6464 133.154 33.8889 133.848 33.8889C134.542 33.8889 135.055 33.683 135.388 33.2714C135.726 32.854 135.901 32.183 135.912 31.2581V31.0043C135.912 29.9498 135.737 29.1969 135.388 28.7458C135.038 28.2946 134.499 28.069 133.772 28.069Z" fill="white"/>
<defs>
<linearGradient id="paint0_linear_397_2617" x1="20.3995" y1="0" x2="20.3995" y2="40" gradientUnits="userSpaceOnUse">
<stop stop-color="#E10986"/>
<stop offset="1" stop-color="#E00082"/>
</linearGradient>
<clipPath id="clip0_397_2617">
<rect width="27.1895" height="27.1895" fill="white" transform="translate(6.80478 6.40527)"/>
</clipPath>
</defs>
</svg>
