<svg xmlns="http://www.w3.org/2000/svg" width="24" height="25" viewBox="0 0 24 25" fill="none">
  <path d="M17.7915 16.7366H6.1983" stroke="#E535AB" stroke-linecap="round" stroke-linejoin="round"/>
  <path d="M18.0043 17.7644L13.3227 20.6017" stroke="#E535AB" stroke-linecap="round" stroke-linejoin="round"/>
  <path d="M12 6.07008C12.8591 6.07008 13.5555 5.37364 13.5555 4.51453C13.5555 3.65543 12.8591 2.95898 12 2.95898C11.1409 2.95898 10.4444 3.65543 10.4444 4.51453C10.4444 5.37364 11.1409 6.07008 12 6.07008Z" stroke="#E535AB" stroke-linecap="round" stroke-linejoin="round"/>
  <path d="M4.66669 10.5144C5.5258 10.5144 6.22224 9.81798 6.22224 8.95887C6.22224 8.09976 5.5258 7.40332 4.66669 7.40332C3.80759 7.40332 3.11115 8.09976 3.11115 8.95887C3.11115 9.81798 3.80759 10.5144 4.66669 10.5144Z" stroke="#E535AB" stroke-linecap="round" stroke-linejoin="round"/>
  <path d="M19.3333 10.5144C20.1924 10.5144 20.8888 9.81798 20.8888 8.95887C20.8888 8.09976 20.1924 7.40332 19.3333 7.40332C18.4742 7.40332 17.7777 8.09976 17.7777 8.95887C17.7777 9.81798 18.4742 10.5144 19.3333 10.5144Z" stroke="#E535AB" stroke-linecap="round" stroke-linejoin="round"/>
  <path d="M12 22.959C12.8591 22.959 13.5555 22.2626 13.5555 21.4034C13.5555 20.5443 12.8591 19.8479 12 19.8479C11.1409 19.8479 10.4444 20.5443 10.4444 21.4034C10.4444 22.2626 11.1409 22.959 12 22.959Z" stroke="#E535AB" stroke-linecap="round" stroke-linejoin="round"/>
  <path d="M4.66669 18.5144C5.5258 18.5144 6.22224 17.818 6.22224 16.9589C6.22224 16.0998 5.5258 15.4033 4.66669 15.4033C3.80759 15.4033 3.11115 16.0998 3.11115 16.9589C3.11115 17.818 3.80759 18.5144 4.66669 18.5144Z" stroke="#E535AB" stroke-linecap="round" stroke-linejoin="round"/>
  <path d="M19.3333 18.5144C20.1924 18.5144 20.8888 17.818 20.8888 16.9589C20.8888 16.0998 20.1924 15.4033 19.3333 15.4033C18.4742 15.4033 17.7777 16.0998 17.7777 16.9589C17.7777 17.818 18.4742 18.5144 19.3333 18.5144Z" stroke="#E535AB" stroke-linecap="round" stroke-linejoin="round"/>
  <path d="M11.42 5.94995L5.6665 15.7866" stroke="#E535AB" stroke-linecap="round" stroke-linejoin="round"/>
  <path d="M12.5793 5.94995L18.3328 15.7866" stroke="#E535AB" stroke-linecap="round" stroke-linejoin="round"/>
  <path d="M10.6695 5.32104L5.99545 8.15377" stroke="#E535AB" stroke-linecap="round" stroke-linejoin="round"/>
  <path d="M4.6665 10.5122V15.4028" stroke="#E535AB" stroke-linecap="round" stroke-linejoin="round"/>
  <path d="M5.99545 17.7646L10.677 20.6021" stroke="#E535AB" stroke-linecap="round" stroke-linejoin="round"/>
  <path d="M19.3331 10.5122V15.4028" stroke="#E535AB" stroke-linecap="round" stroke-linejoin="round"/>
  <path d="M13.3304 5.32104L18.0044 8.15377" stroke="#E535AB" stroke-linecap="round" stroke-linejoin="round"/>
</svg>
