<svg width="127" height="29" viewBox="0 0 127 29" fill="none" xmlns="http://www.w3.org/2000/svg">
<g clip-path="url(#clip0_733_5582)">
<path d="M16.8225 4.02049L22.4304 7.24924C22.6898 6.97671 23.0091 6.76831 23.3631 6.64055C23.717 6.51278 24.0958 6.46915 24.4695 6.51312C24.8433 6.55709 25.2016 6.68744 25.5162 6.89386C25.8308 7.10028 26.0931 7.3771 26.2822 7.7024C26.4682 8.02926 26.576 8.39475 26.5972 8.77024C26.6183 9.14573 26.5523 9.52102 26.4041 9.86669C26.256 10.2124 26.0298 10.519 25.7433 10.7627C25.4568 11.0063 25.1178 11.1803 24.7528 11.271V17.7285C25.1204 17.8151 25.4626 17.9866 25.7519 18.2295C26.0411 18.4724 26.2693 18.7798 26.4181 19.1269C26.5668 19.4741 26.632 19.8513 26.6084 20.2282C26.5849 20.6052 26.4731 20.9713 26.2822 21.2972C26.09 21.6289 25.8218 21.9104 25.4997 22.1184C25.1776 22.3264 24.8107 22.455 24.4292 22.4937C24.0478 22.5324 23.6625 22.48 23.3052 22.341C22.9479 22.2019 22.6287 21.9801 22.3737 21.6937L16.8225 24.9111C16.9369 25.2711 16.9656 25.6529 16.9062 26.026C16.8469 26.3991 16.7012 26.7531 16.4808 27.0599C16.2604 27.3667 15.9713 27.6177 15.6366 27.793C15.302 27.9682 14.931 28.0628 14.5533 28.0693C14.1756 28.0757 13.8016 27.9938 13.4612 27.8301C13.1207 27.6664 12.8233 27.4254 12.5925 27.1263C12.3617 26.8272 12.204 26.4783 12.132 26.1075C12.06 25.7367 12.0756 25.3541 12.1776 24.9904L6.59245 21.7503C6.332 22.0222 6.01181 22.2297 5.65725 22.3564C5.30268 22.483 4.9235 22.5253 4.54973 22.48C4.17597 22.4347 3.8179 22.3029 3.50391 22.0951C3.18991 21.8874 2.92862 21.6094 2.74074 21.2831C2.55286 20.9568 2.44355 20.5913 2.42147 20.2154C2.3994 19.8395 2.46516 19.4637 2.61356 19.1177C2.76196 18.7717 2.98891 18.4649 3.27643 18.2219C3.56394 17.9788 3.90412 17.806 4.27001 17.7172V11.2597C3.899 11.1766 3.55274 11.0074 3.25919 10.7658C2.96564 10.5242 2.73303 10.2169 2.58014 9.86882C2.42726 9.52072 2.35838 9.14154 2.37909 8.76191C2.39979 8.38227 2.50948 8.01283 2.69932 7.68342C2.88915 7.354 3.15379 7.07385 3.47188 6.86559C3.78996 6.65733 4.15257 6.5268 4.53041 6.48454C4.90825 6.44228 5.29073 6.48947 5.64697 6.62231C6.0032 6.75515 6.3232 6.96991 6.58112 7.24924L12.1776 4.02049C12.0692 3.65852 12.0469 3.27621 12.1125 2.90408C12.178 2.53195 12.3297 2.1803 12.5553 1.87719C12.7809 1.57408 13.0743 1.32791 13.4119 1.15831C13.7496 0.988714 14.1222 0.900391 14.5001 0.900391C14.8779 0.900391 15.2506 0.988714 15.5882 1.15831C15.9259 1.32791 16.2192 1.57408 16.4449 1.87719C16.6705 2.1803 16.8221 2.53195 16.8877 2.90408C16.9533 3.27621 16.9309 3.65852 16.8225 4.02049ZM16.2447 5.01744C16.2233 5.04128 16.2006 5.06397 16.1768 5.08541L23.4953 17.7625L23.5859 17.7285V11.271C23.2762 11.1942 22.9846 11.057 22.728 10.8672C22.4714 10.6775 22.2548 10.4389 22.0906 10.1653C21.9264 9.8916 21.8178 9.58821 21.7712 9.2725C21.7245 8.95679 21.7406 8.63497 21.8186 8.3255L21.8412 8.25752L16.2447 5.01744ZM12.8234 5.08541L12.7554 5.01744L7.14757 8.24619C7.32272 8.86211 7.2471 9.5223 6.93721 10.0826C6.62732 10.643 6.10833 11.058 5.49354 11.237L5.41423 11.271V17.7285L5.50487 17.7625L12.8234 5.07408V5.08541ZM15.1798 5.65186C14.7267 5.78781 14.2735 5.78781 13.8203 5.65186L6.50182 18.3516C6.84169 18.6689 7.06826 19.0767 7.18155 19.5185H21.8186C21.9319 19.0654 22.1585 18.6575 22.4983 18.3403L15.1798 5.65186ZM16.2901 24.0388L21.8639 20.8214L21.8186 20.6628H7.18155L7.1589 20.7534L12.7554 23.9935C12.986 23.7556 13.2628 23.5676 13.5689 23.4409C13.875 23.3142 14.2038 23.2516 14.535 23.2569C14.8662 23.2622 15.1928 23.3353 15.4947 23.4717C15.7965 23.6082 16.0672 23.805 16.2901 24.0501V24.0388Z" fill="#E535AB"/>
<path d="M14.9174 11.6465C14.5977 11.6465 14.3626 11.4115 14.3626 11.0918C14.3626 10.7157 14.6729 10.4336 15.0208 10.4336C15.3405 10.4336 15.585 10.6687 15.585 10.9884C15.585 11.3645 15.2747 11.6465 14.9174 11.6465ZM14.4379 17.0719H13.4036L14.231 12.3141H15.2653L14.4379 17.0719Z" fill="#E535AB"/>
</g>
<path d="M125.862 21.1947H116.432V6.45996H118.874V18.8582H125.862V21.1947Z" fill="white"/>
<path d="M114.032 13.826C114.032 15.6784 113.421 17.3623 112.411 18.6674L113.821 20.0357L112.348 21.5723L110.895 20.1409C109.738 20.9618 108.39 21.446 106.938 21.446C103.107 21.446 99.8442 18.1201 99.8442 13.826C99.8442 9.53189 103.107 6.20605 106.938 6.20605C110.748 6.20605 114.032 9.53189 114.032 13.826ZM106.938 19.1726C107.759 19.1726 108.538 18.9411 109.232 18.5201L107.254 16.5835L108.727 15.0469L110.748 17.0256C111.316 16.1625 111.653 15.0679 111.653 13.826C111.653 10.6896 109.464 8.47941 106.938 8.47941C104.412 8.47941 102.223 10.6896 102.223 13.826C102.223 16.9624 104.412 19.1726 106.938 19.1726Z" fill="white"/>
<path d="M97.8597 9.04743C97.144 9.04743 96.6178 8.52119 96.6178 7.8055C96.6178 6.96352 97.3124 6.33203 98.0912 6.33203C98.8069 6.33203 99.3542 6.85827 99.3542 7.57396C99.3542 8.41594 98.6596 9.04743 97.8597 9.04743ZM96.7862 21.1931H94.4707L96.3231 10.542H98.6385L96.7862 21.1931Z" fill="white"/>
<path d="M85.607 21.1947H83.2915V6.45996H85.607V11.7224H85.7122C86.028 11.2593 87.1225 10.291 88.6802 10.291C91.0378 10.291 92.8059 12.1223 92.8059 14.943V21.1947H90.5115V15.1114C90.5115 13.5326 89.4801 12.4381 88.0698 12.4381C86.6173 12.4381 85.607 13.5326 85.607 15.1114V21.1947Z" fill="white"/>
<path d="M73.086 24.9827H70.7705V10.5426H72.4966L72.9176 11.7214H73.0228C73.3175 11.3425 74.4752 10.29 76.2013 10.29C78.8325 10.29 81.1059 12.6265 81.1059 15.8682C81.1059 19.1098 78.8325 21.4463 76.2013 21.4463C74.5805 21.4463 73.4228 20.457 73.1912 20.0781H73.086V24.9827ZM75.9487 19.2993C77.4853 19.2993 78.8115 17.91 78.8115 15.8682C78.8115 13.8264 77.4853 12.4371 75.9487 12.4371C74.4121 12.4371 73.086 13.8264 73.086 15.8682C73.086 17.91 74.4121 19.2993 75.9487 19.2993Z" fill="white"/>
<path d="M63.9367 10.29C66.5469 10.29 68.1888 12.0372 68.1888 14.6263V21.1937H66.4627L66.0417 19.9939H65.9365C65.5155 20.5412 64.5261 21.4463 62.8211 21.4463C60.7372 21.4463 59.2427 20.015 59.2427 18.2678C59.2427 16.1418 61.2634 14.7947 64.1893 14.7947H65.8944V14.4368C65.8944 13.1528 65.1155 12.374 63.9157 12.374C62.758 12.374 62.1686 13.0896 62.0423 13.7843H59.7268C59.9163 11.9951 61.3687 10.29 63.9367 10.29ZM63.3053 19.4887C64.884 19.4887 65.8944 18.3941 65.8944 17.1312V16.4576H64.2104C62.4001 16.4576 61.5581 17.1101 61.5581 18.0784C61.5581 18.8993 62.1475 19.4887 63.3053 19.4887Z" fill="white"/>
<path d="M55.1197 21.1937H52.8042V10.5426H54.5303L54.9513 11.7214H55.0565C55.3512 11.3004 56.3195 10.29 57.6877 10.29C58.0666 10.29 58.2981 10.3111 58.5718 10.3742V12.6897C58.2771 12.6265 58.0035 12.6055 57.6246 12.6055C56.1511 12.6055 55.1197 13.5948 55.1197 15.2998V21.1937Z" fill="white"/>
<path d="M43.6515 15.7415V13.6366H50.0717V21.1934H48.5772L48.1141 19.0884C47.2721 20.2461 45.5881 21.446 43.3779 21.446C39.5469 21.446 36.2842 18.1201 36.2842 13.826C36.2842 9.53189 39.5469 6.20605 43.3779 6.20605C46.809 6.20605 49.2928 8.64781 49.8401 11.1527H47.3352C46.8511 9.88974 45.525 8.54256 43.3779 8.54256C40.894 8.54256 38.7259 10.7317 38.7259 13.826C38.7259 16.9203 40.894 19.1095 43.3779 19.1095C45.8618 19.1095 47.3142 17.2992 47.5457 15.7415H43.6515Z" fill="white"/>
<defs>
<clipPath id="clip0_733_5582">
<rect width="27.1895" height="27.1895" fill="white" transform="translate(0.905273 0.905273)"/>
</clipPath>
</defs>
</svg>
