<svg width="30" height="16" viewBox="0 0 30 16" fill="none" xmlns="http://www.w3.org/2000/svg">
<path d="M26.705 0H4.4434L0.625 8L4.4434 16H26.705L30.5234 8L26.705 0ZM25.429 14.6688H5.2826L2.0994 8L5.2826 1.3312H25.429L28.6122 8L25.429 14.6688Z" fill="#008EC7"/>
<path d="M28.6124 8.0009L25.4292 14.6697H5.28281L2.09961 8.0009L5.28281 1.3313H25.4292L28.6124 8.0009Z" fill="#005B9B"/>
<path d="M10.8692 5.75122V10.5136H9.76675V8.56002H7.60675V10.5128H6.50195V5.75122H7.60355V7.62882H9.76355V5.75122H10.8692Z" fill="white"/>
<path d="M12.9849 6.64962H11.4609V5.75122H15.6105V6.64962H14.0905V10.5136H12.9849V6.64962Z" fill="white"/>
<path d="M17.2574 6.64962H15.7334V5.75122H19.883V6.64962H18.359V10.5136H17.2574V6.64962Z" fill="white"/>
<path d="M23.6346 5.96266C23.9278 6.08773 24.178 6.29572 24.3546 6.56106C24.5266 6.83594 24.6139 7.15532 24.6058 7.47946C24.613 7.80248 24.5257 8.12058 24.3546 8.39466C24.1794 8.66125 23.9288 8.86959 23.6346 8.99306C23.2868 9.13856 22.9123 9.20916 22.5354 9.20026H21.5754V10.5139H20.4746V5.75146H22.5354C22.9127 5.74261 23.2875 5.81462 23.6346 5.96266ZM23.2298 8.08826C23.3168 8.01346 23.3853 7.91962 23.4301 7.81404C23.4749 7.70846 23.4948 7.59397 23.4882 7.47946C23.4882 7.21226 23.4018 7.00666 23.2298 6.86426C23.0578 6.72186 22.8058 6.64986 22.4746 6.64986H21.5762V8.30266H22.4746C22.8058 8.30266 23.0575 8.23119 23.2298 8.08826Z" fill="white"/>
</svg>
