<svg width="38" height="16" viewBox="0 0 38 16" fill="none" xmlns="http://www.w3.org/2000/svg">
<g clip-path="url(#clip0_1237_20651)">
<path d="M4.5886 12.3736C4.5886 12.3736 3.97717 12.7291 5.02373 12.8495C6.29161 12.9941 6.93961 12.9734 8.33682 12.7089C8.33682 12.7089 8.70416 12.9392 9.21718 13.1387C6.085 14.4811 2.12844 13.061 4.5886 12.3736ZM4.20586 10.6218C4.20586 10.6218 3.52009 11.1295 4.56742 11.2378C5.92181 11.3775 6.9914 11.3889 8.8422 11.0326C8.8422 11.0326 9.09824 11.2921 9.50077 11.434C5.71373 12.5414 1.49571 11.5213 4.20586 10.6218Z" fill="#5382A1"/>
<path d="M7.43199 7.65024C8.20376 8.53879 7.22926 9.33842 7.22926 9.33842C7.22926 9.33842 9.18882 8.32679 8.28889 7.05999C7.44834 5.87857 6.80375 5.29164 10.2933 3.26782C10.2933 3.26778 4.81585 4.63579 7.43199 7.65024Z" fill="#E76F00"/>
<path d="M11.5749 13.6691C11.5749 13.6691 12.0274 14.042 11.0766 14.3304C9.26868 14.878 3.55179 15.0434 1.96367 14.3522C1.39278 14.1038 2.46336 13.7592 2.80012 13.6868C3.15133 13.6107 3.35204 13.6249 3.35204 13.6249C2.71715 13.1776 -0.751621 14.503 1.59007 14.8827C7.97622 15.9183 13.2314 14.4163 11.5749 13.6691ZM4.88255 8.80668C4.88255 8.80668 1.97458 9.49737 3.85276 9.74819C4.64579 9.85436 6.22667 9.83034 7.69918 9.70696C8.90263 9.60544 10.1111 9.38964 10.1111 9.38964C10.1111 9.38964 9.68673 9.57137 9.37972 9.78096C6.42673 10.5576 0.722094 10.1963 2.36439 9.40189C3.75327 8.73052 4.88255 8.80668 4.88255 8.80668ZM10.0991 11.7225C13.1009 10.1627 11.7131 8.66359 10.7442 8.86559C10.5068 8.91501 10.4009 8.95783 10.4009 8.95783C10.4009 8.95783 10.4891 8.81974 10.6574 8.75997C12.5739 8.08619 14.0478 10.7472 10.0387 11.8012C10.0387 11.8012 10.0853 11.7597 10.0991 11.7225Z" fill="#5382A1"/>
<path d="M8.28933 -0.000244141C8.28933 -0.000244141 9.9518 1.66275 6.71254 4.22007C4.11499 6.2714 6.12022 7.44104 6.71146 8.77745C5.19527 7.40939 4.08256 6.20516 4.82905 5.08434C5.92469 3.43907 8.96009 2.64139 8.28933 -0.000244141Z" fill="#E76F00"/>
<path d="M5.17712 15.9496C8.05853 16.134 12.4833 15.8472 12.588 14.4839C12.588 14.4839 12.3866 15.0007 10.2067 15.4112C7.74738 15.874 4.71409 15.82 2.91504 15.5234C2.91513 15.5233 3.28337 15.8281 5.17712 15.9496Z" fill="#5382A1"/>
<path d="M23.1537 9.73608C22.6704 10.1552 22.1601 10.3905 21.7021 10.3905C21.0483 10.3905 20.6951 9.99851 20.6951 9.36976C20.6951 8.68965 21.0736 8.19239 22.5918 8.19239H23.1536L23.1537 9.73608ZM24.4871 11.2405V6.58361C24.4871 5.39389 23.8086 4.60898 22.1726 4.60898C21.2176 4.60898 20.381 4.8448 19.701 5.14557L19.8973 5.96989C20.4327 5.77339 21.1257 5.59047 21.8059 5.59047C22.7482 5.59047 23.1537 5.96989 23.1537 6.75435V7.34299H22.6833C20.3937 7.34299 19.3608 8.23179 19.3608 9.5658C19.3608 10.7172 20.0414 11.3716 21.323 11.3716C22.1468 11.3716 22.7617 11.0314 23.3366 10.5337L23.4409 11.2407L24.4871 11.2405ZM28.937 11.2405H27.274L25.2726 4.72689H26.725L27.9668 8.72883L28.2429 9.93242C28.8712 8.19223 29.3156 6.42675 29.5379 4.72689H30.9506C30.572 6.87172 29.8909 9.22601 28.937 11.2405ZM35.3168 9.73608C34.8326 10.1552 34.3214 10.3905 33.8633 10.3905C33.2108 10.3905 32.8566 9.99851 32.8566 9.36976C32.8566 8.68965 33.2359 8.19239 34.754 8.19239H35.3168V9.73608ZM36.65 11.2405V6.58361C36.65 5.39389 35.9699 4.60898 34.3358 4.60898C33.3801 4.60898 32.5432 4.8448 31.8636 5.14557L32.0596 5.96989C32.5951 5.77339 33.2894 5.59047 33.9691 5.59047C34.9108 5.59047 35.3168 5.96989 35.3168 6.75435V7.34299H34.8456C32.5553 7.34299 31.5229 8.23179 31.5229 9.5658C31.5229 10.7172 32.203 11.3716 33.4843 11.3716C34.3086 11.3716 34.9233 11.0314 35.4991 10.5337L35.6038 11.2407L36.65 11.2405ZM17.8988 12.3466C17.5186 12.9016 16.9047 13.3406 16.2326 13.589L15.5742 12.8143C16.0858 12.5518 16.5246 12.1279 16.7284 11.733C16.9048 11.3818 16.9778 10.9292 16.9778 9.84671V2.4104H18.3944V9.74481C18.3943 11.1919 18.2786 11.7765 17.8988 12.3466Z" fill="#E76F00"/>
<path d="M36.9223 7.82544H36.7661V7.73804H37.1867V7.82544H37.0315V8.26152H36.9223V7.82544ZM37.7612 7.84821H37.7587L37.6039 8.26167H37.533L37.3792 7.84821H37.3774V8.26167H37.2744V7.73819H37.4259L37.5685 8.10888L37.7107 7.73819H37.8616V8.26167H37.7611L37.7612 7.84821Z" fill="#E76F00"/>
</g>
<defs>
<clipPath id="clip0_1237_20651">
<rect width="37.074" height="16" fill="white" transform="translate(0.788086)"/>
</clipPath>
</defs>
</svg>
