<svg width="74" height="16" viewBox="0 0 74 16" fill="none" xmlns="http://www.w3.org/2000/svg">
<path d="M16.083 15.7576H0.9375V0.618164H16.083L8.51023 8.18483L16.083 15.7576Z" fill="url(#paint0_linear_1237_20632)"/>
<path d="M32.5904 2.00464H30.0115L24.4528 7.96707V2.04578H22.3984V14.8911H24.4528V8.68699L30.0527 14.8911H32.6701L26.7488 8.24732L32.5904 2.00464Z" fill="white"/>
<path d="M39.5578 5.91293C38.8328 5.50926 37.9869 5.26758 37.0998 5.26758C36.1742 5.26758 35.3283 5.46813 34.6033 5.91293C33.8782 6.35773 33.274 6.92081 32.8703 7.64587C32.4667 8.41206 32.2661 9.25796 32.2661 10.1836C32.2661 11.1092 32.4667 11.9962 32.8703 12.7213C33.274 13.4463 33.8371 14.0505 34.6033 14.4542C35.3283 14.8579 36.1742 15.0995 37.0998 15.0995C38.0254 15.0995 38.8713 14.899 39.5964 14.4542C40.3214 14.0505 40.8845 13.4463 41.2882 12.7213C41.6918 11.9551 41.8924 11.1092 41.8924 10.1836C41.8924 9.25796 41.6507 8.41206 41.247 7.64587C40.8485 6.91824 40.2829 6.31403 39.5578 5.91293ZM39.3984 11.8291C39.1567 12.3125 38.8353 12.675 38.4317 12.9167C38.028 13.1995 37.5446 13.3203 37.0227 13.3203C36.5008 13.3203 36.0148 13.1995 35.5726 12.9167C35.1689 12.6338 34.8475 12.2713 34.6058 11.8291C34.3641 11.3457 34.2844 10.8212 34.2844 10.217C34.2844 9.61277 34.4053 9.0497 34.647 8.60489C34.8887 8.12152 35.21 7.759 35.6137 7.51731C36.0174 7.23449 36.5008 7.11364 37.0638 7.11364C37.5883 7.11364 38.0717 7.23449 38.4728 7.51731C38.8765 7.80013 39.1979 8.16266 39.4395 8.60489C39.6812 9.08827 39.7609 9.61277 39.7609 10.217C39.7609 10.8212 39.6401 11.3457 39.3984 11.8291Z" fill="white"/>
<path d="M46.0448 3.13379H44.0702V4.74588C44.0702 4.98757 44.0291 5.18812 43.8697 5.30896C43.7488 5.4298 43.5483 5.50951 43.3066 5.50951H42.3398V7.2013H44.0316V12.2767C44.0316 12.8012 44.1525 13.2846 44.353 13.6857C44.5536 14.0893 44.8775 14.4107 45.2786 14.6113C45.6823 14.853 46.1245 14.9327 46.6876 14.9327H48.2174V13.1612H47.0887C46.8059 13.1612 46.5642 13.0815 46.3636 12.8398C46.2017 12.6392 46.0808 12.3564 46.0808 12.035V7.2013H48.256V5.50951H46.0808V3.13379H46.0448Z" fill="white"/>
<path d="M51.8047 1.52148H49.7915V14.8913H51.8047V1.52148Z" fill="white"/>
<path d="M56.1544 1.56299H54.1001V3.65845H56.1544V1.56299Z" fill="white"/>
<path d="M56.1133 5.50952H54.1001V14.9301H56.1133V5.50952Z" fill="white"/>
<path d="M66.3877 7.03908C66.1049 6.47601 65.7038 6.0312 65.1793 5.75095C64.6548 5.42956 64.0506 5.26758 63.3667 5.26758C62.6416 5.26758 61.9963 5.46813 61.4332 5.79209C60.9909 6.07491 60.6284 6.47601 60.3456 6.92081V5.4707H58.4121V14.8913H60.4253V9.61278C60.4253 9.08827 60.505 8.64603 60.7081 8.24237C60.9087 7.8387 61.1915 7.55845 61.5129 7.31676C61.8754 7.11622 62.2791 6.99537 62.7625 6.99537C63.2047 6.99537 63.5286 7.07508 63.85 7.2782C64.1714 7.48131 64.3745 7.72043 64.534 8.04439C64.6959 8.36578 64.7756 8.76945 64.7756 9.21168V14.8502H66.7888V8.97C66.8325 8.24751 66.6731 7.60473 66.3877 7.03908Z" fill="white"/>
<defs>
<linearGradient id="paint0_linear_1237_20632" x1="16.0816" y1="0.616539" x2="0.939008" y2="15.7591" gradientUnits="userSpaceOnUse">
<stop offset="0.00343514" stop-color="#E44857"/>
<stop offset="0.4689" stop-color="#C711E1"/>
<stop offset="1" stop-color="#7F52FF"/>
</linearGradient>
</defs>
</svg>
