<svg width="54" height="16" viewBox="0 0 54 16" fill="none" xmlns="http://www.w3.org/2000/svg">
<g clip-path="url(#clip0_1237_20558)">
<path d="M36.0197 2.67114H45.2353V4.37206H41.5797V13.3208H39.7517V4.37206H36.0197V2.67114ZM20.863 2.67114V4.37206H13.4761V7.10828H19.4169V8.80952H13.4761V11.6196H20.863V13.3208H11.6481V4.37206H11.6475V2.67114H20.863ZM25.4651 2.67539H23.0725L31.6407 13.325H34.0399L29.7549 8.00381L34.033 2.68355L31.6407 2.68715L28.5576 6.51649L25.4648 2.67571L25.4651 2.67539ZM27.9198 10.2828L26.7215 8.79319L23.0659 13.3332H25.4651L27.9198 10.2828Z" fill="white"/>
<path fill-rule="evenodd" clip-rule="evenodd" d="M11.7117 13.321L3.13204 2.66675H0.847168V13.3164H2.67513V4.94312L9.41542 13.321H11.7117Z" fill="white"/>
<path d="M45.6458 13.2556C45.5823 13.2567 45.5191 13.2449 45.4602 13.2211C45.4013 13.1972 45.3478 13.1618 45.3029 13.1168C45.2568 13.0736 45.2204 13.0211 45.196 12.9628C45.1717 12.9044 45.16 12.8416 45.1618 12.7785C45.1605 12.6491 45.2075 12.5381 45.3029 12.4453C45.3478 12.4003 45.4013 12.3648 45.4602 12.3409C45.5191 12.317 45.5822 12.3052 45.6458 12.3062C45.7748 12.3062 45.8875 12.3526 45.9829 12.4453C46.0795 12.5381 46.1279 12.6491 46.1288 12.7785C46.1279 12.8666 46.1053 12.947 46.0609 13.0192C46.0149 13.0923 45.9567 13.1498 45.8839 13.1909C45.812 13.2337 45.7327 13.2556 45.6458 13.2556ZM48.7658 8.76948H49.5757V11.8901C49.5748 12.1769 49.5127 12.4225 49.3912 12.6282C49.2706 12.8325 49.0934 12.9974 48.8811 13.1031C48.6642 13.2132 48.4104 13.2693 48.1217 13.2693C47.8578 13.2693 47.6214 13.2216 47.4111 13.1289C47.2076 13.0419 47.0337 12.8978 46.9104 12.7141C46.7866 12.5309 46.7259 12.3026 46.7259 12.0292H47.5371C47.5384 12.1488 47.5659 12.2526 47.6178 12.3395C47.6697 12.4257 47.7416 12.4917 47.8333 12.5381C47.9261 12.5845 48.0326 12.6076 48.1528 12.6076C48.2827 12.6076 48.3944 12.5809 48.4846 12.526C48.575 12.4721 48.6446 12.3918 48.6926 12.2843C48.74 12.1782 48.7645 12.0462 48.7658 11.8901V8.76948ZM52.9087 9.98997C52.8891 9.80055 52.8022 9.65293 52.6513 9.54809C52.4988 9.44195 52.3018 9.38936 52.0605 9.38936C51.8907 9.38936 51.7447 9.41484 51.6232 9.46514C51.5017 9.51641 51.4076 9.58467 51.3433 9.67122C51.2795 9.757 51.2449 9.8609 51.2443 9.96777C51.2443 10.0605 51.2665 10.1412 51.31 10.2085C51.3531 10.2767 51.4112 10.3339 51.487 10.3803C51.5611 10.4279 51.6441 10.4671 51.7345 10.4988C51.8263 10.5305 51.9181 10.5576 52.0095 10.5792L52.4318 10.683C52.6017 10.7222 52.7663 10.7745 52.9237 10.8417C53.0811 10.9077 53.2235 10.992 53.3486 11.0932C53.4737 11.1945 53.5726 11.3166 53.6458 11.459C53.7186 11.6021 53.7558 11.7693 53.7558 11.962C53.7558 12.2219 53.6889 12.4502 53.554 12.6478C53.4191 12.8444 53.2245 12.9983 52.9694 13.1093C52.7156 13.219 52.4083 13.2752 52.0468 13.2752C51.6976 13.2752 51.3929 13.2216 51.1365 13.1142C50.8789 13.008 50.678 12.8519 50.5333 12.6468C50.3883 12.4417 50.3103 12.1916 50.2991 11.8973H51.1016C51.113 12.0511 51.1623 12.1795 51.2466 12.283C51.3322 12.3856 51.4435 12.4613 51.5797 12.5126C51.7172 12.5626 51.8707 12.588 52.0406 12.588C52.2176 12.588 52.3737 12.5613 52.5086 12.509C52.6425 12.4564 52.7476 12.3833 52.8234 12.2879C52.9002 12.1938 52.9384 12.0828 52.9397 11.9561C52.9384 11.8401 52.9038 11.7438 52.8368 11.668C52.7689 11.5923 52.6748 11.5289 52.5546 11.4776C52.4172 11.4209 52.2755 11.3748 52.131 11.3398L51.6183 11.2105C51.2479 11.1164 50.9543 10.9737 50.7401 10.782C50.5245 10.5903 50.418 10.3365 50.418 10.0177C50.418 9.75646 50.4899 9.52719 50.6349 9.3309C50.7786 9.13429 50.9755 8.98177 51.2244 8.87301C51.4746 8.76328 51.7571 8.70972 52.0716 8.70972C52.391 8.70972 52.6709 8.76328 52.9126 8.87301C53.1539 8.98177 53.3434 9.13299 53.4809 9.326C53.6183 9.5187 53.6902 9.7398 53.6941 9.98997H52.9087Z" fill="white"/>
</g>
<defs>
<clipPath id="clip0_1237_20558">
<rect width="53.3333" height="16" fill="white" transform="translate(0.222168)"/>
</clipPath>
</defs>
</svg>
