<svg width="24" height="24" viewBox="0 0 24 24" fill="none" xmlns="http://www.w3.org/2000/svg">
<g id="Frame">
<path id="Vector" d="M21.6699 16.9499C21.6699 17.3055 21.4921 17.661 21.1366 17.7499L14.0256 20.9498C13.7589 21.0387 13.4034 21.0387 13.1367 20.861C12.87 20.6832 12.6923 20.4165 12.6923 20.1499V3.35007C12.6923 3.08341 12.87 2.72787 13.1367 2.63898C13.4034 2.4612 13.67 2.46119 14.0256 2.55008L21.1366 5.75005C21.4921 5.92783 21.6699 6.19448 21.6699 6.55003V16.9499Z" stroke="currentColor" stroke-width="1.2" stroke-miterlimit="10" stroke-linecap="round" stroke-linejoin="round"/>
<path id="Vector_2" d="M10.2034 20.239C9.9367 20.3279 9.67006 20.3279 9.40339 20.1501C9.13673 19.9724 9.04785 19.7057 9.04785 19.439V4.23923C9.04785 3.97257 9.22563 3.61703 9.49229 3.52814C9.75895 3.35036 10.0256 3.35035 10.3811 3.43924" stroke="currentColor" stroke-width="1.2" stroke-miterlimit="10" stroke-linecap="round" stroke-linejoin="round"/>
<path id="Vector_3" d="M6.51394 19.3497C6.24728 19.4386 5.98061 19.4386 5.71395 19.2608C5.44729 19.0831 5.3584 18.8164 5.3584 18.5497V5.0388C5.3584 4.77213 5.53617 4.41658 5.80284 4.32769C6.0695 4.14992 6.33616 4.14992 6.69171 4.23881" stroke="currentColor" stroke-width="1.2" stroke-miterlimit="10" stroke-linecap="round" stroke-linejoin="round"/>
<path id="Vector_4" d="M2.82546 18.4611C2.5588 18.55 2.29214 18.55 2.02547 18.3722C1.75881 18.1945 1.66992 17.9278 1.66992 17.6611V5.92796C1.66992 5.66129 1.8477 5.30574 2.11436 5.21685C2.38102 5.03908 2.64769 5.03908 3.00324 5.12797" stroke="currentColor" stroke-width="1.2" stroke-miterlimit="10" stroke-linecap="round" stroke-linejoin="round"/>
</g>
</svg>
