<svg width="48" height="16" viewBox="0 0 48 16" fill="none" xmlns="http://www.w3.org/2000/svg">
<g clip-path="url(#clip0_1237_20717)">
<path d="M44.0796 6.0708C43.9647 6.0708 43.8529 6.09454 43.754 6.15052L40.6236 7.95832C40.421 8.07508 40.2979 8.29549 40.2979 8.53004V12.1391C40.2979 12.3734 40.421 12.5936 40.6236 12.7106L41.4411 13.1826C41.8383 13.3783 41.9847 13.3753 42.1655 13.3753C42.7536 13.3753 43.0894 13.0184 43.0894 12.3983V8.83571C43.0894 8.78537 43.0458 8.74934 42.9963 8.74934H42.6042C42.554 8.74934 42.5112 8.78537 42.5112 8.83571V12.3983C42.5112 12.6731 42.2248 12.9496 41.7602 12.7173L40.9094 12.2188C40.8793 12.2024 40.8562 12.1735 40.8562 12.1391V8.52995C40.8562 8.49577 40.879 8.46094 40.9094 8.44357L44.0332 6.64252C44.0473 6.63427 44.0633 6.62992 44.0797 6.62992C44.096 6.62992 44.1121 6.63427 44.1262 6.64252L47.2501 8.44367C47.2798 8.46159 47.3033 8.49475 47.3033 8.53013V12.1392C47.3033 12.1736 47.2859 12.2089 47.2567 12.2255L44.1262 14.0267C44.0994 14.0427 44.0625 14.0427 44.0332 14.0267L43.2289 13.5482C43.2167 13.5415 43.203 13.5381 43.1891 13.5381C43.1752 13.5381 43.1615 13.5415 43.1492 13.5482C42.9272 13.674 42.8855 13.6886 42.6773 13.7608C42.626 13.7788 42.5481 13.8066 42.7039 13.8939L43.754 14.5119C43.853 14.569 43.9654 14.5988 44.0797 14.5983C44.194 14.599 44.3064 14.5692 44.4054 14.5119L47.5359 12.7107C47.7385 12.5929 47.8615 12.3735 47.8615 12.1392V8.53004C47.8615 8.29559 47.7385 8.07555 47.5359 7.95851L44.4054 6.15071C44.3073 6.09463 44.1947 6.07089 44.0797 6.07089L44.0796 6.0708Z" fill="#83CD29"/>
<path d="M44.9173 8.64966C44.0259 8.64966 43.495 9.02905 43.495 9.65998C43.495 10.3443 44.0219 10.5324 44.8775 10.617C45.901 10.7172 45.9807 10.8675 45.9807 11.069C45.9807 11.4184 45.7021 11.5674 45.0437 11.5674C44.2163 11.5674 44.0345 11.3609 43.9736 10.9494C43.9664 10.9052 43.9323 10.8695 43.8871 10.8695H43.4817C43.4318 10.8695 43.3887 10.9126 43.3887 10.9627C43.3887 11.4895 43.6752 12.1125 45.0437 12.1125C46.0342 12.1125 46.6056 11.7237 46.6056 11.0424C46.6056 10.3671 46.1441 10.1858 45.1832 10.0588C44.2123 9.93027 44.1197 9.86736 44.1197 9.64002C44.1197 9.45231 44.1983 9.20124 44.9173 9.20124C45.5597 9.20124 45.7971 9.3398 45.8944 9.77295C45.9029 9.8136 45.9387 9.84602 45.9807 9.84602H46.3863C46.4112 9.84602 46.4354 9.83069 46.4527 9.81277C46.4697 9.79364 46.4817 9.77212 46.4793 9.74635C46.4165 9.0005 45.9191 8.64966 44.9173 8.64966Z" fill="#83CD29"/>
<path d="M25.6756 1.33842C25.6406 1.33845 25.6062 1.34758 25.5759 1.36493C25.5457 1.3826 25.5206 1.40783 25.5031 1.43814C25.4856 1.46845 25.4763 1.50278 25.4762 1.53777V6.62233C25.4762 6.67222 25.453 6.71693 25.4098 6.74196C25.3886 6.7543 25.3645 6.76081 25.34 6.76081C25.3155 6.76081 25.2914 6.7543 25.2702 6.74196L24.4393 6.26345C24.3787 6.22839 24.31 6.20993 24.24 6.20993C24.1699 6.20993 24.1012 6.22839 24.0406 6.26345L20.724 8.17758C20.6 8.24917 20.5246 8.38672 20.5246 8.5299V12.3582C20.5246 12.5012 20.6001 12.6322 20.724 12.7038L24.0406 14.618C24.1011 14.6532 24.1699 14.6717 24.24 14.6717C24.31 14.6717 24.3788 14.6532 24.4393 14.618L27.7559 12.7038C27.8167 12.6689 27.8671 12.6185 27.9021 12.5578C27.9371 12.4972 27.9555 12.4283 27.9554 12.3582V2.81395C27.9553 2.74224 27.9362 2.67185 27.9 2.60995C27.8638 2.54805 27.8118 2.49687 27.7494 2.46162L25.7753 1.35828C25.7443 1.34101 25.71 1.33796 25.6756 1.33842ZM4.34043 6.11722C4.27725 6.11972 4.21776 6.1308 4.16104 6.16369L0.844369 8.0779C0.783614 8.11281 0.733173 8.16316 0.698162 8.22385C0.663152 8.28454 0.644818 8.35342 0.645021 8.42348L0.651672 13.5613C0.651672 13.6328 0.68853 13.6992 0.751346 13.7341C0.781461 13.7522 0.815933 13.7617 0.851066 13.7617C0.886199 13.7617 0.920671 13.7522 0.950786 13.7341L2.91812 12.6042C3.04274 12.5302 3.12412 12.4014 3.12412 12.2586V9.85919C3.12412 9.71601 3.19941 9.58465 3.32356 9.51352L4.16095 9.02836C4.22149 8.99316 4.29035 8.97479 4.36039 8.97515C4.42875 8.97515 4.49895 8.99224 4.55974 9.02836L5.39722 9.51352C5.45803 9.54839 5.50852 9.59875 5.54355 9.65946C5.57858 9.72018 5.59691 9.78909 5.59666 9.85919V12.2585C5.59666 12.4013 5.67887 12.531 5.80266 12.6041L7.76999 13.7341C7.80011 13.7522 7.83458 13.7617 7.86971 13.7617C7.90484 13.7617 7.93932 13.7522 7.96943 13.7341C7.99974 13.7165 8.02491 13.6913 8.04242 13.661C8.05993 13.6307 8.06917 13.5963 8.0692 13.5613L8.07566 8.42348C8.07606 8.35338 8.0578 8.28443 8.02277 8.22371C7.98774 8.16298 7.9372 8.11266 7.87632 8.0779L4.55974 6.16369C4.50366 6.1308 4.44399 6.11981 4.38034 6.11722H4.34043ZM34.1432 6.16369C34.0739 6.16369 34.006 6.18124 33.9438 6.2169L30.6273 8.13111C30.5665 8.16605 30.5161 8.2164 30.4811 8.27709C30.4461 8.33777 30.4277 8.40663 30.4278 8.47669V12.305C30.4278 12.449 30.5089 12.5795 30.6338 12.6507L33.9239 14.525C34.0454 14.5943 34.1937 14.5996 34.316 14.5315L36.31 13.4216C36.3732 13.3865 36.416 13.3209 36.4163 13.2488C36.4166 13.2138 36.4076 13.1792 36.39 13.1488C36.3725 13.1184 36.3471 13.0933 36.3166 13.076L32.9801 11.1618C32.9176 11.1261 32.8738 11.054 32.8738 10.9823V9.78603C32.8738 9.71444 32.9181 9.64885 32.9801 9.6132L34.0169 9.01497C34.0472 8.99743 34.0816 8.98819 34.1166 8.98819C34.1516 8.98819 34.186 8.99743 34.2163 9.01497L35.2531 9.6132C35.2835 9.63065 35.3087 9.65581 35.3262 9.68615C35.3437 9.71648 35.3529 9.75091 35.3528 9.78594V10.7297C35.3528 10.7648 35.3619 10.7992 35.3794 10.8295C35.3969 10.8599 35.4221 10.885 35.4525 10.9025C35.5147 10.9384 35.5899 10.9385 35.6519 10.9025L37.6392 9.74622C37.6999 9.71114 37.7502 9.66074 37.7852 9.60007C37.8202 9.5394 37.8387 9.47059 37.8387 9.40055V8.47678C37.8387 8.33406 37.7629 8.2028 37.6392 8.13111L34.3426 6.2169C34.282 6.18184 34.2132 6.16342 34.1432 6.16369ZM24.2266 9.02171C24.244 9.02171 24.2643 9.02596 24.2798 9.03492L25.4164 9.69292C25.4473 9.71074 25.4696 9.74372 25.4696 9.77929V11.0953C25.4696 11.131 25.4475 11.1639 25.4164 11.1817L24.2798 11.8397C24.2646 11.8484 24.2475 11.853 24.23 11.853C24.2125 11.853 24.1953 11.8484 24.1801 11.8397L23.0436 11.1817C23.0127 11.1638 22.9904 11.131 22.9904 11.0953V9.77929C22.9904 9.74363 23.0128 9.71093 23.0436 9.69292L24.1801 9.03501C24.1941 9.02632 24.2102 9.02175 24.2267 9.0218L24.2266 9.02171Z" fill="white"/>
<path d="M14.3037 6.1438C14.2346 6.1438 14.1663 6.16135 14.1044 6.19701L10.7878 8.10457C10.6638 8.17598 10.5884 8.31381 10.5884 8.45681V12.2851C10.5884 12.4283 10.6638 12.5591 10.7878 12.6308L14.1044 14.5449C14.165 14.5801 14.2338 14.5987 14.3038 14.5987C14.3738 14.5987 14.4426 14.5801 14.5032 14.5449L17.8198 12.6308C17.8805 12.5959 17.9309 12.5455 17.9659 12.4848C18.0009 12.4241 18.0193 12.3552 18.0191 12.2851V8.45681C18.0191 8.31362 17.9437 8.17598 17.8198 8.10457L14.5032 6.19701C14.4426 6.16199 14.3738 6.14364 14.3037 6.1438ZM34.1368 9.56015C34.1236 9.56015 34.1089 9.56015 34.097 9.5668L33.4589 9.93898C33.447 9.94559 33.4371 9.95522 33.4301 9.96689C33.4231 9.97857 33.4193 9.99188 33.419 10.0055V10.7366C33.419 10.7641 33.4349 10.7893 33.4589 10.8031L34.097 11.1686C34.1209 11.1825 34.1464 11.1825 34.1701 11.1686L34.8081 10.803C34.82 10.7963 34.8299 10.7867 34.8369 10.7751C34.8439 10.7634 34.8477 10.7501 34.848 10.7366V10.0054C34.8477 9.99181 34.8439 9.97854 34.8369 9.9669C34.8299 9.95525 34.82 9.94563 34.8081 9.93898L34.1701 9.5667C34.1582 9.55978 34.1501 9.56015 34.1368 9.56015Z" fill="#83CD29"/>
</g>
<defs>
<clipPath id="clip0_1237_20717">
<rect width="47.3333" height="16" fill="white"/>
</clipPath>
</defs>
</svg>
