<svg width="24" height="24" viewBox="0 0 24 24" fill="none" xmlns="http://www.w3.org/2000/svg">
<path d="M3.33333 20.6666C3.15824 20.6666 2.98486 20.6321 2.82309 20.5651C2.66132 20.4981 2.51434 20.3999 2.39052 20.2761C2.26671 20.1522 2.1685 20.0053 2.10149 19.8435C2.03449 19.6817 2 19.5083 2 19.3333V4.7697C2.00094 4.38917 2.15246 4.02448 2.42145 3.75533C2.69044 3.48617 3.05503 3.33443 3.43556 3.33325H20.5716C20.9502 3.33443 21.313 3.48542 21.5806 3.75324C21.8483 4.02107 21.9991 4.38394 22 4.76259V19.231C21.9991 19.6115 21.8475 19.9761 21.5785 20.2451C21.3095 20.5141 20.9449 20.6656 20.5644 20.6666H3.33333Z" stroke="#DBFE01" stroke-width="1.2" stroke-linecap="round" stroke-linejoin="round"/>
<path d="M22 7.33325H2" stroke="#DBFE01" stroke-width="1.2" stroke-linecap="round" stroke-linejoin="round"/>
<path d="M16.6665 3.33325V7.33325" stroke="#DBFE01" stroke-width="1.2" stroke-linecap="round" stroke-linejoin="round"/>
<path d="M12.6665 3.33325V7.33325" stroke="#DBFE01" stroke-width="1.2" stroke-linecap="round" stroke-linejoin="round"/>
<path d="M2 15.3332H7.176C7.42365 15.3333 7.66643 15.2644 7.87713 15.1343C8.08782 15.0041 8.25811 14.8178 8.36889 14.5963L9.94667 11.4399C10.0057 11.3218 10.0984 11.2239 10.2132 11.1586C10.3279 11.0933 10.4594 11.0635 10.5911 11.073C10.7227 11.0825 10.8486 11.1309 10.9528 11.2121C11.0569 11.2932 11.1346 11.4034 11.176 11.5288L12.8249 16.4755C12.8665 16.6005 12.9442 16.7105 13.0482 16.7914C13.1523 16.8724 13.278 16.9206 13.4094 16.9302C13.5409 16.9397 13.6722 16.91 13.7868 16.8449C13.9015 16.7798 13.9942 16.6821 14.0533 16.5643L15.6356 13.4043C15.7461 13.1828 15.9162 12.9965 16.1268 12.8662C16.3373 12.7359 16.58 12.6667 16.8276 12.6666H22" stroke="#DBFE01" stroke-width="1.2" stroke-linecap="round" stroke-linejoin="round"/>
</svg>
