<svg width="103" height="40" viewBox="0 0 103 40" fill="none" xmlns="http://www.w3.org/2000/svg">
<g clip-path="url(#clip0_397_2624)">
<path d="M62.9988 26.8156H65.6943V16.9356H62.9988V26.8156ZM62.8843 14.3815C62.8843 13.5037 63.3733 13.0649 64.3512 13.0649C65.3289 13.0649 65.8181 13.5037 65.8181 14.3815C65.8181 14.7999 65.6958 15.1254 65.4515 15.3582C65.2068 15.591 64.8402 15.7071 64.3512 15.7071C63.3733 15.7071 62.8843 15.2652 62.8843 14.3815Z" fill="white"/>
<path fill-rule="evenodd" clip-rule="evenodd" d="M52.0931 21.1154C52.9625 20.3789 53.3969 19.3158 53.3969 17.9253C53.3969 16.5879 52.989 15.5818 52.173 14.9072C51.357 14.2331 50.1656 13.8955 48.5982 13.8955H44.4714V26.8155H47.2108V22.22H48.3863C49.9887 22.22 51.2244 21.8521 52.0931 21.1154ZM48.1123 19.9755H47.2108V16.1404H48.4569C49.2051 16.1404 49.7543 16.2933 50.1051 16.5997C50.4555 16.9061 50.6309 17.3805 50.6309 18.0227C50.6309 18.6586 50.4218 19.1432 50.0034 19.4762C49.5849 19.8091 48.9549 19.9755 48.1123 19.9755Z" fill="white"/>
<path d="M61.5692 16.8296C61.3276 16.7765 61.0243 16.75 60.6589 16.75C60.0461 16.75 59.4791 16.9194 58.9579 17.258C58.439 17.5941 58.0121 18.0543 57.716 18.597H57.5837L57.1858 16.9357H55.1444V26.8157H57.8399V21.7874C57.8399 20.992 58.0798 20.3732 58.5598 19.9313C59.0403 19.4895 59.7103 19.2685 60.5706 19.2685C60.883 19.2685 61.1479 19.2982 61.366 19.3568L61.5692 16.8296ZM74.1275 26.1973C74.8318 25.6668 75.1838 24.8954 75.1838 23.8819C75.1838 23.3929 75.0986 22.9716 74.9276 22.6181C74.7569 22.2645 74.4914 21.9525 74.1322 21.6813C73.773 21.4104 73.2073 21.119 72.4353 20.8066C71.5694 20.459 71.0083 20.1966 70.7521 20.02C70.4959 19.8433 70.3674 19.6343 70.3674 19.3924C70.3674 18.9624 70.7652 18.7474 71.5606 18.7474C72.0081 18.7474 72.4472 18.8151 72.8772 18.9502C73.3072 19.0863 73.7699 19.2598 74.2648 19.472L75.0777 17.5279C73.9525 17.0096 72.7948 16.7503 71.6046 16.7503C70.3555 16.7503 69.3913 16.9903 68.711 17.4705C68.0298 17.9508 67.6897 18.6295 67.6897 19.5073C67.6897 20.0199 67.7708 20.4515 67.9331 20.8019C68.0947 21.1527 68.354 21.4635 68.711 21.7343C69.0667 22.0055 69.6256 22.3001 70.3851 22.6181C70.9153 22.8421 71.3397 23.0378 71.658 23.2056C71.976 23.3738 72.2 23.5239 72.3298 23.6566C72.4593 23.7892 72.5239 23.9614 72.5239 24.1736C72.5239 24.7391 72.0349 25.0218 71.0567 25.0218C70.5795 25.0218 70.0272 24.9422 69.4 24.7834C68.7722 24.6242 68.2083 24.427 67.7075 24.1911V26.4182C68.1651 26.6114 68.6421 26.7551 69.1304 26.8466C69.6372 26.944 70.2497 26.9927 70.9687 26.9927C72.3704 26.9927 73.4236 26.7277 74.1275 26.1973ZM85.8618 26.8157H83.1663V21.045C83.1663 20.3323 83.0468 19.7975 82.8087 19.4411C82.5697 19.0847 82.1943 18.9063 81.6816 18.9063C80.9926 18.9063 80.4917 19.1596 80.1794 19.6664C79.867 20.1732 79.711 21.0066 79.711 22.1675V26.8157H77.0155V16.9357H79.0747L79.437 18.1995H79.5874C79.8524 17.7457 80.2356 17.3906 80.7361 17.1344C81.2369 16.8783 81.8114 16.75 82.4595 16.75C83.9383 16.75 84.9397 17.2334 85.4642 18.1995H85.7026C85.9679 17.7398 86.3583 17.3835 86.8738 17.1301C87.3893 16.8767 87.9709 16.75 88.619 16.75C89.7383 16.75 90.5856 17.0374 91.1597 17.6116C91.7342 18.186 92.0213 19.1066 92.0213 20.3732V26.8157H89.3171V21.045C89.3171 20.3323 89.1976 19.7975 88.9595 19.4411C88.7205 19.0847 88.3451 18.9063 87.8324 18.9063C87.1727 18.9063 86.6793 19.1422 86.352 19.6134C86.0253 20.0849 85.8618 20.8328 85.8618 21.8579V26.8157Z" fill="white"/>
<path fill-rule="evenodd" clip-rule="evenodd" d="M100.139 25.4723L100.66 26.8156H102.542V20.2317C102.542 19.0534 102.189 18.1756 101.482 17.5984C100.775 17.0211 99.7587 16.7321 98.4331 16.7321C97.0489 16.7321 95.7879 17.0298 94.6508 17.6249L95.5433 19.4454C96.6095 18.9679 97.5375 18.7295 98.327 18.7295C99.3521 18.7295 99.8648 19.2304 99.8648 20.2317V20.6649L98.1504 20.7179C96.6716 20.771 95.5657 21.0465 94.8318 21.5442C94.0985 22.0422 93.7318 22.8155 93.7318 23.864C93.7318 24.8656 94.0042 25.6373 94.5491 26.1794C95.0942 26.7214 95.8406 26.9923 96.7896 26.9923C97.5613 26.9923 98.1872 26.8818 98.6672 26.6609C99.1474 26.4399 99.6142 26.0439 100.068 25.4723H100.139ZM98.8219 22.2731L99.8648 22.2379V23.0508C99.8648 23.6462 99.6776 24.1233 99.3034 24.4825C98.9296 24.8419 98.43 25.0217 97.8056 25.0217C96.9337 25.0217 96.4978 24.6416 96.4978 23.8818C96.4978 23.3513 96.6891 22.9568 97.0723 22.6975C97.4552 22.4385 98.0384 22.2969 98.8219 22.2731ZM30.7115 31.7394L12.7753 37.0443C12.2274 37.2065 11.7022 36.7325 11.8174 36.1799L18.2249 5.49308C18.3448 4.91954 19.138 4.82842 19.3883 5.35984L31.2523 30.5533C31.4761 31.0286 31.2208 31.589 30.7115 31.7394ZM33.7874 30.4881L20.0504 1.31726V1.31663C19.8797 0.957424 19.615 0.651098 19.2844 0.43014C18.9537 0.209181 18.5694 0.0818253 18.1722 0.0615773C17.3362 0.0128979 16.5873 0.416064 16.1648 1.10226L1.26639 25.2329C1.04006 25.5974 0.922309 26.0189 0.926951 26.448C0.931593 26.877 1.05843 27.2958 1.2926 27.6554L8.57518 38.9365C9.00924 39.6099 9.76127 39.9997 10.543 39.9997C10.7645 39.9997 10.9873 39.9685 11.2064 39.9035L32.3457 33.6514C32.664 33.5581 32.9585 33.3977 33.2093 33.1808C33.4602 32.964 33.6616 32.6958 33.7999 32.3944C33.9364 32.0948 34.006 31.769 34.0039 31.4397C34.0017 31.1105 33.9278 30.7859 33.7874 30.4881Z" fill="white"/>
</g>
<defs>
<clipPath id="clip0_397_2624">
<rect width="101.833" height="40" fill="white" transform="translate(0.987793)"/>
</clipPath>
</defs>
</svg>
