<svg width="24" height="24" viewBox="0 0 24 24" fill="none" xmlns="http://www.w3.org/2000/svg">
<path d="M19.3826 12V11.7778C19.3826 11.2474 19.1765 10.7387 18.8096 10.3636C18.4427 9.98854 17.9451 9.77783 17.4261 9.77783C16.9072 9.77783 16.4096 9.98854 16.0427 10.3636C15.6758 10.7387 15.4697 11.2474 15.4697 11.7778V12H13.0871V14.6666H13.3045C13.8234 14.6666 14.3211 14.8774 14.6879 15.2524C15.0548 15.6275 15.2609 16.1362 15.2609 16.6666C15.2609 17.197 15.0548 17.7057 14.6879 18.0808C14.3211 18.4558 13.8234 18.6665 13.3045 18.6665H13.0871V21.3331H21.1304C21.361 21.3331 21.5822 21.2395 21.7453 21.0728C21.9084 20.9061 22 20.68 22 20.4443V12H19.3826Z" stroke="currentColor" stroke-width="1.2" stroke-linecap="round" stroke-linejoin="round"/>
<path d="M13.3041 14.6666H13.0867V12H10.9042V12.2222C10.9042 12.7526 10.698 13.2613 10.3311 13.6364C9.96421 14.0114 9.46657 14.2222 8.94768 14.2222C8.42879 14.2222 7.93115 14.0114 7.56424 13.6364C7.19733 13.2613 6.9912 12.7526 6.9912 12.2222V12H4.17387V14.6666H3.95648C3.43759 14.6666 2.93995 14.8774 2.57304 15.2524C2.20613 15.6275 2 16.1362 2 16.6666C2 17.197 2.20613 17.7057 2.57304 18.0808C2.93995 18.4558 3.43759 18.6665 3.95648 18.6665H4.17387V20.4443C4.17387 20.68 4.26548 20.9061 4.42855 21.0728C4.59163 21.2394 4.81279 21.3331 5.04341 21.3331H13.0867V18.6665H13.3041C13.823 18.6665 14.3206 18.4558 14.6876 18.0808C15.0545 17.7057 15.2606 17.197 15.2606 16.6666C15.2606 16.1362 15.0545 15.6275 14.6876 15.2524C14.3206 14.8774 13.823 14.6666 13.3041 14.6666Z" stroke="currentColor" stroke-width="1.2" stroke-linecap="round" stroke-linejoin="round"/>
<path d="M13.0866 9.33327H12.8692C12.3503 9.33327 11.8527 9.12257 11.4858 8.7475C11.1189 8.37243 10.9127 7.86374 10.9127 7.33332C10.9127 6.80289 11.1189 6.2942 11.4858 5.91913C11.8527 5.54407 12.3503 5.33336 12.8692 5.33336H13.0866V2.66675H5.0433C4.81268 2.66675 4.5915 2.7604 4.42843 2.92709C4.26537 3.09379 4.17375 3.31987 4.17375 3.55562V5.33336H4.39113C4.91003 5.33336 5.40766 5.54407 5.77458 5.91913C6.14149 6.2942 6.34762 6.80289 6.34762 7.33332C6.34762 7.86374 6.14149 8.37243 5.77458 8.7475C5.40766 9.12257 4.91003 9.33327 4.39113 9.33327H4.17375V11.9999H7.00847V12.2221C7.00847 12.7525 7.2146 13.2612 7.58151 13.6363C7.94843 14.0113 8.44606 14.2221 8.96496 14.2221C9.48384 14.2221 9.98149 14.0113 10.3484 13.6363C10.7153 13.2612 10.9214 12.7525 10.9214 12.2221V11.9999H13.104L13.0866 9.33327Z" stroke="currentColor" stroke-width="1.2" stroke-linecap="round" stroke-linejoin="round"/>
<path d="M19.3815 2.66675V2.88897C19.3815 3.41939 19.1754 3.92808 18.8085 4.30315C18.4416 4.67822 17.944 4.88892 17.425 4.88892C16.9061 4.88892 16.4085 4.67822 16.0416 4.30315C15.6747 3.92808 15.4685 3.41939 15.4685 2.88897V2.66675H13.086V5.33336H12.8686C12.3497 5.33336 11.8521 5.54407 11.4852 5.91913C11.1182 6.2942 10.9121 6.80289 10.9121 7.33332C10.9121 7.86374 11.1182 8.37243 11.4852 8.7475C11.8521 9.12257 12.3497 9.33327 12.8686 9.33327H13.086V11.9999H15.4773V11.7777C15.4773 11.2473 15.6834 10.7386 16.0503 10.3635C16.4172 9.98841 16.9148 9.77771 17.4338 9.77771C17.9526 9.77771 18.4503 9.98841 18.8172 10.3635C19.1841 10.7386 19.3902 11.2473 19.3902 11.7777V11.9999H21.9988V3.55562C21.9988 3.31987 21.9073 3.09379 21.7441 2.92709C21.5811 2.7604 21.3599 2.66675 21.1293 2.66675H19.3815Z" stroke="currentColor" stroke-width="1.2" stroke-linecap="round" stroke-linejoin="round"/>
</svg>
