<svg width="47" height="16" viewBox="0 0 47 16" fill="none" xmlns="http://www.w3.org/2000/svg">
<g clip-path="url(#clip0_1237_20545)">
<path d="M9.532 9.5308C10.3851 9.5308 11.0767 8.83922 11.0767 7.9861C11.0767 7.13299 10.3851 6.44141 9.532 6.44141C8.67889 6.44141 7.9873 7.13299 7.9873 7.9861C7.9873 8.83922 8.67889 9.5308 9.532 9.5308Z" fill="#00D8FF"/>
<path fill-rule="evenodd" clip-rule="evenodd" d="M9.53199 4.84521C11.606 4.84521 13.5326 5.14281 14.9853 5.64292C16.7356 6.2455 17.8118 7.15886 17.8118 7.98591C17.8118 8.84775 16.6712 9.81807 14.7917 10.4408C13.3707 10.9116 11.5007 11.1574 9.53199 11.1574C7.51351 11.1574 5.60212 10.9267 4.1651 10.4356C2.34701 9.81422 1.25195 8.83134 1.25195 7.98591C1.25195 7.16557 2.27945 6.25927 4.00514 5.65761C5.46325 5.14925 7.43749 4.84521 9.53171 4.84521H9.53199Z" stroke="#00D8FF" stroke-width="0.738987"/>
<path fill-rule="evenodd" clip-rule="evenodd" d="M6.79817 6.42449C7.83429 4.62789 9.05454 3.10754 10.2135 2.09895C11.6099 0.883749 12.9387 0.407841 13.6552 0.820965C14.4018 1.25152 14.6726 2.72429 14.2731 4.66357C13.9713 6.12978 13.2497 7.87238 12.2662 9.57783C11.2578 11.3264 10.1031 12.8669 8.95995 13.8662C7.51339 15.1307 6.11485 15.5883 5.38249 15.166C4.67183 14.7564 4.40007 13.4133 4.74099 11.6178C5.02904 10.1007 5.75192 8.23864 6.79783 6.42446L6.79817 6.42449Z" stroke="#00D8FF" stroke-width="0.738987"/>
<path fill-rule="evenodd" clip-rule="evenodd" d="M6.80034 9.5825C5.76129 7.78794 5.05387 5.97111 4.75858 4.46333C4.40313 2.64665 4.65444 1.25766 5.37021 0.843339C6.1161 0.411524 7.52728 0.912434 9.00788 2.22709C10.1273 3.22103 11.2768 4.71615 12.2632 6.42001C13.2745 8.16688 14.0325 9.93666 14.3273 11.4261C14.7004 13.3109 14.3984 14.751 13.6668 15.1746C12.9568 15.5856 11.6576 15.1505 10.2723 13.9584C9.10188 12.9512 7.84964 11.3949 6.80034 9.58247V9.5825Z" stroke="#00D8FF" stroke-width="0.738987"/>
<path fill-rule="evenodd" clip-rule="evenodd" d="M26.6782 11.9327L24.7848 9.07228C25.7417 8.98784 26.6039 8.29451 26.6039 7.02784C26.6039 5.73895 25.6893 4.91406 24.4062 4.91406H21.5884V11.9274H22.4613V9.14073H23.8599L25.6475 11.9274L26.6782 11.9327ZM24.3017 8.37851H22.4617V5.69717H24.3017C25.1328 5.69717 25.7004 6.24384 25.7004 7.03273C25.7004 7.82162 25.1324 8.3794 24.3017 8.3794V8.37851ZM29.9275 12.0585C30.7586 12.0585 31.4417 11.7852 31.9466 11.2807L31.5679 10.7652C31.1679 11.1754 30.5795 11.4065 30.0013 11.4065C28.9079 11.4065 28.2346 10.6074 28.1715 9.65095H32.2826V9.45095C32.2826 7.92651 31.3782 6.7274 29.8426 6.7274C28.3915 6.7274 27.3404 7.91584 27.3404 9.38784C27.3404 10.9758 28.4235 12.0545 29.927 12.0545L29.9275 12.0585ZM31.5053 9.07184H28.1719C28.2142 8.29406 28.7497 7.37851 29.8333 7.37851C30.9902 7.37851 31.4946 8.31451 31.5053 9.07184ZM37.5204 11.9323V8.44117C37.5204 7.21095 36.627 6.72695 35.5542 6.72695C34.723 6.72695 34.0715 7.00028 33.5248 7.56828L33.8928 8.11495C34.3448 7.6314 34.8395 7.41051 35.4493 7.41051C36.1853 7.41051 36.7324 7.7994 36.7324 8.48295V9.39762C36.3222 8.92428 35.7439 8.7034 35.0497 8.7034C34.1875 8.7034 33.2719 9.23984 33.2719 10.3754C33.2719 11.4794 34.1866 12.0581 35.0497 12.0581C35.7333 12.0581 36.3119 11.8163 36.7324 11.3536V11.9314L37.5204 11.9323ZM35.3337 11.4905C34.5977 11.4905 34.0822 11.0283 34.0822 10.3865C34.0822 9.73451 34.5977 9.27184 35.3337 9.27184C35.891 9.27184 36.427 9.48206 36.7324 9.90295V10.8598C36.4275 11.2803 35.891 11.4905 35.3337 11.4905ZM41.3337 12.0585C42.259 12.0585 42.8057 11.6798 43.195 11.1754L42.6693 10.6918C42.3328 11.1438 41.9017 11.3541 41.3804 11.3541C40.2973 11.3541 39.6248 10.5127 39.6248 9.38784C39.6248 8.26295 40.2977 7.43228 41.3804 7.43228C41.9062 7.43228 42.3373 7.63228 42.6693 8.09451L43.195 7.61095C42.8062 7.10606 42.259 6.72784 41.3337 6.72784C39.8195 6.72784 38.7995 7.88473 38.7995 9.38829C38.7995 10.9025 39.8195 12.055 41.3337 12.055V12.0585ZM45.5826 12.0585C46.0448 12.0585 46.3293 11.9216 46.5293 11.7327L46.2982 11.1438C46.1928 11.2594 45.987 11.3541 45.7617 11.3541C45.415 11.3541 45.2462 11.0807 45.2462 10.7021V7.5474H46.2773V6.85362H45.2462V5.46562H44.4573V6.85362H43.6159V7.54784H44.4573V10.871C44.4573 11.6283 44.8359 12.0594 45.5826 12.0594V12.0585Z" fill="#00D8FF"/>
</g>
<defs>
<clipPath id="clip0_1237_20545">
<rect width="46.2222" height="16" fill="white"/>
</clipPath>
</defs>
</svg>
