<svg width="76" height="16" viewBox="0 0 76 16" fill="none" xmlns="http://www.w3.org/2000/svg">
<g clip-path="url(#clip0_1237_20595)">
<path d="M18.184 8.07623C18.184 6.91343 16.7279 5.81145 14.4952 5.12807C15.0105 2.85253 14.7815 1.04211 13.7725 0.462487C13.5399 0.326525 13.268 0.262121 12.971 0.262121V1.06C13.1356 1.06 13.268 1.0922 13.3789 1.15302C13.8655 1.4321 14.0766 2.49474 13.912 3.86149C13.8727 4.19782 13.8083 4.55203 13.7296 4.91339C13.0283 4.74165 12.2626 4.60928 11.4576 4.52341C10.9746 3.86149 10.4737 3.2604 9.96917 2.73446C11.1356 1.65035 12.2304 1.05641 12.9746 1.05641V0.258545C11.9907 0.258545 10.7027 0.959816 9.40033 2.1763C8.09792 0.966968 6.80991 0.272858 5.82601 0.272858V1.07073C6.56662 1.07073 7.66501 1.66109 8.83141 2.73803C8.3305 3.26399 7.82958 3.86149 7.35371 4.52341C6.5451 4.60928 5.77944 4.74165 5.0782 4.91697C4.99587 4.55919 4.93507 4.21212 4.89211 3.87938C4.72401 2.51262 4.93147 1.44998 5.41454 1.16733C5.52183 1.10293 5.66136 1.07431 5.82601 1.07431V0.276434C5.52543 0.276434 5.25349 0.340838 5.01739 0.4768C4.01197 1.05641 3.78659 2.86326 4.30535 5.13165C2.07991 5.81861 0.630859 6.91703 0.630859 8.07623C0.630859 9.23911 2.08706 10.3411 4.31967 11.0244C3.80443 13.3 4.03341 15.1104 5.04244 15.69C5.27501 15.8259 5.54687 15.8904 5.84745 15.8904C6.83136 15.8904 8.11944 15.1891 9.42177 13.9726C10.7241 15.182 12.0122 15.8761 12.9961 15.8761C13.2966 15.8761 13.5685 15.8117 13.8047 15.6757C14.8101 15.0961 15.0355 13.2892 14.5167 11.0209C16.735 10.3375 18.184 9.23551 18.184 8.07623ZM13.5256 5.6898C13.3932 6.15138 13.2287 6.62717 13.0426 7.10304C12.8959 6.81686 12.7421 6.53061 12.5739 6.24435C12.4093 5.95814 12.234 5.67907 12.0587 5.40715C12.5667 5.48228 13.0569 5.57531 13.5256 5.6898ZM11.8869 9.50025C11.6078 9.98332 11.3217 10.4413 11.0247 10.8671C10.4915 10.9135 9.95132 10.9386 9.40745 10.9386C8.86717 10.9386 8.3269 10.9135 7.79742 10.8706C7.50044 10.4448 7.21058 9.99044 6.93152 9.51097C6.65958 9.0423 6.41277 8.56642 6.18731 8.08703C6.40917 7.60756 6.65958 7.12809 6.928 6.65941C7.20706 6.17642 7.49324 5.71842 7.79022 5.29265C8.32338 5.24614 8.86357 5.22109 9.40745 5.22109C9.94772 5.22109 10.488 5.24614 11.0175 5.28907C11.3145 5.71485 11.6043 6.16922 11.8834 6.64869C12.1553 7.11737 12.4021 7.59324 12.6276 8.07271C12.4021 8.5521 12.1553 9.03157 11.8869 9.50025ZM13.0426 9.03517C13.2304 9.50144 13.3952 9.97666 13.5364 10.4591C13.0676 10.5736 12.5739 10.6702 12.0623 10.7454C12.2376 10.4699 12.4128 10.1873 12.5775 9.89739C12.7421 9.61121 12.8959 9.32135 13.0426 9.03517ZM9.41457 12.8528C9.08183 12.5092 8.74908 12.1264 8.41994 11.7078C8.74196 11.7222 9.07111 11.7329 9.40385 11.7329C9.74019 11.7329 10.0729 11.7258 10.3986 11.7078C10.0914 12.1069 9.76296 12.4891 9.41457 12.8528ZM6.75263 10.7454C6.2446 10.6702 5.7544 10.5772 5.28573 10.4627C5.41806 10.0012 5.58271 9.52529 5.76872 9.04941C5.91545 9.33567 6.0693 9.62193 6.2374 9.90811C6.40557 10.1944 6.57734 10.4734 6.75263 10.7454ZM9.39673 3.29977C9.72947 3.64324 10.0622 4.02608 10.3914 4.44469C10.0693 4.43038 9.74019 4.41965 9.40745 4.41965C9.07111 4.41965 8.73836 4.4268 8.41282 4.44469C8.71992 4.0456 9.04837 3.6634 9.39673 3.29977ZM6.74903 5.40715C6.57374 5.68264 6.39845 5.9653 6.23387 6.25507C6.0693 6.54133 5.91545 6.82759 5.76872 7.11377C5.58089 6.6475 5.41612 6.17227 5.27501 5.6898C5.74368 5.57889 6.2374 5.48228 6.74903 5.40715ZM3.51105 9.88667C2.2445 9.3464 1.42515 8.63803 1.42515 8.07623C1.42515 7.51451 2.2445 6.80254 3.51105 6.26587C3.81875 6.13346 4.1551 6.01539 4.50216 5.90448C4.70609 6.60573 4.97443 7.33562 5.30717 8.08343C4.97803 8.82764 4.71321 9.55393 4.51288 10.2517C4.1587 10.1407 3.82235 10.0191 3.51105 9.88667ZM5.43598 14.9995C4.94939 14.7204 4.73825 13.6578 4.90291 12.291C4.94227 11.9547 5.00659 11.6005 5.08532 11.2391C5.78665 11.4109 6.5523 11.5433 7.35731 11.6291C7.8403 12.291 8.34122 12.8921 8.84573 13.418C7.67933 14.5022 6.58446 15.0961 5.84025 15.0961C5.67928 15.0925 5.54335 15.0603 5.43598 14.9995ZM13.9228 12.2732C14.0909 13.6399 13.8834 14.7025 13.4004 14.9852C13.2931 15.0496 13.1535 15.0782 12.9889 15.0782C12.2483 15.0782 11.1499 14.4879 9.98349 13.4109C10.4844 12.885 10.9853 12.2875 11.4612 11.6255C12.2698 11.5397 13.0355 11.4073 13.7367 11.232C13.819 11.5933 13.8834 11.9404 13.9228 12.2732ZM15.3002 9.88667C14.9925 10.0191 14.6562 10.1372 14.3091 10.2481C14.1052 9.54681 13.8369 8.81692 13.5041 8.06911C13.8333 7.3249 14.0981 6.59861 14.2984 5.90089C14.6527 6.01181 14.9889 6.13346 15.3038 6.26587C16.5704 6.80606 17.3897 7.51451 17.3897 8.07623C17.3861 8.63803 16.5668 9.35 15.3002 9.88667Z" fill="#00D8FF"/>
<path d="M9.40411 9.71114C10.3072 9.71114 11.0393 8.97909 11.0393 8.07599C11.0393 7.17297 10.3072 6.44092 9.40411 6.44092C8.50109 6.44092 7.76904 7.17297 7.76904 8.07599C7.76904 8.97909 8.50109 9.71114 9.40411 9.71114Z" fill="#00D8FF"/>
<path d="M71.2183 8.94687C71.2183 8.39548 71.3167 7.9163 71.5136 7.50933C71.7106 7.09579 71.9895 6.77743 72.3506 6.55425C72.7116 6.33107 73.1317 6.21948 73.6109 6.21948C74.0113 6.21948 74.3756 6.31138 74.7038 6.49518C75.0386 6.67241 75.311 6.95794 75.521 7.35179C75.7311 7.73907 75.8492 8.23138 75.8755 8.82871L75.8853 9.21271H72.1143C72.1536 9.73784 72.3013 10.1448 72.5573 10.4336C72.8199 10.7225 73.1711 10.8669 73.6109 10.8669C73.8931 10.8669 74.1491 10.7914 74.3789 10.6404C74.6086 10.4894 74.7826 10.2794 74.9007 10.0103L75.8066 10.0792C75.6556 10.5649 75.3766 10.9522 74.9696 11.241C74.5692 11.5298 74.1163 11.6743 73.6109 11.6743C73.1317 11.6743 72.7116 11.5627 72.3506 11.3395C71.9895 11.1163 71.7106 10.8012 71.5136 10.3943C71.3167 9.98071 71.2183 9.49825 71.2183 8.94687ZM74.9598 8.46441C74.8876 7.95897 74.7301 7.59466 74.4872 7.37148C74.2443 7.14174 73.9522 7.02687 73.6109 7.02687C73.2039 7.02687 72.8724 7.15159 72.6164 7.40102C72.367 7.65046 72.2062 8.00492 72.134 8.46441H74.9598Z" fill="#00D8FF"/>
<path d="M69.1502 11.5559H68.0868L66.1865 6.3374H67.0924L68.6185 10.6697L70.1447 6.3374H71.0505L69.1502 11.5559Z" fill="#00D8FF"/>
<path d="M65.4436 6.33749V11.556H64.5968V6.33749H65.4436ZM65.4633 4.56519V5.52026H64.5771V4.56519H65.4633Z" fill="#00D8FF"/>
<path d="M62.3051 5.15576V10.1576C62.3051 10.3742 62.3576 10.5383 62.4627 10.6499C62.5677 10.7549 62.7219 10.8075 62.9254 10.8075H63.6836V11.5558H62.9254C62.4528 11.5558 62.0885 11.4343 61.8325 11.1915C61.5831 10.9486 61.4584 10.604 61.4584 10.1576V5.15576H62.3051ZM63.7033 6.3373V7.08561H60.7002V6.3373H63.7033Z" fill="#00D8FF"/>
<path d="M55.7893 7.87364C55.8943 7.3682 56.1372 6.96779 56.5179 6.67241C56.8986 6.37046 57.368 6.21948 57.9259 6.21948C58.602 6.21948 59.1206 6.40984 59.4816 6.79056C59.8492 7.16471 60.033 7.70297 60.033 8.40533V10.4927C60.033 10.5977 60.0592 10.6765 60.1118 10.729C60.1643 10.7815 60.243 10.8078 60.3481 10.8078H60.5647V11.5561H60.2004H60.1511C59.9674 11.5495 59.8032 11.5233 59.6588 11.4773C59.521 11.4248 59.4094 11.3428 59.3241 11.2312C59.2387 11.113 59.1961 10.9555 59.1961 10.7586C59.0779 11.0146 58.8744 11.2312 58.5856 11.4084C58.3034 11.5856 57.9686 11.6743 57.5813 11.6743C57.043 11.6743 56.5934 11.5397 56.2324 11.2706C55.8779 11.0014 55.7007 10.6404 55.7007 10.1875C55.7007 9.84615 55.7795 9.57374 55.937 9.37025C56.0945 9.16676 56.3111 9.01251 56.5868 8.90748C56.8625 8.79589 57.2236 8.69743 57.6699 8.6121L59.1862 8.31671C59.1797 7.88348 59.0714 7.56184 58.8613 7.35179C58.6578 7.13518 58.346 7.02687 57.9259 7.02687C57.6043 7.02687 57.3351 7.10564 57.1185 7.26318C56.9085 7.42071 56.7641 7.64717 56.6853 7.94256L55.7893 7.87364ZM56.5868 10.1875C56.5868 10.4041 56.6787 10.5813 56.8625 10.7192C57.0529 10.857 57.3286 10.9259 57.6896 10.9259C57.9784 10.9259 58.2377 10.8603 58.4675 10.729C58.6972 10.5912 58.8777 10.3877 59.009 10.1186C59.1403 9.84287 59.2059 9.5081 59.2059 9.11425V9.06502L57.985 9.28164L57.7881 9.31117C57.4992 9.36369 57.2761 9.41292 57.1185 9.45887C56.961 9.50482 56.833 9.58687 56.7345 9.70502C56.6361 9.81661 56.5868 9.97743 56.5868 10.1875Z" fill="#00D8FF"/>
<path d="M50.377 4.56519L53.7739 10.532V4.56519H54.6404V11.556H53.3801L50.0422 5.69749V11.556H49.1758V4.56519H50.377Z" fill="#00D8FF"/>
<path d="M44.5668 5.15576V10.1576C44.5668 10.3742 44.6194 10.5383 44.7244 10.6499C44.8294 10.7549 44.9837 10.8075 45.1871 10.8075H45.9453V11.5558H45.1871C44.7145 11.5558 44.3502 11.4343 44.0942 11.1915C43.8448 10.9486 43.7201 10.604 43.7201 10.1576V5.15576H44.5668ZM45.965 6.3373V7.08561H42.9619V6.3373H45.965Z" fill="#00D8FF"/>
<path d="M41.6839 8.09025C41.6314 7.76205 41.4837 7.50276 41.2408 7.31241C40.998 7.12205 40.7157 7.02687 40.3941 7.02687C39.9149 7.02687 39.544 7.19753 39.2815 7.53887C39.0189 7.87364 38.8876 8.34297 38.8876 8.94687C38.8876 9.55077 39.0189 10.0234 39.2815 10.3647C39.544 10.6995 39.9149 10.8669 40.3941 10.8669C40.7289 10.8669 41.0177 10.7651 41.2605 10.5616C41.51 10.3516 41.6642 10.066 41.7233 9.70502L42.6193 9.7641C42.5668 10.1514 42.4322 10.4894 42.2156 10.7783C42.0056 11.0671 41.7397 11.2903 41.4181 11.4478C41.103 11.5988 40.7617 11.6743 40.3941 11.6743C39.9149 11.6743 39.4948 11.5627 39.1338 11.3395C38.7727 11.1163 38.4938 10.8012 38.2968 10.3943C38.0999 9.98071 38.0015 9.49825 38.0015 8.94687C38.0015 8.39548 38.0999 7.9163 38.2968 7.50933C38.4938 7.09579 38.7727 6.77743 39.1338 6.55425C39.4948 6.33107 39.9149 6.21948 40.3941 6.21948C40.7485 6.21948 41.0833 6.29497 41.3984 6.44594C41.72 6.59035 41.9826 6.80041 42.1861 7.0761C42.3961 7.35179 42.5241 7.67015 42.5701 8.03118L41.6839 8.09025Z" fill="#00D8FF"/>
<path d="M32.7756 7.87364C32.8807 7.3682 33.1235 6.96779 33.5042 6.67241C33.885 6.37046 34.3543 6.21948 34.9122 6.21948C35.5883 6.21948 36.1069 6.40984 36.4679 6.79056C36.8355 7.16471 37.0193 7.70297 37.0193 8.40533V10.4927C37.0193 10.5977 37.0456 10.6765 37.0981 10.729C37.1506 10.7815 37.2294 10.8078 37.3344 10.8078H37.551V11.5561H37.1867H37.1375C36.9537 11.5495 36.7896 11.5233 36.6452 11.4773C36.5073 11.4248 36.3957 11.3428 36.3104 11.2312C36.2251 11.113 36.1824 10.9555 36.1824 10.7586C36.0642 11.0146 35.8608 11.2312 35.5719 11.4084C35.2897 11.5856 34.9549 11.6743 34.5676 11.6743C34.0294 11.6743 33.5797 11.5397 33.2187 11.2706C32.8642 11.0014 32.687 10.6404 32.687 10.1875C32.687 9.84615 32.7658 9.57374 32.9233 9.37025C33.0809 9.16676 33.2975 9.01251 33.5732 8.90748C33.8489 8.79589 34.2099 8.69743 34.6562 8.6121L36.1726 8.31671C36.166 7.88348 36.0577 7.56184 35.8476 7.35179C35.6441 7.13518 35.3323 7.02687 34.9122 7.02687C34.5906 7.02687 34.3215 7.10564 34.1049 7.26318C33.8948 7.42071 33.7504 7.64717 33.6716 7.94256L32.7756 7.87364ZM33.5732 10.1875C33.5732 10.4041 33.6651 10.5813 33.8489 10.7192C34.0392 10.857 34.3149 10.9259 34.6759 10.9259C34.9648 10.9259 35.224 10.8603 35.4538 10.729C35.6835 10.5912 35.864 10.3877 35.9953 10.1186C36.1266 9.84287 36.1922 9.5081 36.1922 9.11425V9.06502L34.9713 9.28164L34.7744 9.31117C34.4856 9.36369 34.2624 9.41292 34.1049 9.45887C33.9473 9.50482 33.8193 9.58687 33.7209 9.70502C33.6224 9.81661 33.5732 9.97743 33.5732 10.1875Z" fill="#00D8FF"/>
<path d="M27.3057 8.94687C27.3057 8.39548 27.4041 7.9163 27.601 7.50933C27.798 7.09579 28.0769 6.77743 28.438 6.55425C28.799 6.33107 29.2191 6.21948 29.6983 6.21948C30.0987 6.21948 30.463 6.31138 30.7912 6.49518C31.126 6.67241 31.3984 6.95794 31.6084 7.35179C31.8185 7.73907 31.9366 8.23138 31.9629 8.82871L31.9727 9.21271H28.2017C28.241 9.73784 28.3887 10.1448 28.6447 10.4336C28.9073 10.7225 29.2585 10.8669 29.6983 10.8669C29.9805 10.8669 30.2365 10.7914 30.4663 10.6404C30.696 10.4894 30.87 10.2794 30.9881 10.0103L31.894 10.0792C31.743 10.5649 31.464 10.9522 31.057 11.241C30.6566 11.5298 30.2037 11.6743 29.6983 11.6743C29.2191 11.6743 28.799 11.5627 28.438 11.3395C28.0769 11.1163 27.798 10.8012 27.601 10.3943C27.4041 9.98071 27.3057 9.49825 27.3057 8.94687ZM31.0472 8.46441C30.975 7.95897 30.8175 7.59466 30.5746 7.37148C30.3317 7.14174 30.0396 7.02687 29.6983 7.02687C29.2913 7.02687 28.9598 7.15159 28.7038 7.40102C28.4544 7.65046 28.2936 8.00492 28.2214 8.46441H31.0472Z" fill="#00D8FF"/>
<path d="M24.1887 4.56519C24.6745 4.56519 25.0946 4.65052 25.449 4.82119C25.8101 4.99185 26.0858 5.23801 26.2761 5.55965C26.473 5.88129 26.5715 6.25544 26.5715 6.68211C26.5715 6.98406 26.4993 7.25975 26.3549 7.50919C26.217 7.75862 26.0332 7.95883 25.8035 8.1098C25.5803 8.25421 25.3506 8.33298 25.1143 8.34611L24.809 8.25749C25.367 8.25749 25.7674 8.34939 26.0103 8.53319C26.2531 8.71698 26.3976 9.03862 26.4435 9.49811L26.6404 11.556H25.7641L25.5869 9.58672C25.5606 9.27821 25.4326 9.0616 25.2029 8.93688C24.9797 8.81216 24.6121 8.7498 24.1001 8.7498H22.3967V11.556H21.5303V4.56519H24.1887ZM24.1887 7.90303C24.6614 7.90303 25.0257 7.79801 25.2817 7.58795C25.5377 7.37134 25.6657 7.06283 25.6657 6.66242C25.6657 6.26201 25.5377 5.95349 25.2817 5.73688C25.0257 5.52026 24.6614 5.41196 24.1887 5.41196H22.3967V7.90303H24.1887Z" fill="#00D8FF"/>
</g>
<defs>
<clipPath id="clip0_1237_20595">
<rect width="75.5556" height="16" fill="white"/>
</clipPath>
</defs>
</svg>
