<svg width="24" height="25" viewBox="0 0 24 25" fill="none" xmlns="http://www.w3.org/2000/svg">
<g clip-path="url(#clip0_1237_20386)">
<path d="M20.4953 16.3643H10.0013C9.52624 16.3641 9.07073 16.1754 8.73478 15.8396C8.39882 15.5037 8.2099 15.0483 8.2095 14.5733C8.2097 14.0982 8.39854 13.6425 8.73451 13.3066C9.07049 12.9706 9.52611 12.7817 10.0013 12.7815H15.7313C16.5353 12.7804 17.306 12.4604 17.8746 11.8919C18.4431 11.3233 18.7631 10.5526 18.7642 9.74855C18.7631 8.94451 18.4431 8.17375 17.8746 7.60521C17.306 7.03667 16.5353 6.71674 15.7313 6.71555H5.36475C5.20354 6.19872 4.86253 5.75672 4.40352 5.46965C3.94451 5.18258 3.39785 5.06941 2.86259 5.15065C2.32733 5.2319 1.83888 5.50218 1.48573 5.91253C1.13258 6.32288 0.938088 6.84616 0.9375 7.38755C0.938063 7.93809 1.13913 8.46959 1.5031 8.88265C1.86708 9.29572 2.36904 9.56208 2.91514 9.63193C3.46124 9.70177 4.01408 9.57033 4.4703 9.26217C4.92652 8.95401 5.25489 8.49023 5.394 7.95755H15.7327C16.2078 7.95794 16.6632 8.14687 16.999 8.48282C17.3348 8.81878 17.5236 9.27429 17.5238 9.7493C17.5236 10.2243 17.3348 10.6798 16.999 11.0158C16.6632 11.3517 16.2078 11.5406 15.7327 11.541H10.0028C9.19871 11.5422 8.42795 11.8622 7.85941 12.4307C7.29087 12.9992 6.97094 13.77 6.96975 14.574C6.97094 15.3781 7.29087 16.1488 7.85941 16.7174C8.42795 17.2859 9.19871 17.6059 10.0028 17.607H20.5028C20.6526 18.1325 20.9874 18.586 21.4453 18.884C21.9032 19.182 22.4535 19.3045 22.9946 19.2288C23.5357 19.1532 24.0312 18.8845 24.3898 18.4722C24.7484 18.06 24.9458 17.532 24.9458 16.9857C24.9458 16.4393 24.7484 15.9113 24.3898 15.4991C24.0312 15.0869 23.5357 14.8182 22.9946 14.7425C22.4535 14.6668 21.9032 14.7893 21.4453 15.0873C20.9874 15.3854 20.6526 15.8389 20.5028 16.3643H20.4953Z" fill="#DBFE01"/>
</g>
<defs>
<clipPath id="clip0_1237_20386">
<rect width="24" height="24" fill="white" transform="translate(0 0.5)"/>
</clipPath>
</defs>
</svg>
