<svg width="24" height="25" viewBox="0 0 24 25" fill="none" xmlns="http://www.w3.org/2000/svg">
<path d="M14.7201 15.3474C16.2941 15.3474 17.5701 14.0715 17.5701 12.4974C17.5701 10.9235 16.2941 9.64746 14.7201 9.64746C13.1461 9.64746 11.8701 10.9235 11.8701 12.4974C11.8701 14.0715 13.1461 15.3474 14.7201 15.3474Z" stroke="#DBFE01" stroke-width="1.2" stroke-linecap="round" stroke-linejoin="round"/>
<path d="M2.9627 12.8531C2.76594 12.8531 2.60645 12.6937 2.60645 12.4969C2.60645 12.3001 2.76594 12.1406 2.9627 12.1406" stroke="#DBFE01" stroke-width="1.2"/>
<path d="M2.96289 12.8531C3.15965 12.8531 3.31914 12.6937 3.31914 12.4969C3.31914 12.3001 3.15965 12.1406 2.96289 12.1406" stroke="#DBFE01" stroke-width="1.2"/>
<path d="M7.59492 13.9223C8.38192 13.9223 9.01992 13.2843 9.01992 12.4973C9.01992 11.7103 8.38192 11.0723 7.59492 11.0723C6.80791 11.0723 6.16992 11.7103 6.16992 12.4973C6.16992 13.2843 6.80791 13.9223 7.59492 13.9223Z" stroke="#DBFE01" stroke-width="1.2" stroke-linecap="round" stroke-linejoin="round"/>
<path d="M21.8449 13.9223C22.6319 13.9223 23.2699 13.2843 23.2699 12.4973C23.2699 11.7103 22.6319 11.0723 21.8449 11.0723C21.0578 11.0723 20.4199 11.7103 20.4199 12.4973C20.4199 13.2843 21.0578 13.9223 21.8449 13.9223Z" stroke="#DBFE01" stroke-width="1.2" stroke-linecap="round" stroke-linejoin="round"/>
</svg>
