<svg width="24" height="25" viewBox="0 0 24 25" fill="none" xmlns="http://www.w3.org/2000/svg">
<path d="M20.7322 16.2949L7.78249 3.15234C6.84373 3.39319 5.92726 3.71375 5.04304 4.11053C4.81141 4.21645 4.61534 4.38708 4.47845 4.60187C4.34157 4.81666 4.2697 5.06645 4.27152 5.32114V6.42243L17.9456 20.0921C19.1475 19.0514 20.0999 17.7536 20.7322 16.2949Z" stroke="#DBFE01" stroke-width="1.2" stroke-linecap="round" stroke-linejoin="round"/>
<path d="M4.27151 5.32116V12.0889C4.27153 14.228 4.91977 16.317 6.13078 18.0803C7.34179 19.8437 9.05871 21.1987 11.0552 21.9667L11.9805 22.3222C12.5967 22.5593 13.2789 22.5593 13.8951 22.3222L14.8204 21.9667C16.8169 21.1987 18.5339 19.8437 19.7449 18.0803C20.9559 16.317 21.6041 14.228 21.6041 12.0889V5.32116C21.6058 5.06649 21.5339 4.81675 21.3971 4.60198C21.2602 4.38721 21.0642 4.21655 20.8326 4.11054C18.3437 3.02418 15.6534 2.47564 12.9378 2.50083C10.2223 2.47564 7.53197 3.02418 5.04304 4.11054C4.81147 4.21655 4.61547 4.38721 4.47859 4.60198C4.34172 4.81675 4.26981 5.06649 4.27151 5.32116Z" stroke="#DBFE01" stroke-width="1.2" stroke-linecap="round" stroke-linejoin="round"/>
</svg>
