<svg xmlns="http://www.w3.org/2000/svg" width="24" height="25" viewBox="0 0 24 25" fill="none">
  <path d="M12 3.86806V2.95898" stroke="#E535AB" stroke-linecap="round" stroke-linejoin="round"/>
  <path d="M12 22.9584V20.4438" stroke="#E535AB" stroke-linecap="round" stroke-linejoin="round"/>
  <path d="M2 12.9585H4.47154" stroke="#E535AB" stroke-linecap="round" stroke-linejoin="round"/>
  <path d="M19.5284 12.9585H22" stroke="#E535AB" stroke-linecap="round" stroke-linejoin="round"/>
  <path d="M6.60229 19.5273L4.76927 21.3604" stroke="#E535AB" stroke-linecap="round" stroke-linejoin="round"/>
  <path d="M17.3978 6.63135L19.2308 4.79834" stroke="#E535AB" stroke-linecap="round" stroke-linejoin="round"/>
  <path d="M6.60229 6.63135L4.76927 4.79834" stroke="#E535AB" stroke-linecap="round" stroke-linejoin="round"/>
  <path d="M17.3978 19.2861L19.2308 21.1192" stroke="#E535AB" stroke-linecap="round" stroke-linejoin="round"/>
  <path d="M12.3787 6.31922L14.1197 9.80024L17.4685 10.1355C17.5484 10.1433 17.6244 10.1737 17.6878 10.223C17.7511 10.2724 17.7991 10.3387 17.8262 10.4143C17.8532 10.4899 17.8582 10.5716 17.8406 10.6499C17.8231 10.7283 17.7835 10.8 17.7268 10.8567L14.9669 13.6156L15.9902 17.3645C16.0116 17.4435 16.0096 17.5269 15.9847 17.6048C15.9597 17.6827 15.9128 17.7517 15.8496 17.8036C15.7864 17.8555 15.7095 17.888 15.6282 17.8972C15.5469 17.9064 15.4647 17.8919 15.3915 17.8556L11.9997 16.1592L8.60799 17.8573C8.53479 17.8938 8.45258 17.9084 8.37127 17.8993C8.28997 17.8901 8.21306 17.8576 8.14984 17.8056C8.08661 17.7537 8.03978 17.6846 8.01499 17.6067C7.9902 17.5287 7.98853 17.4452 8.01017 17.3663L9.03251 13.6156L6.27271 10.855C6.21594 10.7982 6.17646 10.7265 6.15887 10.6482C6.14128 10.5699 6.14631 10.4881 6.17337 10.4126C6.20042 10.337 6.2484 10.2707 6.3117 10.2213C6.37501 10.1719 6.45104 10.1416 6.53093 10.1337L9.87978 9.7985L11.6207 6.31746C11.6561 6.24714 11.7103 6.18803 11.7774 6.14679C11.8444 6.10556 11.9215 6.0838 12.0003 6.08399C12.079 6.08417 12.1561 6.10628 12.2229 6.14782C12.2898 6.18937 12.3437 6.24872 12.3787 6.31922Z" stroke="#E535AB" stroke-linecap="round" stroke-linejoin="round"/>
</svg>
