<svg width="17" height="17" viewBox="0 0 17 17" fill="none" xmlns="http://www.w3.org/2000/svg">
<path d="M9.26193 2.21429L11.1515 5.99244L14.7862 6.35629C14.8729 6.36479 14.9554 6.39774 15.0241 6.45132C15.0928 6.5049 15.1449 6.57689 15.1743 6.65892C15.2036 6.74095 15.2091 6.82964 15.19 6.91465C15.1709 6.99966 15.1281 7.0775 15.0664 7.13909L12.0711 10.1335L13.1816 14.2023C13.2048 14.288 13.2028 14.3786 13.1757 14.4632C13.1486 14.5477 13.0977 14.6226 13.0291 14.6789C12.9604 14.7352 12.877 14.7705 12.7888 14.7805C12.7006 14.7905 12.6113 14.7748 12.5318 14.7353L8.85058 12.8942L5.16933 14.7372C5.08989 14.7769 5.00065 14.7927 4.91241 14.7827C4.82417 14.7728 4.7407 14.7375 4.67207 14.6811C4.60345 14.6248 4.55262 14.5497 4.52572 14.4651C4.49882 14.3805 4.497 14.2899 4.52048 14.2042L5.63008 10.1335L2.63473 7.13719C2.57311 7.0756 2.53026 6.99776 2.51117 6.91275C2.49208 6.82774 2.49754 6.73905 2.52691 6.65702C2.55627 6.57499 2.60834 6.503 2.67705 6.44942C2.74576 6.39584 2.82827 6.36289 2.91498 6.35439L6.54968 5.99054L8.43923 2.21239C8.47758 2.13606 8.53643 2.07191 8.60919 2.02715C8.68195 1.98239 8.76575 1.95879 8.85117 1.95899C8.9366 1.95918 9.02028 1.98317 9.09283 2.02827C9.16539 2.07336 9.22394 2.13778 9.26193 2.21429Z" stroke="currentColor" stroke-width="1.2" stroke-linecap="round" stroke-linejoin="round"/>
</svg>
