<svg width="20" height="20" viewBox="0 0 20 20" fill="none" xmlns="http://www.w3.org/2000/svg">
<g id="Logo Icon">
<g id="Group 22750">
<path id="Vector" fill-rule="evenodd" clip-rule="evenodd" d="M17.1036 15.1591L17.1159 15.1517C17.3945 14.9844 17.5983 14.7159 17.6852 14.4017C17.772 14.0876 17.7353 13.7519 17.5826 13.4642L16.1298 10.6963L5.19043 16.4898L9.10357 18.7591C9.376 18.917 9.68502 19.0002 9.99957 19.0002C10.3141 19.0002 10.6231 18.917 10.8956 18.7591L17.1036 15.1591Z" fill="currentColor"/>
<path id="Vector_2" fill-rule="evenodd" clip-rule="evenodd" d="M3.96983 12.1733L12.747 2.3142L10.896 1.24108C10.6236 1.08315 10.3145 1 9.99999 1C9.68544 1 9.37643 1.08315 9.10399 1.24108L2.896 4.84108C2.62357 4.99908 2.39734 5.22632 2.24006 5.49997C2.08278 5.77362 1.99999 6.08403 2 6.40001V7.75001C2.00001 8.58496 2.17547 9.41049 2.51491 10.1726C2.85435 10.9348 3.35013 11.6164 3.96983 12.1729V12.1733Z" fill="currentColor"/>
<path id="Vector_3" fill-rule="evenodd" clip-rule="evenodd" d="M17.1042 4.84092L16.8948 4.71924L11.8868 9.3446L16.0871 13.0006C16.749 13.5769 16.9945 14.4172 16.7385 15.3723L17.1042 15.1606C17.377 15.0024 17.6034 14.7748 17.7607 14.5007C17.918 14.2267 18.0006 13.9158 18.0002 13.5994V6.39985C18.0002 6.08387 17.9174 5.77345 17.7601 5.4998C17.6029 5.22615 17.3766 4.99891 17.1042 4.84092Z" fill="currentColor"/>
<path id="Vector_4" fill-rule="evenodd" clip-rule="evenodd" d="M9.78514 11.3186L3.99817 6.83426C3.34583 6.3264 3.05143 5.56645 3.18537 4.67334L2.896 4.84094C2.62357 4.99893 2.39734 5.22617 2.24006 5.49982C2.08278 5.77347 1.99999 6.08389 2 6.39987V13.5999C1.99959 13.9162 2.08219 14.2271 2.23949 14.5012C2.39679 14.7753 2.62323 15.0029 2.896 15.1611L4.5536 16.1222L9.78514 11.3186Z" fill="currentColor"/>
</g>
</g>
</svg>
