<svg width="130" height="40" viewBox="0 0 130 40" fill="none" xmlns="http://www.w3.org/2000/svg">
<g clip-path="url(#clip0_397_2656)">
<path fill-rule="evenodd" clip-rule="evenodd" d="M33.8917 31.4647L33.9191 31.4484C34.5381 31.0765 34.9911 30.4797 35.1841 29.7817C35.3772 29.0836 35.2957 28.3377 34.9563 27.6984L31.7279 21.5474L7.41809 34.4218L16.114 39.4647C16.7194 39.8157 17.4061 40.0004 18.1051 40.0004C18.8041 40.0004 19.4908 39.8157 20.0962 39.4647L33.8917 31.4647Z" fill="#4568A5"/>
<path fill-rule="evenodd" clip-rule="evenodd" d="M4.70454 24.8296L24.2093 2.92043L20.096 0.535741C19.4906 0.184767 18.8039 0 18.1049 0C17.4059 0 16.7192 0.184767 16.1138 0.535741L2.31826 8.53574C1.71286 8.88683 1.21013 9.39181 0.860618 9.99992C0.511104 10.608 0.327116 11.2978 0.327148 12V15C0.327161 16.8555 0.717073 18.69 1.47139 20.3837C2.22571 22.0773 3.32744 23.592 4.70454 24.8286V24.8296Z" fill="#4568A5"/>
<path fill-rule="evenodd" clip-rule="evenodd" d="M33.8918 8.53603L33.4265 8.26562L22.2976 18.5442L31.6314 26.6687C33.1024 27.9493 33.6479 29.8166 33.0791 31.9391L33.8918 31.4687C34.4979 31.1172 35.0011 30.6114 35.3507 30.0023C35.7002 29.3932 35.8838 28.7023 35.8829 27.9993V12.0003C35.8829 11.2981 35.6989 10.6083 35.3494 10.0002C34.9999 9.3921 34.4972 8.88712 33.8918 8.53603Z" fill="#608BD8"/>
<path fill-rule="evenodd" clip-rule="evenodd" d="M17.6274 22.9309L4.76753 12.9656C3.31788 11.837 2.66366 10.1483 2.96131 8.16357L2.31826 8.53602C1.71286 8.88711 1.21014 9.39209 0.860622 10.0002C0.511108 10.6083 0.32712 11.2981 0.327152 12.0003V28.0003C0.326227 28.7034 0.509792 29.3942 0.859351 30.0033C1.20891 30.6124 1.71211 31.1182 2.31826 31.4697L6.00181 33.6054L17.6274 22.9309Z" fill="#608BD8"/>
<path d="M54.1316 29.0712C50.3427 29.0712 48.0205 26.7245 47.8738 23.5223H50.7094C50.8805 25.2823 52.0538 26.5045 54.1561 26.5045C56.2094 26.5045 57.2116 25.5023 57.2116 24.2556C57.2116 20.4667 48.2649 22.2512 48.2649 16.1645C48.2649 13.4512 50.3672 11.3734 53.9361 11.3734C57.4316 11.3734 59.6561 13.7445 59.8027 16.7756H56.9672C56.8694 15.1134 55.7449 13.9401 53.9361 13.9401C52.1027 13.9401 51.1005 14.9178 51.1005 16.2134C51.1005 19.9289 60.0472 18.0223 60.0472 24.1823C60.0472 26.9689 57.9449 29.0712 54.1316 29.0712ZM67.0977 29.0712C64.8488 29.0712 63.211 27.4823 63.211 24.7689V18.8289H61.1821V16.5556H62.0621C63.0399 16.5556 63.5532 16.0423 63.5532 15.0889V13.2312H65.8755V16.4089H68.5643V18.8289H65.8755V24.5489C65.8755 25.9178 66.6088 26.5534 67.7088 26.5534C68.0266 26.5534 68.3199 26.5045 68.5643 26.3823V28.8267C68.2466 28.9489 67.7577 29.0712 67.0977 29.0712ZM82.0283 22.3245C82.0283 22.9112 81.9549 23.3756 81.8816 23.6445H72.7149C73.0572 25.5267 74.3772 26.6512 76.1372 26.6512C77.5305 26.6512 78.3616 25.9912 78.8016 25.3556H81.5883C80.9038 27.1401 78.8749 29.0712 76.1616 29.0712C72.7394 29.0712 70.026 26.2601 70.026 22.5934C70.026 18.9756 72.8127 16.1156 76.1372 16.1156C79.4372 16.1156 82.0283 18.8045 82.0283 22.3245ZM76.1372 18.5356C74.4505 18.5356 73.0572 19.7334 72.7149 21.6156H79.4127C79.1194 19.7823 77.7994 18.5356 76.1372 18.5356ZM87.2244 28.7778H84.5355V11.6667H87.2244V28.7778ZM93.2639 28.7778H90.575V11.6667H93.2639V28.7778ZM101.137 16.1156C104.168 16.1156 106.075 18.1445 106.075 21.1512V28.7778H104.07L103.581 27.3845H103.459C102.97 28.0201 101.821 29.0712 99.8412 29.0712C97.4212 29.0712 95.6856 27.4089 95.6856 25.3801C95.6856 22.9112 98.0323 21.3467 101.43 21.3467H103.41V20.9312C103.41 19.4401 102.506 18.5356 101.112 18.5356C99.7679 18.5356 99.0834 19.3667 98.9368 20.1734H96.2479C96.4679 18.0956 98.1545 16.1156 101.137 16.1156ZM100.403 26.7978C102.237 26.7978 103.41 25.5267 103.41 24.0601V23.2778H101.455C99.3523 23.2778 98.3745 24.0356 98.3745 25.1601C98.3745 26.1134 99.059 26.7978 100.403 26.7978ZM113.552 29.0712C111.303 29.0712 109.665 27.4823 109.665 24.7689V18.8289H107.636V16.5556H108.516C109.494 16.5556 110.007 16.0423 110.007 15.0889V13.2312H112.329V16.4089H115.018V18.8289H112.329V24.5489C112.329 25.9178 113.063 26.5534 114.163 26.5534C114.481 26.5534 114.774 26.5045 115.018 26.3823V28.8267C114.701 28.9489 114.212 29.0712 113.552 29.0712ZM128.482 22.3245C128.482 22.9112 128.409 23.3756 128.336 23.6445H119.169C119.511 25.5267 120.831 26.6512 122.591 26.6512C123.984 26.6512 124.816 25.9912 125.256 25.3556H128.042C127.358 27.1401 125.329 29.0712 122.616 29.0712C119.193 29.0712 116.48 26.2601 116.48 22.5934C116.48 18.9756 119.267 16.1156 122.591 16.1156C125.891 16.1156 128.482 18.8045 128.482 22.3245ZM122.591 18.5356C120.904 18.5356 119.511 19.7334 119.169 21.6156H125.867C125.573 19.7823 124.253 18.5356 122.591 18.5356Z" fill="white"/>
</g>
<defs>
<clipPath id="clip0_397_2656">
<rect width="128.889" height="40" fill="white" transform="translate(0.327148)"/>
</clipPath>
</defs>
</svg>
