<svg width="53" height="16" viewBox="0 0 53 16" fill="none" xmlns="http://www.w3.org/2000/svg">
<g clip-path="url(#clip0_1237_20616)">
<path d="M17.3045 4.43167C17.3035 4.27075 17.3018 4.10992 17.2973 3.94882C17.2879 3.59838 17.2672 3.24477 17.2049 2.89808C17.1417 2.546 17.0384 2.21862 16.8756 1.89879C16.7158 1.5847 16.5068 1.29727 16.2576 1.04802C16.0084 0.798773 15.721 0.589853 15.4067 0.429936C15.0872 0.267299 14.7597 0.164011 14.408 0.10081C14.0611 0.0383357 13.7075 0.0177535 13.3568 0.0082706C13.1958 0.00390631 13.0349 0.00207438 12.8739 0.0010776C12.6829 0 12.4917 0 12.3007 0H8.06526H6.31063C6.11943 0 5.92845 0 5.73745 0.00110454C5.57643 0.00210132 5.41538 0.00393325 5.2546 0.00829754C5.16694 0.0106683 5.07909 0.0137394 4.99118 0.017969C4.72749 0.0306847 4.4634 0.0539879 4.20337 0.100837C3.93955 0.148251 3.68938 0.218188 3.44601 0.318809C3.36489 0.352322 3.2845 0.389284 3.2046 0.429936C2.96893 0.549874 2.74829 0.69737 2.54761 0.868763C2.48072 0.925903 2.41604 0.985683 2.35375 1.048C2.10445 1.29724 1.8955 1.58467 1.73566 1.89876C1.57284 2.2186 1.46966 2.54597 1.4064 2.89805C1.34417 3.24474 1.32348 3.59836 1.31405 3.94879C1.30963 4.1099 1.30778 4.27073 1.30672 4.43164C1.30551 4.62275 1.30567 4.81389 1.30567 5.00495V7.61326V10.9949C1.30567 11.1862 1.30549 11.3771 1.30672 11.5684C1.30778 11.7293 1.30963 11.8901 1.31405 12.0509C1.32348 12.4016 1.34414 12.7553 1.4064 13.1018C1.46966 13.4538 1.57284 13.7814 1.73566 14.1012C1.8955 14.4154 2.10445 14.7027 2.35375 14.9518C2.60287 15.2012 2.89037 15.4101 3.20463 15.5701C3.52422 15.7328 3.85162 15.8359 4.20346 15.8991C4.55012 15.9615 4.904 15.9823 5.25463 15.9916C5.41541 15.9959 5.57646 15.9978 5.73748 15.9988C5.92848 16.0001 6.11946 15.9999 6.31065 15.9999H12.3007C12.4917 15.9999 12.6829 16.0001 12.8739 15.9988C13.0349 15.9978 13.1957 15.9959 13.3567 15.9916C13.7075 15.9823 14.0611 15.9615 14.4079 15.8991C14.7597 15.8359 15.0871 15.7328 15.4067 15.5701C15.7209 15.4101 16.0083 15.2012 16.2575 14.9518C16.5068 14.7027 16.7158 14.4154 16.8756 14.1012C17.0384 13.7814 17.1417 13.4538 17.2049 13.1018C17.2672 12.7553 17.2879 12.4016 17.2973 12.0509C17.3017 11.8901 17.3035 11.7293 17.3045 11.5684C17.3057 11.3771 17.3056 11.1862 17.3056 10.9949V5.00495C17.3056 4.81389 17.3057 4.62275 17.3045 4.43167Z" fill="#F05138"/>
<path d="M13.9842 9.87659C13.9839 9.87611 13.9835 9.87576 13.9831 9.8753C14.0008 9.81506 14.0191 9.7552 14.0346 9.69345C14.6986 7.0477 13.0779 3.91969 10.3353 2.27271C11.5371 3.90201 12.0686 5.87548 11.5964 7.60132C11.5543 7.75525 11.5037 7.90299 11.4477 8.04658C11.387 8.00668 11.3105 7.9614 11.2077 7.90474C11.2077 7.90474 8.47954 6.22026 5.52263 3.24082C5.44504 3.16262 7.09938 5.60535 8.97686 7.58892C8.09231 7.0925 5.62718 5.29891 4.0666 3.87057C4.25833 4.19033 4.48638 4.49822 4.73706 4.79465C6.04028 6.44739 7.73985 8.48662 9.77601 10.0525C8.34538 10.928 6.32388 10.9961 4.31116 10.0534C3.81334 9.82013 3.34533 9.53863 2.91211 9.2188C3.76409 10.5816 5.07626 11.7573 6.67329 12.4437C8.57782 13.2622 10.4717 13.2067 11.8823 12.4572L11.8812 12.4588C11.8876 12.4547 11.8958 12.4503 11.9025 12.4461C11.9604 12.415 12.0179 12.3833 12.0742 12.3498C12.7519 11.998 14.0905 11.6411 14.8091 13.0391C14.985 13.3813 15.359 11.5681 13.9842 9.87659Z" fill="white"/>
<path d="M23.3775 10.3831C23.5025 11.4931 24.5612 12.2208 26.0315 12.2208C27.4284 12.2208 28.4356 11.4931 28.4356 10.4861C28.4356 9.61853 27.8255 9.08897 26.4211 8.73625L25.0611 8.39074C23.1055 7.90547 22.2232 7.02316 22.2232 5.56764C22.2232 3.77383 23.7892 2.53125 26.0169 2.53125C28.1782 2.53125 29.7148 3.78105 29.7663 5.5824H28.3327C28.2223 4.47961 27.3254 3.80304 25.9801 3.80304C24.6493 3.80304 23.723 4.48683 23.723 5.4866C23.723 6.26587 24.2966 6.72919 25.7081 7.08945L26.8403 7.38345C29.0311 7.92026 29.928 8.77302 29.928 10.3096C29.928 12.2652 28.3767 13.493 25.9065 13.493C23.6128 13.493 22.0468 12.2724 21.9292 10.3831L23.3775 10.3831Z" fill="white"/>
<path d="M39.0341 13.3164H37.593L35.9094 7.44965H35.88L34.2039 13.3164H32.7629L30.6309 5.63354H32.0276L33.5127 11.8018H33.5422L35.2184 5.63354H36.5711L38.262 11.8018H38.2915L39.7766 5.63354H41.1586L39.0341 13.3164Z" fill="white"/>
<path d="M42.0898 3.56773C42.0898 3.10477 42.4723 2.72974 42.9354 2.72974C43.4059 2.72974 43.7882 3.10477 43.7882 3.56773C43.7882 4.03102 43.4059 4.4133 42.9354 4.4133C42.4723 4.4133 42.0898 4.03105 42.0898 3.56773ZM42.237 5.63358H43.6412V13.3164H42.237V5.63358Z" fill="white"/>
<path d="M52.8112 6.76588V5.63354H51.3261V3.79577H49.9292V5.63354H48.7896H47.245V4.95729C47.2523 4.2735 47.517 3.98672 48.1493 3.98672C48.355 3.98672 48.5609 4.00903 48.7301 4.03823V2.93544C48.4801 2.89869 48.2522 2.87671 47.9876 2.87671C46.4877 2.87671 45.8555 3.50177 45.8555 4.93531V5.63354H44.7822V6.76588H45.8555V13.3164H47.2523V6.76588H48.7897H49.9292V11.3021C49.9292 12.7872 50.4954 13.3604 51.9657 13.3604C52.2818 13.3604 52.6421 13.3384 52.8038 13.3016V12.1549C52.7082 12.1696 52.4288 12.1916 52.2744 12.1916C51.6202 12.1916 51.3262 11.8829 51.3262 11.1918V6.76588H52.8112Z" fill="white"/>
</g>
<defs>
<clipPath id="clip0_1237_20616">
<rect width="51.5055" height="16" fill="white" transform="translate(0.555664)"/>
</clipPath>
</defs>
</svg>
