<svg width="24" height="24" viewBox="0 0 24 24" fill="none" xmlns="http://www.w3.org/2000/svg">
<g id="Frame">
<g id="Group">
<path id="Vector" d="M3.33394 20.6666C2.98032 20.6666 2.64118 20.5261 2.39113 20.2761C2.14109 20.026 2.00061 19.6869 2.00061 19.3332V4.76881C2.00178 4.38844 2.1534 4.02398 2.42237 3.75501C2.69133 3.48605 3.05579 3.33442 3.43617 3.33325H20.5722C20.9507 3.33442 21.3133 3.4853 21.5809 3.75293C21.8486 4.02056 21.9994 4.38321 22.0006 4.7617V19.231C21.9994 19.6114 21.8478 19.9759 21.5789 20.2448C21.3099 20.5138 20.9454 20.6654 20.5651 20.6666H3.33394Z" stroke="currentColor" stroke-width="1.2" stroke-linecap="round" stroke-linejoin="round"/>
<path id="Vector_2" d="M5.64514 17.9998C5.39322 18.0068 5.14884 17.9136 4.96555 17.7406C4.78226 17.5676 4.67503 17.3291 4.66736 17.0772V6.99363C4.67619 6.72248 4.79189 6.46583 4.98921 6.27965C5.18654 6.09348 5.44949 5.9929 5.72069 5.99985H18.286C18.5559 5.99314 18.8175 6.09336 19.0138 6.27867C19.2101 6.46398 19.3252 6.71937 19.334 6.98918V17.0061C19.3252 17.2772 19.2095 17.5339 19.0122 17.72C18.8148 17.9062 18.5519 18.0068 18.2807 17.9998H5.64514Z" stroke="currentColor" stroke-width="1.2" stroke-linecap="round" stroke-linejoin="round"/>
<path id="Vector_3" d="M13.3337 11.9998H16.0004" stroke="currentColor" stroke-width="1.2" stroke-linecap="round" stroke-linejoin="round"/>
<path id="Vector_4" d="M8.6673 10L10.6673 12L8.6673 14" stroke="currentColor" stroke-width="1.2" stroke-linecap="round" stroke-linejoin="round"/>
</g>
</g>
</svg>
