<svg width="42" height="40" viewBox="0 0 42 40" fill="none" xmlns="http://www.w3.org/2000/svg">
<g>
<path fill-rule="evenodd" clip-rule="evenodd" d="M23.7099 0.59598L36.7327 6.38839C37.9541 6.93173 38.9919 7.8176 39.7201 8.93868C40.4484 10.0598 40.836 11.368 40.836 12.7048V26.7894C40.8359 28.1262 40.4483 29.4343 39.72 30.5553C38.9917 31.6763 37.9541 32.562 36.7327 33.1054L23.7099 38.8978C22.8255 39.2911 21.8684 39.4944 20.9005 39.4944C19.9326 39.4944 18.9755 39.2911 18.0911 38.8978L5.06887 33.1059C3.84747 32.5625 2.8098 31.6768 2.08153 30.5558C1.35326 29.4348 0.965625 28.1267 0.965576 26.7899V12.7043C0.965722 11.3676 1.3534 10.0597 2.08167 8.93876C2.80994 7.81788 3.84755 6.93217 5.06887 6.38889L18.0917 0.596487C18.9759 0.203213 19.933 0 20.9008 0C21.8686 0 22.8256 0.203213 23.7099 0.596487V0.59598Z" fill="#202020"/>
<path opacity="0.499" d="M37.7246 29.3437C37.2428 30.0847 36.5561 30.6698 35.7479 31.0277L23.0462 36.6581C22.3687 36.9584 21.636 37.1135 20.895 37.1135C20.154 37.1135 19.4213 36.9584 18.7439 36.6581L6.0416 31.0277C5.23361 30.6697 4.54704 30.0847 4.06539 29.3437C3.5832 28.6031 3.32656 27.7383 3.32666 26.8546V12.653C3.32666 11.769 3.58286 10.9042 4.06539 10.1634C4.54718 9.42238 5.23393 8.83731 6.0421 8.47938L18.7439 2.849C19.4213 2.5487 20.154 2.39355 20.895 2.39355C21.636 2.39355 22.3688 2.5487 23.0462 2.849L35.7479 8.47938C36.5562 8.83721 37.2431 9.42216 37.7251 10.1631C38.207 10.9041 38.4634 11.7691 38.4629 12.653V26.8541C38.4631 27.7378 38.2066 28.603 37.7246 29.3437Z" stroke="#8196FF" stroke-width="1.61114"/>
<path d="M39.0508 30.1215C38.4067 31.1136 37.4886 31.8974 36.4077 32.3777L23.3854 38.1702C22.6031 38.5181 21.7564 38.6979 20.9001 38.6979C20.0439 38.6979 19.1972 38.5181 18.4148 38.1702L5.39202 32.3777C4.31143 31.8974 3.39346 31.1139 2.74949 30.1221C2.10483 29.1305 1.76184 27.9731 1.76215 26.7904V12.7053C1.76215 11.5226 2.10493 10.3651 2.74949 9.3737C3.39352 8.38164 4.31169 7.59786 5.39253 7.1175L18.4153 1.32509C19.1976 0.977152 20.0442 0.797363 20.9004 0.797363C21.7565 0.797363 22.6032 0.977152 23.3854 1.32509L36.4082 7.1175C37.4891 7.59786 38.4072 8.38164 39.0513 9.3737C39.6958 10.3653 40.0386 11.5227 40.0381 12.7053V26.7899C40.0381 27.9727 39.6953 29.1296 39.0508 30.1215Z" stroke="#8196FF" stroke-width="1.59544"/>
<path d="M16.0432 27.3508H16.5611V28.8495C16.5611 29.0176 16.5814 29.1402 16.6209 29.2171C16.6826 29.3538 16.8173 29.4227 17.0249 29.4227C17.231 29.4227 17.3652 29.3543 17.427 29.2171C17.4664 29.1402 17.4862 29.0176 17.4862 28.85V27.3508H18.0042V28.8495C18.0042 29.1093 17.9637 29.3113 17.8837 29.4556C17.7338 29.7204 17.4472 29.8526 17.0249 29.8526C16.6021 29.8526 16.3156 29.7204 16.1642 29.4556C16.0837 29.3113 16.0432 29.1093 16.0432 28.85V27.3508ZM19.0021 27.7746V28.4298H19.5794C19.6943 28.4298 19.7804 28.4166 19.8376 28.3898C19.9394 28.3437 19.99 28.2521 19.99 28.1154C19.99 27.9675 19.9409 27.8683 19.8432 27.8176C19.7875 27.7888 19.7049 27.7746 19.5951 27.7746H19.0021ZM19.7009 27.3508C19.8715 27.3538 20.0026 27.3751 20.0943 27.4136C20.1869 27.4521 20.2654 27.5088 20.3292 27.5842C20.4433 27.7106 20.5049 27.8758 20.5014 28.046C20.5014 28.1614 20.472 28.2759 20.4138 28.3883C20.3522 28.5022 20.2481 28.5872 20.1242 28.6247C20.2366 28.6703 20.3166 28.7346 20.3621 28.8186C20.4097 28.9012 20.4335 29.0283 20.4335 29.1989V29.363C20.4335 29.4743 20.4381 29.5503 20.4467 29.5898C20.4515 29.6181 20.4622 29.6452 20.4782 29.6691C20.4941 29.693 20.515 29.7133 20.5394 29.7285V29.7898H19.9783C19.9438 29.6794 19.9254 29.5646 19.9237 29.449L19.9206 29.2222C19.9186 29.0667 19.8897 28.9629 19.8345 28.9113C19.7804 28.8592 19.6786 28.8333 19.5282 28.8333H19.0021V29.7903H18.5039V27.3508H19.7009ZM22.0158 29.4257C22.1135 29.4261 22.21 29.4047 22.2983 29.363L22.0523 29.128L22.3156 28.8531L22.5616 29.0885C22.6001 29.009 22.6275 28.9392 22.6426 28.8799C22.6669 28.7903 22.6791 28.686 22.6791 28.567C22.6791 28.2936 22.6229 28.0819 22.5105 27.9331C22.3991 27.7832 22.2356 27.7083 22.0204 27.7083C21.8188 27.7083 21.6578 27.7797 21.5373 27.9235C21.4173 28.0667 21.3571 28.2814 21.3571 28.567C21.3571 28.9012 21.4432 29.1407 21.6153 29.285C21.7267 29.3792 21.8604 29.4257 22.0158 29.4257ZM23.189 28.5305C23.189 28.7483 23.1621 28.93 23.1095 29.0769C23.0664 29.2166 23.0032 29.3331 22.9191 29.4262L23.2006 29.689L22.9338 29.967L22.6396 29.6885C22.5666 29.7347 22.4888 29.7731 22.4077 29.803C22.2808 29.8419 22.1485 29.8604 22.0158 29.8576C21.6978 29.8576 21.4356 29.763 21.228 29.5731C20.9763 29.3452 20.8507 29.0095 20.8507 28.567C20.8507 28.1214 20.9799 27.7842 21.2381 27.5559C21.4487 27.3695 21.7105 27.2764 22.0239 27.2764C22.3394 27.2764 22.6042 27.3751 22.8183 27.5726C23.0654 27.8004 23.189 28.1204 23.189 28.5305ZM23.5794 27.3508H24.0892V29.3513H25.2973V29.7898H23.5794V27.3508Z" fill="#8196FF"/>
<mask id="mask0_397_2630" style="mask-type:alpha" maskUnits="userSpaceOnUse" x="10" y="9" width="17" height="17">
<path d="M10.1362 9.82861H26.2774V25.0296H10.1362V9.82861Z" fill="white"/>
</mask>
<g mask="url(#mask0_397_2630)">
<path fill-rule="evenodd" clip-rule="evenodd" d="M19.1114 21.0522L22.1129 24.0567V25.0304L23.1169 24.0491L20.8739 21.8041V20.599L21.9068 21.6324L24.6248 21.6405L26.2774 23.2947V21.5337C26.2775 20.9371 26.0407 20.3649 25.6192 19.9428L20.8972 15.2157L16.1509 10.4643C15.9499 10.2631 15.7113 10.1035 15.4486 9.99456C15.1859 9.88565 14.9043 9.82959 14.62 9.82959C14.3356 9.82959 14.054 9.88565 13.7913 9.99456C13.5287 10.1035 13.29 10.2631 13.0891 10.4643L10.1362 13.4203H11.9083C12.0225 13.306 12.1581 13.2154 12.3073 13.1535C12.4565 13.0917 12.6164 13.0599 12.7779 13.0599C12.9395 13.0599 13.0994 13.0917 13.2486 13.1535C13.3978 13.2154 13.5334 13.306 13.6476 13.4203L13.6688 13.441L17.2769 17.0532H15.5038L13.6688 15.2167V16.0496C13.6688 16.6446 13.9048 17.2152 14.3255 17.6365L15.522 18.8344L17.2952 20.6096C17.2952 20.9818 17.443 21.3387 17.7063 21.602L19.1088 23.0061L20.0076 23.9058L20.0005 24.7398L20.8476 24.0005V24.957L21.8162 24.0339L19.1114 21.3266" fill="#8196FF"/>
</g>
<mask id="mask1_397_2630" style="mask-type:alpha" maskUnits="userSpaceOnUse" x="20" y="9" width="12" height="9">
<path d="M20.8981 9.82861H31.6591V17.9456H20.8981V9.82912V9.82861Z" fill="white"/>
</mask>
<g mask="url(#mask1_397_2630)">
<path fill-rule="evenodd" clip-rule="evenodd" d="M20.8981 15.2154L25.6445 10.4645C25.8454 10.2632 26.084 10.1036 26.3467 9.99462C26.6094 9.88567 26.891 9.82959 27.1753 9.82959C27.4597 9.82959 27.7413 9.88567 28.004 9.99462C28.2667 10.1036 28.5053 10.2632 28.7062 10.4645L31.6591 13.42H29.8875C29.7733 13.3056 29.6377 13.2149 29.4885 13.153C29.3392 13.0912 29.1792 13.0593 29.0176 13.0593C28.856 13.0593 28.696 13.0912 28.5468 13.153C28.3975 13.2149 28.2619 13.3056 28.1478 13.42L28.1265 13.4412L23.6262 17.9465" fill="#647BED"/>
</g>
<mask id="mask2_397_2630" style="mask-type:alpha" maskUnits="userSpaceOnUse" x="14" y="9" width="10" height="9">
<path d="M14.1712 9.82861H23.6244V17.9456H14.1712V9.82912V9.82861Z" fill="white"/>
</mask>
<g mask="url(#mask2_397_2630)">
<path fill-rule="evenodd" clip-rule="evenodd" d="M23.6249 17.9469L20.8968 15.2162L16.1504 10.4649C15.8956 10.2099 15.581 10.0226 15.2354 9.92001C14.8897 9.81744 14.5239 9.80283 14.1712 9.87751C14.5813 9.96409 14.9575 10.1681 15.2537 10.4649L20.0001 15.2162L22.7251 17.9443L23.6249 17.9469Z" fill="#A2B1FF"/>
</g>
<path fill-rule="evenodd" clip-rule="evenodd" d="M14.5204 17.8325H18.3837L19.1614 17.0537H15.5042L13.6693 15.2173V16.0502C13.6693 16.6451 13.9052 17.2158 14.326 17.637L14.5209 17.8325H14.5204Z" fill="#A2B1FF"/>
<path fill-rule="evenodd" clip-rule="evenodd" d="M24.5236 20.5717C24.5234 20.6144 24.536 20.6562 24.5597 20.6917C24.5834 20.7273 24.6172 20.7549 24.6567 20.7712C24.6862 20.783 24.7178 20.7883 24.7495 20.7865C24.7812 20.7847 24.8121 20.776 24.84 20.7609C24.868 20.7458 24.8922 20.7248 24.9111 20.6992C24.9299 20.6737 24.9429 20.6443 24.9491 20.6132C24.9552 20.582 24.9545 20.5499 24.9468 20.5191C24.9392 20.4883 24.9248 20.4596 24.9048 20.435C24.8847 20.4104 24.8595 20.3905 24.8309 20.3767C24.8023 20.363 24.771 20.3557 24.7393 20.3555H24.5236V20.5717Z" fill="#4D65DD"/>
<path fill-rule="evenodd" clip-rule="evenodd" d="M15.2837 13.1726C15.0796 12.9681 14.8371 12.8058 14.5701 12.6951C14.3032 12.5843 14.017 12.5273 13.728 12.5273C13.439 12.5273 13.1529 12.5843 12.8859 12.6951C12.619 12.8058 12.3765 12.9681 12.1723 13.1726L12.0295 13.3159C12.2661 13.134 12.5607 13.0444 12.8585 13.0637C13.1563 13.0831 13.4368 13.2102 13.6478 13.4212L13.6559 13.4293H13.669L18.0559 17.8334L19.9202 17.8141L15.509 13.3989L15.2837 13.1726Z" fill="#647BED"/>
<path fill-rule="evenodd" clip-rule="evenodd" d="M26.5043 13.1726C26.7085 12.9681 26.951 12.8058 27.2179 12.6951C27.4849 12.5843 27.771 12.5273 28.06 12.5273C28.349 12.5273 28.6352 12.5843 28.9021 12.6951C29.1691 12.8058 29.4116 12.9681 29.6157 13.1726L29.7585 13.3159C29.522 13.134 29.2273 13.0444 28.9296 13.0637C28.6318 13.0831 28.3513 13.2102 28.1403 13.4212L28.1322 13.4293H28.119L23.6218 17.9448L22.68 17.002L26.279 13.3984L26.5043 13.1726ZM16.4714 19.7873L17.2947 20.6111C17.2947 20.9832 17.4426 21.3402 17.7054 21.6035L19.1079 23.0075L20.0066 23.9078L20 24.7417L20.8471 24.0025V24.9584L21.8152 24.0354L19.1109 21.3281L19.2436 21.1863L22.1124 24.0582V25.0319L23.1165 24.0506L20.8735 21.8055V20.6005C20.6161 20.3426 20.3104 20.138 19.974 19.9984C19.6375 19.8588 19.2768 19.7869 18.9124 19.7868H16.4719L16.4714 19.7873Z" fill="#4D65DD"/>
<path fill-rule="evenodd" clip-rule="evenodd" d="M21.8152 24.0347L19.1109 21.3274L17.5716 19.7861H16.4714L17.2947 20.6099C17.2947 20.9826 17.442 21.339 17.7053 21.6028L19.1078 23.0069L20.0066 23.9066L20 24.7406L20.8471 24.0013V24.9578L21.8152 24.0347Z" fill="#647BED"/>
<path fill-rule="evenodd" clip-rule="evenodd" d="M28.7057 10.4645C28.451 10.2094 28.1364 10.022 27.7907 9.91944C27.4451 9.81686 27.0792 9.80234 26.7265 9.87721C27.1366 9.96379 27.5128 10.1678 27.809 10.4645L30.7619 13.4205H31.6581L28.7057 10.4645Z" fill="#8196FF"/>
</g>
</svg>
