<svg width="42" height="16" viewBox="0 0 42 16" fill="none" xmlns="http://www.w3.org/2000/svg">
<g clip-path="url(#clip0_1237_20568)">
<path fill-rule="evenodd" clip-rule="evenodd" d="M15.5324 0.032959H19.1945L9.94745 15.9677L0.639648 0.032959H4.38506L9.94745 9.62604L15.5324 0.032959Z" fill="#41B883"/>
<path fill-rule="evenodd" clip-rule="evenodd" d="M12.0715 0.0297852H15.5545L9.94275 9.64288L4.37598 0.0297852H7.80443L9.94275 3.73063L12.0715 0.0297852Z" fill="#35495E"/>
<path fill-rule="evenodd" clip-rule="evenodd" d="M22.8848 4.50329C22.8848 4.40909 22.9371 4.33059 23.0416 4.26779C23.1462 4.20498 23.2556 4.17358 23.3697 4.17358C23.5281 4.17358 23.6264 4.23325 23.6644 4.35257L25.3378 9.94822L27.0017 4.35257C27.046 4.23325 27.1411 4.17358 27.2869 4.17358C27.4073 4.17358 27.5198 4.20812 27.6244 4.27721C27.729 4.34629 27.7813 4.42479 27.7813 4.51271C27.7813 4.51899 27.7797 4.52841 27.7766 4.54098C27.7734 4.55354 27.7718 4.5661 27.7718 4.57866L25.8417 10.8431C25.772 11.0253 25.604 11.1163 25.3378 11.1163C25.0716 11.1163 24.9099 11.0253 24.8529 10.8431L22.9038 4.57866C22.8911 4.54098 22.8848 4.51585 22.8848 4.50329ZM27.8562 9.32648V6.87721C27.8562 6.80184 27.8958 6.7359 27.975 6.67938C28.0543 6.62286 28.1478 6.5946 28.2555 6.5946C28.3569 6.5946 28.4473 6.62443 28.5265 6.68409C28.6057 6.74375 28.6453 6.80812 28.6453 6.87721V9.32648C28.6453 9.60909 28.7531 9.86344 28.9686 10.0895C29.1841 10.3156 29.4408 10.4287 29.7387 10.4287C30.0303 10.4287 30.2839 10.3172 30.4994 10.0942C30.7149 9.87129 30.8226 9.61537 30.8226 9.32648V6.86779C30.8226 6.7987 30.8623 6.7359 30.9415 6.67938C31.0207 6.62286 31.1142 6.5946 31.222 6.5946C31.3361 6.5946 31.4296 6.62129 31.5025 6.67467C31.5753 6.72805 31.6118 6.79242 31.6118 6.86779V9.32648C31.6118 9.81006 31.4264 10.2324 31.0556 10.5935C30.6848 10.9546 30.2458 11.1352 29.7387 11.1352C29.2253 11.1352 28.7832 10.9546 28.4124 10.5935C28.0416 10.2324 27.8562 9.81006 27.8562 9.32648ZM32.2571 9.30764V8.31851C32.2571 7.83493 32.4425 7.41731 32.8134 7.06561C33.1842 6.71392 33.6294 6.53808 34.1492 6.53808C34.6436 6.53808 35.0715 6.70293 35.4328 7.03264C35.7941 7.36235 35.9747 7.77527 35.9747 8.27141C35.9747 8.45354 35.9525 8.59955 35.9082 8.70945C35.8638 8.81936 35.7957 8.89786 35.7037 8.94496C35.6118 8.99206 35.5263 9.02189 35.447 9.03445C35.3678 9.04701 35.2616 9.05329 35.1285 9.05329H33.0463V9.3359C33.0463 9.68131 33.1715 9.95764 33.4219 10.1649C33.6722 10.3721 33.9971 10.4758 34.3964 10.4758C34.6056 10.4758 34.7878 10.4444 34.9431 10.3816C35.0984 10.3188 35.2236 10.2575 35.3187 10.1979C35.4138 10.1382 35.4898 10.1084 35.5469 10.1084C35.6356 10.1084 35.7117 10.1476 35.7751 10.2261C35.8384 10.3046 35.8701 10.3847 35.8701 10.4663C35.8701 10.6108 35.7259 10.7584 35.4375 10.9091C35.1491 11.0598 34.7926 11.1352 34.3679 11.1352C33.7467 11.1352 33.2396 10.9672 32.8466 10.6312C32.4536 10.2952 32.2571 9.85402 32.2571 9.30764ZM33.0463 8.52576H34.8053C34.9701 8.52576 35.081 8.50535 35.138 8.46453C35.1951 8.4237 35.2236 8.34363 35.2236 8.22431C35.2236 7.9417 35.119 7.69363 34.9098 7.48011C34.7007 7.26658 34.444 7.15982 34.1397 7.15982C33.8418 7.15982 33.5851 7.25873 33.3696 7.45655C33.154 7.65438 33.0463 7.89774 33.0463 8.18663V8.52576ZM36.3729 10.6265C36.3729 10.4883 36.4204 10.3706 36.5155 10.2732C36.6106 10.1759 36.7278 10.1272 36.8673 10.1272C37.0004 10.1272 37.1145 10.1759 37.2096 10.2732C37.3046 10.3706 37.3522 10.4883 37.3522 10.6265C37.3522 10.7584 37.3046 10.873 37.2096 10.9703C37.1145 11.0677 37.0004 11.1163 36.8673 11.1163C36.7278 11.1163 36.6106 11.0677 36.5155 10.9703C36.4204 10.873 36.3729 10.7584 36.3729 10.6265ZM37.0753 12.8779C37.0753 12.7774 37.1069 12.6942 37.1703 12.6283C37.2337 12.5624 37.3098 12.5294 37.3985 12.5294C37.6457 12.5294 37.8074 12.4383 37.8834 12.2562C37.9595 12.0741 37.9975 11.8009 37.9975 11.4366V6.86779C37.9975 6.78614 38.034 6.7202 38.1069 6.66996C38.1797 6.61972 38.2732 6.5946 38.3873 6.5946C38.5014 6.5946 38.5965 6.61972 38.6726 6.66996C38.7486 6.7202 38.7867 6.78614 38.7867 6.86779V11.4366C38.7867 11.983 38.6789 12.4163 38.4634 12.7366C38.2479 13.0569 37.9215 13.2171 37.4841 13.2171C37.2115 13.2171 37.0753 13.104 37.0753 12.8779ZM37.8929 4.91779C37.8929 4.79846 37.9405 4.69484 38.0355 4.60692C38.1306 4.51899 38.2479 4.47503 38.3873 4.47503C38.5204 4.47503 38.6345 4.51899 38.7296 4.60692C38.8247 4.69484 38.8722 4.79846 38.8722 4.91779C38.8722 5.03711 38.8247 5.1423 38.7296 5.23337C38.6345 5.32443 38.5204 5.36996 38.3873 5.36996C38.2542 5.36996 38.1385 5.32443 38.0403 5.23337C37.9421 5.1423 37.8929 5.03711 37.8929 4.91779ZM39.375 10.4192C39.375 10.3376 39.4019 10.2575 39.4558 10.179C39.5097 10.1005 39.5746 10.0613 39.6507 10.0613C39.7014 10.0613 39.7743 10.0989 39.8694 10.1743C39.9645 10.2497 40.1007 10.3235 40.2782 10.3957C40.4557 10.4679 40.6649 10.504 40.9057 10.504C41.2227 10.504 41.4524 10.4475 41.5951 10.3345C41.7377 10.2214 41.809 10.0801 41.809 9.91054C41.809 9.70329 41.7297 9.53844 41.5713 9.41597C41.4128 9.29351 41.2195 9.20088 40.9913 9.13808C40.7631 9.07527 40.5349 9.00619 40.3067 8.93083C40.0785 8.85547 39.8852 8.72986 39.7268 8.55402C39.5683 8.37817 39.4891 8.14581 39.4891 7.85692C39.4891 7.49894 39.6174 7.18965 39.8741 6.92902C40.1308 6.66839 40.5222 6.53808 41.0484 6.53808C41.3843 6.53808 41.6917 6.58989 41.9706 6.69351C42.2495 6.79713 42.389 6.91489 42.389 7.04677C42.389 7.12213 42.3589 7.20692 42.2986 7.30112C42.2384 7.39532 42.1639 7.44242 42.0752 7.44242C42.0498 7.44242 41.9278 7.39689 41.7091 7.30583C41.4905 7.21477 41.2734 7.16924 41.0579 7.16924C40.7663 7.16924 40.5492 7.23675 40.4066 7.37177C40.264 7.5068 40.1926 7.65909 40.1926 7.82866C40.1926 8.0045 40.2719 8.14267 40.4303 8.24315C40.5888 8.34363 40.7837 8.42213 41.0151 8.47866C41.2464 8.53518 41.4762 8.60426 41.7044 8.6859C41.9326 8.76755 42.1259 8.90728 42.2844 9.10511C42.4428 9.30293 42.5221 9.55885 42.5221 9.87286C42.5221 10.2622 42.3826 10.57 42.1037 10.796C41.8248 11.0221 41.435 11.1352 40.9343 11.1352C40.5032 11.1352 40.1356 11.0582 39.8313 10.9044C39.5271 10.7505 39.375 10.5888 39.375 10.4192Z" fill="white"/>
</g>
<defs>
<clipPath id="clip0_1237_20568">
<rect width="41.913" height="16" fill="white"/>
</clipPath>
</defs>
</svg>
