<svg width="20" height="20" viewBox="0 0 20 20" fill="none" xmlns="http://www.w3.org/2000/svg">
<g id="Frame" clip-path="url(#clip0_377_16700)">
<path id="Vector" fill-rule="evenodd" clip-rule="evenodd" d="M19.0865 0.253188C19.1666 0.327795 19.2313 0.417467 19.2768 0.517078C19.3222 0.61669 19.3476 0.724287 19.3515 0.83372C19.3554 0.943153 19.3376 1.05228 19.2993 1.15485C19.261 1.25742 19.2028 1.35144 19.1281 1.43152L12.3481 8.70236L19.8315 18.6357C19.9245 18.7594 19.9813 18.9067 19.9953 19.0609C20.0094 19.215 19.9802 19.3701 19.9111 19.5086C19.8419 19.6472 19.7355 19.7637 19.6039 19.8452C19.4722 19.9266 19.3205 19.9698 19.1656 19.9699H14.6006C14.4715 19.9699 14.3442 19.94 14.2287 19.8824C14.1131 19.8249 14.0125 19.7413 13.9348 19.6382L8.66813 12.649L2.08979 19.7049C2.01516 19.7849 1.92549 19.8495 1.8259 19.8949C1.72631 19.9403 1.61876 19.9656 1.50938 19.9694C1.4 19.9733 1.29094 19.9555 1.18842 19.9172C1.0859 19.8789 0.991928 19.8207 0.911877 19.7461C0.831825 19.6715 0.767258 19.5818 0.721861 19.4822C0.676464 19.3826 0.651128 19.2751 0.647297 19.1657C0.643467 19.0563 0.661218 18.9472 0.699537 18.8447C0.737856 18.7422 0.795992 18.6482 0.870627 18.5682L7.65063 11.2974L0.167293 1.36402C0.0742824 1.24033 0.017553 1.09318 0.00346189 0.939064C-0.0106292 0.784947 0.0184747 0.62995 0.0875125 0.491442C0.15655 0.352934 0.262794 0.236387 0.394339 0.15486C0.525884 0.0733334 0.677533 0.0300484 0.832293 0.0298552H5.39813C5.52708 0.0299191 5.65425 0.059907 5.76964 0.117459C5.88504 0.175011 5.9855 0.258557 6.06313 0.361522L11.3298 7.35069L17.9073 0.294855C17.9819 0.214703 18.0716 0.15004 18.1712 0.104563C18.2708 0.0590862 18.3784 0.033687 18.4878 0.0298174C18.5973 0.0259478 18.7064 0.0436836 18.809 0.082011C18.9115 0.120338 19.0055 0.178506 19.0856 0.253188H19.0865ZM10.6281 9.18985C10.6046 9.16268 10.5829 9.13401 10.5631 9.10402L4.98229 1.69569H2.50313L15.0156 18.304H17.4948L10.6281 9.18985Z" fill="currentColor"/>
</g>
</svg>
