<svg xmlns="http://www.w3.org/2000/svg" width="448" height="271" fill="none">
  <g clip-path="url(#a)">
    <rect width="448" height="271" fill="#191918" rx="10"/>
    <g clip-path="url(#b)">
      <path fill="#92928C" d="M195.238 23.884c.48 0 .832-.112 1.056-.336.224-.224.336-.58.336-1.068h1.032V31h-1.308v-6.072h-1.8v-1.044h.684ZM184.711 27.82c0-.672.124-1.256.372-1.752a2.79 2.79 0 0 1 1.068-1.164c.456-.272.988-.408 1.596-.408.52 0 .992.12 1.416.36.432.232.776.596 1.032 1.092.264.488.408 1.096.432 1.824v.42h-4.548c.04.584.204 1.04.492 1.368.288.32.68.48 1.176.48.32 0 .608-.084.864-.252.256-.168.452-.404.588-.708l1.344.096c-.192.6-.544 1.08-1.056 1.44-.504.352-1.084.528-1.74.528-.608 0-1.14-.136-1.596-.408a2.807 2.807 0 0 1-1.068-1.152c-.248-.504-.372-1.092-.372-1.764Zm4.56-.6c-.08-.56-.256-.968-.528-1.224a1.376 1.376 0 0 0-.996-.396c-.456 0-.828.144-1.116.432-.28.28-.46.676-.54 1.188h3.18ZM182.899 22.48v7.044c0 .136.036.24.108.312.072.072.176.108.312.108h.516V31h-.804c-.424 0-.768-.128-1.032-.384-.264-.264-.396-.612-.396-1.044V22.48h1.296ZM178.899 26.872c-.064-.392-.232-.7-.504-.924a1.464 1.464 0 0 0-.96-.336c-.536 0-.952.196-1.248.588-.296.384-.444.924-.444 1.62 0 .696.148 1.24.444 1.632.296.384.712.576 1.248.576.384 0 .712-.12.984-.36.28-.24.452-.576.516-1.008l1.356.072a2.714 2.714 0 0 1-1.512 2.124 3.117 3.117 0 0 1-1.344.288c-.608 0-1.14-.136-1.596-.408a2.807 2.807 0 0 1-1.068-1.152c-.248-.504-.372-1.092-.372-1.764 0-.672.124-1.256.372-1.752a2.79 2.79 0 0 1 1.068-1.164c.456-.272.988-.408 1.596-.408.472 0 .912.096 1.32.288.408.184.744.452 1.008.804.264.344.424.748.48 1.212l-1.344.072ZM169.103 24.64l1.788 4.992 1.74-4.992h1.296l-2.544 7.104c-.128.36-.32.624-.576.792-.248.176-.568.264-.96.264h-.948v-1.044h.756c.168 0 .3-.032.396-.096a.61.61 0 0 0 .24-.324l.204-.528h-.396l-2.304-6.168h1.308ZM167.028 28.108c-.16.96-.544 1.716-1.152 2.268-.608.544-1.4.816-2.376.816-.808 0-1.508-.192-2.1-.576a3.861 3.861 0 0 1-1.368-1.596c-.32-.68-.48-1.436-.48-2.268 0-.832.156-1.588.468-2.268.32-.68.776-1.216 1.368-1.608.6-.392 1.304-.588 2.112-.588.92 0 1.68.26 2.28.78.608.512 1.004 1.224 1.188 2.136l-1.38.072c-.12-.568-.364-1.008-.732-1.32-.368-.312-.824-.468-1.368-.468-.576 0-1.056.144-1.44.432-.384.288-.668.68-.852 1.176a4.731 4.731 0 0 0-.276 1.656c0 .608.092 1.156.276 1.644.184.488.468.876.852 1.164.392.288.872.432 1.44.432.576 0 1.048-.168 1.416-.504.376-.344.62-.828.732-1.452l1.392.072ZM301.926 25.084a3.294 3.294 0 0 1 .504-1.44 2.874 2.874 0 0 1 1.08-.996c.456-.24.972-.36 1.548-.36.536 0 1.016.108 1.44.324.432.216.772.512 1.02.888s.372.8.372 1.272c0 .4-.1.768-.3 1.104a3.512 3.512 0 0 1-.768.9c-.32.264-.716.54-1.188.828a5.668 5.668 0 0 0-.288.18 9.55 9.55 0 0 0-1.32 1.008c-.392.36-.596.696-.612 1.008h4.524V31h-6.144c0-.736.132-1.364.396-1.884.264-.52.584-.948.96-1.284.384-.344.884-.708 1.5-1.092.128-.08.256-.156.384-.228.096-.064.188-.128.276-.192.392-.256.692-.512.9-.768.208-.264.312-.528.312-.792 0-.248-.064-.464-.192-.648a1.25 1.25 0 0 0-.516-.456 1.667 1.667 0 0 0-.756-.168c-.472 0-.86.148-1.164.444-.304.288-.508.7-.612 1.236l-1.356-.084ZM291.711 27.82c0-.672.124-1.256.372-1.752a2.79 2.79 0 0 1 1.068-1.164c.456-.272.988-.408 1.596-.408.52 0 .992.12 1.416.36.432.232.776.596 1.032 1.092.264.488.408 1.096.432 1.824v.42h-4.548c.04.584.204 1.04.492 1.368.288.32.68.48 1.176.48.32 0 .608-.084.864-.252.256-.168.452-.404.588-.708l1.344.096c-.192.6-.544 1.08-1.056 1.44-.504.352-1.084.528-1.74.528-.608 0-1.14-.136-1.596-.408a2.807 2.807 0 0 1-1.068-1.152c-.248-.504-.372-1.092-.372-1.764Zm4.56-.6c-.08-.56-.256-.968-.528-1.224a1.376 1.376 0 0 0-.996-.396c-.456 0-.828.144-1.116.432-.28.28-.46.676-.54 1.188h3.18ZM289.899 22.48v7.044c0 .136.036.24.108.312.072.072.176.108.312.108h.516V31h-.804c-.424 0-.768-.128-1.032-.384-.264-.264-.396-.612-.396-1.044V22.48h1.296ZM285.899 26.872c-.064-.392-.232-.7-.504-.924a1.464 1.464 0 0 0-.96-.336c-.536 0-.952.196-1.248.588-.296.384-.444.924-.444 1.62 0 .696.148 1.24.444 1.632.296.384.712.576 1.248.576.384 0 .712-.12.984-.36.28-.24.452-.576.516-1.008l1.356.072a2.714 2.714 0 0 1-1.512 2.124 3.117 3.117 0 0 1-1.344.288c-.608 0-1.14-.136-1.596-.408a2.807 2.807 0 0 1-1.068-1.152c-.248-.504-.372-1.092-.372-1.764 0-.672.124-1.256.372-1.752a2.79 2.79 0 0 1 1.068-1.164c.456-.272.988-.408 1.596-.408.472 0 .912.096 1.32.288.408.184.744.452 1.008.804.264.344.424.748.48 1.212l-1.344.072ZM276.103 24.64l1.788 4.992 1.74-4.992h1.296l-2.544 7.104c-.128.36-.32.624-.576.792-.248.176-.568.264-.96.264h-.948v-1.044h.756c.168 0 .3-.032.396-.096a.61.61 0 0 0 .24-.324l.204-.528h-.396l-2.304-6.168h1.308ZM274.028 28.108c-.16.96-.544 1.716-1.152 2.268-.608.544-1.4.816-2.376.816-.808 0-1.508-.192-2.1-.576a3.861 3.861 0 0 1-1.368-1.596c-.32-.68-.48-1.436-.48-2.268 0-.832.156-1.588.468-2.268.32-.68.776-1.216 1.368-1.608.6-.392 1.304-.588 2.112-.588.92 0 1.68.26 2.28.78.608.512 1.004 1.224 1.188 2.136l-1.38.072c-.12-.568-.364-1.008-.732-1.32-.368-.312-.824-.468-1.368-.468-.576 0-1.056.144-1.44.432-.384.288-.668.68-.852 1.176a4.731 4.731 0 0 0-.276 1.656c0 .608.092 1.156.276 1.644.184.488.468.876.852 1.164.392.288.872.432 1.44.432.576 0 1.048-.168 1.416-.504.376-.344.62-.828.732-1.452l1.392.072ZM414.77 25.924a2 2 0 0 0 .756-.12c.248-.088.448-.232.6-.432.16-.208.24-.468.24-.78a.893.893 0 0 0-.192-.576 1.184 1.184 0 0 0-.552-.384 2.289 2.289 0 0 0-.852-.144c-.408 0-.744.092-1.008.276a1.116 1.116 0 0 0-.48.744l-1.344-.084c.048-.408.2-.776.456-1.104.264-.328.6-.58 1.008-.756a3.374 3.374 0 0 1 1.38-.276c.576 0 1.088.092 1.536.276.448.184.796.444 1.044.78s.372.724.372 1.164c0 .528-.172.96-.516 1.296-.336.328-.832.552-1.488.672l.012-.156c.48.08.892.228 1.236.444s.604.484.78.804c.176.32.264.684.264 1.092 0 .496-.136.936-.408 1.32-.272.384-.656.684-1.152.9-.488.208-1.048.312-1.68.312a3.803 3.803 0 0 1-1.572-.312 2.82 2.82 0 0 1-1.104-.876 2.413 2.413 0 0 1-.432-1.296l1.344-.072c.048.44.244.776.588 1.008a2.09 2.09 0 0 0 1.176.348 2.6 2.6 0 0 0 .912-.156c.288-.112.52-.276.696-.492.184-.224.276-.504.276-.84 0-.328-.092-.604-.276-.828a1.485 1.485 0 0 0-.696-.504 2.516 2.516 0 0 0-.924-.144l-.672.012v-1.128l.672.012ZM401.711 27.82c0-.672.124-1.256.372-1.752a2.79 2.79 0 0 1 1.068-1.164c.456-.272.988-.408 1.596-.408.52 0 .992.12 1.416.36.432.232.776.596 1.032 1.092.264.488.408 1.096.432 1.824v.42h-4.548c.04.584.204 1.04.492 1.368.288.32.68.48 1.176.48.32 0 .608-.084.864-.252.256-.168.452-.404.588-.708l1.344.096c-.192.6-.544 1.08-1.056 1.44-.504.352-1.084.528-1.74.528-.608 0-1.14-.136-1.596-.408a2.807 2.807 0 0 1-1.068-1.152c-.248-.504-.372-1.092-.372-1.764Zm4.56-.6c-.08-.56-.256-.968-.528-1.224a1.376 1.376 0 0 0-.996-.396c-.456 0-.828.144-1.116.432-.28.28-.46.676-.54 1.188h3.18ZM399.899 22.48v7.044c0 .136.036.24.108.312.072.072.176.108.312.108h.516V31h-.804c-.424 0-.768-.128-1.032-.384-.264-.264-.396-.612-.396-1.044V22.48h1.296ZM395.899 26.872c-.064-.392-.232-.7-.504-.924a1.464 1.464 0 0 0-.96-.336c-.536 0-.952.196-1.248.588-.296.384-.444.924-.444 1.62 0 .696.148 1.24.444 1.632.296.384.712.576 1.248.576.384 0 .712-.12.984-.36.28-.24.452-.576.516-1.008l1.356.072a2.714 2.714 0 0 1-1.512 2.124 3.117 3.117 0 0 1-1.344.288c-.608 0-1.14-.136-1.596-.408a2.807 2.807 0 0 1-1.068-1.152c-.248-.504-.372-1.092-.372-1.764 0-.672.124-1.256.372-1.752a2.79 2.79 0 0 1 1.068-1.164c.456-.272.988-.408 1.596-.408.472 0 .912.096 1.32.288.408.184.744.452 1.008.804.264.344.424.748.48 1.212l-1.344.072ZM386.103 24.64l1.788 4.992 1.74-4.992h1.296l-2.544 7.104c-.128.36-.32.624-.576.792-.248.176-.568.264-.96.264h-.948v-1.044h.756c.168 0 .3-.032.396-.096a.61.61 0 0 0 .24-.324l.204-.528h-.396l-2.304-6.168h1.308ZM384.028 28.108c-.16.96-.544 1.716-1.152 2.268-.608.544-1.4.816-2.376.816-.808 0-1.508-.192-2.1-.576a3.861 3.861 0 0 1-1.368-1.596c-.32-.68-.48-1.436-.48-2.268 0-.832.156-1.588.468-2.268.32-.68.776-1.216 1.368-1.608.6-.392 1.304-.588 2.112-.588.92 0 1.68.26 2.28.78.608.512 1.004 1.224 1.188 2.136l-1.38.072c-.12-.568-.364-1.008-.732-1.32-.368-.312-.824-.468-1.368-.468-.576 0-1.056.144-1.44.432-.384.288-.668.68-.852 1.176a4.731 4.731 0 0 0-.276 1.656c0 .608.092 1.156.276 1.644.184.488.468.876.852 1.164.392.288.872.432 1.44.432.576 0 1.048-.168 1.416-.504.376-.344.62-.828.732-1.452l1.392.072Z"/>
      <path fill="#DBFE01" d="M348.893 27.917c0 2.473-2.004 8.307-4.477 8.307-2.473 0-4.478-5.834-4.478-8.307a4.478 4.478 0 0 1 8.955 0Z"/>
    </g>
    <path fill="#222221" d="M478 43H139v2h339v-2Z" mask="url(#path-3-inside-1_963_12539)"/>
    <path fill="#222221" d="M138 0v271h2V0h-2Z" mask="url(#path-24-inside-2_963_12539)"/>
    <path fill="#DBFE01" d="m42.408 24.64.048 1.032c.152-.376.38-.664.684-.864.312-.208.684-.312 1.116-.312.456 0 .844.116 1.164.348.32.224.548.548.684.972.144-.432.376-.76.696-.984.328-.224.732-.336 1.212-.336.424 0 .788.096 1.092.288.312.184.548.456.708.816.168.36.252.796.252 1.308V31H48.78v-3.696c0-.56-.096-.984-.288-1.272a.929.929 0 0 0-.828-.444c-.296 0-.552.068-.768.204-.208.128-.364.32-.468.576-.104.256-.156.568-.156.936V31h-1.224v-3.696a2.9 2.9 0 0 0-.132-.936c-.088-.256-.216-.448-.384-.576a.924.924 0 0 0-.6-.204c-.288 0-.54.068-.756.204a1.305 1.305 0 0 0-.48.588 2.453 2.453 0 0 0-.156.924V31h-1.296v-6.36h1.164ZM33.983 26.548c.129-.64.428-1.14.9-1.5.48-.368 1.088-.552 1.825-.552.872 0 1.535.232 1.992.696.463.456.695 1.124.695 2.004v2.364c0 .144.032.252.096.324.065.064.16.096.288.096h.264V31H39.577a2.297 2.297 0 0 1-.624-.06 1.068 1.068 0 0 1-.517-.288c-.136-.144-.212-.352-.227-.624-.152.32-.404.588-.756.804-.352.208-.78.312-1.285.312-.656 0-1.203-.164-1.644-.492-.431-.328-.648-.768-.648-1.32 0-.408.096-.736.288-.984.193-.248.457-.44.793-.576.335-.136.78-.26 1.331-.372l1.813-.348c-.008-.512-.129-.888-.36-1.128-.224-.248-.569-.372-1.032-.372-.36 0-.66.092-.9.276-.24.184-.404.452-.492.804l-1.333-.084Zm1.236 2.76a.74.74 0 0 0 .313.612c.208.152.512.228.912.228.32 0 .607-.076.863-.228.256-.16.456-.392.6-.696.145-.312.217-.688.217-1.128v-.06l-1.345.24-.216.036c-.328.056-.58.112-.756.168a.9.9 0 0 0-.431.288c-.104.128-.157.308-.157.54ZM26.82 27.82c0-.672.125-1.256.373-1.752a2.79 2.79 0 0 1 1.068-1.164c.456-.272.988-.408 1.596-.408.52 0 .992.12 1.416.36.432.232.776.596 1.032 1.092.264.488.408 1.096.432 1.824v.42h-4.548c.04.584.204 1.04.492 1.368.288.32.68.48 1.176.48.32 0 .608-.084.864-.252.256-.168.452-.404.588-.708l1.344.096c-.192.6-.544 1.08-1.056 1.44-.504.352-1.084.528-1.74.528-.608 0-1.14-.136-1.596-.408a2.807 2.807 0 0 1-1.068-1.152c-.248-.504-.372-1.092-.372-1.764Zm4.56-.6c-.08-.56-.255-.968-.527-1.224a1.376 1.376 0 0 0-.996-.396c-.456 0-.828.144-1.116.432-.28.28-.46.676-.54 1.188h3.18ZM26.84 23.68h-2.604V31h-1.32v-7.32h-2.604v-1.2h6.528v1.2Z"/>
    <path fill="#222221" d="M139 270H0v2h139v-2Z" mask="url(#path-30-inside-3_963_12539)"/>
    <path fill="#222221" d="M0 44h139v-2H0v2Zm139 36H0v2h139v-2Z" mask="url(#path-32-inside-4_963_12539)"/>
    <path fill="#F8F8F7" d="M69.105 57.48h1.296V66h-1.2l-.036-.9a1.913 1.913 0 0 1-.804.768 2.5 2.5 0 0 1-1.176.276c-.544 0-1.02-.136-1.428-.408-.408-.272-.72-.656-.936-1.152-.216-.504-.324-1.092-.324-1.764 0-.672.108-1.256.324-1.752.216-.504.528-.892.936-1.164.408-.272.884-.408 1.428-.408.416 0 .796.088 1.14.264.344.176.604.416.78.72v-3Zm-.108 6.504c.136-.336.204-.724.204-1.164 0-.456-.068-.852-.204-1.188a1.73 1.73 0 0 0-.588-.78 1.482 1.482 0 0 0-.888-.276c-.52 0-.932.204-1.236.612-.304.4-.456.944-.456 1.632 0 .672.152 1.208.456 1.608.312.4.724.6 1.236.6.336 0 .632-.088.888-.264a1.73 1.73 0 0 0 .588-.78ZM59.096 59.64l.06 1.704-.156-.12c.104-.584.34-1.016.708-1.296.368-.288.82-.432 1.356-.432.696 0 1.232.224 1.608.672.376.44.564 1.02.564 1.74V66H61.94v-3.696c0-.384-.04-.7-.12-.948-.08-.256-.212-.448-.396-.576-.176-.128-.408-.192-.696-.192-.472 0-.84.148-1.104.444-.264.288-.396.712-.396 1.272V66h-1.296v-6.36h1.164ZM50.657 62.82c0-.672.124-1.256.372-1.752a2.79 2.79 0 0 1 1.068-1.164c.456-.272.988-.408 1.596-.408.52 0 .992.12 1.416.36.432.232.776.596 1.032 1.092.264.488.408 1.096.432 1.824v.42h-4.548c.04.584.204 1.04.492 1.368.288.32.68.48 1.176.48.32 0 .608-.084.864-.252.256-.168.452-.404.588-.708l1.344.096c-.192.6-.544 1.08-1.056 1.44-.504.352-1.084.528-1.74.528-.608 0-1.14-.136-1.596-.408a2.807 2.807 0 0 1-1.068-1.152c-.248-.504-.372-1.092-.372-1.764Zm4.56-.6c-.08-.56-.256-.968-.528-1.224a1.376 1.376 0 0 0-.996-.396c-.456 0-.828.144-1.116.432-.28.28-.46.676-.54 1.188h3.18ZM48.18 58.2v5.964c0 .256.06.452.18.588.128.128.312.192.552.192h.948V66h-1.068c-.624 0-1.1-.156-1.428-.468-.32-.312-.48-.768-.48-1.368V58.2h1.296Zm1.692 1.44v1.056h-3.948V59.64h3.948ZM40.545 59.64l.06 1.704-.156-.12c.104-.584.34-1.016.708-1.296.368-.288.82-.432 1.356-.432.696 0 1.232.224 1.608.672.376.44.564 1.02.564 1.74V66h-1.296v-3.696c0-.384-.04-.7-.12-.948-.08-.256-.212-.448-.396-.576-.176-.128-.408-.192-.696-.192-.472 0-.84.148-1.104.444-.264.288-.396.712-.396 1.272V66H39.38v-6.36h1.164ZM35.002 66.144c-.608 0-1.14-.136-1.596-.408a2.807 2.807 0 0 1-1.068-1.152c-.248-.504-.372-1.092-.372-1.764 0-.672.124-1.256.372-1.752.248-.504.6-.892 1.056-1.164.464-.272 1-.408 1.608-.408.608 0 1.14.136 1.596.408.456.272.808.66 1.056 1.164.256.496.384 1.08.384 1.752 0 .672-.124 1.26-.372 1.764-.248.496-.604.88-1.068 1.152-.456.272-.988.408-1.596.408Zm0-1.116c.536 0 .952-.192 1.248-.576.296-.392.444-.936.444-1.632 0-.696-.148-1.236-.444-1.62-.296-.392-.712-.588-1.248-.588s-.952.196-1.248.588c-.296.384-.444.924-.444 1.62 0 .696.148 1.24.444 1.632.296.384.712.576 1.248.576ZM29.237 59.64l.048 1.728-.108-.084c.08-.568.248-.984.504-1.248s.624-.396 1.104-.396h.6v1.056h-.612c-.328 0-.6.06-.816.18-.208.12-.364.3-.468.54-.096.232-.144.524-.144.876V66h-1.296v-6.36h1.188ZM26.564 57.48v1.2h-4.92l.708-.708v3.9l-.708-.624h4.704v1.176h-4.704l.708-.624V66h-1.32v-8.52h5.532Z"/>
    <path fill="#222221" d="M139 118H0v2h139v-2Z" mask="url(#path-42-inside-5_963_12539)"/>
    <path fill="#F8F8F7" d="M67.605 95.48h1.296V104h-1.2l-.036-.9a1.913 1.913 0 0 1-.804.768 2.5 2.5 0 0 1-1.176.276c-.544 0-1.02-.136-1.428-.408-.408-.272-.72-.656-.936-1.152-.216-.504-.324-1.092-.324-1.764 0-.672.108-1.256.324-1.752.216-.504.528-.892.936-1.164.408-.272.884-.408 1.428-.408.416 0 .796.088 1.14.264.344.176.604.416.78.72v-3Zm-.108 6.504c.136-.336.204-.724.204-1.164 0-.456-.068-.852-.204-1.188a1.73 1.73 0 0 0-.588-.78 1.482 1.482 0 0 0-.888-.276c-.52 0-.932.204-1.236.612-.304.4-.456.944-.456 1.632 0 .672.152 1.208.456 1.608.312.4.724.6 1.236.6.336 0 .632-.088.888-.264a1.73 1.73 0 0 0 .588-.78ZM57.596 97.64l.06 1.704-.156-.12c.104-.584.34-1.016.708-1.296.368-.288.82-.432 1.356-.432.696 0 1.232.224 1.608.672.376.44.564 1.02.564 1.74V104H60.44v-3.696c0-.384-.04-.7-.12-.948-.08-.256-.212-.448-.396-.576-.176-.128-.408-.192-.696-.192-.472 0-.84.148-1.104.444-.264.288-.396.712-.396 1.272V104h-1.296v-6.36h1.164ZM49.157 100.82c0-.672.124-1.256.372-1.752a2.79 2.79 0 0 1 1.068-1.164c.456-.272.988-.408 1.596-.408.52 0 .992.12 1.416.36.432.232.776.596 1.032 1.092.264.488.408 1.096.432 1.824v.42h-4.548c.04.584.204 1.04.492 1.368.288.32.68.48 1.176.48.32 0 .608-.084.864-.252.256-.168.452-.404.588-.708l1.344.096c-.192.6-.544 1.08-1.056 1.44-.504.352-1.084.528-1.74.528-.608 0-1.14-.136-1.596-.408a2.807 2.807 0 0 1-1.068-1.152c-.248-.504-.372-1.092-.372-1.764Zm4.56-.6c-.08-.56-.256-.968-.528-1.224a1.376 1.376 0 0 0-.996-.396c-.456 0-.828.144-1.116.432-.28.28-.46.676-.54 1.188h3.18ZM44.18 95.48v5.28l2.797-3.12h1.644l-2.484 2.664L48.74 104h-1.512l-1.944-2.88-1.104 1.2V104h-1.296v-8.52h1.296ZM40.263 99.872c-.064-.392-.232-.7-.504-.924a1.464 1.464 0 0 0-.96-.336c-.536 0-.952.196-1.248.588-.296.384-.444.924-.444 1.62 0 .696.148 1.24.444 1.632.296.384.712.576 1.248.576.384 0 .712-.12.984-.36.28-.24.452-.576.516-1.008l1.356.072a2.714 2.714 0 0 1-1.512 2.124 3.117 3.117 0 0 1-1.344.288c-.608 0-1.14-.136-1.596-.408a2.807 2.807 0 0 1-1.068-1.152c-.248-.504-.372-1.092-.372-1.764 0-.672.124-1.256.372-1.752a2.79 2.79 0 0 1 1.068-1.164c.456-.272.988-.408 1.596-.408.472 0 .912.096 1.32.288.408.184.744.452 1.008.804.264.344.424.748.48 1.212l-1.344.072ZM28.898 99.548c.128-.64.428-1.14.9-1.5.48-.368 1.088-.552 1.824-.552.872 0 1.536.232 1.992.696.464.456.696 1.124.696 2.004v2.364c0 .144.032.252.096.324.064.064.16.096.288.096h.264V104H34.49a2.297 2.297 0 0 1-.624-.06 1.068 1.068 0 0 1-.516-.288c-.136-.144-.212-.352-.228-.624-.152.32-.404.588-.756.804-.352.208-.78.312-1.284.312-.656 0-1.204-.164-1.644-.492-.432-.328-.648-.768-.648-1.32 0-.408.096-.736.288-.984.192-.248.456-.44.792-.576.336-.136.78-.26 1.332-.372l1.812-.348c-.008-.512-.128-.888-.36-1.128-.224-.248-.568-.372-1.032-.372-.36 0-.66.092-.9.276-.24.184-.404.452-.492.804l-1.332-.084Zm1.236 2.76a.74.74 0 0 0 .312.612c.208.152.512.228.912.228.32 0 .608-.076.864-.228.256-.16.456-.392.6-.696.144-.312.216-.688.216-1.128v-.06l-1.344.24-.216.036c-.328.056-.58.112-.756.168a.9.9 0 0 0-.432.288c-.104.128-.156.308-.156.54ZM21.032 95.48h3c1.056 0 1.848.196 2.376.588.528.384.792.976.792 1.776 0 .36-.076.672-.228.936a1.517 1.517 0 0 1-.672.612c-.288.144-.628.22-1.02.228l-.012-.048c.72.016 1.28.204 1.68.564.408.352.612.836.612 1.452 0 .784-.264 1.384-.792 1.8-.52.408-1.272.612-2.256.612h-3.48v-8.52Zm3.492 7.332c.536 0 .948-.108 1.236-.324.296-.224.444-.54.444-.948 0-.416-.148-.736-.444-.96-.288-.232-.7-.348-1.236-.348h-2.172v2.58h2.172Zm-.444-3.708c.56 0 .992-.104 1.296-.312.312-.208.468-.508.468-.9 0-.416-.148-.724-.444-.924-.296-.2-.736-.3-1.32-.3h-1.728v2.436h1.728Z"/>
    <path fill="#222221" d="M139 156H0v2h139v-2Z" mask="url(#path-51-inside-6_963_12539)"/>
    <path fill="#474743" d="M58.63 139.148c0-.344.08-.648.24-.912a1.62 1.62 0 0 1 .636-.636c.264-.16.568-.24.912-.24h6.768c.344 0 .648.08.912.24.272.152.484.364.636.636.16.264.24.568.24.912v.024c0 .344-.08.652-.24.924a1.732 1.732 0 0 1-.636.636 1.795 1.795 0 0 1-.912.228h-6.768c-.344 0-.648-.076-.912-.228a1.732 1.732 0 0 1-.636-.636c-.16-.272-.24-.58-.24-.924v-.024Z"/>
    <path fill="#474743" d="M51.892 139.148c0-.344.08-.648.24-.912a1.62 1.62 0 0 1 .636-.636c.264-.16.568-.24.912-.24h6.768c.344 0 .648.08.912.24.272.152.484.364.636.636.16.264.24.568.24.912v.024c0 .344-.08.652-.24.924a1.732 1.732 0 0 1-.636.636 1.795 1.795 0 0 1-.912.228H53.68c-.344 0-.648-.076-.912-.228a1.732 1.732 0 0 1-.636-.636c-.16-.272-.24-.58-.24-.924v-.024Z"/>
    <path fill="#474743" d="M45.153 139.148c0-.344.08-.648.24-.912a1.62 1.62 0 0 1 .636-.636c.264-.16.568-.24.912-.24h6.768c.344 0 .648.08.912.24.272.152.484.364.636.636.16.264.24.568.24.912v.024c0 .344-.08.652-.24.924a1.732 1.732 0 0 1-.636.636 1.795 1.795 0 0 1-.912.228h-6.768c-.344 0-.648-.076-.912-.228a1.732 1.732 0 0 1-.636-.636c-.16-.272-.24-.58-.24-.924v-.024Z"/>
    <path fill="#474743" d="M38.415 139.148c0-.344.08-.648.24-.912a1.62 1.62 0 0 1 .636-.636c.264-.16.568-.24.912-.24h6.768c.344 0 .648.08.912.24.272.152.484.364.636.636.16.264.24.568.24.912v.024c0 .344-.08.652-.24.924a1.732 1.732 0 0 1-.636.636 1.795 1.795 0 0 1-.912.228h-6.768c-.344 0-.648-.076-.912-.228a1.732 1.732 0 0 1-.636-.636c-.16-.272-.24-.58-.24-.924v-.024Z"/>
    <path fill="#474743" d="M31.677 139.148c0-.344.08-.648.24-.912a1.62 1.62 0 0 1 .636-.636c.264-.16.568-.24.912-.24h6.768c.344 0 .648.08.912.24.272.152.484.364.636.636.16.264.24.568.24.912v.024c0 .344-.08.652-.24.924a1.732 1.732 0 0 1-.636.636 1.795 1.795 0 0 1-.912.228h-6.768c-.344 0-.648-.076-.912-.228a1.732 1.732 0 0 1-.636-.636c-.16-.272-.24-.58-.24-.924v-.024Z"/>
    <path fill="#474743" d="M24.939 139.148c0-.344.08-.648.24-.912a1.62 1.62 0 0 1 .636-.636c.263-.16.567-.24.912-.24h6.768c.344 0 .648.08.912.24.272.152.484.364.636.636.16.264.24.568.24.912v.024c0 .344-.08.652-.24.924a1.732 1.732 0 0 1-.636.636 1.795 1.795 0 0 1-.912.228h-6.768c-.345 0-.649-.076-.913-.228a1.732 1.732 0 0 1-.636-.636c-.16-.272-.24-.58-.24-.924v-.024Z"/>
    <path fill="#474743" d="M18.2 139.148c0-.344.08-.648.24-.912a1.62 1.62 0 0 1 .636-.636c.264-.16.568-.24.912-.24h6.768c.344 0 .648.08.912.24.272.152.484.364.636.636.16.264.24.568.24.912v.024c0 .344-.08.652-.24.924a1.732 1.732 0 0 1-.636.636 1.795 1.795 0 0 1-.912.228h-6.768c-.344 0-.648-.076-.912-.228a1.732 1.732 0 0 1-.636-.636c-.16-.272-.24-.58-.24-.924v-.024Z"/>
    <path fill="#222221" d="M139 194H0v2h139v-2Z" mask="url(#path-60-inside-7_963_12539)"/>
    <path fill="#474743" d="M58.63 177.148c0-.344.08-.648.24-.912a1.62 1.62 0 0 1 .636-.636c.264-.16.568-.24.912-.24h6.768c.344 0 .648.08.912.24.272.152.484.364.636.636.16.264.24.568.24.912v.024c0 .344-.08.652-.24.924a1.732 1.732 0 0 1-.636.636 1.795 1.795 0 0 1-.912.228h-6.768c-.344 0-.648-.076-.912-.228a1.732 1.732 0 0 1-.636-.636c-.16-.272-.24-.58-.24-.924v-.024Z"/>
    <path fill="#474743" d="M51.892 177.148c0-.344.08-.648.24-.912a1.62 1.62 0 0 1 .636-.636c.264-.16.568-.24.912-.24h6.768c.344 0 .648.08.912.24.272.152.484.364.636.636.16.264.24.568.24.912v.024c0 .344-.08.652-.24.924a1.732 1.732 0 0 1-.636.636 1.795 1.795 0 0 1-.912.228H53.68c-.344 0-.648-.076-.912-.228a1.732 1.732 0 0 1-.636-.636c-.16-.272-.24-.58-.24-.924v-.024Z"/>
    <path fill="#474743" d="M45.153 177.148c0-.344.08-.648.24-.912a1.62 1.62 0 0 1 .636-.636c.264-.16.568-.24.912-.24h6.768c.344 0 .648.08.912.24.272.152.484.364.636.636.16.264.24.568.24.912v.024c0 .344-.08.652-.24.924a1.732 1.732 0 0 1-.636.636 1.795 1.795 0 0 1-.912.228h-6.768c-.344 0-.648-.076-.912-.228a1.732 1.732 0 0 1-.636-.636c-.16-.272-.24-.58-.24-.924v-.024Z"/>
    <path fill="#474743" d="M38.415 177.148c0-.344.08-.648.24-.912a1.62 1.62 0 0 1 .636-.636c.264-.16.568-.24.912-.24h6.768c.344 0 .648.08.912.24.272.152.484.364.636.636.16.264.24.568.24.912v.024c0 .344-.08.652-.24.924a1.732 1.732 0 0 1-.636.636 1.795 1.795 0 0 1-.912.228h-6.768c-.344 0-.648-.076-.912-.228a1.732 1.732 0 0 1-.636-.636c-.16-.272-.24-.58-.24-.924v-.024Z"/>
    <path fill="#474743" d="M31.677 177.148c0-.344.08-.648.24-.912a1.62 1.62 0 0 1 .636-.636c.264-.16.568-.24.912-.24h6.768c.344 0 .648.08.912.24.272.152.484.364.636.636.16.264.24.568.24.912v.024c0 .344-.08.652-.24.924a1.732 1.732 0 0 1-.636.636 1.795 1.795 0 0 1-.912.228h-6.768c-.344 0-.648-.076-.912-.228a1.732 1.732 0 0 1-.636-.636c-.16-.272-.24-.58-.24-.924v-.024Z"/>
    <path fill="#474743" d="M24.939 177.148c0-.344.08-.648.24-.912a1.62 1.62 0 0 1 .636-.636c.263-.16.567-.24.912-.24h6.768c.344 0 .648.08.912.24.272.152.484.364.636.636.16.264.24.568.24.912v.024c0 .344-.08.652-.24.924a1.732 1.732 0 0 1-.636.636 1.795 1.795 0 0 1-.912.228h-6.768c-.345 0-.649-.076-.913-.228a1.732 1.732 0 0 1-.636-.636c-.16-.272-.24-.58-.24-.924v-.024Z"/>
    <path fill="#474743" d="M18.2 177.148c0-.344.08-.648.24-.912a1.62 1.62 0 0 1 .636-.636c.264-.16.568-.24.912-.24h6.768c.344 0 .648.08.912.24.272.152.484.364.636.636.16.264.24.568.24.912v.024c0 .344-.08.652-.24.924a1.732 1.732 0 0 1-.636.636 1.795 1.795 0 0 1-.912.228h-6.768c-.344 0-.648-.076-.912-.228a1.732 1.732 0 0 1-.636-.636c-.16-.272-.24-.58-.24-.924v-.024Z"/>
    <path fill="#222221" d="M139 232H0v2h139v-2Z" mask="url(#path-69-inside-8_963_12539)"/>
    <path fill="#474743" d="M58.63 215.148c0-.344.08-.648.24-.912a1.62 1.62 0 0 1 .636-.636c.264-.16.568-.24.912-.24h6.768c.344 0 .648.08.912.24.272.152.484.364.636.636.16.264.24.568.24.912v.024c0 .344-.08.652-.24.924a1.732 1.732 0 0 1-.636.636 1.795 1.795 0 0 1-.912.228h-6.768c-.344 0-.648-.076-.912-.228a1.732 1.732 0 0 1-.636-.636c-.16-.272-.24-.58-.24-.924v-.024Z"/>
    <path fill="#474743" d="M51.892 215.148c0-.344.08-.648.24-.912a1.62 1.62 0 0 1 .636-.636c.264-.16.568-.24.912-.24h6.768c.344 0 .648.08.912.24.272.152.484.364.636.636.16.264.24.568.24.912v.024c0 .344-.08.652-.24.924a1.732 1.732 0 0 1-.636.636 1.795 1.795 0 0 1-.912.228H53.68c-.344 0-.648-.076-.912-.228a1.732 1.732 0 0 1-.636-.636c-.16-.272-.24-.58-.24-.924v-.024Z"/>
    <path fill="#474743" d="M45.153 215.148c0-.344.08-.648.24-.912a1.62 1.62 0 0 1 .636-.636c.264-.16.568-.24.912-.24h6.768c.344 0 .648.08.912.24.272.152.484.364.636.636.16.264.24.568.24.912v.024c0 .344-.08.652-.24.924a1.732 1.732 0 0 1-.636.636 1.795 1.795 0 0 1-.912.228h-6.768c-.344 0-.648-.076-.912-.228a1.732 1.732 0 0 1-.636-.636c-.16-.272-.24-.58-.24-.924v-.024Z"/>
    <path fill="#474743" d="M38.415 215.148c0-.344.08-.648.24-.912a1.62 1.62 0 0 1 .636-.636c.264-.16.568-.24.912-.24h6.768c.344 0 .648.08.912.24.272.152.484.364.636.636.16.264.24.568.24.912v.024c0 .344-.08.652-.24.924a1.732 1.732 0 0 1-.636.636 1.795 1.795 0 0 1-.912.228h-6.768c-.344 0-.648-.076-.912-.228a1.732 1.732 0 0 1-.636-.636c-.16-.272-.24-.58-.24-.924v-.024Z"/>
    <path fill="#474743" d="M31.677 215.148c0-.344.08-.648.24-.912a1.62 1.62 0 0 1 .636-.636c.264-.16.568-.24.912-.24h6.768c.344 0 .648.08.912.24.272.152.484.364.636.636.16.264.24.568.24.912v.024c0 .344-.08.652-.24.924a1.732 1.732 0 0 1-.636.636 1.795 1.795 0 0 1-.912.228h-6.768c-.344 0-.648-.076-.912-.228a1.732 1.732 0 0 1-.636-.636c-.16-.272-.24-.58-.24-.924v-.024Z"/>
    <path fill="#474743" d="M24.939 215.148c0-.344.08-.648.24-.912a1.62 1.62 0 0 1 .636-.636c.263-.16.567-.24.912-.24h6.768c.344 0 .648.08.912.24.272.152.484.364.636.636.16.264.24.568.24.912v.024c0 .344-.08.652-.24.924a1.732 1.732 0 0 1-.636.636 1.795 1.795 0 0 1-.912.228h-6.768c-.345 0-.649-.076-.913-.228a1.732 1.732 0 0 1-.636-.636c-.16-.272-.24-.58-.24-.924v-.024Z"/>
    <path fill="#474743" d="M18.2 215.148c0-.344.08-.648.24-.912a1.62 1.62 0 0 1 .636-.636c.264-.16.568-.24.912-.24h6.768c.344 0 .648.08.912.24.272.152.484.364.636.636.16.264.24.568.24.912v.024c0 .344-.08.652-.24.924a1.732 1.732 0 0 1-.636.636 1.795 1.795 0 0 1-.912.228h-6.768c-.344 0-.648-.076-.912-.228a1.732 1.732 0 0 1-.636-.636c-.16-.272-.24-.58-.24-.924v-.024ZM93.235 253.148c0-.344.08-.648.24-.912a1.62 1.62 0 0 1 .636-.636c.264-.16.568-.24.912-.24h6.768c.344 0 .648.08.912.24.272.152.484.364.636.636.16.264.24.568.24.912v.024c0 .344-.08.652-.24.924a1.732 1.732 0 0 1-.636.636 1.795 1.795 0 0 1-.912.228h-6.768c-.344 0-.648-.076-.912-.228a1.732 1.732 0 0 1-.636-.636c-.16-.272-.24-.58-.24-.924v-.024Z"/>
    <path fill="#474743" d="M86.497 253.148c0-.344.08-.648.24-.912a1.62 1.62 0 0 1 .636-.636c.264-.16.568-.24.912-.24h6.768c.344 0 .648.08.912.24.272.152.484.364.636.636.16.264.24.568.24.912v.024c0 .344-.08.652-.24.924a1.732 1.732 0 0 1-.636.636 1.795 1.795 0 0 1-.912.228h-6.768c-.344 0-.648-.076-.912-.228a1.732 1.732 0 0 1-.636-.636c-.16-.272-.24-.58-.24-.924v-.024Z"/>
    <path fill="#474743" d="M79.759 253.148c0-.344.08-.648.24-.912a1.62 1.62 0 0 1 .636-.636c.264-.16.568-.24.912-.24h6.768c.344 0 .648.08.912.24.272.152.484.364.636.636.16.264.24.568.24.912v.024c0 .344-.08.652-.24.924a1.732 1.732 0 0 1-.636.636 1.795 1.795 0 0 1-.912.228h-6.768c-.344 0-.648-.076-.912-.228a1.732 1.732 0 0 1-.636-.636c-.16-.272-.24-.58-.24-.924v-.024Z"/>
    <path fill="#474743" d="M73.02 253.148c0-.344.08-.648.24-.912a1.62 1.62 0 0 1 .636-.636c.264-.16.569-.24.912-.24h6.768c.345 0 .649.08.913.24.271.152.483.364.635.636.16.264.24.568.24.912v.024c0 .344-.08.652-.24.924a1.732 1.732 0 0 1-.635.636 1.795 1.795 0 0 1-.913.228H74.81c-.344 0-.648-.076-.912-.228a1.732 1.732 0 0 1-.637-.636c-.16-.272-.24-.58-.24-.924v-.024Z"/>
    <path fill="#474743" d="M66.282 253.148c0-.344.08-.648.24-.912a1.62 1.62 0 0 1 .636-.636c.264-.16.568-.24.912-.24h6.768c.344 0 .648.08.912.24.272.152.484.364.636.636.16.264.24.568.24.912v.024c0 .344-.08.652-.24.924a1.732 1.732 0 0 1-.636.636 1.795 1.795 0 0 1-.912.228H68.07c-.344 0-.648-.076-.912-.228a1.732 1.732 0 0 1-.636-.636c-.16-.272-.24-.58-.24-.924v-.024ZM45.153 253.148c0-.344.08-.648.24-.912a1.62 1.62 0 0 1 .636-.636c.264-.16.568-.24.912-.24h6.768c.344 0 .648.08.912.24.272.152.484.364.636.636.16.264.24.568.24.912v.024c0 .344-.08.652-.24.924a1.732 1.732 0 0 1-.636.636 1.795 1.795 0 0 1-.912.228h-6.768c-.344 0-.648-.076-.912-.228a1.732 1.732 0 0 1-.636-.636c-.16-.272-.24-.58-.24-.924v-.024Z"/>
    <path fill="#474743" d="M38.415 253.148c0-.344.08-.648.24-.912a1.62 1.62 0 0 1 .636-.636c.264-.16.568-.24.912-.24h6.768c.344 0 .648.08.912.24.272.152.484.364.636.636.16.264.24.568.24.912v.024c0 .344-.08.652-.24.924a1.732 1.732 0 0 1-.636.636 1.795 1.795 0 0 1-.912.228h-6.768c-.344 0-.648-.076-.912-.228a1.732 1.732 0 0 1-.636-.636c-.16-.272-.24-.58-.24-.924v-.024Z"/>
    <path fill="#474743" d="M31.677 253.148c0-.344.08-.648.24-.912a1.62 1.62 0 0 1 .636-.636c.264-.16.568-.24.912-.24h6.768c.344 0 .648.08.912.24.272.152.484.364.636.636.16.264.24.568.24.912v.024c0 .344-.08.652-.24.924a1.732 1.732 0 0 1-.636.636 1.795 1.795 0 0 1-.912.228h-6.768c-.344 0-.648-.076-.912-.228a1.732 1.732 0 0 1-.636-.636c-.16-.272-.24-.58-.24-.924v-.024Z"/>
    <path fill="#474743" d="M24.939 253.148c0-.344.08-.648.24-.912a1.62 1.62 0 0 1 .636-.636c.263-.16.567-.24.912-.24h6.768c.344 0 .648.08.912.24.272.152.484.364.636.636.16.264.24.568.24.912v.024c0 .344-.08.652-.24.924a1.732 1.732 0 0 1-.636.636 1.795 1.795 0 0 1-.912.228h-6.768c-.345 0-.649-.076-.913-.228a1.732 1.732 0 0 1-.636-.636c-.16-.272-.24-.58-.24-.924v-.024Z"/>
    <path fill="#474743" d="M18.2 253.148c0-.344.08-.648.24-.912a1.62 1.62 0 0 1 .636-.636c.264-.16.568-.24.912-.24h6.768c.344 0 .648.08.912.24.272.152.484.364.636.636.16.264.24.568.24.912v.024c0 .344-.08.652-.24.924a1.732 1.732 0 0 1-.636.636 1.795 1.795 0 0 1-.912.228h-6.768c-.344 0-.648-.076-.912-.228a1.732 1.732 0 0 1-.636-.636c-.16-.272-.24-.58-.24-.924v-.024Z"/>
    <g clip-path="url(#c)">
      <path fill="#DBFE01" d="M195 52h141v20H195z"/>
      <path fill="#2C3300" d="M336 52h57v20h-57z"/>
    </g>
    <rect width="169.5" height="19.5" x="195.25" y="52.25" stroke="#586600" stroke-width=".5" rx="5.75"/>
    <g clip-path="url(#d)">
      <path fill="#DBFE01" d="M235 90h102v20H235z"/>
      <path fill="#2C3300" d="M337 90h21v20h-21z"/>
    </g>
    <rect width="122.5" height="19.5" x="235.25" y="90.25" stroke="#586600" stroke-width=".5" rx="5.75"/>
    <g clip-path="url(#e)">
      <path fill="#222221" d="M205 128h102v20H205z"/>
      <path fill="#191918" d="M307 128h12v20h-12z"/>
    </g>
    <rect width="113.5" height="19.5" x="205.25" y="128.25" stroke="#222221" stroke-width=".5" rx="5.75"/>
    <rect width="163.5" height="19.5" x="153.25" y="204.25" stroke="#222221" stroke-width=".5" rx="5.75"/>
    <path fill="#222221" d="M153 204h150v20H153z"/>
    <g clip-path="url(#f)">
      <path fill="#222221" d="M234.996 166h102v20h-102z"/>
      <path fill="#191918" d="M336.996 166h12v20h-12z"/>
    </g>
    <rect width="113.5" height="19.5" x="235.246" y="166.25" stroke="#222221" stroke-width=".5" rx="5.75"/>
    <rect width="1" height="230" x="344" y="40" fill="url(#g)" rx=".5"/>
    <path fill="#DBFE01" d="M426.011 58.9v4.63l2.51-2.83h1.17l-2.07 2.25 2.17 3.05h-1.06l-1.7-2.46-1.02 1.11V66h-.86v-7.1h.86ZM423.083 62.48a1.21 1.21 0 0 0-.45-.79 1.356 1.356 0 0 0-.86-.29c-.487 0-.864.173-1.13.52-.267.34-.4.817-.4 1.43s.133 1.093.4 1.44c.266.34.643.51 1.13.51.34 0 .633-.103.88-.31.253-.213.41-.503.47-.87l.91.06c-.054.393-.19.737-.41 1.03-.214.293-.484.52-.81.68-.32.153-.667.23-1.04.23-.487 0-.914-.113-1.28-.34a2.25 2.25 0 0 1-.85-.96c-.2-.42-.3-.91-.3-1.47 0-.56.1-1.047.3-1.46.2-.42.483-.743.85-.97.366-.227.793-.34 1.28-.34.36 0 .7.077 1.02.23.326.147.593.36.8.64.213.28.343.603.39.97l-.9.06ZM413.769 62.26c.106-.513.353-.92.74-1.22.386-.307.863-.46 1.43-.46.686 0 1.213.193 1.58.58.373.38.56.927.56 1.64v2.12c0 .107.026.187.08.24.053.053.133.08.24.08h.22V66h-.42a1.867 1.867 0 0 1-.5-.08.755.755 0 0 1-.34-.25c-.087-.12-.13-.28-.13-.48-.12.26-.327.48-.62.66-.287.18-.627.27-1.02.27-.547 0-1.004-.137-1.37-.41a1.31 1.31 0 0 1-.54-1.1c0-.347.08-.623.24-.83.16-.207.38-.363.66-.47.28-.113.646-.213 1.1-.3l1.54-.3c-.007-.44-.117-.767-.33-.98-.207-.22-.524-.33-.95-.33-.327 0-.6.08-.82.24-.214.16-.36.39-.44.69l-.91-.07Zm.81 2.35c0 .22.093.4.28.54.193.14.473.21.84.21.293 0 .556-.067.79-.2.233-.14.416-.347.55-.62.133-.28.2-.62.2-1.02v-.05l-1.24.22-.2.03c-.294.053-.52.103-.68.15a.777.777 0 0 0-.39.25c-.1.113-.15.277-.15.49ZM411.136 60.7l.04 1.38-.08-.08c.06-.453.193-.783.4-.99.213-.206.52-.31.92-.31h.52v.76h-.52c-.267 0-.49.053-.67.16a.925.925 0 0 0-.39.46c-.08.2-.12.453-.12.76V66h-.86v-5.3h.76ZM409.423 59.76h-2.2V66h-.88v-6.24h-2.2v-.86h5.28v.86ZM397.152 60.7l.04 1.35-.11-.12c.093-.447.293-.783.6-1.01.313-.227.687-.34 1.12-.34.58 0 1.023.187 1.33.56.307.373.46.857.46 1.45V66h-.86v-3.17c0-.327-.04-.6-.12-.82a.937.937 0 0 0-.36-.5c-.16-.113-.37-.17-.63-.17-.427 0-.767.13-1.02.39-.247.253-.37.62-.37 1.1V66h-.86v-5.3h.78ZM392.027 66.16c-.673 0-1.253-.146-1.74-.44-.487-.3-.86-.726-1.12-1.28-.26-.56-.39-1.22-.39-1.98 0-.766.13-1.426.39-1.98.26-.56.633-.99 1.12-1.29.487-.3 1.067-.45 1.74-.45s1.253.15 1.74.45c.487.3.86.73 1.12 1.29.26.554.39 1.214.39 1.98 0 .76-.13 1.42-.39 1.98-.26.554-.633.98-1.12 1.28-.487.294-1.067.44-1.74.44Zm0-.86c.48 0 .893-.113 1.24-.34.353-.226.623-.553.81-.98.187-.426.28-.933.28-1.52 0-.593-.093-1.103-.28-1.53a2.157 2.157 0 0 0-.81-.98c-.347-.233-.76-.35-1.24-.35s-.897.117-1.25.35c-.347.227-.613.554-.8.98-.187.427-.28.937-.28 1.53 0 .587.093 1.094.28 1.52.187.427.453.754.8.98.353.227.77.34 1.25.34ZM377.086 66.44c0-.09-.01-.13-.05-.13l-.23.11c0-.05-.03-.08-.08-.1l-.08-.01c-.07 0-.1.01-.2.07-.03-.06-.07-.13-.1-.19-.26-.5-.53-1.25-.65-1.58-.06-.17-.12-.52-.19-1.05.08.05.14.07.17.07.04 0 .09-.07.13-.21.02.03.06.04.11.04.03 0 .07-.01.09-.04l.16-.24.18.06h.01c.02 0 .05-.03.1-.06s.09-.05.12-.05l.03.01c.16.08.27.22.32.44.12.51.23.76.36.76.11 0 .26-.13.42-.38.16-.25.32-.59.5-1 .01.08.02.12.04.12.06 0 .21-.35.58-.94.55-.89 1.91-2.6 2.26-2.84.26-.18.46-.35.6-.5-.02.1-.04.17-.04.2s.02.04.04.04l.28-.14v.04c0 .05.01.08.04.08.04 0 .2-.16.22-.22l-.02.14.34-.2-.08.18c.1-.07.18-.11.23-.11.05 0 .08.08.08.13 0 .08-.07.19-.18.33-.12.16-.42.47-1.32 1.5-.39.44-2.12 2.79-2.45 3.35l-.62 1.05c-.27.45-.44.74-.53.85-.09.11-.2.22-.33.32l-.09-.05-.08.05-.09.1ZM370.086 104.44c0-.09-.01-.13-.05-.13l-.23.11c0-.05-.03-.08-.08-.1l-.08-.01c-.07 0-.1.01-.2.07-.03-.06-.07-.13-.1-.19-.26-.5-.53-1.25-.65-1.58-.06-.17-.12-.52-.19-1.05.08.05.14.07.17.07.04 0 .09-.07.13-.21.02.03.06.04.11.04.03 0 .07-.01.09-.04l.16-.24.18.06h.01c.02 0 .05-.03.1-.06s.09-.05.12-.05l.03.01c.16.08.27.22.32.44.12.51.23.76.36.76.11 0 .26-.13.42-.38.16-.25.32-.59.5-1 .01.08.02.12.04.12.06 0 .21-.35.58-.94.55-.89 1.91-2.6 2.26-2.84.26-.18.46-.35.6-.5-.02.1-.04.17-.04.2s.02.04.04.04l.28-.14v.04c0 .05.01.08.04.08.04 0 .2-.16.22-.22l-.02.14.34-.2-.08.18c.1-.07.18-.11.23-.11.05 0 .08.08.08.13 0 .08-.07.19-.18.33-.12.16-.42.47-1.32 1.5-.39.44-2.12 2.79-2.45 3.35l-.62 1.05c-.27.45-.44.74-.53.85-.09.11-.2.22-.33.32l-.09-.05-.08.05-.09.1Z"/>
    <rect width="238.6" height="28" x="201.5" y="235.5" fill="#141413" rx="5.5"/>
    <rect width="238.6" height="28" x="201.5" y="235.5" stroke="#222221" rx="5.5"/>
    <g filter="url(#h)">
      <path fill="#141413" fill-rule="evenodd" d="M210.153 246.484a1.4 1.4 0 0 1-.082-2.055l.881-.881a1.4 1.4 0 0 1 2.035.059l.774.868a3 3 0 0 0 4.478 0l.774-.868a1.4 1.4 0 0 1 2.035-.059l.881.881a1.4 1.4 0 0 1-.082 2.055l-.682.582a3.2 3.2 0 0 0 0 4.868l.682.582a1.4 1.4 0 0 1 .082 2.055l-.858.858a1.4 1.4 0 0 1-2.055-.082l-.734-.86a3 3 0 0 0-4.564 0l-.734.86a1.4 1.4 0 0 1-2.055.082l-.858-.858a1.4 1.4 0 0 1 .082-2.055l.771-.658a3.1 3.1 0 0 0 0-4.716l-.771-.658Z" clip-rule="evenodd"/>
      <path stroke="url(#i)" stroke-width=".7" d="M209.824 244.181a1.75 1.75 0 0 0 .101 2.569l.772.658a2.751 2.751 0 0 1 0 4.184l-.772.658a1.75 1.75 0 0 0-.101 2.569l.857.857a1.75 1.75 0 0 0 2.569-.101l.734-.861a2.65 2.65 0 0 1 4.032 0l.734.861a1.75 1.75 0 0 0 2.569.101l.857-.857a1.75 1.75 0 0 0-.101-2.569l-.683-.582a2.85 2.85 0 0 1 0-4.336l.683-.582a1.75 1.75 0 0 0 .101-2.569l-.88-.88a1.75 1.75 0 0 0-2.544.073l-.774.868a2.65 2.65 0 0 1-3.956 0l-.774-.868a1.75 1.75 0 0 0-2.544-.073l-.88.88Z"/>
    </g>
    <g filter="url(#j)">
      <path fill="#141413" fill-rule="evenodd" d="M210.153 246.484a1.4 1.4 0 0 1-.082-2.055l.881-.881a1.4 1.4 0 0 1 2.035.059l.774.868a3 3 0 0 0 4.478 0l.774-.868a1.4 1.4 0 0 1 2.035-.059l.881.881a1.4 1.4 0 0 1-.082 2.055l-.682.582a3.2 3.2 0 0 0 0 4.868l.682.582a1.4 1.4 0 0 1 .082 2.055l-.858.858a1.4 1.4 0 0 1-2.055-.082l-.734-.86a3 3 0 0 0-4.564 0l-.734.86a1.4 1.4 0 0 1-2.055.082l-.858-.858a1.4 1.4 0 0 1 .082-2.055l.771-.658a3.1 3.1 0 0 0 0-4.716l-.771-.658Z" clip-rule="evenodd"/>
    </g>
    <path stroke="url(#k)" stroke-width="1.05" d="M209.7 244.057a1.926 1.926 0 0 0 .112 2.826l.771.658a2.575 2.575 0 0 1 0 3.918l-.771.658a1.926 1.926 0 0 0-.112 2.826l.857.857a1.926 1.926 0 0 0 2.826-.112l.734-.86a2.476 2.476 0 0 1 3.766 0l.734.86a1.926 1.926 0 0 0 2.826.112l.857-.857a1.926 1.926 0 0 0-.112-2.826l-.682-.582a2.675 2.675 0 0 1 0-4.07l.682-.582a1.926 1.926 0 0 0 .112-2.826l-.88-.88a1.925 1.925 0 0 0-2.798.08l-.774.869a2.476 2.476 0 0 1-3.696 0l-.773-.869a1.926 1.926 0 0 0-2.799-.08l-.88.88Z"/>
    <path fill="#F8F8F7" d="M278.335 255.735c-2.084 0-3.663-.957-3.696-2.923l2.536-.118c0 .538.336.992 1.109.992.521 0 .874-.286.874-.672 0-1.143-3.747-1.176-3.747-3.596 0-1.629 1.361-2.721 3.394-2.721 1.915 0 3.478.957 3.511 2.839l-2.553.101c-.017-.605-.37-.891-.958-.891-.37 0-.756.185-.756.588 0 1.109 3.797 1.025 3.797 3.478 0 1.798-1.445 2.923-3.511 2.923ZM273.335 245.958c-.789 0-1.361-.572-1.361-1.328 0-.856.723-1.528 1.613-1.528.79 0 1.361.571 1.361 1.327 0 .84-.722 1.529-1.613 1.529Zm-3.696 12.65c-.537 0-1.092-.101-1.579-.336l.386-2.234c.168.1.37.184.706.184.605 0 1.008-.369 1.126-1.092l1.428-8.198h2.654l-1.512 8.669c-.336 1.915-1.596 3.007-3.209 3.007ZM267.303 255.735c-.807 0-1.378-.605-1.378-1.394 0-.891.739-1.596 1.647-1.596.789 0 1.344.588 1.344 1.377 0 .907-.723 1.613-1.613 1.613ZM265.389 250.662c0 .504-.067.94-.218 1.377h-6.132c.168.857.79 1.462 1.73 1.462.706 0 1.26-.353 1.462-.605l2.688.118c-.588 1.276-2.15 2.721-4.284 2.721-2.302 0-4.116-1.747-4.116-4.133 0-2.469 2.083-4.905 4.906-4.905 2.184 0 3.964 1.646 3.964 3.965Zm-4.183-1.764c-.924 0-1.663.638-1.999 1.495h3.73c-.101-.756-.639-1.495-1.731-1.495ZM251.707 255.735c-2.083 0-3.662-.957-3.696-2.923l2.537-.118c0 .538.336.992 1.109.992.521 0 .873-.286.873-.672 0-1.143-3.746-1.176-3.746-3.596 0-1.629 1.361-2.721 3.394-2.721 1.915 0 3.477.957 3.511 2.839l-2.554.101c-.017-.605-.369-.891-.957-.891-.37 0-.756.185-.756.588 0 1.109 3.796 1.025 3.796 3.478 0 1.798-1.444 2.923-3.511 2.923ZM241.649 255.735c-2.285 0-3.427-1.747-3.024-3.998l.84-4.805h2.655l-.824 4.637c-.134.84.336 1.714 1.361 1.714.79 0 1.445-.622 1.579-1.479l.84-4.872h2.655l-1.495 8.568h-1.949l-.252-.789h-.084c-.454.554-1.26 1.024-2.302 1.024ZM239.234 243.74l-.453 2.671h-5.393l-.42 2.436h4.603l-.453 2.554h-4.604l-.722 4.099h-2.856l2.066-11.76h8.232Z"/>
    <path fill="#DBFE01" d="m428.533 252.67 1.75-6.09h1.288l-2.282 7.42h-1.512l-1.638-5.6-1.638 5.6h-1.512l-2.282-7.42h1.288l1.75 6.09 1.75-6.09h1.288l1.75 6.09ZM416.694 254.168c-.682 0-1.279-.159-1.792-.476a3.143 3.143 0 0 1-1.19-1.344c-.28-.588-.42-1.274-.42-2.058 0-.784.14-1.465.42-2.044.28-.588.676-1.041 1.19-1.358.513-.317 1.11-.476 1.792-.476.681 0 1.278.159 1.792.476.513.317.91.77 1.19 1.358.28.579.42 1.26.42 2.044s-.14 1.47-.42 2.058a3.15 3.15 0 0 1-1.19 1.344c-.514.317-1.111.476-1.792.476Zm0-1.148c.681 0 1.208-.238 1.582-.714.373-.485.56-1.157.56-2.016s-.187-1.526-.56-2.002c-.374-.485-.901-.728-1.582-.728-.682 0-1.209.243-1.582.728-.374.476-.56 1.143-.56 2.002 0 .859.186 1.531.56 2.016.373.476.9.714 1.582.714ZM405.184 246.118c0-.644.168-1.148.504-1.512.336-.364.84-.546 1.512-.546h1.148v1.064H407.2a.731.731 0 0 0-.588.266c-.149.177-.224.42-.224.728V254h-1.204v-7.882Zm-.994.462h4.06v1.064h-4.06v-1.064Zm6.79-2.52v8.428c0 .149.037.261.112.336.075.075.187.112.336.112h.644V254h-.84c-.429 0-.779-.135-1.05-.406s-.406-.621-.406-1.05v-8.484h1.204ZM397.403 244.06v6.482l3.514-3.962h1.638l-2.898 3.15 3.038 4.27h-1.484l-2.38-3.444-1.428 1.554V254h-1.204v-9.94h1.204ZM392.314 246.58l.056 1.932-.112-.112c.084-.635.27-1.097.56-1.386.298-.289.728-.434 1.288-.434h.728v1.064h-.728c-.374 0-.686.075-.938.224-.243.14-.425.355-.546.644-.112.28-.168.635-.168 1.064V254h-1.204v-7.42h1.064ZM386.137 254.168c-.681 0-1.279-.159-1.792-.476a3.15 3.15 0 0 1-1.19-1.344c-.28-.588-.42-1.274-.42-2.058 0-.784.14-1.465.42-2.044.28-.588.677-1.041 1.19-1.358.513-.317 1.111-.476 1.792-.476s1.279.159 1.792.476c.513.317.91.77 1.19 1.358.28.579.42 1.26.42 2.044s-.14 1.47-.42 2.058a3.15 3.15 0 0 1-1.19 1.344c-.513.317-1.111.476-1.792.476Zm0-1.148c.681 0 1.209-.238 1.582-.714.373-.485.56-1.157.56-2.016s-.187-1.526-.56-2.002c-.373-.485-.901-.728-1.582-.728s-1.209.243-1.582.728c-.373.476-.56 1.143-.56 2.002 0 .859.187 1.531.56 2.016.373.476.901.714 1.582.714ZM371.642 244.06l2.016 8.246 2.03-8.246h1.386l2.044 8.246 2.002-8.246h1.358l-2.604 9.94h-1.54l-1.946-7.434-1.946 7.434h-1.54l-2.604-9.94h1.344ZM364.186 244.06h1.204V254h-1.092l-.042-1.036a2.159 2.159 0 0 1-.938.882c-.42.215-.887.322-1.4.322-.635 0-1.19-.159-1.666-.476-.476-.317-.84-.765-1.092-1.344-.252-.588-.378-1.274-.378-2.058 0-.784.126-1.465.378-2.044.252-.588.616-1.041 1.092-1.358.476-.317 1.031-.476 1.666-.476.494 0 .942.103 1.344.308.41.196.718.467.924.812v-3.472Zm-.154 7.686c.177-.42.266-.905.266-1.456 0-.56-.089-1.05-.266-1.47-.168-.42-.416-.742-.742-.966a1.843 1.843 0 0 0-1.12-.35c-.654 0-1.172.252-1.554.756-.383.504-.574 1.181-.574 2.03 0 .84.191 1.507.574 2.002.382.485.9.728 1.554.728a1.95 1.95 0 0 0 1.12-.322 2.07 2.07 0 0 0 .742-.952ZM350.825 250.29c0-.784.14-1.465.42-2.044.28-.588.676-1.041 1.19-1.358.513-.317 1.11-.476 1.792-.476a3.13 3.13 0 0 1 1.554.392c.476.252.863.658 1.162 1.218.298.551.466 1.251.504 2.1l.014.546h-5.362c.056.747.266 1.325.63 1.736.373.411.872.616 1.498.616.401 0 .765-.107 1.092-.322.326-.215.574-.513.742-.896l1.288.098a3.101 3.101 0 0 1-1.19 1.652 3.222 3.222 0 0 1-1.932.616c-.682 0-1.279-.159-1.792-.476a3.143 3.143 0 0 1-1.19-1.344c-.28-.588-.42-1.274-.42-2.058Zm5.32-.686c-.103-.719-.327-1.237-.672-1.554a1.749 1.749 0 0 0-1.246-.49c-.579 0-1.05.177-1.414.532-.355.355-.584.859-.686 1.512h4.018ZM344.774 252.936h4.802V254h-6.104v-1.302l4.704-5.054h-4.564v-1.064h5.852v1.33l-4.69 5.026ZM341.553 246.58V254h-1.204v-7.42h1.204Zm.028-2.52v1.358h-1.26v-1.358h1.26ZM337.575 244.06v8.428c0 .149.037.261.112.336.074.075.186.112.336.112h.644V254h-.84c-.43 0-.78-.135-1.05-.406-.271-.271-.406-.621-.406-1.05v-8.484h1.204ZM327.952 250.29c0-.784.14-1.465.42-2.044.28-.588.676-1.041 1.19-1.358.513-.317 1.11-.476 1.792-.476a3.13 3.13 0 0 1 1.554.392c.476.252.863.658 1.162 1.218.298.551.466 1.251.504 2.1l.014.546h-5.362c.056.747.266 1.325.63 1.736.373.411.872.616 1.498.616.401 0 .765-.107 1.092-.322.326-.215.574-.513.742-.896l1.288.098a3.101 3.101 0 0 1-1.19 1.652 3.222 3.222 0 0 1-1.932.616c-.682 0-1.279-.159-1.792-.476a3.143 3.143 0 0 1-1.19-1.344c-.28-.588-.42-1.274-.42-2.058Zm5.32-.686c-.103-.719-.327-1.237-.672-1.554a1.749 1.749 0 0 0-1.246-.49c-.579 0-1.05.177-1.414.532-.355.355-.584.859-.686 1.512h4.018ZM325.776 244.06v8.428c0 .149.037.261.112.336.074.075.186.112.336.112h.644V254h-.84c-.43 0-.78-.135-1.05-.406-.271-.271-.406-.621-.406-1.05v-8.484h1.204ZM321.797 244.06v8.428c0 .149.038.261.112.336.075.075.187.112.336.112h.644V254h-.84c-.429 0-.779-.135-1.05-.406-.27-.271-.406-.621-.406-1.05v-8.484h1.204ZM312.191 248.764c.149-.719.495-1.288 1.036-1.708.541-.429 1.209-.644 2.002-.644.961 0 1.699.271 2.212.812.523.532.784 1.297.784 2.296v2.968c0 .149.037.261.112.336.075.075.187.112.336.112h.308V254H318.393a2.617 2.617 0 0 1-.7-.112 1.059 1.059 0 0 1-.476-.35c-.121-.168-.182-.392-.182-.672-.168.364-.457.672-.868.924-.401.252-.877.378-1.428.378-.765 0-1.405-.191-1.918-.574-.504-.383-.756-.896-.756-1.54 0-.485.112-.873.336-1.162.224-.289.532-.509.924-.658.392-.159.905-.299 1.54-.42l2.156-.42c-.009-.616-.163-1.073-.462-1.372-.289-.308-.733-.462-1.33-.462-.457 0-.84.112-1.148.336-.299.224-.504.546-.616.966l-1.274-.098Zm1.134 3.29c0 .308.131.56.392.756.271.196.663.294 1.176.294.411 0 .779-.093 1.106-.28.327-.196.583-.485.77-.868.187-.392.28-.868.28-1.428v-.07l-1.736.308-.28.042c-.411.075-.728.145-.952.21a1.086 1.086 0 0 0-.546.35c-.14.159-.21.387-.21.686ZM308.505 246.58l.056 1.932-.112-.112c.084-.635.271-1.097.56-1.386.299-.289.728-.434 1.288-.434h.728v1.064h-.728c-.373 0-.686.075-.938.224-.243.14-.425.355-.546.644-.112.28-.168.635-.168 1.064V254h-1.204v-7.42h1.064ZM299.148 248.764c.149-.719.495-1.288 1.036-1.708.541-.429 1.209-.644 2.002-.644.961 0 1.699.271 2.212.812.523.532.784 1.297.784 2.296v2.968c0 .149.037.261.112.336.075.075.187.112.336.112h.308V254H305.35a2.617 2.617 0 0 1-.7-.112 1.059 1.059 0 0 1-.476-.35c-.121-.168-.182-.392-.182-.672-.168.364-.457.672-.868.924-.401.252-.877.378-1.428.378-.765 0-1.405-.191-1.918-.574-.504-.383-.756-.896-.756-1.54 0-.485.112-.873.336-1.162.224-.289.532-.509.924-.658.392-.159.905-.299 1.54-.42l2.156-.42c-.009-.616-.163-1.073-.462-1.372-.289-.308-.733-.462-1.33-.462-.457 0-.84.112-1.148.336-.299.224-.504.546-.616.966l-1.274-.098Zm1.134 3.29c0 .308.131.56.392.756.271.196.663.294 1.176.294.411 0 .779-.093 1.106-.28.327-.196.583-.485.77-.868.187-.392.28-.868.28-1.428v-.07l-1.736.308-.28.042c-.411.075-.728.145-.952.21a1.086 1.086 0 0 0-.546.35c-.14.159-.21.387-.21.686ZM294.458 244.06c.738 0 1.368.121 1.89.364.532.233.938.579 1.218 1.036.28.448.42.985.42 1.61 0 .644-.14 1.199-.42 1.666-.28.457-.686.807-1.218 1.05-.522.243-1.152.364-1.89.364h-2.338V254h-1.232v-9.94h3.57Zm0 4.886c.747 0 1.307-.154 1.68-.462.374-.317.56-.789.56-1.414 0-.607-.186-1.059-.56-1.358-.373-.299-.933-.448-1.68-.448h-2.338v3.682h2.338Z"/>
  </g>
  <rect width="447" height="270" x=".5" y=".5" stroke="#222221" rx="9.5"/>
  <defs>
    <clipPath id="a">
      <rect width="448" height="271" fill="#fff" rx="10"/>
    </clipPath>
    <clipPath id="b">
      <path fill="#fff" d="M139 0h339v44H139V0Z"/>
    </clipPath>
    <clipPath id="c">
      <rect width="170" height="20" x="195" y="52" fill="#fff" rx="6"/>
    </clipPath>
    <clipPath id="d">
      <rect width="123" height="20" x="235" y="90" fill="#fff" rx="6"/>
    </clipPath>
    <clipPath id="e">
      <rect width="114" height="20" x="205" y="128" fill="#fff" rx="6"/>
    </clipPath>
    <clipPath id="f">
      <rect width="114" height="20" x="234.996" y="166" fill="#fff" rx="6"/>
    </clipPath>
    <linearGradient id="g" x1="344.5" x2="344.5" y1="40" y2="270" gradientUnits="userSpaceOnUse">
      <stop stop-color="#DBFE01"/>
      <stop offset="1" stop-color="#DBFE01" stop-opacity=".1"/>
    </linearGradient>
    <linearGradient id="i" x1="222.465" x2="210.56" y1="242.893" y2="255.523" gradientUnits="userSpaceOnUse">
      <stop stop-color="#77DA05"/>
      <stop offset=".5" stop-color="#DBFE01"/>
      <stop offset="1" stop-color="#77DA05"/>
    </linearGradient>
    <linearGradient id="k" x1="222.465" x2="210.56" y1="242.893" y2="255.523" gradientUnits="userSpaceOnUse">
      <stop stop-color="#77DA05"/>
      <stop offset=".5" stop-color="#DBFE01"/>
      <stop offset="1" stop-color="#77DA05"/>
    </linearGradient>
    <filter id="h" width="19.677" height="19.7" x="206.161" y="239.638" color-interpolation-filters="sRGB" filterUnits="userSpaceOnUse">
      <feFlood flood-opacity="0" result="BackgroundImageFix"/>
      <feColorMatrix in="SourceAlpha" result="hardAlpha" values="0 0 0 0 0 0 0 0 0 0 0 0 0 0 0 0 0 0 127 0"/>
      <feOffset/>
      <feGaussianBlur stdDeviation="1.4"/>
      <feComposite in2="hardAlpha" operator="out"/>
      <feColorMatrix values="0 0 0 0 0 0 0 0 0 0 0 0 0 0 0 0 0 0 0.16 0"/>
      <feBlend in2="BackgroundImageFix" result="effect1_dropShadow_963_12539"/>
      <feBlend in="SourceGraphic" in2="effect1_dropShadow_963_12539" result="shape"/>
    </filter>
    <filter id="j" width="14.777" height="17.6" x="208.611" y="242.088" color-interpolation-filters="sRGB" filterUnits="userSpaceOnUse">
      <feFlood flood-opacity="0" result="BackgroundImageFix"/>
      <feBlend in="SourceGraphic" in2="BackgroundImageFix" result="shape"/>
      <feColorMatrix in="SourceAlpha" result="hardAlpha" values="0 0 0 0 0 0 0 0 0 0 0 0 0 0 0 0 0 0 127 0"/>
      <feOffset dy="2.8"/>
      <feGaussianBlur stdDeviation="1.4"/>
      <feComposite in2="hardAlpha" k2="-1" k3="1" operator="arithmetic"/>
      <feColorMatrix values="0 0 0 0 1 0 0 0 0 1 0 0 0 0 1 0 0 0 0.2 0"/>
      <feBlend in2="shape" result="effect1_innerShadow_963_12539"/>
    </filter>
  </defs>
</svg>
