<svg width="292" height="312" viewBox="0 0 292 312" fill="none" xmlns="http://www.w3.org/2000/svg">
<circle cx="140" cy="161" r="140" fill="url(#paint0_linear_687_1517)" fill-opacity="0.02"/>
<circle cx="140" cy="161" r="140" fill="#DBFE01" fill-opacity="0.02"/>
<circle cx="140" cy="161" r="139.682" stroke="url(#paint1_linear_687_1517)" stroke-opacity="0.12" stroke-width="0.636364"/>
<circle cx="140" cy="161" r="139.682" stroke="#DBFE01" stroke-opacity="0.16" stroke-width="0.636364"/>
<ellipse cx="140.001" cy="161" rx="101.818" ry="101.818" fill="url(#paint2_linear_687_1517)" fill-opacity="0.04"/>
<ellipse cx="140.001" cy="161" rx="101.818" ry="101.818" fill="#DBFE01" fill-opacity="0.02"/>
<path d="M241.501 161C241.501 217.057 196.058 262.5 140.001 262.5C83.9438 262.5 38.5007 217.057 38.5007 161C38.5007 104.943 83.9438 59.5001 140.001 59.5001C196.058 59.5001 241.501 104.943 241.501 161Z" stroke="url(#paint3_linear_687_1517)" stroke-opacity="0.2" stroke-width="0.636364"/>
<path d="M241.501 161C241.501 217.057 196.058 262.5 140.001 262.5C83.9438 262.5 38.5007 217.057 38.5007 161C38.5007 104.943 83.9438 59.5001 140.001 59.5001C196.058 59.5001 241.501 104.943 241.501 161Z" stroke="#DBFE01" stroke-opacity="0.16" stroke-width="0.636364"/>
<ellipse cx="139.999" cy="161" rx="63.6364" ry="63.6364" fill="url(#paint4_linear_687_1517)" fill-opacity="0.06"/>
<ellipse cx="139.999" cy="161" rx="63.6364" ry="63.6364" fill="#DBFE01" fill-opacity="0.03"/>
<path d="M203.317 161C203.317 195.97 174.969 224.318 139.999 224.318C105.029 224.318 76.6809 195.97 76.6809 161C76.6809 126.03 105.029 97.682 139.999 97.682C174.969 97.682 203.317 126.03 203.317 161Z" stroke="url(#paint5_linear_687_1517)" stroke-opacity="0.2" stroke-width="0.636364"/>
<path d="M203.317 161C203.317 195.97 174.969 224.318 139.999 224.318C105.029 224.318 76.6809 195.97 76.6809 161C76.6809 126.03 105.029 97.682 139.999 97.682C174.969 97.682 203.317 126.03 203.317 161Z" stroke="#DBFE01" stroke-opacity="0.16" stroke-width="0.636364"/>
<g filter="url(#filter0_d_687_1517)">
<path fill-rule="evenodd" clip-rule="evenodd" d="M121.61 151.583C119.651 149.934 119.534 146.987 121.354 145.19L124.129 142.452C125.923 140.681 128.856 140.764 130.544 142.633L132.984 145.335C136.745 149.498 143.342 149.498 147.103 145.335L149.543 142.633C151.231 140.764 154.164 140.681 155.958 142.452L158.733 145.19C160.554 146.987 160.436 149.934 158.477 151.583L156.326 153.395C151.607 157.369 151.607 164.566 156.326 168.541L158.477 170.352C160.436 172.002 160.554 174.949 158.733 176.745L156.031 179.412C154.21 181.209 151.224 181.093 149.553 179.16L147.237 176.482C143.462 172.116 136.625 172.116 132.85 176.482L130.534 179.16C128.863 181.093 125.877 181.209 124.056 179.412L121.354 176.745C119.534 174.949 119.651 172.002 121.61 170.352L124.042 168.304C128.614 164.454 128.614 157.482 124.042 153.631L121.61 151.583Z" fill="#141413"/>
</g>
<g filter="url(#filter1_i_687_1517)">
<path fill-rule="evenodd" clip-rule="evenodd" d="M121.61 151.583C119.651 149.934 119.534 146.987 121.354 145.19L124.129 142.452C125.923 140.681 128.856 140.764 130.544 142.633L132.984 145.335C136.745 149.498 143.342 149.498 147.103 145.335L149.543 142.633C151.231 140.764 154.164 140.681 155.958 142.452L158.733 145.19C160.554 146.987 160.436 149.934 158.477 151.583L156.326 153.395C151.607 157.369 151.607 164.566 156.326 168.541L158.477 170.352C160.436 172.002 160.554 174.949 158.733 176.745L156.031 179.412C154.21 181.209 151.224 181.093 149.553 179.16L147.237 176.482C143.462 172.116 136.625 172.116 132.85 176.482L130.534 179.16C128.863 181.093 125.877 181.209 124.056 179.412L121.354 176.745C119.534 174.949 119.651 172.002 121.61 170.352L124.042 168.304C128.614 164.454 128.614 157.482 124.042 153.631L121.61 151.583Z" fill="#141413"/>
</g>
<g filter="url(#filter2_i_687_1517)">
<path fill-rule="evenodd" clip-rule="evenodd" d="M119.013 142.88L121.788 140.142C124.927 137.044 130.06 137.189 133.014 140.46L135.454 143.161C137.899 145.868 142.187 145.868 144.632 143.161L147.072 140.46C150.026 137.189 155.159 137.044 158.298 140.142L161.073 142.88C164.259 146.025 164.053 151.182 160.625 154.068L158.474 155.88C155.303 158.55 155.303 163.386 158.474 166.056L160.625 167.868C164.053 170.754 164.259 175.911 161.073 179.055L158.371 181.722C155.185 184.867 149.959 184.663 147.034 181.28L144.719 178.603C142.265 175.765 137.821 175.765 135.367 178.603L133.052 181.28C130.127 184.663 124.901 184.867 121.715 181.722L119.013 179.055C115.827 175.911 116.033 170.754 119.461 167.868L121.893 165.819C124.916 163.273 124.916 158.663 121.893 156.116L119.461 154.068C116.033 151.182 115.827 146.025 119.013 142.88ZM121.354 145.19C119.533 146.987 119.651 149.934 121.609 151.583L124.042 153.632C128.613 157.482 128.613 164.454 124.042 168.304L121.609 170.352C119.651 172.002 119.533 174.949 121.354 176.745L124.056 179.412C125.877 181.209 128.863 181.093 130.534 179.16L132.849 176.482C136.625 172.116 143.461 172.116 147.237 176.482L149.552 179.16C151.224 181.093 154.21 181.209 156.03 179.412L158.733 176.745C160.553 174.949 160.435 172.002 158.477 170.352L156.326 168.541C151.606 164.566 151.606 157.369 156.326 153.395L158.477 151.583C160.435 149.934 160.553 146.987 158.733 145.19L155.958 142.452C154.164 140.681 151.231 140.765 149.543 142.633L147.103 145.335C143.342 149.499 136.744 149.499 132.983 145.335L130.544 142.633C128.856 140.765 125.922 140.681 124.128 142.452L121.354 145.19Z" fill="url(#paint6_linear_687_1517)"/>
</g>
<ellipse cx="38.1845" cy="137.91" rx="20.7826" ry="20.7826" fill="url(#paint7_linear_687_1517)" fill-opacity="0.06"/>
<ellipse cx="38.1845" cy="137.91" rx="20.7826" ry="20.7826" fill="#252123"/>
<path d="M58.649 137.91C58.649 149.212 49.4868 158.374 38.1845 158.374C26.8823 158.374 17.7201 149.212 17.7201 137.91C17.7201 126.607 26.8823 117.445 38.1845 117.445C49.4868 117.445 58.649 126.607 58.649 137.91Z" stroke="url(#paint8_linear_687_1517)" stroke-opacity="0.2" stroke-width="0.636364"/>
<path d="M58.649 137.91C58.649 149.212 49.4868 158.374 38.1845 158.374C26.8823 158.374 17.7201 149.212 17.7201 137.91C17.7201 126.607 26.8823 117.445 38.1845 117.445C49.4868 117.445 58.649 126.607 58.649 137.91Z" stroke="#D346A7" stroke-opacity="0.16" stroke-width="0.636364"/>
<g clip-path="url(#clip0_687_1517)">
<rect width="19.3573" height="21.7778" transform="translate(28.5056 127.021)" fill="#252123"/>
<g filter="url(#filter3_di_687_1517)">
<path fill-rule="evenodd" clip-rule="evenodd" d="M40.0435 129.515L44.5158 132.097C44.6449 131.96 44.7931 131.843 44.9557 131.749C45.8832 131.215 47.0663 131.532 47.605 132.459C48.1382 133.387 47.8216 134.57 46.8941 135.109C46.7327 135.201 46.5587 135.271 46.3776 135.314V140.48C46.5567 140.524 46.7288 140.593 46.8886 140.685C47.8216 141.223 48.1382 142.406 47.5995 143.334C47.0663 144.261 45.8777 144.578 44.9501 144.045C44.7704 143.942 44.6085 143.81 44.4707 143.655L40.0256 146.222C40.0907 146.419 40.1238 146.625 40.1236 146.833C40.1236 147.899 39.2572 148.771 38.1852 148.771C37.1132 148.771 36.2468 147.904 36.2468 146.833C36.2468 146.642 36.2742 146.458 36.3252 146.284L31.8542 143.703C31.7264 143.837 31.5804 143.952 31.4203 144.045C30.4872 144.578 29.3041 144.261 28.7709 143.334C28.2377 142.406 28.5543 141.223 29.4818 140.685C29.6416 140.593 29.8137 140.524 29.9928 140.48V135.314C29.8117 135.271 29.6377 135.201 29.4763 135.109C28.5487 134.575 28.2321 133.387 28.7654 132.459C29.2986 131.532 30.4871 131.215 31.4147 131.749C31.5764 131.842 31.7239 131.959 31.8525 132.094L36.3261 129.512C36.2733 129.333 36.2466 129.147 36.2468 128.96C36.2468 127.889 37.1132 127.022 38.1852 127.022C39.2572 127.022 40.1236 127.889 40.1236 128.96C40.1236 129.153 40.0956 129.339 40.0435 129.515ZM39.5776 130.31L44.0605 132.898C43.9891 133.148 43.9686 133.409 44.0003 133.667C44.032 133.924 44.1151 134.173 44.2448 134.398C44.5177 134.872 44.9622 135.187 45.4556 135.31V140.482C45.4304 140.488 45.4054 140.495 45.3805 140.502L39.5255 130.362C39.5432 130.345 39.5605 130.328 39.5776 130.31V130.31ZM36.8461 130.363L30.9912 140.503C30.9658 140.496 30.9404 140.489 30.9148 140.483V135.31C31.4082 135.187 31.8527 134.872 32.1256 134.398C32.2555 134.172 32.3388 133.923 32.3703 133.665C32.4018 133.407 32.381 133.145 32.3091 132.895L36.7908 130.308C36.8089 130.327 36.8273 130.345 36.8461 130.363V130.363ZM38.7268 130.822L44.5804 140.96C44.4463 141.088 44.3314 141.235 44.2392 141.395C44.1472 141.555 44.0784 141.727 44.0349 141.906H32.3357C32.2921 141.727 32.2232 141.555 32.1312 141.395C32.0386 141.236 31.9239 141.09 31.7905 140.963L37.6452 130.823C37.8208 130.873 38.0025 130.899 38.1852 130.899C38.3732 130.899 38.5549 130.872 38.7268 130.822ZM39.6187 145.527L44.0725 142.955C44.0592 142.913 44.0472 142.871 44.0368 142.828H32.3332C32.327 142.853 32.3202 142.878 32.3131 142.903L36.7887 145.487C36.9694 145.299 37.1863 145.15 37.4263 145.048C37.6663 144.946 37.9245 144.894 38.1852 144.894C38.455 144.894 38.722 144.95 38.9689 145.059C39.2158 145.168 39.4371 145.327 39.6187 145.527Z" fill="#E535AB"/>
</g>
</g>
<ellipse cx="270.732" cy="213.122" rx="20.7826" ry="20.7826" fill="#292B2A"/>
<path d="M291.196 213.122C291.196 224.424 282.034 233.587 270.732 233.587C259.43 233.587 250.267 224.424 250.267 213.122C250.267 201.82 259.43 192.658 270.732 192.658C282.034 192.658 291.196 201.82 291.196 213.122Z" stroke="url(#paint9_linear_687_1517)" stroke-opacity="0.2" stroke-width="0.636364"/>
<path d="M291.196 213.122C291.196 224.424 282.034 233.587 270.732 233.587C259.43 233.587 250.267 224.424 250.267 213.122C250.267 201.82 259.43 192.658 270.732 192.658C282.034 192.658 291.196 201.82 291.196 213.122Z" stroke="#69AA9D" stroke-opacity="0.16" stroke-width="0.636364"/>
<path d="M280.373 208.202V211.286C280.373 212.027 280.743 212.364 281.62 212.364V213.881C280.743 213.881 280.373 214.218 280.373 214.959V218.042C280.373 219.812 279.429 220.705 277.593 220.705H276.615V219.003H277.458C278.165 219.003 278.587 218.615 278.587 217.857V214.824C278.587 213.779 279.193 213.308 279.749 213.122C279.193 212.937 278.587 212.465 278.587 211.421V208.388C278.587 207.629 278.165 207.242 277.458 207.242H276.615V205.54H277.593C279.429 205.54 280.373 206.433 280.373 208.202Z" fill="#51AC9D"/>
<path d="M270.73 210.733C270.056 210.733 269.55 210.211 269.55 209.553C269.55 208.896 270.056 208.391 270.73 208.391C271.404 208.391 271.909 208.896 271.909 209.553C271.909 210.211 271.404 210.733 270.73 210.733ZM270.73 217.119C270.056 217.119 269.55 216.597 269.55 215.939C269.55 215.282 270.056 214.777 270.73 214.777C271.404 214.777 271.909 215.282 271.909 215.939C271.909 216.597 271.404 217.119 270.73 217.119Z" fill="#51AC9D"/>
<path d="M262.874 208.387V211.42C262.874 212.465 262.25 212.937 261.694 213.122C262.25 213.307 262.874 213.779 262.874 214.824V217.857C262.874 218.615 263.295 219.003 263.986 219.003H264.829V220.704H263.868C262.031 220.704 261.088 219.811 261.088 218.042V214.959C261.088 214.217 260.717 213.88 259.841 213.88V212.364C260.717 212.364 261.088 212.027 261.088 211.285V208.202C261.088 206.433 262.031 205.54 263.868 205.54H264.845V207.242H263.986C263.295 207.242 262.874 207.629 262.874 208.387Z" fill="#51AC9D"/>
<ellipse cx="155.888" cy="21.0002" rx="20.7826" ry="20.7826" fill="#1D1F1F"/>
<path d="M176.353 21.0002C176.353 32.3024 167.19 41.4646 155.888 41.4646C144.586 41.4646 135.424 32.3024 135.424 21.0002C135.424 9.69796 144.586 0.535711 155.888 0.535711C167.19 0.535711 176.353 9.69796 176.353 21.0002Z" stroke="url(#paint10_linear_687_1517)" stroke-opacity="0.2" stroke-width="0.636364"/>
<path d="M176.353 21.0002C176.353 32.3024 167.19 41.4646 155.888 41.4646C144.586 41.4646 135.424 32.3024 135.424 21.0002C135.424 9.69796 144.586 0.535711 155.888 0.535711C167.19 0.535711 176.353 9.69796 176.353 21.0002Z" stroke="#63B9BA" stroke-opacity="0.16" stroke-width="0.636364"/>
<path d="M147.71 23.9087C147.87 24.1212 148.078 24.2931 148.316 24.4103C148.574 24.5381 148.859 24.6027 149.147 24.5988C149.38 24.6049 149.611 24.5654 149.829 24.4825C150.003 24.4141 150.158 24.3055 150.282 24.1655C150.398 24.0292 150.483 23.8689 150.531 23.6961C150.583 23.5093 150.608 23.3162 150.607 23.1224V22.4484H150.591C150.44 22.6875 150.223 22.8772 149.965 22.994C149.72 23.1009 149.455 23.1556 149.187 23.1545C148.924 23.1565 148.664 23.1074 148.421 23.0101C148.19 22.9185 147.979 22.7837 147.799 22.6129C147.62 22.4413 147.478 22.2352 147.381 22.007C147.279 21.7661 147.227 21.5066 147.229 21.2447C147.227 20.9836 147.276 20.7246 147.373 20.4824C147.466 20.2533 147.6 20.0437 147.771 19.8646C147.941 19.687 148.146 19.5463 148.372 19.4514C148.615 19.3504 148.876 19.2999 149.139 19.3029C149.258 19.3036 149.378 19.3143 149.496 19.335C149.625 19.3576 149.752 19.3953 149.873 19.4473C150.16 19.5718 150.408 19.7714 150.591 20.0252H150.607V19.3992H151.137V23.1224C151.135 23.3412 151.109 23.5591 151.061 23.7724C151.009 24.0029 150.908 24.2193 150.764 24.4062C150.599 24.6124 150.389 24.7773 150.15 24.8878C149.888 25.0161 149.545 25.0802 149.123 25.0802C148.779 25.0861 148.438 25.0234 148.12 24.8957C147.815 24.7651 147.541 24.5709 147.317 24.3261L147.71 23.9087ZM147.807 21.2288C147.805 21.42 147.842 21.6096 147.915 21.7864C147.985 21.9561 148.085 22.1112 148.212 22.2437C148.338 22.3751 148.488 22.4813 148.653 22.5567C148.826 22.6351 149.013 22.6748 149.203 22.673C149.578 22.6744 149.94 22.5323 150.214 22.2759C150.349 22.1489 150.454 21.9942 150.523 21.8224C150.597 21.6337 150.631 21.4315 150.623 21.2288C150.625 21.0386 150.592 20.8497 150.527 20.671C150.465 20.5012 150.37 20.3456 150.246 20.2137C150.119 20.0799 149.966 19.9734 149.797 19.9007C149.609 19.821 149.407 19.7813 149.203 19.7844C149.013 19.7826 148.826 19.8223 148.653 19.9007C148.488 19.9762 148.338 20.0824 148.212 20.2137C148.085 20.3462 147.985 20.5014 147.915 20.671C147.842 20.8479 147.805 21.0375 147.807 21.2288ZM153.295 23.1545H152.717V17.4734H154.467C155.044 17.4734 155.5 17.5991 155.835 17.8505C156.169 18.102 156.336 18.4818 156.336 18.9899C156.347 19.3588 156.213 19.7171 155.963 19.9889C155.714 20.2591 155.355 20.4156 154.884 20.4583L156.521 23.1545H155.815L154.258 20.5146H153.295L153.295 23.1545ZM153.295 19.985H154.322C154.543 19.9896 154.763 19.9626 154.976 19.9047C155.132 19.863 155.278 19.7908 155.406 19.6921C155.508 19.6093 155.589 19.5016 155.638 19.3792C155.687 19.2553 155.712 19.1231 155.71 18.9899C155.711 18.8595 155.687 18.7301 155.638 18.6088C155.588 18.4856 155.508 18.3767 155.406 18.2918C155.279 18.1912 155.133 18.1187 154.976 18.0792C154.763 18.0242 154.543 17.9986 154.322 18.003H153.295V19.985ZM157.516 17.4734H159.169C159.747 17.4734 160.203 17.5991 160.537 17.8506C160.871 18.1021 161.038 18.4819 161.038 18.99C161.038 19.4983 160.871 19.8794 160.537 20.1334C160.203 20.3875 159.747 20.5146 159.169 20.5146H158.094V23.1545H157.516V17.4734ZM158.094 19.985H159.024C159.245 19.9897 159.465 19.9626 159.678 19.9048C159.834 19.8631 159.98 19.7908 160.108 19.6922C160.211 19.6093 160.291 19.5016 160.34 19.3792C160.389 19.2553 160.414 19.1232 160.413 18.99C160.413 18.8595 160.389 18.7301 160.34 18.6089C160.29 18.4857 160.21 18.3768 160.108 18.2919C159.981 18.1913 159.835 18.1188 159.678 18.0793C159.465 18.0243 159.245 17.9987 159.024 18.0031H158.094L158.094 19.985ZM166.84 22.2558C166.738 22.4064 166.618 22.5439 166.483 22.6651C166.336 22.7968 166.173 22.9087 165.997 22.998C165.81 23.0938 165.612 23.1678 165.408 23.2187C165.188 23.2731 164.963 23.3001 164.737 23.2989C164.335 23.3027 163.935 23.2264 163.562 23.0743C162.851 22.7868 162.287 22.2218 162.001 21.5096C161.848 21.1297 161.772 20.7234 161.777 20.3139C161.772 19.9045 161.848 19.4982 162.001 19.1183C162.287 18.4061 162.851 17.8411 163.562 17.5537C163.935 17.4016 164.335 17.3252 164.737 17.329C165.101 17.3309 165.46 17.4017 165.797 17.5376C166.156 17.6813 166.469 17.9198 166.703 18.2277L166.198 18.6048C166.13 18.5037 166.049 18.4119 165.957 18.332C165.851 18.238 165.734 18.1572 165.608 18.0913C165.474 18.0206 165.333 17.9641 165.187 17.9228C165.041 17.8805 164.889 17.8589 164.737 17.8586C164.4 17.8531 164.066 17.9215 163.759 18.0592C163.479 18.1858 163.229 18.3689 163.024 18.5967C162.821 18.8253 162.665 19.091 162.563 19.3792C162.349 19.984 162.349 20.6439 162.563 21.2487C162.665 21.5369 162.821 21.8026 163.024 22.0311C163.229 22.259 163.479 22.4421 163.759 22.5687C164.066 22.7064 164.4 22.775 164.737 22.7694C164.887 22.7694 165.036 22.756 165.183 22.7292C165.332 22.7017 165.478 22.6559 165.616 22.5928C165.762 22.526 165.897 22.4381 166.017 22.332C166.152 22.2113 166.27 22.0722 166.366 21.9188L166.84 22.2558Z" fill="white"/>
<path d="M146.558 19.3411L145.062 17.8559L146.547 16.3597L148.043 17.8448L146.558 19.3411Z" fill="url(#paint11_linear_687_1517)"/>
<path d="M150.584 18.6709L149.706 17.7998L150.577 16.9222L151.455 17.7933L150.584 18.6709Z" fill="url(#paint12_linear_687_1517)"/>
<path d="M146.786 16.9963L145.887 17.9024L146.793 18.8017L147.56 18.7989L146.756 18.0015L150.725 17.9868L150.377 18.337L150.76 18.3356L151.21 17.8826L150.757 17.4329L150.374 17.4343L150.724 17.782L146.755 17.7967L147.553 16.9934L146.786 16.9963Z" fill="#244B5A"/>
<ellipse cx="95.9667" cy="290.616" rx="20.7826" ry="20.7826" fill="#1A1515"/>
<path d="M116.431 290.616C116.431 301.918 107.269 311.081 95.9667 311.081C84.6645 311.081 75.5023 301.918 75.5023 290.616C75.5023 279.314 84.6645 270.152 95.9667 270.152C107.269 270.152 116.431 279.314 116.431 290.616Z" stroke="url(#paint13_linear_687_1517)" stroke-opacity="0.2" stroke-width="0.636364"/>
<path d="M116.431 290.616C116.431 301.918 107.269 311.081 95.9667 311.081C84.6645 311.081 75.5023 301.918 75.5023 290.616C75.5023 279.314 84.6645 270.152 95.9667 270.152C107.269 270.152 116.431 279.314 116.431 290.616Z" stroke="#BA343D" stroke-opacity="0.16" stroke-width="0.636364"/>
<path d="M99.0768 279.831C98.7346 280.032 98.1664 280.601 97.4882 281.432L98.1114 282.605C98.5513 281.982 98.9913 281.419 99.4373 280.937C99.474 280.9 99.4923 280.882 99.4923 280.882C99.474 280.9 99.4557 280.918 99.4373 280.937C99.2907 281.096 98.8507 281.609 98.1908 282.629C98.8324 282.599 99.81 282.464 100.61 282.33C100.849 280.998 100.378 280.387 100.378 280.387C100.378 280.387 99.7795 279.415 99.0768 279.831Z" fill="url(#paint14_linear_687_1517)"/>
<path d="M96.9817 289.699C96.9022 289.711 96.8228 289.73 96.7372 289.742C96.78 289.736 96.8228 289.73 96.8594 289.723C96.8961 289.717 96.945 289.705 96.9817 289.699Z" fill="#BE202E"/>
<path opacity="0.35" d="M96.9817 289.699C96.9022 289.711 96.8228 289.73 96.7372 289.742C96.78 289.736 96.8228 289.73 96.8594 289.723C96.8961 289.717 96.945 289.705 96.9817 289.699Z" fill="#BE202E"/>
<path d="M97.1874 288.673C97.1996 288.673 97.2118 288.667 97.224 288.667C97.279 288.66 97.3279 288.648 97.3768 288.636C97.3218 288.648 97.2546 288.66 97.1874 288.673Z" fill="#BE202E"/>
<path opacity="0.35" d="M97.1874 288.673C97.1996 288.673 97.2118 288.667 97.224 288.667C97.279 288.66 97.3279 288.648 97.3768 288.636C97.3218 288.648 97.2546 288.66 97.1874 288.673Z" fill="#BE202E"/>
<path d="M96.2711 285.642C96.4605 285.288 96.6499 284.946 96.8455 284.603C97.0471 284.255 97.2487 283.913 97.4565 283.589C97.4687 283.571 97.4809 283.552 97.4932 283.528C97.6948 283.204 97.9025 282.898 98.1103 282.599L97.487 281.426C97.4382 281.481 97.3954 281.542 97.3465 281.603C97.1693 281.829 96.9799 282.067 96.7905 282.324C96.5766 282.611 96.3505 282.917 96.1306 283.241C95.9228 283.54 95.7151 283.852 95.5012 284.176C95.324 284.451 95.1407 284.732 94.9635 285.025C94.9574 285.037 94.9513 285.049 94.9452 285.055L95.7579 286.656C95.9228 286.314 96.0939 285.972 96.2711 285.642Z" fill="url(#paint15_linear_687_1517)"/>
<path d="M92.5828 294.661C92.4728 294.954 92.3689 295.254 92.2589 295.565C92.2589 295.572 92.2528 295.572 92.2528 295.578C92.2345 295.62 92.2223 295.663 92.2039 295.706C92.1306 295.914 92.0695 296.097 91.9229 296.525C92.1612 296.635 92.3506 296.922 92.5339 297.246C92.5155 296.91 92.375 296.592 92.1123 296.348C93.2915 296.403 94.2997 296.103 94.8252 295.242C94.8741 295.162 94.9169 295.083 94.9535 294.997C94.7152 295.297 94.4219 295.425 93.8659 295.394C93.8659 295.394 93.8659 295.394 93.8598 295.394C93.8598 295.394 93.8598 295.394 93.8659 295.394C94.6847 295.028 95.0941 294.679 95.4607 294.093C95.5462 293.952 95.6318 293.806 95.7173 293.635C95.0024 294.368 94.1714 294.582 93.2977 294.423L92.6439 294.496C92.6255 294.545 92.6072 294.606 92.5828 294.661Z" fill="url(#paint16_linear_687_1517)"/>
<path d="M92.8877 293.188C93.0282 292.822 93.1749 292.455 93.3276 292.076C93.4682 291.716 93.6209 291.361 93.7676 290.995C93.9203 290.634 94.0731 290.268 94.232 289.907C94.3908 289.54 94.5558 289.168 94.7208 288.801C94.8858 288.44 95.0507 288.08 95.2218 287.719C95.2829 287.591 95.344 287.463 95.4051 287.334C95.5151 287.114 95.619 286.894 95.729 286.674C95.7351 286.662 95.7412 286.65 95.7473 286.638L94.9407 285.055C94.9285 285.08 94.9163 285.098 94.9041 285.122C94.7147 285.428 94.5252 285.746 94.3419 286.07C94.1525 286.393 93.9753 286.723 93.792 287.059C93.6393 287.341 93.4926 287.628 93.3521 287.915C93.3215 287.976 93.2971 288.031 93.2665 288.092C93.0893 288.453 92.9305 288.807 92.7838 289.143C92.6189 289.528 92.4783 289.889 92.35 290.237C92.2645 290.463 92.1911 290.683 92.1239 290.897C92.0689 291.08 92.0139 291.257 91.9651 291.441C91.8429 291.862 91.739 292.29 91.6534 292.712L92.4661 294.319C92.5761 294.032 92.6861 293.738 92.7961 293.445C92.8266 293.36 92.8572 293.274 92.8877 293.188Z" fill="url(#paint17_linear_687_1517)"/>
<path d="M91.6414 292.761C91.5376 293.274 91.4642 293.787 91.4276 294.295C91.4276 294.313 91.4215 294.331 91.4215 294.35C91.1648 293.94 90.4866 293.543 90.4866 293.549C90.9754 294.258 91.342 294.955 91.397 295.645C91.1343 295.7 90.7799 295.621 90.3644 295.468C90.7921 295.865 91.116 295.975 91.2443 295.999C90.8471 296.024 90.4377 296.293 90.0222 296.611C90.6271 296.366 91.116 296.262 91.4703 296.342C90.9143 297.918 90.3583 299.66 89.7961 301.505C89.9672 301.456 90.0711 301.34 90.1261 301.181C90.2239 300.845 90.8838 298.651 91.9225 295.767C91.9531 295.688 91.9836 295.602 92.0142 295.523C92.0203 295.498 92.0325 295.474 92.0386 295.456C92.1486 295.15 92.2586 294.845 92.3808 294.527C92.4052 294.453 92.4358 294.386 92.4602 294.313V294.307L91.6475 292.7C91.6475 292.724 91.6414 292.742 91.6414 292.761Z" fill="url(#paint18_linear_687_1517)"/>
<path d="M95.8745 286.791C95.8501 286.839 95.8256 286.888 95.8073 286.937C95.7401 287.084 95.6668 287.23 95.5934 287.383C95.514 287.548 95.4346 287.713 95.3551 287.884C95.3124 287.97 95.2757 288.055 95.2329 288.147C95.1107 288.41 94.9885 288.685 94.8663 288.966C94.7136 289.314 94.5547 289.669 94.402 290.041C94.2492 290.396 94.0964 290.762 93.9437 291.141C93.797 291.502 93.6443 291.875 93.4976 292.26C93.3632 292.602 93.2288 292.956 93.0883 293.317C93.0821 293.335 93.076 293.353 93.0699 293.372C92.9355 293.732 92.795 294.099 92.6605 294.478C92.6544 294.484 92.6544 294.496 92.6483 294.502L93.3021 294.429C93.2899 294.429 93.2777 294.423 93.2654 294.423C94.0476 294.325 95.0924 293.738 95.7645 293.017C96.0762 292.687 96.3572 292.29 96.6139 291.832C96.8094 291.49 96.9866 291.111 97.1638 290.689C97.3165 290.322 97.4632 289.925 97.6037 289.491C97.4265 289.589 97.2188 289.656 96.9927 289.705C96.956 289.711 96.9133 289.724 96.8705 289.73C96.8277 289.736 96.7849 289.742 96.7483 289.748C97.4815 289.467 97.9398 288.923 98.2758 288.257C98.0864 288.385 97.7687 288.563 97.396 288.642C97.3471 288.654 97.2921 288.66 97.2432 288.673C97.231 288.673 97.2188 288.679 97.2065 288.679C97.4571 288.575 97.677 288.453 97.8603 288.312C97.897 288.282 97.9398 288.251 97.9764 288.22C98.0314 288.172 98.0864 288.123 98.1353 288.068C98.1659 288.031 98.2025 288 98.2331 287.958C98.3064 287.872 98.3736 287.78 98.4347 287.677C98.453 287.646 98.4714 287.615 98.4897 287.579C98.5141 287.53 98.5386 287.487 98.5569 287.438C98.6608 287.23 98.7402 287.047 98.8074 286.888C98.838 286.809 98.8685 286.736 98.893 286.662C98.9052 286.638 98.9113 286.607 98.9235 286.583C98.948 286.503 98.9724 286.436 98.9846 286.375C99.0091 286.283 99.0213 286.216 99.0335 286.161C99.0091 286.179 98.9785 286.198 98.948 286.222C98.728 286.357 98.3492 286.473 98.0436 286.528C98.0375 286.528 98.0314 286.528 98.0314 286.528C98.0009 286.534 97.9703 286.54 97.9398 286.54C97.9459 286.54 97.952 286.534 97.9581 286.534L95.899 286.76C95.8806 286.772 95.8806 286.784 95.8745 286.791Z" fill="url(#paint19_linear_687_1517)"/>
<path d="M98.1907 282.63C98.0073 282.911 97.8057 283.228 97.5919 283.589C97.5796 283.607 97.5674 283.626 97.5552 283.644C97.3719 283.956 97.1702 284.298 96.9625 284.677C96.7853 285 96.5959 285.349 96.4004 285.721C96.2293 286.045 96.0582 286.394 95.8749 286.76L97.934 286.534C98.5328 286.259 98.8017 286.009 99.0644 285.648C99.1316 285.55 99.205 285.447 99.2722 285.337C99.486 285.007 99.6877 284.646 99.8771 284.279C100.054 283.931 100.213 283.583 100.335 283.271C100.415 283.076 100.476 282.886 100.519 282.727C100.555 282.587 100.586 282.446 100.61 282.318C99.8099 282.465 98.8322 282.599 98.1907 282.63Z" fill="url(#paint20_linear_687_1517)"/>
<path d="M96.8594 289.724C96.8167 289.73 96.7739 289.736 96.7372 289.742C96.78 289.736 96.8228 289.73 96.8594 289.724Z" fill="#BE202E"/>
<path opacity="0.35" d="M96.8594 289.724C96.8167 289.73 96.7739 289.736 96.7372 289.742C96.78 289.736 96.8228 289.73 96.8594 289.724Z" fill="#BE202E"/>
<path d="M96.8594 289.724C96.8167 289.73 96.7739 289.736 96.7372 289.742C96.78 289.736 96.8228 289.73 96.8594 289.724Z" fill="url(#paint21_linear_687_1517)"/>
<path d="M101.241 281.719V281.78H101.381V282.177H101.448V281.78H101.589V281.719H101.241ZM102.053 281.719L101.894 282.037L101.735 281.719H101.656V282.177H101.717V281.811L101.876 282.128H101.919L102.078 281.811V282.177H102.139V281.719H102.053Z" fill="#6D6E71"/>
<defs>
<filter id="filter0_d_687_1517" x="100.703" y="121.818" width="78.6804" height="78.2282" filterUnits="userSpaceOnUse" color-interpolation-filters="sRGB">
<feFlood flood-opacity="0" result="BackgroundImageFix"/>
<feColorMatrix in="SourceAlpha" type="matrix" values="0 0 0 0 0 0 0 0 0 0 0 0 0 0 0 0 0 0 127 0" result="hardAlpha"/>
<feOffset/>
<feGaussianBlur stdDeviation="9.679"/>
<feComposite in2="hardAlpha" operator="out"/>
<feColorMatrix type="matrix" values="0 0 0 0 0 0 0 0 0 0 0 0 0 0 0 0 0 0 0.16 0"/>
<feBlend mode="normal" in2="BackgroundImageFix" result="effect1_dropShadow_687_1517"/>
<feBlend mode="normal" in="SourceGraphic" in2="effect1_dropShadow_687_1517" result="shape"/>
</filter>
<filter id="filter1_i_687_1517" x="120.061" y="141.176" width="39.9644" height="49.1912" filterUnits="userSpaceOnUse" color-interpolation-filters="sRGB">
<feFlood flood-opacity="0" result="BackgroundImageFix"/>
<feBlend mode="normal" in="SourceGraphic" in2="BackgroundImageFix" result="shape"/>
<feColorMatrix in="SourceAlpha" type="matrix" values="0 0 0 0 0 0 0 0 0 0 0 0 0 0 0 0 0 0 127 0" result="hardAlpha"/>
<feOffset dy="19.358"/>
<feGaussianBlur stdDeviation="4.83951"/>
<feComposite in2="hardAlpha" operator="arithmetic" k2="-1" k3="1"/>
<feColorMatrix type="matrix" values="0 0 0 0 1 0 0 0 0 1 0 0 0 0 1 0 0 0 0.2 0"/>
<feBlend mode="normal" in2="shape" result="effect1_innerShadow_687_1517"/>
</filter>
<filter id="filter2_i_687_1517" x="116.751" y="137.909" width="46.5845" height="65.4034" filterUnits="userSpaceOnUse" color-interpolation-filters="sRGB">
<feFlood flood-opacity="0" result="BackgroundImageFix"/>
<feBlend mode="normal" in="SourceGraphic" in2="BackgroundImageFix" result="shape"/>
<feColorMatrix in="SourceAlpha" type="matrix" values="0 0 0 0 0 0 0 0 0 0 0 0 0 0 0 0 0 0 127 0" result="hardAlpha"/>
<feOffset dy="19.358"/>
<feGaussianBlur stdDeviation="9.679"/>
<feComposite in2="hardAlpha" operator="arithmetic" k2="-1" k3="1"/>
<feColorMatrix type="matrix" values="0 0 0 0 1 0 0 0 0 1 0 0 0 0 1 0 0 0 0.2 0"/>
<feBlend mode="normal" in2="shape" result="effect1_innerShadow_687_1517"/>
</filter>
<filter id="filter3_di_687_1517" x="25.7346" y="124.597" width="24.9011" height="27.2926" filterUnits="userSpaceOnUse" color-interpolation-filters="sRGB">
<feFlood flood-opacity="0" result="BackgroundImageFix"/>
<feColorMatrix in="SourceAlpha" type="matrix" values="0 0 0 0 0 0 0 0 0 0 0 0 0 0 0 0 0 0 127 0" result="hardAlpha"/>
<feOffset dy="0.346489"/>
<feGaussianBlur stdDeviation="1.38596"/>
<feComposite in2="hardAlpha" operator="out"/>
<feColorMatrix type="matrix" values="0 0 0 0 0 0 0 0 0 0 0 0 0 0 0 0 0 0 0.1 0"/>
<feBlend mode="normal" in2="BackgroundImageFix" result="effect1_dropShadow_687_1517"/>
<feBlend mode="normal" in="SourceGraphic" in2="effect1_dropShadow_687_1517" result="shape"/>
<feColorMatrix in="SourceAlpha" type="matrix" values="0 0 0 0 0 0 0 0 0 0 0 0 0 0 0 0 0 0 127 0" result="hardAlpha"/>
<feOffset dy="1.38596"/>
<feGaussianBlur stdDeviation="0.692978"/>
<feComposite in2="hardAlpha" operator="arithmetic" k2="-1" k3="1"/>
<feColorMatrix type="matrix" values="0 0 0 0 1 0 0 0 0 1 0 0 0 0 1 0 0 0 0.2 0"/>
<feBlend mode="normal" in2="shape" result="effect2_innerShadow_687_1517"/>
</filter>
<linearGradient id="paint0_linear_687_1517" x1="140" y1="21" x2="140" y2="301" gradientUnits="userSpaceOnUse">
<stop stop-color="white"/>
<stop offset="1" stop-color="white" stop-opacity="0"/>
</linearGradient>
<linearGradient id="paint1_linear_687_1517" x1="140" y1="21" x2="140" y2="301" gradientUnits="userSpaceOnUse">
<stop stop-color="white"/>
<stop offset="1" stop-color="white" stop-opacity="0"/>
</linearGradient>
<linearGradient id="paint2_linear_687_1517" x1="140.001" y1="59.1819" x2="140.001" y2="262.818" gradientUnits="userSpaceOnUse">
<stop stop-color="white"/>
<stop offset="1" stop-color="white" stop-opacity="0"/>
</linearGradient>
<linearGradient id="paint3_linear_687_1517" x1="140.001" y1="59.1819" x2="140.001" y2="262.818" gradientUnits="userSpaceOnUse">
<stop stop-color="white"/>
<stop offset="1" stop-color="white" stop-opacity="0"/>
</linearGradient>
<linearGradient id="paint4_linear_687_1517" x1="139.999" y1="97.3638" x2="139.999" y2="224.636" gradientUnits="userSpaceOnUse">
<stop stop-color="white"/>
<stop offset="1" stop-color="white" stop-opacity="0"/>
</linearGradient>
<linearGradient id="paint5_linear_687_1517" x1="139.999" y1="97.3638" x2="139.999" y2="224.636" gradientUnits="userSpaceOnUse">
<stop stop-color="white"/>
<stop offset="1" stop-color="white" stop-opacity="0"/>
</linearGradient>
<linearGradient id="paint6_linear_687_1517" x1="160.424" y1="140.412" x2="123.42" y2="180.194" gradientUnits="userSpaceOnUse">
<stop stop-color="#77DA05"/>
<stop offset="0.5" stop-color="#DBFE01"/>
<stop offset="1" stop-color="#77DA05"/>
</linearGradient>
<linearGradient id="paint7_linear_687_1517" x1="38.1845" y1="117.127" x2="38.1845" y2="158.692" gradientUnits="userSpaceOnUse">
<stop stop-color="white"/>
<stop offset="1" stop-color="white" stop-opacity="0"/>
</linearGradient>
<linearGradient id="paint8_linear_687_1517" x1="38.1845" y1="117.127" x2="38.1845" y2="158.692" gradientUnits="userSpaceOnUse">
<stop stop-color="white"/>
<stop offset="1" stop-color="white" stop-opacity="0"/>
</linearGradient>
<linearGradient id="paint9_linear_687_1517" x1="270.732" y1="192.34" x2="270.732" y2="233.905" gradientUnits="userSpaceOnUse">
<stop stop-color="white"/>
<stop offset="1" stop-color="white" stop-opacity="0"/>
</linearGradient>
<linearGradient id="paint10_linear_687_1517" x1="155.888" y1="0.217529" x2="155.888" y2="41.7828" gradientUnits="userSpaceOnUse">
<stop stop-color="white"/>
<stop offset="1" stop-color="white" stop-opacity="0"/>
</linearGradient>
<linearGradient id="paint11_linear_687_1517" x1="-3.06526" y1="-129.173" x2="295.073" y2="-130.281" gradientUnits="userSpaceOnUse">
<stop stop-color="#72C9C9"/>
<stop offset="1" stop-color="#02B0AD"/>
</linearGradient>
<linearGradient id="paint12_linear_687_1517" x1="62.8219" y1="-68.4403" x2="237.695" y2="-69.0904" gradientUnits="userSpaceOnUse">
<stop stop-color="#03B6B4"/>
<stop offset="1" stop-color="#74CBCA"/>
</linearGradient>
<linearGradient id="paint13_linear_687_1517" x1="95.9667" y1="269.833" x2="95.9667" y2="311.399" gradientUnits="userSpaceOnUse">
<stop stop-color="white"/>
<stop offset="1" stop-color="white" stop-opacity="0"/>
</linearGradient>
<linearGradient id="paint14_linear_687_1517" x1="98.0153" y1="281.561" x2="102.576" y2="280.294" gradientUnits="userSpaceOnUse">
<stop stop-color="#F69923"/>
<stop offset="0.3123" stop-color="#F79A23"/>
<stop offset="0.8383" stop-color="#E97826"/>
</linearGradient>
<linearGradient id="paint15_linear_687_1517" x1="88.0311" y1="302.029" x2="97.3085" y2="282.137" gradientUnits="userSpaceOnUse">
<stop offset="0.3233" stop-color="#9E2064"/>
<stop offset="0.6302" stop-color="#C92037"/>
<stop offset="0.7514" stop-color="#CD2335"/>
<stop offset="1" stop-color="#E97826"/>
</linearGradient>
<linearGradient id="paint16_linear_687_1517" x1="91.1484" y1="300.558" x2="96.6769" y2="288.705" gradientUnits="userSpaceOnUse">
<stop stop-color="#282662"/>
<stop offset="0.0954839" stop-color="#662E8D"/>
<stop offset="0.7882" stop-color="#9F2064"/>
<stop offset="0.9487" stop-color="#CD2032"/>
</linearGradient>
<linearGradient id="paint17_linear_687_1517" x1="88.3678" y1="300.825" x2="97.6452" y2="280.933" gradientUnits="userSpaceOnUse">
<stop offset="0.3233" stop-color="#9E2064"/>
<stop offset="0.6302" stop-color="#C92037"/>
<stop offset="0.7514" stop-color="#CD2335"/>
<stop offset="1" stop-color="#E97826"/>
</linearGradient>
<linearGradient id="paint18_linear_687_1517" x1="89.3143" y1="299.5" x2="94.1899" y2="289.046" gradientUnits="userSpaceOnUse">
<stop stop-color="#282662"/>
<stop offset="0.0954839" stop-color="#662E8D"/>
<stop offset="0.7882" stop-color="#9F2064"/>
<stop offset="0.9487" stop-color="#CD2032"/>
</linearGradient>
<linearGradient id="paint19_linear_687_1517" x1="90.4262" y1="301.785" x2="99.7035" y2="281.894" gradientUnits="userSpaceOnUse">
<stop offset="0.3233" stop-color="#9E2064"/>
<stop offset="0.6302" stop-color="#C92037"/>
<stop offset="0.7514" stop-color="#CD2335"/>
<stop offset="1" stop-color="#E97826"/>
</linearGradient>
<linearGradient id="paint20_linear_687_1517" x1="89.7494" y1="302.972" x2="99.0267" y2="283.08" gradientUnits="userSpaceOnUse">
<stop offset="0.3233" stop-color="#9E2064"/>
<stop offset="0.6302" stop-color="#C92037"/>
<stop offset="0.7514" stop-color="#CD2335"/>
<stop offset="1" stop-color="#E97826"/>
</linearGradient>
<linearGradient id="paint21_linear_687_1517" x1="91.0367" y1="302.079" x2="100.321" y2="282.176" gradientUnits="userSpaceOnUse">
<stop offset="0.3233" stop-color="#9E2064"/>
<stop offset="0.6302" stop-color="#C92037"/>
<stop offset="0.7514" stop-color="#CD2335"/>
<stop offset="1" stop-color="#E97826"/>
</linearGradient>
<clipPath id="clip0_687_1517">
<rect width="19.3573" height="21.7778" fill="white" transform="translate(28.5056 127.021)"/>
</clipPath>
</defs>
</svg>
