<svg width="350" height="431" viewBox="0 0 350 431" fill="none" xmlns="http://www.w3.org/2000/svg">
<path d="M248.531 421.244C248.465 420.902 248.29 420.631 248.006 420.431C247.723 420.231 247.406 420.131 247.056 420.131C246.706 420.131 246.419 420.215 246.194 420.381C245.969 420.548 245.856 420.769 245.856 421.044C245.856 421.311 245.99 421.519 246.256 421.669C246.531 421.811 246.881 421.923 247.306 422.006C247.906 422.115 248.398 422.248 248.781 422.406C249.173 422.556 249.477 422.765 249.694 423.031C249.911 423.29 250.019 423.631 250.019 424.056C250.019 424.473 249.89 424.823 249.631 425.106C249.381 425.381 249.052 425.59 248.644 425.731C248.236 425.865 247.79 425.931 247.306 425.931C246.74 425.931 246.236 425.84 245.794 425.656C245.352 425.473 244.998 425.215 244.731 424.881C244.473 424.54 244.327 424.144 244.294 423.694L245.681 423.606C245.731 423.856 245.823 424.073 245.956 424.256C246.098 424.431 246.281 424.569 246.506 424.669C246.731 424.761 246.994 424.806 247.294 424.806C247.644 424.806 247.952 424.744 248.219 424.619C248.486 424.486 248.619 424.277 248.619 423.994C248.619 423.802 248.561 423.648 248.444 423.531C248.336 423.415 248.198 423.331 248.031 423.281C247.873 423.223 247.648 423.161 247.356 423.094C247.29 423.086 247.194 423.069 247.069 423.044C246.502 422.919 246.04 422.79 245.681 422.656C245.323 422.515 245.027 422.319 244.794 422.069C244.569 421.819 244.456 421.494 244.456 421.094C244.456 420.669 244.565 420.302 244.781 419.994C245.006 419.677 245.319 419.436 245.719 419.269C246.127 419.094 246.606 419.006 247.156 419.006C247.881 419.006 248.494 419.202 248.994 419.594C249.494 419.977 249.802 420.502 249.919 421.169L248.531 421.244Z" fill="#DBFE01"/>
<path d="M234.993 419.156L235.043 420.231C235.201 419.84 235.439 419.54 235.756 419.331C236.081 419.115 236.468 419.006 236.918 419.006C237.393 419.006 237.797 419.127 238.131 419.369C238.464 419.602 238.701 419.94 238.843 420.381C238.993 419.931 239.235 419.59 239.568 419.356C239.91 419.123 240.331 419.006 240.831 419.006C241.272 419.006 241.651 419.106 241.968 419.306C242.293 419.498 242.539 419.781 242.706 420.156C242.881 420.531 242.968 420.986 242.968 421.519V425.781H241.631V421.931C241.631 421.348 241.531 420.906 241.331 420.606C241.131 420.298 240.843 420.144 240.468 420.144C240.16 420.144 239.893 420.215 239.668 420.356C239.451 420.49 239.289 420.69 239.181 420.956C239.072 421.223 239.018 421.548 239.018 421.931V425.781H237.743V421.931C237.743 421.548 237.697 421.223 237.606 420.956C237.514 420.69 237.381 420.49 237.206 420.356C237.031 420.215 236.822 420.144 236.581 420.144C236.281 420.144 236.018 420.215 235.793 420.356C235.576 420.498 235.41 420.702 235.293 420.969C235.185 421.236 235.131 421.556 235.131 421.931V425.781H233.781V419.156H234.993Z" fill="#DBFE01"/>
<path d="M226.218 421.144C226.351 420.477 226.664 419.956 227.155 419.581C227.655 419.198 228.289 419.006 229.055 419.006C229.964 419.006 230.655 419.248 231.13 419.731C231.614 420.206 231.855 420.902 231.855 421.819V424.281C231.855 424.431 231.889 424.544 231.955 424.619C232.022 424.686 232.122 424.719 232.255 424.719H232.53V425.781H232.105H232.043C231.818 425.79 231.601 425.769 231.393 425.719C231.185 425.669 231.005 425.569 230.855 425.419C230.714 425.269 230.635 425.052 230.618 424.769C230.46 425.102 230.197 425.381 229.83 425.606C229.464 425.823 229.018 425.931 228.493 425.931C227.81 425.931 227.239 425.761 226.78 425.419C226.33 425.077 226.105 424.619 226.105 424.044C226.105 423.619 226.205 423.277 226.405 423.019C226.605 422.761 226.88 422.561 227.23 422.419C227.58 422.277 228.043 422.148 228.618 422.031L230.505 421.669C230.497 421.136 230.372 420.744 230.13 420.494C229.897 420.236 229.539 420.106 229.055 420.106C228.68 420.106 228.368 420.202 228.118 420.394C227.868 420.586 227.697 420.865 227.605 421.231L226.218 421.144ZM227.505 424.019C227.505 424.277 227.614 424.49 227.83 424.656C228.047 424.815 228.364 424.894 228.78 424.894C229.114 424.894 229.414 424.815 229.68 424.656C229.947 424.49 230.155 424.248 230.305 423.931C230.455 423.606 230.53 423.215 230.53 422.756V422.694L229.13 422.944L228.905 422.981C228.564 423.04 228.301 423.098 228.118 423.156C227.935 423.215 227.785 423.315 227.668 423.456C227.56 423.59 227.505 423.777 227.505 424.019Z" fill="#DBFE01"/>
<path d="M218.757 422.469C218.757 421.769 218.886 421.161 219.144 420.644C219.411 420.119 219.782 419.715 220.257 419.431C220.732 419.148 221.286 419.006 221.919 419.006C222.461 419.006 222.953 419.131 223.394 419.381C223.844 419.623 224.203 420.002 224.469 420.519C224.744 421.027 224.894 421.661 224.919 422.419V422.856H220.182C220.224 423.465 220.394 423.94 220.694 424.281C220.994 424.615 221.403 424.781 221.919 424.781C222.253 424.781 222.553 424.694 222.819 424.519C223.086 424.344 223.29 424.098 223.432 423.781L224.832 423.881C224.632 424.506 224.265 425.006 223.732 425.381C223.207 425.748 222.603 425.931 221.919 425.931C221.286 425.931 220.732 425.79 220.257 425.506C219.782 425.223 219.411 424.823 219.144 424.306C218.886 423.781 218.757 423.169 218.757 422.469ZM223.507 421.844C223.424 421.261 223.24 420.836 222.957 420.569C222.674 420.294 222.328 420.156 221.919 420.156C221.444 420.156 221.057 420.306 220.757 420.606C220.465 420.898 220.278 421.311 220.194 421.844H223.507Z" fill="#DBFE01"/>
<path d="M218.777 418.156H216.064V425.781H214.689V418.156H211.977V416.906H218.777V418.156Z" fill="#DBFE01"/>
<path d="M201.887 422.469C201.887 421.769 202.016 421.161 202.274 420.644C202.541 420.119 202.912 419.715 203.387 419.431C203.862 419.148 204.416 419.006 205.049 419.006C205.591 419.006 206.083 419.131 206.524 419.381C206.974 419.623 207.333 420.002 207.599 420.519C207.874 421.027 208.024 421.661 208.049 422.419V422.856H203.312C203.353 423.465 203.524 423.94 203.824 424.281C204.124 424.615 204.533 424.781 205.049 424.781C205.383 424.781 205.683 424.694 205.949 424.519C206.216 424.344 206.42 424.098 206.562 423.781L207.962 423.881C207.762 424.506 207.395 425.006 206.862 425.381C206.337 425.748 205.733 425.931 205.049 425.931C204.416 425.931 203.862 425.79 203.387 425.506C202.912 425.223 202.541 424.823 202.274 424.306C202.016 423.781 201.887 423.169 201.887 422.469ZM206.637 421.844C206.553 421.261 206.37 420.836 206.087 420.569C205.803 420.294 205.458 420.156 205.049 420.156C204.574 420.156 204.187 420.306 203.887 420.606C203.595 420.898 203.408 421.311 203.324 421.844H206.637Z" fill="#DBFE01"/>
<path d="M199.999 416.906V424.244C199.999 424.385 200.036 424.494 200.111 424.569C200.186 424.644 200.295 424.681 200.436 424.681H200.974V425.781H200.136C199.695 425.781 199.336 425.648 199.061 425.381C198.786 425.106 198.649 424.744 198.649 424.294V416.906H199.999Z" fill="#DBFE01"/>
<path d="M196.776 419.156V425.781H195.426V419.156H196.776ZM196.801 416.906V418.181H195.401V416.906H196.801Z" fill="#DBFE01"/>
<path d="M189.354 416.906V420.031C189.537 419.715 189.808 419.465 190.167 419.281C190.525 419.098 190.921 419.006 191.354 419.006C191.921 419.006 192.417 419.148 192.842 419.431C193.267 419.715 193.592 420.119 193.817 420.644C194.042 421.16 194.154 421.769 194.154 422.469C194.154 423.169 194.042 423.781 193.817 424.306C193.592 424.823 193.267 425.223 192.842 425.506C192.417 425.79 191.921 425.931 191.354 425.931C190.904 425.931 190.496 425.835 190.129 425.644C189.762 425.452 189.483 425.185 189.292 424.844L189.254 425.781H188.004V416.906H189.354ZM189.254 422.469C189.254 422.927 189.325 423.331 189.467 423.681C189.608 424.031 189.812 424.302 190.079 424.494C190.346 424.677 190.654 424.769 191.004 424.769C191.537 424.769 191.962 424.56 192.279 424.144C192.604 423.727 192.767 423.169 192.767 422.469C192.767 421.752 192.608 421.185 192.292 420.769C191.975 420.344 191.546 420.131 191.004 420.131C190.654 420.131 190.346 420.227 190.079 420.419C189.812 420.61 189.608 420.881 189.467 421.231C189.325 421.581 189.254 421.994 189.254 422.469Z" fill="#DBFE01"/>
<path d="M183.577 425.931C182.944 425.931 182.39 425.79 181.915 425.506C181.44 425.223 181.069 424.823 180.802 424.306C180.544 423.781 180.415 423.169 180.415 422.469C180.415 421.769 180.544 421.161 180.802 420.644C181.06 420.119 181.427 419.715 181.902 419.431C182.385 419.148 182.944 419.006 183.577 419.006C184.21 419.006 184.765 419.148 185.24 419.431C185.715 419.715 186.081 420.119 186.34 420.644C186.606 421.161 186.74 421.769 186.74 422.469C186.74 423.169 186.61 423.781 186.352 424.306C186.094 424.823 185.723 425.223 185.24 425.506C184.765 425.79 184.21 425.931 183.577 425.931ZM183.577 424.769C184.135 424.769 184.569 424.569 184.877 424.169C185.185 423.761 185.34 423.194 185.34 422.469C185.34 421.744 185.185 421.181 184.877 420.781C184.569 420.373 184.135 420.169 183.577 420.169C183.019 420.169 182.585 420.373 182.277 420.781C181.969 421.181 181.815 421.744 181.815 422.469C181.815 423.194 181.969 423.761 182.277 424.169C182.585 424.569 183.019 424.769 183.577 424.769Z" fill="#DBFE01"/>
<path d="M171.901 416.906L174.526 424.169L177.151 416.906H179.014V425.781H177.651V419.419L175.289 425.769H173.764L171.414 419.419V425.781H170.039V416.906H171.901Z" fill="#DBFE01"/>
<path d="M160.833 416.406H162.158L158.458 427.156H157.146L160.833 416.406Z" fill="#DBFE01"/>
<path d="M151.352 416.906H152.702V425.781H151.452L151.415 424.844C151.223 425.185 150.944 425.452 150.577 425.644C150.211 425.835 149.802 425.931 149.352 425.931C148.786 425.931 148.29 425.79 147.865 425.506C147.44 425.223 147.115 424.823 146.89 424.306C146.665 423.781 146.552 423.169 146.552 422.469C146.552 421.769 146.665 421.16 146.89 420.644C147.115 420.119 147.44 419.715 147.865 419.431C148.29 419.148 148.786 419.006 149.352 419.006C149.786 419.006 150.181 419.098 150.54 419.281C150.898 419.465 151.169 419.715 151.352 420.031V416.906ZM151.24 423.681C151.381 423.331 151.452 422.927 151.452 422.469C151.452 421.994 151.381 421.581 151.24 421.231C151.098 420.881 150.894 420.61 150.627 420.419C150.361 420.227 150.052 420.131 149.702 420.131C149.161 420.131 148.731 420.344 148.415 420.769C148.098 421.185 147.94 421.752 147.94 422.469C147.94 423.169 148.098 423.727 148.415 424.144C148.74 424.56 149.169 424.769 149.702 424.769C150.052 424.769 150.361 424.677 150.627 424.494C150.894 424.302 151.098 424.031 151.24 423.681Z" fill="#DBFE01"/>
<path d="M140.926 419.156L140.988 420.931L140.826 420.806C140.934 420.198 141.18 419.748 141.563 419.456C141.946 419.156 142.417 419.006 142.976 419.006C143.701 419.006 144.259 419.24 144.651 419.706C145.042 420.165 145.238 420.769 145.238 421.519V425.781H143.888V421.931C143.888 421.531 143.846 421.202 143.763 420.944C143.68 420.677 143.542 420.477 143.351 420.344C143.167 420.211 142.926 420.144 142.626 420.144C142.134 420.144 141.751 420.298 141.476 420.606C141.201 420.906 141.063 421.348 141.063 421.931V425.781H139.713V419.156H140.926Z" fill="#DBFE01"/>
<path d="M132.136 422.469C132.136 421.769 132.265 421.161 132.523 420.644C132.79 420.119 133.161 419.715 133.636 419.431C134.111 419.148 134.665 419.006 135.298 419.006C135.84 419.006 136.332 419.131 136.773 419.381C137.223 419.623 137.582 420.002 137.848 420.519C138.123 421.027 138.273 421.661 138.298 422.419V422.856H133.561C133.602 423.465 133.773 423.94 134.073 424.281C134.373 424.615 134.782 424.781 135.298 424.781C135.632 424.781 135.932 424.694 136.198 424.519C136.465 424.344 136.669 424.098 136.811 423.781L138.211 423.881C138.011 424.506 137.644 425.006 137.111 425.381C136.586 425.748 135.982 425.931 135.298 425.931C134.665 425.931 134.111 425.79 133.636 425.506C133.161 425.223 132.79 424.823 132.523 424.306C132.265 423.781 132.136 423.169 132.136 422.469ZM136.886 421.844C136.802 421.261 136.619 420.836 136.336 420.569C136.052 420.294 135.707 420.156 135.298 420.156C134.823 420.156 134.436 420.306 134.136 420.606C133.844 420.898 133.657 421.311 133.573 421.844H136.886Z" fill="#DBFE01"/>
<path d="M129.556 417.656V423.869C129.556 424.135 129.618 424.34 129.743 424.481C129.877 424.615 130.068 424.681 130.318 424.681H131.306V425.781H130.193C129.543 425.781 129.047 425.619 128.706 425.294C128.372 424.969 128.206 424.494 128.206 423.869V417.656H129.556ZM131.318 419.156V420.256H127.206V419.156H131.318Z" fill="#DBFE01"/>
<path d="M121.602 419.156L121.664 420.931L121.502 420.806C121.61 420.198 121.856 419.748 122.239 419.456C122.623 419.156 123.094 419.006 123.652 419.006C124.377 419.006 124.935 419.24 125.327 419.706C125.719 420.165 125.914 420.769 125.914 421.519V425.781H124.564V421.931C124.564 421.531 124.523 421.202 124.439 420.944C124.356 420.677 124.219 420.477 124.027 420.344C123.844 420.211 123.602 420.144 123.302 420.144C122.81 420.144 122.427 420.298 122.152 420.606C121.877 420.906 121.739 421.348 121.739 421.931V425.781H120.389V419.156H121.602Z" fill="#DBFE01"/>
<path d="M115.828 425.931C115.195 425.931 114.641 425.79 114.166 425.506C113.691 425.223 113.32 424.823 113.053 424.306C112.795 423.781 112.666 423.169 112.666 422.469C112.666 421.769 112.795 421.161 113.053 420.644C113.311 420.119 113.678 419.715 114.153 419.431C114.636 419.148 115.195 419.006 115.828 419.006C116.461 419.006 117.016 419.148 117.491 419.431C117.966 419.715 118.332 420.119 118.591 420.644C118.857 421.161 118.991 421.769 118.991 422.469C118.991 423.169 118.861 423.781 118.603 424.306C118.345 424.823 117.974 425.223 117.491 425.506C117.016 425.79 116.461 425.931 115.828 425.931ZM115.828 424.769C116.386 424.769 116.82 424.569 117.128 424.169C117.436 423.761 117.591 423.194 117.591 422.469C117.591 421.744 117.436 421.181 117.128 420.781C116.82 420.373 116.386 420.169 115.828 420.169C115.27 420.169 114.836 420.373 114.528 420.781C114.22 421.181 114.066 421.744 114.066 422.469C114.066 423.194 114.22 423.761 114.528 424.169C114.836 424.569 115.27 424.769 115.828 424.769Z" fill="#DBFE01"/>
<path d="M109.823 419.156L109.873 420.956L109.76 420.869C109.844 420.277 110.019 419.844 110.285 419.569C110.552 419.294 110.935 419.156 111.435 419.156H112.06V420.256H111.423C111.081 420.256 110.798 420.319 110.573 420.444C110.356 420.569 110.194 420.756 110.085 421.006C109.985 421.248 109.935 421.552 109.935 421.919V425.781H108.585V419.156H109.823Z" fill="#DBFE01"/>
<path d="M107.039 416.906V418.156H101.914L102.651 417.419V421.481L101.914 420.831H106.814V422.056H101.914L102.651 421.406V425.781H101.276V416.906H107.039Z" fill="#DBFE01"/>
<rect y="157.031" width="348.438" height="242.188" rx="12.5" fill="#191918"/>
<rect x="0.75" y="157.781" width="346.938" height="240.688" rx="11.75" stroke="url(#paint0_linear_760_7914)" stroke-opacity="0.5" stroke-width="1.5" stroke-dasharray="3.12 3.12"/>
<rect x="6.75" y="327.844" width="109.417" height="64.625" rx="7.3125" fill="#141413"/>
<rect x="6.75" y="327.844" width="109.417" height="64.625" rx="7.3125" stroke="#222221"/>
<path d="M60.8826 344.039L59.0076 342.164" stroke="#B0CB01" stroke-width="0.999641" stroke-linecap="round" stroke-linejoin="round"/>
<path d="M62.0771 344.039L63.9521 342.164" stroke="#B0CB01" stroke-width="0.999641" stroke-linecap="round" stroke-linejoin="round"/>
<path d="M65.9061 348.365C65.9767 348.368 66.0469 348.353 66.1097 348.32C66.1726 348.288 66.2261 348.24 66.2652 348.182C66.3046 348.125 66.3307 348.06 66.3413 347.992C66.3519 347.923 66.3468 347.853 66.3265 347.787C65.9195 346.655 65.1672 345.679 64.1758 344.997C63.1843 344.315 62.0038 343.962 60.8007 343.987C59.5971 343.959 58.4153 344.311 57.4233 344.994C56.4314 345.676 55.6796 346.654 55.275 347.787C55.2525 347.853 55.2464 347.923 55.2571 347.992C55.2677 348.061 55.2949 348.126 55.3363 348.182C55.3739 348.24 55.4259 348.287 55.4873 348.319C55.5486 348.352 55.6173 348.368 55.6866 348.365H65.9061Z" stroke="#B0CB01" stroke-width="0.999641" stroke-linecap="round" stroke-linejoin="round"/>
<path d="M60.0754 346.726C59.9544 346.726 59.8564 346.628 59.8564 346.507C59.8564 346.386 59.9544 346.288 60.0754 346.288" stroke="#B0CB01" stroke-width="0.999641"/>
<path d="M59.8564 346.726C59.9774 346.726 60.0754 346.628 60.0754 346.507C60.0754 346.386 59.9774 346.288 59.8564 346.288" stroke="#B0CB01" stroke-width="0.999641"/>
<path d="M63.1452 346.726C63.0243 346.726 62.9263 346.628 62.9263 346.507C62.9263 346.386 63.0243 346.288 63.1452 346.288" stroke="#B0CB01" stroke-width="0.999641"/>
<path d="M62.9263 346.726C63.0472 346.726 63.1452 346.628 63.1452 346.507C63.1452 346.386 63.0472 346.288 62.9263 346.288" stroke="#B0CB01" stroke-width="0.999641"/>
<path d="M52.9606 358.893V351.45C52.9359 351.272 52.9528 351.09 53.0101 350.919C53.0674 350.749 53.1634 350.594 53.2907 350.466C53.418 350.339 53.573 350.243 53.7437 350.186C53.9143 350.129 54.0959 350.112 54.2742 350.136H55.5878" stroke="#B0CB01" stroke-width="0.999641" stroke-linecap="round" stroke-linejoin="round"/>
<path d="M69.3906 358.893V351.45C69.4153 351.272 69.3984 351.09 69.3411 350.919C69.2838 350.749 69.1878 350.594 69.0604 350.466C68.9332 350.339 68.7782 350.243 68.6075 350.186C68.4369 350.129 68.2553 350.112 68.077 350.136H66.7634" stroke="#B0CB01" stroke-width="0.999641" stroke-linecap="round" stroke-linejoin="round"/>
<path d="M55.2521 357.569V350.125H66.6363V357.569" stroke="#B0CB01" stroke-width="0.999641" stroke-linecap="round" stroke-linejoin="round"/>
<path d="M85.6919 368.071H86.9819V378.721H85.8119L85.7669 377.611C85.5469 378.011 85.2119 378.326 84.7619 378.556C84.3119 378.786 83.8119 378.901 83.2619 378.901C82.5819 378.901 81.9869 378.731 81.4769 378.391C80.9669 378.051 80.5769 377.571 80.3069 376.951C80.0369 376.321 79.9019 375.586 79.9019 374.746C79.9019 373.906 80.0369 373.176 80.3069 372.556C80.5769 371.926 80.9669 371.441 81.4769 371.101C81.9869 370.761 82.5819 370.591 83.2619 370.591C83.7919 370.591 84.2719 370.701 84.7019 370.921C85.1419 371.131 85.4719 371.421 85.6919 371.791V368.071ZM85.5269 376.306C85.7169 375.856 85.8119 375.336 85.8119 374.746C85.8119 374.146 85.7169 373.621 85.5269 373.171C85.3469 372.721 85.0819 372.376 84.7319 372.136C84.3919 371.886 83.9919 371.761 83.5319 371.761C82.8319 371.761 82.2769 372.031 81.8669 372.571C81.4569 373.111 81.2519 373.836 81.2519 374.746C81.2519 375.646 81.4569 376.361 81.8669 376.891C82.2769 377.411 82.8319 377.671 83.5319 377.671C83.9919 377.671 84.3919 377.556 84.7319 377.326C85.0819 377.086 85.3469 376.746 85.5269 376.306Z" fill="#BCBCB8"/>
<path d="M77.9955 370.771V378.721H76.7055V370.771H77.9955ZM78.0255 368.071V369.526H76.6755V368.071H78.0255Z" fill="#BCBCB8"/>
<path d="M71.4472 378.901C70.7172 378.901 70.0772 378.731 69.5272 378.391C68.9772 378.051 68.5522 377.571 68.2522 376.951C67.9522 376.321 67.8022 375.586 67.8022 374.746C67.8022 373.906 67.9522 373.176 68.2522 372.556C68.5522 371.926 68.9772 371.441 69.5272 371.101C70.0772 370.761 70.7172 370.591 71.4472 370.591C72.1772 370.591 72.8172 370.761 73.3672 371.101C73.9172 371.441 74.3422 371.926 74.6422 372.556C74.9422 373.176 75.0922 373.906 75.0922 374.746C75.0922 375.586 74.9422 376.321 74.6422 376.951C74.3422 377.571 73.9172 378.051 73.3672 378.391C72.8172 378.731 72.1772 378.901 71.4472 378.901ZM71.4472 377.671C72.1772 377.671 72.7422 377.416 73.1422 376.906C73.5422 376.386 73.7422 375.666 73.7422 374.746C73.7422 373.826 73.5422 373.111 73.1422 372.601C72.7422 372.081 72.1772 371.821 71.4472 371.821C70.7172 371.821 70.1522 372.081 69.7522 372.601C69.3522 373.111 69.1522 373.826 69.1522 374.746C69.1522 375.666 69.3522 376.386 69.7522 376.906C70.1522 377.416 70.7172 377.671 71.4472 377.671Z" fill="#BCBCB8"/>
<path d="M64.2955 370.771L64.3555 372.841L64.2355 372.721C64.3255 372.041 64.5255 371.546 64.8355 371.236C65.1555 370.926 65.6155 370.771 66.2155 370.771H66.9955V371.911H66.2155C65.8155 371.911 65.4805 371.991 65.2105 372.151C64.9505 372.301 64.7555 372.531 64.6255 372.841C64.5055 373.141 64.4455 373.521 64.4455 373.981V378.721H63.1555V370.771H64.2955Z" fill="#BCBCB8"/>
<path d="M59.6909 368.071H60.9809V378.721H59.8109L59.7659 377.611C59.5459 378.011 59.2109 378.326 58.7609 378.556C58.3109 378.786 57.8109 378.901 57.2609 378.901C56.5809 378.901 55.9859 378.731 55.4759 378.391C54.9659 378.051 54.5759 377.571 54.3059 376.951C54.0359 376.321 53.9009 375.586 53.9009 374.746C53.9009 373.906 54.0359 373.176 54.3059 372.556C54.5759 371.926 54.9659 371.441 55.4759 371.101C55.9859 370.761 56.5809 370.591 57.2609 370.591C57.7909 370.591 58.2709 370.701 58.7009 370.921C59.1409 371.131 59.4709 371.421 59.6909 371.791V368.071ZM59.5259 376.306C59.7159 375.856 59.8109 375.336 59.8109 374.746C59.8109 374.146 59.7159 373.621 59.5259 373.171C59.3459 372.721 59.0809 372.376 58.7309 372.136C58.3909 371.886 57.9909 371.761 57.5309 371.761C56.8309 371.761 56.2759 372.031 55.8659 372.571C55.4559 373.111 55.2509 373.836 55.2509 374.746C55.2509 375.646 55.4559 376.361 55.8659 376.891C56.2759 377.411 56.8309 377.671 57.5309 377.671C57.9909 377.671 58.3909 377.556 58.7309 377.326C59.0809 377.086 59.3459 376.746 59.5259 376.306Z" fill="#BCBCB8"/>
<path d="M47.0551 370.771L47.1151 372.796L46.9501 372.616C47.0901 371.946 47.3901 371.441 47.8501 371.101C48.3201 370.761 48.8801 370.591 49.5301 370.591C50.4001 370.591 51.0651 370.871 51.5251 371.431C51.9851 371.991 52.2151 372.716 52.2151 373.606V378.721H50.9251V373.966C50.9251 373.476 50.8651 373.066 50.7451 372.736C50.6351 372.406 50.4551 372.156 50.2051 371.986C49.9651 371.816 49.6501 371.731 49.2601 371.731C48.6201 371.731 48.1101 371.926 47.7301 372.316C47.3601 372.696 47.1751 373.246 47.1751 373.966V378.721H45.8851V370.771H47.0551Z" fill="#BCBCB8"/>
<path d="M38.762 368.071H40.532L44.372 378.721H42.932L41.882 375.706H37.412L36.362 378.721H34.922L38.762 368.071ZM41.432 374.416L39.647 369.226L37.862 374.416H41.432Z" fill="#BCBCB8"/>
<rect x="120.292" y="327.844" width="109.417" height="64.625" rx="7.3125" fill="#141413"/>
<rect x="120.292" y="327.844" width="109.417" height="64.625" rx="7.3125" stroke="#222221"/>
<g clip-path="url(#clip0_760_7914)">
<path d="M179.041 352.829C179.048 352.271 179.196 351.723 179.471 351.237C179.747 350.751 180.141 350.342 180.617 350.05C180.314 349.619 179.915 349.264 179.453 349.013C178.99 348.762 178.475 348.621 177.949 348.601C176.812 348.49 175.72 349.27 175.155 349.27C174.59 349.27 173.669 348.616 172.747 348.631C172.128 348.647 171.524 348.824 170.994 349.145C170.463 349.465 170.026 349.918 169.723 350.459C168.438 352.688 169.396 356.002 170.652 357.815C171.261 358.699 171.997 359.695 172.956 359.658C173.914 359.621 174.234 359.064 175.348 359.064C176.463 359.064 176.782 359.658 177.756 359.643C178.729 359.628 179.383 358.737 179.985 357.852C180.42 357.221 180.763 356.53 181.003 355.801C180.42 355.553 179.924 355.139 179.575 354.611C179.226 354.082 179.04 353.462 179.041 352.829Z" stroke="#B0CB01" stroke-width="0.999641" stroke-linecap="round" stroke-linejoin="round"/>
<path d="M177.725 345.118C178.352 344.377 178.664 343.419 178.594 342.451C177.642 342.54 176.762 342.992 176.135 343.714C175.82 344.069 175.58 344.485 175.431 344.936C175.281 345.387 175.225 345.864 175.265 346.337C175.741 346.336 176.211 346.225 176.637 346.014C177.063 345.803 177.436 345.496 177.725 345.118Z" stroke="#B0CB01" stroke-width="0.999641" stroke-linecap="round" stroke-linejoin="round"/>
</g>
<path d="M179.994 375.226C180.094 375.706 180.269 376.126 180.519 376.486C180.769 376.846 181.099 377.126 181.509 377.326C181.919 377.516 182.399 377.611 182.949 377.611C183.409 377.611 183.804 377.551 184.134 377.431C184.474 377.311 184.734 377.136 184.914 376.906C185.104 376.666 185.199 376.376 185.199 376.036C185.199 375.506 184.959 375.066 184.479 374.716C183.999 374.356 183.224 374.041 182.154 373.771C181.164 373.521 180.364 373.156 179.754 372.676C179.144 372.196 178.839 371.556 178.839 370.756C178.839 370.166 178.984 369.651 179.274 369.211C179.574 368.771 179.984 368.431 180.504 368.191C181.034 367.951 181.639 367.831 182.319 367.831C183.069 367.831 183.734 367.976 184.314 368.266C184.904 368.556 185.369 368.956 185.709 369.466C186.059 369.976 186.274 370.561 186.354 371.221L184.974 371.311C184.914 370.871 184.764 370.486 184.524 370.156C184.284 369.826 183.974 369.571 183.594 369.391C183.214 369.211 182.784 369.121 182.304 369.121C181.694 369.121 181.194 369.271 180.804 369.571C180.414 369.861 180.219 370.256 180.219 370.756C180.219 371.136 180.344 371.451 180.594 371.701C180.844 371.941 181.139 372.131 181.479 372.271C181.829 372.401 182.289 372.546 182.859 372.706L183.099 372.766C184.159 373.066 185.004 373.471 185.634 373.981C186.264 374.491 186.579 375.131 186.579 375.901C186.579 376.531 186.404 377.076 186.054 377.536C185.714 377.986 185.259 378.326 184.689 378.556C184.119 378.786 183.504 378.901 182.844 378.901C182.074 378.901 181.379 378.756 180.759 378.466C180.139 378.166 179.639 377.746 179.259 377.206C178.889 376.656 178.674 376.026 178.614 375.316L179.994 375.226Z" fill="#BCBCB8"/>
<path d="M172.118 378.961C171.108 378.961 170.238 378.741 169.508 378.301C168.778 377.851 168.218 377.211 167.828 376.381C167.438 375.541 167.243 374.551 167.243 373.411C167.243 372.261 167.438 371.271 167.828 370.441C168.218 369.601 168.778 368.956 169.508 368.506C170.238 368.056 171.108 367.831 172.118 367.831C173.128 367.831 173.998 368.056 174.728 368.506C175.458 368.956 176.018 369.601 176.408 370.441C176.798 371.271 176.993 372.261 176.993 373.411C176.993 374.551 176.798 375.541 176.408 376.381C176.018 377.211 175.458 377.851 174.728 378.301C173.998 378.741 173.128 378.961 172.118 378.961ZM172.118 377.671C172.838 377.671 173.458 377.501 173.978 377.161C174.508 376.821 174.913 376.331 175.193 375.691C175.473 375.051 175.613 374.291 175.613 373.411C175.613 372.521 175.473 371.756 175.193 371.116C174.913 370.476 174.508 369.986 173.978 369.646C173.458 369.296 172.838 369.121 172.118 369.121C171.398 369.121 170.773 369.296 170.243 369.646C169.723 369.986 169.323 370.476 169.043 371.116C168.763 371.756 168.623 372.521 168.623 373.411C168.623 374.291 168.763 375.051 169.043 375.691C169.323 376.331 169.723 376.821 170.243 377.161C170.773 377.501 171.398 377.671 172.118 377.671Z" fill="#BCBCB8"/>
<path d="M165.526 370.771V378.721H164.236V370.771H165.526ZM165.556 368.071V369.526H164.206V368.071H165.556Z" fill="#BCBCB8"/>
<rect x="233.833" y="327.844" width="109.417" height="64.625" rx="7.3125" fill="#141413"/>
<rect x="233.833" y="327.844" width="109.417" height="64.625" rx="7.3125" stroke="#222221"/>
<path d="M294.899 343.157H281.136C280.336 343.157 279.687 343.806 279.687 344.606V356.196C279.687 356.996 280.336 357.645 281.136 357.645H294.899C295.699 357.645 296.348 356.996 296.348 356.196V344.606C296.348 343.806 295.699 343.157 294.899 343.157Z" stroke="#B0CB01" stroke-width="0.833034" stroke-linecap="round" stroke-linejoin="round"/>
<path d="M279.687 345.97H296.348" stroke="#B0CB01" stroke-width="0.833034" stroke-linecap="round" stroke-linejoin="round"/>
<path d="M281.743 345.395C281.643 345.395 281.562 345.314 281.562 345.214C281.562 345.114 281.643 345.032 281.743 345.032" stroke="#B0CB01" stroke-width="0.833034"/>
<path d="M281.562 345.395C281.662 345.395 281.743 345.314 281.743 345.214C281.743 345.114 281.662 345.032 281.562 345.032" stroke="#B0CB01" stroke-width="0.833034"/>
<path d="M283.618 345.395C283.518 345.395 283.437 345.314 283.437 345.214C283.437 345.114 283.518 345.032 283.618 345.032" stroke="#B0CB01" stroke-width="0.833034"/>
<path d="M285.312 345.395C285.412 345.395 285.493 345.314 285.493 345.214C285.493 345.114 285.412 345.032 285.312 345.032" stroke="#B0CB01" stroke-width="0.833034"/>
<path d="M286.431 345.395C286.331 345.395 286.25 345.314 286.25 345.214C286.25 345.114 286.331 345.032 286.431 345.032" stroke="#B0CB01" stroke-width="0.833034"/>
<path d="M286.25 345.395C286.35 345.395 286.431 345.314 286.431 345.214C286.431 345.114 286.35 345.032 286.25 345.032" stroke="#B0CB01" stroke-width="0.833034"/>
<path d="M282.5 350.657L284.375 352.468L282.5 354.279" stroke="#B0CB01" stroke-width="0.833034" stroke-linecap="round" stroke-linejoin="round"/>
<path d="M288.125 352.532H291.022" stroke="#B0CB01" stroke-width="0.833034" stroke-linecap="round" stroke-linejoin="round"/>
<path d="M297.177 368.438V372.158C297.397 371.788 297.722 371.498 298.152 371.288C298.592 371.068 299.077 370.958 299.607 370.958C300.287 370.958 300.882 371.128 301.392 371.468C301.902 371.808 302.292 372.293 302.562 372.923C302.832 373.543 302.967 374.273 302.967 375.113C302.967 375.953 302.832 376.688 302.562 377.318C302.292 377.938 301.902 378.418 301.392 378.758C300.882 379.098 300.287 379.268 299.607 379.268C299.057 379.268 298.557 379.153 298.107 378.923C297.657 378.693 297.322 378.378 297.102 377.978L297.057 379.088H295.887V368.438H297.177ZM297.057 375.113C297.057 375.703 297.147 376.223 297.327 376.673C297.517 377.113 297.782 377.453 298.122 377.693C298.472 377.923 298.877 378.038 299.337 378.038C300.037 378.038 300.592 377.778 301.002 377.258C301.412 376.728 301.617 376.013 301.617 375.113C301.617 374.203 301.412 373.478 301.002 372.938C300.592 372.398 300.037 372.128 299.337 372.128C298.877 372.128 298.472 372.253 298.122 372.503C297.782 372.743 297.517 373.088 297.327 373.538C297.147 373.988 297.057 374.513 297.057 375.113Z" fill="#BCBCB8"/>
<path d="M287.16 375.113C287.16 374.273 287.31 373.543 287.61 372.923C287.91 372.293 288.335 371.808 288.885 371.468C289.435 371.128 290.075 370.958 290.805 370.958C291.415 370.958 291.97 371.098 292.47 371.378C292.98 371.648 293.395 372.083 293.715 372.683C294.035 373.273 294.215 374.023 294.255 374.933L294.27 375.518H288.525C288.585 376.318 288.81 376.938 289.2 377.378C289.6 377.818 290.135 378.038 290.805 378.038C291.235 378.038 291.625 377.923 291.975 377.693C292.325 377.463 292.59 377.143 292.77 376.733L294.15 376.838C293.92 377.578 293.495 378.168 292.875 378.608C292.265 379.048 291.575 379.268 290.805 379.268C290.075 379.268 289.435 379.098 288.885 378.758C288.335 378.418 287.91 377.938 287.61 377.318C287.31 376.688 287.16 375.953 287.16 375.113ZM292.86 374.378C292.75 373.608 292.51 373.053 292.14 372.713C291.77 372.363 291.325 372.188 290.805 372.188C290.185 372.188 289.68 372.378 289.29 372.758C288.91 373.138 288.665 373.678 288.555 374.378H292.86Z" fill="#BCBCB8"/>
<path d="M275.275 368.438L277.435 377.273L279.61 368.438H281.095L283.285 377.273L285.43 368.438H286.885L284.095 379.088H282.445L280.36 371.123L278.275 379.088H276.625L273.835 368.438H275.275Z" fill="#BCBCB8"/>
<path d="M72.6455 307.664L72.6455 305.438C72.6455 300.824 76.3973 297.088 81.0121 297.108L146.972 297.395C151.586 297.415 155.338 293.68 155.338 289.065L155.338 274.935" stroke="#DBFE01" stroke-width="1.5" stroke-linecap="square" stroke-dasharray="2.78 2.78"/>
<path d="M274.099 307.664L274.099 305.439C274.099 300.824 270.347 297.088 265.731 297.109L201.548 297.394C196.933 297.415 193.18 293.679 193.18 289.064L193.18 274.935" stroke="#DBFE01" stroke-width="1.5" stroke-linecap="square" stroke-dasharray="2.78 2.78"/>
<path d="M174.331 273.139C174.331 279.866 174.331 283.637 174.331 290.364L174.331 308.303" stroke="#DBFE01" stroke-width="1.5" stroke-linecap="square" stroke-dasharray="2.78 2.78"/>
<path d="M155.338 280.223L155.338 269.29M161.325 274.366L155.554 268.595L149.784 274.366" stroke="#DBFE01" stroke-width="1.5" stroke-linecap="square"/>
<path d="M174.331 280.738L174.331 269.804M180.116 274.935L174.346 269.165L168.575 274.935" stroke="#DBFE01" stroke-width="1.5" stroke-linecap="square"/>
<path d="M193.172 280.722L193.172 269.788M198.958 274.919L193.187 269.149L187.417 274.919" stroke="#DBFE01" stroke-width="1.5" stroke-linecap="square"/>
<path d="M72.6454 308.297L72.6454 319.23M78.4304 314.099L72.6599 319.869L66.8894 314.099" stroke="#DBFE01" stroke-width="1.5" stroke-linecap="square"/>
<path d="M174.331 308.297L174.331 319.23M180.116 314.099L174.346 319.869L168.575 314.099" stroke="#DBFE01" stroke-width="1.5" stroke-linecap="square"/>
<path d="M274.084 308.297L274.084 319.23M279.869 314.099L274.099 319.869L268.328 314.099" stroke="#DBFE01" stroke-width="1.5" stroke-linecap="square"/>
<g filter="url(#filter0_ddd_760_7914)">
<g clip-path="url(#clip1_760_7914)">
<rect x="65.7031" y="178.125" width="214.688" height="80.625" rx="9.99642" fill="#DBFE01"/>
<g opacity="0.4">
<line x1="156.309" y1="383.017" x2="7.15381" y2="233.862" stroke="#B0CB01" stroke-width="1.2"/>
<line x1="158.961" y1="380.365" x2="9.80542" y2="231.21" stroke="#B0CB01" stroke-width="1.2"/>
<line x1="161.612" y1="377.714" x2="12.457" y2="228.558" stroke="#B0CB01" stroke-width="1.2"/>
<line x1="164.264" y1="375.062" x2="15.1089" y2="225.907" stroke="#B0CB01" stroke-width="1.2"/>
<line x1="166.916" y1="372.41" x2="17.7605" y2="223.255" stroke="#B0CB01" stroke-width="1.2"/>
<line x1="169.567" y1="369.759" x2="20.4121" y2="220.604" stroke="#B0CB01" stroke-width="1.2"/>
<line x1="172.219" y1="367.107" x2="23.0637" y2="217.952" stroke="#B0CB01" stroke-width="1.2"/>
<line x1="174.871" y1="364.456" x2="25.7153" y2="215.3" stroke="#B0CB01" stroke-width="1.2"/>
<line x1="177.523" y1="361.804" x2="28.3672" y2="212.649" stroke="#B0CB01" stroke-width="1.2"/>
<line x1="180.174" y1="359.152" x2="31.0188" y2="209.997" stroke="#B0CB01" stroke-width="1.2"/>
<line x1="182.826" y1="356.501" x2="33.6704" y2="207.345" stroke="#B0CB01" stroke-width="1.2"/>
<line x1="185.477" y1="353.849" x2="36.322" y2="204.693" stroke="#B0CB01" stroke-width="1.2"/>
<line x1="188.129" y1="351.197" x2="38.9736" y2="202.042" stroke="#B0CB01" stroke-width="1.2"/>
<line x1="190.781" y1="348.546" x2="41.6252" y2="199.39" stroke="#B0CB01" stroke-width="1.2"/>
<line x1="193.432" y1="345.894" x2="44.2769" y2="196.739" stroke="#B0CB01" stroke-width="1.2"/>
<line x1="196.084" y1="343.242" x2="46.9287" y2="194.087" stroke="#B0CB01" stroke-width="1.2"/>
<line x1="198.736" y1="340.591" x2="49.5803" y2="191.435" stroke="#B0CB01" stroke-width="1.2"/>
<line x1="201.387" y1="337.939" x2="52.2319" y2="188.784" stroke="#B0CB01" stroke-width="1.2"/>
<line x1="204.039" y1="335.288" x2="54.8835" y2="186.132" stroke="#B0CB01" stroke-width="1.2"/>
<line x1="206.69" y1="332.636" x2="57.5352" y2="183.48" stroke="#B0CB01" stroke-width="1.2"/>
<line x1="209.342" y1="329.984" x2="60.1868" y2="180.829" stroke="#B0CB01" stroke-width="1.2"/>
<line x1="211.994" y1="327.332" x2="62.8386" y2="178.177" stroke="#B0CB01" stroke-width="1.2"/>
<line x1="214.646" y1="324.681" x2="65.4902" y2="175.526" stroke="#B0CB01" stroke-width="1.2"/>
<line x1="217.297" y1="322.029" x2="68.1419" y2="172.874" stroke="#B0CB01" stroke-width="1.2"/>
<line x1="219.949" y1="319.378" x2="70.7935" y2="170.222" stroke="#B0CB01" stroke-width="1.2"/>
<line x1="222.6" y1="316.726" x2="73.4451" y2="167.57" stroke="#B0CB01" stroke-width="1.2"/>
<line x1="225.252" y1="314.074" x2="76.0967" y2="164.919" stroke="#B0CB01" stroke-width="1.2"/>
<line x1="227.904" y1="311.423" x2="78.7485" y2="162.267" stroke="#B0CB01" stroke-width="1.2"/>
<line x1="230.555" y1="308.771" x2="81.4002" y2="159.616" stroke="#B0CB01" stroke-width="1.2"/>
<line x1="233.207" y1="306.119" x2="84.0518" y2="156.964" stroke="#B0CB01" stroke-width="1.2"/>
<line x1="235.859" y1="303.467" x2="86.7034" y2="154.312" stroke="#B0CB01" stroke-width="1.2"/>
<line x1="238.51" y1="300.816" x2="89.355" y2="151.661" stroke="#B0CB01" stroke-width="1.2"/>
<line x1="241.162" y1="298.164" x2="92.0066" y2="149.009" stroke="#B0CB01" stroke-width="1.2"/>
<line x1="243.814" y1="295.513" x2="94.6582" y2="146.357" stroke="#B0CB01" stroke-width="1.2"/>
<line x1="246.465" y1="292.861" x2="97.3101" y2="143.706" stroke="#B0CB01" stroke-width="1.2"/>
<line x1="249.117" y1="290.209" x2="99.9617" y2="141.054" stroke="#B0CB01" stroke-width="1.2"/>
<line x1="251.769" y1="287.558" x2="102.613" y2="138.402" stroke="#B0CB01" stroke-width="1.2"/>
<line x1="254.42" y1="284.906" x2="105.265" y2="135.751" stroke="#B0CB01" stroke-width="1.2"/>
<line x1="257.072" y1="282.254" x2="107.917" y2="133.099" stroke="#B0CB01" stroke-width="1.2"/>
<line x1="259.723" y1="279.603" x2="110.568" y2="130.447" stroke="#B0CB01" stroke-width="1.2"/>
<line x1="262.375" y1="276.951" x2="113.22" y2="127.796" stroke="#B0CB01" stroke-width="1.2"/>
<line x1="265.027" y1="274.3" x2="115.872" y2="125.144" stroke="#B0CB01" stroke-width="1.2"/>
<line x1="267.679" y1="271.648" x2="118.523" y2="122.492" stroke="#B0CB01" stroke-width="1.2"/>
<line x1="270.33" y1="268.996" x2="121.175" y2="119.841" stroke="#B0CB01" stroke-width="1.2"/>
<line x1="272.982" y1="266.344" x2="123.826" y2="117.189" stroke="#B0CB01" stroke-width="1.2"/>
<line x1="275.633" y1="263.693" x2="126.478" y2="114.537" stroke="#B0CB01" stroke-width="1.2"/>
<line x1="278.285" y1="261.041" x2="129.13" y2="111.886" stroke="#B0CB01" stroke-width="1.2"/>
<line x1="280.937" y1="258.39" x2="131.781" y2="109.234" stroke="#B0CB01" stroke-width="1.2"/>
<line x1="283.588" y1="255.738" x2="134.433" y2="106.582" stroke="#B0CB01" stroke-width="1.2"/>
<line x1="286.24" y1="253.086" x2="137.085" y2="103.931" stroke="#B0CB01" stroke-width="1.2"/>
<line x1="288.892" y1="250.435" x2="139.736" y2="101.279" stroke="#B0CB01" stroke-width="1.2"/>
<line x1="291.543" y1="247.783" x2="142.388" y2="98.6276" stroke="#B0CB01" stroke-width="1.2"/>
<line x1="294.195" y1="245.131" x2="145.04" y2="95.976" stroke="#B0CB01" stroke-width="1.2"/>
<line x1="296.847" y1="242.48" x2="147.691" y2="93.3243" stroke="#B0CB01" stroke-width="1.2"/>
<line x1="299.498" y1="239.828" x2="150.343" y2="90.6727" stroke="#B0CB01" stroke-width="1.2"/>
<line x1="302.15" y1="237.176" x2="152.995" y2="88.0209" stroke="#B0CB01" stroke-width="1.2"/>
<line x1="304.802" y1="234.525" x2="155.646" y2="85.3695" stroke="#B0CB01" stroke-width="1.2"/>
<line x1="307.453" y1="231.873" x2="158.298" y2="82.7177" stroke="#B0CB01" stroke-width="1.2"/>
<line x1="310.105" y1="229.221" x2="160.95" y2="80.066" stroke="#B0CB01" stroke-width="1.2"/>
<line x1="312.757" y1="226.57" x2="163.601" y2="77.4144" stroke="#B0CB01" stroke-width="1.2"/>
<line x1="315.408" y1="223.918" x2="166.253" y2="74.7628" stroke="#B0CB01" stroke-width="1.2"/>
<line x1="318.06" y1="221.266" x2="168.905" y2="72.111" stroke="#B0CB01" stroke-width="1.2"/>
<line x1="320.711" y1="218.615" x2="171.556" y2="69.4594" stroke="#B0CB01" stroke-width="1.2"/>
<line x1="323.363" y1="215.963" x2="174.208" y2="66.8077" stroke="#B0CB01" stroke-width="1.2"/>
<line x1="326.015" y1="213.311" x2="176.859" y2="64.1561" stroke="#B0CB01" stroke-width="1.2"/>
<line x1="328.667" y1="210.66" x2="179.511" y2="61.5045" stroke="#B0CB01" stroke-width="1.2"/>
<line x1="331.318" y1="208.008" x2="182.163" y2="58.8529" stroke="#B0CB01" stroke-width="1.2"/>
</g>
<path fill-rule="evenodd" clip-rule="evenodd" d="M129.116 198.095C128.357 197.456 128.311 196.314 129.016 195.618L130.091 194.557C130.787 193.871 131.923 193.903 132.577 194.627L133.522 195.674C134.979 197.287 137.536 197.287 138.993 195.674L139.938 194.627C140.592 193.903 141.728 193.871 142.423 194.557L143.498 195.618C144.204 196.314 144.158 197.456 143.399 198.095L142.566 198.796C140.737 200.336 140.737 203.125 142.566 204.665L143.399 205.366C144.158 206.005 144.204 207.147 143.498 207.843L142.451 208.877C141.746 209.573 140.589 209.528 139.942 208.779L139.045 207.741C137.582 206.05 134.933 206.05 133.47 207.741L132.573 208.779C131.926 209.528 130.769 209.573 130.063 208.877L129.016 207.843C128.311 207.147 128.357 206.005 129.116 205.366L130.058 204.573C131.829 203.081 131.829 200.38 130.058 198.888L129.116 198.095Z" fill="#191918"/>
<path d="M212.717 209.645C210.173 209.645 208.244 208.49 208.203 206.121L211.301 205.979C211.301 206.627 211.712 207.174 212.656 207.174C213.292 207.174 213.723 206.83 213.723 206.364C213.723 204.987 209.147 204.947 209.147 202.031C209.147 200.066 210.809 198.75 213.292 198.75C215.631 198.75 217.539 199.904 217.58 202.172L214.461 202.294C214.441 201.565 214.01 201.221 213.292 201.221C212.84 201.221 212.368 201.443 212.368 201.929C212.368 203.266 217.006 203.165 217.006 206.121C217.006 208.288 215.241 209.645 212.717 209.645Z" fill="#141413"/>
<path d="M206.209 197.505C205.244 197.505 204.547 196.816 204.547 195.905C204.547 194.873 205.429 194.062 206.516 194.062C207.481 194.062 208.178 194.751 208.178 195.662C208.178 196.675 207.296 197.505 206.209 197.505ZM201.694 212.753C201.038 212.753 200.361 212.632 199.766 212.348L200.238 209.655C200.443 209.777 200.689 209.878 201.099 209.878C201.838 209.878 202.33 209.432 202.474 208.562L204.218 198.68H207.46L205.614 209.129C205.203 211.437 203.664 212.753 201.694 212.753Z" fill="#141413"/>
<path d="M198.636 208.917C197.651 208.917 196.953 208.188 196.953 207.236C196.953 206.163 197.856 205.312 198.964 205.312C199.928 205.312 200.605 206.021 200.605 206.973C200.605 208.066 199.723 208.917 198.636 208.917Z" fill="#141413"/>
<path d="M196.537 203.529C196.537 204.137 196.455 204.663 196.27 205.19H188.781C188.986 206.222 189.745 206.951 190.894 206.951C191.756 206.951 192.433 206.526 192.68 206.222L195.963 206.364C195.244 207.903 193.336 209.645 190.73 209.645C187.919 209.645 185.703 207.539 185.703 204.663C185.703 201.686 188.247 198.75 191.695 198.75C194.362 198.75 196.537 200.735 196.537 203.529ZM191.428 201.403C190.299 201.403 189.397 202.172 188.986 203.205H193.541C193.418 202.294 192.762 201.403 191.428 201.403Z" fill="#141413"/>
<path d="M179.905 209.645C177.36 209.645 175.432 208.49 175.391 206.121L178.489 205.979C178.489 206.627 178.899 207.174 179.843 207.174C180.479 207.174 180.91 206.83 180.91 206.364C180.91 204.987 176.334 204.947 176.334 202.031C176.334 200.066 177.997 198.75 180.479 198.75C182.818 198.75 184.727 199.904 184.768 202.172L181.649 202.294C181.628 201.565 181.197 201.221 180.479 201.221C180.028 201.221 179.556 201.443 179.556 201.929C179.556 203.266 184.193 203.165 184.193 206.121C184.193 208.288 182.429 209.645 179.905 209.645Z" fill="#141413"/>
<path d="M167.931 209.361C165.141 209.361 163.746 207.255 164.238 204.542L165.264 198.75H168.506L167.501 204.339C167.336 205.352 167.911 206.404 169.163 206.404C170.127 206.404 170.927 205.655 171.091 204.623L172.117 198.75H175.359L173.533 209.078H171.153L170.845 208.126H170.743C170.189 208.794 169.204 209.361 167.931 209.361Z" fill="#141413"/>
<path d="M164.531 195L163.977 198.22H157.391L156.878 201.156H162.5L161.946 204.234H156.324L155.441 209.175H151.953L154.477 195H164.531Z" fill="#141413"/>
<path d="M211.645 242.032C209.755 242.032 208.626 240.877 208.561 239.486H210.083C210.122 240.142 210.713 240.694 211.632 240.694C212.537 240.694 212.997 240.247 212.997 239.696C212.997 238.029 208.771 238.751 208.771 235.942C208.771 234.735 209.781 233.711 211.527 233.711C213.167 233.711 214.309 234.774 214.388 236.192H212.879C212.813 235.496 212.288 235.05 211.527 235.05C210.713 235.05 210.293 235.483 210.293 235.969C210.293 237.544 214.519 236.796 214.519 239.67C214.519 240.996 213.469 242.032 211.645 242.032Z" fill="#141413"/>
<path d="M204.479 242.032C202.786 242.032 201.657 240.799 201.657 239.486H203.166C203.206 240.116 203.665 240.602 204.466 240.602C205.279 240.602 205.778 240.064 205.778 239.092V233.869H207.301V239.079C207.301 240.799 206.159 242.032 204.479 242.032Z" fill="#141413"/>
<path d="M200.188 242.032C199.663 242.032 199.269 241.626 199.269 241.114C199.269 240.602 199.663 240.208 200.188 240.208C200.713 240.208 201.107 240.602 201.107 241.114C201.107 241.626 200.713 242.032 200.188 242.032Z" fill="#141413"/>
<path d="M197.162 241.875H195.64V235.286H193.251V233.869H199.551V235.286H197.162V241.875Z" fill="#141413"/>
<path d="M190.42 237.793L193.019 241.875H191.287L189.423 238.817L187.546 241.875H185.853L188.465 237.793L185.997 233.869H187.73L189.462 236.756L191.182 233.869H192.875L190.42 237.793Z" fill="#141413"/>
<path d="M181.217 238.436V240.471H185.312V241.875H179.695V233.869H185.181V235.273H181.217V237.084H184.879V238.436H181.217Z" fill="#141413"/>
<path d="M176.369 239.434V233.869H177.852V241.875H176.474L172.655 236.323V241.875H171.171V233.869H172.55L176.369 239.434Z" fill="#141413"/>
<path d="M153.76 241.875H152.028L150.361 239.04H148.943V241.875H147.421V233.869H150.715C152.421 233.869 153.55 234.958 153.55 236.454C153.55 237.609 152.868 238.462 151.87 238.83L153.76 241.875ZM150.689 235.26H148.943V237.688H150.689C151.516 237.688 152.028 237.229 152.028 236.467C152.028 235.719 151.516 235.26 150.689 235.26Z" fill="#141413"/>
<path d="M142.031 242.032C139.813 242.032 138.015 240.182 138.015 237.872C138.015 235.562 139.813 233.711 142.031 233.711C144.249 233.711 146.047 235.562 146.047 237.872C146.047 240.182 144.249 242.032 142.031 242.032ZM142.031 240.602C143.436 240.602 144.525 239.46 144.525 237.872C144.525 236.284 143.436 235.142 142.031 235.142C140.64 235.142 139.537 236.284 139.537 237.872C139.537 239.46 140.64 240.602 142.031 240.602Z" fill="#141413"/>
<path d="M137.461 233.869V235.273H133.537V237.426H137.015V238.777H133.537V241.875H132.014V233.869H137.461Z" fill="#141413"/>
<path d="M261.016 228.75H259.283L257.617 225.915H256.199V228.75H254.677V220.744H257.971C259.677 220.744 260.806 221.833 260.806 223.329C260.806 224.484 260.123 225.337 259.126 225.705L261.016 228.75ZM257.945 222.135H256.199V224.563H257.945C258.772 224.563 259.283 224.104 259.283 223.342C259.283 222.594 258.772 222.135 257.945 222.135Z" fill="#141413"/>
<path d="M249.188 225.311V227.346H253.283V228.75H247.666V220.744H253.152V222.148H249.188V223.959H252.85V225.311H249.188Z" fill="#141413"/>
<path d="M243.279 224.301L245.143 220.744H246.757L244.001 225.757V228.75H242.478V225.757L239.722 220.744H241.402L243.279 224.301Z" fill="#141413"/>
<path d="M240.312 228.75H238.724L238.107 227.031H234.787L234.17 228.75H232.608L235.666 220.744H237.267L240.312 228.75ZM237.622 225.666L236.44 222.345L235.272 225.666H237.622Z" fill="#141413"/>
<path d="M232.552 228.75H227.158V220.744H228.68V227.372H232.552V228.75Z" fill="#141413"/>
<path d="M226.277 228.75H224.689L224.072 227.031H220.752L220.135 228.75H218.573L221.631 220.744H223.232L226.277 228.75ZM223.587 225.666L222.405 222.345L221.237 225.666H223.587Z" fill="#141413"/>
<path d="M216.85 228.75H215.327V222.161H212.938V220.744H219.238V222.161H216.85V228.75Z" fill="#141413"/>
<path d="M213.332 228.75H211.743L211.127 227.031H207.806L207.189 228.75H205.627L208.685 220.744H210.287L213.332 228.75ZM210.641 225.666L209.46 222.345L208.292 225.666H210.641Z" fill="#141413"/>
<path d="M201.288 228.75H198.716V220.744H201.288C203.73 220.744 205.475 222.45 205.475 224.747C205.475 227.044 203.73 228.75 201.288 228.75ZM200.238 222.161V227.332H201.288C202.837 227.332 203.953 226.243 203.953 224.747C203.953 223.251 202.837 222.161 201.288 222.161H200.238Z" fill="#141413"/>
<path d="M189.984 225.311V227.346H194.079V228.75H188.462V220.744H193.948V222.148H189.984V223.959H193.646V225.311H189.984Z" fill="#141413"/>
<path d="M183.354 228.907C181.136 228.907 179.338 227.057 179.338 224.747C179.338 222.437 181.136 220.586 183.354 220.586C185.454 220.586 186.78 222.069 187.108 223.605H185.546C185.284 222.817 184.588 222.017 183.354 222.017C181.963 222.017 180.861 223.159 180.861 224.747C180.861 226.335 181.963 227.477 183.354 227.477C184.641 227.477 185.336 226.663 185.599 225.889H187.161C186.833 227.437 185.52 228.907 183.354 228.907Z" fill="#141413"/>
<path d="M178.6 228.75H176.868L175.201 225.915H173.783V228.75H172.261V220.744H175.555C177.261 220.744 178.39 221.833 178.39 223.329C178.39 224.484 177.708 225.337 176.71 225.705L178.6 228.75ZM175.529 222.135H173.783V224.563H175.529C176.356 224.563 176.868 224.104 176.868 223.342C176.868 222.594 176.356 222.135 175.529 222.135Z" fill="#141413"/>
<path d="M167.159 228.907C165.19 228.907 163.825 227.49 163.825 225.508V220.744H165.348V225.508C165.348 226.729 166.057 227.477 167.159 227.477C168.262 227.477 168.97 226.729 168.97 225.508V220.744H170.493V225.508C170.493 227.49 169.128 228.907 167.159 228.907Z" fill="#141413"/>
<path d="M158.501 228.907C156.283 228.907 154.485 227.057 154.485 224.747C154.485 222.437 156.283 220.586 158.501 220.586C160.719 220.586 162.518 222.437 162.518 224.747C162.518 227.057 160.719 228.907 158.501 228.907ZM158.501 227.477C159.906 227.477 160.995 226.335 160.995 224.747C160.995 223.159 159.906 222.017 158.501 222.017C157.11 222.017 156.008 223.159 156.008 224.747C156.008 226.335 157.11 227.477 158.501 227.477Z" fill="#141413"/>
<path d="M150.673 228.907C148.783 228.907 147.654 227.752 147.588 226.361H149.111C149.15 227.017 149.741 227.569 150.659 227.569C151.565 227.569 152.024 227.122 152.024 226.571C152.024 224.904 147.798 225.626 147.798 222.817C147.798 221.61 148.809 220.586 150.554 220.586C152.195 220.586 153.337 221.649 153.416 223.067H151.906C151.841 222.371 151.316 221.925 150.554 221.925C149.741 221.925 149.321 222.358 149.321 222.844C149.321 224.419 153.547 223.671 153.547 226.545C153.547 227.871 152.497 228.907 150.673 228.907Z" fill="#141413"/>
<path d="M146.641 225.876H142.349V224.576H146.641V225.876Z" fill="#141413"/>
<path d="M139.404 226.309V220.744H140.887V228.75H139.509L135.689 223.198V228.75H134.206V220.744H135.584L139.404 226.309Z" fill="#141413"/>
<path d="M128.717 225.311V227.346H132.812V228.75H127.195V220.744H132.681V222.148H128.717V223.959H132.379V225.311H128.717Z" fill="#141413"/>
<path d="M119.953 220.744H123.038C124.704 220.744 125.912 221.912 125.912 223.421C125.912 224.944 124.704 226.112 123.038 226.112H121.476V228.75H119.953V220.744ZM121.476 224.707H123.011C123.825 224.707 124.389 224.169 124.389 223.421C124.389 222.699 123.825 222.148 123.011 222.148H121.476V224.707Z" fill="#141413"/>
<path d="M114.563 228.907C112.345 228.907 110.547 227.057 110.547 224.747C110.547 222.437 112.345 220.586 114.563 220.586C116.781 220.586 118.58 222.437 118.58 224.747C118.58 227.057 116.781 228.907 114.563 228.907ZM114.563 227.477C115.968 227.477 117.057 226.335 117.057 224.747C117.057 223.159 115.968 222.017 114.563 222.017C113.172 222.017 112.07 223.159 112.07 224.747C112.07 226.335 113.172 227.477 114.563 227.477Z" fill="#141413"/>
<path d="M102.275 225.311V227.346H106.37V228.75H100.753V220.744H106.239V222.148H102.275V223.959H105.937V225.311H102.275Z" fill="#141413"/>
<path d="M97.3972 223.933V220.744H98.9197V228.75H97.3972V225.351H93.8797V228.75H92.3572V220.744H93.8797V223.933H97.3972Z" fill="#141413"/>
<path d="M88.881 228.75H87.3585V222.161H84.9697V220.744H91.2697V222.161H88.881V228.75Z" fill="#141413"/>
<g clip-path="url(#clip2_760_7914)">
<mask id="mask0_760_7914" style="mask-type:alpha" maskUnits="userSpaceOnUse" x="156" y="231" width="12" height="12">
<path d="M162.266 242.812C165.372 242.812 167.891 240.294 167.891 237.188C167.891 234.081 165.372 231.562 162.266 231.562C159.159 231.562 156.641 234.081 156.641 237.188C156.641 240.294 159.159 242.812 162.266 242.812Z" fill="black"/>
</mask>
<g mask="url(#mask0_760_7914)">
<path d="M162.266 242.812C165.372 242.812 167.891 240.294 167.891 237.188C167.891 234.081 165.372 231.562 162.266 231.562C159.159 231.562 156.641 234.081 156.641 237.188C156.641 240.294 159.159 242.812 162.266 242.812Z" fill="black"/>
<path d="M166.36 241.783L161.337 235.312H160.391V239.811H161.148V236.274L165.766 242.24C165.974 242.101 166.172 241.948 166.36 241.783Z" fill="url(#paint1_linear_760_7914)"/>
<path d="M164.891 235.312H164.141V239.813H164.891V235.312Z" fill="url(#paint2_linear_760_7914)"/>
</g>
</g>
</g>
<rect x="66.3031" y="178.725" width="213.488" height="79.425" rx="9.39642" stroke="#B0CB01" stroke-width="1.2"/>
</g>
<rect width="1.5625" height="103.125" transform="matrix(-4.37114e-08 1 1 4.37114e-08 117.969 157.031)" fill="#1A1A19"/>
<line x1="117.265" y1="157.824" x2="226.406" y2="157.824" stroke="url(#paint3_linear_760_7914)" stroke-width="1.5625" stroke-dasharray="3.12 3.12"/>
<path d="M72.6453 123.586L72.6453 125.925C72.6453 130.54 76.3973 134.276 81.0123 134.255L146.971 133.965C151.586 133.945 155.338 137.68 155.338 142.295L155.338 156.666" stroke="#92928C" stroke-width="1.5" stroke-linecap="square" stroke-dasharray="2.78 2.78"/>
<path d="M274.849 123.586L274.849 122.836L273.349 122.836L273.349 123.586L274.849 123.586ZM265.731 134.254L265.728 135.004L265.731 134.254ZM201.548 133.966L201.552 133.216L201.548 133.966ZM273.349 123.586L273.349 124.171L274.849 124.171L274.849 123.586L273.349 123.586ZM273.349 125.34L273.349 125.924L274.849 125.924L274.849 125.34L273.349 125.34ZM273.349 125.924C273.349 126.433 273.299 126.929 273.204 127.409L274.675 127.701C274.789 127.126 274.849 126.532 274.849 125.924L273.349 125.924ZM272.065 130.146C271.509 130.974 270.793 131.687 269.962 132.24L270.793 133.489C271.788 132.827 272.644 131.974 273.31 130.983L272.065 130.146ZM267.219 133.366C266.74 133.459 266.243 133.507 265.734 133.505L265.728 135.004C266.335 135.007 266.929 134.95 267.505 134.839L267.219 133.366ZM265.734 133.505L264.397 133.498L264.391 134.998L265.728 135.004L265.734 133.505ZM261.723 133.486L259.049 133.474L259.042 134.974L261.716 134.986L261.723 133.486ZM256.374 133.462L253.7 133.45L253.693 134.95L256.368 134.962L256.374 133.462ZM251.026 133.438L248.352 133.426L248.345 134.926L251.019 134.938L251.026 133.438ZM245.677 133.414L243.003 133.402L242.996 134.902L245.671 134.914L245.677 133.414ZM240.329 133.39L237.654 133.378L237.648 134.878L240.322 134.89L240.329 133.39ZM234.98 133.366L232.306 133.354L232.299 134.854L234.973 134.866L234.98 133.366ZM229.632 133.342L226.957 133.33L226.951 134.83L229.625 134.842L229.632 133.342ZM224.283 133.318L221.609 133.306L221.602 134.806L224.276 134.818L224.283 133.318ZM218.935 133.294L216.26 133.282L216.253 134.782L218.928 134.794L218.935 133.294ZM213.586 133.27L210.912 133.258L210.905 134.758L213.579 134.77L213.586 133.27ZM208.237 133.246L205.563 133.234L205.556 134.734L208.231 134.746L208.237 133.246ZM202.889 133.222L201.552 133.216L201.545 134.716L202.882 134.722L202.889 133.222ZM201.552 133.216C200.944 133.213 200.35 133.27 199.775 133.382L200.06 134.854C200.54 134.761 201.036 134.714 201.545 134.716L201.552 133.216ZM196.486 134.732C195.492 135.393 194.635 136.246 193.969 137.238L195.214 138.074C195.771 137.246 196.486 136.533 197.317 135.98L196.486 134.732ZM192.604 140.52C192.49 141.095 192.43 141.689 192.43 142.296L193.93 142.296C193.93 141.787 193.98 141.291 194.076 140.812L192.604 140.52ZM192.43 142.296L192.43 143.494L193.93 143.494L193.93 142.296L192.43 142.296ZM192.43 145.889L192.43 148.284L193.93 148.284L193.93 145.889L192.43 145.889ZM192.43 150.678L192.43 153.073L193.93 153.073L193.93 150.678L192.43 150.678ZM192.43 155.468L192.43 156.666L193.93 156.666L193.93 155.468L192.43 155.468Z" fill="#92928C"/>
<path d="M174.332 157.155C174.332 150.611 174.332 146.942 174.332 140.398L174.332 122.947" stroke="#92928C" stroke-width="1.5" stroke-linecap="square" stroke-dasharray="2.78 2.78"/>
<path d="M155.332 157.624L155.332 168.557M161.117 163.426L155.347 169.197L149.576 163.426" stroke="#92928C" stroke-width="1.5" stroke-linecap="square"/>
<path d="M174.327 157.624L174.327 168.557M180.112 163.426L174.342 169.197L168.571 163.426" stroke="#92928C" stroke-width="1.5" stroke-linecap="square"/>
<path d="M193.166 157.624L193.166 168.557M198.951 163.426L193.18 169.197L187.41 163.426" stroke="#92928C" stroke-width="1.5" stroke-linecap="square"/>
<path d="M72.6307 122.947L72.6307 112.014M78.4158 117.145L72.6453 111.374L66.8748 117.145" stroke="#92928C" stroke-width="1.5" stroke-linecap="square"/>
<path d="M174.331 122.947L174.331 112.014M180.116 117.145L174.346 111.375L168.575 117.145" stroke="#92928C" stroke-width="1.5" stroke-linecap="square"/>
<path d="M274.084 122.947L274.084 112.014M279.869 117.145L274.099 111.374L268.328 117.145" stroke="#92928C" stroke-width="1.5" stroke-linecap="square"/>
<rect x="0.694196" y="29.6004" width="348.612" height="73.6116" rx="11.8058" fill="#141413"/>
<rect x="0.694196" y="29.6004" width="348.612" height="73.6116" rx="11.8058" stroke="#222221" stroke-width="1.38839" stroke-dasharray="2.78 2.78"/>
<rect x="5.1875" y="34.0938" width="110.458" height="64.625" rx="7.3125" fill="#191918"/>
<rect x="5.1875" y="34.0938" width="110.458" height="64.625" rx="7.3125" stroke="#222221"/>
<path d="M41.3148 73.6738C41.6851 74.1534 42.1662 74.5413 42.7192 74.806C43.3172 75.0945 43.9772 75.2403 44.6445 75.2316C45.1841 75.2453 45.7212 75.1561 46.2256 74.969C46.629 74.8146 46.9892 74.5694 47.2766 74.2535C47.5463 73.9457 47.7431 73.5839 47.8533 73.1938C47.9733 72.7721 48.0328 72.3363 48.0299 71.8988V70.3772H47.9928C47.6431 70.9171 47.1386 71.3453 46.5417 71.609C45.9726 71.8502 45.3581 71.9736 44.7374 71.9712C44.1292 71.9757 43.5259 71.865 42.9611 71.6452C42.4263 71.4384 41.9369 71.1341 41.5194 70.7486C41.1051 70.3612 40.776 69.8959 40.5521 69.3808C40.3138 68.8371 40.1935 68.2513 40.1987 67.6601C40.1935 67.0707 40.3073 66.486 40.5336 65.9393C40.7475 65.4221 41.0598 64.9489 41.4543 64.5446C41.8486 64.1437 42.3235 63.8262 42.8494 63.6117C43.4121 63.3839 44.0165 63.2699 44.6259 63.2767C44.9034 63.2782 45.1802 63.3024 45.4536 63.349C45.7541 63.4002 46.0475 63.4853 46.3278 63.6027C46.9933 63.8835 47.5686 64.3342 47.9928 64.907H48.0299V63.494H49.2577V71.8988C49.2535 72.3926 49.1943 72.8845 49.081 73.3659C48.9624 73.8864 48.7274 74.3749 48.3927 74.7968C48.0119 75.2622 47.5246 75.6345 46.9697 75.8838C46.3619 76.1735 45.5682 76.3183 44.5886 76.3183C43.7928 76.3315 43.0023 76.1899 42.2634 75.9018C41.5565 75.6069 40.9224 75.1685 40.4035 74.6159L41.3148 73.6738ZM41.538 67.624C41.5349 68.0557 41.6203 68.4836 41.7892 68.8828C41.9502 69.2658 42.1836 69.616 42.4773 69.9152C42.7693 70.2117 43.1165 70.4515 43.5004 70.6217C43.9004 70.7988 44.3353 70.8884 44.7746 70.8843C45.6447 70.8874 46.4831 70.5667 47.1184 69.9878C47.4304 69.7011 47.6748 69.3519 47.8347 68.9642C48.0069 68.5381 48.0862 68.0816 48.0672 67.624C48.0704 67.1947 47.9948 66.7684 47.844 66.365C47.7007 65.9816 47.4792 65.6304 47.1928 65.3326C46.8985 65.0306 46.5441 64.7903 46.1512 64.6262C45.7162 64.4461 45.2473 64.3566 44.7746 64.3634C44.3353 64.3595 43.9004 64.4492 43.5004 64.6262C43.1166 64.7966 42.7694 65.0363 42.4773 65.3326C42.1837 65.6318 41.9503 65.982 41.7891 66.365C41.6203 66.7642 41.5349 67.1923 41.538 67.624ZM54.2613 71.9712H52.9221V59.1466H56.9772C58.3165 59.1466 59.3737 59.4304 60.1487 59.998C60.9237 60.5657 61.3113 61.4231 61.3114 62.5701C61.335 63.4027 61.0248 64.2116 60.4465 64.8252C59.8697 65.4352 59.0357 65.7884 57.9445 65.8848L61.7393 71.9712H60.1022L56.4937 66.0118H54.2614L54.2613 71.9712ZM54.2613 64.8163H56.6424C57.154 64.8268 57.6646 64.7658 58.1584 64.6351C58.5196 64.5411 58.8579 64.3779 59.1536 64.1552C59.3922 63.9682 59.5778 63.7251 59.693 63.4488C59.8062 63.1691 59.863 62.8708 59.8605 62.5701C59.8618 62.2756 59.805 61.9835 59.693 61.7099C59.5765 61.4317 59.3912 61.1859 59.1536 60.9943C58.8607 60.7671 58.5214 60.6035 58.1584 60.5142C57.6634 60.3902 57.1534 60.3323 56.6424 60.3422H54.2613V64.8163ZM64.0456 59.1466H67.8776C69.2169 59.1466 70.274 59.4305 71.049 59.9981C71.824 60.5658 72.2116 61.4232 72.2117 62.5703C72.2117 63.7177 71.8242 64.578 71.049 65.1514C70.274 65.7251 69.2169 66.0119 67.8776 66.0118H65.385V71.9712H64.0456V59.1466ZM65.3852 64.8164H67.543C68.0546 64.8269 68.5651 64.7659 69.059 64.6352C69.4201 64.5412 69.7584 64.378 70.0542 64.1553C70.2927 63.9683 70.4784 63.7252 70.5935 63.4489C70.7068 63.1692 70.7636 62.8709 70.761 62.5703C70.7624 62.2757 70.7056 61.9836 70.5935 61.71C70.477 61.4318 70.2918 61.186 70.0542 60.9944C69.7613 60.7673 69.422 60.6036 69.059 60.5144C68.564 60.3903 68.054 60.3324 67.543 60.3424H65.385L65.3852 64.8164ZM85.6604 69.9425C85.4247 70.2825 85.1467 70.5928 84.8328 70.8663C84.493 71.1636 84.1146 71.4163 83.7074 71.6179C83.2726 71.8341 82.8139 72.0013 82.3402 72.1162C81.8321 72.239 81.3103 72.2998 80.7868 72.2973C79.8529 72.3058 78.9266 72.1334 78.0618 71.7902C76.4125 71.1411 75.106 69.8657 74.4437 68.2579C74.0893 67.4004 73.9123 66.4832 73.923 65.5589C73.9124 64.6347 74.0893 63.7174 74.4437 62.8599C75.106 61.2523 76.4125 59.9768 78.0618 59.3279C78.9266 58.9846 79.8529 58.8122 80.7868 58.8207C81.6285 58.8251 82.4617 58.9849 83.2423 59.2916C84.0748 59.616 84.8013 60.1545 85.3442 60.8495L84.1724 61.7008C84.015 61.4725 83.8273 61.2654 83.6142 61.0849C83.3681 60.8727 83.0964 60.6902 82.8053 60.5416C82.4942 60.382 82.1668 60.2545 81.8285 60.1612C81.4899 60.0658 81.1393 60.017 80.7868 60.0162C80.0054 60.0037 79.2308 60.1583 78.5174 60.4691C77.8703 60.755 77.2908 61.1681 76.8155 61.6826C76.3451 62.1985 75.9818 62.7983 75.7457 63.4488C75.2498 64.8141 75.2498 66.3038 75.7457 67.6691C75.9817 68.3196 76.345 68.9193 76.8155 69.4352C77.2907 69.9498 77.8702 70.363 78.5174 70.6488C79.2307 70.9598 80.0054 71.1144 80.7868 71.1018C81.133 71.1019 81.4786 71.0716 81.8192 71.0112C82.1658 70.9491 82.5032 70.8457 82.8238 70.7033C83.1617 70.5523 83.4751 70.3539 83.7539 70.1144C84.0671 69.842 84.3394 69.528 84.5629 69.1818L85.6604 69.9425Z" fill="white"/>
<path d="M38.6431 63.3632L35.1745 60.0106L38.6174 56.6331L42.0859 59.9856L38.6431 63.3632Z" fill="url(#paint4_linear_760_7914)"/>
<path d="M47.975 61.8496L45.9405 59.8832L47.9599 57.9021L49.9944 59.8685L47.975 61.8496Z" fill="url(#paint5_linear_760_7914)"/>
<path d="M39.1732 58.0698L37.0883 60.1152L39.1887 62.1455L40.9657 62.139L39.1022 60.3391L48.3037 60.3059L47.4973 61.0964L48.3858 61.0933L49.4283 60.0706L48.378 59.0555L47.4895 59.0587L48.302 59.8436L39.1006 59.8768L40.9501 58.0634L39.1732 58.0698Z" fill="#244B5A"/>
<rect x="119.771" y="34.0938" width="110.458" height="64.625" rx="7.3125" fill="#191918"/>
<rect x="119.771" y="34.0938" width="110.458" height="64.625" rx="7.3125" stroke="#222221"/>
<path d="M185.414 50.9442V54.2867C185.414 55.0904 185.821 55.4557 186.784 55.4557V57.0996C185.821 57.0996 185.414 57.4649 185.414 58.2685V61.6111C185.414 63.5289 184.377 64.4969 182.36 64.4969H181.286V62.6522H182.211C182.989 62.6522 183.452 62.2321 183.452 61.4101V58.1224C183.452 56.99 184.118 56.4786 184.729 56.2776C184.118 56.0767 183.452 55.5653 183.452 54.4329V51.1452C183.452 50.3232 182.989 49.9031 182.211 49.9031H181.286V48.0583H182.36C184.377 48.0583 185.414 49.0264 185.414 50.9442Z" fill="#51AC9D"/>
<path d="M174.82 53.6877C174.08 53.6877 173.525 53.1214 173.525 52.4091C173.525 51.6968 174.08 51.1488 174.82 51.1488C175.561 51.1488 176.116 51.6968 176.116 52.4091C176.116 53.1214 175.561 53.6877 174.82 53.6877ZM174.82 60.6101C174.08 60.6101 173.525 60.0439 173.525 59.3316C173.525 58.6192 174.08 58.0713 174.82 58.0713C175.561 58.0713 176.116 58.6192 176.116 59.3316C176.116 60.0439 175.561 60.6101 174.82 60.6101Z" fill="#51AC9D"/>
<path d="M166.189 51.1449V54.4326C166.189 55.5651 165.504 56.0765 164.893 56.2774C165.504 56.4783 166.189 56.9897 166.189 58.1222V61.4099C166.189 62.2318 166.652 62.6519 167.411 62.6519H168.336V64.4967H167.281C165.263 64.4967 164.227 63.5286 164.227 61.6108V58.2683C164.227 57.4646 163.82 57.0993 162.857 57.0993V55.4555C163.82 55.4555 164.227 55.0902 164.227 54.2865V50.944C164.227 49.0262 165.263 48.0581 167.281 48.0581H168.355V49.9029H167.411C166.652 49.9029 166.189 50.323 166.189 51.1449Z" fill="#51AC9D"/>
<path d="M187.129 73.2377V80.8577C187.129 81.1877 187.209 81.4377 187.369 81.6077C187.529 81.7677 187.764 81.8477 188.074 81.8477H189.229V82.9877H188.074C187.354 82.9877 186.799 82.8027 186.409 82.4327C186.029 82.0627 185.839 81.5377 185.839 80.8577V73.2377H187.129ZM189.259 75.0377V76.1777H184.684V75.0377H189.259Z" fill="#BCBCB8"/>
<path d="M182.104 77.4977C182.014 77.0677 181.779 76.7277 181.399 76.4777C181.029 76.2177 180.619 76.0877 180.169 76.0877C179.719 76.0877 179.344 76.1977 179.044 76.4177C178.744 76.6277 178.594 76.9127 178.594 77.2727C178.594 77.6227 178.769 77.8927 179.119 78.0827C179.479 78.2727 179.929 78.4227 180.469 78.5327C181.149 78.6627 181.709 78.8177 182.149 78.9977C182.599 79.1677 182.954 79.4127 183.214 79.7327C183.474 80.0427 183.604 80.4527 183.604 80.9627C183.604 81.4527 183.454 81.8627 183.154 82.1927C182.854 82.5227 182.469 82.7677 181.999 82.9277C181.529 83.0877 181.029 83.1677 180.499 83.1677C179.869 83.1677 179.299 83.0577 178.789 82.8377C178.279 82.6177 177.869 82.3077 177.559 81.9077C177.259 81.4977 177.089 81.0227 177.049 80.4827L178.399 80.3927C178.459 80.7127 178.579 80.9877 178.759 81.2177C178.939 81.4477 179.174 81.6277 179.464 81.7577C179.764 81.8777 180.109 81.9377 180.499 81.9377C180.959 81.9377 181.364 81.8577 181.714 81.6977C182.074 81.5277 182.254 81.2577 182.254 80.8877C182.254 80.6277 182.179 80.4227 182.029 80.2727C181.879 80.1227 181.699 80.0127 181.489 79.9427C181.279 79.8727 180.984 79.7977 180.604 79.7177C180.524 79.7077 180.404 79.6827 180.244 79.6427C179.624 79.5027 179.109 79.3577 178.699 79.2077C178.289 79.0477 177.944 78.8177 177.664 78.5177C177.384 78.2177 177.244 77.8277 177.244 77.3477C177.244 76.8477 177.369 76.4127 177.619 76.0427C177.879 75.6627 178.239 75.3727 178.699 75.1727C179.159 74.9627 179.694 74.8577 180.304 74.8577C181.104 74.8577 181.794 75.0927 182.374 75.5627C182.964 76.0227 183.324 76.6377 183.454 77.4077L182.104 77.4977Z" fill="#BCBCB8"/>
<path d="M168.523 79.0127C168.523 78.1727 168.673 77.4427 168.973 76.8227C169.273 76.1927 169.698 75.7077 170.248 75.3677C170.798 75.0277 171.438 74.8577 172.168 74.8577C172.778 74.8577 173.333 74.9977 173.833 75.2777C174.343 75.5477 174.758 75.9827 175.078 76.5827C175.398 77.1727 175.578 77.9227 175.618 78.8327L175.633 79.4177H169.888C169.948 80.2177 170.173 80.8377 170.563 81.2777C170.963 81.7177 171.498 81.9377 172.168 81.9377C172.598 81.9377 172.988 81.8227 173.338 81.5927C173.688 81.3627 173.953 81.0427 174.133 80.6327L175.513 80.7377C175.283 81.4777 174.858 82.0677 174.238 82.5077C173.628 82.9477 172.938 83.1677 172.168 83.1677C171.438 83.1677 170.798 82.9977 170.248 82.6577C169.698 82.3177 169.273 81.8377 168.973 81.2177C168.673 80.5877 168.523 79.8527 168.523 79.0127ZM174.223 78.2777C174.113 77.5077 173.873 76.9527 173.503 76.6127C173.133 76.2627 172.688 76.0877 172.168 76.0877C171.548 76.0877 171.043 76.2777 170.653 76.6577C170.273 77.0377 170.028 77.5777 169.918 78.2777H174.223Z" fill="#BCBCB8"/>
<path d="M163.375 72.3378C164.115 72.3378 164.755 72.4678 165.295 72.7278C165.845 72.9878 166.265 73.3628 166.555 73.8528C166.855 74.3428 167.005 74.9128 167.005 75.5628C167.005 76.0228 166.895 76.4428 166.675 76.8228C166.465 77.2028 166.185 77.5078 165.835 77.7378C165.495 77.9578 165.145 78.0778 164.785 78.0978L164.32 77.9628C165.17 77.9628 165.78 78.1028 166.15 78.3828C166.52 78.6628 166.74 79.1528 166.81 79.8528L167.11 82.9878H165.775L165.505 79.9878C165.465 79.5178 165.27 79.1878 164.92 78.9978C164.58 78.8078 164.02 78.7128 163.24 78.7128H160.645V82.9878H159.325V72.3378H163.375ZM163.375 77.4228C164.095 77.4228 164.65 77.2628 165.04 76.9428C165.43 76.6128 165.625 76.1428 165.625 75.5328C165.625 74.9228 165.43 74.4528 165.04 74.1228C164.65 73.7928 164.095 73.6278 163.375 73.6278H160.645V77.4228H163.375Z" fill="#BCBCB8"/>
<rect x="234.354" y="34.0938" width="110.458" height="64.625" rx="7.3125" fill="#191918"/>
<rect x="234.354" y="34.0938" width="110.458" height="64.625" rx="7.3125" stroke="#222221"/>
<g clip-path="url(#clip3_760_7914)">
<path d="M292.016 45.9244C291.676 46.1247 291.111 46.6894 290.438 47.5152L291.057 48.6811C291.494 48.0617 291.931 47.5031 292.374 47.0234C292.411 46.987 292.429 46.9687 292.429 46.9687C292.411 46.987 292.393 47.0052 292.374 47.0234C292.229 47.1813 291.792 47.6913 291.136 48.7053C291.773 48.675 292.745 48.5414 293.54 48.4078C293.777 47.0841 293.31 46.4769 293.31 46.4769C293.31 46.4769 292.715 45.5115 292.016 45.9244Z" fill="url(#paint6_linear_760_7914)"/>
<path d="M289.934 55.7307C289.855 55.7429 289.776 55.7611 289.691 55.7732C289.733 55.7671 289.776 55.7611 289.812 55.755C289.849 55.7489 289.897 55.7368 289.934 55.7307Z" fill="#BE202E"/>
<path opacity="0.35" d="M289.934 55.7307C289.855 55.7429 289.776 55.7611 289.691 55.7732C289.733 55.7671 289.776 55.7611 289.812 55.755C289.849 55.7489 289.897 55.7368 289.934 55.7307Z" fill="#BE202E"/>
<path d="M290.14 54.7105C290.152 54.7105 290.164 54.7044 290.177 54.7044C290.231 54.6984 290.28 54.6862 290.328 54.6741C290.274 54.6862 290.207 54.6984 290.14 54.7105Z" fill="#BE202E"/>
<path opacity="0.35" d="M290.14 54.7105C290.152 54.7105 290.164 54.7044 290.177 54.7044C290.231 54.6984 290.28 54.6862 290.328 54.6741C290.274 54.6862 290.207 54.6984 290.14 54.7105Z" fill="#BE202E"/>
<path d="M289.229 51.6989C289.417 51.3467 289.606 51.0066 289.8 50.6666C290 50.3205 290.201 49.9805 290.407 49.6587C290.419 49.6404 290.432 49.6222 290.444 49.5979C290.644 49.2761 290.85 48.9725 291.057 48.675L290.438 47.5092C290.389 47.5638 290.347 47.6245 290.298 47.6852C290.122 47.9099 289.934 48.1467 289.745 48.4017C289.533 48.6871 289.308 48.9907 289.09 49.3125C288.883 49.6101 288.677 49.9197 288.464 50.2416C288.288 50.5148 288.106 50.7941 287.93 51.0856C287.924 51.0977 287.918 51.1099 287.912 51.1159L288.719 52.7068C288.883 52.3668 289.053 52.0267 289.229 51.6989Z" fill="url(#paint7_linear_760_7914)"/>
<path d="M285.562 60.6612C285.452 60.9527 285.349 61.2502 285.24 61.5599C285.24 61.5659 285.234 61.5659 285.234 61.572C285.216 61.6145 285.204 61.657 285.185 61.6995C285.112 61.906 285.052 62.0881 284.906 62.5132C285.143 62.6225 285.331 62.9079 285.513 63.2297C285.495 62.8957 285.355 62.58 285.094 62.3371C286.266 62.3917 287.268 62.0942 287.79 61.2381C287.839 61.1591 287.881 61.0802 287.918 60.9952C287.681 61.2927 287.389 61.4202 286.837 61.3899C286.837 61.3899 286.837 61.3899 286.831 61.3899C286.831 61.3899 286.831 61.3899 286.837 61.3899C287.651 61.0255 288.057 60.6794 288.422 60.0965C288.507 59.9569 288.592 59.8111 288.677 59.6411C287.966 60.3698 287.141 60.5823 286.272 60.4244L285.623 60.4973C285.604 60.5458 285.586 60.6066 285.562 60.6612Z" fill="url(#paint8_linear_760_7914)"/>
<path d="M285.865 59.1977C286.005 58.8334 286.151 58.4691 286.303 58.0926C286.442 57.7343 286.594 57.3822 286.74 57.0179C286.892 56.6596 287.043 56.2953 287.201 55.937C287.359 55.5727 287.523 55.2023 287.687 54.838C287.851 54.4797 288.015 54.1215 288.185 53.7632C288.246 53.6357 288.306 53.5082 288.367 53.3807C288.476 53.1621 288.58 52.9435 288.689 52.7249C288.695 52.7128 288.701 52.7006 288.707 52.6885L287.906 51.1158C287.894 51.1401 287.881 51.1583 287.869 51.1826C287.681 51.4862 287.493 51.802 287.311 52.1238C287.122 52.4456 286.946 52.7735 286.764 53.1075C286.612 53.3868 286.467 53.6722 286.327 53.9576C286.297 54.0183 286.272 54.0729 286.242 54.1336C286.066 54.4919 285.908 54.8441 285.762 55.178C285.598 55.5606 285.459 55.9188 285.331 56.2649C285.246 56.4896 285.173 56.7082 285.106 56.9207C285.052 57.1029 284.997 57.2789 284.949 57.4611C284.827 57.8801 284.724 58.3051 284.639 58.7241L285.446 60.321C285.556 60.0356 285.665 59.7442 285.774 59.4527C285.805 59.3677 285.835 59.2827 285.865 59.1977Z" fill="url(#paint9_linear_760_7914)"/>
<path d="M284.627 58.7729C284.523 59.2829 284.451 59.793 284.414 60.297C284.414 60.3152 284.408 60.3334 284.408 60.3516C284.153 59.9448 283.479 59.5501 283.479 59.5562C283.965 60.2605 284.329 60.9527 284.384 61.6389C284.123 61.6935 283.771 61.6146 283.358 61.4628C283.783 61.8575 284.105 61.9668 284.232 61.9911C283.837 62.0153 283.431 62.2825 283.018 62.5983C283.619 62.3554 284.105 62.2522 284.457 62.3311C283.904 63.8977 283.352 65.6282 282.793 67.4619C282.963 67.4134 283.066 67.298 283.121 67.1401C283.218 66.8062 283.874 64.6263 284.906 61.7603C284.936 61.6814 284.967 61.5964 284.997 61.5174C285.003 61.4931 285.015 61.4689 285.021 61.4506C285.131 61.147 285.24 60.8434 285.361 60.5277C285.386 60.4548 285.416 60.388 285.44 60.3152V60.3091L284.633 58.7122C284.633 58.7364 284.627 58.7547 284.627 58.7729Z" fill="url(#paint10_linear_760_7914)"/>
<path d="M288.835 52.8404C288.81 52.889 288.786 52.9375 288.768 52.9861C288.701 53.1318 288.628 53.2776 288.555 53.4294C288.476 53.5933 288.398 53.7573 288.319 53.9273C288.276 54.0123 288.24 54.0973 288.197 54.1884C288.076 54.4495 287.954 54.7227 287.833 55.002C287.681 55.3481 287.523 55.7003 287.371 56.0707C287.22 56.4229 287.068 56.7872 286.916 57.1637C286.77 57.5219 286.618 57.8923 286.473 58.2748C286.339 58.6149 286.206 58.9671 286.066 59.3253C286.06 59.3435 286.054 59.3617 286.048 59.38C285.914 59.7382 285.774 60.1025 285.641 60.479C285.635 60.4851 285.635 60.4972 285.629 60.5033L286.278 60.4304C286.266 60.4304 286.254 60.4243 286.242 60.4243C287.019 60.3272 288.057 59.7443 288.725 59.0278C289.035 58.6999 289.314 58.3052 289.569 57.8498C289.764 57.5098 289.94 57.1333 290.116 56.7143C290.268 56.35 290.413 55.9553 290.553 55.5242C290.377 55.6214 290.171 55.6882 289.946 55.7367C289.909 55.7428 289.867 55.755 289.824 55.761C289.782 55.7671 289.739 55.7732 289.703 55.7792C290.432 55.4999 290.887 54.9595 291.221 54.2977C291.033 54.4252 290.717 54.6013 290.347 54.6802C290.298 54.6924 290.243 54.6984 290.195 54.7106C290.183 54.7106 290.171 54.7166 290.158 54.7166C290.407 54.6134 290.626 54.492 290.808 54.3523C290.845 54.322 290.887 54.2916 290.923 54.2612C290.978 54.2127 291.033 54.1641 291.081 54.1094C291.112 54.073 291.148 54.0426 291.178 54.0001C291.251 53.9151 291.318 53.8241 291.379 53.7208C291.397 53.6905 291.415 53.6601 291.434 53.6237C291.458 53.5751 291.482 53.5326 291.5 53.484C291.604 53.2776 291.682 53.0954 291.749 52.9375C291.78 52.8586 291.81 52.7857 291.834 52.7129C291.846 52.6886 291.852 52.6582 291.865 52.6339C291.889 52.555 291.913 52.4882 291.925 52.4275C291.95 52.3364 291.962 52.2696 291.974 52.215C291.95 52.2332 291.919 52.2514 291.889 52.2757C291.67 52.4093 291.294 52.5246 290.99 52.5793C290.984 52.5793 290.978 52.5793 290.978 52.5793C290.948 52.5854 290.917 52.5914 290.887 52.5914C290.893 52.5914 290.899 52.5854 290.905 52.5854L288.859 52.81C288.841 52.8222 288.841 52.8343 288.835 52.8404Z" fill="url(#paint11_linear_760_7914)"/>
<path d="M291.136 48.7054C290.954 48.9847 290.753 49.3005 290.541 49.6587C290.529 49.677 290.516 49.6952 290.504 49.7134C290.322 50.0231 290.122 50.3631 289.915 50.7396C289.739 51.0614 289.551 51.4075 289.357 51.7779C289.187 52.0997 289.017 52.4458 288.834 52.8101L290.881 52.5855C291.476 52.3122 291.743 52.0633 292.004 51.705C292.071 51.6079 292.144 51.5046 292.211 51.3953C292.423 51.0674 292.623 50.7092 292.812 50.3449C292.988 49.9988 293.146 49.6527 293.267 49.343C293.346 49.1487 293.407 48.9605 293.449 48.8026C293.486 48.6629 293.516 48.5233 293.54 48.3958C292.745 48.5415 291.773 48.6751 291.136 48.7054Z" fill="url(#paint12_linear_760_7914)"/>
<path d="M289.812 55.755C289.77 55.7611 289.727 55.7672 289.691 55.7732C289.733 55.7672 289.776 55.7611 289.812 55.755Z" fill="#BE202E"/>
<path opacity="0.35" d="M289.812 55.755C289.77 55.7611 289.727 55.7672 289.691 55.7732C289.733 55.7672 289.776 55.7611 289.812 55.755Z" fill="#BE202E"/>
<path d="M289.812 55.755C289.77 55.7611 289.727 55.7672 289.691 55.7732C289.733 55.7672 289.776 55.7611 289.812 55.755Z" fill="url(#paint13_linear_760_7914)"/>
<path d="M294.166 47.8007V47.8614H294.305V48.2561H294.372V47.8614H294.512V47.8007H294.166ZM294.973 47.8007L294.815 48.1164L294.658 47.8007H294.579V48.2561H294.639V47.8917L294.797 48.2075H294.84L294.998 47.8917V48.2561H295.058V47.8007H294.973Z" fill="#6D6E71"/>
</g>
<path d="M333.283 75.887V83.507C333.283 83.837 333.363 84.087 333.523 84.257C333.683 84.417 333.918 84.497 334.228 84.497H335.383V85.637H334.228C333.508 85.637 332.953 85.452 332.563 85.082C332.183 84.712 331.993 84.187 331.993 83.507V75.887H333.283ZM335.413 77.687V78.827H330.838V77.687H335.413Z" fill="#BCBCB8"/>
<path d="M325.986 77.1919C325.986 76.5019 326.166 75.9619 326.526 75.5719C326.886 75.1819 327.426 74.9869 328.146 74.9869H329.376V76.1269H328.146C327.886 76.1269 327.676 76.2219 327.516 76.4119C327.356 76.6019 327.276 76.8619 327.276 77.1919V85.6369H325.986V77.1919ZM324.921 77.6869H329.271V78.8269H324.921V77.6869Z" fill="#BCBCB8"/>
<path d="M322.82 77.6869V85.6369H321.53V77.6869H322.82ZM322.85 74.9869V76.4419H321.5V74.9869H322.85Z" fill="#BCBCB8"/>
<path d="M316.928 77.6869L316.988 79.7569L316.868 79.6369C316.958 78.9569 317.158 78.4619 317.468 78.1519C317.788 77.8419 318.248 77.6869 318.848 77.6869H319.628V78.8269H318.848C318.448 78.8269 318.113 78.9069 317.843 79.0669C317.583 79.2169 317.388 79.4469 317.258 79.7569C317.138 80.0569 317.078 80.4369 317.078 80.8969V85.6369H315.788V77.6869H316.928Z" fill="#BCBCB8"/>
<path d="M308.64 74.9869V79.4269L308.445 79.2019C308.615 78.6419 308.93 78.2219 309.39 77.9419C309.86 77.6519 310.395 77.5069 310.995 77.5069C311.865 77.5069 312.53 77.7869 312.99 78.3469C313.45 78.9069 313.68 79.6319 313.68 80.5219V85.6369H312.39V80.9719C312.39 80.4819 312.33 80.0719 312.21 79.7419C312.1 79.4119 311.92 79.1619 311.67 78.9919C311.43 78.8219 311.115 78.7369 310.725 78.7369C310.085 78.7369 309.575 78.9319 309.195 79.3219C308.825 79.7019 308.64 80.2519 308.64 80.9719V85.6369H307.35V74.9869H308.64Z" fill="#BCBCB8"/>
<path d="M305.92 76.2769H302.62V85.6369H301.3V76.2769H298V74.9869H305.92V76.2769Z" fill="#BCBCB8"/>
<path d="M286.054 81.662C286.054 80.822 286.204 80.092 286.504 79.472C286.804 78.842 287.229 78.357 287.779 78.017C288.329 77.677 288.969 77.507 289.699 77.507C290.309 77.507 290.864 77.647 291.364 77.927C291.874 78.197 292.289 78.632 292.609 79.232C292.929 79.822 293.109 80.572 293.149 81.482L293.164 82.067H287.419C287.479 82.867 287.704 83.487 288.094 83.927C288.494 84.367 289.029 84.587 289.699 84.587C290.129 84.587 290.519 84.472 290.869 84.242C291.219 84.012 291.484 83.692 291.664 83.282L293.044 83.387C292.814 84.127 292.389 84.717 291.769 85.157C291.159 85.597 290.469 85.817 289.699 85.817C288.969 85.817 288.329 85.647 287.779 85.307C287.229 84.967 286.804 84.487 286.504 83.867C286.204 83.237 286.054 82.502 286.054 81.662ZM291.754 80.927C291.644 80.157 291.404 79.602 291.034 79.262C290.664 78.912 290.219 78.737 289.699 78.737C289.079 78.737 288.574 78.927 288.184 79.307C287.804 79.687 287.559 80.227 287.449 80.927H291.754Z" fill="#BCBCB8"/>
<path d="M279.329 74.9869V79.4269L279.134 79.2019C279.304 78.6419 279.619 78.2219 280.079 77.9419C280.549 77.6519 281.084 77.5069 281.684 77.5069C282.554 77.5069 283.219 77.7869 283.679 78.3469C284.139 78.9069 284.369 79.6319 284.369 80.5219V85.6369H283.079V80.9719C283.079 80.4819 283.019 80.0719 282.899 79.7419C282.789 79.4119 282.609 79.1619 282.359 78.9919C282.119 78.8219 281.804 78.7369 281.414 78.7369C280.774 78.7369 280.264 78.9319 279.884 79.3219C279.514 79.7019 279.329 80.2519 279.329 80.9719V85.6369H278.039V74.9869H279.329Z" fill="#BCBCB8"/>
<path d="M274.936 80.357C274.856 79.857 274.631 79.462 274.261 79.172C273.891 78.882 273.461 78.737 272.971 78.737C272.241 78.737 271.676 78.997 271.276 79.517C270.876 80.027 270.676 80.742 270.676 81.662C270.676 82.582 270.876 83.302 271.276 83.822C271.676 84.332 272.241 84.587 272.971 84.587C273.481 84.587 273.921 84.432 274.291 84.122C274.671 83.802 274.906 83.367 274.996 82.817L276.361 82.907C276.281 83.497 276.076 84.012 275.746 84.452C275.426 84.892 275.021 85.232 274.531 85.472C274.051 85.702 273.531 85.817 272.971 85.817C272.241 85.817 271.601 85.647 271.051 85.307C270.501 84.967 270.076 84.487 269.776 83.867C269.476 83.237 269.326 82.502 269.326 81.662C269.326 80.822 269.476 80.092 269.776 79.472C270.076 78.842 270.501 78.357 271.051 78.017C271.601 77.677 272.241 77.507 272.971 77.507C273.511 77.507 274.021 77.622 274.501 77.852C274.991 78.072 275.391 78.392 275.701 78.812C276.021 79.232 276.216 79.717 276.286 80.267L274.936 80.357Z" fill="#BCBCB8"/>
<path d="M260.965 80.027C261.125 79.257 261.495 78.647 262.075 78.197C262.655 77.737 263.37 77.507 264.22 77.507C265.25 77.507 266.04 77.797 266.59 78.377C267.15 78.947 267.43 79.767 267.43 80.837V84.017C267.43 84.177 267.47 84.297 267.55 84.377C267.63 84.457 267.75 84.497 267.91 84.497H268.24V85.637H267.685H267.61C267.33 85.627 267.08 85.587 266.86 85.517C266.65 85.437 266.48 85.312 266.35 85.142C266.22 84.962 266.155 84.722 266.155 84.422C265.975 84.812 265.665 85.142 265.225 85.412C264.795 85.682 264.285 85.817 263.695 85.817C262.875 85.817 262.19 85.612 261.64 85.202C261.1 84.792 260.83 84.242 260.83 83.552C260.83 83.032 260.95 82.617 261.19 82.307C261.43 81.997 261.76 81.762 262.18 81.602C262.6 81.432 263.15 81.282 263.83 81.152L266.14 80.702C266.13 80.042 265.965 79.552 265.645 79.232C265.335 78.902 264.86 78.737 264.22 78.737C263.73 78.737 263.32 78.857 262.99 79.097C262.67 79.337 262.45 79.682 262.33 80.132L260.965 80.027ZM262.18 83.552C262.18 83.882 262.32 84.152 262.6 84.362C262.89 84.572 263.31 84.677 263.86 84.677C264.3 84.677 264.695 84.577 265.045 84.377C265.395 84.167 265.67 83.857 265.87 83.447C266.07 83.027 266.17 82.517 266.17 81.917V81.842L264.31 82.172L264.01 82.217C263.57 82.297 263.23 82.372 262.99 82.442C262.75 82.512 262.555 82.637 262.405 82.817C262.255 82.987 262.18 83.232 262.18 83.552Z" fill="#BCBCB8"/>
<path d="M252.272 77.687H253.442L253.502 79.367L253.367 79.112C253.567 78.592 253.882 78.197 254.312 77.927C254.752 77.647 255.287 77.507 255.917 77.507C256.677 77.507 257.312 77.697 257.822 78.077C258.342 78.457 258.727 78.962 258.977 79.592C259.227 80.212 259.352 80.902 259.352 81.662C259.352 82.422 259.227 83.117 258.977 83.747C258.727 84.367 258.342 84.867 257.822 85.247C257.312 85.627 256.677 85.817 255.917 85.817C255.497 85.817 255.117 85.757 254.777 85.637C254.437 85.507 254.147 85.322 253.907 85.082C253.677 84.832 253.502 84.527 253.382 84.167L253.562 83.957V87.887H252.272V77.687ZM253.412 81.662C253.412 82.182 253.492 82.662 253.652 83.102C253.812 83.542 254.062 83.902 254.402 84.182C254.752 84.452 255.182 84.587 255.692 84.587C256.452 84.587 257.022 84.307 257.402 83.747C257.782 83.177 257.972 82.482 257.972 81.662C257.972 80.842 257.782 80.152 257.402 79.592C257.022 79.022 256.452 78.737 255.692 78.737C255.182 78.737 254.752 78.877 254.402 79.157C254.062 79.427 253.812 79.782 253.652 80.222C253.492 80.662 253.412 81.142 253.412 81.662Z" fill="#BCBCB8"/>
<path d="M245.149 74.9869H246.919L250.759 85.6369H249.319L248.269 82.6219H243.799L242.749 85.6369H241.309L245.149 74.9869ZM247.819 81.3319L246.034 76.1419L244.249 81.3319H247.819Z" fill="#BCBCB8"/>
<path d="M220.266 9.52498C220.199 9.18331 220.024 8.91248 219.741 8.71248C219.458 8.51248 219.141 8.41248 218.791 8.41248C218.441 8.41248 218.154 8.49581 217.929 8.66248C217.704 8.82914 217.591 9.04998 217.591 9.32498C217.591 9.59164 217.724 9.79998 217.991 9.94998C218.266 10.0916 218.616 10.2041 219.041 10.2875C219.641 10.3958 220.133 10.5291 220.516 10.6875C220.908 10.8375 221.212 11.0458 221.429 11.3125C221.645 11.5708 221.754 11.9125 221.754 12.3375C221.754 12.7541 221.624 13.1041 221.366 13.3875C221.116 13.6625 220.787 13.8708 220.379 14.0125C219.97 14.1458 219.524 14.2125 219.041 14.2125C218.474 14.2125 217.97 14.1208 217.529 13.9375C217.087 13.7541 216.733 13.4958 216.466 13.1625C216.208 12.8208 216.062 12.425 216.029 11.975L217.416 11.8875C217.466 12.1375 217.558 12.3541 217.691 12.5375C217.833 12.7125 218.016 12.85 218.241 12.95C218.466 13.0416 218.729 13.0875 219.029 13.0875C219.379 13.0875 219.687 13.025 219.954 12.9C220.22 12.7666 220.354 12.5583 220.354 12.275C220.354 12.0833 220.295 11.9291 220.179 11.8125C220.07 11.6958 219.933 11.6125 219.766 11.5625C219.608 11.5041 219.383 11.4416 219.091 11.375C219.024 11.3666 218.929 11.35 218.804 11.325C218.237 11.2 217.774 11.0708 217.416 10.9375C217.058 10.7958 216.762 10.6 216.529 10.35C216.304 10.1 216.191 9.77498 216.191 9.37498C216.191 8.94998 216.299 8.58331 216.516 8.27498C216.741 7.95831 217.054 7.71664 217.454 7.54998C217.862 7.37498 218.341 7.28748 218.891 7.28748C219.616 7.28748 220.229 7.48331 220.729 7.87498C221.229 8.25831 221.537 8.78331 221.654 9.44998L220.266 9.52498Z" fill="#DCDCDA"/>
<path d="M206.728 7.43748L206.778 8.51248C206.936 8.12081 207.173 7.82081 207.49 7.61248C207.815 7.39581 208.203 7.28748 208.653 7.28748C209.128 7.28748 209.532 7.40831 209.865 7.64998C210.198 7.88331 210.436 8.22081 210.578 8.66248C210.728 8.21248 210.969 7.87081 211.303 7.63748C211.644 7.40414 212.065 7.28748 212.565 7.28748C213.007 7.28748 213.386 7.38748 213.703 7.58748C214.028 7.77914 214.273 8.06248 214.44 8.43748C214.615 8.81248 214.703 9.26664 214.703 9.79998V14.0625H213.365V10.2125C213.365 9.62914 213.265 9.18748 213.065 8.88748C212.865 8.57914 212.578 8.42498 212.203 8.42498C211.894 8.42498 211.628 8.49581 211.403 8.63748C211.186 8.77081 211.023 8.97081 210.915 9.23748C210.807 9.50414 210.753 9.82914 210.753 10.2125V14.0625H209.478V10.2125C209.478 9.82914 209.432 9.50414 209.34 9.23748C209.248 8.97081 209.115 8.77081 208.94 8.63748C208.765 8.49581 208.557 8.42498 208.315 8.42498C208.015 8.42498 207.753 8.49581 207.528 8.63748C207.311 8.77914 207.144 8.98331 207.028 9.24998C206.919 9.51664 206.865 9.83748 206.865 10.2125V14.0625H205.515V7.43748H206.728Z" fill="#DCDCDA"/>
<path d="M197.953 9.42498C198.086 8.75831 198.398 8.23748 198.89 7.86248C199.39 7.47914 200.023 7.28748 200.79 7.28748C201.698 7.28748 202.39 7.52914 202.865 8.01248C203.348 8.48748 203.59 9.18331 203.59 10.1V12.5625C203.59 12.7125 203.623 12.825 203.69 12.9C203.757 12.9666 203.857 13 203.99 13H204.265V14.0625H203.84H203.778C203.553 14.0708 203.336 14.05 203.128 14C202.919 13.95 202.74 13.85 202.59 13.7C202.448 13.55 202.369 13.3333 202.353 13.05C202.194 13.3833 201.932 13.6625 201.565 13.8875C201.198 14.1041 200.753 14.2125 200.228 14.2125C199.544 14.2125 198.973 14.0416 198.515 13.7C198.065 13.3583 197.84 12.9 197.84 12.325C197.84 11.9 197.94 11.5583 198.14 11.3C198.34 11.0416 198.615 10.8416 198.965 10.7C199.315 10.5583 199.778 10.4291 200.353 10.3125L202.24 9.94998C202.232 9.41664 202.107 9.02498 201.865 8.77498C201.632 8.51664 201.273 8.38748 200.79 8.38748C200.415 8.38748 200.103 8.48331 199.853 8.67498C199.603 8.86664 199.432 9.14581 199.34 9.51248L197.953 9.42498ZM199.24 12.3C199.24 12.5583 199.348 12.7708 199.565 12.9375C199.782 13.0958 200.098 13.175 200.515 13.175C200.848 13.175 201.148 13.0958 201.415 12.9375C201.682 12.7708 201.89 12.5291 202.04 12.2125C202.19 11.8875 202.265 11.4958 202.265 11.0375V10.975L200.865 11.225L200.64 11.2625C200.298 11.3208 200.036 11.3791 199.853 11.4375C199.669 11.4958 199.519 11.5958 199.403 11.7375C199.294 11.8708 199.24 12.0583 199.24 12.3Z" fill="#DCDCDA"/>
<path d="M190.491 10.75C190.491 10.05 190.621 9.44164 190.879 8.92498C191.146 8.39998 191.516 7.99581 191.991 7.71248C192.466 7.42914 193.021 7.28748 193.654 7.28748C194.196 7.28748 194.687 7.41248 195.129 7.66248C195.579 7.90414 195.937 8.28331 196.204 8.79998C196.479 9.30831 196.629 9.94164 196.654 10.7V11.1375H191.916C191.958 11.7458 192.129 12.2208 192.429 12.5625C192.729 12.8958 193.137 13.0625 193.654 13.0625C193.987 13.0625 194.287 12.975 194.554 12.8C194.821 12.625 195.025 12.3791 195.166 12.0625L196.566 12.1625C196.366 12.7875 196 13.2875 195.466 13.6625C194.941 14.0291 194.337 14.2125 193.654 14.2125C193.021 14.2125 192.466 14.0708 191.991 13.7875C191.516 13.5041 191.146 13.1041 190.879 12.5875C190.621 12.0625 190.491 11.45 190.491 10.75ZM195.241 10.125C195.158 9.54164 194.975 9.11664 194.691 8.84998C194.408 8.57498 194.062 8.43748 193.654 8.43748C193.179 8.43748 192.791 8.58748 192.491 8.88748C192.2 9.17914 192.012 9.59164 191.929 10.125H195.241Z" fill="#DCDCDA"/>
<path d="M190.511 6.4375H187.799V14.0625H186.424V6.4375H183.711V5.1875H190.511V6.4375Z" fill="#DCDCDA"/>
<path d="M178.055 5.1875H179.405V14.0625H178.155L178.118 13.125C177.926 13.4667 177.647 13.7333 177.28 13.925C176.913 14.1167 176.505 14.2125 176.055 14.2125C175.488 14.2125 174.993 14.0708 174.568 13.7875C174.143 13.5042 173.818 13.1042 173.593 12.5875C173.368 12.0625 173.255 11.45 173.255 10.75C173.255 10.05 173.368 9.44167 173.593 8.925C173.818 8.4 174.143 7.99583 174.568 7.7125C174.993 7.42917 175.488 7.2875 176.055 7.2875C176.488 7.2875 176.884 7.37917 177.243 7.5625C177.601 7.74583 177.872 7.99583 178.055 8.3125V5.1875ZM177.943 11.9625C178.084 11.6125 178.155 11.2083 178.155 10.75C178.155 10.275 178.084 9.8625 177.943 9.5125C177.801 9.1625 177.597 8.89167 177.33 8.7C177.063 8.50833 176.755 8.4125 176.405 8.4125C175.863 8.4125 175.434 8.625 175.118 9.05C174.801 9.46667 174.643 10.0333 174.643 10.75C174.643 11.45 174.801 12.0083 175.118 12.425C175.443 12.8417 175.872 13.05 176.405 13.05C176.755 13.05 177.063 12.9583 177.33 12.775C177.597 12.5833 177.801 12.3125 177.943 11.9625Z" fill="#DCDCDA"/>
<path d="M167.629 7.43748L167.691 9.21248L167.529 9.08748C167.637 8.47914 167.883 8.02914 168.266 7.73748C168.649 7.43748 169.12 7.28748 169.679 7.28748C170.404 7.28748 170.962 7.52081 171.354 7.98748C171.745 8.44581 171.941 9.04998 171.941 9.79998V14.0625H170.591V10.2125C170.591 9.81248 170.549 9.48331 170.466 9.22498C170.383 8.95831 170.245 8.75831 170.054 8.62498C169.87 8.49164 169.629 8.42498 169.329 8.42498C168.837 8.42498 168.454 8.57914 168.179 8.88748C167.904 9.18748 167.766 9.62914 167.766 10.2125V14.0625H166.416V7.43748H167.629Z" fill="#DCDCDA"/>
<path d="M158.839 10.75C158.839 10.05 158.968 9.44164 159.226 8.92498C159.493 8.39998 159.864 7.99581 160.339 7.71248C160.814 7.42914 161.368 7.28748 162.001 7.28748C162.543 7.28748 163.034 7.41248 163.476 7.66248C163.926 7.90414 164.284 8.28331 164.551 8.79998C164.826 9.30831 164.976 9.94164 165.001 10.7V11.1375H160.264C160.305 11.7458 160.476 12.2208 160.776 12.5625C161.076 12.8958 161.484 13.0625 162.001 13.0625C162.334 13.0625 162.634 12.975 162.901 12.8C163.168 12.625 163.372 12.3791 163.514 12.0625L164.914 12.1625C164.714 12.7875 164.347 13.2875 163.814 13.6625C163.289 14.0291 162.684 14.2125 162.001 14.2125C161.368 14.2125 160.814 14.0708 160.339 13.7875C159.864 13.5041 159.493 13.1041 159.226 12.5875C158.968 12.0625 158.839 11.45 158.839 10.75ZM163.589 10.125C163.505 9.54164 163.322 9.11664 163.039 8.84998C162.755 8.57498 162.409 8.43748 162.001 8.43748C161.526 8.43748 161.139 8.58748 160.839 8.88748C160.547 9.17914 160.359 9.59164 160.276 10.125H163.589Z" fill="#DCDCDA"/>
<path d="M153.655 5.1875V10.6875L156.567 7.4375H158.28L155.692 10.2125L158.405 14.0625H156.83L154.805 11.0625L153.655 12.3125V14.0625H152.305V5.1875H153.655Z" fill="#DCDCDA"/>
<path d="M149.573 9.76248C149.507 9.35414 149.332 9.03331 149.048 8.79998C148.765 8.56664 148.432 8.44998 148.048 8.44998C147.49 8.44998 147.057 8.65414 146.748 9.06248C146.44 9.46248 146.286 10.025 146.286 10.75C146.286 11.475 146.44 12.0416 146.748 12.45C147.057 12.85 147.49 13.05 148.048 13.05C148.448 13.05 148.79 12.925 149.073 12.675C149.365 12.425 149.544 12.075 149.611 11.625L151.023 11.7C150.957 12.2083 150.782 12.6541 150.498 13.0375C150.223 13.4125 149.873 13.7041 149.448 13.9125C149.023 14.1125 148.557 14.2125 148.048 14.2125C147.415 14.2125 146.861 14.0708 146.386 13.7875C145.911 13.5041 145.54 13.1041 145.273 12.5875C145.015 12.0625 144.886 11.45 144.886 10.75C144.886 10.05 145.015 9.44164 145.273 8.92498C145.54 8.39998 145.911 7.99581 146.386 7.71248C146.861 7.42914 147.415 7.28748 148.048 7.28748C148.54 7.28748 148.998 7.38748 149.423 7.58748C149.848 7.77914 150.198 8.05831 150.473 8.42498C150.748 8.78331 150.915 9.20414 150.973 9.68748L149.573 9.76248Z" fill="#DCDCDA"/>
<path d="M137.735 9.42498C137.869 8.75831 138.181 8.23748 138.673 7.86248C139.173 7.47914 139.806 7.28748 140.573 7.28748C141.481 7.28748 142.173 7.52914 142.648 8.01248C143.131 8.48748 143.373 9.18331 143.373 10.1V12.5625C143.373 12.7125 143.406 12.825 143.473 12.9C143.539 12.9666 143.639 13 143.773 13H144.048V14.0625H143.623H143.56C143.335 14.0708 143.119 14.05 142.91 14C142.702 13.95 142.523 13.85 142.373 13.7C142.231 13.55 142.152 13.3333 142.135 13.05C141.977 13.3833 141.714 13.6625 141.348 13.8875C140.981 14.1041 140.535 14.2125 140.01 14.2125C139.327 14.2125 138.756 14.0416 138.298 13.7C137.848 13.3583 137.623 12.9 137.623 12.325C137.623 11.9 137.723 11.5583 137.923 11.3C138.123 11.0416 138.398 10.8416 138.748 10.7C139.098 10.5583 139.56 10.4291 140.135 10.3125L142.023 9.94998C142.014 9.41664 141.889 9.02498 141.648 8.77498C141.414 8.51664 141.056 8.38748 140.573 8.38748C140.198 8.38748 139.885 8.48331 139.635 8.67498C139.385 8.86664 139.214 9.14581 139.123 9.51248L137.735 9.42498ZM139.023 12.3C139.023 12.5583 139.131 12.7708 139.348 12.9375C139.564 13.0958 139.881 13.175 140.298 13.175C140.631 13.175 140.931 13.0958 141.198 12.9375C141.464 12.7708 141.673 12.5291 141.823 12.2125C141.973 11.8875 142.048 11.4958 142.048 11.0375V10.975L140.648 11.225L140.423 11.2625C140.081 11.3208 139.819 11.3791 139.635 11.4375C139.452 11.4958 139.302 11.5958 139.185 11.7375C139.077 11.8708 139.023 12.0583 139.023 12.3Z" fill="#DCDCDA"/>
<path d="M129.542 5.1875H132.667C133.767 5.1875 134.592 5.39167 135.142 5.8C135.692 6.2 135.967 6.81667 135.967 7.65C135.967 8.025 135.888 8.35 135.729 8.625C135.571 8.9 135.338 9.1125 135.029 9.2625C134.729 9.4125 134.375 9.49167 133.967 9.5L133.954 9.45C134.704 9.46667 135.288 9.6625 135.704 10.0375C136.129 10.4042 136.342 10.9083 136.342 11.55C136.342 12.3667 136.067 12.9917 135.517 13.425C134.975 13.85 134.192 14.0625 133.167 14.0625H129.542V5.1875ZM133.179 12.825C133.738 12.825 134.167 12.7125 134.467 12.4875C134.775 12.2542 134.929 11.925 134.929 11.5C134.929 11.0667 134.775 10.7333 134.467 10.5C134.167 10.2583 133.738 10.1375 133.179 10.1375H130.917V12.825H133.179ZM132.717 8.9625C133.3 8.9625 133.75 8.85417 134.067 8.6375C134.392 8.42083 134.554 8.10833 134.554 7.7C134.554 7.26667 134.4 6.94583 134.092 6.7375C133.783 6.52917 133.325 6.425 132.717 6.425H130.917V8.9625H132.717Z" fill="#DCDCDA"/>
<defs>
<filter id="filter0_ddd_760_7914" x="27.1753" y="147.927" width="291.743" height="157.681" filterUnits="userSpaceOnUse" color-interpolation-filters="sRGB">
<feFlood flood-opacity="0" result="BackgroundImageFix"/>
<feColorMatrix in="SourceAlpha" type="matrix" values="0 0 0 0 0 0 0 0 0 0 0 0 0 0 0 0 0 0 127 0" result="hardAlpha"/>
<feMorphology radius="1.04129" operator="erode" in="SourceAlpha" result="effect1_dropShadow_760_7914"/>
<feOffset dy="0.833035"/>
<feGaussianBlur stdDeviation="1.24955"/>
<feComposite in2="hardAlpha" operator="out"/>
<feColorMatrix type="matrix" values="0 0 0 0 0.886275 0 0 0 0 0.992157 0 0 0 0 0.321569 0 0 0 0.04 0"/>
<feBlend mode="normal" in2="BackgroundImageFix" result="effect1_dropShadow_760_7914"/>
<feColorMatrix in="SourceAlpha" type="matrix" values="0 0 0 0 0 0 0 0 0 0 0 0 0 0 0 0 0 0 127 0" result="hardAlpha"/>
<feMorphology radius="2.08259" operator="erode" in="SourceAlpha" result="effect2_dropShadow_760_7914"/>
<feOffset dy="2.4991"/>
<feGaussianBlur stdDeviation="4.99821"/>
<feComposite in2="hardAlpha" operator="out"/>
<feColorMatrix type="matrix" values="0 0 0 0 0.886275 0 0 0 0 0.992157 0 0 0 0 0.321569 0 0 0 0.03 0"/>
<feBlend mode="normal" in2="effect1_dropShadow_760_7914" result="effect2_dropShadow_760_7914"/>
<feColorMatrix in="SourceAlpha" type="matrix" values="0 0 0 0 0 0 0 0 0 0 0 0 0 0 0 0 0 0 127 0" result="hardAlpha"/>
<feMorphology radius="3.12388" operator="erode" in="SourceAlpha" result="effect3_dropShadow_760_7914"/>
<feOffset dy="8.33035"/>
<feGaussianBlur stdDeviation="20.8259"/>
<feComposite in2="hardAlpha" operator="out"/>
<feColorMatrix type="matrix" values="0 0 0 0 0.886275 0 0 0 0 0.992157 0 0 0 0 0.321569 0 0 0 0.1 0"/>
<feBlend mode="normal" in2="effect2_dropShadow_760_7914" result="effect3_dropShadow_760_7914"/>
<feBlend mode="normal" in="SourceGraphic" in2="effect3_dropShadow_760_7914" result="shape"/>
</filter>
<linearGradient id="paint0_linear_760_7914" x1="181.244" y1="275.309" x2="306.577" y2="242.819" gradientUnits="userSpaceOnUse">
<stop offset="0.235033" stop-color="#DBFE01"/>
<stop offset="0.479167" stop-color="#DBFE01"/>
<stop offset="1" stop-color="#77DA05"/>
</linearGradient>
<linearGradient id="paint1_linear_760_7914" x1="163.828" y1="239.219" x2="166.047" y2="241.969" gradientUnits="userSpaceOnUse">
<stop stop-color="white"/>
<stop offset="1" stop-color="white" stop-opacity="0"/>
</linearGradient>
<linearGradient id="paint2_linear_760_7914" x1="164.516" y1="235.312" x2="164.503" y2="238.617" gradientUnits="userSpaceOnUse">
<stop stop-color="white"/>
<stop offset="1" stop-color="white" stop-opacity="0"/>
</linearGradient>
<linearGradient id="paint3_linear_760_7914" x1="117.265" y1="158.606" x2="227.457" y2="158.606" gradientUnits="userSpaceOnUse">
<stop stop-color="#7B8C0D"/>
<stop offset="0.5" stop-color="#7B8C0D" stop-opacity="0"/>
<stop offset="1" stop-color="#7B8C0D"/>
</linearGradient>
<linearGradient id="paint4_linear_760_7914" x1="-308.213" y1="-271.89" x2="382.929" y2="-274.529" gradientUnits="userSpaceOnUse">
<stop stop-color="#72C9C9"/>
<stop offset="1" stop-color="#02B0AD"/>
</linearGradient>
<linearGradient id="paint5_linear_760_7914" x1="-155.474" y1="-134.794" x2="249.917" y2="-136.342" gradientUnits="userSpaceOnUse">
<stop stop-color="#03B6B4"/>
<stop offset="1" stop-color="#74CBCA"/>
</linearGradient>
<linearGradient id="paint6_linear_760_7914" x1="290.961" y1="47.644" x2="295.493" y2="46.3843" gradientUnits="userSpaceOnUse">
<stop stop-color="#F69923"/>
<stop offset="0.3123" stop-color="#F79A23"/>
<stop offset="0.8383" stop-color="#E97826"/>
</linearGradient>
<linearGradient id="paint7_linear_760_7914" x1="281.041" y1="67.9822" x2="290.259" y2="48.2158" gradientUnits="userSpaceOnUse">
<stop offset="0.3233" stop-color="#9E2064"/>
<stop offset="0.6302" stop-color="#C92037"/>
<stop offset="0.7514" stop-color="#CD2335"/>
<stop offset="1" stop-color="#E97826"/>
</linearGradient>
<linearGradient id="paint8_linear_760_7914" x1="284.136" y1="66.521" x2="289.63" y2="54.7421" gradientUnits="userSpaceOnUse">
<stop stop-color="#282662"/>
<stop offset="0.0954839" stop-color="#662E8D"/>
<stop offset="0.7882" stop-color="#9F2064"/>
<stop offset="0.9487" stop-color="#CD2032"/>
</linearGradient>
<linearGradient id="paint9_linear_760_7914" x1="281.374" y1="66.7858" x2="290.592" y2="47.0194" gradientUnits="userSpaceOnUse">
<stop offset="0.3233" stop-color="#9E2064"/>
<stop offset="0.6302" stop-color="#C92037"/>
<stop offset="0.7514" stop-color="#CD2335"/>
<stop offset="1" stop-color="#E97826"/>
</linearGradient>
<linearGradient id="paint10_linear_760_7914" x1="282.314" y1="65.4695" x2="287.159" y2="55.0816" gradientUnits="userSpaceOnUse">
<stop stop-color="#282662"/>
<stop offset="0.0954839" stop-color="#662E8D"/>
<stop offset="0.7882" stop-color="#9F2064"/>
<stop offset="0.9487" stop-color="#CD2032"/>
</linearGradient>
<linearGradient id="paint11_linear_760_7914" x1="283.42" y1="67.7404" x2="292.639" y2="47.9739" gradientUnits="userSpaceOnUse">
<stop offset="0.3233" stop-color="#9E2064"/>
<stop offset="0.6302" stop-color="#C92037"/>
<stop offset="0.7514" stop-color="#CD2335"/>
<stop offset="1" stop-color="#E97826"/>
</linearGradient>
<linearGradient id="paint12_linear_760_7914" x1="282.747" y1="68.9194" x2="291.966" y2="49.153" gradientUnits="userSpaceOnUse">
<stop offset="0.3233" stop-color="#9E2064"/>
<stop offset="0.6302" stop-color="#C92037"/>
<stop offset="0.7514" stop-color="#CD2335"/>
<stop offset="1" stop-color="#E97826"/>
</linearGradient>
<linearGradient id="paint13_linear_760_7914" x1="284.026" y1="68.0322" x2="293.251" y2="48.2539" gradientUnits="userSpaceOnUse">
<stop offset="0.3233" stop-color="#9E2064"/>
<stop offset="0.6302" stop-color="#C92037"/>
<stop offset="0.7514" stop-color="#CD2335"/>
<stop offset="1" stop-color="#E97826"/>
</linearGradient>
<clipPath id="clip0_760_7914">
<rect width="19.9928" height="19.9928" fill="white" transform="translate(165.257 340.916)"/>
</clipPath>
<clipPath id="clip1_760_7914">
<rect x="65.7031" y="178.125" width="214.688" height="80.625" rx="9.99642" fill="white"/>
</clipPath>
<clipPath id="clip2_760_7914">
<rect width="11.25" height="11.25" fill="white" transform="translate(156.641 231.562)"/>
</clipPath>
<clipPath id="clip3_760_7914">
<rect width="22.1325" height="22.1325" fill="white" transform="translate(277.887 45.5176)"/>
</clipPath>
</defs>
</svg>
