<svg width="351" height="373" fill="none" xmlns="http://www.w3.org/2000/svg"><circle cx="168.899" cy="193.24" fill="url(#a)" fill-opacity=".02" r="168.262"/><circle cx="168.899" cy="193.24" fill="#D346A7" fill-opacity=".02" r="168.262"/><path d="M336.671 193.24c0 92.658-75.114 167.772-167.772 167.772-92.658 0-167.772-75.114-167.772-167.772 0-92.658 75.114-167.772 167.772-167.772 92.658 0 167.772 75.114 167.772 167.772Z" stroke="url(#b)" stroke-opacity=".12" stroke-width=".98"/><path d="M336.671 193.24c0 92.658-75.114 167.772-167.772 167.772-92.658 0-167.772-75.114-167.772-167.772 0-92.658 75.114-167.772 167.772-167.772 92.658 0 167.772 75.114 167.772 167.772Z" stroke="#D346A7" stroke-opacity=".16" stroke-width=".98"/><circle cx="168.9" cy="193.24" fill="url(#c)" fill-opacity=".04" r="122.372"/><circle cx="168.9" cy="193.24" fill="#D346A7" fill-opacity=".02" r="122.372"/><path d="M290.782 193.24c0 67.314-54.569 121.882-121.882 121.882-67.314 0-121.883-54.568-121.883-121.882 0-67.314 54.569-121.882 121.883-121.882 67.313 0 121.882 54.568 121.882 121.882Z" stroke="url(#d)" stroke-opacity=".2" stroke-width=".98"/><path d="M290.782 193.24c0 67.314-54.569 121.882-121.882 121.882-67.314 0-121.883-54.568-121.883-121.882 0-67.314 54.569-121.882 121.883-121.882 67.313 0 121.882 54.568 121.882 121.882Z" stroke="#D346A7" stroke-opacity=".16" stroke-width=".98"/><circle cx="168.898" cy="193.24" fill="url(#e)" fill-opacity=".06" r="76.483"/><circle cx="168.898" cy="193.24" fill="#D346A7" fill-opacity=".03" r="76.483"/><path d="M244.89 193.24c0 41.97-34.023 75.993-75.992 75.993-41.97 0-75.993-34.023-75.993-75.993 0-41.97 34.023-75.993 75.993-75.993 41.969 0 75.992 34.023 75.992 75.993Z" stroke="url(#f)" stroke-opacity=".2" stroke-width=".98"/><path d="M244.89 193.24c0 41.97-34.023 75.993-75.992 75.993-41.97 0-75.993-34.023-75.993-75.993 0-41.97 34.023-75.993 75.993-75.993 41.969 0 75.992 34.023 75.992 75.993Z" stroke="#D346A7" stroke-opacity=".16" stroke-width=".98"/><circle cx="168.629" cy="192.988" fill="url(#g)" fill-opacity=".06" r="26.4"/><circle cx="168.629" cy="192.988" fill="#252123" r="26.4"/><path d="M194.625 192.988c0 14.357-11.638 25.996-25.996 25.996-14.357 0-25.995-11.639-25.995-25.996s11.638-25.996 25.995-25.996c14.358 0 25.996 11.639 25.996 25.996Z" stroke="url(#h)" stroke-opacity=".2" stroke-width=".808"/><path d="M194.625 192.988c0 14.357-11.638 25.996-25.996 25.996-14.357 0-25.995-11.639-25.995-25.996s11.638-25.996 25.995-25.996c14.358 0 25.996 11.639 25.996 25.996Z" stroke="#D346A7" stroke-opacity=".16" stroke-width=".808"/><g clip-path="url(#i)"><path fill="#252123" d="M156.334 179.156h24.589v27.664h-24.589z"/><g filter="url(#j)"><path fill-rule="evenodd" clip-rule="evenodd" d="m170.991 182.323 5.681 3.28a2.468 2.468 0 0 1 3.924.461 2.468 2.468 0 0 1-1.559 3.626v6.563a2.457 2.457 0 0 1 1.552 3.625 2.466 2.466 0 0 1-3.974.408l-5.647 3.26a2.464 2.464 0 0 1-2.338 3.238 2.46 2.46 0 0 1-2.363-3.158l-5.679-3.28a2.466 2.466 0 0 1-3.917-.468 2.469 2.469 0 0 1 1.552-3.625v-6.563a2.466 2.466 0 0 1-1.559-3.626 2.467 2.467 0 0 1 3.922-.464l5.683-3.28a2.46 2.46 0 0 1 2.361-3.163 2.46 2.46 0 0 1 2.361 3.166Zm-.592 1.011 5.695 3.287a2.46 2.46 0 0 0 1.772 3.064v6.57a3.416 3.416 0 0 0-.096.026l-7.437-12.881.066-.066Zm-3.47.067-7.437 12.881-.097-.026v-6.571a2.453 2.453 0 0 0 1.849-2.089c.04-.328.013-.661-.078-.978l5.693-3.287.07.07Zm2.389.584 7.436 12.877a2.5 2.5 0 0 0-.434.553 2.495 2.495 0 0 0-.259.649H161.2a2.473 2.473 0 0 0-.693-1.198l7.437-12.881a2.488 2.488 0 0 0 1.374 0Zm1.133 18.678 5.658-3.266a2.959 2.959 0 0 1-.046-.161h-14.867c-.007.032-.016.063-.025.095l5.685 3.282a2.462 2.462 0 0 1 3.595.05Z" fill="#E535AB"/></g></g><circle cx="46.53" cy="165.488" fill="#1D1F1F" r="24.978"/><path d="M71.125 165.488c0 13.584-11.011 24.596-24.595 24.596s-24.596-11.012-24.596-24.596c0-13.583 11.012-24.595 24.596-24.595s24.595 11.012 24.595 24.595Z" stroke="url(#k)" stroke-opacity=".2" stroke-width=".765"/><path d="M71.125 165.488c0 13.584-11.011 24.596-24.595 24.596s-24.596-11.012-24.596-24.596c0-13.583 11.012-24.595 24.596-24.595s24.595 11.012 24.595 24.595Z" stroke="#959595" stroke-opacity=".16" stroke-width=".765"/><g clip-path="url(#l)"><path fill-rule="evenodd" clip-rule="evenodd" d="m58.222 172.653-9.728-20.659a1.559 1.559 0 0 0-1.329-.888 1.541 1.541 0 0 0-1.421.736l-10.551 17.089a1.6 1.6 0 0 0 .017 1.716l5.159 7.988a1.655 1.655 0 0 0 1.863.686l14.97-4.428a1.65 1.65 0 0 0 1.03-.89 1.605 1.605 0 0 0-.009-1.351v.001Zm-2.178.886-12.702 3.756a.532.532 0 0 1-.68-.611l4.539-21.731c.085-.407.646-.471.824-.095l8.401 17.841a.608.608 0 0 1-.382.84Z" fill="#fff"/></g><circle cx="326.022" cy="255.884" fill="#292B2A" r="24.978"/><path d="M350.618 255.884c0 13.584-11.012 24.596-24.596 24.596s-24.596-11.012-24.596-24.596c0-13.583 11.012-24.595 24.596-24.595s24.596 11.012 24.596 24.595Z" stroke="url(#m)" stroke-opacity=".2" stroke-width=".765"/><path d="M350.618 255.884c0 13.584-11.012 24.596-24.596 24.596s-24.596-11.012-24.596-24.596c0-13.583 11.012-24.595 24.596-24.595s24.596 11.012 24.596 24.595Z" stroke="#69AA9D" stroke-opacity=".16" stroke-width=".765"/><path d="M337.609 249.971v3.706c0 .891.445 1.296 1.498 1.296v1.823c-1.053 0-1.498.405-1.498 1.296v3.706c0 2.126-1.134 3.199-3.342 3.199h-1.174v-2.045h1.012c.851 0 1.357-.466 1.357-1.377v-3.645c0-1.256.729-1.823 1.398-2.046-.669-.222-1.398-.789-1.398-2.045v-3.645c0-.911-.506-1.377-1.357-1.377h-1.012v-2.046h1.174c2.208 0 3.342 1.074 3.342 3.2ZM326.019 253.013c-.81 0-1.418-.628-1.418-1.418 0-.79.608-1.397 1.418-1.397.81 0 1.417.607 1.417 1.397s-.607 1.418-1.417 1.418Zm0 7.675c-.81 0-1.418-.628-1.418-1.418 0-.79.608-1.397 1.418-1.397.81 0 1.417.607 1.417 1.397s-.607 1.418-1.417 1.418ZM316.577 250.193v3.646c0 1.255-.749 1.822-1.417 2.045.668.223 1.417.79 1.417 2.045v3.645c0 .912.507 1.378 1.337 1.378h1.013v2.045h-1.155c-2.207 0-3.341-1.073-3.341-3.2v-3.706c0-.891-.446-1.296-1.499-1.296v-1.822c1.053 0 1.499-.405 1.499-1.296v-3.706c0-2.127 1.134-3.2 3.341-3.2h1.175v2.045h-1.033c-.83 0-1.337.466-1.337 1.377Z" fill="#51AC9D"/><circle cx="187.994" cy="24.978" fill="#1D1F1F" r="24.978"/><path d="M212.59 24.978c0 13.584-11.012 24.596-24.596 24.596s-24.595-11.012-24.595-24.596S174.41.382 187.994.382s24.596 11.012 24.596 24.596Z" stroke="url(#n)" stroke-opacity=".2" stroke-width=".765"/><path d="M212.59 24.978c0 13.584-11.012 24.596-24.596 24.596s-24.595-11.012-24.595-24.596S174.41.382 187.994.382s24.596 11.012 24.596 24.596Z" stroke="#63B9BA" stroke-opacity=".16" stroke-width=".765"/><path d="M178.165 28.474c.192.256.442.462.728.603.31.153.652.231.998.226.28.008.559-.04.82-.14.209-.082.396-.212.545-.38.14-.164.242-.357.299-.565a2.55 2.55 0 0 0 .092-.689v-.81h-.02a1.734 1.734 0 0 1-.752.656 2.321 2.321 0 0 1-.935.193 2.43 2.43 0 0 1-.921-.174 2.342 2.342 0 0 1-.748-.477 2.27 2.27 0 0 1-.684-1.644 2.364 2.364 0 0 1 .65-1.659c.205-.214.451-.383.724-.497a2.33 2.33 0 0 1 .921-.178c.144 0 .287.013.429.038.156.027.308.073.453.135.345.15.643.39.863.695h.02v-.753h.636v4.475a3.666 3.666 0 0 1-.091.781 1.944 1.944 0 0 1-.357.762c-.198.248-.45.446-.738.579-.315.154-.727.231-1.235.231a3.1 3.1 0 0 1-1.205-.222 2.805 2.805 0 0 1-.964-.684l.472-.502Zm.116-3.22c-.002.229.043.457.13.67.084.203.205.39.357.549.151.158.331.286.53.376.208.094.433.142.661.14.451.002.886-.17 1.215-.477.162-.153.289-.339.371-.545.09-.227.131-.47.121-.714a1.915 1.915 0 0 0-.116-.67 1.61 1.61 0 0 0-.337-.55 1.642 1.642 0 0 0-.54-.376 1.761 1.761 0 0 0-.714-.14 1.566 1.566 0 0 0-.661.14 1.722 1.722 0 0 0-.887.926 1.73 1.73 0 0 0-.13.67Zm6.596 2.314h-.694V20.74h2.102c.695 0 1.243.15 1.645.453.401.302.602.759.602 1.37.013.443-.148.873-.448 1.2-.299.325-.731.513-1.297.564l1.967 3.24h-.848l-1.871-3.172h-1.158v3.173Zm0-3.81h1.235c.265.006.53-.027.786-.096.187-.05.362-.137.516-.256.123-.1.22-.229.279-.376.059-.149.089-.308.087-.468a1.218 1.218 0 0 0-.087-.458.967.967 0 0 0-.279-.38 1.367 1.367 0 0 0-.516-.256 2.923 2.923 0 0 0-.786-.092h-1.235v2.382Zm5.073-3.018h1.987c.694 0 1.242.15 1.644.453.402.302.603.759.603 1.37 0 .61-.201 1.068-.603 1.374-.402.305-.95.458-1.644.458h-1.293v3.173h-.694V20.74Zm.694 3.018h1.119c.265.006.53-.027.786-.096a1.46 1.46 0 0 0 .516-.256c.124-.1.22-.229.28-.376a1.268 1.268 0 0 0 0-.926.979.979 0 0 0-.28-.38 1.367 1.367 0 0 0-.516-.256 2.914 2.914 0 0 0-.786-.092h-1.119v2.382Zm10.512 2.73a2.71 2.71 0 0 1-1.012.892 3.277 3.277 0 0 1-1.515.362 3.648 3.648 0 0 1-1.412-.27 3.389 3.389 0 0 1-1.876-1.881 3.723 3.723 0 0 1-.27-1.437c-.006-.492.086-.98.27-1.437a3.389 3.389 0 0 1 1.876-1.88 3.646 3.646 0 0 1 1.412-.27c.437.001.869.087 1.274.25.431.172.808.46 1.089.83l-.607.453a1.662 1.662 0 0 0-.29-.329 2.092 2.092 0 0 0-.419-.289 2.608 2.608 0 0 0-.506-.202 1.966 1.966 0 0 0-.541-.077 2.767 2.767 0 0 0-1.176.24 2.66 2.66 0 0 0-.882.647 2.835 2.835 0 0 0-.555.94 3.37 3.37 0 0 0 0 2.247c.122.346.311.666.555.94.246.274.546.494.882.646.37.166.771.248 1.176.242.18 0 .359-.016.536-.049.179-.033.354-.088.521-.164.175-.08.337-.186.482-.313.162-.145.303-.312.419-.497l.569.405Z" fill="#fff"/><path d="m176.78 22.984-1.798-1.785 1.785-1.798 1.798 1.785-1.785 1.798Z" fill="url(#o)"/><path d="m181.619 22.179-1.055-1.047 1.047-1.055 1.055 1.047-1.047 1.055Z" fill="url(#p)"/><path d="m177.055 20.166-1.081 1.09 1.089 1.08.921-.003-.966-.958 4.771-.018-.418.42h.46l.541-.545-.545-.54-.46.001.421.418-4.771.018.959-.966-.921.003Z" fill="#244B5A"/><circle cx="113.899" cy="347.15" fill="#17191B" r="25.3"/><path d="M138.812 347.15c0 13.758-11.154 24.912-24.913 24.912s-24.912-11.154-24.912-24.912c0-13.759 11.153-24.913 24.912-24.913 13.759 0 24.913 11.154 24.913 24.913Z" stroke="url(#q)" stroke-opacity=".2" stroke-width=".775"/><path d="M138.812 347.15c0 13.758-11.154 24.912-24.913 24.912s-24.912-11.154-24.912-24.912c0-13.759 11.153-24.913 24.912-24.913 13.759 0 24.913 11.154 24.913 24.913Z" stroke="#367CB4" stroke-opacity=".16" stroke-width=".775"/><g clip-path="url(#r)"><path d="M108.958 352.587c-.272-.257-.261-.732.046-.952.534-.403 1.242-.372 1.847-.605.449-.132.682-.568.964-.903a4.098 4.098 0 0 1-1.5-.402l-1.564 1.745c-1.961 2.707-3.787 1.517-5.483-3.534-1.698-5.055-2.335-9.468-.128-11.675 1.628-1.628 4.368-1.84 8.117-.585 1.377-.92 3.128-1.046 4.717-.724.142.018.284.083.429.054 4.592-1.532 9.548.885 9.515 3.918-.03 2.66-1.147 6.733-3.68 10.698 1.531.645 3.085-.464 3.7.182.654.978-2.187 2.842-5.049 2.278-.552 3.719-.386 5.635-1.628 6.713-1.9 1.428-5.155 1.658-5.622-1.935-.169-1.49-.175-2.992-.171-4.49-1.588 1.402-3.847.842-4.51.217Zm13.351-11.221c.009 1.013-.338 2.003-.234 3.019.099 1.076.33 2.178.056 3.247-.078.38-.276.717-.412 1.074l.04.205c2.129-3.172 4.268-9.26 3.038-11.318-1.616-1.948-4-2.726-7.103-2.136 2.528 1.166 4.649 4.232 4.615 5.909Zm-3.194 2.015c.349 1.683 1.325 3.128 2.085 4.64.567-1.141.234-2.433.131-3.634-.084-.972.2-1.918.231-2.882-1.875-.233-2.769.323-2.447 1.876Zm-13.671 7.639c.304.445.649.942 1.193 1.099.465.095.836-.284 1.105-.608.627-.756 1.293-1.474 1.93-2.219-.936-.851-1.442-2.148-1.272-3.409.136-.965.162-1.943.103-2.916-.076-2.874.542-5.181 2.074-6.743-4.81-1.432-8.586-.607-8.075 5.245.479 3.497 1.457 6.682 2.942 9.551Zm3.791-8.603c.015.809.073 1.62.018 2.429-.024.715-.221 1.431-.073 2.148.258 1.259 1.363 2.385 2.69 2.372.194-.637.419-1.264.698-1.87.798-1.571.669-3.417.252-5.075-.389-1.37-2.399-.803-3.585-.004Zm3.525 7.859c-.519.338-.739.995-1.293 1.294-.574.339-1.269.317-1.863.593 1.205.614 2.872.397 3.705-.731.427-.396.016-1.235-.549-1.156Zm12.251.126c-1.028.125-2.15.373-3.116-.136-.227-.158-.506-.024-.703.12-.248.231-.231.597-.233.905.545.188 1.134.168 1.7.1.855-.093 1.724-.378 2.352-.989Zm-5.319-8.382c-.201.165.016.412.189.49.419.246.992-.098 1.006-.576-.378-.176-.853-.159-1.195.086Zm-7.412.764c.178-.101.368-.379.161-.546-.294-.239-.722-.285-1.08-.189-.116.041-.237.119-.213.261.083.48.727.772 1.132.474Zm6.661-1.519c.693-.595 1.664-.561 2.521-.53-.516-1.457-1.472-2.753-2.682-3.71-1.465-1.153-3.401-1.66-5.244-1.425a4.253 4.253 0 0 0-2.839 1.653c-.917 1.216-1.318 2.75-1.434 4.247 2.149-1.041 3.822-.898 4.311.832.301 1.325.463 2.722.169 4.063-.226 1.085-.888 2.022-1.107 3.108 1.223.021 1.615.941 1.599 1.64-.085 2.432-.007 4.54.266 6.26.307 1.221 1.287 1.687 2.03 1.62 1.769-.161 2.71-.693 3.021-2.46.801-5.049.542-5.937.902-6.448l.002.001c.181-.327.535-.481.853-.641-.775-1.188-4.359-6.482-2.368-8.21Z" fill="#367CB4"/></g><defs><linearGradient id="a" x1="168.899" y1="24.978" x2="168.899" y2="361.502" gradientUnits="userSpaceOnUse"><stop stop-color="#fff"/><stop offset="1" stop-color="#fff" stop-opacity="0"/></linearGradient><linearGradient id="b" x1="168.899" y1="24.978" x2="168.899" y2="361.502" gradientUnits="userSpaceOnUse"><stop stop-color="#fff"/><stop offset="1" stop-color="#fff" stop-opacity="0"/></linearGradient><linearGradient id="c" x1="168.9" y1="70.868" x2="168.9" y2="315.612" gradientUnits="userSpaceOnUse"><stop stop-color="#fff"/><stop offset="1" stop-color="#fff" stop-opacity="0"/></linearGradient><linearGradient id="d" x1="168.9" y1="70.868" x2="168.9" y2="315.612" gradientUnits="userSpaceOnUse"><stop stop-color="#fff"/><stop offset="1" stop-color="#fff" stop-opacity="0"/></linearGradient><linearGradient id="e" x1="168.898" y1="116.757" x2="168.898" y2="269.723" gradientUnits="userSpaceOnUse"><stop stop-color="#fff"/><stop offset="1" stop-color="#fff" stop-opacity="0"/></linearGradient><linearGradient id="f" x1="168.898" y1="116.757" x2="168.898" y2="269.723" gradientUnits="userSpaceOnUse"><stop stop-color="#fff"/><stop offset="1" stop-color="#fff" stop-opacity="0"/></linearGradient><linearGradient id="g" x1="168.629" y1="166.588" x2="168.629" y2="219.388" gradientUnits="userSpaceOnUse"><stop stop-color="#fff"/><stop offset="1" stop-color="#fff" stop-opacity="0"/></linearGradient><linearGradient id="h" x1="168.629" y1="166.588" x2="168.629" y2="219.388" gradientUnits="userSpaceOnUse"><stop stop-color="#fff"/><stop offset="1" stop-color="#fff" stop-opacity="0"/></linearGradient><linearGradient id="k" x1="46.53" y1="140.51" x2="46.53" y2="190.466" gradientUnits="userSpaceOnUse"><stop stop-color="#fff"/><stop offset="1" stop-color="#fff" stop-opacity="0"/></linearGradient><linearGradient id="m" x1="326.022" y1="230.906" x2="326.022" y2="280.862" gradientUnits="userSpaceOnUse"><stop stop-color="#fff"/><stop offset="1" stop-color="#fff" stop-opacity="0"/></linearGradient><linearGradient id="n" x1="187.994" y1="0" x2="187.994" y2="49.956" gradientUnits="userSpaceOnUse"><stop stop-color="#fff"/><stop offset="1" stop-color="#fff" stop-opacity="0"/></linearGradient><linearGradient id="o" x1="-3.047" y1="-155.511" x2="355.276" y2="-156.843" gradientUnits="userSpaceOnUse"><stop stop-color="#72C9C9"/><stop offset="1" stop-color="#02B0AD"/></linearGradient><linearGradient id="p" x1="76.141" y1="-82.518" x2="286.316" y2="-83.299" gradientUnits="userSpaceOnUse"><stop stop-color="#03B6B4"/><stop offset="1" stop-color="#74CBCA"/></linearGradient><linearGradient id="q" x1="113.899" y1="321.85" x2="113.899" y2="372.449" gradientUnits="userSpaceOnUse"><stop stop-color="#fff"/><stop offset="1" stop-color="#fff" stop-opacity="0"/></linearGradient><clipPath id="i"><path fill="#fff" transform="translate(156.334 179.156)" d="M0 0h24.589v27.664H0z"/></clipPath><clipPath id="l"><path fill="#fff" transform="translate(35.192 150.891)" d="M0 0h23.418v28.6H0z"/></clipPath><clipPath id="r"><path fill="#fff" transform="translate(101.726 334.532)" d="M0 0h24.347v25.234H0z"/></clipPath><filter id="j" x="152.814" y="176.076" width="31.632" height="34.669" filterUnits="userSpaceOnUse" color-interpolation-filters="sRGB"><feFlood flood-opacity="0" result="BackgroundImageFix"/><feColorMatrix in="SourceAlpha" values="0 0 0 0 0 0 0 0 0 0 0 0 0 0 0 0 0 0 127 0" result="hardAlpha"/><feOffset dy=".44"/><feGaussianBlur stdDeviation="1.761"/><feComposite in2="hardAlpha" operator="out"/><feColorMatrix values="0 0 0 0 0 0 0 0 0 0 0 0 0 0 0 0 0 0 0.1 0"/><feBlend in2="BackgroundImageFix" result="effect1_dropShadow_1237_22090"/><feBlend in="SourceGraphic" in2="effect1_dropShadow_1237_22090" result="shape"/><feColorMatrix in="SourceAlpha" values="0 0 0 0 0 0 0 0 0 0 0 0 0 0 0 0 0 0 127 0" result="hardAlpha"/><feOffset dy="1.761"/><feGaussianBlur stdDeviation=".88"/><feComposite in2="hardAlpha" operator="arithmetic" k2="-1" k3="1"/><feColorMatrix values="0 0 0 0 1 0 0 0 0 1 0 0 0 0 1 0 0 0 0.2 0"/><feBlend in2="shape" result="effect2_innerShadow_1237_22090"/></filter></defs></svg>