<svg width="448" height="272" viewBox="0 0 448 272" fill="none" xmlns="http://www.w3.org/2000/svg">
<g clip-path="url(#clip0_898_22361)">
<rect y="0.260254" width="448" height="271" rx="10" fill="#191918"/>
<g clip-path="url(#clip1_898_22361)">
<path d="M195.238 24.1442C195.718 24.1442 196.07 24.0322 196.294 23.8082C196.518 23.5842 196.63 23.2282 196.63 22.7402H197.662V31.2602H196.354V25.1882H194.554V24.1442H195.238Z" fill="#92928C"/>
<path d="M184.712 28.0803C184.712 27.4083 184.836 26.8243 185.084 26.3283C185.34 25.8243 185.696 25.4363 186.152 25.1643C186.608 24.8923 187.14 24.7563 187.748 24.7563C188.268 24.7563 188.74 24.8763 189.164 25.1163C189.596 25.3483 189.94 25.7123 190.196 26.2083C190.46 26.6963 190.604 27.3043 190.628 28.0323V28.4523H186.08C186.12 29.0363 186.284 29.4923 186.572 29.8203C186.86 30.1403 187.252 30.3003 187.748 30.3003C188.068 30.3003 188.356 30.2163 188.612 30.0483C188.868 29.8803 189.064 29.6443 189.2 29.3403L190.544 29.4363C190.352 30.0363 190 30.5163 189.488 30.8763C188.984 31.2283 188.404 31.4043 187.748 31.4043C187.14 31.4043 186.608 31.2683 186.152 30.9963C185.696 30.7243 185.34 30.3403 185.084 29.8443C184.836 29.3403 184.712 28.7523 184.712 28.0803ZM189.272 27.4803C189.192 26.9203 189.016 26.5123 188.744 26.2563C188.472 25.9923 188.14 25.8603 187.748 25.8603C187.292 25.8603 186.92 26.0043 186.632 26.2923C186.352 26.5723 186.172 26.9683 186.092 27.4803H189.272Z" fill="#92928C"/>
<path d="M182.899 22.7402V29.7842C182.899 29.9202 182.935 30.0242 183.007 30.0962C183.079 30.1682 183.183 30.2042 183.319 30.2042H183.835V31.2602H183.031C182.607 31.2602 182.263 31.1322 181.999 30.8762C181.735 30.6122 181.603 30.2642 181.603 29.8322V22.7402H182.899Z" fill="#92928C"/>
<path d="M178.899 27.1323C178.835 26.7403 178.667 26.4323 178.395 26.2083C178.123 25.9843 177.803 25.8723 177.435 25.8723C176.899 25.8723 176.483 26.0683 176.187 26.4603C175.891 26.8443 175.743 27.3843 175.743 28.0803C175.743 28.7763 175.891 29.3203 176.187 29.7123C176.483 30.0963 176.899 30.2883 177.435 30.2883C177.819 30.2883 178.147 30.1683 178.419 29.9283C178.699 29.6883 178.871 29.3523 178.935 28.9203L180.291 28.9923C180.227 29.4803 180.059 29.9083 179.787 30.2763C179.523 30.6363 179.187 30.9163 178.779 31.1163C178.371 31.3083 177.923 31.4043 177.435 31.4043C176.827 31.4043 176.295 31.2683 175.839 30.9963C175.383 30.7243 175.027 30.3403 174.771 29.8443C174.523 29.3403 174.399 28.7523 174.399 28.0803C174.399 27.4083 174.523 26.8243 174.771 26.3283C175.027 25.8243 175.383 25.4363 175.839 25.1643C176.295 24.8923 176.827 24.7563 177.435 24.7563C177.907 24.7563 178.347 24.8523 178.755 25.0443C179.163 25.2283 179.499 25.4963 179.763 25.8483C180.027 26.1923 180.187 26.5963 180.243 27.0603L178.899 27.1323Z" fill="#92928C"/>
<path d="M169.103 24.9004L170.891 29.8924L172.631 24.9004H173.927L171.383 32.0044C171.255 32.3644 171.063 32.6284 170.807 32.7964C170.559 32.9724 170.239 33.0604 169.847 33.0604H168.899V32.0164H169.655C169.823 32.0164 169.955 31.9844 170.051 31.9204C170.155 31.8564 170.235 31.7484 170.291 31.5964L170.495 31.0684H170.099L167.795 24.9004H169.103Z" fill="#92928C"/>
<path d="M167.028 28.3683C166.868 29.3283 166.484 30.0843 165.876 30.6363C165.268 31.1803 164.476 31.4523 163.5 31.4523C162.692 31.4523 161.992 31.2603 161.4 30.8763C160.808 30.4843 160.352 29.9523 160.032 29.2803C159.712 28.6003 159.552 27.8443 159.552 27.0123C159.552 26.1803 159.708 25.4243 160.02 24.7443C160.34 24.0643 160.796 23.5283 161.388 23.1363C161.988 22.7443 162.692 22.5483 163.5 22.5483C164.42 22.5483 165.18 22.8083 165.78 23.3283C166.388 23.8403 166.784 24.5523 166.968 25.4643L165.588 25.5363C165.468 24.9683 165.224 24.5283 164.856 24.2163C164.488 23.9043 164.032 23.7483 163.488 23.7483C162.912 23.7483 162.432 23.8923 162.048 24.1803C161.664 24.4683 161.38 24.8603 161.196 25.3563C161.012 25.8523 160.92 26.4043 160.92 27.0123C160.92 27.6203 161.012 28.1683 161.196 28.6563C161.38 29.1443 161.664 29.5323 162.048 29.8203C162.44 30.1083 162.92 30.2523 163.488 30.2523C164.064 30.2523 164.536 30.0843 164.904 29.7483C165.28 29.4043 165.524 28.9203 165.636 28.2963L167.028 28.3683Z" fill="#92928C"/>
<path d="M301.926 25.3443C301.99 24.8003 302.158 24.3203 302.43 23.9043C302.702 23.4803 303.062 23.1483 303.51 22.9083C303.966 22.6683 304.482 22.5483 305.058 22.5483C305.594 22.5483 306.074 22.6563 306.498 22.8723C306.93 23.0883 307.27 23.3843 307.518 23.7603C307.766 24.1363 307.89 24.5603 307.89 25.0323C307.89 25.4323 307.79 25.8003 307.59 26.1363C307.398 26.4643 307.142 26.7643 306.822 27.0363C306.502 27.3003 306.106 27.5763 305.634 27.8643C305.538 27.9203 305.442 27.9803 305.346 28.0443C304.858 28.3563 304.418 28.6923 304.026 29.0523C303.634 29.4123 303.43 29.7483 303.414 30.0603H307.938V31.2603H301.794C301.794 30.5243 301.926 29.8963 302.19 29.3763C302.454 28.8563 302.774 28.4283 303.15 28.0923C303.534 27.7483 304.034 27.3843 304.65 27.0003C304.778 26.9203 304.906 26.8443 305.034 26.7723C305.13 26.7083 305.222 26.6443 305.31 26.5803C305.702 26.3243 306.002 26.0683 306.21 25.8123C306.418 25.5483 306.522 25.2843 306.522 25.0203C306.522 24.7723 306.458 24.5563 306.33 24.3723C306.21 24.1803 306.038 24.0283 305.814 23.9163C305.59 23.8043 305.338 23.7483 305.058 23.7483C304.586 23.7483 304.198 23.8963 303.894 24.1923C303.59 24.4803 303.386 24.8923 303.282 25.4283L301.926 25.3443Z" fill="#92928C"/>
<path d="M291.712 28.0803C291.712 27.4083 291.836 26.8243 292.084 26.3283C292.34 25.8243 292.696 25.4363 293.152 25.1643C293.608 24.8923 294.14 24.7563 294.748 24.7563C295.268 24.7563 295.74 24.8763 296.164 25.1163C296.596 25.3483 296.94 25.7123 297.196 26.2083C297.46 26.6963 297.604 27.3043 297.628 28.0323V28.4523H293.08C293.12 29.0363 293.284 29.4923 293.572 29.8203C293.86 30.1403 294.252 30.3003 294.748 30.3003C295.068 30.3003 295.356 30.2163 295.612 30.0483C295.868 29.8803 296.064 29.6443 296.2 29.3403L297.544 29.4363C297.352 30.0363 297 30.5163 296.488 30.8763C295.984 31.2283 295.404 31.4043 294.748 31.4043C294.14 31.4043 293.608 31.2683 293.152 30.9963C292.696 30.7243 292.34 30.3403 292.084 29.8443C291.836 29.3403 291.712 28.7523 291.712 28.0803ZM296.272 27.4803C296.192 26.9203 296.016 26.5123 295.744 26.2563C295.472 25.9923 295.14 25.8603 294.748 25.8603C294.292 25.8603 293.92 26.0043 293.632 26.2923C293.352 26.5723 293.172 26.9683 293.092 27.4803H296.272Z" fill="#92928C"/>
<path d="M289.899 22.7402V29.7842C289.899 29.9202 289.935 30.0242 290.007 30.0962C290.079 30.1682 290.183 30.2042 290.319 30.2042H290.835V31.2602H290.031C289.607 31.2602 289.263 31.1322 288.999 30.8762C288.735 30.6122 288.603 30.2642 288.603 29.8322V22.7402H289.899Z" fill="#92928C"/>
<path d="M285.899 27.1323C285.835 26.7403 285.667 26.4323 285.395 26.2083C285.123 25.9843 284.803 25.8723 284.435 25.8723C283.899 25.8723 283.483 26.0683 283.187 26.4603C282.891 26.8443 282.743 27.3843 282.743 28.0803C282.743 28.7763 282.891 29.3203 283.187 29.7123C283.483 30.0963 283.899 30.2883 284.435 30.2883C284.819 30.2883 285.147 30.1683 285.419 29.9283C285.699 29.6883 285.871 29.3523 285.935 28.9203L287.291 28.9923C287.227 29.4803 287.059 29.9083 286.787 30.2763C286.523 30.6363 286.187 30.9163 285.779 31.1163C285.371 31.3083 284.923 31.4043 284.435 31.4043C283.827 31.4043 283.295 31.2683 282.839 30.9963C282.383 30.7243 282.027 30.3403 281.771 29.8443C281.523 29.3403 281.399 28.7523 281.399 28.0803C281.399 27.4083 281.523 26.8243 281.771 26.3283C282.027 25.8243 282.383 25.4363 282.839 25.1643C283.295 24.8923 283.827 24.7563 284.435 24.7563C284.907 24.7563 285.347 24.8523 285.755 25.0443C286.163 25.2283 286.499 25.4963 286.763 25.8483C287.027 26.1923 287.187 26.5963 287.243 27.0603L285.899 27.1323Z" fill="#92928C"/>
<path d="M276.103 24.9004L277.891 29.8924L279.631 24.9004H280.927L278.383 32.0044C278.255 32.3644 278.063 32.6284 277.807 32.7964C277.559 32.9724 277.239 33.0604 276.847 33.0604H275.899V32.0164H276.655C276.823 32.0164 276.955 31.9844 277.051 31.9204C277.155 31.8564 277.235 31.7484 277.291 31.5964L277.495 31.0684H277.099L274.795 24.9004H276.103Z" fill="#92928C"/>
<path d="M274.028 28.3683C273.868 29.3283 273.484 30.0843 272.876 30.6363C272.268 31.1803 271.476 31.4523 270.5 31.4523C269.692 31.4523 268.992 31.2603 268.4 30.8763C267.808 30.4843 267.352 29.9523 267.032 29.2803C266.712 28.6003 266.552 27.8443 266.552 27.0123C266.552 26.1803 266.708 25.4243 267.02 24.7443C267.34 24.0643 267.796 23.5283 268.388 23.1363C268.988 22.7443 269.692 22.5483 270.5 22.5483C271.42 22.5483 272.18 22.8083 272.78 23.3283C273.388 23.8403 273.784 24.5523 273.968 25.4643L272.588 25.5363C272.468 24.9683 272.224 24.5283 271.856 24.2163C271.488 23.9043 271.032 23.7483 270.488 23.7483C269.912 23.7483 269.432 23.8923 269.048 24.1803C268.664 24.4683 268.38 24.8603 268.196 25.3563C268.012 25.8523 267.92 26.4043 267.92 27.0123C267.92 27.6203 268.012 28.1683 268.196 28.6563C268.38 29.1443 268.664 29.5323 269.048 29.8203C269.44 30.1083 269.92 30.2523 270.488 30.2523C271.064 30.2523 271.536 30.0843 271.904 29.7483C272.28 29.4043 272.524 28.9203 272.636 28.2963L274.028 28.3683Z" fill="#92928C"/>
<path d="M414.77 26.1843C415.034 26.1923 415.286 26.1523 415.526 26.0643C415.774 25.9763 415.974 25.8323 416.126 25.6323C416.286 25.4243 416.366 25.1643 416.366 24.8523C416.366 24.6283 416.302 24.4363 416.174 24.2763C416.046 24.1083 415.862 23.9803 415.622 23.8923C415.382 23.7963 415.098 23.7483 414.77 23.7483C414.362 23.7483 414.026 23.8403 413.762 24.0243C413.498 24.2083 413.338 24.4563 413.282 24.7683L411.938 24.6843C411.986 24.2763 412.138 23.9083 412.394 23.5803C412.658 23.2523 412.994 23.0003 413.402 22.8243C413.818 22.6403 414.278 22.5483 414.782 22.5483C415.358 22.5483 415.87 22.6403 416.318 22.8243C416.766 23.0083 417.114 23.2683 417.362 23.6043C417.61 23.9403 417.734 24.3283 417.734 24.7683C417.734 25.2963 417.562 25.7283 417.218 26.0643C416.882 26.3923 416.386 26.6163 415.73 26.7363L415.742 26.5803C416.222 26.6603 416.634 26.8083 416.978 27.0243C417.322 27.2403 417.582 27.5083 417.758 27.8283C417.934 28.1483 418.022 28.5123 418.022 28.9203C418.022 29.4163 417.886 29.8563 417.614 30.2403C417.342 30.6243 416.958 30.9243 416.462 31.1403C415.974 31.3483 415.414 31.4523 414.782 31.4523C414.198 31.4523 413.674 31.3483 413.21 31.1403C412.746 30.9243 412.378 30.6323 412.106 30.2643C411.842 29.8883 411.698 29.4563 411.674 28.9683L413.018 28.8963C413.066 29.3363 413.262 29.6723 413.606 29.9043C413.958 30.1363 414.35 30.2523 414.782 30.2523C415.11 30.2523 415.414 30.2003 415.694 30.0963C415.982 29.9843 416.214 29.8203 416.39 29.6043C416.574 29.3803 416.666 29.1003 416.666 28.7643C416.666 28.4363 416.574 28.1603 416.39 27.9363C416.214 27.7043 415.982 27.5363 415.694 27.4323C415.406 27.3283 415.098 27.2803 414.77 27.2883L414.098 27.3003V26.1723L414.77 26.1843Z" fill="#92928C"/>
<path d="M401.712 28.0803C401.712 27.4083 401.836 26.8243 402.084 26.3283C402.34 25.8243 402.696 25.4363 403.152 25.1643C403.608 24.8923 404.14 24.7563 404.748 24.7563C405.268 24.7563 405.74 24.8763 406.164 25.1163C406.596 25.3483 406.94 25.7123 407.196 26.2083C407.46 26.6963 407.604 27.3043 407.628 28.0323V28.4523H403.08C403.12 29.0363 403.284 29.4923 403.572 29.8203C403.86 30.1403 404.252 30.3003 404.748 30.3003C405.068 30.3003 405.356 30.2163 405.612 30.0483C405.868 29.8803 406.064 29.6443 406.2 29.3403L407.544 29.4363C407.352 30.0363 407 30.5163 406.488 30.8763C405.984 31.2283 405.404 31.4043 404.748 31.4043C404.14 31.4043 403.608 31.2683 403.152 30.9963C402.696 30.7243 402.34 30.3403 402.084 29.8443C401.836 29.3403 401.712 28.7523 401.712 28.0803ZM406.272 27.4803C406.192 26.9203 406.016 26.5123 405.744 26.2563C405.472 25.9923 405.14 25.8603 404.748 25.8603C404.292 25.8603 403.92 26.0043 403.632 26.2923C403.352 26.5723 403.172 26.9683 403.092 27.4803H406.272Z" fill="#92928C"/>
<path d="M399.899 22.7402V29.7842C399.899 29.9202 399.935 30.0242 400.007 30.0962C400.079 30.1682 400.183 30.2042 400.319 30.2042H400.835V31.2602H400.031C399.607 31.2602 399.263 31.1322 398.999 30.8762C398.735 30.6122 398.603 30.2642 398.603 29.8322V22.7402H399.899Z" fill="#92928C"/>
<path d="M395.899 27.1323C395.835 26.7403 395.667 26.4323 395.395 26.2083C395.123 25.9843 394.803 25.8723 394.435 25.8723C393.899 25.8723 393.483 26.0683 393.187 26.4603C392.891 26.8443 392.743 27.3843 392.743 28.0803C392.743 28.7763 392.891 29.3203 393.187 29.7123C393.483 30.0963 393.899 30.2883 394.435 30.2883C394.819 30.2883 395.147 30.1683 395.419 29.9283C395.699 29.6883 395.871 29.3523 395.935 28.9203L397.291 28.9923C397.227 29.4803 397.059 29.9083 396.787 30.2763C396.523 30.6363 396.187 30.9163 395.779 31.1163C395.371 31.3083 394.923 31.4043 394.435 31.4043C393.827 31.4043 393.295 31.2683 392.839 30.9963C392.383 30.7243 392.027 30.3403 391.771 29.8443C391.523 29.3403 391.399 28.7523 391.399 28.0803C391.399 27.4083 391.523 26.8243 391.771 26.3283C392.027 25.8243 392.383 25.4363 392.839 25.1643C393.295 24.8923 393.827 24.7563 394.435 24.7563C394.907 24.7563 395.347 24.8523 395.755 25.0443C396.163 25.2283 396.499 25.4963 396.763 25.8483C397.027 26.1923 397.187 26.5963 397.243 27.0603L395.899 27.1323Z" fill="#92928C"/>
<path d="M386.103 24.9004L387.891 29.8924L389.631 24.9004H390.927L388.383 32.0044C388.255 32.3644 388.063 32.6284 387.807 32.7964C387.559 32.9724 387.239 33.0604 386.847 33.0604H385.899V32.0164H386.655C386.823 32.0164 386.955 31.9844 387.051 31.9204C387.155 31.8564 387.235 31.7484 387.291 31.5964L387.495 31.0684H387.099L384.795 24.9004H386.103Z" fill="#92928C"/>
<path d="M384.028 28.3683C383.868 29.3283 383.484 30.0843 382.876 30.6363C382.268 31.1803 381.476 31.4523 380.5 31.4523C379.692 31.4523 378.992 31.2603 378.4 30.8763C377.808 30.4843 377.352 29.9523 377.032 29.2803C376.712 28.6003 376.552 27.8443 376.552 27.0123C376.552 26.1803 376.708 25.4243 377.02 24.7443C377.34 24.0643 377.796 23.5283 378.388 23.1363C378.988 22.7443 379.692 22.5483 380.5 22.5483C381.42 22.5483 382.18 22.8083 382.78 23.3283C383.388 23.8403 383.784 24.5523 383.968 25.4643L382.588 25.5363C382.468 24.9683 382.224 24.5283 381.856 24.2163C381.488 23.9043 381.032 23.7483 380.488 23.7483C379.912 23.7483 379.432 23.8923 379.048 24.1803C378.664 24.4683 378.38 24.8603 378.196 25.3563C378.012 25.8523 377.92 26.4043 377.92 27.0123C377.92 27.6203 378.012 28.1683 378.196 28.6563C378.38 29.1443 378.664 29.5323 379.048 29.8203C379.44 30.1083 379.92 30.2523 380.488 30.2523C381.064 30.2523 381.536 30.0843 381.904 29.7483C382.28 29.4043 382.524 28.9203 382.636 28.2963L384.028 28.3683Z" fill="#92928C"/>
<path d="M348.893 28.1772C348.893 30.65 346.889 36.4847 344.416 36.4847C341.943 36.4847 339.938 30.65 339.938 28.1772C339.938 25.7043 341.943 23.6997 344.416 23.6997C346.889 23.6997 348.893 25.7043 348.893 28.1772Z" fill="#DBFE01"/>
</g>
<path d="M478 43.2603H139V45.2603H478V43.2603Z" fill="#222221" mask="url(#path-3-inside-1_898_22361)"/>
<g clip-path="url(#clip2_898_22361)">
<path d="M42.4077 24.9003L42.4557 25.9323C42.6077 25.5563 42.8357 25.2683 43.1397 25.0683C43.4517 24.8603 43.8237 24.7563 44.2557 24.7563C44.7117 24.7563 45.0997 24.8723 45.4197 25.1043C45.7397 25.3283 45.9677 25.6523 46.1037 26.0763C46.2477 25.6443 46.4797 25.3163 46.7997 25.0923C47.1277 24.8683 47.5317 24.7563 48.0117 24.7563C48.4357 24.7563 48.7997 24.8523 49.1037 25.0443C49.4157 25.2283 49.6517 25.5003 49.8117 25.8603C49.9797 26.2203 50.0637 26.6563 50.0637 27.1683V31.2603H48.7797V27.5643C48.7797 27.0043 48.6837 26.5803 48.4917 26.2923C48.2997 25.9963 48.0237 25.8483 47.6637 25.8483C47.3677 25.8483 47.1117 25.9163 46.8957 26.0523C46.6877 26.1803 46.5317 26.3723 46.4277 26.6283C46.3237 26.8843 46.2717 27.1963 46.2717 27.5643V31.2603H45.0477V27.5643C45.0477 27.1963 45.0037 26.8843 44.9157 26.6283C44.8277 26.3723 44.6997 26.1803 44.5317 26.0523C44.3637 25.9163 44.1637 25.8483 43.9317 25.8483C43.6437 25.8483 43.3917 25.9163 43.1757 26.0523C42.9677 26.1883 42.8077 26.3843 42.6957 26.6403C42.5917 26.8963 42.5397 27.2043 42.5397 27.5643V31.2603H41.2437V24.9003H42.4077Z" fill="#DBFE01"/>
<path d="M33.9837 26.8083C34.1117 26.1683 34.4117 25.6683 34.8837 25.3083C35.3637 24.9403 35.9717 24.7563 36.7077 24.7563C37.5797 24.7563 38.2437 24.9883 38.6997 25.4523C39.1637 25.9083 39.3957 26.5763 39.3957 27.4563V29.8203C39.3957 29.9643 39.4277 30.0723 39.4917 30.1443C39.5557 30.2083 39.6517 30.2403 39.7797 30.2403H40.0437V31.2603H39.6357H39.5757C39.3597 31.2683 39.1517 31.2483 38.9517 31.2003C38.7517 31.1523 38.5797 31.0563 38.4357 30.9123C38.2997 30.7683 38.2237 30.5603 38.2077 30.2883C38.0557 30.6083 37.8037 30.8763 37.4517 31.0923C37.0997 31.3003 36.6717 31.4043 36.1677 31.4043C35.5117 31.4043 34.9637 31.2403 34.5237 30.9123C34.0917 30.5843 33.8757 30.1443 33.8757 29.5923C33.8757 29.1843 33.9717 28.8563 34.1637 28.6083C34.3557 28.3603 34.6197 28.1683 34.9557 28.0323C35.2917 27.8963 35.7357 27.7723 36.2877 27.6603L38.0997 27.3123C38.0917 26.8003 37.9717 26.4243 37.7397 26.1843C37.5157 25.9363 37.1717 25.8123 36.7077 25.8123C36.3477 25.8123 36.0477 25.9043 35.8077 26.0883C35.5677 26.2723 35.4037 26.5403 35.3157 26.8923L33.9837 26.8083ZM35.2197 29.5683C35.2197 29.8163 35.3237 30.0203 35.5317 30.1803C35.7397 30.3323 36.0437 30.4083 36.4437 30.4083C36.7637 30.4083 37.0517 30.3323 37.3077 30.1803C37.5637 30.0203 37.7637 29.7883 37.9077 29.4843C38.0517 29.1723 38.1237 28.7963 38.1237 28.3563V28.2963L36.7797 28.5363L36.5637 28.5723C36.2357 28.6283 35.9837 28.6843 35.8077 28.7403C35.6317 28.7963 35.4877 28.8923 35.3757 29.0283C35.2717 29.1563 35.2197 29.3363 35.2197 29.5683Z" fill="#DBFE01"/>
<path d="M26.821 28.0803C26.821 27.4083 26.945 26.8243 27.193 26.3283C27.449 25.8243 27.805 25.4363 28.261 25.1643C28.717 24.8923 29.249 24.7563 29.857 24.7563C30.377 24.7563 30.849 24.8763 31.273 25.1163C31.705 25.3483 32.049 25.7123 32.305 26.2083C32.569 26.6963 32.713 27.3043 32.737 28.0323V28.4523H28.189C28.229 29.0363 28.393 29.4923 28.681 29.8203C28.969 30.1403 29.361 30.3003 29.857 30.3003C30.177 30.3003 30.465 30.2163 30.721 30.0483C30.977 29.8803 31.173 29.6443 31.309 29.3403L32.653 29.4363C32.461 30.0363 32.109 30.5163 31.597 30.8763C31.093 31.2283 30.513 31.4043 29.857 31.4043C29.249 31.4043 28.717 31.2683 28.261 30.9963C27.805 30.7243 27.449 30.3403 27.193 29.8443C26.945 29.3403 26.821 28.7523 26.821 28.0803ZM31.381 27.4803C31.301 26.9203 31.125 26.5123 30.853 26.2563C30.581 25.9923 30.249 25.8603 29.857 25.8603C29.401 25.8603 29.029 26.0043 28.741 26.2923C28.461 26.5723 28.281 26.9683 28.201 27.4803H31.381Z" fill="#DBFE01"/>
<path d="M26.84 23.9402H24.236V31.2602H22.916V23.9402H20.312V22.7402H26.84V23.9402Z" fill="#DBFE01"/>
<path d="M139 270.26H0V272.26H139V270.26Z" fill="#222221" mask="url(#path-30-inside-3_898_22361)"/>
<path d="M0 44.2603H139V42.2603H0V44.2603ZM139 80.2603H0V82.2603H139V80.2603Z" fill="#222221" mask="url(#path-32-inside-4_898_22361)"/>
<path d="M69.1048 57.7402H70.4008V66.2602H69.2008L69.1648 65.3602C68.9808 65.6882 68.7128 65.9442 68.3608 66.1282C68.0088 66.3122 67.6168 66.4042 67.1848 66.4042C66.6408 66.4042 66.1648 66.2682 65.7568 65.9962C65.3488 65.7242 65.0368 65.3402 64.8208 64.8442C64.6048 64.3402 64.4968 63.7522 64.4968 63.0802C64.4968 62.4082 64.6048 61.8242 64.8208 61.3282C65.0368 60.8242 65.3488 60.4362 65.7568 60.1642C66.1648 59.8922 66.6408 59.7562 67.1848 59.7562C67.6008 59.7562 67.9808 59.8442 68.3248 60.0202C68.6688 60.1962 68.9288 60.4362 69.1048 60.7402V57.7402ZM68.9968 64.2442C69.1328 63.9082 69.2008 63.5202 69.2008 63.0802C69.2008 62.6242 69.1328 62.2282 68.9968 61.8922C68.8608 61.5562 68.6648 61.2962 68.4088 61.1122C68.1528 60.9282 67.8568 60.8362 67.5208 60.8362C67.0008 60.8362 66.5888 61.0402 66.2848 61.4482C65.9808 61.8482 65.8288 62.3922 65.8288 63.0802C65.8288 63.7522 65.9808 64.2882 66.2848 64.6882C66.5968 65.0882 67.0088 65.2882 67.5208 65.2882C67.8568 65.2882 68.1528 65.2002 68.4088 65.0242C68.6648 64.8402 68.8608 64.5802 68.9968 64.2442Z" fill="#F8F8F7"/>
<path d="M59.0951 59.9003L59.1552 61.6043L58.9991 61.4843C59.1031 60.9003 59.3391 60.4683 59.7071 60.1883C60.0751 59.9003 60.5272 59.7563 61.0632 59.7563C61.7592 59.7563 62.2951 59.9803 62.6712 60.4283C63.0472 60.8683 63.2351 61.4483 63.2351 62.1683V66.2603H61.9392V62.5643C61.9392 62.1803 61.8992 61.8643 61.8192 61.6163C61.7392 61.3603 61.6072 61.1683 61.4232 61.0403C61.2472 60.9123 61.0151 60.8483 60.7271 60.8483C60.2551 60.8483 59.8871 60.9963 59.6231 61.2923C59.3591 61.5803 59.2271 62.0043 59.2271 62.5643V66.2603H57.9312V59.9003H59.0951Z" fill="#F8F8F7"/>
<path d="M50.657 63.0803C50.657 62.4083 50.781 61.8243 51.029 61.3283C51.285 60.8243 51.641 60.4363 52.097 60.1643C52.553 59.8923 53.085 59.7563 53.693 59.7563C54.213 59.7563 54.685 59.8763 55.109 60.1163C55.541 60.3483 55.885 60.7123 56.141 61.2083C56.405 61.6963 56.549 62.3043 56.573 63.0323V63.4523H52.025C52.065 64.0363 52.229 64.4923 52.517 64.8203C52.805 65.1403 53.197 65.3003 53.693 65.3003C54.013 65.3003 54.301 65.2163 54.557 65.0483C54.813 64.8803 55.009 64.6443 55.145 64.3403L56.489 64.4363C56.297 65.0363 55.945 65.5163 55.433 65.8763C54.929 66.2283 54.349 66.4043 53.693 66.4043C53.085 66.4043 52.553 66.2683 52.097 65.9963C51.641 65.7243 51.285 65.3403 51.029 64.8443C50.781 64.3403 50.657 63.7523 50.657 63.0803ZM55.217 62.4803C55.137 61.9203 54.961 61.5123 54.689 61.2563C54.417 60.9923 54.085 60.8603 53.693 60.8603C53.237 60.8603 52.865 61.0043 52.577 61.2923C52.297 61.5723 52.117 61.9683 52.037 62.4803H55.217Z" fill="#F8F8F7"/>
<path d="M48.1803 58.4604V64.4244C48.1803 64.6804 48.2403 64.8764 48.3603 65.0124C48.4883 65.1404 48.6723 65.2044 48.9123 65.2044H49.8603V66.2604H48.7923C48.1683 66.2604 47.6923 66.1044 47.3643 65.7924C47.0443 65.4804 46.8843 65.0244 46.8843 64.4244V58.4604H48.1803ZM49.8723 59.9004V60.9564H45.9243V59.9004H49.8723Z" fill="#F8F8F7"/>
<path d="M40.5444 59.9003L40.6044 61.6043L40.4484 61.4843C40.5524 60.9003 40.7884 60.4683 41.1564 60.1883C41.5244 59.9003 41.9764 59.7563 42.5124 59.7563C43.2084 59.7563 43.7444 59.9803 44.1204 60.4283C44.4964 60.8683 44.6844 61.4483 44.6844 62.1683V66.2603H43.3884V62.5643C43.3884 62.1803 43.3484 61.8643 43.2684 61.6163C43.1884 61.3603 43.0564 61.1683 42.8724 61.0403C42.6964 60.9123 42.4644 60.8483 42.1764 60.8483C41.7044 60.8483 41.3364 60.9963 41.0724 61.2923C40.8084 61.5803 40.6764 62.0043 40.6764 62.5643V66.2603H39.3804V59.9003H40.5444Z" fill="#F8F8F7"/>
<path d="M35.0016 66.4043C34.3936 66.4043 33.8616 66.2683 33.4056 65.9963C32.9496 65.7243 32.5936 65.3403 32.3376 64.8443C32.0896 64.3403 31.9656 63.7523 31.9656 63.0803C31.9656 62.4083 32.0896 61.8243 32.3376 61.3283C32.5856 60.8243 32.9376 60.4363 33.3936 60.1643C33.8576 59.8923 34.3936 59.7563 35.0016 59.7563C35.6096 59.7563 36.1416 59.8923 36.5976 60.1643C37.0536 60.4363 37.4056 60.8243 37.6536 61.3283C37.9096 61.8243 38.0376 62.4083 38.0376 63.0803C38.0376 63.7523 37.9136 64.3403 37.6656 64.8443C37.4176 65.3403 37.0616 65.7243 36.5976 65.9963C36.1416 66.2683 35.6096 66.4043 35.0016 66.4043ZM35.0016 65.2883C35.5376 65.2883 35.9536 65.0963 36.2496 64.7123C36.5456 64.3203 36.6936 63.7763 36.6936 63.0803C36.6936 62.3843 36.5456 61.8443 36.2496 61.4603C35.9536 61.0683 35.5376 60.8723 35.0016 60.8723C34.4656 60.8723 34.0496 61.0683 33.7536 61.4603C33.4576 61.8443 33.3096 62.3843 33.3096 63.0803C33.3096 63.7763 33.4576 64.3203 33.7536 64.7123C34.0496 65.0963 34.4656 65.2883 35.0016 65.2883Z" fill="#F8F8F7"/>
<path d="M29.2363 59.9004L29.2843 61.6284L29.1763 61.5444C29.2563 60.9764 29.4243 60.5604 29.6803 60.2964C29.9363 60.0324 30.3043 59.9004 30.7843 59.9004H31.3843V60.9564H30.7723C30.4443 60.9564 30.1723 61.0164 29.9563 61.1364C29.7483 61.2564 29.5923 61.4364 29.4883 61.6764C29.3923 61.9084 29.3443 62.2004 29.3443 62.5524V66.2604H28.0483V59.9004H29.2363Z" fill="#F8F8F7"/>
<path d="M26.564 57.7402V58.9402H21.644L22.352 58.2322V62.1322L21.644 61.5082H26.348V62.6842H21.644L22.352 62.0602V66.2602H21.032V57.7402H26.564Z" fill="#F8F8F7"/>
<path d="M139 118.26H0V120.26H139V118.26Z" fill="#222221" mask="url(#path-42-inside-5_898_22361)"/>
<path d="M67.6048 95.7402H68.9008V104.26H67.7008L67.6648 103.36C67.4808 103.688 67.2128 103.944 66.8608 104.128C66.5088 104.312 66.1168 104.404 65.6848 104.404C65.1408 104.404 64.6648 104.268 64.2568 103.996C63.8488 103.724 63.5368 103.34 63.3208 102.844C63.1048 102.34 62.9968 101.752 62.9968 101.08C62.9968 100.408 63.1048 99.8242 63.3208 99.3282C63.5368 98.8242 63.8488 98.4362 64.2568 98.1642C64.6648 97.8922 65.1408 97.7562 65.6848 97.7562C66.1008 97.7562 66.4808 97.8442 66.8248 98.0202C67.1688 98.1962 67.4288 98.4362 67.6048 98.7402V95.7402ZM67.4968 102.244C67.6328 101.908 67.7008 101.52 67.7008 101.08C67.7008 100.624 67.6328 100.228 67.4968 99.8922C67.3608 99.5562 67.1648 99.2962 66.9088 99.1122C66.6528 98.9282 66.3568 98.8362 66.0208 98.8362C65.5008 98.8362 65.0888 99.0402 64.7848 99.4482C64.4808 99.8482 64.3288 100.392 64.3288 101.08C64.3288 101.752 64.4808 102.288 64.7848 102.688C65.0968 103.088 65.5088 103.288 66.0208 103.288C66.3568 103.288 66.6528 103.2 66.9088 103.024C67.1648 102.84 67.3608 102.58 67.4968 102.244Z" fill="#F8F8F7"/>
<path d="M57.5951 97.9003L57.6552 99.6043L57.4991 99.4843C57.6031 98.9003 57.8391 98.4683 58.2071 98.1883C58.5751 97.9003 59.0272 97.7563 59.5632 97.7563C60.2592 97.7563 60.7951 97.9803 61.1712 98.4283C61.5472 98.8683 61.7351 99.4483 61.7351 100.168V104.26H60.4392V100.564C60.4392 100.18 60.3992 99.8643 60.3192 99.6163C60.2392 99.3603 60.1072 99.1683 59.9232 99.0403C59.7472 98.9123 59.5151 98.8483 59.2271 98.8483C58.7551 98.8483 58.3871 98.9963 58.1231 99.2923C57.8591 99.5803 57.7271 100.004 57.7271 100.564V104.26H56.4312V97.9003H57.5951Z" fill="#F8F8F7"/>
<path d="M49.157 101.08C49.157 100.408 49.281 99.8243 49.529 99.3283C49.785 98.8243 50.141 98.4363 50.597 98.1643C51.053 97.8923 51.585 97.7563 52.193 97.7563C52.713 97.7563 53.185 97.8763 53.609 98.1163C54.041 98.3483 54.385 98.7123 54.641 99.2083C54.905 99.6963 55.049 100.304 55.073 101.032V101.452H50.525C50.565 102.036 50.729 102.492 51.017 102.82C51.305 103.14 51.697 103.3 52.193 103.3C52.513 103.3 52.801 103.216 53.057 103.048C53.313 102.88 53.509 102.644 53.645 102.34L54.989 102.436C54.797 103.036 54.445 103.516 53.933 103.876C53.429 104.228 52.849 104.404 52.193 104.404C51.585 104.404 51.053 104.268 50.597 103.996C50.141 103.724 49.785 103.34 49.529 102.844C49.281 102.34 49.157 101.752 49.157 101.08ZM53.717 100.48C53.637 99.9203 53.461 99.5123 53.189 99.2563C52.917 98.9923 52.585 98.8603 52.193 98.8603C51.737 98.8603 51.365 99.0043 51.077 99.2923C50.797 99.5723 50.617 99.9683 50.537 100.48H53.717Z" fill="#F8F8F7"/>
<path d="M44.1803 95.7402V101.02L46.9763 97.9002H48.6203L46.1363 100.564L48.7403 104.26H47.2283L45.2843 101.38L44.1803 102.58V104.26H42.8843V95.7402H44.1803Z" fill="#F8F8F7"/>
<path d="M40.2625 100.132C40.1985 99.7403 40.0305 99.4323 39.7585 99.2083C39.4865 98.9843 39.1665 98.8723 38.7985 98.8723C38.2625 98.8723 37.8465 99.0683 37.5505 99.4603C37.2545 99.8443 37.1065 100.384 37.1065 101.08C37.1065 101.776 37.2545 102.32 37.5505 102.712C37.8465 103.096 38.2625 103.288 38.7985 103.288C39.1825 103.288 39.5105 103.168 39.7825 102.928C40.0625 102.688 40.2345 102.352 40.2985 101.92L41.6545 101.992C41.5905 102.48 41.4225 102.908 41.1505 103.276C40.8865 103.636 40.5505 103.916 40.1425 104.116C39.7345 104.308 39.2865 104.404 38.7985 104.404C38.1905 104.404 37.6585 104.268 37.2025 103.996C36.7465 103.724 36.3905 103.34 36.1345 102.844C35.8865 102.34 35.7625 101.752 35.7625 101.08C35.7625 100.408 35.8865 99.8243 36.1345 99.3283C36.3905 98.8243 36.7465 98.4363 37.2025 98.1643C37.6585 97.8923 38.1905 97.7563 38.7985 97.7563C39.2705 97.7563 39.7105 97.8523 40.1185 98.0443C40.5265 98.2283 40.8625 98.4963 41.1265 98.8483C41.3905 99.1923 41.5505 99.5963 41.6065 100.06L40.2625 100.132Z" fill="#F8F8F7"/>
<path d="M28.8978 99.8083C29.0258 99.1683 29.3258 98.6683 29.7978 98.3083C30.2778 97.9403 30.8858 97.7563 31.6218 97.7563C32.4938 97.7563 33.1578 97.9883 33.6138 98.4523C34.0778 98.9083 34.3098 99.5763 34.3098 100.456V102.82C34.3098 102.964 34.3418 103.072 34.4058 103.144C34.4698 103.208 34.5658 103.24 34.6938 103.24H34.9578V104.26H34.5498H34.4898C34.2738 104.268 34.0658 104.248 33.8658 104.2C33.6658 104.152 33.4938 104.056 33.3498 103.912C33.2138 103.768 33.1378 103.56 33.1218 103.288C32.9698 103.608 32.7178 103.876 32.3658 104.092C32.0138 104.3 31.5858 104.404 31.0818 104.404C30.4258 104.404 29.8778 104.24 29.4378 103.912C29.0058 103.584 28.7898 103.144 28.7898 102.592C28.7898 102.184 28.8858 101.856 29.0778 101.608C29.2698 101.36 29.5338 101.168 29.8698 101.032C30.2058 100.896 30.6498 100.772 31.2018 100.66L33.0138 100.312C33.0058 99.8003 32.8858 99.4243 32.6538 99.1843C32.4298 98.9363 32.0858 98.8123 31.6218 98.8123C31.2618 98.8123 30.9618 98.9043 30.7218 99.0883C30.4818 99.2723 30.3178 99.5403 30.2298 99.8923L28.8978 99.8083ZM30.1338 102.568C30.1338 102.816 30.2378 103.02 30.4458 103.18C30.6538 103.332 30.9578 103.408 31.3578 103.408C31.6778 103.408 31.9658 103.332 32.2218 103.18C32.4778 103.02 32.6778 102.788 32.8218 102.484C32.9658 102.172 33.0378 101.796 33.0378 101.356V101.296L31.6938 101.536L31.4778 101.572C31.1498 101.628 30.8978 101.684 30.7218 101.74C30.5458 101.796 30.4018 101.892 30.2898 102.028C30.1858 102.156 30.1338 102.336 30.1338 102.568Z" fill="#F8F8F7"/>
<path d="M21.032 95.7402H24.032C25.088 95.7402 25.88 95.9362 26.408 96.3282C26.936 96.7122 27.2 97.3042 27.2 98.1042C27.2 98.4642 27.124 98.7762 26.972 99.0402C26.82 99.3042 26.596 99.5082 26.3 99.6522C26.012 99.7962 25.672 99.8722 25.28 99.8802L25.268 99.8322C25.988 99.8482 26.548 100.036 26.948 100.396C27.356 100.748 27.56 101.232 27.56 101.848C27.56 102.632 27.296 103.232 26.768 103.648C26.248 104.056 25.496 104.26 24.512 104.26H21.032V95.7402ZM24.524 103.072C25.06 103.072 25.472 102.964 25.76 102.748C26.056 102.524 26.204 102.208 26.204 101.8C26.204 101.384 26.056 101.064 25.76 100.84C25.472 100.608 25.06 100.492 24.524 100.492H22.352V103.072H24.524ZM24.08 99.3642C24.64 99.3642 25.072 99.2602 25.376 99.0522C25.688 98.8442 25.844 98.5442 25.844 98.1522C25.844 97.7362 25.696 97.4282 25.4 97.2282C25.104 97.0282 24.664 96.9282 24.08 96.9282H22.352V99.3642H24.08Z" fill="#F8F8F7"/>
<path d="M139 156.26H0V158.26H139V156.26Z" fill="#222221" mask="url(#path-51-inside-6_898_22361)"/>
<path d="M58.6296 139.408C58.6296 139.064 58.7096 138.76 58.8696 138.496C59.0216 138.224 59.2336 138.012 59.5056 137.86C59.7696 137.7 60.0736 137.62 60.4176 137.62H67.1856C67.5296 137.62 67.8336 137.7 68.0976 137.86C68.3696 138.012 68.5816 138.224 68.7336 138.496C68.8936 138.76 68.9736 139.064 68.9736 139.408V139.432C68.9736 139.776 68.8936 140.084 68.7336 140.356C68.5816 140.62 68.3696 140.832 68.0976 140.992C67.8336 141.144 67.5296 141.22 67.1856 141.22H60.4176C60.0736 141.22 59.7696 141.144 59.5056 140.992C59.2336 140.832 59.0216 140.62 58.8696 140.356C58.7096 140.084 58.6296 139.776 58.6296 139.432V139.408Z" fill="#474743"/>
<path d="M51.8914 139.408C51.8914 139.064 51.9714 138.76 52.1314 138.496C52.2834 138.224 52.4954 138.012 52.7674 137.86C53.0314 137.7 53.3354 137.62 53.6794 137.62H60.4474C60.7914 137.62 61.0954 137.7 61.3594 137.86C61.6314 138.012 61.8434 138.224 61.9954 138.496C62.1554 138.76 62.2354 139.064 62.2354 139.408V139.432C62.2354 139.776 62.1554 140.084 61.9954 140.356C61.8434 140.62 61.6314 140.832 61.3594 140.992C61.0954 141.144 60.7914 141.22 60.4474 141.22H53.6794C53.3354 141.22 53.0314 141.144 52.7674 140.992C52.4954 140.832 52.2834 140.62 52.1314 140.356C51.9714 140.084 51.8914 139.776 51.8914 139.432V139.408Z" fill="#474743"/>
<path d="M45.1531 139.408C45.1531 139.064 45.2331 138.76 45.3931 138.496C45.5451 138.224 45.7571 138.012 46.0291 137.86C46.2931 137.7 46.5971 137.62 46.9411 137.62H53.7091C54.0531 137.62 54.3571 137.7 54.6211 137.86C54.8931 138.012 55.1051 138.224 55.2571 138.496C55.4171 138.76 55.4971 139.064 55.4971 139.408V139.432C55.4971 139.776 55.4171 140.084 55.2571 140.356C55.1051 140.62 54.8931 140.832 54.6211 140.992C54.3571 141.144 54.0531 141.22 53.7091 141.22H46.9411C46.5971 141.22 46.2931 141.144 46.0291 140.992C45.7571 140.832 45.5451 140.62 45.3931 140.356C45.2331 140.084 45.1531 139.776 45.1531 139.432V139.408Z" fill="#474743"/>
<path d="M38.4148 139.408C38.4148 139.064 38.4948 138.76 38.6548 138.496C38.8068 138.224 39.0188 138.012 39.2908 137.86C39.5548 137.7 39.8588 137.62 40.2028 137.62H46.9708C47.3148 137.62 47.6188 137.7 47.8828 137.86C48.1548 138.012 48.3668 138.224 48.5188 138.496C48.6788 138.76 48.7588 139.064 48.7588 139.408V139.432C48.7588 139.776 48.6788 140.084 48.5188 140.356C48.3668 140.62 48.1548 140.832 47.8828 140.992C47.6188 141.144 47.3148 141.22 46.9708 141.22H40.2028C39.8588 141.22 39.5548 141.144 39.2908 140.992C39.0188 140.832 38.8068 140.62 38.6548 140.356C38.4948 140.084 38.4148 139.776 38.4148 139.432V139.408Z" fill="#474743"/>
<path d="M31.6765 139.408C31.6765 139.064 31.7565 138.76 31.9165 138.496C32.0685 138.224 32.2805 138.012 32.5525 137.86C32.8165 137.7 33.1205 137.62 33.4645 137.62H40.2325C40.5765 137.62 40.8805 137.7 41.1445 137.86C41.4165 138.012 41.6285 138.224 41.7805 138.496C41.9405 138.76 42.0205 139.064 42.0205 139.408V139.432C42.0205 139.776 41.9405 140.084 41.7805 140.356C41.6285 140.62 41.4165 140.832 41.1445 140.992C40.8805 141.144 40.5765 141.22 40.2325 141.22H33.4645C33.1205 141.22 32.8165 141.144 32.5525 140.992C32.2805 140.832 32.0685 140.62 31.9165 140.356C31.7565 140.084 31.6765 139.776 31.6765 139.432V139.408Z" fill="#474743"/>
<path d="M24.9382 139.408C24.9382 139.064 25.0182 138.76 25.1782 138.496C25.3302 138.224 25.5422 138.012 25.8142 137.86C26.0782 137.7 26.3822 137.62 26.7262 137.62H33.4942C33.8382 137.62 34.1422 137.7 34.4062 137.86C34.6782 138.012 34.8902 138.224 35.0422 138.496C35.2022 138.76 35.2822 139.064 35.2822 139.408V139.432C35.2822 139.776 35.2022 140.084 35.0422 140.356C34.8902 140.62 34.6782 140.832 34.4062 140.992C34.1422 141.144 33.8382 141.22 33.4942 141.22H26.7262C26.3822 141.22 26.0782 141.144 25.8142 140.992C25.5422 140.832 25.3302 140.62 25.1782 140.356C25.0182 140.084 24.9382 139.776 24.9382 139.432V139.408Z" fill="#474743"/>
<path d="M18.2 139.408C18.2 139.064 18.28 138.76 18.44 138.496C18.592 138.224 18.804 138.012 19.076 137.86C19.34 137.7 19.644 137.62 19.988 137.62H26.756C27.1 137.62 27.404 137.7 27.668 137.86C27.94 138.012 28.152 138.224 28.304 138.496C28.464 138.76 28.544 139.064 28.544 139.408V139.432C28.544 139.776 28.464 140.084 28.304 140.356C28.152 140.62 27.94 140.832 27.668 140.992C27.404 141.144 27.1 141.22 26.756 141.22H19.988C19.644 141.22 19.34 141.144 19.076 140.992C18.804 140.832 18.592 140.62 18.44 140.356C18.28 140.084 18.2 139.776 18.2 139.432V139.408Z" fill="#474743"/>
<path d="M139 194.26H0V196.26H139V194.26Z" fill="#222221" mask="url(#path-60-inside-7_898_22361)"/>
<path d="M58.6296 177.408C58.6296 177.064 58.7096 176.76 58.8696 176.496C59.0216 176.224 59.2336 176.012 59.5056 175.86C59.7696 175.7 60.0736 175.62 60.4176 175.62H67.1856C67.5296 175.62 67.8336 175.7 68.0976 175.86C68.3696 176.012 68.5816 176.224 68.7336 176.496C68.8936 176.76 68.9736 177.064 68.9736 177.408V177.432C68.9736 177.776 68.8936 178.084 68.7336 178.356C68.5816 178.62 68.3696 178.832 68.0976 178.992C67.8336 179.144 67.5296 179.22 67.1856 179.22H60.4176C60.0736 179.22 59.7696 179.144 59.5056 178.992C59.2336 178.832 59.0216 178.62 58.8696 178.356C58.7096 178.084 58.6296 177.776 58.6296 177.432V177.408Z" fill="#474743"/>
<path d="M51.8914 177.408C51.8914 177.064 51.9714 176.76 52.1314 176.496C52.2834 176.224 52.4954 176.012 52.7674 175.86C53.0314 175.7 53.3354 175.62 53.6794 175.62H60.4474C60.7914 175.62 61.0954 175.7 61.3594 175.86C61.6314 176.012 61.8434 176.224 61.9954 176.496C62.1554 176.76 62.2354 177.064 62.2354 177.408V177.432C62.2354 177.776 62.1554 178.084 61.9954 178.356C61.8434 178.62 61.6314 178.832 61.3594 178.992C61.0954 179.144 60.7914 179.22 60.4474 179.22H53.6794C53.3354 179.22 53.0314 179.144 52.7674 178.992C52.4954 178.832 52.2834 178.62 52.1314 178.356C51.9714 178.084 51.8914 177.776 51.8914 177.432V177.408Z" fill="#474743"/>
<path d="M45.1531 177.408C45.1531 177.064 45.2331 176.76 45.3931 176.496C45.5451 176.224 45.7571 176.012 46.0291 175.86C46.2931 175.7 46.5971 175.62 46.9411 175.62H53.7091C54.0531 175.62 54.3571 175.7 54.6211 175.86C54.8931 176.012 55.1051 176.224 55.2571 176.496C55.4171 176.76 55.4971 177.064 55.4971 177.408V177.432C55.4971 177.776 55.4171 178.084 55.2571 178.356C55.1051 178.62 54.8931 178.832 54.6211 178.992C54.3571 179.144 54.0531 179.22 53.7091 179.22H46.9411C46.5971 179.22 46.2931 179.144 46.0291 178.992C45.7571 178.832 45.5451 178.62 45.3931 178.356C45.2331 178.084 45.1531 177.776 45.1531 177.432V177.408Z" fill="#474743"/>
<path d="M38.4148 177.408C38.4148 177.064 38.4948 176.76 38.6548 176.496C38.8068 176.224 39.0188 176.012 39.2908 175.86C39.5548 175.7 39.8588 175.62 40.2028 175.62H46.9708C47.3148 175.62 47.6188 175.7 47.8828 175.86C48.1548 176.012 48.3668 176.224 48.5188 176.496C48.6788 176.76 48.7588 177.064 48.7588 177.408V177.432C48.7588 177.776 48.6788 178.084 48.5188 178.356C48.3668 178.62 48.1548 178.832 47.8828 178.992C47.6188 179.144 47.3148 179.22 46.9708 179.22H40.2028C39.8588 179.22 39.5548 179.144 39.2908 178.992C39.0188 178.832 38.8068 178.62 38.6548 178.356C38.4948 178.084 38.4148 177.776 38.4148 177.432V177.408Z" fill="#474743"/>
<path d="M31.6765 177.408C31.6765 177.064 31.7565 176.76 31.9165 176.496C32.0685 176.224 32.2805 176.012 32.5525 175.86C32.8165 175.7 33.1205 175.62 33.4645 175.62H40.2325C40.5765 175.62 40.8805 175.7 41.1445 175.86C41.4165 176.012 41.6285 176.224 41.7805 176.496C41.9405 176.76 42.0205 177.064 42.0205 177.408V177.432C42.0205 177.776 41.9405 178.084 41.7805 178.356C41.6285 178.62 41.4165 178.832 41.1445 178.992C40.8805 179.144 40.5765 179.22 40.2325 179.22H33.4645C33.1205 179.22 32.8165 179.144 32.5525 178.992C32.2805 178.832 32.0685 178.62 31.9165 178.356C31.7565 178.084 31.6765 177.776 31.6765 177.432V177.408Z" fill="#474743"/>
<path d="M24.9382 177.408C24.9382 177.064 25.0182 176.76 25.1782 176.496C25.3302 176.224 25.5422 176.012 25.8142 175.86C26.0782 175.7 26.3822 175.62 26.7262 175.62H33.4942C33.8382 175.62 34.1422 175.7 34.4062 175.86C34.6782 176.012 34.8902 176.224 35.0422 176.496C35.2022 176.76 35.2822 177.064 35.2822 177.408V177.432C35.2822 177.776 35.2022 178.084 35.0422 178.356C34.8902 178.62 34.6782 178.832 34.4062 178.992C34.1422 179.144 33.8382 179.22 33.4942 179.22H26.7262C26.3822 179.22 26.0782 179.144 25.8142 178.992C25.5422 178.832 25.3302 178.62 25.1782 178.356C25.0182 178.084 24.9382 177.776 24.9382 177.432V177.408Z" fill="#474743"/>
<path d="M18.2 177.408C18.2 177.064 18.28 176.76 18.44 176.496C18.592 176.224 18.804 176.012 19.076 175.86C19.34 175.7 19.644 175.62 19.988 175.62H26.756C27.1 175.62 27.404 175.7 27.668 175.86C27.94 176.012 28.152 176.224 28.304 176.496C28.464 176.76 28.544 177.064 28.544 177.408V177.432C28.544 177.776 28.464 178.084 28.304 178.356C28.152 178.62 27.94 178.832 27.668 178.992C27.404 179.144 27.1 179.22 26.756 179.22H19.988C19.644 179.22 19.34 179.144 19.076 178.992C18.804 178.832 18.592 178.62 18.44 178.356C18.28 178.084 18.2 177.776 18.2 177.432V177.408Z" fill="#474743"/>
<path d="M139 232.26H0V234.26H139V232.26Z" fill="#222221" mask="url(#path-69-inside-8_898_22361)"/>
<path d="M58.6296 215.408C58.6296 215.064 58.7096 214.76 58.8696 214.496C59.0216 214.224 59.2336 214.012 59.5056 213.86C59.7696 213.7 60.0736 213.62 60.4176 213.62H67.1856C67.5296 213.62 67.8336 213.7 68.0976 213.86C68.3696 214.012 68.5816 214.224 68.7336 214.496C68.8936 214.76 68.9736 215.064 68.9736 215.408V215.432C68.9736 215.776 68.8936 216.084 68.7336 216.356C68.5816 216.62 68.3696 216.832 68.0976 216.992C67.8336 217.144 67.5296 217.22 67.1856 217.22H60.4176C60.0736 217.22 59.7696 217.144 59.5056 216.992C59.2336 216.832 59.0216 216.62 58.8696 216.356C58.7096 216.084 58.6296 215.776 58.6296 215.432V215.408Z" fill="#474743"/>
<path d="M51.8914 215.408C51.8914 215.064 51.9714 214.76 52.1314 214.496C52.2834 214.224 52.4954 214.012 52.7674 213.86C53.0314 213.7 53.3354 213.62 53.6794 213.62H60.4474C60.7914 213.62 61.0954 213.7 61.3594 213.86C61.6314 214.012 61.8434 214.224 61.9954 214.496C62.1554 214.76 62.2354 215.064 62.2354 215.408V215.432C62.2354 215.776 62.1554 216.084 61.9954 216.356C61.8434 216.62 61.6314 216.832 61.3594 216.992C61.0954 217.144 60.7914 217.22 60.4474 217.22H53.6794C53.3354 217.22 53.0314 217.144 52.7674 216.992C52.4954 216.832 52.2834 216.62 52.1314 216.356C51.9714 216.084 51.8914 215.776 51.8914 215.432V215.408Z" fill="#474743"/>
<path d="M45.1531 215.408C45.1531 215.064 45.2331 214.76 45.3931 214.496C45.5451 214.224 45.7571 214.012 46.0291 213.86C46.2931 213.7 46.5971 213.62 46.9411 213.62H53.7091C54.0531 213.62 54.3571 213.7 54.6211 213.86C54.8931 214.012 55.1051 214.224 55.2571 214.496C55.4171 214.76 55.4971 215.064 55.4971 215.408V215.432C55.4971 215.776 55.4171 216.084 55.2571 216.356C55.1051 216.62 54.8931 216.832 54.6211 216.992C54.3571 217.144 54.0531 217.22 53.7091 217.22H46.9411C46.5971 217.22 46.2931 217.144 46.0291 216.992C45.7571 216.832 45.5451 216.62 45.3931 216.356C45.2331 216.084 45.1531 215.776 45.1531 215.432V215.408Z" fill="#474743"/>
<path d="M38.4148 215.408C38.4148 215.064 38.4948 214.76 38.6548 214.496C38.8068 214.224 39.0188 214.012 39.2908 213.86C39.5548 213.7 39.8588 213.62 40.2028 213.62H46.9708C47.3148 213.62 47.6188 213.7 47.8828 213.86C48.1548 214.012 48.3668 214.224 48.5188 214.496C48.6788 214.76 48.7588 215.064 48.7588 215.408V215.432C48.7588 215.776 48.6788 216.084 48.5188 216.356C48.3668 216.62 48.1548 216.832 47.8828 216.992C47.6188 217.144 47.3148 217.22 46.9708 217.22H40.2028C39.8588 217.22 39.5548 217.144 39.2908 216.992C39.0188 216.832 38.8068 216.62 38.6548 216.356C38.4948 216.084 38.4148 215.776 38.4148 215.432V215.408Z" fill="#474743"/>
<path d="M31.6765 215.408C31.6765 215.064 31.7565 214.76 31.9165 214.496C32.0685 214.224 32.2805 214.012 32.5525 213.86C32.8165 213.7 33.1205 213.62 33.4645 213.62H40.2325C40.5765 213.62 40.8805 213.7 41.1445 213.86C41.4165 214.012 41.6285 214.224 41.7805 214.496C41.9405 214.76 42.0205 215.064 42.0205 215.408V215.432C42.0205 215.776 41.9405 216.084 41.7805 216.356C41.6285 216.62 41.4165 216.832 41.1445 216.992C40.8805 217.144 40.5765 217.22 40.2325 217.22H33.4645C33.1205 217.22 32.8165 217.144 32.5525 216.992C32.2805 216.832 32.0685 216.62 31.9165 216.356C31.7565 216.084 31.6765 215.776 31.6765 215.432V215.408Z" fill="#474743"/>
<path d="M24.9382 215.408C24.9382 215.064 25.0182 214.76 25.1782 214.496C25.3302 214.224 25.5422 214.012 25.8142 213.86C26.0782 213.7 26.3822 213.62 26.7262 213.62H33.4942C33.8382 213.62 34.1422 213.7 34.4062 213.86C34.6782 214.012 34.8902 214.224 35.0422 214.496C35.2022 214.76 35.2822 215.064 35.2822 215.408V215.432C35.2822 215.776 35.2022 216.084 35.0422 216.356C34.8902 216.62 34.6782 216.832 34.4062 216.992C34.1422 217.144 33.8382 217.22 33.4942 217.22H26.7262C26.3822 217.22 26.0782 217.144 25.8142 216.992C25.5422 216.832 25.3302 216.62 25.1782 216.356C25.0182 216.084 24.9382 215.776 24.9382 215.432V215.408Z" fill="#474743"/>
<path d="M18.2 215.408C18.2 215.064 18.28 214.76 18.44 214.496C18.592 214.224 18.804 214.012 19.076 213.86C19.34 213.7 19.644 213.62 19.988 213.62H26.756C27.1 213.62 27.404 213.7 27.668 213.86C27.94 214.012 28.152 214.224 28.304 214.496C28.464 214.76 28.544 215.064 28.544 215.408V215.432C28.544 215.776 28.464 216.084 28.304 216.356C28.152 216.62 27.94 216.832 27.668 216.992C27.404 217.144 27.1 217.22 26.756 217.22H19.988C19.644 217.22 19.34 217.144 19.076 216.992C18.804 216.832 18.592 216.62 18.44 216.356C18.28 216.084 18.2 215.776 18.2 215.432V215.408Z" fill="#474743"/>
<path d="M93.2351 253.408C93.2351 253.064 93.3151 252.76 93.4751 252.496C93.6271 252.224 93.8391 252.012 94.1111 251.86C94.3751 251.7 94.6791 251.62 95.0231 251.62H101.791C102.135 251.62 102.439 251.7 102.703 251.86C102.975 252.012 103.187 252.224 103.339 252.496C103.499 252.76 103.579 253.064 103.579 253.408V253.432C103.579 253.776 103.499 254.084 103.339 254.356C103.187 254.62 102.975 254.832 102.703 254.992C102.439 255.144 102.135 255.22 101.791 255.22H95.0231C94.6791 255.22 94.3751 255.144 94.1111 254.992C93.8391 254.832 93.6271 254.62 93.4751 254.356C93.3151 254.084 93.2351 253.776 93.2351 253.432V253.408Z" fill="#474743"/>
<path d="M86.4968 253.408C86.4968 253.064 86.5768 252.76 86.7368 252.496C86.8888 252.224 87.1008 252.012 87.3728 251.86C87.6368 251.7 87.9408 251.62 88.2848 251.62H95.0528C95.3968 251.62 95.7008 251.7 95.9648 251.86C96.2368 252.012 96.4488 252.224 96.6008 252.496C96.7608 252.76 96.8408 253.064 96.8408 253.408V253.432C96.8408 253.776 96.7608 254.084 96.6008 254.356C96.4488 254.62 96.2368 254.832 95.9648 254.992C95.7008 255.144 95.3968 255.22 95.0528 255.22H88.2848C87.9408 255.22 87.6368 255.144 87.3728 254.992C87.1008 254.832 86.8888 254.62 86.7368 254.356C86.5768 254.084 86.4968 253.776 86.4968 253.432V253.408Z" fill="#474743"/>
<path d="M79.7585 253.408C79.7585 253.064 79.8385 252.76 79.9985 252.496C80.1505 252.224 80.3625 252.012 80.6345 251.86C80.8985 251.7 81.2025 251.62 81.5465 251.62H88.3145C88.6585 251.62 88.9625 251.7 89.2265 251.86C89.4985 252.012 89.7105 252.224 89.8625 252.496C90.0225 252.76 90.1025 253.064 90.1025 253.408V253.432C90.1025 253.776 90.0225 254.084 89.8625 254.356C89.7105 254.62 89.4985 254.832 89.2265 254.992C88.9625 255.144 88.6585 255.22 88.3145 255.22H81.5465C81.2025 255.22 80.8985 255.144 80.6345 254.992C80.3625 254.832 80.1505 254.62 79.9985 254.356C79.8385 254.084 79.7585 253.776 79.7585 253.432V253.408Z" fill="#474743"/>
<path d="M73.0203 253.408C73.0203 253.064 73.1003 252.76 73.2603 252.496C73.4123 252.224 73.6243 252.012 73.8963 251.86C74.1603 251.7 74.4643 251.62 74.8083 251.62H81.5763C81.9203 251.62 82.2243 251.7 82.4883 251.86C82.7603 252.012 82.9723 252.224 83.1243 252.496C83.2843 252.76 83.3643 253.064 83.3643 253.408V253.432C83.3643 253.776 83.2843 254.084 83.1243 254.356C82.9723 254.62 82.7603 254.832 82.4883 254.992C82.2243 255.144 81.9203 255.22 81.5763 255.22H74.8083C74.4643 255.22 74.1603 255.144 73.8963 254.992C73.6243 254.832 73.4123 254.62 73.2603 254.356C73.1003 254.084 73.0203 253.776 73.0203 253.432V253.408Z" fill="#474743"/>
<path d="M66.282 253.408C66.282 253.064 66.362 252.76 66.522 252.496C66.674 252.224 66.886 252.012 67.158 251.86C67.422 251.7 67.726 251.62 68.07 251.62H74.838C75.182 251.62 75.486 251.7 75.75 251.86C76.022 252.012 76.234 252.224 76.386 252.496C76.546 252.76 76.626 253.064 76.626 253.408V253.432C76.626 253.776 76.546 254.084 76.386 254.356C76.234 254.62 76.022 254.832 75.75 254.992C75.486 255.144 75.182 255.22 74.838 255.22H68.07C67.726 255.22 67.422 255.144 67.158 254.992C66.886 254.832 66.674 254.62 66.522 254.356C66.362 254.084 66.282 253.776 66.282 253.432V253.408Z" fill="#474743"/>
<path d="M45.1531 253.408C45.1531 253.064 45.2331 252.76 45.3931 252.496C45.5451 252.224 45.7571 252.012 46.0291 251.86C46.2931 251.7 46.5971 251.62 46.9411 251.62H53.7091C54.0531 251.62 54.3571 251.7 54.6211 251.86C54.8931 252.012 55.1051 252.224 55.2571 252.496C55.4171 252.76 55.4971 253.064 55.4971 253.408V253.432C55.4971 253.776 55.4171 254.084 55.2571 254.356C55.1051 254.62 54.8931 254.832 54.6211 254.992C54.3571 255.144 54.0531 255.22 53.7091 255.22H46.9411C46.5971 255.22 46.2931 255.144 46.0291 254.992C45.7571 254.832 45.5451 254.62 45.3931 254.356C45.2331 254.084 45.1531 253.776 45.1531 253.432V253.408Z" fill="#474743"/>
<path d="M38.4148 253.408C38.4148 253.064 38.4948 252.76 38.6548 252.496C38.8068 252.224 39.0188 252.012 39.2908 251.86C39.5548 251.7 39.8588 251.62 40.2028 251.62H46.9708C47.3148 251.62 47.6188 251.7 47.8828 251.86C48.1548 252.012 48.3668 252.224 48.5188 252.496C48.6788 252.76 48.7588 253.064 48.7588 253.408V253.432C48.7588 253.776 48.6788 254.084 48.5188 254.356C48.3668 254.62 48.1548 254.832 47.8828 254.992C47.6188 255.144 47.3148 255.22 46.9708 255.22H40.2028C39.8588 255.22 39.5548 255.144 39.2908 254.992C39.0188 254.832 38.8068 254.62 38.6548 254.356C38.4948 254.084 38.4148 253.776 38.4148 253.432V253.408Z" fill="#474743"/>
<path d="M31.6765 253.408C31.6765 253.064 31.7565 252.76 31.9165 252.496C32.0685 252.224 32.2805 252.012 32.5525 251.86C32.8165 251.7 33.1205 251.62 33.4645 251.62H40.2325C40.5765 251.62 40.8805 251.7 41.1445 251.86C41.4165 252.012 41.6285 252.224 41.7805 252.496C41.9405 252.76 42.0205 253.064 42.0205 253.408V253.432C42.0205 253.776 41.9405 254.084 41.7805 254.356C41.6285 254.62 41.4165 254.832 41.1445 254.992C40.8805 255.144 40.5765 255.22 40.2325 255.22H33.4645C33.1205 255.22 32.8165 255.144 32.5525 254.992C32.2805 254.832 32.0685 254.62 31.9165 254.356C31.7565 254.084 31.6765 253.776 31.6765 253.432V253.408Z" fill="#474743"/>
<path d="M24.9382 253.408C24.9382 253.064 25.0182 252.76 25.1782 252.496C25.3302 252.224 25.5422 252.012 25.8142 251.86C26.0782 251.7 26.3822 251.62 26.7262 251.62H33.4942C33.8382 251.62 34.1422 251.7 34.4062 251.86C34.6782 252.012 34.8902 252.224 35.0422 252.496C35.2022 252.76 35.2822 253.064 35.2822 253.408V253.432C35.2822 253.776 35.2022 254.084 35.0422 254.356C34.8902 254.62 34.6782 254.832 34.4062 254.992C34.1422 255.144 33.8382 255.22 33.4942 255.22H26.7262C26.3822 255.22 26.0782 255.144 25.8142 254.992C25.5422 254.832 25.3302 254.62 25.1782 254.356C25.0182 254.084 24.9382 253.776 24.9382 253.432V253.408Z" fill="#474743"/>
<path d="M18.2 253.408C18.2 253.064 18.28 252.76 18.44 252.496C18.592 252.224 18.804 252.012 19.076 251.86C19.34 251.7 19.644 251.62 19.988 251.62H26.756C27.1 251.62 27.404 251.7 27.668 251.86C27.94 252.012 28.152 252.224 28.304 252.496C28.464 252.76 28.544 253.064 28.544 253.408V253.432C28.544 253.776 28.464 254.084 28.304 254.356C28.152 254.62 27.94 254.832 27.668 254.992C27.404 255.144 27.1 255.22 26.756 255.22H19.988C19.644 255.22 19.34 255.144 19.076 254.992C18.804 254.832 18.592 254.62 18.44 254.356C18.28 254.084 18.2 253.776 18.2 253.432V253.408Z" fill="#474743"/>
</g>
<path d="M138 0.260254V271.26H140V0.260254H138Z" fill="#222221" mask="url(#path-24-inside-2_898_22361)"/>
<g clip-path="url(#clip3_898_22361)">
<rect width="141" height="20" transform="translate(195 52.2603)" fill="#DBFE01"/>
<rect width="57" height="20" transform="translate(336 52.2603)" fill="#2C3300"/>
</g>
<rect x="195.25" y="52.5103" width="169.5" height="19.5" rx="5.75" stroke="#586600" stroke-width="0.5"/>
<g clip-path="url(#clip4_898_22361)">
<rect width="102" height="20" transform="translate(235 90.2603)" fill="#DBFE01"/>
<rect width="21" height="20" transform="translate(337 90.2603)" fill="#2C3300"/>
</g>
<rect x="235.25" y="90.5103" width="122.5" height="19.5" rx="5.75" stroke="#586600" stroke-width="0.5"/>
<g clip-path="url(#clip5_898_22361)">
<rect width="102" height="20" transform="translate(205 128.26)" fill="#222221"/>
<rect width="12" height="20" transform="translate(307 128.26)" fill="#191918"/>
</g>
<rect x="205.25" y="128.51" width="113.5" height="19.5" rx="5.75" stroke="#222221" stroke-width="0.5"/>
<g clip-path="url(#clip6_898_22361)">
<rect width="150" height="20" transform="translate(153 204.26)" fill="#222221"/>
</g>
<rect x="153.25" y="204.51" width="163.5" height="19.5" rx="5.75" stroke="#222221" stroke-width="0.5"/>
<g clip-path="url(#clip7_898_22361)">
<rect width="102" height="20" transform="translate(234.996 166.26)" fill="#222221"/>
<rect width="12" height="20" transform="translate(336.996 166.26)" fill="#191918"/>
</g>
<rect x="235.246" y="166.51" width="113.5" height="19.5" rx="5.75" stroke="#222221" stroke-width="0.5"/>
<rect x="344" y="40.2603" width="1" height="230" rx="0.5" fill="url(#paint0_linear_898_22361)"/>
<path d="M426.012 59.1606V63.7906L428.522 60.9606H429.692L427.622 63.2106L429.792 66.2606H428.732L427.032 63.8006L426.012 64.9106V66.2606H425.152V59.1606H426.012Z" fill="#DBFE01"/>
<path d="M423.083 62.7403C423.03 62.407 422.88 62.1437 422.633 61.9503C422.386 61.757 422.1 61.6603 421.773 61.6603C421.286 61.6603 420.91 61.8337 420.643 62.1803C420.376 62.5203 420.243 62.997 420.243 63.6103C420.243 64.2237 420.376 64.7037 420.643 65.0503C420.91 65.3903 421.286 65.5603 421.773 65.5603C422.113 65.5603 422.406 65.457 422.653 65.2503C422.906 65.037 423.063 64.747 423.123 64.3803L424.033 64.4403C423.98 64.8337 423.843 65.177 423.623 65.4703C423.41 65.7637 423.14 65.9903 422.813 66.1503C422.493 66.3037 422.146 66.3803 421.773 66.3803C421.286 66.3803 420.86 66.267 420.493 66.0403C420.126 65.8137 419.843 65.4937 419.643 65.0803C419.443 64.6603 419.343 64.1703 419.343 63.6103C419.343 63.0503 419.443 62.5637 419.643 62.1503C419.843 61.7303 420.126 61.407 420.493 61.1803C420.86 60.9537 421.286 60.8403 421.773 60.8403C422.133 60.8403 422.473 60.917 422.793 61.0703C423.12 61.217 423.386 61.4303 423.593 61.7103C423.806 61.9903 423.936 62.3137 423.983 62.6803L423.083 62.7403Z" fill="#DBFE01"/>
<path d="M413.769 62.5203C413.876 62.007 414.122 61.6003 414.509 61.3003C414.896 60.9937 415.372 60.8403 415.939 60.8403C416.626 60.8403 417.152 61.0337 417.519 61.4203C417.892 61.8003 418.079 62.347 418.079 63.0603V65.1803C418.079 65.287 418.106 65.367 418.159 65.4203C418.212 65.4737 418.292 65.5003 418.399 65.5003H418.619V66.2603H418.249H418.199C418.012 66.2537 417.846 66.227 417.699 66.1803C417.559 66.127 417.446 66.0437 417.359 65.9303C417.272 65.8103 417.229 65.6503 417.229 65.4503C417.109 65.7103 416.902 65.9303 416.609 66.1103C416.322 66.2903 415.982 66.3803 415.589 66.3803C415.042 66.3803 414.586 66.2437 414.219 65.9703C413.859 65.697 413.679 65.3303 413.679 64.8703C413.679 64.5237 413.759 64.247 413.919 64.0403C414.079 63.8337 414.299 63.677 414.579 63.5703C414.859 63.457 415.226 63.357 415.679 63.2703L417.219 62.9703C417.212 62.5303 417.102 62.2037 416.889 61.9903C416.682 61.7703 416.366 61.6603 415.939 61.6603C415.612 61.6603 415.339 61.7403 415.119 61.9003C414.906 62.0603 414.759 62.2903 414.679 62.5903L413.769 62.5203ZM414.579 64.8703C414.579 65.0903 414.672 65.2703 414.859 65.4103C415.052 65.5503 415.332 65.6203 415.699 65.6203C415.992 65.6203 416.256 65.5537 416.489 65.4203C416.722 65.2803 416.906 65.0737 417.039 64.8003C417.172 64.5203 417.239 64.1803 417.239 63.7803V63.7303L415.999 63.9503L415.799 63.9803C415.506 64.0337 415.279 64.0837 415.119 64.1303C414.959 64.177 414.829 64.2603 414.729 64.3803C414.629 64.4937 414.579 64.657 414.579 64.8703Z" fill="#DBFE01"/>
<path d="M411.136 60.9604L411.176 62.3404L411.096 62.2604C411.156 61.8071 411.29 61.4771 411.496 61.2704C411.71 61.0638 412.016 60.9604 412.416 60.9604H412.936V61.7204H412.416C412.15 61.7204 411.926 61.7738 411.746 61.8804C411.573 61.9804 411.443 62.1338 411.356 62.3404C411.276 62.5404 411.236 62.7938 411.236 63.1004V66.2604H410.376V60.9604H411.136Z" fill="#DBFE01"/>
<path d="M409.423 60.0206H407.223V66.2606H406.343V60.0206H404.143V59.1606H409.423V60.0206Z" fill="#DBFE01"/>
<path d="M397.152 60.9603L397.192 62.3103L397.082 62.1903C397.176 61.7437 397.376 61.407 397.682 61.1803C397.996 60.9537 398.369 60.8403 398.802 60.8403C399.382 60.8403 399.826 61.027 400.132 61.4003C400.439 61.7737 400.592 62.257 400.592 62.8503V66.2603H399.732V63.0903C399.732 62.7637 399.692 62.4903 399.612 62.2703C399.539 62.0503 399.419 61.8837 399.252 61.7703C399.092 61.657 398.882 61.6003 398.622 61.6003C398.196 61.6003 397.856 61.7303 397.602 61.9903C397.356 62.2437 397.232 62.6103 397.232 63.0903V66.2603H396.372V60.9603H397.152Z" fill="#DBFE01"/>
<path d="M392.027 66.4205C391.354 66.4205 390.774 66.2738 390.287 65.9805C389.8 65.6805 389.427 65.2538 389.167 64.7005C388.907 64.1405 388.777 63.4805 388.777 62.7205C388.777 61.9538 388.907 61.2938 389.167 60.7405C389.427 60.1805 389.8 59.7505 390.287 59.4505C390.774 59.1505 391.354 59.0005 392.027 59.0005C392.7 59.0005 393.28 59.1505 393.767 59.4505C394.254 59.7505 394.627 60.1805 394.887 60.7405C395.147 61.2938 395.277 61.9538 395.277 62.7205C395.277 63.4805 395.147 64.1405 394.887 64.7005C394.627 65.2538 394.254 65.6805 393.767 65.9805C393.28 66.2738 392.7 66.4205 392.027 66.4205ZM392.027 65.5605C392.507 65.5605 392.92 65.4472 393.267 65.2205C393.62 64.9938 393.89 64.6672 394.077 64.2405C394.264 63.8138 394.357 63.3072 394.357 62.7205C394.357 62.1272 394.264 61.6172 394.077 61.1905C393.89 60.7638 393.62 60.4372 393.267 60.2105C392.92 59.9772 392.507 59.8605 392.027 59.8605C391.547 59.8605 391.13 59.9772 390.777 60.2105C390.43 60.4372 390.164 60.7638 389.977 61.1905C389.79 61.6172 389.697 62.1272 389.697 62.7205C389.697 63.3072 389.79 63.8138 389.977 64.2405C390.164 64.6672 390.43 64.9938 390.777 65.2205C391.13 65.4472 391.547 65.5605 392.027 65.5605Z" fill="#DBFE01"/>
<path d="M377.086 66.7005C377.086 66.6105 377.076 66.5705 377.036 66.5705L376.806 66.6805C376.806 66.6305 376.776 66.6005 376.726 66.5805L376.646 66.5705C376.576 66.5705 376.546 66.5805 376.446 66.6405C376.416 66.5805 376.376 66.5105 376.346 66.4505C376.086 65.9505 375.816 65.2005 375.696 64.8705C375.636 64.7005 375.576 64.3505 375.506 63.8205C375.586 63.8705 375.646 63.8905 375.676 63.8905C375.716 63.8905 375.766 63.8205 375.806 63.6805C375.826 63.7105 375.866 63.7205 375.916 63.7205C375.946 63.7205 375.986 63.7105 376.006 63.6805L376.166 63.4405L376.346 63.5005H376.356C376.376 63.5005 376.406 63.4705 376.456 63.4405C376.506 63.4105 376.546 63.3905 376.576 63.3905L376.606 63.4005C376.766 63.4805 376.876 63.6205 376.926 63.8405C377.046 64.3505 377.156 64.6005 377.286 64.6005C377.396 64.6005 377.546 64.4705 377.706 64.2205C377.866 63.9705 378.026 63.6305 378.206 63.2205C378.216 63.3005 378.226 63.3405 378.246 63.3405C378.306 63.3405 378.456 62.9905 378.826 62.4005C379.376 61.5105 380.736 59.8005 381.086 59.5605C381.346 59.3805 381.546 59.2105 381.686 59.0605C381.666 59.1605 381.646 59.2305 381.646 59.2605C381.646 59.2905 381.666 59.3005 381.686 59.3005L381.966 59.1605V59.2005C381.966 59.2505 381.976 59.2805 382.006 59.2805C382.046 59.2805 382.206 59.1205 382.226 59.0605L382.206 59.2005L382.546 59.0005L382.466 59.1805C382.566 59.1105 382.646 59.0705 382.696 59.0705C382.746 59.0705 382.776 59.1505 382.776 59.2005C382.776 59.2805 382.706 59.3905 382.596 59.5305C382.476 59.6905 382.176 60.0005 381.276 61.0305C380.886 61.4705 379.156 63.8205 378.826 64.3805L378.206 65.4305C377.936 65.8805 377.766 66.1705 377.676 66.2805C377.586 66.3905 377.476 66.5005 377.346 66.6005L377.256 66.5505L377.176 66.6005L377.086 66.7005Z" fill="#DBFE01"/>
<path d="M370.086 104.7C370.086 104.61 370.076 104.57 370.036 104.57L369.806 104.68C369.806 104.63 369.776 104.6 369.726 104.58L369.646 104.57C369.576 104.57 369.546 104.58 369.446 104.64C369.416 104.58 369.376 104.51 369.346 104.45C369.086 103.95 368.816 103.2 368.696 102.87C368.636 102.7 368.576 102.35 368.506 101.82C368.586 101.87 368.646 101.89 368.676 101.89C368.716 101.89 368.766 101.82 368.806 101.68C368.826 101.71 368.866 101.72 368.916 101.72C368.946 101.72 368.986 101.71 369.006 101.68L369.166 101.44L369.346 101.5H369.356C369.376 101.5 369.406 101.47 369.456 101.44C369.506 101.41 369.546 101.39 369.576 101.39L369.606 101.4C369.766 101.48 369.876 101.62 369.926 101.84C370.046 102.35 370.156 102.6 370.286 102.6C370.396 102.6 370.546 102.47 370.706 102.22C370.866 101.97 371.026 101.63 371.206 101.22C371.216 101.3 371.226 101.34 371.246 101.34C371.306 101.34 371.456 100.99 371.826 100.4C372.376 99.5105 373.736 97.8005 374.086 97.5605C374.346 97.3805 374.546 97.2105 374.686 97.0605C374.666 97.1605 374.646 97.2305 374.646 97.2605C374.646 97.2905 374.666 97.3005 374.686 97.3005L374.966 97.1605V97.2005C374.966 97.2505 374.976 97.2805 375.006 97.2805C375.046 97.2805 375.206 97.1205 375.226 97.0605L375.206 97.2005L375.546 97.0005L375.466 97.1805C375.566 97.1105 375.646 97.0705 375.696 97.0705C375.746 97.0705 375.776 97.1505 375.776 97.2005C375.776 97.2805 375.706 97.3905 375.596 97.5305C375.476 97.6905 375.176 98.0005 374.276 99.0305C373.886 99.4705 372.156 101.82 371.826 102.38L371.206 103.43C370.936 103.88 370.766 104.17 370.676 104.28C370.586 104.39 370.476 104.5 370.346 104.6L370.256 104.55L370.176 104.6L370.086 104.7Z" fill="#DBFE01"/>
<rect x="214.5" y="235.5" width="226" height="28" rx="5.5" fill="#141413"/>
<rect x="214.5" y="235.5" width="226" height="28" rx="5.5" stroke="#222221"/>
<g filter="url(#filter0_d_898_22361)">
<path fill-rule="evenodd" clip-rule="evenodd" d="M225.153 246.744C224.531 246.214 224.494 245.266 225.071 244.689L225.952 243.809C226.521 243.24 227.451 243.266 227.987 243.867L228.761 244.735C229.954 246.074 232.046 246.074 233.239 244.735L234.013 243.867C234.549 243.266 235.479 243.24 236.048 243.809L236.929 244.689C237.506 245.266 237.469 246.214 236.847 246.744L236.165 247.326C234.668 248.604 234.668 250.917 236.165 252.194L236.847 252.777C237.469 253.307 237.506 254.254 236.929 254.832L236.071 255.689C235.494 256.266 234.547 256.229 234.016 255.608L233.282 254.747C232.084 253.344 229.916 253.344 228.718 254.747L227.984 255.608C227.453 256.229 226.506 256.266 225.929 255.689L225.071 254.832C224.494 254.254 224.531 253.307 225.153 252.777L225.924 252.118C227.374 250.881 227.374 248.64 225.924 247.402L225.153 246.744Z" fill="#141413"/>
<path d="M224.824 244.441C224.102 245.163 224.149 246.347 224.925 247.01L225.697 247.668C226.983 248.766 226.983 250.754 225.697 251.852L224.925 252.51C224.149 253.173 224.102 254.357 224.824 255.079L225.681 255.936C226.403 256.658 227.587 256.611 228.25 255.835L228.984 254.974C230.042 253.735 231.958 253.735 233.016 254.974L233.75 255.835C234.413 256.611 235.597 256.658 236.319 255.936L237.176 255.079C237.898 254.357 237.851 253.173 237.075 252.51L236.392 251.928C235.059 250.79 235.059 248.73 236.392 247.592L237.075 247.01C237.851 246.347 237.898 245.163 237.176 244.441L236.296 243.561C235.585 242.85 234.421 242.883 233.752 243.634L232.978 244.502C231.924 245.685 230.076 245.685 229.022 244.502L228.248 243.634C227.579 242.883 226.415 242.85 225.704 243.561L224.824 244.441Z" stroke="url(#paint1_linear_898_22361)" stroke-width="0.7"/>
</g>
<g filter="url(#filter1_i_898_22361)">
<path fill-rule="evenodd" clip-rule="evenodd" d="M225.153 246.744C224.531 246.214 224.494 245.266 225.071 244.689L225.952 243.809C226.521 243.24 227.451 243.266 227.987 243.867L228.761 244.735C229.954 246.074 232.046 246.074 233.239 244.735L234.013 243.867C234.549 243.266 235.479 243.24 236.048 243.809L236.929 244.689C237.506 245.266 237.469 246.214 236.847 246.744L236.165 247.326C234.668 248.604 234.668 250.917 236.165 252.194L236.847 252.777C237.469 253.307 237.506 254.254 236.929 254.832L236.071 255.689C235.494 256.266 234.547 256.229 234.016 255.608L233.282 254.747C232.084 253.344 229.916 253.344 228.718 254.747L227.984 255.608C227.453 256.229 226.506 256.266 225.929 255.689L225.071 254.832C224.494 254.254 224.531 253.307 225.153 252.777L225.924 252.118C227.374 250.881 227.374 248.64 225.924 247.402L225.153 246.744Z" fill="#141413"/>
</g>
<path d="M224.7 244.318C223.906 245.112 223.958 246.414 224.812 247.143L225.583 247.802C226.788 248.83 226.788 250.691 225.583 251.719L224.812 252.377C223.958 253.106 223.906 254.409 224.7 255.203L225.557 256.06C226.351 256.854 227.654 256.803 228.383 255.949L229.117 255.088C230.105 253.93 231.895 253.93 232.883 255.088L233.617 255.949C234.346 256.803 235.649 256.854 236.443 256.06L237.3 255.203C238.094 254.409 238.042 253.106 237.188 252.377L236.506 251.795C235.254 250.727 235.254 248.793 236.506 247.725L237.188 247.143C238.042 246.414 238.094 245.112 237.3 244.318L236.42 243.437C235.637 242.655 234.358 242.692 233.622 243.518L232.848 244.386C231.863 245.49 230.137 245.49 229.152 244.386L228.379 243.518C227.642 242.692 226.363 242.655 225.58 243.437L224.7 244.318Z" stroke="url(#paint2_linear_898_22361)" stroke-width="1.05"/>
<path d="M280.39 250.922C280.39 251.426 280.322 251.863 280.171 252.3H274.039C274.207 253.157 274.829 253.762 275.77 253.762C276.475 253.762 277.03 253.409 277.231 253.157L279.919 253.274C279.331 254.551 277.769 255.996 275.635 255.996C273.334 255.996 271.519 254.249 271.519 251.863C271.519 249.394 273.602 246.958 276.425 246.958C278.609 246.958 280.39 248.604 280.39 250.922ZM276.206 249.158C275.282 249.158 274.543 249.797 274.207 250.654H277.937C277.836 249.898 277.298 249.158 276.206 249.158Z" fill="#F8F8F7"/>
<path d="M266.707 255.996C264.624 255.996 263.045 255.038 263.011 253.073L265.548 252.955C265.548 253.493 265.884 253.946 266.657 253.946C267.178 253.946 267.531 253.661 267.531 253.274C267.531 252.132 263.784 252.098 263.784 249.679C263.784 248.05 265.145 246.958 267.178 246.958C269.093 246.958 270.655 247.915 270.689 249.797L268.135 249.898C268.119 249.293 267.766 249.007 267.178 249.007C266.808 249.007 266.422 249.192 266.422 249.595C266.422 250.704 270.219 250.62 270.219 253.073C270.219 254.87 268.774 255.996 266.707 255.996Z" fill="#F8F8F7"/>
<path d="M256.649 255.996C254.364 255.996 253.222 254.248 253.625 251.997L254.465 247.192H257.12L256.296 251.829C256.162 252.669 256.632 253.543 257.657 253.543C258.447 253.543 259.102 252.921 259.236 252.064L260.076 247.192H262.731L261.236 255.76H259.287L259.035 254.971H258.951C258.497 255.525 257.691 255.996 256.649 255.996Z" fill="#F8F8F7"/>
<path d="M254.234 244L253.781 246.672H248.388L247.968 249.108H252.571L252.118 251.661H247.514L246.792 255.76H243.936L246.002 244H254.234Z" fill="#F8F8F7"/>
<path d="M428.533 252.93L430.283 246.84H431.571L429.289 254.26H427.777L426.139 248.66L424.501 254.26H422.989L420.707 246.84H421.995L423.745 252.93L425.495 246.84H426.783L428.533 252.93Z" fill="#DBFE01"/>
<path d="M416.693 254.428C416.012 254.428 415.414 254.27 414.901 253.952C414.388 253.635 413.991 253.187 413.711 252.608C413.431 252.02 413.291 251.334 413.291 250.55C413.291 249.766 413.431 249.085 413.711 248.506C413.991 247.918 414.388 247.466 414.901 247.148C415.414 246.831 416.012 246.672 416.693 246.672C417.374 246.672 417.972 246.831 418.485 247.148C418.998 247.466 419.395 247.918 419.675 248.506C419.955 249.085 420.095 249.766 420.095 250.55C420.095 251.334 419.955 252.02 419.675 252.608C419.395 253.187 418.998 253.635 418.485 253.952C417.972 254.27 417.374 254.428 416.693 254.428ZM416.693 253.28C417.374 253.28 417.902 253.042 418.275 252.566C418.648 252.081 418.835 251.409 418.835 250.55C418.835 249.692 418.648 249.024 418.275 248.548C417.902 248.063 417.374 247.82 416.693 247.82C416.012 247.82 415.484 248.063 415.111 248.548C414.738 249.024 414.551 249.692 414.551 250.55C414.551 251.409 414.738 252.081 415.111 252.566C415.484 253.042 416.012 253.28 416.693 253.28Z" fill="#DBFE01"/>
<path d="M405.184 246.378C405.184 245.734 405.352 245.23 405.688 244.866C406.024 244.502 406.528 244.32 407.2 244.32H408.348V245.384H407.2C406.957 245.384 406.761 245.473 406.612 245.65C406.463 245.828 406.388 246.07 406.388 246.378V254.26H405.184V246.378ZM404.19 246.84H408.25V247.904H404.19V246.84ZM410.98 244.32V252.748C410.98 252.898 411.017 253.01 411.092 253.084C411.167 253.159 411.279 253.196 411.428 253.196H412.072V254.26H411.232C410.803 254.26 410.453 254.125 410.182 253.854C409.911 253.584 409.776 253.234 409.776 252.804V244.32H410.98Z" fill="#DBFE01"/>
<path d="M397.402 244.32V250.802L400.916 246.84H402.554L399.656 249.99L402.694 254.26H401.21L398.83 250.816L397.402 252.37V254.26H396.198V244.32H397.402Z" fill="#DBFE01"/>
<path d="M392.313 246.84L392.369 248.772L392.257 248.66C392.341 248.026 392.528 247.564 392.817 247.274C393.116 246.985 393.545 246.84 394.105 246.84H394.833V247.904H394.105C393.732 247.904 393.419 247.979 393.167 248.128C392.925 248.268 392.743 248.483 392.621 248.772C392.509 249.052 392.453 249.407 392.453 249.836V254.26H391.249V246.84H392.313Z" fill="#DBFE01"/>
<path d="M386.136 254.428C385.455 254.428 384.858 254.27 384.344 253.952C383.831 253.635 383.434 253.187 383.154 252.608C382.874 252.02 382.734 251.334 382.734 250.55C382.734 249.766 382.874 249.085 383.154 248.506C383.434 247.918 383.831 247.466 384.344 247.148C384.858 246.831 385.455 246.672 386.136 246.672C386.818 246.672 387.415 246.831 387.928 247.148C388.442 247.466 388.838 247.918 389.118 248.506C389.398 249.085 389.538 249.766 389.538 250.55C389.538 251.334 389.398 252.02 389.118 252.608C388.838 253.187 388.442 253.635 387.928 253.952C387.415 254.27 386.818 254.428 386.136 254.428ZM386.136 253.28C386.818 253.28 387.345 253.042 387.718 252.566C388.092 252.081 388.278 251.409 388.278 250.55C388.278 249.692 388.092 249.024 387.718 248.548C387.345 248.063 386.818 247.82 386.136 247.82C385.455 247.82 384.928 248.063 384.554 248.548C384.181 249.024 383.994 249.692 383.994 250.55C383.994 251.409 384.181 252.081 384.554 252.566C384.928 253.042 385.455 253.28 386.136 253.28Z" fill="#DBFE01"/>
<path d="M371.642 244.32L373.658 252.566L375.688 244.32H377.074L379.118 252.566L381.12 244.32H382.478L379.874 254.26H378.334L376.388 246.826L374.442 254.26H372.902L370.298 244.32H371.642Z" fill="#DBFE01"/>
<path d="M364.185 244.32H365.389V254.26H364.297L364.255 253.224C364.05 253.598 363.737 253.892 363.317 254.106C362.897 254.321 362.431 254.428 361.917 254.428C361.283 254.428 360.727 254.27 360.251 253.952C359.775 253.635 359.411 253.187 359.159 252.608C358.907 252.02 358.781 251.334 358.781 250.55C358.781 249.766 358.907 249.085 359.159 248.506C359.411 247.918 359.775 247.466 360.251 247.148C360.727 246.831 361.283 246.672 361.917 246.672C362.412 246.672 362.86 246.775 363.261 246.98C363.672 247.176 363.98 247.447 364.185 247.792V244.32ZM364.031 252.006C364.209 251.586 364.297 251.101 364.297 250.55C364.297 249.99 364.209 249.5 364.031 249.08C363.863 248.66 363.616 248.338 363.289 248.114C362.972 247.881 362.599 247.764 362.169 247.764C361.516 247.764 360.998 248.016 360.615 248.52C360.233 249.024 360.041 249.701 360.041 250.55C360.041 251.39 360.233 252.058 360.615 252.552C360.998 253.038 361.516 253.28 362.169 253.28C362.599 253.28 362.972 253.173 363.289 252.958C363.616 252.734 363.863 252.417 364.031 252.006Z" fill="#DBFE01"/>
<path d="M350.824 250.55C350.824 249.766 350.964 249.085 351.244 248.506C351.524 247.918 351.921 247.466 352.434 247.148C352.948 246.831 353.545 246.672 354.226 246.672C354.796 246.672 355.314 246.803 355.78 247.064C356.256 247.316 356.644 247.722 356.942 248.282C357.241 248.833 357.409 249.533 357.446 250.382L357.46 250.928H352.098C352.154 251.675 352.364 252.254 352.728 252.664C353.102 253.075 353.601 253.28 354.226 253.28C354.628 253.28 354.992 253.173 355.318 252.958C355.645 252.744 355.892 252.445 356.06 252.062L357.348 252.16C357.134 252.851 356.737 253.402 356.158 253.812C355.589 254.223 354.945 254.428 354.226 254.428C353.545 254.428 352.948 254.27 352.434 253.952C351.921 253.635 351.524 253.187 351.244 252.608C350.964 252.02 350.824 251.334 350.824 250.55ZM356.144 249.864C356.042 249.146 355.818 248.628 355.472 248.31C355.127 247.984 354.712 247.82 354.226 247.82C353.648 247.82 353.176 247.998 352.812 248.352C352.458 248.707 352.229 249.211 352.126 249.864H356.144Z" fill="#DBFE01"/>
<path d="M344.774 253.196H349.576V254.26H343.472V252.958L348.176 247.904H343.612V246.84H349.464V248.17L344.774 253.196Z" fill="#DBFE01"/>
<path d="M341.553 246.84V254.26H340.349V246.84H341.553ZM341.581 244.32V245.678H340.321V244.32H341.581Z" fill="#DBFE01"/>
<path d="M337.574 244.32V252.748C337.574 252.898 337.612 253.01 337.686 253.084C337.761 253.159 337.873 253.196 338.022 253.196H338.666V254.26H337.826C337.397 254.26 337.047 254.125 336.776 253.854C336.506 253.584 336.37 253.234 336.37 252.804V244.32H337.574Z" fill="#DBFE01"/>
<path d="M327.951 250.55C327.951 249.766 328.091 249.085 328.371 248.506C328.651 247.918 329.048 247.466 329.561 247.148C330.075 246.831 330.672 246.672 331.353 246.672C331.923 246.672 332.441 246.803 332.907 247.064C333.383 247.316 333.771 247.722 334.069 248.282C334.368 248.833 334.536 249.533 334.573 250.382L334.587 250.928H329.225C329.281 251.675 329.491 252.254 329.855 252.664C330.229 253.075 330.728 253.28 331.353 253.28C331.755 253.28 332.119 253.173 332.445 252.958C332.772 252.744 333.019 252.445 333.187 252.062L334.475 252.16C334.261 252.851 333.864 253.402 333.285 253.812C332.716 254.223 332.072 254.428 331.353 254.428C330.672 254.428 330.075 254.27 329.561 253.952C329.048 253.635 328.651 253.187 328.371 252.608C328.091 252.02 327.951 251.334 327.951 250.55ZM333.271 249.864C333.169 249.146 332.945 248.628 332.599 248.31C332.254 247.984 331.839 247.82 331.353 247.82C330.775 247.82 330.303 247.998 329.939 248.352C329.585 248.707 329.356 249.211 329.253 249.864H333.271Z" fill="#DBFE01"/>
<path d="M325.776 244.32V252.748C325.776 252.898 325.813 253.01 325.888 253.084C325.962 253.159 326.074 253.196 326.224 253.196H326.868V254.26H326.028C325.598 254.26 325.248 254.125 324.978 253.854C324.707 253.584 324.572 253.234 324.572 252.804V244.32H325.776Z" fill="#DBFE01"/>
<path d="M321.797 244.32V252.748C321.797 252.898 321.834 253.01 321.909 253.084C321.984 253.159 322.096 253.196 322.245 253.196H322.889V254.26H322.049C321.62 254.26 321.27 254.125 320.999 253.854C320.728 253.584 320.593 253.234 320.593 252.804V244.32H321.797Z" fill="#DBFE01"/>
<path d="M312.191 249.024C312.34 248.306 312.685 247.736 313.227 247.316C313.768 246.887 314.435 246.672 315.229 246.672C316.19 246.672 316.927 246.943 317.441 247.484C317.963 248.016 318.225 248.782 318.225 249.78V252.748C318.225 252.898 318.262 253.01 318.337 253.084C318.411 253.159 318.523 253.196 318.673 253.196H318.981V254.26H318.463H318.393C318.131 254.251 317.898 254.214 317.693 254.148C317.497 254.074 317.338 253.957 317.217 253.798C317.095 253.63 317.035 253.406 317.035 253.126C316.867 253.49 316.577 253.798 316.167 254.05C315.765 254.302 315.289 254.428 314.739 254.428C313.973 254.428 313.334 254.237 312.821 253.854C312.317 253.472 312.065 252.958 312.065 252.314C312.065 251.829 312.177 251.442 312.401 251.152C312.625 250.863 312.933 250.644 313.325 250.494C313.717 250.336 314.23 250.196 314.865 250.074L317.021 249.654C317.011 249.038 316.857 248.581 316.559 248.282C316.269 247.974 315.826 247.82 315.229 247.82C314.771 247.82 314.389 247.932 314.081 248.156C313.782 248.38 313.577 248.702 313.465 249.122L312.191 249.024ZM313.325 252.314C313.325 252.622 313.455 252.874 313.717 253.07C313.987 253.266 314.379 253.364 314.893 253.364C315.303 253.364 315.672 253.271 315.999 253.084C316.325 252.888 316.582 252.599 316.769 252.216C316.955 251.824 317.049 251.348 317.049 250.788V250.718L315.313 251.026L315.033 251.068C314.622 251.143 314.305 251.213 314.081 251.278C313.857 251.344 313.675 251.46 313.535 251.628C313.395 251.787 313.325 252.016 313.325 252.314Z" fill="#DBFE01"/>
<path d="M308.505 246.84L308.561 248.772L308.449 248.66C308.533 248.026 308.719 247.564 309.009 247.274C309.307 246.985 309.737 246.84 310.297 246.84H311.025V247.904H310.297C309.923 247.904 309.611 247.979 309.359 248.128C309.116 248.268 308.934 248.483 308.813 248.772C308.701 249.052 308.645 249.407 308.645 249.836V254.26H307.441V246.84H308.505Z" fill="#DBFE01"/>
<path d="M299.147 249.024C299.297 248.306 299.642 247.736 300.183 247.316C300.725 246.887 301.392 246.672 302.185 246.672C303.147 246.672 303.884 246.943 304.397 247.484C304.92 248.016 305.181 248.782 305.181 249.78V252.748C305.181 252.898 305.219 253.01 305.293 253.084C305.368 253.159 305.48 253.196 305.629 253.196H305.937V254.26H305.419H305.349C305.088 254.251 304.855 254.214 304.649 254.148C304.453 254.074 304.295 253.957 304.173 253.798C304.052 253.63 303.991 253.406 303.991 253.126C303.823 253.49 303.534 253.798 303.123 254.05C302.722 254.302 302.246 254.428 301.695 254.428C300.93 254.428 300.291 254.237 299.777 253.854C299.273 253.472 299.021 252.958 299.021 252.314C299.021 251.829 299.133 251.442 299.357 251.152C299.581 250.863 299.889 250.644 300.281 250.494C300.673 250.336 301.187 250.196 301.821 250.074L303.977 249.654C303.968 249.038 303.814 248.581 303.515 248.282C303.226 247.974 302.783 247.82 302.185 247.82C301.728 247.82 301.345 247.932 301.037 248.156C300.739 248.38 300.533 248.702 300.421 249.122L299.147 249.024ZM300.281 252.314C300.281 252.622 300.412 252.874 300.673 253.07C300.944 253.266 301.336 253.364 301.849 253.364C302.26 253.364 302.629 253.271 302.955 253.084C303.282 252.888 303.539 252.599 303.725 252.216C303.912 251.824 304.005 251.348 304.005 250.788V250.718L302.269 251.026L301.989 251.068C301.579 251.143 301.261 251.213 301.037 251.278C300.813 251.344 300.631 251.46 300.491 251.628C300.351 251.787 300.281 252.016 300.281 252.314Z" fill="#DBFE01"/>
<path d="M294.458 244.32C295.195 244.32 295.825 244.442 296.348 244.684C296.88 244.918 297.286 245.263 297.566 245.72C297.846 246.168 297.986 246.705 297.986 247.33C297.986 247.974 297.846 248.53 297.566 248.996C297.286 249.454 296.88 249.804 296.348 250.046C295.825 250.289 295.195 250.41 294.458 250.41H292.12V254.26H290.888V244.32H294.458ZM294.458 249.206C295.205 249.206 295.765 249.052 296.138 248.744C296.511 248.427 296.698 247.956 296.698 247.33C296.698 246.724 296.511 246.271 296.138 245.972C295.765 245.674 295.205 245.524 294.458 245.524H292.12V249.206H294.458Z" fill="#DBFE01"/>
</g>
<rect x="0.5" y="0.760254" width="447" height="270" rx="9.5" stroke="#222221"/>
<defs>
<filter id="filter0_d_898_22361" x="221.161" y="239.899" width="19.6771" height="19.7001" filterUnits="userSpaceOnUse" color-interpolation-filters="sRGB">
<feFlood flood-opacity="0" result="BackgroundImageFix"/>
<feColorMatrix in="SourceAlpha" type="matrix" values="0 0 0 0 0 0 0 0 0 0 0 0 0 0 0 0 0 0 127 0" result="hardAlpha"/>
<feOffset/>
<feGaussianBlur stdDeviation="1.4"/>
<feComposite in2="hardAlpha" operator="out"/>
<feColorMatrix type="matrix" values="0 0 0 0 0 0 0 0 0 0 0 0 0 0 0 0 0 0 0.16 0"/>
<feBlend mode="normal" in2="BackgroundImageFix" result="effect1_dropShadow_898_22361"/>
<feBlend mode="normal" in="SourceGraphic" in2="effect1_dropShadow_898_22361" result="shape"/>
</filter>
<filter id="filter1_i_898_22361" x="223.611" y="242.349" width="14.7773" height="17.6003" filterUnits="userSpaceOnUse" color-interpolation-filters="sRGB">
<feFlood flood-opacity="0" result="BackgroundImageFix"/>
<feBlend mode="normal" in="SourceGraphic" in2="BackgroundImageFix" result="shape"/>
<feColorMatrix in="SourceAlpha" type="matrix" values="0 0 0 0 0 0 0 0 0 0 0 0 0 0 0 0 0 0 127 0" result="hardAlpha"/>
<feOffset dy="2.8"/>
<feGaussianBlur stdDeviation="1.4"/>
<feComposite in2="hardAlpha" operator="arithmetic" k2="-1" k3="1"/>
<feColorMatrix type="matrix" values="0 0 0 0 1 0 0 0 0 1 0 0 0 0 1 0 0 0 0.2 0"/>
<feBlend mode="normal" in2="shape" result="effect1_innerShadow_898_22361"/>
</filter>
<linearGradient id="paint0_linear_898_22361" x1="344.5" y1="40.2603" x2="344.5" y2="270.26" gradientUnits="userSpaceOnUse">
<stop stop-color="#DBFE01"/>
<stop offset="1" stop-color="#DBFE01" stop-opacity="0.1"/>
</linearGradient>
<linearGradient id="paint1_linear_898_22361" x1="237.465" y1="243.153" x2="225.56" y2="255.783" gradientUnits="userSpaceOnUse">
<stop stop-color="#77DA05"/>
<stop offset="0.5" stop-color="#DBFE01"/>
<stop offset="1" stop-color="#77DA05"/>
</linearGradient>
<linearGradient id="paint2_linear_898_22361" x1="237.465" y1="243.153" x2="225.56" y2="255.783" gradientUnits="userSpaceOnUse">
<stop stop-color="#77DA05"/>
<stop offset="0.5" stop-color="#DBFE01"/>
<stop offset="1" stop-color="#77DA05"/>
</linearGradient>
<clipPath id="clip0_898_22361">
<rect y="0.260254" width="448" height="271" rx="10" fill="white"/>
</clipPath>
<clipPath id="clip1_898_22361">
<path d="M139 0.260254H478V44.2603H139V0.260254Z" fill="white"/>
</clipPath>
<clipPath id="clip2_898_22361">
<path d="M0 0.260254H139V271.26H0V0.260254Z" fill="white"/>
</clipPath>
<clipPath id="clip3_898_22361">
<rect x="195" y="52.2603" width="170" height="20" rx="6" fill="white"/>
</clipPath>
<clipPath id="clip4_898_22361">
<rect x="235" y="90.2603" width="123" height="20" rx="6" fill="white"/>
</clipPath>
<clipPath id="clip5_898_22361">
<rect x="205" y="128.26" width="114" height="20" rx="6" fill="white"/>
</clipPath>
<clipPath id="clip6_898_22361">
<rect x="153" y="204.26" width="164" height="20" rx="6" fill="white"/>
</clipPath>
<clipPath id="clip7_898_22361">
<rect x="234.996" y="166.26" width="114" height="20" rx="6" fill="white"/>
</clipPath>
</defs>
</svg>
