<svg width="448" height="551" viewBox="0 0 448 551" fill="none" xmlns="http://www.w3.org/2000/svg">
<path d="M318.12 539.192C318.035 538.755 317.811 538.408 317.448 538.152C317.085 537.896 316.68 537.768 316.232 537.768C315.784 537.768 315.416 537.875 315.128 538.088C314.84 538.301 314.696 538.584 314.696 538.936C314.696 539.277 314.867 539.544 315.208 539.736C315.56 539.917 316.008 540.061 316.552 540.168C317.32 540.307 317.95 540.477 318.44 540.68C318.942 540.872 319.331 541.139 319.608 541.48C319.886 541.811 320.024 542.248 320.024 542.792C320.024 543.325 319.859 543.773 319.528 544.136C319.208 544.488 318.787 544.755 318.264 544.936C317.742 545.107 317.171 545.192 316.552 545.192C315.827 545.192 315.181 545.075 314.616 544.84C314.051 544.605 313.598 544.275 313.256 543.848C312.926 543.411 312.739 542.904 312.696 542.328L314.472 542.216C314.536 542.536 314.654 542.813 314.824 543.048C315.006 543.272 315.24 543.448 315.528 543.576C315.816 543.693 316.152 543.752 316.536 543.752C316.984 543.752 317.379 543.672 317.72 543.512C318.062 543.341 318.232 543.075 318.232 542.712C318.232 542.467 318.158 542.269 318.008 542.12C317.87 541.971 317.694 541.864 317.48 541.8C317.278 541.725 316.989 541.645 316.616 541.56C316.531 541.549 316.408 541.528 316.248 541.496C315.523 541.336 314.931 541.171 314.472 541C314.014 540.819 313.635 540.568 313.336 540.248C313.048 539.928 312.904 539.512 312.904 539C312.904 538.456 313.043 537.987 313.32 537.592C313.608 537.187 314.008 536.877 314.52 536.664C315.043 536.44 315.656 536.328 316.36 536.328C317.288 536.328 318.072 536.579 318.712 537.08C319.352 537.571 319.747 538.243 319.896 539.096L318.12 539.192Z" fill="#DBFE01"/>
<path d="M300.791 536.52L300.855 537.896C301.058 537.395 301.362 537.011 301.767 536.744C302.183 536.467 302.679 536.328 303.255 536.328C303.863 536.328 304.38 536.483 304.807 536.792C305.234 537.091 305.538 537.523 305.719 538.088C305.911 537.512 306.22 537.075 306.647 536.776C307.084 536.477 307.623 536.328 308.263 536.328C308.828 536.328 309.314 536.456 309.719 536.712C310.135 536.957 310.45 537.32 310.663 537.8C310.887 538.28 310.999 538.861 310.999 539.544V545H309.287V540.072C309.287 539.325 309.159 538.76 308.903 538.376C308.647 537.981 308.279 537.784 307.799 537.784C307.404 537.784 307.063 537.875 306.775 538.056C306.498 538.227 306.29 538.483 306.151 538.824C306.012 539.165 305.943 539.581 305.943 540.072V545H304.311V540.072C304.311 539.581 304.252 539.165 304.135 538.824C304.018 538.483 303.847 538.227 303.623 538.056C303.399 537.875 303.132 537.784 302.823 537.784C302.439 537.784 302.103 537.875 301.815 538.056C301.538 538.237 301.324 538.499 301.175 538.84C301.036 539.181 300.967 539.592 300.967 540.072V545H299.239V536.52H300.791Z" fill="#DBFE01"/>
<path d="M289.559 539.064C289.73 538.211 290.13 537.544 290.759 537.064C291.399 536.573 292.21 536.328 293.191 536.328C294.354 536.328 295.239 536.637 295.847 537.256C296.466 537.864 296.775 538.755 296.775 539.928V543.08C296.775 543.272 296.818 543.416 296.903 543.512C296.988 543.597 297.116 543.64 297.287 543.64H297.639V545H297.095H297.015C296.727 545.011 296.45 544.984 296.183 544.92C295.916 544.856 295.687 544.728 295.495 544.536C295.314 544.344 295.212 544.067 295.191 543.704C294.988 544.131 294.652 544.488 294.183 544.776C293.714 545.053 293.143 545.192 292.471 545.192C291.596 545.192 290.866 544.973 290.279 544.536C289.703 544.099 289.415 543.512 289.415 542.776C289.415 542.232 289.543 541.795 289.799 541.464C290.055 541.133 290.407 540.877 290.855 540.696C291.303 540.515 291.895 540.349 292.631 540.2L295.047 539.736C295.036 539.053 294.876 538.552 294.567 538.232C294.268 537.901 293.81 537.736 293.191 537.736C292.711 537.736 292.311 537.859 291.991 538.104C291.671 538.349 291.452 538.707 291.335 539.176L289.559 539.064ZM291.207 542.744C291.207 543.075 291.346 543.347 291.623 543.56C291.9 543.763 292.306 543.864 292.839 543.864C293.266 543.864 293.65 543.763 293.991 543.56C294.332 543.347 294.599 543.037 294.791 542.632C294.983 542.216 295.079 541.715 295.079 541.128V541.048L293.287 541.368L292.999 541.416C292.562 541.491 292.226 541.565 291.991 541.64C291.756 541.715 291.564 541.843 291.415 542.024C291.276 542.195 291.207 542.435 291.207 542.744Z" fill="#DBFE01"/>
<path d="M280.009 540.76C280.009 539.864 280.174 539.085 280.505 538.424C280.846 537.752 281.321 537.235 281.929 536.872C282.537 536.509 283.246 536.328 284.057 536.328C284.75 536.328 285.379 536.488 285.945 536.808C286.521 537.117 286.979 537.603 287.321 538.264C287.673 538.915 287.865 539.725 287.897 540.696V541.256H281.833C281.886 542.035 282.105 542.643 282.489 543.08C282.873 543.507 283.395 543.72 284.057 543.72C284.483 543.72 284.867 543.608 285.209 543.384C285.55 543.16 285.811 542.845 285.993 542.44L287.785 542.568C287.529 543.368 287.059 544.008 286.377 544.488C285.705 544.957 284.931 545.192 284.057 545.192C283.246 545.192 282.537 545.011 281.929 544.648C281.321 544.285 280.846 543.773 280.505 543.112C280.174 542.44 280.009 541.656 280.009 540.76ZM286.089 539.96C285.982 539.213 285.747 538.669 285.385 538.328C285.022 537.976 284.579 537.8 284.057 537.8C283.449 537.8 282.953 537.992 282.569 538.376C282.195 538.749 281.955 539.277 281.849 539.96H286.089Z" fill="#DBFE01"/>
<path d="M280.034 535.24H276.562V545H274.802V535.24H271.33V533.64H280.034V535.24Z" fill="#DBFE01"/>
<path d="M258.415 540.76C258.415 539.864 258.58 539.085 258.911 538.424C259.252 537.752 259.727 537.235 260.335 536.872C260.943 536.509 261.652 536.328 262.463 536.328C263.156 536.328 263.786 536.488 264.351 536.808C264.927 537.117 265.386 537.603 265.727 538.264C266.079 538.915 266.271 539.725 266.303 540.696V541.256H260.239C260.292 542.035 260.511 542.643 260.895 543.08C261.279 543.507 261.802 543.72 262.463 543.72C262.89 543.72 263.274 543.608 263.615 543.384C263.956 543.16 264.218 542.845 264.399 542.44L266.191 542.568C265.935 543.368 265.466 544.008 264.783 544.488C264.111 544.957 263.338 545.192 262.463 545.192C261.652 545.192 260.943 545.011 260.335 544.648C259.727 544.285 259.252 543.773 258.911 543.112C258.58 542.44 258.415 541.656 258.415 540.76ZM264.495 539.96C264.388 539.213 264.154 538.669 263.791 538.328C263.428 537.976 262.986 537.8 262.463 537.8C261.855 537.8 261.359 537.992 260.975 538.376C260.602 538.749 260.362 539.277 260.255 539.96H264.495Z" fill="#DBFE01"/>
<path d="M255.998 533.64V543.032C255.998 543.213 256.046 543.352 256.142 543.448C256.238 543.544 256.377 543.592 256.558 543.592H257.246V545H256.174C255.609 545 255.15 544.829 254.798 544.488C254.446 544.136 254.27 543.672 254.27 543.096V533.64H255.998Z" fill="#DBFE01"/>
<path d="M251.873 536.52V545H250.145V536.52H251.873ZM251.905 533.64V535.272H250.113V533.64H251.905Z" fill="#DBFE01"/>
<path d="M242.373 533.64V537.64C242.608 537.235 242.955 536.915 243.413 536.68C243.872 536.445 244.379 536.328 244.933 536.328C245.659 536.328 246.293 536.509 246.837 536.872C247.381 537.235 247.797 537.752 248.085 538.424C248.373 539.085 248.517 539.864 248.517 540.76C248.517 541.656 248.373 542.44 248.085 543.112C247.797 543.773 247.381 544.285 246.837 544.648C246.293 545.011 245.659 545.192 244.933 545.192C244.357 545.192 243.835 545.069 243.365 544.824C242.896 544.579 242.539 544.237 242.293 543.8L242.245 545H240.645V533.64H242.373ZM242.245 540.76C242.245 541.347 242.336 541.864 242.517 542.312C242.699 542.76 242.96 543.107 243.301 543.352C243.643 543.587 244.037 543.704 244.485 543.704C245.168 543.704 245.712 543.437 246.117 542.904C246.533 542.371 246.741 541.656 246.741 540.76C246.741 539.843 246.539 539.117 246.133 538.584C245.728 538.04 245.179 537.768 244.485 537.768C244.037 537.768 243.643 537.891 243.301 538.136C242.96 538.381 242.699 538.728 242.517 539.176C242.336 539.624 242.245 540.152 242.245 540.76Z" fill="#DBFE01"/>
<path d="M234.979 545.192C234.168 545.192 233.459 545.011 232.851 544.648C232.243 544.285 231.768 543.773 231.427 543.112C231.096 542.44 230.931 541.656 230.931 540.76C230.931 539.864 231.096 539.085 231.427 538.424C231.757 537.752 232.227 537.235 232.835 536.872C233.453 536.509 234.168 536.328 234.979 536.328C235.789 536.328 236.499 536.509 237.107 536.872C237.715 537.235 238.184 537.752 238.515 538.424C238.856 539.085 239.027 539.864 239.027 540.76C239.027 541.656 238.861 542.44 238.531 543.112C238.2 543.773 237.725 544.285 237.107 544.648C236.499 545.011 235.789 545.192 234.979 545.192ZM234.979 543.704C235.693 543.704 236.248 543.448 236.643 542.936C237.037 542.413 237.235 541.688 237.235 540.76C237.235 539.832 237.037 539.112 236.643 538.6C236.248 538.077 235.693 537.816 234.979 537.816C234.264 537.816 233.709 538.077 233.315 538.6C232.92 539.112 232.723 539.832 232.723 540.76C232.723 541.688 232.92 542.413 233.315 542.936C233.709 543.448 234.264 543.704 234.979 543.704Z" fill="#DBFE01"/>
<path d="M220.033 533.64L223.393 542.936L226.753 533.64H229.137V545H227.393V536.856L224.369 544.984H222.417L219.409 536.856V545H217.649V533.64H220.033Z" fill="#DBFE01"/>
<path d="M205.867 533H207.563L202.827 546.76H201.147L205.867 533Z" fill="#DBFE01"/>
<path d="M193.731 533.64H195.459V545H193.859L193.811 543.8C193.565 544.237 193.208 544.579 192.739 544.824C192.269 545.069 191.747 545.192 191.171 545.192C190.445 545.192 189.811 545.011 189.267 544.648C188.723 544.285 188.307 543.773 188.019 543.112C187.731 542.44 187.587 541.656 187.587 540.76C187.587 539.864 187.731 539.085 188.019 538.424C188.307 537.752 188.723 537.235 189.267 536.872C189.811 536.509 190.445 536.328 191.171 536.328C191.725 536.328 192.232 536.445 192.691 536.68C193.149 536.915 193.496 537.235 193.731 537.64V533.64ZM193.587 542.312C193.768 541.864 193.859 541.347 193.859 540.76C193.859 540.152 193.768 539.624 193.587 539.176C193.405 538.728 193.144 538.381 192.803 538.136C192.461 537.891 192.067 537.768 191.619 537.768C190.925 537.768 190.376 538.04 189.971 538.584C189.565 539.117 189.363 539.843 189.363 540.76C189.363 541.656 189.565 542.371 189.971 542.904C190.387 543.437 190.936 543.704 191.619 543.704C192.067 543.704 192.461 543.587 192.803 543.352C193.144 543.107 193.405 542.76 193.587 542.312Z" fill="#DBFE01"/>
<path d="M180.385 536.52L180.465 538.792L180.257 538.632C180.395 537.853 180.71 537.277 181.201 536.904C181.691 536.52 182.294 536.328 183.009 536.328C183.937 536.328 184.651 536.627 185.153 537.224C185.654 537.811 185.905 538.584 185.905 539.544V545H184.177V540.072C184.177 539.56 184.123 539.139 184.017 538.808C183.91 538.467 183.734 538.211 183.489 538.04C183.254 537.869 182.945 537.784 182.561 537.784C181.931 537.784 181.441 537.981 181.089 538.376C180.737 538.76 180.561 539.325 180.561 540.072V545H178.833V536.52H180.385Z" fill="#DBFE01"/>
<path d="M169.134 540.76C169.134 539.864 169.299 539.085 169.63 538.424C169.971 537.752 170.446 537.235 171.054 536.872C171.662 536.509 172.371 536.328 173.182 536.328C173.875 536.328 174.504 536.488 175.07 536.808C175.646 537.117 176.104 537.603 176.446 538.264C176.798 538.915 176.99 539.725 177.022 540.696V541.256H170.958C171.011 542.035 171.23 542.643 171.614 543.08C171.998 543.507 172.52 543.72 173.182 543.72C173.608 543.72 173.992 543.608 174.334 543.384C174.675 543.16 174.936 542.845 175.118 542.44L176.91 542.568C176.654 543.368 176.184 544.008 175.502 544.488C174.83 544.957 174.056 545.192 173.182 545.192C172.371 545.192 171.662 545.011 171.054 544.648C170.446 544.285 169.971 543.773 169.63 543.112C169.299 542.44 169.134 541.656 169.134 540.76ZM175.214 539.96C175.107 539.213 174.872 538.669 174.51 538.328C174.147 537.976 173.704 537.8 173.182 537.8C172.574 537.8 172.078 537.992 171.694 538.376C171.32 538.749 171.08 539.277 170.974 539.96H175.214Z" fill="#DBFE01"/>
<path d="M165.831 534.6V542.552C165.831 542.893 165.911 543.155 166.071 543.336C166.242 543.507 166.487 543.592 166.807 543.592H168.071V545H166.647C165.815 545 165.181 544.792 164.743 544.376C164.317 543.96 164.103 543.352 164.103 542.552V534.6H165.831ZM168.087 536.52V537.928H162.823V536.52H168.087Z" fill="#DBFE01"/>
<path d="M155.65 536.52L155.73 538.792L155.522 538.632C155.661 537.853 155.976 537.277 156.466 536.904C156.957 536.52 157.56 536.328 158.274 536.328C159.202 536.328 159.917 536.627 160.418 537.224C160.92 537.811 161.17 538.584 161.17 539.544V545H159.442V540.072C159.442 539.56 159.389 539.139 159.282 538.808C159.176 538.467 159 538.211 158.754 538.04C158.52 537.869 158.21 537.784 157.826 537.784C157.197 537.784 156.706 537.981 156.354 538.376C156.002 538.76 155.826 539.325 155.826 540.072V545H154.098V536.52H155.65Z" fill="#DBFE01"/>
<path d="M148.26 545.192C147.449 545.192 146.74 545.011 146.132 544.648C145.524 544.285 145.049 543.773 144.708 543.112C144.377 542.44 144.212 541.656 144.212 540.76C144.212 539.864 144.377 539.085 144.708 538.424C145.038 537.752 145.508 537.235 146.116 536.872C146.734 536.509 147.449 536.328 148.26 536.328C149.07 536.328 149.78 536.509 150.388 536.872C150.996 537.235 151.465 537.752 151.796 538.424C152.137 539.085 152.308 539.864 152.308 540.76C152.308 541.656 152.142 542.44 151.812 543.112C151.481 543.773 151.006 544.285 150.388 544.648C149.78 545.011 149.07 545.192 148.26 545.192ZM148.26 543.704C148.974 543.704 149.529 543.448 149.924 542.936C150.318 542.413 150.516 541.688 150.516 540.76C150.516 539.832 150.318 539.112 149.924 538.6C149.529 538.077 148.974 537.816 148.26 537.816C147.545 537.816 146.99 538.077 146.596 538.6C146.201 539.112 146.004 539.832 146.004 540.76C146.004 541.688 146.201 542.413 146.596 542.936C146.99 543.448 147.545 543.704 148.26 543.704Z" fill="#DBFE01"/>
<path d="M140.573 536.52L140.637 538.824L140.493 538.712C140.6 537.955 140.824 537.4 141.165 537.048C141.506 536.696 141.997 536.52 142.637 536.52H143.437V537.928H142.621C142.184 537.928 141.821 538.008 141.533 538.168C141.256 538.328 141.048 538.568 140.909 538.888C140.781 539.197 140.717 539.587 140.717 540.056V545H138.989V536.52H140.573Z" fill="#DBFE01"/>
<path d="M137.01 533.64V535.24H130.45L131.394 534.296V539.496L130.45 538.664H136.722V540.232H130.45L131.394 539.4V545H129.634V533.64H137.01Z" fill="#DBFE01"/>
<rect y="201" width="446" height="310" rx="16" fill="#191918"/>
<rect x="1" y="202" width="444" height="308" rx="15" stroke="url(#paint0_linear_760_7011)" stroke-opacity="0.5" stroke-width="2" stroke-dasharray="4 4"/>
<rect x="8.44429" y="419.444" width="140.445" height="83.1114" rx="9.55571" fill="#141413"/>
<rect x="8.44429" y="419.444" width="140.445" height="83.1114" rx="9.55571" stroke="#222221" stroke-width="0.888571"/>
<path d="M78.0382 443.736L76.0382 441.736" stroke="#B0CB01" stroke-width="1.06628" stroke-linecap="round" stroke-linejoin="round"/>
<path d="M79.3126 443.736L81.3126 441.736" stroke="#B0CB01" stroke-width="1.06628" stroke-linecap="round" stroke-linejoin="round"/>
<path d="M83.3968 448.351C83.4721 448.354 83.5469 448.337 83.614 448.303C83.681 448.269 83.7381 448.218 83.7798 448.155C83.8218 448.094 83.8497 448.025 83.861 447.952C83.8723 447.879 83.8668 447.805 83.8452 447.735C83.4111 446.527 82.6086 445.486 81.5511 444.758C80.4935 444.031 79.2343 443.654 77.951 443.681C76.6671 443.651 75.4066 444.027 74.3485 444.755C73.2904 445.482 72.4886 446.525 72.0569 447.735C72.033 447.805 72.0264 447.88 72.0378 447.953C72.0492 448.026 72.0782 448.095 72.1223 448.155C72.1624 448.217 72.2179 448.268 72.2834 448.302C72.3488 448.336 72.422 448.353 72.4959 448.351H83.3968Z" stroke="#B0CB01" stroke-width="1.06628" stroke-linecap="round" stroke-linejoin="round"/>
<path d="M77.1774 446.602C77.0484 446.602 76.9439 446.497 76.9439 446.368C76.9439 446.239 77.0484 446.135 77.1774 446.135" stroke="#B0CB01" stroke-width="1.06628"/>
<path d="M76.9439 446.602C77.0729 446.602 77.1774 446.497 77.1774 446.368C77.1774 446.239 77.0729 446.135 76.9439 446.135" stroke="#B0CB01" stroke-width="1.06628"/>
<path d="M80.4518 446.602C80.3228 446.602 80.2183 446.497 80.2183 446.368C80.2183 446.239 80.3228 446.135 80.4518 446.135" stroke="#B0CB01" stroke-width="1.06628"/>
<path d="M80.2183 446.602C80.3473 446.602 80.4518 446.497 80.4518 446.368C80.4518 446.239 80.3473 446.135 80.2183 446.135" stroke="#B0CB01" stroke-width="1.06628"/>
<path d="M69.5882 459.581V451.641C69.5619 451.451 69.58 451.257 69.6411 451.075C69.7021 450.893 69.8046 450.728 69.9403 450.592C70.0761 450.456 70.2415 450.354 70.4235 450.293C70.6055 450.232 70.7992 450.213 70.9894 450.24H72.3905" stroke="#B0CB01" stroke-width="1.06628" stroke-linecap="round" stroke-linejoin="round"/>
<path d="M87.1136 459.581V451.641C87.1399 451.451 87.1219 451.257 87.0608 451.075C86.9997 450.893 86.8972 450.728 86.7614 450.592C86.6257 450.456 86.4604 450.354 86.2783 450.293C86.0963 450.232 85.9026 450.213 85.7124 450.24H84.3113" stroke="#B0CB01" stroke-width="1.06628" stroke-linecap="round" stroke-linejoin="round"/>
<path d="M72.0325 458.168V450.228H84.1757V458.168" stroke="#B0CB01" stroke-width="1.06628" stroke-linecap="round" stroke-linejoin="round"/>
<path d="M104.502 469.37H105.878V480.73H104.63L104.582 479.546C104.347 479.973 103.99 480.309 103.51 480.554C103.03 480.799 102.496 480.922 101.91 480.922C101.184 480.922 100.55 480.741 100.006 480.378C99.4616 480.015 99.0456 479.503 98.7576 478.842C98.4696 478.17 98.3256 477.386 98.3256 476.49C98.3256 475.594 98.4696 474.815 98.7576 474.154C99.0456 473.482 99.4616 472.965 100.006 472.602C100.55 472.239 101.184 472.058 101.91 472.058C102.475 472.058 102.987 472.175 103.446 472.41C103.915 472.634 104.267 472.943 104.502 473.338V469.37ZM104.326 478.154C104.528 477.674 104.63 477.119 104.63 476.49C104.63 475.85 104.528 475.29 104.326 474.81C104.134 474.33 103.851 473.962 103.478 473.706C103.115 473.439 102.688 473.306 102.198 473.306C101.451 473.306 100.859 473.594 100.422 474.17C99.9842 474.746 99.7656 475.519 99.7656 476.49C99.7656 477.45 99.9842 478.213 100.422 478.778C100.859 479.333 101.451 479.61 102.198 479.61C102.688 479.61 103.115 479.487 103.478 479.242C103.851 478.986 104.134 478.623 104.326 478.154Z" fill="#BCBCB8"/>
<path d="M96.292 472.25V480.73H94.916V472.25H96.292ZM96.324 469.37V470.922H94.884V469.37H96.324Z" fill="#BCBCB8"/>
<path d="M89.3073 480.922C88.5286 480.922 87.846 480.741 87.2593 480.378C86.6726 480.015 86.2193 479.503 85.8993 478.842C85.5793 478.17 85.4193 477.386 85.4193 476.49C85.4193 475.594 85.5793 474.815 85.8993 474.154C86.2193 473.482 86.6726 472.965 87.2593 472.602C87.846 472.239 88.5286 472.058 89.3073 472.058C90.086 472.058 90.7686 472.239 91.3553 472.602C91.942 472.965 92.3953 473.482 92.7153 474.154C93.0353 474.815 93.1953 475.594 93.1953 476.49C93.1953 477.386 93.0353 478.17 92.7153 478.842C92.3953 479.503 91.942 480.015 91.3553 480.378C90.7686 480.741 90.086 480.922 89.3073 480.922ZM89.3073 479.61C90.086 479.61 90.6886 479.338 91.1153 478.794C91.542 478.239 91.7553 477.471 91.7553 476.49C91.7553 475.509 91.542 474.746 91.1153 474.202C90.6886 473.647 90.086 473.37 89.3073 473.37C88.5286 473.37 87.926 473.647 87.4993 474.202C87.0726 474.746 86.8593 475.509 86.8593 476.49C86.8593 477.471 87.0726 478.239 87.4993 478.794C87.926 479.338 88.5286 479.61 89.3073 479.61Z" fill="#BCBCB8"/>
<path d="M81.6789 472.25L81.7429 474.458L81.6149 474.33C81.7109 473.605 81.9242 473.077 82.2549 472.746C82.5962 472.415 83.0869 472.25 83.7269 472.25H84.5589V473.466H83.7269C83.3002 473.466 82.9429 473.551 82.6549 473.722C82.3776 473.882 82.1696 474.127 82.0309 474.458C81.9029 474.778 81.8389 475.183 81.8389 475.674V480.73H80.4629V472.25H81.6789Z" fill="#BCBCB8"/>
<path d="M76.7672 469.37H78.1432V480.73H76.8952L76.8472 479.546C76.6125 479.973 76.2552 480.309 75.7752 480.554C75.2952 480.799 74.7619 480.922 74.1752 480.922C73.4499 480.922 72.8152 480.741 72.2712 480.378C71.7272 480.015 71.3112 479.503 71.0232 478.842C70.7352 478.17 70.5912 477.386 70.5912 476.49C70.5912 475.594 70.7352 474.815 71.0232 474.154C71.3112 473.482 71.7272 472.965 72.2712 472.602C72.8152 472.239 73.4499 472.058 74.1752 472.058C74.7405 472.058 75.2525 472.175 75.7112 472.41C76.1805 472.634 76.5325 472.943 76.7672 473.338V469.37ZM76.5912 478.154C76.7939 477.674 76.8952 477.119 76.8952 476.49C76.8952 475.85 76.7939 475.29 76.5912 474.81C76.3992 474.33 76.1165 473.962 75.7432 473.706C75.3805 473.439 74.9539 473.306 74.4632 473.306C73.7165 473.306 73.1245 473.594 72.6872 474.17C72.2499 474.746 72.0312 475.519 72.0312 476.49C72.0312 477.45 72.2499 478.213 72.6872 478.778C73.1245 479.333 73.7165 479.61 74.4632 479.61C74.9539 479.61 75.3805 479.487 75.7432 479.242C76.1165 478.986 76.3992 478.623 76.5912 478.154Z" fill="#BCBCB8"/>
<path d="M63.289 472.25L63.353 474.41L63.177 474.218C63.3263 473.503 63.6463 472.965 64.137 472.602C64.6383 472.239 65.2357 472.058 65.929 472.058C66.857 472.058 67.5664 472.357 68.057 472.954C68.5477 473.551 68.793 474.325 68.793 475.274V480.73H67.417V475.658C67.417 475.135 67.353 474.698 67.225 474.346C67.1077 473.994 66.9157 473.727 66.649 473.546C66.393 473.365 66.057 473.274 65.641 473.274C64.9584 473.274 64.4143 473.482 64.009 473.898C63.6143 474.303 63.417 474.89 63.417 475.658V480.73H62.041V472.25H63.289Z" fill="#BCBCB8"/>
<path d="M54.443 469.37H56.331L60.427 480.73H58.891L57.771 477.514H53.003L51.883 480.73H50.347L54.443 469.37ZM57.291 476.138L55.387 470.602L53.483 476.138H57.291Z" fill="#BCBCB8"/>
<rect x="153.778" y="419.444" width="140.445" height="83.1114" rx="9.55571" fill="#141413"/>
<rect x="153.778" y="419.444" width="140.445" height="83.1114" rx="9.55571" stroke="#222221" stroke-width="0.888571"/>
<path d="M228.365 453.112C228.372 452.516 228.529 451.932 228.823 451.414C229.117 450.895 229.537 450.46 230.045 450.148C229.722 449.688 229.297 449.31 228.803 449.042C228.31 448.774 227.761 448.623 227.199 448.602C225.987 448.483 224.822 449.316 224.219 449.316C223.617 449.316 222.634 448.618 221.651 448.634C220.991 448.651 220.346 448.84 219.78 449.182C219.215 449.524 218.748 450.007 218.425 450.584C217.054 452.962 218.076 456.497 219.416 458.431C220.066 459.374 220.851 460.436 221.873 460.396C222.896 460.357 223.236 459.762 224.425 459.762C225.614 459.762 225.955 460.396 226.993 460.38C228.032 460.365 228.729 459.413 229.371 458.47C229.836 457.797 230.201 457.06 230.457 456.283C229.836 456.018 229.306 455.576 228.934 455.012C228.561 454.449 228.364 453.788 228.365 453.112Z" stroke="#B0CB01" stroke-width="1.06628" stroke-linecap="round" stroke-linejoin="round"/>
<path d="M226.961 444.887C227.63 444.096 227.963 443.075 227.888 442.042C226.873 442.137 225.933 442.619 225.264 443.389C224.928 443.768 224.673 444.212 224.514 444.693C224.354 445.174 224.294 445.682 224.337 446.187C224.845 446.186 225.345 446.068 225.8 445.843C226.255 445.617 226.652 445.29 226.961 444.887Z" stroke="#B0CB01" stroke-width="1.06628" stroke-linecap="round" stroke-linejoin="round"/>
<path d="M229.381 477.002C229.487 477.514 229.674 477.962 229.941 478.346C230.207 478.73 230.559 479.029 230.997 479.242C231.434 479.445 231.946 479.546 232.533 479.546C233.023 479.546 233.445 479.482 233.797 479.354C234.159 479.226 234.437 479.04 234.629 478.794C234.831 478.538 234.933 478.229 234.933 477.866C234.933 477.301 234.677 476.832 234.165 476.458C233.653 476.074 232.826 475.738 231.685 475.45C230.629 475.184 229.775 474.794 229.125 474.282C228.474 473.77 228.149 473.088 228.149 472.234C228.149 471.605 228.303 471.056 228.613 470.586C228.933 470.117 229.37 469.754 229.925 469.498C230.49 469.242 231.135 469.114 231.861 469.114C232.661 469.114 233.37 469.269 233.989 469.578C234.618 469.888 235.114 470.314 235.477 470.858C235.85 471.402 236.079 472.026 236.165 472.73L234.693 472.826C234.629 472.357 234.469 471.946 234.213 471.594C233.957 471.242 233.626 470.97 233.221 470.778C232.815 470.586 232.357 470.49 231.845 470.49C231.194 470.49 230.661 470.65 230.245 470.97C229.829 471.28 229.621 471.701 229.621 472.234C229.621 472.64 229.754 472.976 230.021 473.242C230.287 473.498 230.602 473.701 230.965 473.85C231.338 473.989 231.829 474.144 232.437 474.314L232.693 474.378C233.823 474.698 234.725 475.13 235.397 475.674C236.069 476.218 236.405 476.901 236.405 477.722C236.405 478.394 236.218 478.976 235.845 479.466C235.482 479.946 234.997 480.309 234.389 480.554C233.781 480.8 233.125 480.922 232.421 480.922C231.599 480.922 230.858 480.768 230.197 480.458C229.535 480.138 229.002 479.69 228.597 479.114C228.202 478.528 227.973 477.856 227.909 477.098L229.381 477.002Z" fill="#BCBCB8"/>
<path d="M220.98 480.986C219.903 480.986 218.975 480.752 218.196 480.282C217.417 479.802 216.82 479.12 216.404 478.234C215.988 477.338 215.78 476.282 215.78 475.066C215.78 473.84 215.988 472.784 216.404 471.898C216.82 471.002 217.417 470.314 218.196 469.834C218.975 469.354 219.903 469.114 220.98 469.114C222.057 469.114 222.985 469.354 223.764 469.834C224.543 470.314 225.14 471.002 225.556 471.898C225.972 472.784 226.18 473.84 226.18 475.066C226.18 476.282 225.972 477.338 225.556 478.234C225.14 479.12 224.543 479.802 223.764 480.282C222.985 480.752 222.057 480.986 220.98 480.986ZM220.98 479.61C221.748 479.61 222.409 479.429 222.964 479.066C223.529 478.704 223.961 478.181 224.26 477.498C224.559 476.816 224.708 476.005 224.708 475.066C224.708 474.117 224.559 473.301 224.26 472.618C223.961 471.936 223.529 471.413 222.964 471.05C222.409 470.677 221.748 470.49 220.98 470.49C220.212 470.49 219.545 470.677 218.98 471.05C218.425 471.413 217.999 471.936 217.7 472.618C217.401 473.301 217.252 474.117 217.252 475.066C217.252 476.005 217.401 476.816 217.7 477.498C217.999 478.181 218.425 478.704 218.98 479.066C219.545 479.429 220.212 479.61 220.98 479.61Z" fill="#BCBCB8"/>
<path d="M213.949 472.25V480.73H212.573V472.25H213.949ZM213.981 469.37V470.922H212.541V469.37H213.981Z" fill="#BCBCB8"/>
<rect x="299.111" y="419.444" width="140.445" height="83.1114" rx="9.55571" fill="#141413"/>
<rect x="299.111" y="419.444" width="140.445" height="83.1114" rx="9.55571" stroke="#222221" stroke-width="0.888571"/>
<path d="M376.125 442.874H361.445C360.591 442.874 359.899 443.566 359.899 444.419V456.782C359.899 457.636 360.591 458.327 361.445 458.327H376.125C376.979 458.327 377.671 457.636 377.671 456.782V444.419C377.671 443.566 376.979 442.874 376.125 442.874Z" stroke="#B0CB01" stroke-width="0.888571" stroke-linecap="round" stroke-linejoin="round"/>
<path d="M359.899 445.874H377.671" stroke="#B0CB01" stroke-width="0.888571" stroke-linecap="round" stroke-linejoin="round"/>
<path d="M362.093 445.26C361.986 445.26 361.899 445.174 361.899 445.067C361.899 444.961 361.986 444.874 362.093 444.874" stroke="#B0CB01" stroke-width="0.888571"/>
<path d="M361.899 445.26C362.006 445.26 362.093 445.174 362.093 445.067C362.093 444.961 362.006 444.874 361.899 444.874" stroke="#B0CB01" stroke-width="0.888571"/>
<path d="M364.093 445.26C363.986 445.26 363.899 445.174 363.899 445.067C363.899 444.961 363.986 444.874 364.093 444.874" stroke="#B0CB01" stroke-width="0.888571"/>
<path d="M365.899 445.26C366.006 445.26 366.093 445.174 366.093 445.067C366.093 444.961 366.006 444.874 365.899 444.874" stroke="#B0CB01" stroke-width="0.888571"/>
<path d="M367.093 445.26C366.986 445.26 366.899 445.174 366.899 445.067C366.899 444.961 366.986 444.874 367.093 444.874" stroke="#B0CB01" stroke-width="0.888571"/>
<path d="M366.899 445.26C367.006 445.26 367.093 445.174 367.093 445.067C367.093 444.961 367.006 444.874 366.899 444.874" stroke="#B0CB01" stroke-width="0.888571"/>
<path d="M362.899 450.874L364.899 452.806L362.899 454.737" stroke="#B0CB01" stroke-width="0.888571" stroke-linecap="round" stroke-linejoin="round"/>
<path d="M368.899 452.874H371.99" stroke="#B0CB01" stroke-width="0.888571" stroke-linecap="round" stroke-linejoin="round"/>
<path d="M378.555 469.84V473.808C378.79 473.413 379.137 473.104 379.595 472.88C380.065 472.645 380.582 472.528 381.147 472.528C381.873 472.528 382.507 472.709 383.051 473.072C383.595 473.435 384.011 473.952 384.299 474.624C384.587 475.285 384.731 476.064 384.731 476.96C384.731 477.856 384.587 478.64 384.299 479.312C384.011 479.973 383.595 480.485 383.051 480.848C382.507 481.211 381.873 481.392 381.147 481.392C380.561 481.392 380.027 481.269 379.547 481.024C379.067 480.779 378.71 480.443 378.475 480.016L378.427 481.2H377.179V469.84H378.555ZM378.427 476.96C378.427 477.589 378.523 478.144 378.715 478.624C378.918 479.093 379.201 479.456 379.563 479.712C379.937 479.957 380.369 480.08 380.859 480.08C381.606 480.08 382.198 479.803 382.635 479.248C383.073 478.683 383.291 477.92 383.291 476.96C383.291 475.989 383.073 475.216 382.635 474.64C382.198 474.064 381.606 473.776 380.859 473.776C380.369 473.776 379.937 473.909 379.563 474.176C379.201 474.432 378.918 474.8 378.715 475.28C378.523 475.76 378.427 476.32 378.427 476.96Z" fill="#BCBCB8"/>
<path d="M367.87 476.96C367.87 476.064 368.03 475.285 368.35 474.624C368.67 473.952 369.124 473.434 369.71 473.072C370.297 472.709 370.98 472.528 371.758 472.528C372.409 472.528 373.001 472.677 373.534 472.976C374.078 473.264 374.521 473.728 374.862 474.368C375.204 474.997 375.396 475.797 375.438 476.768L375.454 477.392H369.326C369.39 478.245 369.63 478.906 370.046 479.376C370.473 479.845 371.044 480.08 371.758 480.08C372.217 480.08 372.633 479.957 373.006 479.712C373.38 479.466 373.662 479.125 373.854 478.688L375.326 478.8C375.081 479.589 374.628 480.218 373.966 480.688C373.316 481.157 372.58 481.392 371.758 481.392C370.98 481.392 370.297 481.21 369.71 480.848C369.124 480.485 368.67 479.973 368.35 479.312C368.03 478.64 367.87 477.856 367.87 476.96ZM373.95 476.176C373.833 475.354 373.577 474.762 373.182 474.4C372.788 474.026 372.313 473.84 371.758 473.84C371.097 473.84 370.558 474.042 370.142 474.448C369.737 474.853 369.476 475.429 369.358 476.176H373.95Z" fill="#BCBCB8"/>
<path d="M355.193 469.84L357.497 479.264L359.817 469.84H361.401L363.737 479.264L366.025 469.84H367.577L364.601 481.2H362.841L360.617 472.704L358.393 481.2H356.633L353.657 469.84H355.193Z" fill="#BCBCB8"/>
<path d="M92.9862 393.81L92.9862 387.913C92.9862 382.002 97.7949 377.219 103.706 377.251L188.113 377.701C194.024 377.733 198.833 372.95 198.833 367.038L198.833 342.468" stroke="#DBFE01" stroke-width="2" stroke-linecap="square" stroke-dasharray="3.55 3.55"/>
<path d="M350.847 393.81L350.847 387.915C350.847 382.003 346.037 377.22 340.126 377.252L257.992 377.7C252.08 377.732 247.271 372.949 247.271 367.037L247.271 342.468" stroke="#DBFE01" stroke-width="2" stroke-linecap="square" stroke-dasharray="3.55 3.55"/>
<path d="M223.144 341.843C223.144 351.94 223.144 357.602 223.144 367.7L223.144 394.628" stroke="#DBFE01" stroke-width="2" stroke-linecap="square" stroke-dasharray="3.55 3.55"/>
<path d="M198.785 338.865L198.785 324.87M206.19 331.438L198.803 324.051L191.417 331.438" stroke="#DBFE01" stroke-width="2" stroke-linecap="square"/>
<path d="M223.144 338.865L223.144 324.87M230.549 331.438L223.163 324.051L215.777 331.438" stroke="#DBFE01" stroke-width="2" stroke-linecap="square"/>
<path d="M247.335 338.865L247.335 324.87M254.74 331.438L247.354 324.051L239.968 331.438" stroke="#DBFE01" stroke-width="2" stroke-linecap="square"/>
<path d="M92.9863 394.549L92.9863 408.544M100.391 401.976L93.0048 409.363L85.6186 401.976" stroke="#DBFE01" stroke-width="2" stroke-linecap="square"/>
<g clip-path="url(#clip0_760_7011)">
<path d="M223.144 394.549L223.144 408.544" stroke="#DBFE01" stroke-width="2" stroke-linecap="square" stroke-linejoin="round"/>
<path d="M230.549 401.976L223.163 409.363L215.777 401.976" stroke="#DBFE01" stroke-width="2" stroke-linecap="square"/>
</g>
<g clip-path="url(#clip1_760_7011)">
<path d="M350.847 394.549L350.847 408.544" stroke="#DBFE01" stroke-width="2" stroke-linecap="square" stroke-linejoin="round"/>
<path d="M358.251 401.976L350.865 409.363L343.479 401.976" stroke="#DBFE01" stroke-width="2" stroke-linecap="square"/>
</g>
<g filter="url(#filter0_ddd_760_7011)">
<g clip-path="url(#clip2_760_7011)">
<rect x="107" y="228" width="229" height="86" rx="10.6628" fill="#DBFE01"/>
<g opacity="0.4">
<line x1="203.745" y1="446.453" x2="44.6464" y2="287.354" stroke="#B0CB01"/>
<line x1="206.574" y1="443.624" x2="47.4749" y2="284.525" stroke="#B0CB01"/>
<line x1="209.402" y1="440.796" x2="50.3033" y2="281.697" stroke="#B0CB01"/>
<line x1="212.231" y1="437.967" x2="53.1317" y2="278.868" stroke="#B0CB01"/>
<line x1="215.059" y1="435.139" x2="55.9602" y2="276.04" stroke="#B0CB01"/>
<line x1="217.888" y1="432.31" x2="58.7885" y2="273.211" stroke="#B0CB01"/>
<line x1="220.716" y1="429.482" x2="61.617" y2="270.383" stroke="#B0CB01"/>
<line x1="223.544" y1="426.654" x2="64.4454" y2="267.555" stroke="#B0CB01"/>
<line x1="226.373" y1="423.825" x2="67.2739" y2="264.726" stroke="#B0CB01"/>
<line x1="229.201" y1="420.997" x2="70.1022" y2="261.898" stroke="#B0CB01"/>
<line x1="232.03" y1="418.168" x2="72.9307" y2="259.069" stroke="#B0CB01"/>
<line x1="234.858" y1="415.34" x2="75.7591" y2="256.241" stroke="#B0CB01"/>
<line x1="237.687" y1="412.512" x2="78.5876" y2="253.412" stroke="#B0CB01"/>
<line x1="240.515" y1="409.683" x2="81.416" y2="250.584" stroke="#B0CB01"/>
<line x1="243.343" y1="406.855" x2="84.2445" y2="247.755" stroke="#B0CB01"/>
<line x1="246.172" y1="404.026" x2="87.0728" y2="244.927" stroke="#B0CB01"/>
<line x1="249" y1="401.198" x2="89.9013" y2="242.099" stroke="#B0CB01"/>
<line x1="251.829" y1="398.369" x2="92.7297" y2="239.27" stroke="#B0CB01"/>
<line x1="254.657" y1="395.541" x2="95.5582" y2="236.442" stroke="#B0CB01"/>
<line x1="257.486" y1="392.712" x2="98.3866" y2="233.613" stroke="#B0CB01"/>
<line x1="260.314" y1="389.884" x2="101.215" y2="230.785" stroke="#B0CB01"/>
<line x1="263.142" y1="387.056" x2="104.043" y2="227.957" stroke="#B0CB01"/>
<line x1="265.971" y1="384.227" x2="106.872" y2="225.128" stroke="#B0CB01"/>
<line x1="268.799" y1="381.399" x2="109.7" y2="222.3" stroke="#B0CB01"/>
<line x1="271.628" y1="378.57" x2="112.529" y2="219.471" stroke="#B0CB01"/>
<line x1="274.456" y1="375.742" x2="115.357" y2="216.643" stroke="#B0CB01"/>
<line x1="277.285" y1="372.913" x2="118.186" y2="213.814" stroke="#B0CB01"/>
<line x1="280.113" y1="370.085" x2="121.014" y2="210.986" stroke="#B0CB01"/>
<line x1="282.941" y1="367.257" x2="123.842" y2="208.158" stroke="#B0CB01"/>
<line x1="285.77" y1="364.428" x2="126.671" y2="205.329" stroke="#B0CB01"/>
<line x1="288.598" y1="361.6" x2="129.499" y2="202.501" stroke="#B0CB01"/>
<line x1="291.427" y1="358.771" x2="132.328" y2="199.672" stroke="#B0CB01"/>
<line x1="294.255" y1="355.943" x2="135.156" y2="196.844" stroke="#B0CB01"/>
<line x1="297.084" y1="353.115" x2="137.985" y2="194.016" stroke="#B0CB01"/>
<line x1="299.912" y1="350.286" x2="140.813" y2="191.187" stroke="#B0CB01"/>
<line x1="302.74" y1="347.458" x2="143.641" y2="188.359" stroke="#B0CB01"/>
<line x1="305.569" y1="344.629" x2="146.47" y2="185.53" stroke="#B0CB01"/>
<line x1="308.397" y1="341.801" x2="149.298" y2="182.702" stroke="#B0CB01"/>
<line x1="311.226" y1="338.972" x2="152.127" y2="179.873" stroke="#B0CB01"/>
<line x1="314.054" y1="336.144" x2="154.955" y2="177.045" stroke="#B0CB01"/>
<line x1="316.883" y1="333.315" x2="157.784" y2="174.216" stroke="#B0CB01"/>
<line x1="319.711" y1="330.487" x2="160.612" y2="171.388" stroke="#B0CB01"/>
<line x1="322.539" y1="327.659" x2="163.44" y2="168.56" stroke="#B0CB01"/>
<line x1="325.368" y1="324.83" x2="166.269" y2="165.731" stroke="#B0CB01"/>
<line x1="328.196" y1="322.002" x2="169.097" y2="162.903" stroke="#B0CB01"/>
<line x1="331.025" y1="319.173" x2="171.926" y2="160.074" stroke="#B0CB01"/>
<line x1="333.853" y1="316.345" x2="174.754" y2="157.246" stroke="#B0CB01"/>
<line x1="336.681" y1="313.516" x2="177.582" y2="154.417" stroke="#B0CB01"/>
<line x1="339.51" y1="310.688" x2="180.411" y2="151.589" stroke="#B0CB01"/>
<line x1="342.338" y1="307.86" x2="183.239" y2="148.761" stroke="#B0CB01"/>
<line x1="345.167" y1="305.031" x2="186.068" y2="145.932" stroke="#B0CB01"/>
<line x1="347.995" y1="302.203" x2="188.896" y2="143.104" stroke="#B0CB01"/>
<line x1="350.824" y1="299.374" x2="191.725" y2="140.275" stroke="#B0CB01"/>
<line x1="353.652" y1="296.546" x2="194.553" y2="137.447" stroke="#B0CB01"/>
<line x1="356.481" y1="293.718" x2="197.382" y2="134.619" stroke="#B0CB01"/>
<line x1="359.309" y1="290.889" x2="200.21" y2="131.79" stroke="#B0CB01"/>
<line x1="362.137" y1="288.061" x2="203.038" y2="128.962" stroke="#B0CB01"/>
<line x1="364.966" y1="285.232" x2="205.867" y2="126.133" stroke="#B0CB01"/>
<line x1="367.794" y1="282.404" x2="208.695" y2="123.305" stroke="#B0CB01"/>
<line x1="370.623" y1="279.575" x2="211.524" y2="120.476" stroke="#B0CB01"/>
<line x1="373.451" y1="276.747" x2="214.352" y2="117.648" stroke="#B0CB01"/>
<line x1="376.28" y1="273.918" x2="217.18" y2="114.819" stroke="#B0CB01"/>
<line x1="379.108" y1="271.09" x2="220.009" y2="111.991" stroke="#B0CB01"/>
<line x1="381.936" y1="268.262" x2="222.837" y2="109.163" stroke="#B0CB01"/>
<line x1="384.765" y1="265.433" x2="225.666" y2="106.334" stroke="#B0CB01"/>
<line x1="387.593" y1="262.605" x2="228.494" y2="103.506" stroke="#B0CB01"/>
<line x1="390.422" y1="259.776" x2="231.323" y2="100.677" stroke="#B0CB01"/>
</g>
<path fill-rule="evenodd" clip-rule="evenodd" d="M174.64 249.301C173.831 248.619 173.782 247.401 174.534 246.659L175.681 245.527C176.422 244.796 177.635 244.83 178.332 245.602L179.34 246.719C180.895 248.439 183.621 248.439 185.176 246.719L186.184 245.602C186.881 244.83 188.094 244.796 188.835 245.527L189.982 246.659C190.734 247.401 190.685 248.619 189.876 249.301L188.987 250.05C187.037 251.692 187.037 254.666 188.987 256.309L189.876 257.058C190.685 257.739 190.734 258.957 189.982 259.7L188.865 260.802C188.113 261.544 186.879 261.496 186.188 260.697L185.231 259.591C183.671 257.786 180.845 257.786 179.285 259.591L178.328 260.697C177.638 261.496 176.403 261.544 175.651 260.802L174.534 259.7C173.782 258.957 173.831 257.739 174.64 257.058L175.645 256.211C177.535 254.62 177.535 251.739 175.645 250.147L174.64 249.301Z" fill="#191918"/>
<path d="M263.815 261.621C261.101 261.621 259.044 260.39 259 257.862L262.305 257.711C262.305 258.402 262.743 258.986 263.749 258.986C264.428 258.986 264.888 258.618 264.888 258.122C264.888 256.653 260.007 256.61 260.007 253.499C260.007 251.404 261.78 250 264.428 250C266.923 250 268.958 251.231 269.002 253.65L265.675 253.78C265.654 253.002 265.194 252.635 264.428 252.635C263.946 252.635 263.443 252.873 263.443 253.391C263.443 254.817 268.389 254.709 268.389 257.862C268.389 260.174 266.507 261.621 263.815 261.621Z" fill="#141413"/>
<path d="M256.873 248.672C255.844 248.672 255.1 247.938 255.1 246.966C255.1 245.864 256.041 245 257.201 245C258.23 245 258.974 245.734 258.974 246.706C258.974 247.786 258.033 248.672 256.873 248.672ZM252.057 264.937C251.357 264.937 250.635 264.807 250 264.505L250.504 261.632C250.722 261.762 250.985 261.87 251.423 261.87C252.211 261.87 252.736 261.394 252.889 260.466L254.75 249.925H258.208L256.238 261.07C255.8 263.533 254.159 264.937 252.057 264.937Z" fill="#141413"/>
<path d="M248.795 260.845C247.744 260.845 247 260.067 247 259.052C247 257.907 247.963 257 249.145 257C250.174 257 250.896 257.756 250.896 258.771C250.896 259.938 249.955 260.845 248.795 260.845Z" fill="#141413"/>
<path d="M246.556 255.098C246.556 255.746 246.469 256.307 246.272 256.869H238.283C238.502 257.97 239.312 258.748 240.537 258.748C241.457 258.748 242.179 258.294 242.442 257.97L245.943 258.122C245.177 259.763 243.142 261.621 240.362 261.621C237.364 261.621 235 259.374 235 256.307C235 253.132 237.714 250 241.391 250C244.236 250 246.556 252.117 246.556 255.098ZM241.106 252.83C239.903 252.83 238.94 253.65 238.502 254.752H243.361C243.229 253.78 242.529 252.83 241.106 252.83Z" fill="#141413"/>
<path d="M228.815 261.621C226.101 261.621 224.044 260.39 224 257.862L227.305 257.711C227.305 258.402 227.743 258.986 228.749 258.986C229.428 258.986 229.888 258.618 229.888 258.122C229.888 256.653 225.007 256.61 225.007 253.499C225.007 251.404 226.78 250 229.428 250C231.923 250 233.958 251.231 234.002 253.65L230.675 253.78C230.654 253.002 230.194 252.635 229.428 252.635C228.946 252.635 228.443 252.873 228.443 253.391C228.443 254.817 233.389 254.709 233.389 257.862C233.389 260.174 231.507 261.621 228.815 261.621Z" fill="#141413"/>
<path d="M216.044 261.318C213.067 261.318 211.579 259.072 212.104 256.178L213.198 250H216.657L215.584 255.962C215.409 257.042 216.022 258.165 217.357 258.165C218.386 258.165 219.239 257.366 219.414 256.264L220.509 250H223.967L222.019 261.016H219.48L219.152 260.001H219.042C218.451 260.714 217.401 261.318 216.044 261.318Z" fill="#141413"/>
<path d="M212.417 246L211.826 249.434H204.8L204.253 252.566H210.25L209.659 255.85H203.662L202.721 261.12H199L201.692 246H212.417Z" fill="#141413"/>
<path d="M262.671 296.168C260.655 296.168 259.451 294.936 259.381 293.452H261.005C261.047 294.152 261.677 294.74 262.657 294.74C263.623 294.74 264.113 294.264 264.113 293.676C264.113 291.898 259.605 292.668 259.605 289.672C259.605 288.384 260.683 287.292 262.545 287.292C264.295 287.292 265.513 288.426 265.597 289.938H263.987C263.917 289.196 263.357 288.72 262.545 288.72C261.677 288.72 261.229 289.182 261.229 289.7C261.229 291.38 265.737 290.582 265.737 293.648C265.737 295.062 264.617 296.168 262.671 296.168Z" fill="#141413"/>
<path d="M255.028 296.168C253.222 296.168 252.018 294.852 252.018 293.452H253.628C253.67 294.124 254.16 294.642 255.014 294.642C255.882 294.642 256.414 294.068 256.414 293.032V287.46H258.038V293.018C258.038 294.852 256.82 296.168 255.028 296.168Z" fill="#141413"/>
<path d="M250.451 296.168C249.891 296.168 249.471 295.734 249.471 295.188C249.471 294.642 249.891 294.222 250.451 294.222C251.011 294.222 251.431 294.642 251.431 295.188C251.431 295.734 251.011 296.168 250.451 296.168Z" fill="#141413"/>
<path d="M247.223 296H245.599V288.972H243.051V287.46H249.771V288.972H247.223V296Z" fill="#141413"/>
<path d="M240.032 291.646L242.804 296H240.956L238.968 292.738L236.966 296H235.16L237.946 291.646L235.314 287.46H237.162L239.01 290.54L240.844 287.46H242.65L240.032 291.646Z" fill="#141413"/>
<path d="M230.215 292.332V294.502H234.583V296H228.591V287.46H234.443V288.958H230.215V290.89H234.121V292.332H230.215Z" fill="#141413"/>
<path d="M225.044 293.396V287.46H226.626V296H225.156L221.082 290.078V296H219.5V287.46H220.97L225.044 293.396Z" fill="#141413"/>
<path d="M200.928 296H199.08L197.302 292.976H195.79V296H194.166V287.46H197.68C199.5 287.46 200.704 288.622 200.704 290.218C200.704 291.45 199.976 292.36 198.912 292.752L200.928 296ZM197.652 288.944H195.79V291.534H197.652C198.534 291.534 199.08 291.044 199.08 290.232C199.08 289.434 198.534 288.944 197.652 288.944Z" fill="#141413"/>
<path d="M188.417 296.168C186.051 296.168 184.133 294.194 184.133 291.73C184.133 289.266 186.051 287.292 188.417 287.292C190.783 287.292 192.701 289.266 192.701 291.73C192.701 294.194 190.783 296.168 188.417 296.168ZM188.417 294.642C189.915 294.642 191.077 293.424 191.077 291.73C191.077 290.036 189.915 288.818 188.417 288.818C186.933 288.818 185.757 290.036 185.757 291.73C185.757 293.424 186.933 294.642 188.417 294.642Z" fill="#141413"/>
<path d="M183.542 287.46V288.958H179.356V291.254H183.066V292.696H179.356V296H177.732V287.46H183.542Z" fill="#141413"/>
<path d="M315.334 282H313.486L311.708 278.976H310.196V282H308.572V273.46H312.086C313.906 273.46 315.11 274.622 315.11 276.218C315.11 277.45 314.382 278.36 313.318 278.752L315.334 282ZM312.058 274.944H310.196V277.534H312.058C312.94 277.534 313.486 277.044 313.486 276.232C313.486 275.434 312.94 274.944 312.058 274.944Z" fill="#141413"/>
<path d="M302.717 278.332V280.502H307.085V282H301.093V273.46H306.945V274.958H302.717V276.89H306.623V278.332H302.717Z" fill="#141413"/>
<path d="M296.414 277.254L298.402 273.46H300.124L297.184 278.808V282H295.56V278.808L292.62 273.46H294.412L296.414 277.254Z" fill="#141413"/>
<path d="M293.25 282H291.556L290.898 280.166H287.356L286.698 282H285.032L288.294 273.46H290.002L293.25 282ZM290.38 278.71L289.12 275.168L287.874 278.71H290.38Z" fill="#141413"/>
<path d="M284.972 282H279.218V273.46H280.842V280.53H284.972V282Z" fill="#141413"/>
<path d="M278.279 282H276.585L275.927 280.166H272.385L271.727 282H270.061L273.323 273.46H275.031L278.279 282ZM275.409 278.71L274.149 275.168L272.903 278.71H275.409Z" fill="#141413"/>
<path d="M268.223 282H266.599V274.972H264.051V273.46H270.771V274.972H268.223V282Z" fill="#141413"/>
<path d="M264.471 282H262.777L262.119 280.166H258.577L257.919 282H256.253L259.515 273.46H261.223L264.471 282ZM261.601 278.71L260.341 275.168L259.095 278.71H261.601Z" fill="#141413"/>
<path d="M251.624 282H248.88V273.46H251.624C254.228 273.46 256.09 275.28 256.09 277.73C256.09 280.18 254.228 282 251.624 282ZM250.504 274.972V280.488H251.624C253.276 280.488 254.466 279.326 254.466 277.73C254.466 276.134 253.276 274.972 251.624 274.972H250.504Z" fill="#141413"/>
<path d="M239.567 278.332V280.502H243.935V282H237.943V273.46H243.795V274.958H239.567V276.89H243.473V278.332H239.567Z" fill="#141413"/>
<path d="M232.495 282.168C230.129 282.168 228.211 280.194 228.211 277.73C228.211 275.266 230.129 273.292 232.495 273.292C234.735 273.292 236.149 274.874 236.499 276.512H234.833C234.553 275.672 233.811 274.818 232.495 274.818C231.011 274.818 229.835 276.036 229.835 277.73C229.835 279.424 231.011 280.642 232.495 280.642C233.867 280.642 234.609 279.774 234.889 278.948H236.555C236.205 280.6 234.805 282.168 232.495 282.168Z" fill="#141413"/>
<path d="M227.424 282H225.576L223.798 278.976H222.286V282H220.662V273.46H224.176C225.996 273.46 227.2 274.622 227.2 276.218C227.2 277.45 226.472 278.36 225.408 278.752L227.424 282ZM224.148 274.944H222.286V277.534H224.148C225.03 277.534 225.576 277.044 225.576 276.232C225.576 275.434 225.03 274.944 224.148 274.944Z" fill="#141413"/>
<path d="M215.22 282.168C213.12 282.168 211.664 280.656 211.664 278.542V273.46H213.288V278.542C213.288 279.844 214.044 280.642 215.22 280.642C216.396 280.642 217.152 279.844 217.152 278.542V273.46H218.776V278.542C218.776 280.656 217.32 282.168 215.22 282.168Z" fill="#141413"/>
<path d="M205.985 282.168C203.619 282.168 201.701 280.194 201.701 277.73C201.701 275.266 203.619 273.292 205.985 273.292C208.351 273.292 210.269 275.266 210.269 277.73C210.269 280.194 208.351 282.168 205.985 282.168ZM205.985 280.642C207.483 280.642 208.645 279.424 208.645 277.73C208.645 276.036 207.483 274.818 205.985 274.818C204.501 274.818 203.325 276.036 203.325 277.73C203.325 279.424 204.501 280.642 205.985 280.642Z" fill="#141413"/>
<path d="M197.634 282.168C195.618 282.168 194.414 280.936 194.344 279.452H195.968C196.01 280.152 196.64 280.74 197.62 280.74C198.586 280.74 199.076 280.264 199.076 279.676C199.076 277.898 194.568 278.668 194.568 275.672C194.568 274.384 195.646 273.292 197.508 273.292C199.258 273.292 200.476 274.426 200.56 275.938H198.95C198.88 275.196 198.32 274.72 197.508 274.72C196.64 274.72 196.192 275.182 196.192 275.7C196.192 277.38 200.7 276.582 200.7 279.648C200.7 281.062 199.58 282.168 197.634 282.168Z" fill="#141413"/>
<path d="M193.334 278.934H188.756V277.548H193.334V278.934Z" fill="#141413"/>
<path d="M185.614 279.396V273.46H187.196V282H185.726L181.652 276.078V282H180.07V273.46H181.54L185.614 279.396Z" fill="#141413"/>
<path d="M174.215 278.332V280.502H178.583V282H172.591V273.46H178.443V274.958H174.215V276.89H178.121V278.332H174.215Z" fill="#141413"/>
<path d="M164.867 273.46H168.157C169.935 273.46 171.223 274.706 171.223 276.316C171.223 277.94 169.935 279.186 168.157 279.186H166.491V282H164.867V273.46ZM166.491 277.688H168.129C168.997 277.688 169.599 277.114 169.599 276.316C169.599 275.546 168.997 274.958 168.129 274.958H166.491V277.688Z" fill="#141413"/>
<path d="M159.118 282.168C156.752 282.168 154.834 280.194 154.834 277.73C154.834 275.266 156.752 273.292 159.118 273.292C161.484 273.292 163.402 275.266 163.402 277.73C163.402 280.194 161.484 282.168 159.118 282.168ZM159.118 280.642C160.616 280.642 161.778 279.424 161.778 277.73C161.778 276.036 160.616 274.818 159.118 274.818C157.634 274.818 156.458 276.036 156.458 277.73C156.458 279.424 157.634 280.642 159.118 280.642Z" fill="#141413"/>
<path d="M146.01 278.332V280.502H150.378V282H144.386V273.46H150.238V274.958H146.01V276.89H149.916V278.332H146.01Z" fill="#141413"/>
<path d="M140.807 276.862V273.46H142.431V282H140.807V278.374H137.055V282H135.431V273.46H137.055V276.862H140.807Z" fill="#141413"/>
<path d="M131.723 282H130.099V274.972H127.551V273.46H134.271V274.972H131.723V282Z" fill="#141413"/>
<g clip-path="url(#clip3_760_7011)">
<mask id="mask0_760_7011" style="mask-type:alpha" maskUnits="userSpaceOnUse" x="204" y="285" width="12" height="12">
<path d="M210 297C213.314 297 216 294.314 216 291C216 287.686 213.314 285 210 285C206.686 285 204 287.686 204 291C204 294.314 206.686 297 210 297Z" fill="black"/>
</mask>
<g mask="url(#mask0_760_7011)">
<path d="M210 297C213.314 297 216 294.314 216 291C216 287.686 213.314 285 210 285C206.686 285 204 287.686 204 291C204 294.314 206.686 297 210 297Z" fill="black"/>
<path d="M214.367 295.901L209.009 289H208V293.798H208.808V290.026L213.733 296.39C213.955 296.241 214.167 296.078 214.367 295.901Z" fill="url(#paint1_linear_760_7011)"/>
<path d="M212.8 289H212V293.8H212.8V289Z" fill="url(#paint2_linear_760_7011)"/>
</g>
</g>
</g>
<rect x="107.5" y="228.5" width="228" height="85" rx="10.1628" stroke="#B0CB01"/>
</g>
<rect width="2" height="132" transform="matrix(-4.37114e-08 1 1 4.37114e-08 151 201)" fill="#1A1A19"/>
<line x1="150.099" y1="202.015" x2="289.799" y2="202.015" stroke="url(#paint3_linear_760_7011)" stroke-width="2" stroke-dasharray="4 4"/>
<path d="M92.986 158.191L92.986 161.184C92.986 167.091 97.7886 171.873 103.696 171.847L188.123 171.475C194.03 171.449 198.833 176.231 198.833 182.138L198.833 200.532" stroke="#92928C" stroke-width="2" stroke-linecap="square" stroke-dasharray="3.55 3.55"/>
<path d="M351.846 158.191L351.846 157.191L349.846 157.191L349.846 158.191L351.846 158.191ZM340.136 171.846L340.14 170.846L340.136 171.846ZM257.982 171.476L257.986 170.476L257.982 171.476ZM349.846 158.191L349.846 158.939L351.846 158.939L351.846 158.191L349.846 158.191ZM349.846 160.435L349.846 161.183L351.846 161.183L351.846 160.435L349.846 160.435ZM349.846 161.183C349.846 161.832 349.783 162.464 349.661 163.075L351.623 163.465C351.77 162.726 351.846 161.963 351.846 161.183L349.846 161.183ZM348.21 166.565C347.501 167.621 346.588 168.529 345.529 169.234L346.637 170.899C347.915 170.049 349.015 168.954 349.87 167.68L348.21 166.565ZM342.033 170.669C341.422 170.788 340.789 170.849 340.14 170.846L340.131 172.846C340.911 172.849 341.674 172.776 342.414 172.633L342.033 170.669ZM340.14 170.846L338.429 170.838L338.42 172.838L340.131 172.846L340.14 170.846ZM335.006 170.823L331.582 170.807L331.573 172.807L334.997 172.823L335.006 170.823ZM328.159 170.792L324.736 170.777L324.727 172.777L328.15 172.792L328.159 170.792ZM321.313 170.761L317.89 170.746L317.881 172.746L321.304 172.761L321.313 170.761ZM314.467 170.73L311.044 170.715L311.035 172.715L314.458 172.73L314.467 170.73ZM307.621 170.7L304.198 170.684L304.189 172.684L307.612 172.7L307.621 170.7ZM300.775 170.669L297.352 170.653L297.343 172.653L300.766 172.669L300.775 170.669ZM293.929 170.638L290.505 170.623L290.496 172.623L293.92 172.638L293.929 170.638ZM287.082 170.607L283.659 170.592L283.65 172.592L287.073 172.607L287.082 170.607ZM280.236 170.576L276.813 170.561L276.804 172.561L280.227 172.576L280.236 170.576ZM273.39 170.546L269.967 170.53L269.958 172.53L273.381 172.546L273.39 170.546ZM266.544 170.515L263.121 170.5L263.112 172.499L266.535 172.515L266.544 170.515ZM259.698 170.484L257.986 170.476L257.977 172.476L259.689 172.484L259.698 170.484ZM257.986 170.476C257.206 170.473 256.443 170.546 255.704 170.689L256.084 172.653C256.696 172.534 257.329 172.473 257.977 172.476L257.986 170.476ZM251.48 172.423C250.203 173.273 249.103 174.368 248.247 175.642L249.907 176.757C250.616 175.701 251.529 174.793 252.588 174.088L251.48 172.423ZM246.494 179.858C246.348 180.596 246.271 181.359 246.271 182.139L248.271 182.139C248.271 181.491 248.335 180.858 248.456 180.247L246.494 179.858ZM246.271 182.139L246.271 183.672L248.271 183.672L248.271 182.139L246.271 182.139ZM246.271 186.737L246.271 189.803L248.271 189.803L248.271 186.737L246.271 186.737ZM246.271 192.868L246.271 195.934L248.271 195.934L248.271 192.868L246.271 192.868ZM246.271 199L246.271 200.532L248.271 200.532L248.271 199L246.271 199Z" fill="#92928C"/>
<path d="M223.144 201.158C223.144 192.782 223.144 188.085 223.144 179.709L223.144 157.372" stroke="#92928C" stroke-width="2" stroke-linecap="square" stroke-dasharray="3.55 3.55"/>
<path d="M198.825 203.317L198.825 217.312M206.23 210.744L198.844 218.13L191.458 210.744" stroke="#92928C" stroke-width="2" stroke-linecap="square"/>
<g clip-path="url(#clip4_760_7011)">
<path d="M223.144 204.135L223.144 218.13" stroke="#92928C" stroke-width="2" stroke-linecap="square" stroke-linejoin="round"/>
<path d="M230.549 211.563L223.163 218.949L215.777 211.563" stroke="#92928C" stroke-width="2" stroke-linecap="square"/>
</g>
<g clip-path="url(#clip5_760_7011)">
<path d="M247.213 203.833L247.213 217.828" stroke="#92928C" stroke-width="2" stroke-linecap="square" stroke-linejoin="round"/>
<path d="M254.599 211.441L247.213 218.828L239.827 211.441" stroke="#92928C" stroke-width="2" stroke-linecap="square"/>
</g>
<g clip-path="url(#clip6_760_7011)">
<path d="M92.9862 157.451L92.9862 143.456" stroke="#92928C" stroke-width="2" stroke-linecap="square" stroke-linejoin="round"/>
<path d="M100.391 150.023L93.0049 142.637L85.6187 150.023" stroke="#92928C" stroke-width="2" stroke-linecap="square"/>
</g>
<g clip-path="url(#clip7_760_7011)">
<path d="M223.144 157.451L223.144 143.456" stroke="#92928C" stroke-width="2" stroke-linecap="square" stroke-linejoin="round"/>
<path d="M230.549 150.023L223.163 142.637L215.777 150.023" stroke="#92928C" stroke-width="2" stroke-linecap="square"/>
</g>
<g clip-path="url(#clip8_760_7011)">
<path d="M350.847 157.451L350.847 143.456" stroke="#92928C" stroke-width="2" stroke-linecap="square" stroke-linejoin="round"/>
<path d="M358.251 150.023L350.865 142.637L343.479 150.023" stroke="#92928C" stroke-width="2" stroke-linecap="square"/>
</g>
<rect x="0.888571" y="37.8886" width="446.223" height="94.2229" rx="15.1114" fill="#141413"/>
<rect x="0.888571" y="37.8886" width="446.223" height="94.2229" rx="15.1114" stroke="#222221" stroke-width="1.77714" stroke-dasharray="3.55 3.55"/>
<rect x="6.44429" y="43.4443" width="141.778" height="83.1114" rx="9.55571" fill="#191918"/>
<rect x="6.44429" y="43.4443" width="141.778" height="83.1114" rx="9.55571" stroke="#222221" stroke-width="0.888571"/>
<path d="M56.9584 92.7669C57.3533 93.2785 57.8665 93.6922 58.4563 93.9746C59.0942 94.2823 59.7982 94.4378 60.51 94.4285C61.0856 94.4432 61.6585 94.348 62.1965 94.1484C62.6268 93.9837 63.011 93.7222 63.3175 93.3852C63.6052 93.0569 63.8152 92.671 63.9327 92.2548C64.0608 91.8051 64.1242 91.3402 64.1211 90.8735V89.2506H64.0815C63.7085 89.8263 63.1704 90.2831 62.5337 90.5644C61.9266 90.8218 61.2712 90.9533 60.6091 90.9508C59.9603 90.9556 59.3168 90.8374 58.7143 90.6031C58.1439 90.3825 57.6219 90.0579 57.1765 89.6466C56.7346 89.2335 56.3835 88.7371 56.1447 88.1877C55.8906 87.6077 55.7623 86.9829 55.7678 86.3523C55.7623 85.7236 55.8837 85.0999 56.125 84.5168C56.3532 83.9651 56.6864 83.4603 57.1071 83.0291C57.5277 82.6015 58.0343 82.2628 58.5952 82.0341C59.1955 81.7911 59.8402 81.6695 60.4902 81.6766C60.7861 81.6783 61.0814 81.7041 61.373 81.7538C61.6936 81.8084 62.0066 81.8992 62.3056 82.0244C63.0154 82.324 63.629 82.8047 64.0815 83.4157H64.1211V81.9084H65.4308V90.8735C65.4263 91.4003 65.3631 91.925 65.2422 92.4385C65.1158 92.9936 64.8651 93.5148 64.5081 93.9648C64.1019 94.4612 63.5821 94.8583 62.9902 95.1242C62.3419 95.4332 61.4953 95.5877 60.4503 95.5877C59.6015 95.6018 58.7583 95.4507 57.9702 95.1434C57.2162 94.8289 56.5398 94.3612 55.9862 93.7718L56.9584 92.7669ZM57.1964 86.3138C57.1931 86.7743 57.2842 87.2307 57.4643 87.6565C57.6361 88.0651 57.885 88.4386 58.1983 88.7577C58.5097 89.074 58.8801 89.3298 59.2896 89.5113C59.7163 89.7002 60.1802 89.7958 60.6488 89.7915C61.5769 89.7947 62.4712 89.4526 63.1488 88.8352C63.4816 88.5294 63.7423 88.1568 63.9128 87.7433C64.0966 87.2888 64.1811 86.8019 64.1609 86.3138C64.1643 85.8559 64.0836 85.4011 63.9227 84.9708C63.7699 84.5619 63.5336 84.1873 63.2282 83.8696C62.9143 83.5475 62.5362 83.2912 62.1171 83.1161C61.6531 82.924 61.153 82.8286 60.6488 82.8359C60.1802 82.8317 59.7163 82.9273 59.2896 83.1161C58.8802 83.2978 58.5099 83.5535 58.1983 83.8696C57.8851 84.1888 57.6361 84.5623 57.4642 84.9708C57.2842 85.3967 57.1931 85.8533 57.1964 86.3138ZM70.7679 90.9508H69.3394V77.2713H73.6649C75.0935 77.2713 76.2211 77.574 77.0478 78.1794C77.8745 78.785 78.2879 79.6995 78.2881 80.923C78.3132 81.8111 77.9823 82.6738 77.3654 83.3284C76.7502 83.979 75.8606 84.3558 74.6967 84.4587L78.7444 90.9508H76.9982L73.1491 84.5941H70.7681L70.7679 90.9508ZM70.7679 83.3189H73.3078C73.8535 83.3301 74.398 83.265 74.9248 83.1256C75.3101 83.0253 75.6709 82.8513 75.9864 82.6137C76.2409 82.4143 76.4389 82.155 76.5617 81.8602C76.6824 81.5619 76.7431 81.2437 76.7403 80.923C76.7418 80.6088 76.6811 80.2973 76.5617 80.0054C76.4375 79.7087 76.2398 79.4465 75.9864 79.2421C75.674 78.9998 75.3121 78.8252 74.9248 78.7301C74.3968 78.5977 73.8528 78.536 73.3078 78.5466H70.7679V83.3189ZM81.2044 77.2713H85.292C86.7205 77.2713 87.8481 77.574 88.6748 78.1795C89.5015 78.7851 89.9149 79.6996 89.915 80.9232C89.915 82.147 89.5016 83.0647 88.6748 83.6763C87.8481 84.2883 86.7205 84.5942 85.292 84.5941H82.6332V90.9508H81.2044V77.2713ZM82.6334 83.319H84.935C85.4808 83.3302 86.0253 83.2651 86.5521 83.1258C86.9373 83.0254 87.2982 82.8514 87.6137 82.6139C87.8681 82.4144 88.0661 82.1551 88.189 81.8604C88.3097 81.562 88.3704 81.2438 88.3676 80.9232C88.3691 80.6089 88.3085 80.2974 88.189 80.0055C88.0647 79.7088 87.8671 79.4466 87.6137 79.2422C87.3012 79 86.9393 78.8254 86.5521 78.7302C86.0241 78.5979 85.4801 78.5361 84.935 78.5467H82.6332L82.6334 83.319ZM104.26 88.7868C104.009 89.1495 103.712 89.4805 103.378 89.7723C103.015 90.0894 102.611 90.3589 102.177 90.5739C101.713 90.8045 101.224 90.9828 100.719 91.1054C100.177 91.2364 99.6202 91.3013 99.0617 91.2986C98.0656 91.3076 97.0776 91.1238 96.1551 90.7577C94.3958 90.0654 93.0022 88.7049 92.2958 86.99C91.9178 86.0753 91.729 85.0969 91.7404 84.111C91.729 83.1251 91.9178 82.1468 92.2958 81.2321C93.0022 79.5173 94.3958 78.1568 96.1551 77.4647C97.0776 77.0985 98.0656 76.9146 99.0617 76.9237C99.9596 76.9283 100.848 77.0988 101.681 77.4259C102.569 77.772 103.344 78.3463 103.923 79.0876L102.673 79.9957C102.505 79.7521 102.305 79.5312 102.078 79.3387C101.815 79.1124 101.525 78.9178 101.215 78.7592C100.883 78.589 100.534 78.453 100.173 78.3535C99.8118 78.2517 99.4377 78.1997 99.0617 78.1988C98.2283 78.1855 97.402 78.3504 96.6411 78.6819C95.9508 78.9869 95.3328 79.4275 94.8257 79.9763C94.3239 80.5266 93.9364 81.1664 93.6846 81.8602C93.1556 83.3166 93.1556 84.9055 93.6846 86.3618C93.9364 87.0557 94.3239 87.6955 94.8257 88.2457C95.3326 88.7946 95.9507 89.2354 96.6411 89.5402C97.4019 89.8719 98.2283 90.0368 99.0617 90.0234C99.4311 90.0235 99.7997 89.9912 100.163 89.9267C100.533 89.8606 100.893 89.7502 101.235 89.5983C101.595 89.4373 101.929 89.2257 102.227 88.9702C102.561 88.6796 102.851 88.3447 103.09 87.9754L104.26 88.7868Z" fill="white"/>
<path d="M54.1085 81.769L50.4087 78.193L54.0811 74.5903L57.7808 78.1663L54.1085 81.769Z" fill="url(#paint4_linear_760_7011)"/>
<path d="M64.0625 80.1548L61.8924 78.0573L64.0464 75.9441L66.2165 78.0416L64.0625 80.1548Z" fill="url(#paint5_linear_760_7011)"/>
<path d="M54.6738 76.1228L52.4499 78.3046L54.6904 80.4702L56.5858 80.4633L54.5981 78.5434L64.4131 78.508L63.5528 79.3512L64.5006 79.3479L65.6126 78.257L64.4923 77.1743L63.5446 77.1776L64.4113 78.0149L54.5964 78.0503L56.5691 76.116L54.6738 76.1228Z" fill="#244B5A"/>
<rect x="153.111" y="43.4443" width="141.778" height="83.1114" rx="9.55571" fill="#191918"/>
<rect x="153.111" y="43.4443" width="141.778" height="83.1114" rx="9.55571" stroke="#222221" stroke-width="0.888571"/>
<path d="M234.957 68.338V71.9034C234.957 72.7606 235.392 73.1503 236.419 73.1503V74.9037C235.392 74.9037 234.957 75.2934 234.957 76.1506V79.716C234.957 81.7617 233.852 82.7942 231.699 82.7942H230.554V80.8265H231.541C232.371 80.8265 232.864 80.3784 232.864 79.5017V75.9948C232.864 74.7868 233.575 74.2413 234.227 74.027C233.575 73.8127 232.864 73.2672 232.864 72.0592V68.5524C232.864 67.6756 232.371 67.2275 231.541 67.2275H230.554V65.2598H231.699C233.852 65.2598 234.957 66.2924 234.957 68.338Z" fill="#51AC9D"/>
<path d="M223.658 71.2645C222.868 71.2645 222.275 70.6605 222.275 69.9007C222.275 69.1409 222.868 68.5564 223.658 68.5564C224.447 68.5564 225.04 69.1409 225.04 69.9007C225.04 70.6605 224.447 71.2645 223.658 71.2645ZM223.658 78.6485C222.868 78.6485 222.275 78.0445 222.275 77.2847C222.275 76.5248 222.868 75.9404 223.658 75.9404C224.447 75.9404 225.04 76.5248 225.04 77.2847C225.04 78.0445 224.447 78.6485 223.658 78.6485Z" fill="#51AC9D"/>
<path d="M214.451 68.5521V72.059C214.451 73.2669 213.72 73.8125 213.068 74.0268C213.72 74.2411 214.451 74.7866 214.451 75.9945V79.5014C214.451 80.3781 214.944 80.8262 215.754 80.8262H216.741V82.794H215.616C213.463 82.794 212.358 81.7614 212.358 79.7157V76.1504C212.358 75.2931 211.923 74.9035 210.896 74.9035V73.15C211.923 73.15 212.358 72.7604 212.358 71.9031V68.3378C212.358 66.2921 213.463 65.2595 215.616 65.2595H216.761V67.2273H215.754C214.944 67.2273 214.451 67.6754 214.451 68.5521Z" fill="#51AC9D"/>
<path d="M236.786 92.1177V100.246C236.786 100.598 236.871 100.864 237.042 101.046C237.213 101.216 237.463 101.302 237.794 101.302H239.026V102.518H237.794C237.026 102.518 236.434 102.32 236.018 101.926C235.613 101.531 235.41 100.971 235.41 100.246V92.1177H236.786ZM239.058 94.0377V95.2537H234.178V94.0377H239.058Z" fill="#BCBCB8"/>
<path d="M231.426 96.6617C231.33 96.203 231.08 95.8404 230.674 95.5737C230.28 95.2964 229.842 95.1577 229.362 95.1577C228.882 95.1577 228.482 95.275 228.162 95.5097C227.842 95.7337 227.682 96.0377 227.682 96.4217C227.682 96.795 227.869 97.083 228.242 97.2857C228.626 97.4884 229.106 97.6484 229.682 97.7657C230.408 97.9044 231.005 98.0697 231.474 98.2617C231.954 98.443 232.333 98.7044 232.61 99.0457C232.888 99.3764 233.026 99.8137 233.026 100.358C233.026 100.88 232.866 101.318 232.546 101.67C232.226 102.022 231.816 102.283 231.314 102.454C230.813 102.624 230.28 102.71 229.714 102.71C229.042 102.71 228.434 102.592 227.89 102.358C227.346 102.123 226.909 101.792 226.578 101.366C226.258 100.928 226.077 100.422 226.034 99.8457L227.474 99.7497C227.538 100.091 227.666 100.384 227.858 100.63C228.05 100.875 228.301 101.067 228.61 101.206C228.93 101.334 229.298 101.398 229.714 101.398C230.205 101.398 230.637 101.312 231.01 101.142C231.394 100.96 231.586 100.672 231.586 100.278C231.586 100 231.506 99.7817 231.346 99.6217C231.186 99.4617 230.994 99.3444 230.77 99.2697C230.546 99.195 230.232 99.115 229.826 99.0297C229.741 99.019 229.613 98.9924 229.442 98.9497C228.781 98.8004 228.232 98.6457 227.794 98.4857C227.357 98.315 226.989 98.0697 226.69 97.7497C226.392 97.4297 226.242 97.0137 226.242 96.5017C226.242 95.9684 226.376 95.5044 226.642 95.1097C226.92 94.7044 227.304 94.395 227.794 94.1817C228.285 93.9577 228.856 93.8457 229.506 93.8457C230.36 93.8457 231.096 94.0964 231.714 94.5977C232.344 95.0884 232.728 95.7444 232.866 96.5657L231.426 96.6617Z" fill="#BCBCB8"/>
<path d="M216.941 98.2777C216.941 97.3817 217.101 96.603 217.421 95.9417C217.741 95.2697 218.194 94.7524 218.781 94.3897C219.367 94.027 220.05 93.8457 220.829 93.8457C221.479 93.8457 222.071 93.995 222.605 94.2937C223.149 94.5817 223.591 95.0457 223.933 95.6857C224.274 96.315 224.466 97.115 224.509 98.0857L224.525 98.7097H218.397C218.461 99.563 218.701 100.224 219.117 100.694C219.543 101.163 220.114 101.398 220.829 101.398C221.287 101.398 221.703 101.275 222.077 101.03C222.45 100.784 222.733 100.443 222.925 100.006L224.397 100.118C224.151 100.907 223.698 101.536 223.037 102.006C222.386 102.475 221.65 102.71 220.829 102.71C220.05 102.71 219.367 102.528 218.781 102.166C218.194 101.803 217.741 101.291 217.421 100.63C217.101 99.9577 216.941 99.1737 216.941 98.2777ZM223.021 97.4937C222.903 96.6724 222.647 96.0804 222.253 95.7177C221.858 95.3444 221.383 95.1577 220.829 95.1577C220.167 95.1577 219.629 95.3604 219.213 95.7657C218.807 96.171 218.546 96.747 218.429 97.4937H223.021Z" fill="#BCBCB8"/>
<path d="M211.449 91.1577C212.239 91.1577 212.921 91.2964 213.497 91.5737C214.084 91.851 214.532 92.251 214.841 92.7737C215.161 93.2964 215.321 93.9044 215.321 94.5977C215.321 95.0884 215.204 95.5364 214.969 95.9417C214.745 96.347 214.447 96.6724 214.073 96.9177C213.711 97.1524 213.337 97.2804 212.953 97.3017L212.457 97.1577C213.364 97.1577 214.015 97.307 214.409 97.6057C214.804 97.9044 215.039 98.427 215.113 99.1737L215.433 102.518H214.009L213.721 99.3177C213.679 98.8164 213.471 98.4644 213.097 98.2617C212.735 98.059 212.137 97.9577 211.305 97.9577H208.537V102.518H207.129V91.1577H211.449ZM211.449 96.5817C212.217 96.5817 212.809 96.411 213.225 96.0697C213.641 95.7177 213.849 95.2164 213.849 94.5657C213.849 93.915 213.641 93.4137 213.225 93.0617C212.809 92.7097 212.217 92.5337 211.449 92.5337H208.537V96.5817H211.449Z" fill="#BCBCB8"/>
<rect x="299.778" y="43.4443" width="141.778" height="83.1114" rx="9.55571" fill="#191918"/>
<rect x="299.778" y="43.4443" width="141.778" height="83.1114" rx="9.55571" stroke="#222221" stroke-width="0.888571"/>
<g clip-path="url(#clip9_760_7011)">
<path d="M373.001 63.2157C372.638 63.4295 372.036 64.0318 371.317 64.9127L371.977 66.1562C372.444 65.4956 372.91 64.8997 373.383 64.3881C373.422 64.3492 373.441 64.3298 373.441 64.3298C373.422 64.3492 373.402 64.3686 373.383 64.3881C373.227 64.5565 372.761 65.1005 372.062 66.1821C372.742 66.1498 373.778 66.0073 374.626 65.8648C374.879 64.4528 374.38 63.8051 374.38 63.8051C374.38 63.8051 373.746 62.7753 373.001 63.2157Z" fill="url(#paint6_linear_760_7011)"/>
<path d="M370.779 73.6758C370.695 73.6887 370.611 73.7082 370.52 73.7211C370.565 73.7146 370.611 73.7082 370.65 73.7017C370.689 73.6952 370.74 73.6823 370.779 73.6758Z" fill="#BE202E"/>
<path opacity="0.35" d="M370.779 73.6758C370.695 73.6887 370.611 73.7082 370.52 73.7211C370.565 73.7146 370.611 73.7082 370.65 73.7017C370.689 73.6952 370.74 73.6823 370.779 73.6758Z" fill="#BE202E"/>
<path d="M371 72.5877C371.012 72.5877 371.025 72.5812 371.038 72.5812C371.097 72.5747 371.148 72.5618 371.2 72.5488C371.142 72.5618 371.071 72.5747 371 72.5877Z" fill="#BE202E"/>
<path opacity="0.35" d="M371 72.5877C371.012 72.5877 371.025 72.5812 371.038 72.5812C371.097 72.5747 371.148 72.5618 371.2 72.5488C371.142 72.5618 371.071 72.5747 371 72.5877Z" fill="#BE202E"/>
<path d="M370.028 69.375C370.229 68.9994 370.429 68.6367 370.637 68.274C370.85 67.9048 371.064 67.5421 371.284 67.1988C371.297 67.1794 371.31 67.1599 371.323 67.134C371.537 66.7908 371.757 66.4669 371.977 66.1496L371.317 64.906C371.265 64.9643 371.22 65.0291 371.168 65.0938C370.98 65.3335 370.779 65.5861 370.578 65.8581C370.352 66.1625 370.112 66.4864 369.879 66.8296C369.659 67.147 369.439 67.4773 369.212 67.8206C369.024 68.112 368.83 68.41 368.642 68.7209C368.635 68.7338 368.629 68.7468 368.622 68.7532L369.484 70.4502C369.659 70.0875 369.84 69.7248 370.028 69.375Z" fill="url(#paint7_linear_760_7011)"/>
<path d="M366.116 78.935C365.999 79.2459 365.889 79.5633 365.773 79.8936C365.773 79.9001 365.766 79.9001 365.766 79.9066C365.747 79.9519 365.734 79.9972 365.714 80.0426C365.637 80.2628 365.572 80.4571 365.416 80.9105C365.669 81.027 365.87 81.3315 366.064 81.6747C366.045 81.3185 365.896 80.9817 365.617 80.7226C366.867 80.7809 367.936 80.4636 368.493 79.5503C368.545 79.4661 368.59 79.3819 368.629 79.2913C368.376 79.6086 368.065 79.7446 367.476 79.7123C367.476 79.7123 367.476 79.7123 367.47 79.7123C367.47 79.7123 367.47 79.7123 367.476 79.7123C368.344 79.3236 368.778 78.9545 369.166 78.3327C369.257 78.1837 369.348 78.0283 369.438 77.8469C368.681 78.6241 367.8 78.8508 366.874 78.6824L366.181 78.7602C366.161 78.812 366.142 78.8767 366.116 78.935Z" fill="url(#paint8_linear_760_7011)"/>
<path d="M366.44 77.3741C366.589 76.9855 366.744 76.5969 366.906 76.1953C367.055 75.8132 367.217 75.4375 367.372 75.0489C367.534 74.6668 367.696 74.2781 367.865 73.896C368.033 73.5074 368.208 73.1123 368.383 72.7237C368.558 72.3416 368.733 71.9594 368.914 71.5773C368.979 71.4413 369.043 71.3053 369.108 71.1693C369.225 70.9361 369.335 70.7029 369.452 70.4698C369.458 70.4568 369.464 70.4439 369.471 70.4309L368.616 68.7534C368.603 68.7793 368.59 68.7988 368.577 68.8247C368.376 69.1485 368.176 69.4853 367.981 69.8286C367.78 70.1718 367.593 70.5216 367.398 70.8778C367.236 71.1758 367.081 71.4802 366.932 71.7846C366.9 71.8493 366.874 71.9076 366.841 71.9724C366.654 72.3545 366.485 72.7302 366.33 73.0864C366.155 73.4945 366.006 73.8766 365.87 74.2458C365.779 74.4854 365.701 74.7186 365.63 74.9453C365.572 75.1396 365.514 75.3274 365.462 75.5217C365.332 75.9686 365.222 76.422 365.131 76.8689L365.993 78.5723C366.109 78.2679 366.226 77.957 366.343 77.6461C366.375 77.5554 366.407 77.4647 366.44 77.3741Z" fill="url(#paint9_linear_760_7011)"/>
<path d="M365.118 76.9207C365.008 77.4648 364.931 78.0088 364.892 78.5464C364.892 78.5658 364.885 78.5853 364.885 78.6047C364.613 78.1708 363.894 77.7498 363.894 77.7562C364.413 78.5075 364.801 79.2459 364.859 79.9778C364.581 80.0361 364.205 79.9519 363.765 79.79C364.218 80.211 364.561 80.3275 364.697 80.3534C364.276 80.3794 363.843 80.6643 363.402 81.0011C364.043 80.7421 364.561 80.6319 364.937 80.7161C364.348 82.3872 363.758 84.2331 363.162 86.1891C363.344 86.1373 363.454 86.0142 363.512 85.8458C363.616 85.4896 364.315 83.1644 365.416 80.1073C365.449 80.0231 365.481 79.9325 365.514 79.8483C365.52 79.8223 365.533 79.7964 365.539 79.777C365.656 79.4532 365.773 79.1293 365.902 78.7925C365.928 78.7148 365.96 78.6436 365.986 78.5658V78.5594L365.125 76.856C365.125 76.8819 365.118 76.9013 365.118 76.9207Z" fill="url(#paint10_linear_760_7011)"/>
<path d="M369.607 70.5929C369.581 70.6447 369.555 70.6965 369.536 70.7483C369.464 70.9038 369.387 71.0592 369.309 71.2211C369.225 71.396 369.141 71.5709 369.056 71.7522C369.011 71.8429 368.972 71.9336 368.927 72.0307C368.797 72.3093 368.668 72.6007 368.538 72.8986C368.376 73.2678 368.208 73.6435 368.046 74.0386C367.884 74.4142 367.722 74.8028 367.56 75.2044C367.405 75.5865 367.243 75.9816 367.087 76.3897C366.945 76.7524 366.802 77.128 366.653 77.5101C366.647 77.5296 366.641 77.549 366.634 77.5684C366.492 77.9506 366.343 78.3392 366.2 78.7407C366.194 78.7472 366.194 78.7602 366.187 78.7666L366.88 78.6889C366.867 78.6889 366.854 78.6825 366.841 78.6825C367.67 78.5788 368.778 77.957 369.49 77.1928C369.821 76.843 370.119 76.422 370.391 75.9363C370.598 75.5736 370.786 75.172 370.974 74.7251C371.135 74.3365 371.291 73.9155 371.44 73.4557C371.252 73.5593 371.032 73.6305 370.792 73.6823C370.753 73.6888 370.708 73.7018 370.663 73.7082C370.617 73.7147 370.572 73.7212 370.533 73.7277C371.31 73.4297 371.796 72.8533 372.152 72.1473C371.952 72.2833 371.615 72.4712 371.22 72.5554C371.168 72.5683 371.11 72.5748 371.058 72.5878C371.045 72.5878 371.032 72.5942 371.019 72.5942C371.284 72.4841 371.518 72.3546 371.712 72.2056C371.751 72.1732 371.796 72.1409 371.835 72.1085C371.893 72.0567 371.952 72.0048 372.003 71.9466C372.036 71.9077 372.075 71.8753 372.107 71.83C372.185 71.7393 372.256 71.6421 372.321 71.532C372.34 71.4996 372.36 71.4673 372.379 71.4284C372.405 71.3766 372.431 71.3313 372.45 71.2794C372.56 71.0592 372.645 70.8649 372.716 70.6965C372.748 70.6123 372.781 70.5346 372.806 70.4569C372.819 70.431 372.826 70.3986 372.839 70.3727C372.865 70.2885 372.891 70.2172 372.904 70.1525C372.93 70.0553 372.942 69.9841 372.955 69.9258C372.93 69.9452 372.897 69.9646 372.865 69.9905C372.632 70.133 372.23 70.2561 371.906 70.3144C371.9 70.3144 371.893 70.3144 371.893 70.3144C371.861 70.3209 371.828 70.3273 371.796 70.3273C371.803 70.3273 371.809 70.3209 371.815 70.3209L369.633 70.5605C369.613 70.5735 369.613 70.5864 369.607 70.5929Z" fill="url(#paint11_linear_760_7011)"/>
<path d="M372.062 66.1821C371.867 66.4801 371.653 66.8169 371.427 67.199C371.414 67.2184 371.401 67.2378 371.388 67.2573C371.194 67.5876 370.98 67.9503 370.76 68.3519C370.572 68.6951 370.371 69.0643 370.164 69.4594C369.982 69.8027 369.801 70.1718 369.607 70.5605L371.79 70.3208C372.424 70.0294 372.709 69.7638 372.988 69.3817C373.059 69.278 373.137 69.1679 373.208 69.0514C373.435 68.7016 373.648 68.3195 373.849 67.9309C374.037 67.5617 374.205 67.1925 374.335 66.8622C374.419 66.6549 374.484 66.4542 374.529 66.2858C374.568 66.1368 374.6 65.9878 374.626 65.8518C373.778 66.0073 372.742 66.1497 372.062 66.1821Z" fill="url(#paint12_linear_760_7011)"/>
<path d="M370.65 73.7017C370.604 73.7081 370.559 73.7146 370.52 73.7211C370.565 73.7146 370.611 73.7081 370.65 73.7017Z" fill="#BE202E"/>
<path opacity="0.35" d="M370.65 73.7017C370.604 73.7081 370.559 73.7146 370.52 73.7211C370.565 73.7146 370.611 73.7081 370.65 73.7017Z" fill="#BE202E"/>
<path d="M370.65 73.7017C370.604 73.7081 370.559 73.7146 370.52 73.7211C370.565 73.7146 370.611 73.7081 370.65 73.7017Z" fill="url(#paint13_linear_760_7011)"/>
<path d="M375.294 65.217V65.2818H375.443V65.7028H375.514V65.2818H375.663V65.217H375.294ZM376.155 65.217L375.987 65.5538L375.818 65.217H375.734V65.7028H375.799V65.3142L375.967 65.651H376.013L376.181 65.3142V65.7028H376.246V65.217H376.155Z" fill="#6D6E71"/>
</g>
<path d="M417.018 95.1758V103.304C417.018 103.656 417.103 103.922 417.274 104.104C417.445 104.274 417.695 104.36 418.026 104.36H419.258V105.576H418.026C417.258 105.576 416.666 105.378 416.25 104.984C415.845 104.589 415.642 104.029 415.642 103.304V95.1758H417.018ZM419.29 97.0958V98.3118H414.41V97.0958H419.29Z" fill="#BCBCB8"/>
<path d="M409.235 96.5678C409.235 95.8318 409.427 95.2558 409.811 94.8398C410.195 94.4238 410.771 94.2158 411.539 94.2158H412.851V95.4318H411.539C411.262 95.4318 411.038 95.5332 410.867 95.7358C410.697 95.9385 410.611 96.2158 410.611 96.5678V105.576H409.235V96.5678ZM408.099 97.0958H412.739V98.3118H408.099V97.0958Z" fill="#BCBCB8"/>
<path d="M405.858 97.0958V105.576H404.482V97.0958H405.858ZM405.89 94.2158V95.7678H404.45V94.2158H405.89Z" fill="#BCBCB8"/>
<path d="M399.573 97.0957L399.637 99.3037L399.509 99.1757C399.605 98.4504 399.818 97.9224 400.149 97.5917C400.49 97.261 400.981 97.0957 401.621 97.0957H402.453V98.3117H401.621C401.194 98.3117 400.837 98.397 400.549 98.5677C400.272 98.7277 400.064 98.973 399.925 99.3037C399.797 99.6237 399.733 100.029 399.733 100.52V105.576H398.357V97.0957H399.573Z" fill="#BCBCB8"/>
<path d="M390.733 94.2158V98.9518L390.525 98.7118C390.706 98.1145 391.042 97.6665 391.533 97.3678C392.034 97.0585 392.605 96.9038 393.245 96.9038C394.173 96.9038 394.882 97.2025 395.373 97.7998C395.864 98.3972 396.109 99.1705 396.109 100.12V105.576H394.733V100.6C394.733 100.077 394.669 99.6398 394.541 99.2878C394.424 98.9358 394.232 98.6692 393.965 98.4878C393.709 98.3065 393.373 98.2158 392.957 98.2158C392.274 98.2158 391.73 98.4238 391.325 98.8398C390.93 99.2452 390.733 99.8318 390.733 100.6V105.576H389.357V94.2158H390.733Z" fill="#BCBCB8"/>
<path d="M387.831 95.5918H384.311V105.576H382.903V95.5918H379.383V94.2158H387.831V95.5918Z" fill="#BCBCB8"/>
<path d="M366.641 101.336C366.641 100.44 366.801 99.6611 367.121 98.9998C367.441 98.3278 367.895 97.8105 368.481 97.4478C369.068 97.0851 369.751 96.9038 370.529 96.9038C371.18 96.9038 371.772 97.0531 372.305 97.3518C372.849 97.6398 373.292 98.1038 373.633 98.7438C373.975 99.3731 374.167 100.173 374.209 101.144L374.225 101.768H368.097C368.161 102.621 368.401 103.282 368.817 103.752C369.244 104.221 369.815 104.456 370.529 104.456C370.988 104.456 371.404 104.333 371.777 104.088C372.151 103.842 372.433 103.501 372.625 103.064L374.097 103.176C373.852 103.965 373.399 104.594 372.737 105.064C372.087 105.533 371.351 105.768 370.529 105.768C369.751 105.768 369.068 105.586 368.481 105.224C367.895 104.861 367.441 104.349 367.121 103.688C366.801 103.016 366.641 102.232 366.641 101.336ZM372.721 100.552C372.604 99.7305 372.348 99.1385 371.953 98.7758C371.559 98.4025 371.084 98.2158 370.529 98.2158C369.868 98.2158 369.329 98.4185 368.913 98.8238C368.508 99.2291 368.247 99.8051 368.129 100.552H372.721Z" fill="#BCBCB8"/>
<path d="M359.467 94.2158V98.9518L359.259 98.7118C359.441 98.1145 359.777 97.6665 360.267 97.3678C360.769 97.0585 361.339 96.9038 361.979 96.9038C362.907 96.9038 363.617 97.2025 364.107 97.7998C364.598 98.3972 364.843 99.1705 364.843 100.12V105.576H363.467V100.6C363.467 100.077 363.403 99.6398 363.275 99.2878C363.158 98.9358 362.966 98.6692 362.699 98.4878C362.443 98.3065 362.107 98.2158 361.691 98.2158C361.009 98.2158 360.465 98.4238 360.059 98.8398C359.665 99.2452 359.467 99.8318 359.467 100.6V105.576H358.091V94.2158H359.467Z" fill="#BCBCB8"/>
<path d="M354.782 99.9438C354.696 99.4105 354.456 98.9891 354.062 98.6798C353.667 98.3705 353.208 98.2158 352.686 98.2158C351.907 98.2158 351.304 98.4931 350.878 99.0478C350.451 99.5918 350.238 100.354 350.238 101.336C350.238 102.317 350.451 103.085 350.878 103.64C351.304 104.184 351.907 104.456 352.686 104.456C353.23 104.456 353.699 104.29 354.094 103.96C354.499 103.618 354.75 103.154 354.846 102.568L356.302 102.664C356.216 103.293 355.998 103.842 355.646 104.312C355.304 104.781 354.872 105.144 354.35 105.4C353.838 105.645 353.283 105.768 352.686 105.768C351.907 105.768 351.224 105.586 350.638 105.224C350.051 104.861 349.598 104.349 349.278 103.688C348.958 103.016 348.798 102.232 348.798 101.336C348.798 100.44 348.958 99.6611 349.278 98.9998C349.598 98.3278 350.051 97.8105 350.638 97.4478C351.224 97.0851 351.907 96.9038 352.686 96.9038C353.262 96.9038 353.806 97.0265 354.318 97.2718C354.84 97.5065 355.267 97.8478 355.598 98.2958C355.939 98.7438 356.147 99.2611 356.222 99.8478L354.782 99.9438Z" fill="#BCBCB8"/>
<path d="M339.879 99.5918C340.05 98.7705 340.445 98.1198 341.063 97.6398C341.682 97.1491 342.445 96.9038 343.351 96.9038C344.45 96.9038 345.293 97.2131 345.879 97.8318C346.477 98.4398 346.775 99.3145 346.775 100.456V103.848C346.775 104.018 346.818 104.146 346.903 104.232C346.989 104.317 347.117 104.36 347.287 104.36H347.639V105.576H347.047H346.967C346.669 105.565 346.402 105.522 346.167 105.448C345.943 105.362 345.762 105.229 345.623 105.048C345.485 104.856 345.415 104.6 345.415 104.28C345.223 104.696 344.893 105.048 344.423 105.336C343.965 105.624 343.421 105.768 342.791 105.768C341.917 105.768 341.186 105.549 340.599 105.112C340.023 104.674 339.735 104.088 339.735 103.352C339.735 102.797 339.863 102.354 340.119 102.024C340.375 101.693 340.727 101.442 341.175 101.272C341.623 101.09 342.21 100.93 342.935 100.792L345.399 100.312C345.389 99.6078 345.213 99.0851 344.871 98.7438C344.541 98.3918 344.034 98.2158 343.351 98.2158C342.829 98.2158 342.391 98.3438 342.039 98.5998C341.698 98.8558 341.463 99.2238 341.335 99.7038L339.879 99.5918ZM341.175 103.352C341.175 103.704 341.325 103.992 341.623 104.216C341.933 104.44 342.381 104.552 342.967 104.552C343.437 104.552 343.858 104.445 344.231 104.232C344.605 104.008 344.898 103.677 345.111 103.24C345.325 102.792 345.431 102.248 345.431 101.608V101.528L343.447 101.88L343.127 101.928C342.658 102.013 342.295 102.093 342.039 102.168C341.783 102.242 341.575 102.376 341.415 102.568C341.255 102.749 341.175 103.01 341.175 103.352Z" fill="#BCBCB8"/>
<path d="M330.607 97.0958H331.855L331.919 98.8878L331.775 98.6158C331.988 98.0611 332.324 97.6398 332.783 97.3518C333.252 97.0531 333.823 96.9038 334.495 96.9038C335.306 96.9038 335.983 97.1065 336.527 97.5118C337.082 97.9171 337.492 98.4558 337.759 99.1278C338.026 99.7891 338.159 100.525 338.159 101.336C338.159 102.146 338.026 102.888 337.759 103.56C337.492 104.221 337.082 104.754 336.527 105.16C335.983 105.565 335.306 105.768 334.495 105.768C334.047 105.768 333.642 105.704 333.279 105.576C332.916 105.437 332.607 105.24 332.351 104.984C332.106 104.717 331.919 104.392 331.791 104.008L331.983 103.784V107.976H330.607V97.0958ZM331.823 101.336C331.823 101.89 331.908 102.402 332.079 102.872C332.25 103.341 332.516 103.725 332.879 104.024C333.252 104.312 333.711 104.456 334.255 104.456C335.066 104.456 335.674 104.157 336.079 103.56C336.484 102.952 336.687 102.21 336.687 101.336C336.687 100.461 336.484 99.7251 336.079 99.1278C335.674 98.5198 335.066 98.2158 334.255 98.2158C333.711 98.2158 333.252 98.3651 332.879 98.6638C332.516 98.9518 332.25 99.3305 332.079 99.7998C331.908 100.269 331.823 100.781 331.823 101.336Z" fill="#BCBCB8"/>
<path d="M323.009 94.2158H324.897L328.993 105.576H327.457L326.337 102.36H321.569L320.449 105.576H318.913L323.009 94.2158ZM325.857 100.984L323.953 95.4478L322.049 100.984H325.857Z" fill="#BCBCB8"/>
<path d="M281.94 12.1919C281.855 11.7545 281.631 11.4079 281.268 11.1519C280.906 10.8959 280.5 10.7679 280.052 10.7679C279.604 10.7679 279.236 10.8745 278.948 11.0879C278.66 11.3012 278.516 11.5839 278.516 11.9359C278.516 12.2772 278.687 12.5439 279.028 12.7359C279.38 12.9172 279.828 13.0612 280.372 13.1679C281.14 13.3065 281.77 13.4772 282.26 13.6799C282.762 13.8719 283.151 14.1385 283.428 14.4799C283.706 14.8105 283.844 15.2479 283.844 15.7919C283.844 16.3252 283.679 16.7732 283.348 17.1359C283.028 17.4879 282.607 17.7545 282.084 17.9359C281.562 18.1065 280.991 18.1919 280.372 18.1919C279.647 18.1919 279.002 18.0745 278.436 17.8399C277.871 17.6052 277.418 17.2745 277.076 16.8479C276.746 16.4105 276.559 15.9039 276.516 15.3279L278.292 15.2159C278.356 15.5359 278.474 15.8132 278.644 16.0479C278.826 16.2719 279.06 16.4479 279.348 16.5759C279.636 16.6932 279.972 16.7519 280.356 16.7519C280.804 16.7519 281.199 16.6719 281.54 16.5119C281.882 16.3412 282.052 16.0745 282.052 15.7119C282.052 15.4665 281.978 15.2692 281.828 15.1199C281.69 14.9705 281.514 14.8639 281.3 14.7999C281.098 14.7252 280.81 14.6452 280.436 14.5599C280.351 14.5492 280.228 14.5279 280.068 14.4959C279.343 14.3359 278.751 14.1705 278.292 13.9999C277.834 13.8185 277.455 13.5679 277.156 13.2479C276.868 12.9279 276.724 12.5119 276.724 11.9999C276.724 11.4559 276.863 10.9865 277.14 10.5919C277.428 10.1865 277.828 9.87721 278.34 9.66388C278.863 9.43988 279.476 9.32788 280.18 9.32788C281.108 9.32788 281.892 9.57855 282.532 10.0799C283.172 10.5705 283.567 11.2425 283.716 12.0959L281.94 12.1919Z" fill="#DCDCDA"/>
<path d="M264.611 9.51988L264.675 10.8959C264.878 10.3945 265.182 10.0105 265.587 9.74388C266.003 9.46655 266.499 9.32788 267.075 9.32788C267.683 9.32788 268.201 9.48255 268.627 9.79188C269.054 10.0905 269.358 10.5225 269.539 11.0879C269.731 10.5119 270.041 10.0745 270.467 9.77588C270.905 9.47721 271.443 9.32788 272.083 9.32788C272.649 9.32788 273.134 9.45588 273.539 9.71188C273.955 9.95721 274.27 10.3199 274.483 10.7999C274.707 11.2799 274.819 11.8612 274.819 12.5439V17.9999H273.107V13.0719C273.107 12.3252 272.979 11.7599 272.723 11.3759C272.467 10.9812 272.099 10.7839 271.619 10.7839C271.225 10.7839 270.883 10.8745 270.595 11.0559C270.318 11.2265 270.11 11.4825 269.971 11.8239C269.833 12.1652 269.763 12.5812 269.763 13.0719V17.9999H268.131V13.0719C268.131 12.5812 268.073 12.1652 267.955 11.8239C267.838 11.4825 267.667 11.2265 267.443 11.0559C267.219 10.8745 266.953 10.7839 266.643 10.7839C266.259 10.7839 265.923 10.8745 265.635 11.0559C265.358 11.2372 265.145 11.4985 264.995 11.8399C264.857 12.1812 264.787 12.5919 264.787 13.0719V17.9999H263.059V9.51988H264.611Z" fill="#DCDCDA"/>
<path d="M253.379 12.0639C253.55 11.2105 253.95 10.5439 254.579 10.0639C255.219 9.57321 256.03 9.32788 257.011 9.32788C258.174 9.32788 259.059 9.63721 259.667 10.2559C260.286 10.8639 260.595 11.7545 260.595 12.9279V16.0799C260.595 16.2719 260.638 16.4159 260.723 16.5119C260.809 16.5972 260.937 16.6399 261.107 16.6399H261.459V17.9999H260.915H260.835C260.547 18.0105 260.27 17.9839 260.003 17.9199C259.737 17.8559 259.507 17.7279 259.315 17.5359C259.134 17.3439 259.033 17.0665 259.011 16.7039C258.809 17.1305 258.473 17.4879 258.003 17.7759C257.534 18.0532 256.963 18.1919 256.291 18.1919C255.417 18.1919 254.686 17.9732 254.099 17.5359C253.523 17.0985 253.235 16.5119 253.235 15.7759C253.235 15.2319 253.363 14.7945 253.619 14.4639C253.875 14.1332 254.227 13.8772 254.675 13.6959C255.123 13.5145 255.715 13.3492 256.451 13.1999L258.867 12.7359C258.857 12.0532 258.697 11.5519 258.387 11.2319C258.089 10.9012 257.63 10.7359 257.011 10.7359C256.531 10.7359 256.131 10.8585 255.811 11.1039C255.491 11.3492 255.273 11.7065 255.155 12.1759L253.379 12.0639ZM255.027 15.7439C255.027 16.0745 255.166 16.3465 255.443 16.5599C255.721 16.7625 256.126 16.8639 256.659 16.8639C257.086 16.8639 257.47 16.7625 257.811 16.5599C258.153 16.3465 258.419 16.0372 258.611 15.6319C258.803 15.2159 258.899 14.7145 258.899 14.1279V14.0479L257.107 14.3679L256.819 14.4159C256.382 14.4905 256.046 14.5652 255.811 14.6399C255.577 14.7145 255.385 14.8425 255.235 15.0239C255.097 15.1945 255.027 15.4345 255.027 15.7439Z" fill="#DCDCDA"/>
<path d="M243.829 13.7599C243.829 12.8639 243.994 12.0852 244.325 11.4239C244.666 10.7519 245.141 10.2345 245.749 9.87188C246.357 9.50921 247.066 9.32788 247.877 9.32788C248.57 9.32788 249.2 9.48788 249.765 9.80788C250.341 10.1172 250.8 10.6025 251.141 11.2639C251.493 11.9145 251.685 12.7252 251.717 13.6959V14.2559H245.653C245.706 15.0345 245.925 15.6425 246.309 16.0799C246.693 16.5065 247.216 16.7199 247.877 16.7199C248.304 16.7199 248.688 16.6079 249.029 16.3839C249.37 16.1599 249.632 15.8452 249.813 15.4399L251.605 15.5679C251.349 16.3679 250.88 17.0079 250.197 17.4879C249.525 17.9572 248.752 18.1919 247.877 18.1919C247.066 18.1919 246.357 18.0105 245.749 17.6479C245.141 17.2852 244.666 16.7732 244.325 16.1119C243.994 15.4399 243.829 14.6559 243.829 13.7599ZM249.909 12.9599C249.802 12.2132 249.568 11.6692 249.205 11.3279C248.842 10.9759 248.4 10.7999 247.877 10.7999C247.269 10.7999 246.773 10.9919 246.389 11.3759C246.016 11.7492 245.776 12.2772 245.669 12.9599H249.909Z" fill="#DCDCDA"/>
<path d="M243.854 8.23989H240.382V17.9999H238.622V8.23989H235.15V6.63989H243.854V8.23989Z" fill="#DCDCDA"/>
<path d="M227.91 6.63989H229.638V17.9999H228.038L227.99 16.7999C227.745 17.2372 227.388 17.5786 226.918 17.8239C226.449 18.0692 225.926 18.1919 225.35 18.1919C224.625 18.1919 223.99 18.0106 223.446 17.6479C222.902 17.2852 222.486 16.7732 222.198 16.1119C221.91 15.4399 221.766 14.6559 221.766 13.7599C221.766 12.8639 221.91 12.0852 222.198 11.4239C222.486 10.7519 222.902 10.2346 223.446 9.87189C223.99 9.50923 224.625 9.32789 225.35 9.32789C225.905 9.32789 226.412 9.44523 226.87 9.67989C227.329 9.91456 227.676 10.2346 227.91 10.6399V6.63989ZM227.766 15.3119C227.948 14.8639 228.038 14.3466 228.038 13.7599C228.038 13.1519 227.948 12.6239 227.766 12.1759C227.585 11.7279 227.324 11.3812 226.982 11.1359C226.641 10.8906 226.246 10.7679 225.798 10.7679C225.105 10.7679 224.556 11.0399 224.15 11.5839C223.745 12.1172 223.542 12.8426 223.542 13.7599C223.542 14.6559 223.745 15.3706 224.15 15.9039C224.566 16.4372 225.116 16.7039 225.798 16.7039C226.246 16.7039 226.641 16.5866 226.982 16.3519C227.324 16.1066 227.585 15.7599 227.766 15.3119Z" fill="#DCDCDA"/>
<path d="M214.564 9.51988L214.644 11.7919L214.436 11.6319C214.575 10.8532 214.89 10.2772 215.38 9.90388C215.871 9.51988 216.474 9.32788 217.188 9.32788C218.116 9.32788 218.831 9.62655 219.332 10.2239C219.834 10.8105 220.084 11.5839 220.084 12.5439V17.9999H218.356V13.0719C218.356 12.5599 218.303 12.1385 218.196 11.8079C218.09 11.4665 217.914 11.2105 217.668 11.0399C217.434 10.8692 217.124 10.7839 216.74 10.7839C216.111 10.7839 215.62 10.9812 215.268 11.3759C214.916 11.7599 214.74 12.3252 214.74 13.0719V17.9999H213.012V9.51988H214.564Z" fill="#DCDCDA"/>
<path d="M203.313 13.7599C203.313 12.8639 203.479 12.0852 203.809 11.4239C204.151 10.7519 204.625 10.2345 205.233 9.87188C205.841 9.50921 206.551 9.32788 207.361 9.32788C208.055 9.32788 208.684 9.48788 209.249 9.80788C209.825 10.1172 210.284 10.6025 210.625 11.2639C210.977 11.9145 211.169 12.7252 211.201 13.6959V14.2559H205.137C205.191 15.0345 205.409 15.6425 205.793 16.0799C206.177 16.5065 206.7 16.7199 207.361 16.7199C207.788 16.7199 208.172 16.6079 208.513 16.3839C208.855 16.1599 209.116 15.8452 209.297 15.4399L211.089 15.5679C210.833 16.3679 210.364 17.0079 209.681 17.4879C209.009 17.9572 208.236 18.1919 207.361 18.1919C206.551 18.1919 205.841 18.0105 205.233 17.6479C204.625 17.2852 204.151 16.7732 203.809 16.1119C203.479 15.4399 203.313 14.6559 203.313 13.7599ZM209.393 12.9599C209.287 12.2132 209.052 11.6692 208.689 11.3279C208.327 10.9759 207.884 10.7999 207.361 10.7999C206.753 10.7999 206.257 10.9919 205.873 11.3759C205.5 11.7492 205.26 12.2772 205.153 12.9599H209.393Z" fill="#DCDCDA"/>
<path d="M196.678 6.63989V13.6799L200.406 9.51989H202.598L199.286 13.0719L202.758 17.9999H200.742L198.15 14.1599L196.678 15.7599V17.9999H194.95V6.63989H196.678Z" fill="#DCDCDA"/>
<path d="M191.454 12.4959C191.369 11.9732 191.145 11.5625 190.782 11.2639C190.419 10.9652 189.993 10.8159 189.502 10.8159C188.787 10.8159 188.233 11.0772 187.838 11.5999C187.443 12.1119 187.246 12.8319 187.246 13.7599C187.246 14.6879 187.443 15.4132 187.838 15.9359C188.233 16.4479 188.787 16.7039 189.502 16.7039C190.014 16.7039 190.451 16.5439 190.814 16.2239C191.187 15.9039 191.417 15.4559 191.502 14.8799L193.31 14.9759C193.225 15.6265 193.001 16.1972 192.638 16.6879C192.286 17.1679 191.838 17.5412 191.294 17.8079C190.75 18.0639 190.153 18.1919 189.502 18.1919C188.691 18.1919 187.982 18.0105 187.374 17.6479C186.766 17.2852 186.291 16.7732 185.95 16.1119C185.619 15.4399 185.454 14.6559 185.454 13.7599C185.454 12.8639 185.619 12.0852 185.95 11.4239C186.291 10.7519 186.766 10.2345 187.374 9.87188C187.982 9.50921 188.691 9.32788 189.502 9.32788C190.131 9.32788 190.718 9.45588 191.262 9.71188C191.806 9.95721 192.254 10.3145 192.606 10.7839C192.958 11.2425 193.171 11.7812 193.246 12.3999L191.454 12.4959Z" fill="#DCDCDA"/>
<path d="M176.301 12.0639C176.472 11.2105 176.872 10.5439 177.501 10.0639C178.141 9.57321 178.952 9.32788 179.933 9.32788C181.096 9.32788 181.981 9.63721 182.589 10.2559C183.208 10.8639 183.517 11.7545 183.517 12.9279V16.0799C183.517 16.2719 183.56 16.4159 183.645 16.5119C183.73 16.5972 183.858 16.6399 184.029 16.6399H184.381V17.9999H183.837H183.757C183.469 18.0105 183.192 17.9839 182.925 17.9199C182.658 17.8559 182.429 17.7279 182.237 17.5359C182.056 17.3439 181.954 17.0665 181.933 16.7039C181.73 17.1305 181.394 17.4879 180.925 17.7759C180.456 18.0532 179.885 18.1919 179.213 18.1919C178.338 18.1919 177.608 17.9732 177.021 17.5359C176.445 17.0985 176.157 16.5119 176.157 15.7759C176.157 15.2319 176.285 14.7945 176.541 14.4639C176.797 14.1332 177.149 13.8772 177.597 13.6959C178.045 13.5145 178.637 13.3492 179.373 13.1999L181.789 12.7359C181.778 12.0532 181.618 11.5519 181.309 11.2319C181.01 10.9012 180.552 10.7359 179.933 10.7359C179.453 10.7359 179.053 10.8585 178.733 11.1039C178.413 11.3492 178.194 11.7065 178.077 12.1759L176.301 12.0639ZM177.949 15.7439C177.949 16.0745 178.088 16.3465 178.365 16.5599C178.642 16.7625 179.048 16.8639 179.581 16.8639C180.008 16.8639 180.392 16.7625 180.733 16.5599C181.074 16.3465 181.341 16.0372 181.533 15.6319C181.725 15.2159 181.821 14.7145 181.821 14.1279V14.0479L180.029 14.3679L179.741 14.4159C179.304 14.4905 178.968 14.5652 178.733 14.6399C178.498 14.7145 178.306 14.8425 178.157 15.0239C178.018 15.1945 177.949 15.4345 177.949 15.7439Z" fill="#DCDCDA"/>
<path d="M165.813 6.63989H169.813C171.221 6.63989 172.277 6.90123 172.981 7.42389C173.685 7.93589 174.037 8.72523 174.037 9.79189C174.037 10.2719 173.936 10.6879 173.733 11.0399C173.531 11.3919 173.232 11.6639 172.837 11.8559C172.453 12.0479 172 12.1492 171.477 12.1599L171.461 12.0959C172.421 12.1172 173.168 12.3679 173.701 12.8479C174.245 13.3172 174.517 13.9626 174.517 14.7839C174.517 15.8292 174.165 16.6292 173.461 17.1839C172.768 17.7279 171.765 17.9999 170.453 17.9999H165.813V6.63989ZM170.469 16.4159C171.184 16.4159 171.733 16.2719 172.117 15.9839C172.512 15.6852 172.709 15.2639 172.709 14.7199C172.709 14.1652 172.512 13.7386 172.117 13.4399C171.733 13.1306 171.184 12.9759 170.469 12.9759H167.573V16.4159H170.469ZM169.877 11.4719C170.624 11.4719 171.2 11.3332 171.605 11.0559C172.021 10.7786 172.229 10.3786 172.229 9.85589C172.229 9.30123 172.032 8.89056 171.637 8.62389C171.243 8.35723 170.656 8.22389 169.877 8.22389H167.573V11.4719H169.877Z" fill="#DCDCDA"/>
<defs>
<filter id="filter0_ddd_760_7011" x="65.9036" y="195.789" width="311.193" height="168.193" filterUnits="userSpaceOnUse" color-interpolation-filters="sRGB">
<feFlood flood-opacity="0" result="BackgroundImageFix"/>
<feColorMatrix in="SourceAlpha" type="matrix" values="0 0 0 0 0 0 0 0 0 0 0 0 0 0 0 0 0 0 127 0" result="hardAlpha"/>
<feMorphology radius="1.11071" operator="erode" in="SourceAlpha" result="effect1_dropShadow_760_7011"/>
<feOffset dy="0.888571"/>
<feGaussianBlur stdDeviation="1.33286"/>
<feComposite in2="hardAlpha" operator="out"/>
<feColorMatrix type="matrix" values="0 0 0 0 0.886275 0 0 0 0 0.992157 0 0 0 0 0.321569 0 0 0 0.04 0"/>
<feBlend mode="normal" in2="BackgroundImageFix" result="effect1_dropShadow_760_7011"/>
<feColorMatrix in="SourceAlpha" type="matrix" values="0 0 0 0 0 0 0 0 0 0 0 0 0 0 0 0 0 0 127 0" result="hardAlpha"/>
<feMorphology radius="2.22143" operator="erode" in="SourceAlpha" result="effect2_dropShadow_760_7011"/>
<feOffset dy="2.66571"/>
<feGaussianBlur stdDeviation="5.33142"/>
<feComposite in2="hardAlpha" operator="out"/>
<feColorMatrix type="matrix" values="0 0 0 0 0.886275 0 0 0 0 0.992157 0 0 0 0 0.321569 0 0 0 0.03 0"/>
<feBlend mode="normal" in2="effect1_dropShadow_760_7011" result="effect2_dropShadow_760_7011"/>
<feColorMatrix in="SourceAlpha" type="matrix" values="0 0 0 0 0 0 0 0 0 0 0 0 0 0 0 0 0 0 127 0" result="hardAlpha"/>
<feMorphology radius="3.33214" operator="erode" in="SourceAlpha" result="effect3_dropShadow_760_7011"/>
<feOffset dy="8.88571"/>
<feGaussianBlur stdDeviation="22.2143"/>
<feComposite in2="hardAlpha" operator="out"/>
<feColorMatrix type="matrix" values="0 0 0 0 0.886275 0 0 0 0 0.992157 0 0 0 0 0.321569 0 0 0 0.1 0"/>
<feBlend mode="normal" in2="effect2_dropShadow_760_7011" result="effect3_dropShadow_760_7011"/>
<feBlend mode="normal" in="SourceGraphic" in2="effect3_dropShadow_760_7011" result="shape"/>
</filter>
<linearGradient id="paint0_linear_760_7011" x1="231.992" y1="352.395" x2="392.418" y2="310.809" gradientUnits="userSpaceOnUse">
<stop offset="0.235033" stop-color="#DBFE01"/>
<stop offset="0.479167" stop-color="#DBFE01"/>
<stop offset="1" stop-color="#77DA05"/>
</linearGradient>
<linearGradient id="paint1_linear_760_7011" x1="211.667" y1="293.167" x2="214.033" y2="296.1" gradientUnits="userSpaceOnUse">
<stop stop-color="white"/>
<stop offset="1" stop-color="white" stop-opacity="0"/>
</linearGradient>
<linearGradient id="paint2_linear_760_7011" x1="212.4" y1="289" x2="212.387" y2="292.525" gradientUnits="userSpaceOnUse">
<stop stop-color="white"/>
<stop offset="1" stop-color="white" stop-opacity="0"/>
</linearGradient>
<linearGradient id="paint3_linear_760_7011" x1="150.099" y1="203.015" x2="291.145" y2="203.015" gradientUnits="userSpaceOnUse">
<stop stop-color="#7B8C0D"/>
<stop offset="0.5" stop-color="#7B8C0D" stop-opacity="0"/>
<stop offset="1" stop-color="#7B8C0D"/>
</linearGradient>
<linearGradient id="paint4_linear_760_7011" x1="-315.871" y1="-275.834" x2="421.347" y2="-278.648" gradientUnits="userSpaceOnUse">
<stop stop-color="#72C9C9"/>
<stop offset="1" stop-color="#02B0AD"/>
</linearGradient>
<linearGradient id="paint5_linear_760_7011" x1="-152.95" y1="-129.598" x2="279.467" y2="-131.249" gradientUnits="userSpaceOnUse">
<stop stop-color="#03B6B4"/>
<stop offset="1" stop-color="#74CBCA"/>
</linearGradient>
<linearGradient id="paint6_linear_760_7011" x1="371.876" y1="65.0501" x2="376.709" y2="63.7064" gradientUnits="userSpaceOnUse">
<stop stop-color="#F69923"/>
<stop offset="0.3123" stop-color="#F79A23"/>
<stop offset="0.8383" stop-color="#E97826"/>
</linearGradient>
<linearGradient id="paint7_linear_760_7011" x1="361.294" y1="86.744" x2="371.126" y2="65.6598" gradientUnits="userSpaceOnUse">
<stop offset="0.3233" stop-color="#9E2064"/>
<stop offset="0.6302" stop-color="#C92037"/>
<stop offset="0.7514" stop-color="#CD2335"/>
<stop offset="1" stop-color="#E97826"/>
</linearGradient>
<linearGradient id="paint8_linear_760_7011" x1="364.595" y1="85.1855" x2="370.455" y2="72.6213" gradientUnits="userSpaceOnUse">
<stop stop-color="#282662"/>
<stop offset="0.0954839" stop-color="#662E8D"/>
<stop offset="0.7882" stop-color="#9F2064"/>
<stop offset="0.9487" stop-color="#CD2032"/>
</linearGradient>
<linearGradient id="paint9_linear_760_7011" x1="361.649" y1="85.468" x2="371.482" y2="64.3839" gradientUnits="userSpaceOnUse">
<stop offset="0.3233" stop-color="#9E2064"/>
<stop offset="0.6302" stop-color="#C92037"/>
<stop offset="0.7514" stop-color="#CD2335"/>
<stop offset="1" stop-color="#E97826"/>
</linearGradient>
<linearGradient id="paint10_linear_760_7011" x1="362.652" y1="84.0637" x2="367.819" y2="72.9833" gradientUnits="userSpaceOnUse">
<stop stop-color="#282662"/>
<stop offset="0.0954839" stop-color="#662E8D"/>
<stop offset="0.7882" stop-color="#9F2064"/>
<stop offset="0.9487" stop-color="#CD2032"/>
</linearGradient>
<linearGradient id="paint11_linear_760_7011" x1="363.832" y1="86.4862" x2="373.665" y2="65.402" gradientUnits="userSpaceOnUse">
<stop offset="0.3233" stop-color="#9E2064"/>
<stop offset="0.6302" stop-color="#C92037"/>
<stop offset="0.7514" stop-color="#CD2335"/>
<stop offset="1" stop-color="#E97826"/>
</linearGradient>
<linearGradient id="paint12_linear_760_7011" x1="363.114" y1="87.7437" x2="372.947" y2="66.6596" gradientUnits="userSpaceOnUse">
<stop offset="0.3233" stop-color="#9E2064"/>
<stop offset="0.6302" stop-color="#C92037"/>
<stop offset="0.7514" stop-color="#CD2335"/>
<stop offset="1" stop-color="#E97826"/>
</linearGradient>
<linearGradient id="paint13_linear_760_7011" x1="364.478" y1="86.7974" x2="374.318" y2="65.7005" gradientUnits="userSpaceOnUse">
<stop offset="0.3233" stop-color="#9E2064"/>
<stop offset="0.6302" stop-color="#C92037"/>
<stop offset="0.7514" stop-color="#CD2335"/>
<stop offset="1" stop-color="#E97826"/>
</linearGradient>
<clipPath id="clip0_760_7011">
<rect width="18.66" height="18.66" fill="white" transform="matrix(-1 0 0 1 232.149 392.172)"/>
</clipPath>
<clipPath id="clip1_760_7011">
<rect width="18.66" height="18.66" fill="white" transform="matrix(-1 0 0 1 359.851 392.172)"/>
</clipPath>
<clipPath id="clip2_760_7011">
<rect x="107" y="228" width="229" height="86" rx="10.6628" fill="white"/>
</clipPath>
<clipPath id="clip3_760_7011">
<rect width="12" height="12" fill="white" transform="translate(204 285)"/>
</clipPath>
<clipPath id="clip4_760_7011">
<rect width="18.66" height="18.66" fill="white" transform="matrix(-1 -8.74228e-08 -8.74228e-08 1 232.149 201.758)"/>
</clipPath>
<clipPath id="clip5_760_7011">
<rect width="18.66" height="18.66" fill="white" transform="matrix(-1 -8.74228e-08 -8.74228e-08 1 255.66 202)"/>
</clipPath>
<clipPath id="clip6_760_7011">
<rect width="18.66" height="18.66" fill="white" transform="matrix(-1 0 0 -1 101.991 159.828)"/>
</clipPath>
<clipPath id="clip7_760_7011">
<rect width="18.66" height="18.66" fill="white" transform="matrix(-1 0 0 -1 232.149 159.828)"/>
</clipPath>
<clipPath id="clip8_760_7011">
<rect width="18.66" height="18.66" fill="white" transform="matrix(-1 0 0 -1 359.851 159.828)"/>
</clipPath>
<clipPath id="clip9_760_7011">
<rect width="23.608" height="23.608" fill="white" transform="translate(357.929 62.7817)"/>
</clipPath>
</defs>
</svg>
