<svg xmlns="http://www.w3.org/2000/svg" width="448" height="545" fill="none" viewBox="0 0 448 545">
  <rect width="446" height="310" x="1" y="201" fill="#191918" rx="17.771"/>
  <rect width="444.223" height="308.223" x="1.889" y="201.889" stroke="url(#a)" stroke-dasharray="3.55 3.55" stroke-opacity=".5" stroke-width="1.777" rx="16.883"/>
  <rect width="138.274" height="84.246" x="7.514" y="419.57" fill="#141413" rx="10.219"/>
  <rect width="138.274" height="84.246" x="7.514" y="419.57" stroke="#222221" stroke-width=".889" rx="10.219"/>
  <path stroke="#B0CB01" stroke-linecap="round" stroke-linejoin="round" stroke-width="1.066" d="m76.826 443.63-1.812-1.943M78.288 443.63l1.812-1.943M82.285 447.996a.434.434 0 0 0 .383-.196.484.484 0 0 0 .065-.42 6.132 6.132 0 0 0-5.894-4.054 6.105 6.105 0 0 0-5.894 4.054.457.457 0 0 0 .066.42.428.428 0 0 0 .373.196h10.901Z"/>
  <path stroke="#B0CB01" stroke-width="1.066" d="M76.066 446.247a.233.233 0 1 1 0-.467"/>
  <path stroke="#B0CB01" stroke-width="1.066" d="M75.832 446.247a.233.233 0 1 0 0-.467M79.34 446.247a.233.233 0 1 1 0-.467"/>
  <path stroke="#B0CB01" stroke-width="1.066" d="M79.107 446.247a.233.233 0 1 0 0-.467"/>
  <path stroke="#B0CB01" stroke-linecap="round" stroke-linejoin="round" stroke-width="1.066" d="M68.477 459.226v-7.94a1.244 1.244 0 0 1 1.4-1.401h1.402M86.002 459.226v-7.94a1.244 1.244 0 0 0-1.401-1.401H83.2"/>
  <path stroke="#B0CB01" stroke-linecap="round" stroke-linejoin="round" stroke-width="1.066" d="M70.92 457.813v-7.94h12.144v7.94"/>
  <path fill="#BCBCB8" d="M50.659 469.944h2.097l4.55 12.618h-1.707l-1.244-3.573H49.06l-1.244 3.573H46.11l4.55-12.618Zm3.163 7.517-2.115-6.149-2.114 6.149h4.23Zm6.662-4.318.071 2.399-.195-.213c.166-.794.521-1.393 1.066-1.795.557-.403 1.22-.605 1.99-.605 1.031 0 1.82.332 2.364.996.545.663.818 1.522.818 2.576v6.061h-1.529v-5.634c0-.581-.07-1.066-.213-1.457-.13-.391-.344-.687-.64-.889-.284-.201-.657-.302-1.12-.302-.758 0-1.362.231-1.812.693-.438.45-.658 1.102-.658 1.955v5.634h-1.528v-9.419h1.386Zm14.97-3.199h1.529v12.618h-1.386l-.054-1.316c-.26.474-.657.848-1.19 1.12a3.841 3.841 0 0 1-1.777.409c-.806 0-1.511-.202-2.115-.604-.604-.403-1.067-.972-1.386-1.707-.32-.746-.48-1.617-.48-2.612 0-.995.16-1.86.48-2.595.32-.746.782-1.321 1.386-1.723.604-.403 1.309-.605 2.115-.605.628 0 1.196.131 1.706.391.52.249.912.593 1.173 1.031v-4.407Zm-.195 9.756c.225-.533.338-1.149.338-1.848 0-.711-.113-1.333-.338-1.866-.213-.533-.527-.942-.942-1.226-.403-.296-.876-.444-1.421-.444-.83 0-1.487.319-1.973.959-.486.64-.729 1.499-.729 2.577 0 1.066.243 1.913.729 2.541.486.616 1.143.925 1.972.925.546 0 1.02-.137 1.422-.409.415-.285.729-.687.942-1.209Zm5.651-6.557.071 2.452-.142-.142c.107-.806.344-1.392.71-1.759.38-.368.925-.551 1.636-.551h.924v1.35h-.924c-.474 0-.87.095-1.19.285-.309.177-.54.45-.694.817-.142.356-.213.806-.213 1.351v5.616H79.56v-9.419h1.35Zm8.473 9.632c-.865 0-1.623-.202-2.275-.604-.651-.403-1.155-.972-1.51-1.707-.356-.746-.533-1.617-.533-2.612 0-.995.177-1.86.533-2.595.355-.746.859-1.321 1.51-1.723.652-.403 1.41-.605 2.275-.605s1.623.202 2.275.605c.651.402 1.155.977 1.51 1.723.356.735.533 1.6.533 2.595 0 .995-.177 1.866-.533 2.612-.355.735-.859 1.304-1.51 1.707-.652.402-1.41.604-2.275.604Zm0-1.457c.865 0 1.534-.303 2.008-.907.474-.616.711-1.469.711-2.559s-.237-1.937-.71-2.541c-.475-.616-1.144-.924-2.009-.924s-1.534.308-2.008.924c-.474.604-.711 1.451-.711 2.541 0 1.09.237 1.943.71 2.559.475.604 1.144.907 2.009.907Zm7.758-8.175v9.419h-1.528v-9.419h1.528Zm.036-3.199v1.724h-1.6v-1.724h1.6Zm9.083 0h1.528v12.618h-1.386l-.054-1.316c-.26.474-.657.848-1.19 1.12a3.842 3.842 0 0 1-1.777.409c-.806 0-1.511-.202-2.115-.604-.604-.403-1.067-.972-1.386-1.707-.32-.746-.48-1.617-.48-2.612 0-.995.16-1.86.48-2.595.319-.746.782-1.321 1.386-1.723.604-.403 1.309-.605 2.115-.605.627 0 1.196.131 1.706.391.521.249.912.593 1.173 1.031v-4.407Zm-.196 9.756c.225-.533.338-1.149.338-1.848 0-.711-.113-1.333-.338-1.866-.213-.533-.527-.942-.942-1.226-.403-.296-.877-.444-1.422-.444-.829 0-1.486.319-1.972.959-.486.64-.729 1.499-.729 2.577 0 1.066.243 1.913.729 2.541.486.616 1.143.925 1.972.925.545 0 1.019-.137 1.422-.409.415-.285.729-.687.942-1.209Z"/>
  <rect width="139.093" height="84.246" x="154.044" y="419.57" fill="#141413" rx="10.219"/>
  <rect width="139.093" height="84.246" x="154.044" y="419.57" stroke="#222221" stroke-width=".889" rx="10.219"/>
  <path stroke="#B0CB01" stroke-linecap="round" stroke-linejoin="round" stroke-width="1.066" d="M228.041 452.757a3.525 3.525 0 0 1 1.68-2.964 3.644 3.644 0 0 0-2.845-1.546c-1.213-.118-2.378.714-2.981.714-.602 0-1.585-.698-2.568-.682a3.82 3.82 0 0 0-3.226 1.95c-1.371 2.378-.349 5.913.991 7.847.65.943 1.435 2.005 2.457 1.966 1.023-.04 1.363-.634 2.552-.634s1.53.634 2.568.618c1.039-.016 1.736-.967 2.378-1.91a8.58 8.58 0 0 0 1.086-2.188 3.442 3.442 0 0 1-2.092-3.171ZM226.637 444.533a3.964 3.964 0 0 0 .927-2.846 3.97 3.97 0 0 0-2.624 1.347 3.74 3.74 0 0 0-.927 2.798 3.314 3.314 0 0 0 2.624-1.299Z"/>
  <path fill="#BCBCB8" d="M212.476 473.143v9.419h-1.528v-9.419h1.528Zm.036-3.199v1.724h-1.6v-1.724h1.6Zm7.774 12.902c-1.197 0-2.228-.261-3.093-.782-.864-.533-1.528-1.291-1.99-2.275-.462-.995-.693-2.168-.693-3.519 0-1.362.231-2.535.693-3.518.462-.995 1.126-1.76 1.99-2.293.865-.533 1.896-.8 3.093-.8 1.196 0 2.227.267 3.092.8.865.533 1.528 1.298 1.99 2.293.462.983.693 2.156.693 3.518 0 1.351-.231 2.524-.693 3.519-.462.984-1.125 1.742-1.99 2.275-.865.521-1.896.782-3.092.782Zm0-1.528c.853 0 1.587-.202 2.203-.605.628-.403 1.108-.983 1.44-1.741.332-.759.497-1.659.497-2.702 0-1.054-.165-1.96-.497-2.719-.332-.758-.812-1.338-1.44-1.741-.616-.415-1.35-.622-2.203-.622-.853 0-1.594.207-2.222.622-.616.403-1.09.983-1.422 1.741-.331.759-.497 1.665-.497 2.719 0 1.043.166 1.943.497 2.702.332.758.806 1.338 1.422 1.741.628.403 1.369.605 2.222.605Zm9.33-2.897c.119.568.326 1.066.622 1.493.297.426.688.758 1.173.995.486.225 1.055.337 1.706.337.545 0 1.013-.071 1.404-.213.403-.142.711-.349.924-.622.226-.284.338-.628.338-1.031 0-.627-.284-1.149-.853-1.563-.569-.427-1.487-.8-2.754-1.12-1.173-.296-2.121-.729-2.844-1.297-.723-.569-1.084-1.327-1.084-2.275 0-.699.172-1.309.515-1.831a3.494 3.494 0 0 1 1.458-1.208c.628-.284 1.344-.427 2.15-.427.889 0 1.676.172 2.364.516.699.343 1.25.817 1.652 1.422.415.604.67 1.297.765 2.079l-1.635.106a2.97 2.97 0 0 0-.534-1.368 2.835 2.835 0 0 0-1.101-.906c-.451-.214-.96-.32-1.529-.32-.722 0-1.315.178-1.777.533-.462.344-.693.812-.693 1.404 0 .45.148.823.444 1.12a3.34 3.34 0 0 0 1.049.675c.415.154.959.326 1.635.515l.284.071c1.256.356 2.257.836 3.004 1.44.746.604 1.119 1.362 1.119 2.274 0 .747-.207 1.393-.622 1.938-.403.533-.942.936-1.617 1.208a5.776 5.776 0 0 1-2.186.409c-.912 0-1.736-.172-2.47-.516a4.553 4.553 0 0 1-1.777-1.492c-.439-.652-.693-1.398-.765-2.24l1.635-.106Z"/>
  <rect width="138.274" height="84.246" x="302.212" y="419.57" fill="#141413" rx="10.219"/>
  <rect width="138.274" height="84.246" x="302.212" y="419.57" stroke="#222221" stroke-width=".889" rx="10.219"/>
  <path stroke="#B0CB01" stroke-linecap="round" stroke-linejoin="round" stroke-width=".889" d="M378.571 442.506H363.89c-.854 0-1.546.692-1.546 1.545v12.363c0 .853.692 1.545 1.546 1.545h14.681c.853 0 1.545-.692 1.545-1.545v-12.363c0-.853-.692-1.545-1.545-1.545ZM362.344 445.781h17.772"/>
  <path stroke="#B0CB01" stroke-width=".889" d="M364.993 444.529a.193.193 0 0 1 0-.386"/>
  <path stroke="#B0CB01" stroke-width=".889" d="M364.8 444.529a.193.193 0 0 0 0-.386M366.631 444.529a.193.193 0 0 1 0-.386M368.075 444.529a.193.193 0 0 0 0-.386M369.905 444.529a.193.193 0 0 1 0-.386"/>
  <path stroke="#B0CB01" stroke-width=".889" d="M369.712 444.529a.193.193 0 0 0 0-.386"/>
  <path stroke="#B0CB01" stroke-linecap="round" stroke-linejoin="round" stroke-width=".889" d="m365.619 450.692 1.932 1.932-1.932 1.932M371.349 452.329h3.091"/>
  <path fill="#BCBCB8" d="m355.57 469.944 2.559 10.467 2.577-10.467h1.759l2.595 10.467 2.541-10.467h1.724l-3.305 12.618h-1.955l-2.47-9.437-2.471 9.437h-1.955l-3.305-12.618h1.706Zm14.08 7.908c0-.995.178-1.86.534-2.595.355-.746.859-1.321 1.51-1.723.652-.403 1.41-.605 2.275-.605.723 0 1.38.166 1.973.498.604.32 1.095.835 1.475 1.546.379.699.592 1.588.639 2.666l.018.693h-6.806c.071.948.337 1.682.799 2.204.474.521 1.108.782 1.902.782.509 0 .971-.137 1.386-.409a2.55 2.55 0 0 0 .942-1.138l1.635.125a3.93 3.93 0 0 1-1.511 2.097 4.088 4.088 0 0 1-2.452.782c-.865 0-1.623-.202-2.275-.604-.651-.403-1.155-.972-1.51-1.707-.356-.746-.534-1.617-.534-2.612Zm6.754-.871c-.131-.912-.415-1.57-.853-1.972a2.22 2.22 0 0 0-1.582-.622c-.735 0-1.333.225-1.795.675-.45.45-.74 1.09-.871 1.919h5.101Zm5.115-7.037v4.407c.26-.438.645-.782 1.155-1.031a3.808 3.808 0 0 1 1.724-.391c.805 0 1.51.202 2.114.605.605.402 1.067.977 1.387 1.723.32.735.479 1.6.479 2.595 0 .995-.159 1.866-.479 2.612-.32.735-.782 1.304-1.387 1.707-.604.402-1.309.604-2.114.604a3.84 3.84 0 0 1-1.777-.409c-.534-.272-.931-.646-1.191-1.12l-.053 1.316h-1.387v-12.618h1.529Zm-.142 7.908c0 .699.106 1.315.319 1.848.226.522.539.924.942 1.209.415.272.895.409 1.44.409.829 0 1.487-.309 1.972-.925.486-.628.729-1.475.729-2.541 0-1.078-.243-1.937-.729-2.577-.485-.64-1.143-.959-1.972-.959-.545 0-1.025.148-1.44.444-.403.284-.716.693-.942 1.226-.213.533-.319 1.155-.319 1.866Z"/>
  <path fill="#E9FE62" d="M192.304 544.461a17.07 17.07 0 0 1-.508-.212 1.695 1.695 0 0 1-.475-.344 1.86 1.86 0 0 1-.376-.606 5.033 5.033 0 0 1-.229-.933c-.033-.306-.044-.661-.033-1.064 0-.568.038-1.059.114-1.474.088-.426.219-.857.393-1.293a1.81 1.81 0 0 0 .115-.279c.065-.163.136-.338.213-.524.087-.185.153-.327.196-.425a11.77 11.77 0 0 1 .983-1.654c.316-.469.578-.84.785-1.113.208-.273.404-.502.59-.688.185-.185.393-.36.622-.524.24-.174.546-.387.917-.638.24-.175.502-.268.786-.278.294-.011.567.054.818.196.251.131.437.327.557.589.12.23.18.508.18.835 0 .317-.049.655-.147 1.015-.099.35-.235.683-.41.999a2.979 2.979 0 0 1-.605.786c-.142.131-.273.18-.393.147-.109-.032-.24-.12-.393-.262a4.041 4.041 0 0 1-.164-.327c0-.033.022-.055.066-.066.065-.076.152-.207.261-.392.11-.186.219-.382.328-.59a4.33 4.33 0 0 0 .229-.524c.087-.458.147-.78.18-.966.033-.196 0-.344-.098-.442-.044-.043-.109-.06-.196-.049-.077.011-.208.066-.393.164-.251.109-.579.355-.983.737a8.63 8.63 0 0 0-1.113 1.244 29.479 29.479 0 0 0-1.097 1.539 5.708 5.708 0 0 0-.671 1.375c-.022.044-.06.126-.115.246l-.065.18c.011.043-.006.153-.049.327a2.724 2.724 0 0 1-.148.426 8.16 8.16 0 0 0-.213 1.572 6.537 6.537 0 0 0 .082 1.424c.088.415.213.704.377.868.142.098.333.131.573.098a3.85 3.85 0 0 0 .851-.229c.317-.12.639-.251.966-.393a5.57 5.57 0 0 0 .721-.36c.218-.131.382-.246.491-.344.087-.066.196-.131.327-.197a.801.801 0 0 1 .36-.114c.153-.055.24-.077.262-.066.022.011.033.06.033.148 0 .152-.087.322-.262.507a2.58 2.58 0 0 1-.638.508c-.088.087-.202.18-.344.278a1.9 1.9 0 0 1-.442.229c-.23.175-.513.344-.852.508a5.354 5.354 0 0 1-1.031.376 2.1 2.1 0 0 1-.933.049Zm6.427-.916c-.208.054-.377.01-.508-.131-.12-.142-.191-.361-.213-.655a3.75 3.75 0 0 1 .099-1.048c.054-.131.098-.257.131-.377a1.4 1.4 0 0 0 .049-.311c.022-.109.065-.267.131-.475a20.369 20.369 0 0 1 .425-1.277c.077-.185.126-.3.148-.343.043 0 .082-.039.114-.115a.572.572 0 0 0 .049-.229c0-.088.017-.186.05-.295a.689.689 0 0 1 .131-.229c0-.055.01-.115.032-.18a.497.497 0 0 0 .049-.18c0-.044.011-.088.033-.131a.218.218 0 0 0 .049-.131c.077-.142.175-.366.295-.671.131-.317.267-.666.409-1.048a29.1 29.1 0 0 0 .737-2.063c.087-.262.131-.42.131-.475 0-.087.022-.153.065-.196.044-.044.11-.066.197-.066a.233.233 0 0 1 .115-.065.746.746 0 0 1 .147-.017l.065.066.197.196a.407.407 0 0 1 .147.262c.022.098.033.213.033.344 0 .142-.016.267-.049.376-.033.11-.098.268-.197.475l-.458.966c-.087.219-.18.426-.278.622-.099.186-.148.301-.148.344a.515.515 0 0 1-.065.197 9.4 9.4 0 0 0-.115.327 8.033 8.033 0 0 0-.18.393c-.076.164-.158.344-.246.54-.076.186-.141.35-.196.491a1.13 1.13 0 0 0-.082.23.54.54 0 0 1-.016.131c0 .043-.022.087-.066.131-.043 0-.071.032-.082.098v.082c0 .109-.087.398-.262.867-.174.601-.338 1.152-.491 1.654-.142.502-.213.906-.213 1.212 0 .262-.005.436-.016.523-.011.077-.06.137-.147.181Zm2.455-.524a.826.826 0 0 1-.197-.328c-.033-.131-.043-.262-.033-.393a.91.91 0 0 1 .082-.327c0-.087.011-.153.033-.197.033-.054.044-.103.033-.147a.5.5 0 0 1 .033-.229c.032-.109.065-.213.098-.311.076-.175.158-.382.245-.622.088-.251.17-.497.246-.737l.196-.622c.055-.175.088-.284.099-.328 0-.131.087-.202.262-.213.131-.043.229-.043.294 0 .066.033.153.137.262.312.088.087.12.218.098.392-.021.175-.092.393-.212.655a4.993 4.993 0 0 0-.164.377 2.934 2.934 0 0 0-.115.442 5.46 5.46 0 0 0-.163.376c-.055.153-.104.301-.148.443a1.484 1.484 0 0 0-.065.245 7.459 7.459 0 0 1-.082.328 1.232 1.232 0 0 1-.131.294c-.098.448-.191.71-.278.786-.077.077-.208.011-.393-.196Zm1.588-6.647a.755.755 0 0 1-.148-.23 1.192 1.192 0 0 1-.081-.294c-.011-.099 0-.148.032-.148.088-.011.191-.103.311-.278.12-.175.17-.327.148-.458 0-.044.016-.082.049-.115a.207.207 0 0 1 .114-.082c.131-.087.257-.098.377-.033.131.055.251.17.36.344.098.208.126.382.082.524-.044.131-.164.317-.36.557-.164.218-.317.338-.459.36-.131.022-.272-.027-.425-.147Zm2.857 7.22c-.48 0-.873-.18-1.179-.541-.305-.371-.453-.829-.442-1.375.022-.393.098-.813.229-1.261.142-.458.328-.895.557-1.309.229-.426.48-.797.753-1.114.273-.316.557-.54.852-.671a1.603 1.603 0 0 1 .736-.18c.12 0 .246.022.377.066.131.032.24.071.327.114.186.077.328.169.426.278.098.11.186.279.262.508.033.207.049.355.049.442 0 .087-.027.218-.082.393-.131.393-.3.731-.507 1.015a2.58 2.58 0 0 1-.835.72 1.133 1.133 0 0 1-.311.131 1.844 1.844 0 0 1-.983-.081 1.174 1.174 0 0 1-.475-.377l-.114-.131-.049.131a8.633 8.633 0 0 0-.262.819 3.23 3.23 0 0 0-.082.687c0 .131.011.257.033.377.032.12.076.224.131.311a.393.393 0 0 0 .213.147c.109.022.223.033.343.033h.23a.895.895 0 0 0 .245-.066c.186-.065.333-.136.442-.212.12-.077.24-.159.36-.246l.066-.033h-.017c.131-.065.246-.131.344-.196l.164-.098c.044 0 .087-.028.131-.082.087-.044.196-.028.327.049.142.076.213.174.213.295-.011.054-.06.141-.147.262a2.685 2.685 0 0 1-.295.311c-.098.098-.18.152-.245.163a.63.63 0 0 1-.115.066.362.362 0 0 0-.131.065h.016c-.098.131-.196.197-.294.197h-.131c-.044.076-.186.163-.426.262a2.06 2.06 0 0 1-.704.131Zm.737-3.602a.809.809 0 0 0 .507-.164c.153-.12.284-.251.393-.393.219-.295.344-.578.377-.851.043-.284.011-.48-.098-.59a.421.421 0 0 0-.18-.049c-.044-.011-.137.006-.279.049-.098.022-.234.104-.409.246a6.82 6.82 0 0 0-.524.475 4.876 4.876 0 0 0-.377.442l-.212.344a.693.693 0 0 1 .245-.049c.087-.011.137-.006.148.016 0 .098.016.191.049.278a.588.588 0 0 0 .147.18.372.372 0 0 0 .213.066Zm8.091 3.356c-.109 0-.224-.06-.344-.18a1.966 1.966 0 0 1-.295-.442 1.387 1.387 0 0 1-.114-.524c0-.164.038-.469.114-.917.088-.447.191-.9.311-1.359.088-.283.115-.447.082-.491-.033-.043-.18.017-.442.18a2.97 2.97 0 0 0-.409.246c-.12.076-.224.164-.311.262a4.89 4.89 0 0 0-.246.213 4.218 4.218 0 0 1-.344.278 9.955 9.955 0 0 0-.54.458l-.655.59c-.207.196-.365.349-.475.458a.355.355 0 0 1-.245.18.786.786 0 0 1-.524-.245.548.548 0 0 1-.147-.377c0-.109.043-.295.131-.557.087-.272.202-.6.343-.982a25.9 25.9 0 0 1 .524-1.211.816.816 0 0 0 .082-.197c.022-.087.038-.18.049-.278.022-.098.033-.191.033-.278 0-.055.006-.11.016-.164a2.96 2.96 0 0 1 .066-.18.546.546 0 0 1 .082-.131c.043-.088.12-.109.229-.066a.505.505 0 0 1 .278.229.751.751 0 0 1 .246.573c.011.23-.044.513-.164.852a2.216 2.216 0 0 0-.114.229 2.96 2.96 0 0 1-.066.18.891.891 0 0 0-.049.115l-.016.032c.043 0 .141-.049.294-.147.153-.098.333-.207.541-.327.163-.12.305-.23.425-.328.131-.109.24-.191.328-.245.087-.066.142-.099.163-.099a.38.38 0 0 0 .164-.049.619.619 0 0 0 .164-.114c.044-.044.076-.066.098-.066l.049-.016h.066a.293.293 0 0 0 .131-.082c.087-.066.202-.082.343-.049a.884.884 0 0 1 .393.164c.12.087.18.185.18.294 0 .044.011.082.033.115l.049.033c.088 0 .142.136.164.409a1.72 1.72 0 0 1-.082.786c0 .164-.033.36-.098.589-.055.229-.104.448-.147.655a4.769 4.769 0 0 0-.18.72 1.728 1.728 0 0 0-.017.524c.022.142.06.257.115.344.043.077.043.164 0 .262-.044.087-.131.131-.262.131Zm3.769 1.015c-.361-.054-.606-.191-.737-.409-.12-.208-.147-.53-.082-.966.065-.207.104-.393.115-.557.021-.174.071-.284.147-.327l.016-.049c.022-.033.017-.066-.016-.099 0-.141.049-.338.147-.589.022-.065.049-.142.082-.229l.066-.147c-.055-.088-.055-.159 0-.213.054-.055.109-.104.163-.148.066-.054.071-.114.017-.18-.022-.043.005-.142.082-.294a7.07 7.07 0 0 1 .262-.508 2.64 2.64 0 0 0 .196-.409c0-.022.027-.099.082-.23a32.627 32.627 0 0 1 .409-.933 12.3 12.3 0 0 0 .148-.278c.109-.055.065-.093-.131-.115a3.98 3.98 0 0 0-.623-.016 11.733 11.733 0 0 1-.818-.049 1.247 1.247 0 0 1-.491-.147c-.131-.153-.18-.262-.148-.328.044-.076.175-.12.393-.131.142-.011.251-.016.328-.016.087 0 .196-.006.327-.017.142-.021.36-.049.655-.082l.835-.065.049-.278c.087-.142.158-.268.213-.377a2.194 2.194 0 0 0 .262-.737l.147-.262c.098-.185.158-.376.18-.573.131-.218.246-.414.344-.589l.18-.344c.12-.098.202-.147.246-.147.054 0 .164.054.327.164.098.054.186.12.262.196a.524.524 0 0 1 .148.246c.021.076-.011.152-.099.229a2.697 2.697 0 0 0-.098.245c-.044.11-.076.202-.098.279a2.518 2.518 0 0 0-.246.376 1.784 1.784 0 0 0-.18.508 23.68 23.68 0 0 1-.245.507c-.077.142-.137.213-.18.213.021.109.087.164.196.164.109-.011.289-.022.54-.033.208-.022.35-.043.426-.065.087-.033.185-.022.295.032.054.077.098.164.131.262a.498.498 0 0 1 .016.279.2.2 0 0 1-.131.163c-.055 0-.169.033-.344.099a2.349 2.349 0 0 1-.622.098l-.868.082-.278.556a6.5 6.5 0 0 0-.196.393 1.03 1.03 0 0 1-.115.197c0 .065-.038.164-.115.294l-.213.426a3.002 3.002 0 0 1-.229.508l-.114.229c-.044 0-.066.033-.066.098.055.131.038.229-.049.295a.468.468 0 0 0-.147.147l-.049.082c.043.044.049.098.016.164a1.3 1.3 0 0 1-.098.213c0 .087-.028.212-.082.376a4.77 4.77 0 0 1-.147.459c.01.196.021.322.032.376.011.055.038.077.082.066a.33.33 0 0 0 .147 0 .542.542 0 0 1 .131-.017c.153-.065.071.317-.245 1.146-.175.273-.295.47-.36.59-.066.131-.126.196-.18.196Zm9.794-.098c-.087 0-.185-.071-.295-.213-.109-.142-.158-.278-.147-.409.011-.175.06-.426.147-.753.088-.328.186-.661.295-.999.109-.338.207-.606.295-.802l.114-.459c.044-.142.071-.234.082-.278.033-.044.082-.158.148-.344.076-.185.136-.365.18-.54.022-.087.065-.251.131-.491l.262-.868c.109-.327.212-.649.311-.966a35.178 35.178 0 0 0 .425-1.31c.088-.131.153-.256.197-.376.043-.12.071-.202.082-.246a.242.242 0 0 0 .114-.164c.011-.076.017-.136.017-.18 0-.054.016-.098.049-.131.043-.032.065-.071.065-.114a.22.22 0 0 0 .082-.148.343.343 0 0 1 .098-.196l.082-.278.966-.017a9.344 9.344 0 0 1-.098.491c-.044.186-.147.437-.311.754-.055.218-.12.414-.197.589-.065.175-.092.289-.081.344-.022.022-.071.131-.148.327a58.9 58.9 0 0 1-.245.721c-.088.283-.18.567-.279.851-.087.284-.169.535-.245.753a8.305 8.305 0 0 1-.131.393 5.716 5.716 0 0 0-.295.769c-.109.339-.273.797-.491 1.376a8.681 8.681 0 0 0-.328.786c-.12.349-.218.665-.294.949-.12.426-.208.721-.262.884-.044.175-.082.268-.115.279-.033.021-.093.027-.18.016Zm.131-9.758c-.306.011-.535-.005-.688-.049-.141-.044-.191-.153-.147-.327a.459.459 0 0 1 .213-.295c.109-.066.267-.115.475-.147.12-.022.273-.05.458-.082.197-.033.382-.066.557-.099.36-.043.655-.081.884-.114.24-.033.486-.06.737-.082.251-.022.567-.044.949-.065.317-.022.584-.039.802-.05l.344-.032c.033 0 .148.011.344.032.197.022.409.05.639.082.229.033.398.071.507.115.251.054.431.131.54.229.12.098.202.24.246.426.033.131.033.213 0 .245a1.993 1.993 0 0 1-.18.099c-.251.076-.437.114-.557.114-.12 0-.256-.027-.409-.082a.954.954 0 0 0-.197-.147c-.065-.044-.185-.076-.36-.098a6.39 6.39 0 0 0-.786-.082 7.568 7.568 0 0 1-.802.049c-.229 0-.344.027-.344.082l-.966.049-.802.082c-.109.011-.262.027-.458.049a9.2 9.2 0 0 0-.573.049 2.859 2.859 0 0 0-.426.049Zm5.656 8.645c-.426-.175-.704-.415-.835-.721-.12-.316-.142-.802-.066-1.457.022-.338.033-.562.033-.671 0-.109-.06-.218-.18-.328a1.479 1.479 0 0 0-.18-.18c-.077-.076-.109-.142-.099-.196a.655.655 0 0 1 .017-.246c.022-.098.054-.147.098-.147a.289.289 0 0 0 .131-.033c.055-.022.104-.022.147 0 .044 0 .093.006.148.017.054.01.082.038.082.081.043.077.114.088.212.033.099-.065.202-.207.311-.425.11-.175.252-.35.426-.524.186-.175.366-.333.54-.475.186-.153.339-.262.459-.328a3.17 3.17 0 0 1 .245-.081c.11-.033.224-.061.344-.082.131-.022.24-.028.328-.017.196.011.36.066.491.164.142.098.273.213.393.344a.608.608 0 0 1 .262.393c.043.163.054.338.032.524-.021.185-.07.354-.147.507-.033.109-.125.24-.278.393-.153.153-.328.3-.524.442a2.594 2.594 0 0 1-.54.311c-.142.033-.328.06-.557.082a6.216 6.216 0 0 1-.622.033c-.186-.011-.311-.033-.377-.066-.076-.043-.136.017-.18.18a4.106 4.106 0 0 0-.098.704c-.022.241-.022.415 0 .524.022.109.044.186.065.23.077.076.181.174.312.294.141.109.338.126.589.049.207-.054.409-.196.606-.425.207-.23.398-.415.573-.557a.262.262 0 0 1 .213-.131.745.745 0 0 1 .343.016c.12.077.17.17.148.279-.011.098-.066.251-.164.458a1.072 1.072 0 0 1-.229.295 6.14 6.14 0 0 1-.377.344 3.016 3.016 0 0 1-.36.262c-.327.174-.633.267-.917.278-.284 0-.556-.049-.818-.147Zm.966-3.324c.24-.054.431-.093.573-.115a.895.895 0 0 0 .409-.18c.131-.109.295-.311.491-.605a.678.678 0 0 0 .033-.361c-.011-.12-.038-.201-.082-.245a.321.321 0 0 0-.36-.098 1.062 1.062 0 0 0-.377.18 1.585 1.585 0 0 0-.344.245c-.142.12-.283.262-.425.426a3.438 3.438 0 0 0-.344.426c-.087.131-.109.207-.066.229-.021.044.039.071.18.082.153.011.257.016.312.016Zm3.326 3.127a.488.488 0 0 0-.163-.196c-.066-.055-.099-.104-.099-.148a.54.54 0 0 0-.016-.131.204.204 0 0 0-.066-.147c-.054-.065-.049-.213.017-.442.065-.24.174-.529.327-.868.153-.349.333-.715.541-1.097.087-.087.174-.202.262-.343a1.74 1.74 0 0 1 .196-.279c0-.043.016-.082.049-.114.033-.044.071-.066.115-.066v-.098c0-.055.049-.147.147-.278.109-.131.24-.273.393-.426.153-.164.311-.317.475-.459.163-.152.3-.262.409-.327.229-.153.464-.246.704-.278a.808.808 0 0 1 .639.163l.163.164.262.262c.109.087.219.18.328.278l.605.541-.294.818c-.142.437-.18.819-.115 1.146.077.328.186.612.328.852.054.12.163.234.327.343.175.11.338.175.491.197a.54.54 0 0 1 .246.098c.076.055.114.142.114.262a.462.462 0 0 1-.065.262c-.044.066-.12.109-.229.131a1.433 1.433 0 0 1-1.015-.262c-.306-.218-.59-.578-.852-1.08a2.851 2.851 0 0 1-.18-.361 3.326 3.326 0 0 1-.114-.36 41.61 41.61 0 0 0-.246.311c-.12.142-.213.246-.278.311-.775.786-1.447 1.316-2.014 1.588-.557.262-1.021.273-1.392.033Zm.59-.917c0 .077.114.077.343 0 .241-.087.497-.24.77-.458.371-.317.742-.666 1.113-1.048a8.19 8.19 0 0 0 .917-1.064l.36-.589c-.109-.252-.229-.421-.36-.508-.12-.098-.224-.147-.311-.147-.142 0-.355.131-.638.393a7.911 7.911 0 0 0-.885 1.047c-.316.437-.616.917-.9 1.441a11.1 11.1 0 0 0-.295.639l-.114.294Zm13.826.819a1.147 1.147 0 0 1-.245-.164c-.109-.087-.202-.234-.279-.442-.076-.218-.114-.518-.114-.9a24.1 24.1 0 0 0 .016-.77c.011-.185-.027-.278-.114-.278-.088 0-.257.087-.508.262-.24.164-.518.387-.835.671-.316.284-.638.6-.966.95-.109.12-.218.234-.327.343a.777.777 0 0 1-.295.197c-.098.022-.213-.016-.344-.115l-.18-.147a.327.327 0 0 1-.098-.164.48.48 0 0 1 .016-.213l.377-1.08c.174-.393.294-.677.36-.851.065-.186.098-.301.098-.344 0-.055-.016-.077-.049-.066-.087.011-.218.066-.393.164-.175.087-.289.175-.344.262-.043 0-.109.049-.196.147a1.714 1.714 0 0 1-.328.279c-.076.131-.229.3-.458.507-.218.207-.437.42-.655.639a3.29 3.29 0 0 0-.426.442l-.343.458c-.088.131-.148.197-.181.197a.72.72 0 0 1-.392-.115c-.11-.076-.191-.202-.246-.377-.087-.185-.087-.442 0-.769.087-.338.186-.775.295-1.31.043-.164.071-.284.082-.36a1.56 1.56 0 0 1 .049-.229l.147-.393.344-.786c.076-.207.12-.36.131-.458.022-.11.033-.186.033-.23 0-.109.027-.202.081-.278a.565.565 0 0 1 .23-.164.387.387 0 0 1 .245-.016c.12.022.224.082.311.18a.612.612 0 0 1 .164.409.958.958 0 0 1-.033.36 7.991 7.991 0 0 1-.098.279l-.18.442a15.997 15.997 0 0 0-.442 1.162 1.75 1.75 0 0 0-.098.328c.011.032.049.027.114-.017.066-.054.148-.125.246-.212a7.36 7.36 0 0 1 .327-.279c.229-.218.486-.425.77-.622.294-.207.573-.382.835-.524.262-.142.464-.235.605-.278.186 0 .312.033.377.098.076.066.202.186.377.36.076.077.12.175.131.295.011.12.005.235-.017.344a7.768 7.768 0 0 1-.098.327c-.055.164-.109.322-.164.475l-.065.229.18-.164c.131-.109.273-.223.426-.343l.343-.295c.426-.327.797-.535 1.114-.622.316-.088.573.027.769.344.131.12.197.251.197.393.011.141.016.387.016.736.011.142.022.311.033.508l.032.54c.022.153.044.246.066.278a.396.396 0 0 0 .18.115c.098.022.224.044.377.066.163.021.262.092.294.212.033.12-.038.235-.213.344a.925.925 0 0 1-.54.131 1.857 1.857 0 0 1-.524-.098Zm3.333.54a2.657 2.657 0 0 1-.786-.049 1.615 1.615 0 0 1-.622-.278 1.141 1.141 0 0 1-.344-.508c-.076-.153-.114-.256-.114-.311 0-.065.038-.12.114-.164.088 0 .164.028.23.082.076.044.174.093.294.148.164.142.36.218.59.229.24.011.458-.027.655-.115.196-.087.305-.196.327-.327a.933.933 0 0 0-.049-.229 6.036 6.036 0 0 0-.115-.344 5.022 5.022 0 0 1-.655-1.228c-.131-.415-.196-.753-.196-1.015 0-.197.06-.404.18-.622.12-.23.284-.421.491-.573.197-.208.415-.393.655-.557.24-.164.48-.306.72-.426.251-.12.475-.207.672-.262.12 0 .278.017.474.049.197.033.333.071.41.115.12.044.234.164.344.36.109.186.163.371.163.557a.926.926 0 0 1-.065.295c-.044.12-.115.262-.213.425-.044.12-.093.235-.147.344a.522.522 0 0 0-.082.213c-.055.12-.131.18-.229.18a.536.536 0 0 1-.279-.147 1.247 1.247 0 0 1-.213-.344 1.138 1.138 0 0 1-.049-.393.802.802 0 0 1 .131-.344c.12-.12.18-.202.18-.245 0-.044-.06-.066-.18-.066-.076 0-.218.049-.425.147-.197.088-.41.208-.639.361a3.477 3.477 0 0 0-.573.458c-.207.196-.333.338-.377.426a1.269 1.269 0 0 0-.049.409c0 .153.033.344.099.573.076.229.152.382.229.458l.114.23c.077.142.17.294.279.458.316.699.398 1.201.245 1.506-.152.306-.551.481-1.195.524Z"/>
  <g filter="url(#b)">
    <path stroke="#92928C" stroke-dasharray="3.55 3.55" stroke-linecap="square" stroke-width="1.777" d="M92.986 158.191v2.993c0 5.907 4.803 10.689 10.71 10.663l84.427-.372c5.907-.026 10.71 4.756 10.71 10.663v18.394M350.846 158.191v2.992c0 5.908-4.803 10.689-10.71 10.663l-82.154-.37c-5.908-.026-10.711 4.755-10.711 10.663v18.393M223.144 201.158v-43.786"/>
    <path stroke="#92928C" stroke-linecap="square" stroke-width="1.777" d="M199.146 204.065v13.995m7.664-6.498-7.387 7.387-7.386-7.387"/>
    <g stroke="#92928C" stroke-linecap="square" stroke-width="1.777" clip-path="url(#c)">
      <path stroke-linejoin="round" d="M223.144 204.135v13.995"/>
      <path d="m230.549 211.563-7.386 7.386-7.386-7.386"/>
    </g>
    <g stroke="#92928C" stroke-linecap="square" stroke-width="1.777" clip-path="url(#d)">
      <path stroke-linejoin="round" d="M246.884 204.135v13.995"/>
      <path d="m254.289 211.562-7.387 7.387-7.386-7.387"/>
    </g>
    <g stroke="#92928C" stroke-linecap="square" stroke-width="1.777" clip-path="url(#e)">
      <path stroke-linejoin="round" d="M92.986 157.451v-13.995"/>
      <path d="m100.391 150.023-7.386-7.386-7.386 7.386"/>
    </g>
    <g stroke="#92928C" stroke-linecap="square" stroke-width="1.777" clip-path="url(#f)">
      <path stroke-linejoin="round" d="M223.144 157.451v-13.995"/>
      <path d="m230.549 150.023-7.386-7.386-7.386 7.386"/>
    </g>
    <g stroke="#92928C" stroke-linecap="square" stroke-width="1.777" clip-path="url(#g)">
      <path stroke-linejoin="round" d="M350.847 157.451v-13.995"/>
      <path d="m358.251 150.023-7.386-7.386-7.386 7.386"/>
    </g>
    <path stroke="#DBFE01" stroke-dasharray="3.55 3.55" stroke-linecap="square" stroke-width="1.777" d="M92.986 393.81v-5.896c0-5.912 4.809-10.695 10.72-10.663l84.407.45c5.911.032 10.72-4.751 10.72-10.663v-24.57M350.847 393.81v-5.895c0-5.912-4.81-10.695-10.721-10.663l-82.134.448c-5.911.032-10.721-4.751-10.721-10.663v-24.569M223.144 341.843v52.785"/>
    <path stroke="#DBFE01" stroke-linecap="square" stroke-width="1.777" d="M199.146 338.935V324.94m7.664 6.498-7.387-7.387-7.386 7.387"/>
    <g stroke="#DBFE01" stroke-linecap="square" stroke-width="1.777" clip-path="url(#h)">
      <path stroke-linejoin="round" d="M223.144 338.865V324.87"/>
      <path d="m230.549 331.438-7.386-7.387-7.386 7.387"/>
    </g>
    <g stroke="#DBFE01" stroke-linecap="square" stroke-width="1.777" clip-path="url(#i)">
      <path stroke-linejoin="round" d="M246.884 338.865V324.87"/>
      <path d="m254.289 331.438-7.387-7.387-7.386 7.387"/>
    </g>
    <g stroke="#DBFE01" stroke-linecap="square" stroke-width="1.777" clip-path="url(#j)">
      <path stroke-linejoin="round" d="M92.986 394.549v13.995"/>
      <path d="m100.391 401.976-7.386 7.387-7.386-7.387"/>
    </g>
    <g stroke="#DBFE01" stroke-linecap="square" stroke-width="1.777" clip-path="url(#k)">
      <path stroke-linejoin="round" d="M223.144 394.549v13.995"/>
      <path d="m230.549 401.976-7.386 7.387-7.386-7.387"/>
    </g>
    <g stroke="#DBFE01" stroke-linecap="square" stroke-width="1.777" clip-path="url(#l)">
      <path stroke-linejoin="round" d="M350.847 394.549v13.995"/>
      <path d="m358.251 401.976-7.386 7.387-7.386-7.387"/>
    </g>
    <g filter="url(#m)">
      <g clip-path="url(#n)">
        <rect width="229" height="86" x="107.495" y="227.881" fill="#DBFE01" rx="10.663"/>
        <path stroke="#722B5B" stroke-opacity=".15" stroke-width=".889" d="M197.4 431.288 46.605 280.493M199.913 428.775 49.118 277.979M202.427 426.262 51.631 275.466M204.94 423.748 54.144 272.953M207.453 421.235 56.657 270.44M209.966 418.722 59.171 267.926M212.48 416.209 61.684 265.413M214.993 413.695 64.197 262.9M217.506 411.182 66.711 260.387M220.019 408.669 69.224 257.873M222.533 406.155 71.737 255.36M225.046 403.642 74.25 252.847M227.559 401.129 76.764 250.333M230.072 398.616 79.277 247.82M232.586 396.102 81.79 245.307M235.099 393.589 84.303 242.794M237.612 391.076 86.817 240.281M240.125 388.563 89.33 237.767M242.639 386.049 91.843 235.254M245.152 383.536 94.356 232.741M247.665 381.023 96.87 230.227M250.178 378.51 99.383 227.714M252.692 375.996 101.896 225.201M255.205 373.483 104.41 222.688M257.718 370.97 106.923 220.174M260.231 368.457 109.436 217.661M262.745 365.943 111.949 215.148M265.258 363.43 114.462 212.635M267.771 360.917 116.976 210.121M270.284 358.404 119.489 207.608M272.798 355.89 122.002 205.095M275.311 353.377 124.516 202.582M277.824 350.864 127.029 200.068M280.338 348.351 129.542 197.555M282.851 345.837 132.055 195.042M285.364 343.324 134.569 192.529M287.877 340.811 137.082 190.015M290.39 338.298 139.595 187.502M292.904 335.784 142.108 184.989M295.417 333.271 144.622 182.476M297.93 330.758 147.135 179.962M300.444 328.245 149.648 177.449M302.957 325.731 152.161 174.936M305.47 323.218 154.675 172.423M307.983 320.705 157.188 169.909M310.497 318.192 159.701 167.396M313.01 315.678 162.214 164.883M315.523 313.165 164.728 162.37M318.036 310.652 167.241 159.856M320.549 308.138 169.754 157.343M323.063 305.625 172.267 154.83M325.576 303.112 174.781 152.317M328.089 300.599 177.294 149.803M330.603 298.086 179.807 147.29M333.116 295.572 182.32 144.777M335.629 293.059 184.834 142.264M338.142 290.546 187.347 139.75M340.656 288.032 189.86 137.237M343.169 285.519 192.373 134.724M345.682 283.006 194.887 132.21M348.195 280.493 197.4 129.697M350.709 277.979 199.913 127.184M353.222 275.466 202.426 124.671M355.735 272.953 204.94 122.157M358.248 270.44 207.453 119.644M360.762 267.926 209.966 117.131M363.275 265.413 212.48 114.618"/>
        <path fill="#141413" fill-rule="evenodd" d="M175.164 249.003a1.783 1.783 0 0 1-.106-2.642l1.147-1.132a1.841 1.841 0 0 1 2.651.075l1.008 1.117c1.554 1.721 4.281 1.721 5.835 0l1.008-1.117a1.842 1.842 0 0 1 2.652-.075l1.146 1.132c.753.743.704 1.96-.105 2.642l-.889.749a4.078 4.078 0 0 0 0 6.259l.889.749c.809.681.858 1.899.105 2.642l-1.117 1.102a1.841 1.841 0 0 1-2.677-.104l-.956-1.107c-1.561-1.804-4.386-1.804-5.946 0l-.957 1.107a1.841 1.841 0 0 1-2.677.104l-1.117-1.102a1.783 1.783 0 0 1 .106-2.642l1.005-.847a3.952 3.952 0 0 0 0-6.063l-1.005-.847Z" clip-rule="evenodd"/>
        <g filter="url(#o)">
          <path fill="#F8F8F7" fill-rule="evenodd" d="m174.091 245.406 1.146-1.131a3.221 3.221 0 0 1 4.64.131l1.008 1.116a2.562 2.562 0 0 0 3.793 0l1.008-1.116a3.221 3.221 0 0 1 4.64-.131l1.147 1.131a3.124 3.124 0 0 1-.185 4.624l-.889.749a2.74 2.74 0 0 0 0 4.205l.889.749a3.122 3.122 0 0 1 .185 4.623l-1.117 1.103a3.22 3.22 0 0 1-4.685-.183l-.957-1.107a2.562 2.562 0 0 0-3.865 0l-.957 1.107a3.22 3.22 0 0 1-4.685.183l-1.116-1.103a3.12 3.12 0 0 1 .185-4.623l1.005-.847a2.614 2.614 0 0 0 0-4.01l-1.005-.846a3.122 3.122 0 0 1-.185-4.624Zm.967.955a1.783 1.783 0 0 0 .106 2.642l1.005.847a3.952 3.952 0 0 1 0 6.063l-1.005.847a1.783 1.783 0 0 0-.106 2.642l1.117 1.102a1.841 1.841 0 0 0 2.677-.104l.957-1.107c1.56-1.804 4.385-1.804 5.946 0l.956 1.107a1.841 1.841 0 0 0 2.677.104l1.117-1.102a1.784 1.784 0 0 0-.105-2.642l-.889-.749a4.078 4.078 0 0 1 0-6.259l.889-.749a1.784 1.784 0 0 0 .105-2.642l-1.146-1.132a1.842 1.842 0 0 0-2.652.075l-1.008 1.117c-1.554 1.721-4.281 1.721-5.835 0l-1.008-1.117a1.841 1.841 0 0 0-2.651-.075l-1.147 1.132Z" clip-rule="evenodd"/>
        </g>
        <path fill="#141413" d="M263.99 260.834c-2.714 0-4.771-1.231-4.815-3.759l3.305-.151c0 .691.438 1.275 1.445 1.275.678 0 1.138-.368 1.138-.864 0-1.469-4.881-1.512-4.881-4.623 0-2.095 1.773-3.499 4.421-3.499 2.495 0 4.531 1.231 4.574 3.65l-3.326.13c-.022-.778-.482-1.145-1.248-1.145-.481 0-.985.238-.985.756 0 1.426 4.947 1.318 4.947 4.471 0 2.312-1.883 3.759-4.575 3.759ZM257.477 248.263c-1.029 0-1.773-.735-1.773-1.707 0-1.101.941-1.965 2.101-1.965 1.029 0 1.773.734 1.773 1.706 0 1.08-.941 1.966-2.101 1.966Zm-4.815 16.264c-.701 0-1.423-.129-2.058-.432l.504-2.872c.219.129.481.237.919.237.788 0 1.313-.475 1.466-1.404l1.861-10.541h3.458l-1.97 11.146c-.438 2.462-2.079 3.866-4.18 3.866ZM249.618 260.834c-1.05 0-1.795-.778-1.795-1.793 0-1.145.964-2.052 2.145-2.052 1.029 0 1.751.756 1.751 1.771 0 1.167-.941 2.074-2.101 2.074ZM247.126 254.311c0 .648-.088 1.209-.285 1.771h-7.989c.219 1.101 1.029 1.879 2.255 1.879.919 0 1.641-.454 1.904-.778l3.502.152c-.766 1.641-2.802 3.499-5.581 3.499-2.999 0-5.363-2.247-5.363-5.314 0-3.175 2.714-6.307 6.391-6.307 2.846 0 5.166 2.117 5.166 5.098Zm-5.45-2.268c-1.204 0-2.167.82-2.605 1.922h4.859c-.131-.972-.832-1.922-2.254-1.922ZM229.3 260.834c-2.714 0-4.771-1.231-4.815-3.759l3.305-.151c0 .691.438 1.275 1.445 1.275.678 0 1.138-.368 1.138-.864 0-1.469-4.881-1.512-4.881-4.623 0-2.095 1.773-3.499 4.421-3.499 2.495 0 4.531 1.231 4.575 3.65l-3.327.13c-.022-.778-.482-1.145-1.248-1.145-.481 0-.985.238-.985.756 0 1.426 4.947 1.318 4.947 4.471 0 2.312-1.882 3.759-4.575 3.759ZM216.197 260.834c-2.977 0-4.465-2.247-3.94-5.141l1.095-6.178h3.458l-1.073 5.962c-.175 1.08.438 2.203 1.773 2.203 1.029 0 1.882-.799 2.057-1.901l1.095-6.264h3.458l-1.948 11.016h-2.539l-.328-1.015h-.11c-.591.713-1.641 1.318-2.998 1.318ZM213.051 245.411l-.591 3.435h-7.026l-.547 3.132h5.997l-.591 3.283h-5.997l-.941 5.27h-3.721l2.692-15.12h10.725ZM132.219 281.881h-1.624v-7.028h-2.548v-1.512h6.72v1.512h-2.548v7.028Zm9.084-5.138v-3.402h1.624v8.54h-1.624v-3.626h-3.752v3.626h-1.624v-8.54h1.624v3.402h3.752Zm5.203 1.47v2.17h4.368v1.498h-5.992v-8.54h5.852v1.498h-4.228v1.932h3.906v1.442h-3.906Zm13.107 3.836c-2.366 0-4.284-1.974-4.284-4.438 0-2.464 1.918-4.438 4.284-4.438 2.366 0 4.284 1.974 4.284 4.438 0 2.464-1.918 4.438-4.284 4.438Zm0-1.526c1.498 0 2.66-1.218 2.66-2.912s-1.162-2.912-2.66-2.912c-1.484 0-2.66 1.218-2.66 2.912s1.176 2.912 2.66 2.912Zm5.749-7.182h3.29c1.778 0 3.066 1.246 3.066 2.856 0 1.624-1.288 2.87-3.066 2.87h-1.666v2.814h-1.624v-8.54Zm1.624 4.228h1.638c.868 0 1.47-.574 1.47-1.372 0-.77-.602-1.358-1.47-1.358h-1.638v2.73Zm7.725.644v2.17h4.368v1.498h-5.992v-8.54h5.852v1.498h-4.228v1.932h3.906v1.442h-3.906Zm11.398 1.064v-5.936h1.582v8.54h-1.47l-4.074-5.922v5.922h-1.582v-8.54h1.47l4.074 5.936Zm7.72-.462h-4.578v-1.386h4.578v1.386Zm4.301 3.234c-2.016 0-3.22-1.232-3.29-2.716h1.624c.042.7.672 1.288 1.652 1.288.966 0 1.456-.476 1.456-1.064 0-1.778-4.508-1.008-4.508-4.004 0-1.288 1.078-2.38 2.94-2.38 1.75 0 2.968 1.134 3.052 2.646h-1.61c-.07-.742-.63-1.218-1.442-1.218-.868 0-1.316.462-1.316.98 0 1.68 4.508.882 4.508 3.948 0 1.414-1.12 2.52-3.066 2.52Zm8.35 0c-2.366 0-4.284-1.974-4.284-4.438 0-2.464 1.918-4.438 4.284-4.438 2.366 0 4.284 1.974 4.284 4.438 0 2.464-1.918 4.438-4.284 4.438Zm0-1.526c1.498 0 2.66-1.218 2.66-2.912s-1.162-2.912-2.66-2.912c-1.484 0-2.66 1.218-2.66 2.912s1.176 2.912 2.66 2.912Zm9.235 1.526c-2.1 0-3.556-1.512-3.556-3.626v-5.082h1.624v5.082c0 1.302.756 2.1 1.932 2.1s1.932-.798 1.932-2.1v-5.082h1.624v5.082c0 2.114-1.456 3.626-3.556 3.626Zm12.204-.168h-1.848l-1.778-3.024h-1.512v3.024h-1.624v-8.54h3.514c1.82 0 3.024 1.162 3.024 2.758 0 1.232-.728 2.142-1.792 2.534l2.016 3.248Zm-3.276-7.056h-1.862v2.59h1.862c.882 0 1.428-.49 1.428-1.302 0-.798-.546-1.288-1.428-1.288Zm8.347 7.224c-2.366 0-4.284-1.974-4.284-4.438 0-2.464 1.918-4.438 4.284-4.438 2.24 0 3.654 1.582 4.004 3.22h-1.666c-.28-.84-1.022-1.694-2.338-1.694-1.484 0-2.66 1.218-2.66 2.912s1.176 2.912 2.66 2.912c1.372 0 2.114-.868 2.394-1.694h1.666c-.35 1.652-1.75 3.22-4.06 3.22Zm7.072-3.836v2.17h4.368v1.498h-5.992v-8.54h5.852v1.498h-4.228v1.932h3.906v1.442h-3.906Zm12.058 3.668h-2.744v-8.54h2.744c2.604 0 4.466 1.82 4.466 4.27 0 2.45-1.862 4.27-4.466 4.27Zm-1.12-7.028v5.516h1.12c1.652 0 2.842-1.162 2.842-2.758s-1.19-2.758-2.842-2.758H251Zm13.966 7.028h-1.694l-.658-1.834h-3.542l-.658 1.834h-1.666l3.262-8.54h1.708l3.248 8.54Zm-2.87-3.29-1.26-3.542-1.246 3.542h2.506Zm6.623 3.29h-1.624v-7.028h-2.548v-1.512h6.72v1.512h-2.548v7.028Zm10.056 0h-1.694l-.658-1.834h-3.542l-.658 1.834h-1.666l3.262-8.54h1.708l3.248 8.54Zm-2.87-3.29-1.26-3.542-1.246 3.542h2.506Zm9.563 3.29h-5.754v-8.54h1.624v7.07h4.13v1.47Zm8.277 0h-1.694l-.658-1.834h-3.542l-.658 1.834h-1.666l3.262-8.54h1.708l3.248 8.54Zm-2.87-3.29-1.26-3.542-1.246 3.542h2.506Zm6.035-1.456 1.988-3.794h1.722l-2.94 5.348v3.192h-1.624v-3.192l-2.94-5.348h1.792l2.002 3.794Zm6.303 1.078v2.17h4.368v1.498h-5.992v-8.54h5.852v1.498h-4.228v1.932h3.906v1.442h-3.906Zm12.616 3.668h-1.848l-1.778-3.024h-1.512v3.024h-1.624v-8.54h3.514c1.82 0 3.024 1.162 3.024 2.758 0 1.232-.728 2.142-1.792 2.534l2.016 3.248Zm-3.276-7.056h-1.862v2.59h1.862c.882 0 1.428-.49 1.428-1.302 0-.798-.546-1.288-1.428-1.288Zm-128.516 12.516v1.498h-4.186v2.296h3.71v1.442h-3.71v3.304h-1.624v-8.54h5.81Zm4.875 8.708c-2.366 0-4.284-1.974-4.284-4.438 0-2.464 1.918-4.438 4.284-4.438 2.366 0 4.284 1.974 4.284 4.438 0 2.464-1.918 4.438-4.284 4.438Zm0-1.526c1.498 0 2.66-1.218 2.66-2.912s-1.162-2.912-2.66-2.912c-1.484 0-2.66 1.218-2.66 2.912s1.176 2.912 2.66 2.912Zm12.511 1.358h-1.848l-1.778-3.024h-1.512v3.024h-1.624v-8.54h3.514c1.82 0 3.024 1.162 3.024 2.758 0 1.232-.728 2.142-1.792 2.534l2.016 3.248Zm-3.276-7.056h-1.862v2.59h1.862c.882 0 1.428-.49 1.428-1.302 0-.798-.546-1.288-1.428-1.288Zm27.392 4.452v-5.936h1.582v8.54h-1.47l-4.074-5.922v5.922h-1.582v-8.54h1.47l4.074 5.936Zm5.172-1.064v2.17h4.368v1.498h-5.992v-8.54h5.852v1.498h-4.228v1.932h3.906v1.442h-3.906Zm9.816-.686 2.772 4.354h-1.848l-1.988-3.262-2.002 3.262h-1.806l2.786-4.354-2.632-4.186h1.848l1.848 3.08 1.834-3.08h1.806l-2.618 4.186Zm7.192 4.354h-1.624v-7.028h-2.548v-1.512h6.72v1.512h-2.548v7.028Zm3.227.168a.965.965 0 0 1-.98-.98c0-.546.42-.966.98-.966s.98.42.98.966-.42.98-.98.98Zm4.577 0c-1.806 0-3.01-1.316-3.01-2.716h1.61c.042.672.532 1.19 1.386 1.19.868 0 1.4-.574 1.4-1.61v-5.572h1.624v5.558c0 1.834-1.218 3.15-3.01 3.15Zm7.644 0c-2.016 0-3.22-1.232-3.29-2.716h1.624c.042.7.672 1.288 1.652 1.288.966 0 1.456-.476 1.456-1.064 0-1.778-4.508-1.008-4.508-4.004 0-1.288 1.078-2.38 2.94-2.38 1.75 0 2.968 1.134 3.052 2.646h-1.61c-.07-.742-.63-1.218-1.442-1.218-.868 0-1.316.462-1.316.98 0 1.68 4.508.882 4.508 3.948 0 1.414-1.12 2.52-3.066 2.52ZM209.888 285.208a7.247 7.247 0 0 1-.182.017c-1.704.153-3.301 1.073-4.312 2.486a5.938 5.938 0 0 0-1.059 2.621c-.048.33-.054.427-.054.874s.006.544.054.874a6.024 6.024 0 0 0 4.104 4.847c.39.126.8.211 1.267.263.182.02.967.02 1.149 0a6.047 6.047 0 0 0 2.162-.632c.103-.053.123-.067.109-.079-.01-.007-.449-.597-.977-1.31l-.959-1.296-1.203-1.779a162.045 162.045 0 0 0-1.21-1.778c-.005-.001-.009.789-.012 1.755-.003 1.69-.004 1.758-.026 1.798a.209.209 0 0 1-.103.106c-.037.019-.07.023-.247.023h-.203l-.054-.034a.231.231 0 0 1-.079-.086l-.024-.053.002-2.351.004-2.353.036-.046a.334.334 0 0 1 .087-.071c.048-.024.067-.026.269-.026.24 0 .28.009.342.077.017.019.668 1 1.447 2.181l2.367 3.585.95 1.439.048-.032c.426-.276.876-.67 1.233-1.081a5.976 5.976 0 0 0 1.412-3.067c.048-.33.054-.427.054-.874s-.006-.544-.054-.874a6.024 6.024 0 0 0-4.104-4.847 6.291 6.291 0 0 0-1.249-.261 15.601 15.601 0 0 0-.985-.016Zm2.456 3.629a.234.234 0 0 1 .118.139c.009.03.012.682.009 2.152l-.003 2.108-.372-.57-.373-.57v-1.532c0-.992.005-1.549.012-1.576a.24.24 0 0 1 .116-.147c.048-.025.066-.027.25-.027.173 0 .204.002.243.023Z"/>
      </g>
      <rect width="228" height="85" x="107.995" y="228.381" stroke="#B0CB01" rx="10.163"/>
    </g>
  </g>
  <rect width="445.181" height="96.455" x="1.41" y="36.907" fill="#141413" rx="16.883"/>
  <rect width="445.181" height="96.455" x="1.41" y="36.907" stroke="#222221" stroke-dasharray="3.55 3.55" stroke-width="1.777" rx="16.883"/>
  <rect width="139.911" height="84.246" x="7.514" y="43.012" fill="#191918" rx="10.219"/>
  <rect width="139.911" height="84.246" x="7.514" y="43.012" stroke="#222221" stroke-width=".889" rx="10.219"/>
  <g clip-path="url(#p)">
    <path fill="#fff" d="M57.361 93.007c.39.518.897.938 1.479 1.224.63.312 1.324.47 2.026.46a4.352 4.352 0 0 0 1.665-.284 2.89 2.89 0 0 0 1.106-.774c.284-.332.491-.724.607-1.145.127-.456.19-.927.186-1.4v-1.645h-.039a3.532 3.532 0 0 1-1.527 1.332c-.6.26-1.246.394-1.9.391a4.94 4.94 0 0 1-1.87-.352 4.757 4.757 0 0 1-1.517-.97 4.461 4.461 0 0 1-1.019-1.478 4.639 4.639 0 0 1-.372-1.86 4.867 4.867 0 0 1 .353-1.86 4.78 4.78 0 0 1 .97-1.509 4.372 4.372 0 0 1 1.468-1.008 4.73 4.73 0 0 1 1.87-.362c.292.001.583.028.871.078.317.055.625.147.92.274.701.304 1.307.79 1.753 1.41h.04v-1.528h1.292v9.087a7.382 7.382 0 0 1-.186 1.586 3.918 3.918 0 0 1-.725 1.547c-.4.503-.914.905-1.498 1.175-.64.313-1.475.47-2.506.47a6.296 6.296 0 0 1-2.448-.45 5.688 5.688 0 0 1-1.958-1.39l.96-1.02Zm.235-6.54a3.575 3.575 0 0 0 .989 2.477c.307.32.673.58 1.077.763.421.192.879.288 1.342.284a3.592 3.592 0 0 0 2.467-.97c.328-.31.586-.687.754-1.106.181-.46.265-.954.245-1.449a3.899 3.899 0 0 0-.235-1.36 3.269 3.269 0 0 0-.686-1.117 3.312 3.312 0 0 0-1.096-.764 3.57 3.57 0 0 0-1.45-.283 3.173 3.173 0 0 0-1.34.284 3.513 3.513 0 0 0-1.802 1.88 3.512 3.512 0 0 0-.265 1.36Zm13.394 4.7h-1.41V77.301h4.27c1.41 0 2.522.306 3.338.92.816.614 1.224 1.54 1.224 2.78.025.9-.302 1.775-.91 2.439-.608.66-1.486 1.04-2.634 1.145l3.994 6.58H77.14l-3.799-6.442h-2.35v6.442Zm0-7.736h2.507a5.638 5.638 0 0 0 1.596-.196c.38-.102.736-.278 1.047-.519.251-.202.447-.465.568-.763.12-.303.18-.625.176-.95a2.48 2.48 0 0 0-.176-.93 1.97 1.97 0 0 0-.568-.774 2.77 2.77 0 0 0-1.047-.519 5.926 5.926 0 0 0-1.596-.186H70.99v4.837Zm10.3-6.13h4.034c1.41 0 2.523.308 3.339.921.816.614 1.224 1.54 1.224 2.78 0 1.241-.408 2.172-1.224 2.791-.816.62-1.929.93-3.339.93H82.7v6.443h-1.41V77.302Zm1.41 6.13h2.272a5.634 5.634 0 0 0 1.596-.196c.38-.101.736-.278 1.047-.519.252-.202.447-.465.568-.763.12-.303.18-.625.177-.95a2.48 2.48 0 0 0-.177-.93 1.972 1.972 0 0 0-.568-.774 2.771 2.771 0 0 0-1.047-.519 5.926 5.926 0 0 0-1.596-.186H82.7v4.837Zm21.344 5.542a5.506 5.506 0 0 1-2.056 1.811 6.651 6.651 0 0 1-3.074.734 7.416 7.416 0 0 1-2.869-.548 6.882 6.882 0 0 1-3.809-3.818 7.587 7.587 0 0 1-.548-2.918c-.011-1 .175-1.99.548-2.918a6.88 6.88 0 0 1 3.81-3.818 7.414 7.414 0 0 1 2.868-.549 7.013 7.013 0 0 1 2.585.51c.876.35 1.641.932 2.212 1.684l-1.233.92a3.365 3.365 0 0 0-.588-.666 4.297 4.297 0 0 0-.851-.587 5.32 5.32 0 0 0-1.029-.412 3.976 3.976 0 0 0-1.096-.156 5.625 5.625 0 0 0-2.39.49 5.426 5.426 0 0 0-1.79 1.311 5.772 5.772 0 0 0-1.127 1.91 6.84 6.84 0 0 0 0 4.562c.249.703.63 1.352 1.126 1.91.5.556 1.11 1.002 1.792 1.311.75.337 1.566.504 2.389.49.364 0 .728-.032 1.087-.098.364-.067.72-.179 1.057-.333.356-.163.686-.377.979-.636.33-.295.617-.634.852-1.009l1.155.823Z"/>
    <path fill="url(#q)" d="m54.549 81.86-3.652-3.624 3.625-3.651 3.651 3.624-3.624 3.651Z"/>
    <path fill="url(#r)" d="m64.373 80.224-2.142-2.126 2.126-2.141 2.141 2.125-2.125 2.142Z"/>
    <path fill="#244B5A" d="m55.107 76.138-2.195 2.211 2.211 2.195 1.87-.007-1.96-1.946 9.686-.036-.85.855.936-.004 1.097-1.105-1.105-1.098-.935.004.855.848-9.687.036 1.947-1.96-1.87.007Z"/>
  </g>
  <rect width="139.911" height="84.246" x="154.044" y="43.012" fill="#191918" rx="10.219"/>
  <rect width="139.911" height="84.246" x="154.044" y="43.012" stroke="#222221" stroke-width=".889" rx="10.219"/>
  <path fill="#51AC9D" d="M234.891 68.248v3.614c0 .868.434 1.263 1.461 1.263v1.777c-1.027 0-1.461.395-1.461 1.264v3.614c0 2.073-1.106 3.12-3.258 3.12h-1.146v-1.995h.988c.829 0 1.323-.454 1.323-1.343v-3.554c0-1.224.71-1.777 1.362-1.994-.652-.217-1.362-.77-1.362-1.995v-3.554c0-.888-.494-1.343-1.323-1.343h-.988v-1.994h1.146c2.152 0 3.258 1.047 3.258 3.12ZM223.591 71.214c-.79 0-1.382-.612-1.382-1.382 0-.77.592-1.363 1.382-1.363.79 0 1.382.593 1.382 1.363s-.592 1.382-1.382 1.382Zm0 7.484c-.79 0-1.382-.612-1.382-1.383 0-.77.592-1.362 1.382-1.362.79 0 1.382.592 1.382 1.362 0 .77-.592 1.383-1.382 1.383ZM214.384 68.465v3.554c0 1.224-.731 1.777-1.382 1.995.651.217 1.382.77 1.382 1.994v3.554c0 .889.494 1.343 1.303 1.343h.988v1.994h-1.126c-2.152 0-3.258-1.046-3.258-3.12v-3.613c0-.869-.434-1.264-1.461-1.264v-1.777c1.027 0 1.461-.395 1.461-1.264v-3.613c0-2.074 1.106-3.12 3.258-3.12h1.145v1.994h-1.007c-.809 0-1.303.454-1.303 1.343Z"/>
  <path fill="#BCBCB8" d="M211.142 91.468c.877 0 1.635.154 2.275.462.651.308 1.149.752 1.492 1.332.356.581.534 1.256.534 2.026 0 .546-.131 1.043-.391 1.493-.249.45-.581.812-.996 1.084-.402.261-.817.403-1.244.427l-.551-.16c1.008 0 1.73.166 2.169.497.438.332.699.913.782 1.742l.355 3.714h-1.582l-.32-3.554c-.047-.557-.278-.948-.693-1.173-.402-.225-1.066-.338-1.99-.338h-3.075v5.065h-1.563V91.468h4.798Zm0 6.024c.853 0 1.51-.19 1.973-.569.462-.39.693-.947.693-1.67s-.231-1.28-.693-1.67c-.463-.392-1.12-.587-1.973-.587h-3.235v4.496h3.235Zm6.099 1.884c0-.995.178-1.86.533-2.595.356-.746.859-1.32 1.511-1.724.651-.402 1.41-.604 2.275-.604.722 0 1.38.166 1.972.498.604.32 1.096.835 1.475 1.546.379.699.593 1.588.64 2.666l.018.693h-6.807c.071.948.338 1.682.8 2.203.474.522 1.108.782 1.902.782.509 0 .971-.136 1.386-.408.414-.273.728-.652.942-1.138l1.635.125a3.937 3.937 0 0 1-1.511 2.097 4.09 4.09 0 0 1-2.452.782c-.865 0-1.624-.202-2.275-.605-.652-.402-1.155-.971-1.511-1.706-.355-.746-.533-1.617-.533-2.612Zm6.753-.87c-.13-.913-.414-1.57-.853-1.974a2.218 2.218 0 0 0-1.581-.621c-.735 0-1.333.225-1.795.675-.451.45-.741 1.09-.871 1.92h5.1Zm9.337-.925a1.856 1.856 0 0 0-.836-1.209 2.477 2.477 0 0 0-1.457-.462c-.533 0-.977.13-1.333.391a1.175 1.175 0 0 0-.533 1.013c0 .415.207.735.622.96.427.225.96.403 1.6.533.805.154 1.469.338 1.99.551.533.201.954.492 1.262.871.308.367.462.853.462 1.457 0 .581-.178 1.066-.533 1.457a3.203 3.203 0 0 1-1.369.871 5.465 5.465 0 0 1-1.777.285c-.746 0-1.422-.131-2.026-.391-.604-.261-1.09-.628-1.457-1.102a3.192 3.192 0 0 1-.604-1.688l1.599-.107c.071.379.213.705.427.977.213.273.491.486.835.64.355.142.764.213 1.226.213.545 0 1.025-.094 1.44-.284.426-.201.639-.521.639-.96 0-.308-.089-.551-.266-.728a1.61 1.61 0 0 0-.64-.391 10.039 10.039 0 0 0-1.049-.267 3.925 3.925 0 0 1-.426-.089 15.133 15.133 0 0 1-1.831-.515 3.287 3.287 0 0 1-1.226-.818c-.331-.355-.497-.817-.497-1.386 0-.592.148-1.108.444-1.546.308-.45.735-.794 1.279-1.03.545-.25 1.179-.374 1.902-.374.948 0 1.765.279 2.452.835.7.546 1.126 1.274 1.28 2.186l-1.599.107Zm5.953-5.047v9.028c0 .391.094.687.284.888.19.19.468.285.835.285h1.369v1.35h-1.369c-.853 0-1.51-.219-1.972-.657-.451-.439-.676-1.061-.676-1.866v-9.028h1.529Zm2.523 2.132v1.351h-5.42v-1.35h5.42Z"/>
  <rect width="139.093" height="84.246" x="303.03" y="43.012" fill="#191918" rx="10.219"/>
  <rect width="139.093" height="84.246" x="303.03" y="43.012" stroke="#222221" stroke-width=".889" rx="10.219"/>
  <g clip-path="url(#s)">
    <path fill="url(#t)" d="M376.254 62.783c-.363.214-.965.816-1.684 1.697l.66 1.244c.467-.66.933-1.257 1.406-1.768l.058-.059-.058.059c-.156.168-.622.712-1.321 1.794.68-.033 1.716-.175 2.564-.318.253-1.412-.246-2.06-.246-2.06s-.634-1.03-1.379-.589Z"/>
    <path fill="#BE202E" d="M374.032 73.243c-.084.013-.168.033-.259.046l.13-.02c.038-.006.09-.02.129-.026Z"/>
    <path fill="#BE202E" d="M374.032 73.243c-.084.013-.168.033-.259.046l.13-.02c.038-.006.09-.02.129-.026Z" opacity=".35"/>
    <path fill="#BE202E" d="M374.252 72.155c.013 0 .026-.006.039-.006.059-.007.11-.02.162-.033a5.24 5.24 0 0 1-.201.04Z"/>
    <path fill="#BE202E" d="M374.252 72.155c.013 0 .026-.006.039-.006.059-.007.11-.02.162-.033a5.24 5.24 0 0 1-.201.04Z" opacity=".35"/>
    <path fill="url(#u)" d="M373.281 68.943c.201-.376.401-.739.609-1.101.213-.37.427-.732.647-1.075a24.091 24.091 0 0 1 .693-1.05l-.66-1.243c-.052.058-.097.123-.149.188-.188.24-.389.492-.59.764-.226.304-.466.628-.699.971-.22.318-.441.648-.667.991-.188.292-.382.59-.57.9-.007.014-.013.026-.02.033l.862 1.697c.175-.363.356-.725.544-1.075Z"/>
    <path fill="url(#v)" d="M369.369 78.502c-.117.311-.227.629-.343.96 0 .006-.007.006-.007.012-.019.045-.032.09-.052.136-.077.22-.142.415-.298.868.253.117.454.421.648.764a1.385 1.385 0 0 0-.447-.952c1.25.058 2.319-.259 2.876-1.172.052-.084.097-.169.136-.26-.253.318-.564.454-1.153.422h-.007.007c.868-.389 1.302-.758 1.69-1.38.091-.149.182-.304.272-.486-.757.778-1.638 1.004-2.564.836l-.693.078c-.02.051-.039.116-.065.174Z"/>
    <path fill="url(#w)" d="M369.693 76.942c.149-.389.304-.778.466-1.18.149-.381.311-.757.466-1.146.162-.382.324-.77.493-1.153.168-.388.343-.783.518-1.172.175-.382.35-.764.531-1.146l.194-.408c.117-.233.227-.467.343-.7l.02-.039-.855-1.677c-.013.026-.026.045-.039.071-.201.324-.401.66-.596 1.004-.201.343-.388.693-.583 1.05-.162.297-.317.602-.466.906-.032.065-.058.123-.091.188a23.657 23.657 0 0 0-.971 2.273c-.091.24-.169.473-.24.7-.058.194-.116.382-.168.576-.13.447-.24.9-.331 1.347l.862 1.704.35-.926.097-.272Z"/>
    <path fill="url(#x)" d="M368.371 76.488c-.11.544-.187 1.088-.226 1.626 0 .02-.007.039-.007.058-.272-.434-.991-.855-.991-.848.518.751.907 1.49.965 2.221-.278.059-.654-.026-1.094-.187.453.42.796.537.932.563-.421.026-.855.311-1.295.648.641-.26 1.159-.37 1.535-.285a135.625 135.625 0 0 0-1.775 5.473.503.503 0 0 0 .35-.344c.104-.356.803-2.681 1.904-5.738.033-.084.065-.175.097-.26.007-.025.02-.05.026-.07.117-.324.234-.648.363-.985.026-.078.058-.149.084-.227v-.006l-.861-1.703c0 .025-.007.045-.007.064Z"/>
    <path fill="url(#y)" d="M372.86 70.16a1.53 1.53 0 0 0-.071.156c-.072.155-.149.31-.227.473-.084.174-.169.35-.253.53-.045.091-.084.182-.129.28a37.8 37.8 0 0 0-.389.867c-.162.37-.33.745-.492 1.14-.162.376-.324.764-.486 1.166-.155.382-.317.777-.473 1.185-.142.363-.285.739-.434 1.12l-.019.059c-.143.382-.291.77-.434 1.172-.006.007-.006.02-.013.026l.693-.078c-.013 0-.026-.006-.039-.006.829-.104 1.937-.725 2.649-1.49.331-.35.628-.77.901-1.256.207-.363.395-.764.582-1.211.162-.389.318-.81.467-1.27a2.387 2.387 0 0 1-.648.227c-.039.006-.084.02-.129.026a5.08 5.08 0 0 0-.13.02c.777-.299 1.263-.875 1.619-1.581a2.74 2.74 0 0 1-.932.408c-.052.013-.111.02-.162.032-.013 0-.026.007-.039.007.265-.11.498-.24.693-.389l.123-.097a2.07 2.07 0 0 0 .168-.162c.033-.039.071-.071.104-.117a2.055 2.055 0 0 0 .272-.401c.026-.052.052-.097.071-.15.11-.22.194-.414.266-.582.032-.084.064-.162.09-.24.013-.025.02-.058.033-.084.026-.084.052-.155.065-.22.025-.097.038-.168.051-.227-.026.02-.058.04-.09.065-.233.142-.635.266-.959.324h-.013a.497.497 0 0 1-.097.013c.006 0 .013-.007.019-.007l-2.182.24c-.02.013-.02.026-.026.032Z"/>
    <path fill="url(#z)" d="M375.314 65.75c-.194.298-.408.635-.634 1.017l-.039.058c-.194.33-.408.693-.628 1.094-.188.344-.389.713-.596 1.108-.182.343-.363.713-.557 1.101l2.182-.24c.635-.291.92-.557 1.199-.939.071-.103.149-.213.22-.33a13.284 13.284 0 0 0 1.127-2.19 5 5 0 0 0 .291-1.01c-.848.156-1.884.298-2.565.33Z"/>
    <path fill="#BE202E" d="M373.903 73.27a5.565 5.565 0 0 0-.13.019l.13-.02Z"/>
    <path fill="#BE202E" d="M373.903 73.27a5.565 5.565 0 0 0-.13.019l.13-.02Z" opacity=".35"/>
    <path fill="url(#A)" d="M373.903 73.27a5.565 5.565 0 0 0-.13.019l.13-.02Z"/>
    <path fill="#6D6E71" d="M378.547 64.785v.064h.148v.421h.072v-.42h.149v-.065h-.369Zm.861 0-.168.337-.169-.337h-.084v.485h.065v-.388l.168.337h.045l.169-.337v.388h.065v-.485h-.091Z"/>
  </g>
  <path fill="#BCBCB8" d="M321.644 94.526h2.097l4.55 12.617h-1.706l-1.244-3.572h-5.296l-1.244 3.572h-1.706l4.549-12.617Zm3.163 7.517-2.114-6.149-2.115 6.149h4.229Zm5.276-4.318h1.387l.071 1.99-.16-.302c.237-.616.61-1.084 1.119-1.404.522-.332 1.155-.498 1.902-.498.9 0 1.653.225 2.257.676a3.992 3.992 0 0 1 1.368 1.795c.296.734.444 1.552.444 2.452 0 .9-.148 1.724-.444 2.47a4.002 4.002 0 0 1-1.368 1.777c-.604.451-1.357.676-2.257.676-.498 0-.948-.071-1.351-.214a2.91 2.91 0 0 1-1.031-.657 2.979 2.979 0 0 1-.622-1.084l.214-.249v4.656h-1.529V97.725Zm1.351 4.709c0 .616.095 1.185.284 1.706.19.521.486.948.889 1.28.415.319.924.479 1.528.479.901 0 1.576-.331 2.026-.995.45-.675.676-1.498.676-2.47 0-.971-.226-1.789-.676-2.452-.45-.676-1.125-1.013-2.026-1.013-.604 0-1.113.165-1.528.497-.403.32-.699.741-.889 1.262a4.97 4.97 0 0 0-.284 1.706Zm8.948-1.937c.19-.912.628-1.635 1.315-2.168.687-.545 1.535-.818 2.542-.818 1.22 0 2.156.344 2.807 1.031.664.675.996 1.647.996 2.915v3.767c0 .19.047.332.142.427.095.094.237.142.426.142h.391v1.35h-.746a3.29 3.29 0 0 1-.889-.142 1.354 1.354 0 0 1-.604-.444c-.154-.213-.231-.498-.231-.853-.213.462-.58.853-1.102 1.173-.509.32-1.113.48-1.812.48-.972 0-1.783-.243-2.435-.729-.64-.486-.96-1.137-.96-1.955 0-.616.142-1.108.427-1.475.284-.367.675-.646 1.173-.835.497-.201 1.149-.379 1.955-.533l2.736-.533c-.012-.782-.207-1.363-.586-1.742-.367-.39-.93-.586-1.688-.586-.581 0-1.067.142-1.458.426-.379.284-.639.693-.782 1.226l-1.617-.124Zm1.44 4.176c0 .391.166.711.497.96.344.249.841.373 1.493.373a2.78 2.78 0 0 0 1.404-.355c.415-.249.741-.616.977-1.102.237-.498.356-1.102.356-1.813v-.089l-2.204.391-.355.054c-.521.094-.924.183-1.209.266a1.386 1.386 0 0 0-.693.444c-.177.202-.266.492-.266.871Zm15.113-3.785c-.095-.592-.362-1.06-.8-1.404a2.406 2.406 0 0 0-1.528-.515c-.865 0-1.535.308-2.009.924-.474.604-.71 1.451-.71 2.541 0 1.09.236 1.943.71 2.559.474.604 1.144.906 2.009.906.604 0 1.125-.183 1.563-.55.451-.38.729-.895.836-1.547l1.617.107a3.857 3.857 0 0 1-.729 1.83 3.838 3.838 0 0 1-1.439 1.209 4.23 4.23 0 0 1-1.848.409c-.865 0-1.624-.202-2.275-.605-.652-.402-1.155-.971-1.511-1.706-.355-.746-.533-1.617-.533-2.612 0-.995.178-1.86.533-2.595.356-.746.859-1.32 1.511-1.723.651-.403 1.41-.605 2.275-.605a4.14 4.14 0 0 1 1.812.41c.581.26 1.055.639 1.422 1.136.379.498.61 1.073.693 1.724l-1.599.107Zm5.204-6.362v5.26l-.231-.267c.201-.663.575-1.16 1.12-1.492.556-.344 1.19-.516 1.901-.516 1.031 0 1.819.332 2.364.996.545.663.817 1.522.817 2.576v6.06h-1.528v-5.526c0-.581-.071-1.067-.213-1.458-.131-.39-.344-.687-.64-.888-.285-.202-.658-.302-1.12-.302-.758 0-1.362.23-1.812.693-.439.45-.658 1.101-.658 1.955v5.526h-1.528V94.526h1.528Zm7.968 7.908c0-.995.178-1.86.534-2.595.355-.746.858-1.32 1.51-1.723s1.41-.605 2.275-.605c.723 0 1.38.166 1.972.498.605.32 1.096.835 1.476 1.546.379.699.592 1.588.639 2.666l.018.693h-6.806c.071.948.337 1.682.799 2.203.474.522 1.108.782 1.902.782.509 0 .971-.136 1.386-.408a2.55 2.55 0 0 0 .942-1.138l1.635.125a3.937 3.937 0 0 1-1.511 2.097 4.088 4.088 0 0 1-2.452.782c-.865 0-1.623-.202-2.275-.605-.652-.402-1.155-.971-1.51-1.706-.356-.746-.534-1.617-.534-2.612Zm6.754-.871c-.131-.912-.415-1.57-.853-1.972a2.222 2.222 0 0 0-1.582-.622c-.735 0-1.333.225-1.795.675-.45.45-.741 1.09-.871 1.919h5.101Zm16.782-5.509h-3.91v11.089h-1.563V96.054h-3.91v-1.528h9.383v1.528Zm3.223-1.528v5.26l-.231-.267c.202-.663.575-1.16 1.12-1.492.557-.344 1.19-.516 1.901-.516 1.031 0 1.819.332 2.364.996.545.663.817 1.522.817 2.576v6.06h-1.528v-5.526c0-.581-.071-1.067-.213-1.458-.131-.39-.344-.687-.64-.888-.284-.202-.658-.302-1.12-.302-.758 0-1.362.23-1.812.693-.439.45-.658 1.101-.658 1.955v5.526h-1.528V94.526h1.528Zm9.819 3.199.071 2.452-.142-.142c.106-.806.343-1.392.711-1.76.379-.367.924-.55 1.635-.55h.924v1.35h-.924c-.474 0-.871.095-1.191.285-.308.177-.539.45-.693.817-.142.355-.213.806-.213 1.351v5.615h-1.529v-9.418h1.351Zm6.981 0v9.418h-1.529v-9.418h1.529Zm.035-3.2v1.725h-1.599v-1.724h1.599Zm3.716 2.613c0-.817.213-1.457.64-1.92.426-.461 1.066-.692 1.919-.692h1.457v1.35h-1.457a.927.927 0 0 0-.746.338c-.19.225-.285.533-.285.924v10.005h-1.528V97.138Zm-1.262.587h5.154v1.35h-5.154v-1.35Zm9.906-2.133v9.028c0 .391.095.687.285.888.189.19.468.285.835.285h1.368v1.35h-1.368c-.853 0-1.511-.219-1.973-.657-.45-.438-.675-1.06-.675-1.866v-9.028h1.528Zm2.524 2.133v1.35h-5.42v-1.35h5.42Z"/>
  <path fill="#DCDCDA" d="M186.426 18.933c-.469-.305-.786-.573-.949-.802-.164-.218-.099-.42.196-.606.065-.043.169-.005.311.115.153.109.278.213.377.31.218.197.485.317.802.361.327.055.693.027 1.097-.082a3.943 3.943 0 0 0 1.195-.59 5.72 5.72 0 0 0 .982-.949c.229-.295.388-.611.475-.95.087-.349.12-.67.098-.965-.011-.295-.071-.502-.18-.622-.273-.383-.655-.644-1.146-.786-.48-.153-1.048-.142-1.703.032a7.678 7.678 0 0 0-.753.164c-.12.022-.185.033-.196.033a.54.54 0 0 0-.18.082c-.044.022-.098.103-.164.245-.055.131-.142.371-.262.72-.12.34-.3.841-.54 1.507-.229.666-.415 1.14-.557 1.424-.131.273-.251.399-.36.377-.098-.033-.224-.153-.377-.36a1.301 1.301 0 0 1-.163-.442c-.022-.153.022-.328.131-.524a3.15 3.15 0 0 0 .131-.262c.032-.087.076-.235.131-.442.054-.164.158-.448.311-.852.163-.414.354-.895.573-1.44.218-.557.447-1.13.687-1.72.24-.589.47-1.146.688-1.67.229-.523.42-.965.573-1.326.153-.338.246-.583.278-.736.033-.153.022-.235-.032-.246a.239.239 0 0 0-.05-.147c-.032-.055-.043-.104-.032-.148 0-.043.071-.103.213-.18.152-.076.316-.147.491-.212.185-.066.327-.088.425-.066h.197c.076-.01.114-.038.114-.082.033 0 .137-.01.312-.033a2.51 2.51 0 0 1 .573 0c.731.066 1.298.279 1.702.639.404.35.601.83.59 1.44-.011.186-.109.437-.295.754a6.201 6.201 0 0 1-.655.95 6.771 6.771 0 0 1-.737.802 14.682 14.682 0 0 1-.867.688l-.164.114.131.049c.087.033.18.066.278.098.502.186.917.42 1.244.704.328.284.552.677.672 1.179.043.164.043.366 0 .606-.033.24-.082.48-.148.72-.065.23-.136.426-.212.59a.945.945 0 0 0-.181.245l-.065.115c0 .022-.044.109-.131.262-.087.142-.191.3-.311.474-.12.175-.235.328-.344.459l-.393.311c-.142.12-.305.235-.491.344-.175.109-.366.202-.573.278a3.636 3.636 0 0 1-.999.262c-.349.055-.682.06-.998.016-.317-.032-.573-.109-.77-.229Zm.802-6.303.295-.05c.207-.043.431-.087.671-.13.24-.055.415-.104.524-.147a9.72 9.72 0 0 1 .229-.132c.11-.054.219-.136.328-.245.153-.142.344-.344.573-.606.24-.273.475-.556.704-.851a5.54 5.54 0 0 0 .524-.819c.251-.393.387-.682.409-.867a.592.592 0 0 0-.18-.508c-.098-.12-.267-.196-.508-.23a2.715 2.715 0 0 0-.736-.032 2.83 2.83 0 0 0-.672.098.917.917 0 0 0-.327.164c-.076.055-.115.142-.115.262a.524.524 0 0 1-.098.295 1.157 1.157 0 0 1-.164.212.504.504 0 0 1-.081.213l-.066.082c0 .044-.076.224-.229.54-.153.317-.306.683-.459 1.097-.196.47-.349.852-.458 1.146-.109.284-.164.453-.164.508Zm6.099 4.78a.492.492 0 0 0-.163-.196c-.066-.054-.099-.104-.099-.147a.534.534 0 0 0-.016-.131.205.205 0 0 0-.065-.148c-.055-.065-.049-.212.016-.442.065-.24.175-.529.327-.867.153-.35.333-.715.541-1.097a1.93 1.93 0 0 0 .262-.344c.087-.142.152-.235.196-.278a.16.16 0 0 1 .049-.115c.033-.044.071-.066.115-.066v-.098c0-.054.049-.147.147-.278a6.36 6.36 0 0 1 .393-.426c.153-.163.311-.316.475-.458.164-.153.3-.262.409-.328.229-.152.464-.245.704-.278a.806.806 0 0 1 .639.164l.163.164.262.261c.11.088.219.18.328.279l.606.54-.295.819c-.142.436-.18.818-.115 1.146.077.327.186.611.328.851.054.12.163.235.327.344.175.11.339.175.491.196.088.011.17.044.246.099.076.054.115.142.115.262 0 .109-.022.196-.066.261-.044.066-.12.11-.229.131a1.433 1.433 0 0 1-1.015-.261c-.306-.219-.59-.579-.852-1.081a2.818 2.818 0 0 1-.18-.36 3.661 3.661 0 0 1-.114-.36l-.246.31a5.7 5.7 0 0 1-.278.312c-.775.786-1.446 1.315-2.014 1.588-.557.262-1.02.273-1.392.033Zm.59-.916c0 .076.114.076.344 0 .24-.088.496-.24.769-.459.371-.316.742-.665 1.113-1.047.382-.383.688-.737.917-1.065l.36-.589c-.109-.251-.229-.42-.36-.508-.12-.098-.223-.147-.311-.147-.142 0-.355.131-.638.393a7.812 7.812 0 0 0-.884 1.048c-.317.436-.617.917-.901 1.44-.109.219-.207.432-.295.64l-.114.294Zm8.227 1.326a1.765 1.765 0 0 1-.868-.05 1.396 1.396 0 0 1-.638-.474c-.153-.23-.229-.518-.229-.868-.033-.327.005-.704.114-1.13a7.11 7.11 0 0 1 .475-1.31c.218-.436.453-.812.704-1.129.218-.262.437-.502.655-.72.218-.218.415-.366.589-.442a1.39 1.39 0 0 1 .426-.115 2.38 2.38 0 0 1 .344-.033c.175.044.36.126.557.246.207.11.311.23.311.36l.032.05.05.032c.065 0 .12.071.163.213.055.142.088.306.098.491a.808.808 0 0 1-.081.442c-.044.207-.12.388-.23.54-.109.153-.207.23-.294.23a.533.533 0 0 0-.131.016c-.033 0-.049.027-.049.082 0 .054-.033.076-.099.065a.43.43 0 0 1-.18-.098.644.644 0 0 1-.147-.23c0-.054.022-.146.065-.277.044-.132.088-.3.131-.508.066-.306.06-.502-.016-.59-.076-.098-.224-.103-.442-.016a3.208 3.208 0 0 0-.786.639c-.24.273-.464.627-.671 1.064-.208.426-.393.96-.557 1.604-.065.251-.093.47-.082.655.022.186.049.284.082.295.153.044.36.055.622.033.262-.033.453-.082.573-.148.175-.087.371-.202.59-.344.218-.152.409-.289.573-.409.054-.033.12-.087.196-.164a.965.965 0 0 1 .246-.18c.087-.13.164-.207.229-.229a1 1 0 0 1 .295-.033.956.956 0 0 1 .245.099.356.356 0 0 1 .148.13c.032.044.016.082-.049.115-.044 0-.071.017-.082.05v.032c.022.044-.028.137-.148.278-.109.131-.251.279-.425.442a5.552 5.552 0 0 1-.508.426c-.153.11-.262.164-.327.164-.109 0-.164.033-.164.098 0 .022-.082.077-.246.164a4.988 4.988 0 0 1-.54.262 2.708 2.708 0 0 1-.524.18Zm4.15-.18a1.291 1.291 0 0 1-.246-.213c-.054-.066-.076-.158-.065-.278.022-.164.055-.333.098-.508.044-.185.098-.365.164-.54.033-.197.071-.393.115-.59.054-.196.141-.382.261-.556.142-.404.29-.802.443-1.195.152-.404.283-.824.392-1.261.164-.393.312-.742.442-1.048.142-.305.312-.698.508-1.179.109-.25.202-.529.278-.835.088-.316.219-.594.393-.835.077-.098.131-.18.164-.245.044-.077.087-.148.131-.213.022-.065.093-.087.213-.065.131.021.224.07.278.147.055-.011.12.06.197.213.076.152.103.273.081.36 0 .12-.043.25-.131.393a.762.762 0 0 0-.13.196c-.044.077-.11.18-.197.311l-.131.426a3.451 3.451 0 0 1-.147.393c-.055.12-.115.24-.18.36a1.46 1.46 0 0 0-.131.295 9.169 9.169 0 0 1-.328.737c-.109.229-.207.474-.294.736l-.279.803a3.618 3.618 0 0 1-.36.785 1.3 1.3 0 0 0-.18.443c-.044.185-.087.365-.131.54-.076.196-.147.376-.213.54a1.454 1.454 0 0 0-.082.311 5.92 5.92 0 0 0-.18.72c-.044.23-.114.432-.213.606-.011.164-.06.273-.147.328-.076.054-.207.027-.393-.082Zm3.913.262a1.267 1.267 0 0 1-.393-.099c-.087-.054-.251-.169-.491-.343a10.093 10.093 0 0 1-.54-.606c-.23-.273-.459-.562-.688-.868-.229-.316-.42-.584-.573-.802l.671-.9c.142.174.257.338.344.49.087.154.158.257.213.312.251.37.447.671.589.9.153.23.289.415.41.557.12.142.245.267.376.376.142.11.317.224.524.344a.415.415 0 0 1 .098.098c.033.044.044.11.033.197-.044.12-.093.196-.147.23-.044.021-.186.06-.426.114Zm-2.734-2.898a.634.634 0 0 1 .065-.557c.12-.196.251-.333.393-.409a.363.363 0 0 1 .131-.147c.055-.033.088-.071.098-.115a.731.731 0 0 1 .164-.18c.098-.076.186-.147.262-.213a14.028 14.028 0 0 0 1.244-.884c.208-.164.382-.306.524-.426.153-.12.246-.196.279-.229a.206.206 0 0 1 .131-.082c.065-.022.147-.01.245.033.131.033.218.087.262.164.044.065.066.196.066.393.032.12-.017.25-.148.393-.12.13-.305.278-.556.442a7.251 7.251 0 0 0-.361.245 6.56 6.56 0 0 0-.376.311c-.077.044-.191.12-.344.23a3.72 3.72 0 0 0-.376.294 2.138 2.138 0 0 0-.344.295c-.142.13-.284.23-.426.295-.349.327-.578.502-.688.524-.109.021-.191-.104-.245-.377Zm6.258 3.045c-.48 0-.873-.18-1.179-.54-.306-.371-.453-.83-.442-1.375.022-.393.098-.814.229-1.261.142-.458.328-.895.557-1.31.229-.426.48-.797.753-1.113.273-.317.557-.54.851-.671a1.617 1.617 0 0 1 .737-.18c.12 0 .246.021.377.065.131.033.24.07.327.115.186.076.327.169.426.278.098.11.185.278.262.508a3.4 3.4 0 0 1 .049.442c0 .087-.028.218-.082.392-.131.393-.3.732-.508 1.016a2.568 2.568 0 0 1-.835.72 1.157 1.157 0 0 1-.311.13 1.831 1.831 0 0 1-.982-.082 1.163 1.163 0 0 1-.475-.376l-.114-.13-.05.13a8.576 8.576 0 0 0-.261.819c-.055.251-.082.48-.082.688 0 .13.011.256.032.376.033.12.077.224.131.311a.397.397 0 0 0 .213.148c.109.021.224.032.344.032h.229a.905.905 0 0 0 .246-.065c.185-.066.333-.136.442-.213.12-.076.24-.158.36-.245l.066-.033h-.017c.131-.066.246-.131.344-.197l.164-.098c.043 0 .087-.027.131-.082.087-.044.196-.027.327.05.142.076.213.174.213.294-.011.055-.06.142-.147.262-.088.11-.186.213-.295.311-.098.098-.18.153-.246.164a.637.637 0 0 1-.114.065.354.354 0 0 0-.131.066h.016c-.098.13-.196.196-.295.196h-.131c-.043.077-.185.164-.425.262-.24.088-.475.131-.704.131Zm.737-3.602a.807.807 0 0 0 .507-.163c.153-.12.284-.252.393-.393.218-.295.344-.579.377-.852.043-.284.01-.48-.099-.59a.404.404 0 0 0-.18-.048c-.043-.011-.136.005-.278.049-.098.022-.235.104-.409.245-.175.142-.35.3-.524.475-.164.175-.29.322-.377.442l-.213.344a.703.703 0 0 1 .246-.049c.087-.01.136-.005.147.016 0 .099.017.191.049.279a.622.622 0 0 0 .148.18.375.375 0 0 0 .213.065Zm3.801 2.833c-.044 0-.109-.028-.196-.082a3.275 3.275 0 0 1-.181-.164.645.645 0 0 1-.147-.262 6.326 6.326 0 0 1-.016-.59c0-.349.071-.725.213-1.129.142-.415.382-.993.72-1.735l.54-1.146c.044-.088.082-.153.115-.197a1.11 1.11 0 0 0 .114-.13h.164c.088 0 .175.054.262.163.087.098.153.207.197.327 0 .142-.022.29-.066.442-.033.153-.164.382-.393.688-.076.12-.18.322-.311.606a4.08 4.08 0 0 0-.245.736.681.681 0 0 0-.066.148l-.115.262c-.032.098-.07.19-.114.278l-.082.36 1.097-1.13c.513-.512.928-.878 1.244-1.096.317-.219.568-.311.753-.279.186.033.344.18.475.442.077.12.131.23.164.328a.99.99 0 0 1 .082.36c.011.153 0 .382-.033.688v1.015c.164-.044.295-.082.393-.115.098-.044.202-.087.311-.13.098-.045.213-.083.344-.116.131-.043.294-.07.491-.081-.011.142-.06.294-.147.458-.088.153-.197.3-.328.442a1.661 1.661 0 0 1-.442.344.919.919 0 0 1-.458.13c-.142 0-.3-.07-.475-.212s-.3-.3-.377-.475a1.507 1.507 0 0 1-.082-.393v-1.391c0-.175-.054-.224-.163-.148-.099.066-.18.126-.246.18-.164.142-.338.306-.524.492l-.54.573c-.502.524-.922.911-1.261 1.162-.327.251-.551.377-.671.377Zm10.874 1.031a.408.408 0 0 1-.36-.065.584.584 0 0 1-.196-.295 4.467 4.467 0 0 1-.197-.819 4.004 4.004 0 0 1-.016-.802l.033-.344-.639.508c-.371.327-.731.562-1.08.704-.339.142-.639.213-.901.213a1.198 1.198 0 0 1-.36-.131 1.448 1.448 0 0 1-.328-.246 1.42 1.42 0 0 1-.212-.311c-.066-.153-.088-.36-.066-.622.033-.262.098-.546.197-.851.109-.317.24-.623.392-.917.164-.306.35-.573.557-.803.36-.545.748-.878 1.163-.998.414-.12.824-.06 1.227.18.284.12.459.174.524.164.077-.011.142-.137.197-.377l.131-.524c.043-.185.114-.431.213-.737.273-.83.507-1.479.704-1.948.207-.47.393-.879.556-1.228.12-.25.219-.404.295-.458a.357.357 0 0 1 .262-.082.48.48 0 0 1 .327.13.853.853 0 0 1 .23.361c.043.098.06.186.049.262 0 .065-.033.158-.099.278-.141.262-.311.612-.507 1.048-.186.426-.377.895-.573 1.408-.186.513-.36 1.02-.524 1.523-.164.502-.3.944-.409 1.326-.066.24-.126.546-.18.917-.044.37-.082.753-.115 1.146-.033.382-.055.726-.065 1.031 0 .295.01.486.032.573.066.219.093.382.082.491 0 .11-.027.18-.082.213a.492.492 0 0 1-.262.082Zm-2.767-1.817a1.39 1.39 0 0 0 .442-.18c.153-.088.312-.191.475-.311.328-.251.611-.48.852-.688.24-.207.398-.524.474-.95.022-.207 0-.37-.065-.49a.952.952 0 0 0-.278-.361c-.131-.087-.311-.12-.541-.098-.218.01-.447.125-.687.344-.262.24-.519.562-.77.966-.24.403-.42.9-.54 1.49a.244.244 0 0 0 .098.261c.087.066.268.071.54.017Zm10.753 2.226c-.087 0-.185-.07-.295-.212-.109-.142-.158-.279-.147-.41a4.23 4.23 0 0 1 .147-.753c.088-.327.186-.66.295-.999a8.21 8.21 0 0 1 .295-.802l.114-.458c.044-.142.071-.235.082-.279.033-.043.082-.158.148-.343.076-.186.136-.366.18-.54.021-.088.065-.252.131-.492l.262-.867c.109-.328.212-.65.311-.966a35.64 35.64 0 0 0 .425-1.31c.088-.131.153-.257.197-.377.043-.12.071-.202.082-.245a.244.244 0 0 0 .114-.164 1.36 1.36 0 0 0 .017-.18c0-.055.016-.098.049-.131.043-.033.065-.071.065-.115a.22.22 0 0 0 .082-.147.342.342 0 0 1 .098-.197l.082-.278.966-.016a9.446 9.446 0 0 1-.098.49c-.044.186-.147.437-.311.754-.055.218-.12.415-.197.59-.065.174-.092.289-.081.343-.022.022-.071.131-.148.328-.065.196-.147.436-.245.72-.088.284-.18.568-.279.851-.087.284-.169.535-.245.753a8 8 0 0 1-.131.393 5.685 5.685 0 0 0-.295.77c-.109.338-.273.797-.491 1.375a8.855 8.855 0 0 0-.328.786c-.12.35-.218.666-.294.95-.12.425-.208.72-.262.884-.044.174-.082.267-.115.278-.033.022-.093.027-.18.016Zm.131-9.757c-.306.01-.535-.006-.688-.05-.141-.043-.191-.152-.147-.327a.46.46 0 0 1 .213-.295 1.35 1.35 0 0 1 .475-.147 102.406 102.406 0 0 1 1.015-.18c.36-.044.655-.082.884-.115.24-.032.486-.06.737-.082.251-.021.567-.043.949-.065.317-.022.584-.038.802-.05l.344-.032c.033 0 .148.011.344.033.197.022.409.049.639.082.229.032.398.07.507.114.251.055.431.131.54.23.12.098.202.24.246.425.033.131.033.213 0 .246a1.998 1.998 0 0 1-.18.098c-.251.076-.437.115-.557.115-.12 0-.256-.028-.409-.082a.923.923 0 0 0-.197-.148c-.065-.043-.185-.076-.36-.098a6.415 6.415 0 0 0-.786-.082c-.305.033-.573.05-.802.05-.229 0-.344.027-.344.081l-.966.05-.802.081-.458.05c-.197.01-.388.027-.573.048-.186.011-.328.028-.426.05Zm5.656 8.644c-.426-.175-.704-.415-.835-.72-.12-.317-.142-.803-.066-1.457.022-.339.033-.563.033-.672 0-.109-.06-.218-.18-.327a1.39 1.39 0 0 0-.18-.18c-.077-.077-.109-.142-.099-.197a.653.653 0 0 1 .017-.245c.022-.098.054-.148.098-.148.044 0 .087-.01.131-.032.055-.022.104-.022.147 0 .044 0 .093.005.148.016.054.01.082.038.082.082.043.076.114.087.212.033.099-.066.202-.208.311-.426.11-.175.252-.35.426-.524.186-.175.366-.333.54-.475.186-.153.339-.262.459-.327a3.204 3.204 0 0 1 .589-.164c.131-.022.24-.027.328-.016.196.01.36.065.491.163.142.099.273.213.393.344.142.098.229.23.262.393.043.164.054.338.032.524a1.49 1.49 0 0 1-.147.508c-.033.109-.125.24-.278.393-.153.152-.328.3-.524.442a2.622 2.622 0 0 1-.54.31 6.243 6.243 0 0 1-1.179.115c-.186-.01-.311-.032-.377-.065-.076-.044-.136.016-.18.18a4.092 4.092 0 0 0-.098.704c-.022.24-.022.415 0 .524.022.109.044.185.065.229.077.076.181.175.312.295.141.109.338.125.589.049.207-.055.409-.197.606-.426a5.25 5.25 0 0 1 .573-.557.26.26 0 0 1 .213-.13.737.737 0 0 1 .343.016c.12.076.17.17.148.278-.011.098-.066.251-.164.459a1.08 1.08 0 0 1-.229.294c-.109.11-.235.224-.377.344a2.94 2.94 0 0 1-.36.262c-.327.175-.633.268-.917.278a2.31 2.31 0 0 1-.818-.147Zm.966-3.323c.24-.055.431-.093.573-.115a.912.912 0 0 0 .409-.18c.131-.11.295-.311.491-.606a.676.676 0 0 0 .033-.36c-.011-.12-.038-.202-.082-.246a.322.322 0 0 0-.36-.098 1.085 1.085 0 0 0-.377.18 1.622 1.622 0 0 0-.344.246c-.142.12-.283.262-.425.425a3.422 3.422 0 0 0-.344.426c-.087.131-.109.208-.066.23-.021.043.039.07.18.081.153.011.257.017.312.017Zm3.326 3.127a.492.492 0 0 0-.163-.197c-.066-.054-.099-.104-.099-.147a.534.534 0 0 0-.016-.131.203.203 0 0 0-.066-.148c-.054-.065-.049-.212.017-.442.065-.24.174-.529.327-.867.153-.35.333-.715.541-1.097.087-.088.174-.202.261-.344.088-.142.153-.235.197-.278 0-.044.016-.082.049-.115.033-.044.071-.066.115-.066v-.098c0-.054.049-.147.147-.278a6.36 6.36 0 0 1 .393-.426c.153-.163.311-.316.475-.458.163-.153.3-.262.409-.328.229-.152.464-.245.704-.278a.806.806 0 0 1 .639.164l.163.164.262.261c.109.088.219.18.328.279l.605.54-.294.819c-.142.436-.18.818-.115 1.146.077.327.186.611.328.851.054.12.163.235.327.344.175.11.338.175.491.196.088.011.169.044.246.099.076.054.114.142.114.262 0 .109-.021.196-.065.261-.044.066-.12.11-.229.131a1.432 1.432 0 0 1-1.015-.261c-.306-.219-.59-.579-.852-1.081a2.818 2.818 0 0 1-.18-.36 3.39 3.39 0 0 1-.114-.36l-.246.31a5.7 5.7 0 0 1-.278.312c-.775.786-1.447 1.315-2.014 1.588-.557.262-1.021.273-1.392.033Zm.59-.917c0 .076.114.076.343 0 .241-.088.497-.24.77-.459.371-.316.742-.665 1.113-1.047.382-.383.688-.737.917-1.065l.36-.589c-.109-.251-.229-.42-.36-.508-.12-.098-.224-.147-.311-.147-.142 0-.355.131-.638.393a7.885 7.885 0 0 0-.885 1.048c-.316.436-.616.917-.9 1.44-.109.219-.207.432-.295.64l-.114.294Zm6.901.9a1 1 0 0 1-.098-.163.535.535 0 0 1-.033-.164.299.299 0 0 0-.016-.082c0-.033-.022-.05-.066-.05-.033-.032-.011-.157.066-.376.087-.229.196-.49.327-.786.142-.294.284-.578.426-.851.152-.284.278-.508.376-.671a.19.19 0 0 0 .098-.131c.022-.066.022-.098 0-.098l.082-.148c.066-.109.115-.18.148-.213.087-.152.152-.305.196-.458a.916.916 0 0 0 .033-.41c-.044-.054-.093-.07-.147-.048l-.082.032c-.044.011-.11.033-.197.066a.77.77 0 0 0-.213.098c-.251.175-.42.256-.507.246-.088-.022-.186-.164-.295-.426-.044-.12-.06-.207-.049-.262.011-.055.055-.115.131-.18a.66.66 0 0 1 .246-.148.908.908 0 0 0 .18-.098c.12-.076.218-.13.294-.163a2.02 2.02 0 0 1 .197-.066c.284-.087.524-.104.72-.049.197.055.344.196.442.426a.974.974 0 0 1 .229.638c0 .23-.076.497-.229.802l-.163.246c-.055.11-.066.164-.033.164.043 0 .093-.038.147-.115.033-.044.098-.11.197-.196.098-.088.163-.131.196-.131l.033-.017c.033-.01.049-.054.049-.13l.098-.099.066-.049c.043 0 .125-.05.245-.147.131-.11.284-.235.459-.377a.574.574 0 0 1 .327-.13c.251-.077.453.005.606.245.164.24.245.55.245.933l-.343.884.589-.72c.065-.088.131-.164.196-.23.077-.065.142-.12.197-.163.022-.077.054-.12.098-.131l.066-.017h.032c.022-.01.033-.032.033-.065a1.05 1.05 0 0 1 .18-.115.367.367 0 0 0 .131-.13.693.693 0 0 1 .508-.034c.153.044.284.18.393.41.076.13.12.245.131.344.011.098.016.245.016.442a5.378 5.378 0 0 1-.065.393l-.033.278-.049.41a.814.814 0 0 0-.082.277v.279c0 .142.005.24.016.295.011.043.055.065.131.065.153-.033.36-.11.622-.23.273-.13.475-.256.606-.376.164-.152.306-.229.426-.229.131-.01.213.05.245.18.022.044-.016.142-.114.295-.088.153-.191.3-.311.442-.11.142-.191.213-.246.213-.033 0-.071.032-.115.098a.537.537 0 0 1-.147.131 4.08 4.08 0 0 1-.229.213.315.315 0 0 1-.229.098.385.385 0 0 0-.164.05.528.528 0 0 1-.196.032c-.11.033-.279.016-.508-.05-.218-.065-.36-.217-.426-.458a2.872 2.872 0 0 1-.114-.573 2.917 2.917 0 0 1 .016-.818c.044-.197.071-.377.082-.54.011-.164.033-.279.065-.344v-.23c0-.13-.016-.196-.049-.196-.043 0-.147.082-.311.245-.153.153-.338.35-.556.59-.208.24-.415.491-.623.753a8.402 8.402 0 0 0-.507.704c-.098.12-.186.268-.262.442-.076.175-.131.273-.164.295-.076.087-.169.098-.278.032a.985.985 0 0 1-.278-.31.838.838 0 0 1-.066-.164.681.681 0 0 1 0-.213c.022-.098.06-.24.115-.426a46.373 46.373 0 0 0 .573-1.784l.147-.459c0-.043-.082 0-.246.131-.163.12-.354.273-.573.459-.098.12-.261.3-.491.54-.229.24-.48.513-.753.819-.273.305-.535.627-.786.965-.316.448-.54.72-.671.82-.12.097-.24.07-.36-.083Zm11.072.377c-.545 0-.944-.197-1.195-.59a.57.57 0 0 1-.114-.327c.011-.12.043-.202.098-.246.065-.043.142-.005.229.115.153.087.371.131.655.131.142 0 .289-.011.442-.033a3.55 3.55 0 0 0 .458-.13c.164-.077.273-.143.328-.197.054-.066.044-.12-.033-.164h.016a3.855 3.855 0 0 1-.867-.36 4.462 4.462 0 0 1-.737-.557c-.207-.207-.327-.393-.36-.556a1.682 1.682 0 0 1 .065-1.032c.131-.36.317-.677.557-.95.087-.054.196-.12.327-.196a.85.85 0 0 1 .311-.147v.016c.208-.218.459-.393.754-.524.305-.13.627-.25.966-.36l.245-.033a2.05 2.05 0 0 1 .328-.033c-.011 0 .01.011.065.033.055.011.104.022.147.033.066.033.12.05.164.05a.747.747 0 0 1 .393.196c.12.109.213.24.278.393a.628.628 0 0 1 .082.409 1.22 1.22 0 0 1-.196.556c-.098.164-.219.257-.36.279.021-.011.005-.027-.05-.05a1.561 1.561 0 0 0-.147-.098l-.049.033-.016-.033a.263.263 0 0 0-.033-.114.466.466 0 0 1-.049-.213c0-.087.005-.18.016-.278.022-.12.022-.191 0-.213-.011-.022-.082-.038-.213-.05-.152-.032-.376-.005-.671.083a2.22 2.22 0 0 0-.72.36c-.24.153-.442.3-.606.442a2.21 2.21 0 0 0-.393.393c-.098.12-.186.262-.262.425a2.448 2.448 0 0 0-.147.23.404.404 0 0 0-.049.18c0 .12.087.245.262.376.185.12.458.262.818.426.284.12.524.251.721.393.196.142.332.306.409.491a.263.263 0 0 1 .016.164c0 .054-.011.093-.033.114.022.022.033.039.033.05v-.017c.088.131.088.268 0 .41-.076.141-.213.267-.409.376a2.546 2.546 0 0 1-.688.23h.017a3.003 3.003 0 0 1-.426.097c-.131.011-.257.017-.377.017Z"/>
  <defs>
    <clipPath id="c">
      <path fill="#fff" d="M232.149 201.758h-18.66v18.66h18.66z"/>
    </clipPath>
    <clipPath id="d">
      <path fill="#fff" d="M255.888 201.758h-18.66v18.66h18.66z"/>
    </clipPath>
    <clipPath id="e">
      <path fill="#fff" d="M101.991 159.828h-18.66v-18.66h18.66z"/>
    </clipPath>
    <clipPath id="f">
      <path fill="#fff" d="M232.149 159.828h-18.66v-18.66h18.66z"/>
    </clipPath>
    <clipPath id="g">
      <path fill="#fff" d="M359.851 159.828h-18.66v-18.66h18.66z"/>
    </clipPath>
    <clipPath id="h">
      <path fill="#fff" d="M232.149 341.242h-18.66v-18.66h18.66z"/>
    </clipPath>
    <clipPath id="i">
      <path fill="#fff" d="M255.888 341.242h-18.66v-18.66h18.66z"/>
    </clipPath>
    <clipPath id="j">
      <path fill="#fff" d="M101.991 392.172h-18.66v18.66h18.66z"/>
    </clipPath>
    <clipPath id="k">
      <path fill="#fff" d="M232.149 392.172h-18.66v18.66h18.66z"/>
    </clipPath>
    <clipPath id="l">
      <path fill="#fff" d="M359.851 392.172h-18.66v18.66h18.66z"/>
    </clipPath>
    <clipPath id="n">
      <rect width="229" height="86" x="107.495" y="227.881" fill="#fff" rx="10.663"/>
    </clipPath>
    <clipPath id="p">
      <path fill="#fff" d="M51.275 74.493h52.494v21.326H51.274z"/>
    </clipPath>
    <clipPath id="s">
      <path fill="#fff" d="M361.182 62.35h23.608v23.607h-23.608z"/>
    </clipPath>
    <linearGradient id="a" x1="232.992" x2="393.418" y1="352.395" y2="310.809" gradientUnits="userSpaceOnUse">
      <stop offset=".235" stop-color="#DBFE01"/>
      <stop offset=".479" stop-color="#DBFE01"/>
      <stop offset="1" stop-color="#77DA05"/>
    </linearGradient>
    <linearGradient id="q" x1="-310.59" x2="416.983" y1="-280.574" y2="-283.278" gradientUnits="userSpaceOnUse">
      <stop stop-color="#72C9C9"/>
      <stop offset="1" stop-color="#02B0AD"/>
    </linearGradient>
    <linearGradient id="r" x1="-149.8" x2="276.959" y1="-132.362" y2="-133.949" gradientUnits="userSpaceOnUse">
      <stop stop-color="#03B6B4"/>
      <stop offset="1" stop-color="#74CBCA"/>
    </linearGradient>
    <linearGradient id="t" x1="375.128" x2="379.962" y1="64.618" y2="63.274" gradientUnits="userSpaceOnUse">
      <stop stop-color="#F69923"/>
      <stop offset=".312" stop-color="#F79A23"/>
      <stop offset=".838" stop-color="#E97826"/>
    </linearGradient>
    <linearGradient id="u" x1="364.546" x2="374.379" y1="86.312" y2="65.228" gradientUnits="userSpaceOnUse">
      <stop offset=".323" stop-color="#9E2064"/>
      <stop offset=".63" stop-color="#C92037"/>
      <stop offset=".751" stop-color="#CD2335"/>
      <stop offset="1" stop-color="#E97826"/>
    </linearGradient>
    <linearGradient id="v" x1="367.848" x2="373.708" y1="84.753" y2="72.189" gradientUnits="userSpaceOnUse">
      <stop stop-color="#282662"/>
      <stop offset=".095" stop-color="#662E8D"/>
      <stop offset=".788" stop-color="#9F2064"/>
      <stop offset=".949" stop-color="#CD2032"/>
    </linearGradient>
    <linearGradient id="w" x1="364.902" x2="374.735" y1="85.035" y2="63.951" gradientUnits="userSpaceOnUse">
      <stop offset=".323" stop-color="#9E2064"/>
      <stop offset=".63" stop-color="#C92037"/>
      <stop offset=".751" stop-color="#CD2335"/>
      <stop offset="1" stop-color="#E97826"/>
    </linearGradient>
    <linearGradient id="x" x1="365.905" x2="371.072" y1="83.631" y2="72.551" gradientUnits="userSpaceOnUse">
      <stop stop-color="#282662"/>
      <stop offset=".095" stop-color="#662E8D"/>
      <stop offset=".788" stop-color="#9F2064"/>
      <stop offset=".949" stop-color="#CD2032"/>
    </linearGradient>
    <linearGradient id="y" x1="367.085" x2="376.918" y1="86.054" y2="64.969" gradientUnits="userSpaceOnUse">
      <stop offset=".323" stop-color="#9E2064"/>
      <stop offset=".63" stop-color="#C92037"/>
      <stop offset=".751" stop-color="#CD2335"/>
      <stop offset="1" stop-color="#E97826"/>
    </linearGradient>
    <linearGradient id="z" x1="366.367" x2="376.2" y1="87.311" y2="66.227" gradientUnits="userSpaceOnUse">
      <stop offset=".323" stop-color="#9E2064"/>
      <stop offset=".63" stop-color="#C92037"/>
      <stop offset=".751" stop-color="#CD2335"/>
      <stop offset="1" stop-color="#E97826"/>
    </linearGradient>
    <linearGradient id="A" x1="367.731" x2="377.571" y1="86.365" y2="65.268" gradientUnits="userSpaceOnUse">
      <stop offset=".323" stop-color="#9E2064"/>
      <stop offset=".63" stop-color="#C92037"/>
      <stop offset=".751" stop-color="#CD2335"/>
      <stop offset="1" stop-color="#E97826"/>
    </linearGradient>
    <filter id="b" width="495.588" height="610.193" x="-25.84" y="-32.211" color-interpolation-filters="sRGB" filterUnits="userSpaceOnUse">
      <feFlood flood-opacity="0" result="BackgroundImageFix"/>
      <feColorMatrix in="SourceAlpha" result="hardAlpha" values="0 0 0 0 0 0 0 0 0 0 0 0 0 0 0 0 0 0 127 0"/>
      <feMorphology in="SourceAlpha" radius="1.111" result="effect1_dropShadow_397_335"/>
      <feOffset dy=".889"/>
      <feGaussianBlur stdDeviation="1.333"/>
      <feComposite in2="hardAlpha" operator="out"/>
      <feColorMatrix values="0 0 0 0 0 0 0 0 0 0 0 0 0 0 0 0 0 0 0.04 0"/>
      <feBlend in2="BackgroundImageFix" result="effect1_dropShadow_397_335"/>
      <feColorMatrix in="SourceAlpha" result="hardAlpha" values="0 0 0 0 0 0 0 0 0 0 0 0 0 0 0 0 0 0 127 0"/>
      <feMorphology in="SourceAlpha" radius="2.221" result="effect2_dropShadow_397_335"/>
      <feOffset dy="2.666"/>
      <feGaussianBlur stdDeviation="5.331"/>
      <feComposite in2="hardAlpha" operator="out"/>
      <feColorMatrix values="0 0 0 0 0 0 0 0 0 0 0 0 0 0 0 0 0 0 0.03 0"/>
      <feBlend in2="effect1_dropShadow_397_335" result="effect2_dropShadow_397_335"/>
      <feColorMatrix in="SourceAlpha" result="hardAlpha" values="0 0 0 0 0 0 0 0 0 0 0 0 0 0 0 0 0 0 127 0"/>
      <feMorphology in="SourceAlpha" radius="3.332" result="effect3_dropShadow_397_335"/>
      <feOffset dy="8.886"/>
      <feGaussianBlur stdDeviation="22.214"/>
      <feComposite in2="hardAlpha" operator="out"/>
      <feColorMatrix values="0 0 0 0 0 0 0 0 0 0 0 0 0 0 0 0 0 0 0.1 0"/>
      <feBlend in2="effect2_dropShadow_397_335" result="effect3_dropShadow_397_335"/>
      <feBlend in="SourceGraphic" in2="effect3_dropShadow_397_335" result="shape"/>
    </filter>
    <filter id="m" width="311.193" height="168.193" x="66.399" y="195.671" color-interpolation-filters="sRGB" filterUnits="userSpaceOnUse">
      <feFlood flood-opacity="0" result="BackgroundImageFix"/>
      <feColorMatrix in="SourceAlpha" result="hardAlpha" values="0 0 0 0 0 0 0 0 0 0 0 0 0 0 0 0 0 0 127 0"/>
      <feMorphology in="SourceAlpha" radius="1.111" result="effect1_dropShadow_397_335"/>
      <feOffset dy=".889"/>
      <feGaussianBlur stdDeviation="1.333"/>
      <feComposite in2="hardAlpha" operator="out"/>
      <feColorMatrix values="0 0 0 0 0.886275 0 0 0 0 0.992157 0 0 0 0 0.321569 0 0 0 0.04 0"/>
      <feBlend in2="BackgroundImageFix" result="effect1_dropShadow_397_335"/>
      <feColorMatrix in="SourceAlpha" result="hardAlpha" values="0 0 0 0 0 0 0 0 0 0 0 0 0 0 0 0 0 0 127 0"/>
      <feMorphology in="SourceAlpha" radius="2.221" result="effect2_dropShadow_397_335"/>
      <feOffset dy="2.666"/>
      <feGaussianBlur stdDeviation="5.331"/>
      <feComposite in2="hardAlpha" operator="out"/>
      <feColorMatrix values="0 0 0 0 0.886275 0 0 0 0 0.992157 0 0 0 0 0.321569 0 0 0 0.03 0"/>
      <feBlend in2="effect1_dropShadow_397_335" result="effect2_dropShadow_397_335"/>
      <feColorMatrix in="SourceAlpha" result="hardAlpha" values="0 0 0 0 0 0 0 0 0 0 0 0 0 0 0 0 0 0 127 0"/>
      <feMorphology in="SourceAlpha" radius="3.332" result="effect3_dropShadow_397_335"/>
      <feOffset dy="8.886"/>
      <feGaussianBlur stdDeviation="22.214"/>
      <feComposite in2="hardAlpha" operator="out"/>
      <feColorMatrix values="0 0 0 0 0.886275 0 0 0 0 0.992157 0 0 0 0 0.321569 0 0 0 0.1 0"/>
      <feBlend in2="effect2_dropShadow_397_335" result="effect3_dropShadow_397_335"/>
      <feBlend in="SourceGraphic" in2="effect3_dropShadow_397_335" result="shape"/>
    </filter>
    <filter id="o" width="19.252" height="21.696" x="173.156" y="243.352" color-interpolation-filters="sRGB" filterUnits="userSpaceOnUse">
      <feFlood flood-opacity="0" result="BackgroundImageFix"/>
      <feBlend in="SourceGraphic" in2="BackgroundImageFix" result="shape"/>
      <feColorMatrix in="SourceAlpha" result="hardAlpha" values="0 0 0 0 0 0 0 0 0 0 0 0 0 0 0 0 0 0 127 0"/>
      <feOffset dy="2.667"/>
      <feGaussianBlur stdDeviation="1.333"/>
      <feComposite in2="hardAlpha" k2="-1" k3="1" operator="arithmetic"/>
      <feColorMatrix values="0 0 0 0 1 0 0 0 0 1 0 0 0 0 1 0 0 0 0.2 0"/>
      <feBlend in2="shape" result="effect1_innerShadow_397_335"/>
    </filter>
  </defs>
</svg>
