<svg width="319" height="340" viewBox="0 0 319 340" fill="none" xmlns="http://www.w3.org/2000/svg">
<ellipse cx="153.209" cy="176.481" rx="152.966" ry="152.966" fill="url(#paint0_linear_1205_1704)" fill-opacity="0.02"/>
<ellipse cx="153.209" cy="176.481" rx="152.966" ry="152.966" fill="#DBFE01" fill-opacity="0.02"/>
<path d="M305.827 176.481C305.827 260.769 237.498 329.099 153.209 329.099C68.9209 329.099 0.591484 260.769 0.591484 176.481C0.591484 92.1924 68.9209 23.863 153.209 23.863C237.498 23.863 305.827 92.1924 305.827 176.481Z" stroke="url(#paint1_linear_1205_1704)" stroke-opacity="0.12" stroke-width="0.695298"/>
<path d="M305.827 176.481C305.827 260.769 237.498 329.099 153.209 329.099C68.9209 329.099 0.591484 260.769 0.591484 176.481C0.591484 92.1924 68.9209 23.863 153.209 23.863C237.498 23.863 305.827 92.1924 305.827 176.481Z" stroke="#DBFE01" stroke-opacity="0.16" stroke-width="0.695298"/>
<ellipse cx="153.21" cy="176.481" rx="111.248" ry="111.248" fill="url(#paint2_linear_1205_1704)" fill-opacity="0.04"/>
<ellipse cx="153.21" cy="176.481" rx="111.248" ry="111.248" fill="#DBFE01" fill-opacity="0.02"/>
<path d="M264.11 176.481C264.11 237.729 214.459 287.381 153.21 287.381C91.9617 287.381 42.3101 237.729 42.3101 176.481C42.3101 115.232 91.9617 65.5808 153.21 65.5808C214.459 65.5808 264.11 115.232 264.11 176.481Z" stroke="url(#paint3_linear_1205_1704)" stroke-opacity="0.2" stroke-width="0.695298"/>
<path d="M264.11 176.481C264.11 237.729 214.459 287.381 153.21 287.381C91.9617 287.381 42.3101 237.729 42.3101 176.481C42.3101 115.232 91.9617 65.5808 153.21 65.5808C214.459 65.5808 264.11 115.232 264.11 176.481Z" stroke="#DBFE01" stroke-opacity="0.16" stroke-width="0.695298"/>
<ellipse cx="153.208" cy="176.481" rx="69.5298" ry="69.5298" fill="url(#paint4_linear_1205_1704)" fill-opacity="0.06"/>
<ellipse cx="153.208" cy="176.481" rx="69.5298" ry="69.5298" fill="#DBFE01" fill-opacity="0.03"/>
<path d="M222.39 176.481C222.39 214.689 191.417 245.663 153.208 245.663C115 245.663 84.0262 214.689 84.0262 176.481C84.0262 138.273 115 107.299 153.208 107.299C191.417 107.299 222.39 138.273 222.39 176.481Z" stroke="url(#paint5_linear_1205_1704)" stroke-opacity="0.2" stroke-width="0.695298"/>
<path d="M222.39 176.481C222.39 214.689 191.417 245.663 153.208 245.663C115 245.663 84.0262 214.689 84.0262 176.481C84.0262 138.273 115 107.299 153.208 107.299C191.417 107.299 222.39 138.273 222.39 176.481Z" stroke="#DBFE01" stroke-opacity="0.16" stroke-width="0.695298"/>
<g filter="url(#filter0_d_1205_1704)">
<path fill-rule="evenodd" clip-rule="evenodd" d="M133.116 166.192C130.976 164.39 130.847 161.17 132.837 159.207L135.868 156.215C137.828 154.28 141.033 154.371 142.878 156.413L145.544 159.365C149.653 163.914 156.861 163.914 160.97 159.365L163.636 156.413C165.481 154.371 168.686 154.28 170.646 156.215L173.677 159.207C175.667 161.17 175.538 164.39 173.398 166.192L171.047 168.171C165.891 172.514 165.891 180.377 171.047 184.72L173.398 186.699C175.538 188.501 175.667 191.721 173.677 193.684L170.725 196.598C168.735 198.561 165.473 198.434 163.647 196.322L161.117 193.397C156.992 188.626 149.522 188.626 145.397 193.397L142.867 196.322C141.041 198.434 137.779 198.561 135.789 196.598L132.837 193.684C130.847 191.721 130.976 188.501 133.116 186.699L135.774 184.461C140.769 180.254 140.769 172.637 135.774 168.43L133.116 166.192Z" fill="#141413"/>
</g>
<g filter="url(#filter1_i_1205_1704)">
<path fill-rule="evenodd" clip-rule="evenodd" d="M133.116 166.192C130.976 164.39 130.847 161.17 132.837 159.207L135.868 156.215C137.828 154.28 141.033 154.371 142.878 156.413L145.544 159.365C149.653 163.914 156.861 163.914 160.97 159.365L163.636 156.413C165.481 154.371 168.686 154.28 170.646 156.215L173.677 159.207C175.667 161.17 175.538 164.39 173.398 166.192L171.047 168.171C165.891 172.514 165.891 180.377 171.047 184.72L173.398 186.699C175.538 188.501 175.667 191.721 173.677 193.684L170.725 196.598C168.735 198.561 165.473 198.434 163.647 196.322L161.117 193.397C156.992 188.626 149.522 188.626 145.397 193.397L142.867 196.322C141.041 198.434 137.779 198.561 135.789 196.598L132.837 193.684C130.847 191.721 130.976 188.501 133.116 186.699L135.774 184.461C140.769 180.254 140.769 172.637 135.774 168.43L133.116 166.192Z" fill="#141413"/>
</g>
<g filter="url(#filter2_i_1205_1704)">
<path fill-rule="evenodd" clip-rule="evenodd" d="M130.279 156.683L133.311 153.691C136.741 150.306 142.349 150.465 145.577 154.039L148.243 156.99C150.914 159.947 155.599 159.947 158.27 156.99L160.936 154.039C164.164 150.465 169.772 150.306 173.202 153.691L176.234 156.683C179.715 160.119 179.49 165.753 175.745 168.907L173.395 170.887C169.93 173.804 169.93 179.087 173.395 182.005L175.745 183.985C179.49 187.138 179.715 192.773 176.234 196.208L173.281 199.122C169.8 202.558 164.091 202.335 160.895 198.64L158.366 195.714C155.684 192.613 150.829 192.613 148.147 195.714L145.618 198.64C142.422 202.335 136.713 202.558 133.232 199.122L130.279 196.208C126.798 192.773 127.023 187.138 130.768 183.985L133.425 181.747C136.729 178.965 136.729 173.927 133.425 171.145L130.768 168.907C127.023 165.753 126.798 160.119 130.279 156.683ZM132.836 159.207C130.847 161.17 130.976 164.39 133.116 166.192L135.773 168.43C140.768 172.637 140.768 180.255 135.773 184.462L133.116 186.7C130.976 188.502 130.847 191.721 132.836 193.685L135.789 196.599C137.778 198.562 141.041 198.435 142.867 196.323L145.396 193.397C149.522 188.626 156.991 188.626 161.117 193.397L163.646 196.323C165.472 198.435 168.735 198.562 170.724 196.599L173.677 193.685C175.666 191.721 175.537 188.502 173.397 186.7L171.047 184.72C165.891 180.378 165.891 172.514 171.047 168.172L173.397 166.192C175.537 164.39 175.666 161.17 173.677 159.207L170.645 156.215C168.685 154.281 165.48 154.371 163.636 156.413L160.97 159.365C156.861 163.914 149.652 163.914 145.543 159.365L142.877 156.413C141.033 154.371 137.828 154.281 135.868 156.215L132.836 159.207Z" fill="url(#paint6_linear_1205_1704)"/>
</g>
<ellipse cx="41.9646" cy="151.252" rx="22.7073" ry="22.7073" fill="url(#paint7_linear_1205_1704)" fill-opacity="0.06"/>
<ellipse cx="41.9646" cy="151.252" rx="22.7073" ry="22.7073" fill="#252123"/>
<path d="M64.3243 151.252C64.3243 163.601 54.3135 173.612 41.9646 173.612C29.6157 173.612 19.6049 163.601 19.6049 151.252C19.6049 138.903 29.6157 128.892 41.9646 128.892C54.3135 128.892 64.3243 138.903 64.3243 151.252Z" stroke="url(#paint8_linear_1205_1704)" stroke-opacity="0.2" stroke-width="0.695298"/>
<path d="M64.3243 151.252C64.3243 163.601 54.3135 173.612 41.9646 173.612C29.6157 173.612 19.6049 163.601 19.6049 151.252C19.6049 138.903 29.6157 128.892 41.9646 128.892C54.3135 128.892 64.3243 138.903 64.3243 151.252Z" stroke="#D346A7" stroke-opacity="0.16" stroke-width="0.695298"/>
<g clip-path="url(#clip0_1205_1704)">
<rect width="21.15" height="23.7946" transform="translate(31.3893 139.355)" fill="#252123"/>
<g filter="url(#filter3_di_1205_1704)">
<path fill-rule="evenodd" clip-rule="evenodd" d="M43.9956 142.079L48.8821 144.901C49.0232 144.751 49.1851 144.623 49.3627 144.52C50.3761 143.938 51.6688 144.284 52.2574 145.297C52.84 146.31 52.4941 147.603 51.4806 148.191C51.3043 148.293 51.1142 148.369 50.9163 148.416V154.061C51.112 154.108 51.3 154.183 51.4746 154.284C52.4941 154.872 52.84 156.165 52.2514 157.178C51.6688 158.192 50.3701 158.538 49.3566 157.955C49.1603 157.842 48.9834 157.699 48.8328 157.53L43.9761 160.334C44.0472 160.549 44.0834 160.774 44.0831 161.001C44.0831 162.166 43.1365 163.119 41.9652 163.119C40.7939 163.119 39.8473 162.172 39.8473 161.001C39.8473 160.793 39.8772 160.592 39.933 160.402L35.0478 157.582C34.9083 157.728 34.7487 157.854 34.5738 157.955C33.5543 158.538 32.2617 158.192 31.679 157.178C31.0965 156.165 31.4424 154.872 32.4558 154.284C32.6304 154.183 32.8184 154.108 33.0141 154.06V148.416C32.8162 148.369 32.6262 148.293 32.4498 148.191C31.4363 147.609 31.0904 146.31 31.673 145.297C32.2556 144.284 33.5542 143.938 34.5677 144.52C34.7444 144.623 34.9055 144.75 35.046 144.898L39.9339 142.076C39.8763 141.881 39.8471 141.678 39.8473 141.474C39.8473 140.303 40.7939 139.356 41.9652 139.356C43.1365 139.356 44.0831 140.303 44.0831 141.474C44.0831 141.684 44.0525 141.888 43.9956 142.079ZM43.4865 142.949L48.3846 145.776C48.3067 146.049 48.2843 146.335 48.3189 146.616C48.3535 146.897 48.4443 147.169 48.586 147.415C48.8841 147.933 49.3699 148.277 49.9089 148.411V154.063C49.8814 154.069 49.8541 154.077 49.8269 154.084L43.4296 143.005C43.4489 142.987 43.4679 142.968 43.4865 142.949V142.949ZM40.5021 143.006L34.1049 154.086C34.0773 154.078 34.0495 154.07 34.0215 154.063V148.411C34.5606 148.277 35.0463 147.933 35.3444 147.415C35.4864 147.169 35.5773 146.896 35.6118 146.614C35.6462 146.332 35.6235 146.046 35.545 145.773L40.4417 142.946C40.4614 142.967 40.4816 142.987 40.5021 143.006V143.006ZM42.557 143.508L48.9527 154.585C48.8062 154.725 48.6806 154.885 48.5799 155.061C48.4794 155.235 48.4042 155.423 48.3566 155.619H35.574C35.5263 155.423 35.4511 155.235 35.3506 155.061C35.2494 154.886 35.1241 154.727 34.9783 154.588L41.3752 143.509C41.567 143.564 41.7656 143.592 41.9652 143.592C42.1707 143.592 42.3692 143.563 42.557 143.508ZM43.5315 159.575L48.3978 156.765C48.3832 156.719 48.3702 156.673 48.3587 156.626H35.5712C35.5644 156.654 35.5571 156.681 35.5492 156.708L40.4394 159.531C40.6368 159.326 40.8738 159.163 41.136 159.051C41.3983 158.94 41.6803 158.883 41.9652 158.883C42.2601 158.883 42.5517 158.944 42.8215 159.063C43.0913 159.182 43.3331 159.356 43.5315 159.575Z" fill="#E535AB"/>
</g>
</g>
<ellipse cx="296.048" cy="233.43" rx="22.7073" ry="22.7073" fill="#292B2A"/>
<path d="M318.408 233.43C318.408 245.779 308.397 255.79 296.048 255.79C283.699 255.79 273.689 245.779 273.689 233.43C273.689 221.081 283.699 211.071 296.048 211.071C308.397 211.071 318.408 221.081 318.408 233.43Z" stroke="url(#paint9_linear_1205_1704)" stroke-opacity="0.2" stroke-width="0.695298"/>
<path d="M318.408 233.43C318.408 245.779 308.397 255.79 296.048 255.79C283.699 255.79 273.689 245.779 273.689 233.43C273.689 221.081 283.699 211.071 296.048 211.071C308.397 211.071 318.408 221.081 318.408 233.43Z" stroke="#69AA9D" stroke-opacity="0.16" stroke-width="0.695298"/>
<path d="M306.582 228.055V231.424C306.582 232.234 306.987 232.602 307.945 232.602V234.259C306.987 234.259 306.582 234.627 306.582 235.437V238.806C306.582 240.739 305.551 241.715 303.544 241.715H302.477V239.855H303.397C304.17 239.855 304.631 239.432 304.631 238.603V235.29C304.631 234.148 305.293 233.633 305.901 233.43C305.293 233.228 304.631 232.712 304.631 231.571V228.257C304.631 227.429 304.17 227.005 303.397 227.005H302.477V225.146H303.544C305.551 225.146 306.582 226.121 306.582 228.055Z" fill="#51AC9D"/>
<path d="M296.046 230.82C295.309 230.82 294.757 230.249 294.757 229.531C294.757 228.813 295.309 228.261 296.046 228.261C296.782 228.261 297.335 228.813 297.335 229.531C297.335 230.249 296.782 230.82 296.046 230.82ZM296.046 237.797C295.309 237.797 294.757 237.226 294.757 236.508C294.757 235.79 295.309 235.238 296.046 235.238C296.782 235.238 297.335 235.79 297.335 236.508C297.335 237.226 296.782 237.797 296.046 237.797Z" fill="#51AC9D"/>
<path d="M287.463 228.257V231.571C287.463 232.712 286.781 233.228 286.174 233.43C286.781 233.633 287.463 234.148 287.463 235.289V238.603C287.463 239.432 287.923 239.855 288.678 239.855H289.598V241.715H288.549C286.542 241.715 285.511 240.739 285.511 238.806V235.437C285.511 234.627 285.106 234.258 284.149 234.258V232.602C285.106 232.602 285.511 232.233 285.511 231.423V228.054C285.511 226.121 286.542 225.146 288.549 225.146H289.617V227.005H288.678C287.923 227.005 287.463 227.428 287.463 228.257Z" fill="#51AC9D"/>
<ellipse cx="170.569" cy="23.5154" rx="22.7073" ry="22.7073" fill="#1D1F1F"/>
<path d="M192.929 23.5154C192.929 35.8643 182.918 45.8751 170.569 45.8751C158.22 45.8751 148.209 35.8643 148.209 23.5154C148.209 11.1665 158.22 1.15575 170.569 1.15575C182.918 1.15575 192.929 11.1665 192.929 23.5154Z" stroke="url(#paint10_linear_1205_1704)" stroke-opacity="0.2" stroke-width="0.695298"/>
<path d="M192.929 23.5154C192.929 35.8643 182.918 45.8751 170.569 45.8751C158.22 45.8751 148.209 35.8643 148.209 23.5154C148.209 11.1665 158.22 1.15575 170.569 1.15575C182.918 1.15575 192.929 11.1665 192.929 23.5154Z" stroke="#63B9BA" stroke-opacity="0.16" stroke-width="0.695298"/>
<path d="M161.634 26.6937C161.808 26.9258 162.035 27.1136 162.296 27.2417C162.578 27.3813 162.889 27.4519 163.203 27.4476C163.458 27.4543 163.711 27.4111 163.948 27.3205C164.139 27.2458 164.308 27.1272 164.444 26.9742C164.571 26.8253 164.664 26.6501 164.716 26.4613C164.772 26.2572 164.8 26.0463 164.799 25.8345V25.0981H164.781C164.617 25.3593 164.379 25.5666 164.097 25.6942C163.829 25.811 163.54 25.8707 163.247 25.8696C162.96 25.8717 162.676 25.8181 162.41 25.7118C162.158 25.6117 161.927 25.4644 161.73 25.2778C161.535 25.0903 161.38 24.8651 161.274 24.6158C161.162 24.3526 161.105 24.0691 161.108 23.7829C161.105 23.4976 161.159 23.2147 161.266 22.95C161.366 22.6997 161.514 22.4706 161.7 22.275C161.885 22.0809 162.109 21.9272 162.357 21.8235C162.622 21.7132 162.907 21.658 163.194 21.6613C163.325 21.662 163.456 21.6738 163.585 21.6963C163.726 21.721 163.865 21.7623 163.997 21.8191C164.31 21.955 164.581 22.1731 164.781 22.4504H164.799V21.7665H165.378V25.8345C165.376 26.0735 165.348 26.3116 165.294 26.5446C165.238 26.7965 165.128 27.033 164.97 27.2372C164.79 27.4625 164.561 27.6427 164.299 27.7633C164.013 27.9035 163.639 27.9736 163.177 27.9736C162.802 27.98 162.429 27.9115 162.081 27.7721C161.748 27.6293 161.449 27.4171 161.204 27.1496L161.634 26.6937ZM161.739 23.7655C161.738 23.9744 161.778 24.1815 161.857 24.3747C161.933 24.5601 162.043 24.7296 162.182 24.8744C162.319 25.018 162.483 25.134 162.664 25.2164C162.853 25.3021 163.057 25.3455 163.265 25.3435C163.675 25.345 164.07 25.1898 164.369 24.9096C164.516 24.7708 164.631 24.6018 164.707 24.4141C164.788 24.2079 164.825 23.987 164.816 23.7655C164.818 23.5577 164.782 23.3513 164.711 23.1561C164.644 22.9705 164.539 22.8005 164.404 22.6564C164.266 22.5102 164.099 22.3939 163.913 22.3145C163.708 22.2273 163.487 22.184 163.265 22.1873C163.057 22.1854 162.853 22.2288 162.664 22.3145C162.483 22.3969 162.319 22.5129 162.182 22.6564C162.043 22.8012 161.933 22.9707 161.857 23.1561C161.778 23.3493 161.738 23.5565 161.739 23.7655ZM167.736 25.8696H167.105V19.6623H169.016C169.647 19.6623 170.145 19.7996 170.511 20.0743C170.876 20.3491 171.059 20.7641 171.059 21.3193C171.07 21.7223 170.924 22.1138 170.651 22.4108C170.379 22.706 169.986 22.877 169.472 22.9237L171.26 25.8696H170.489L168.788 22.9851H167.736L167.736 25.8696ZM167.736 22.4065H168.858C169.099 22.4116 169.34 22.382 169.573 22.3188C169.743 22.2733 169.902 22.1943 170.042 22.0865C170.154 21.996 170.242 21.8783 170.296 21.7446C170.349 21.6092 170.376 21.4648 170.375 21.3193C170.375 21.1767 170.349 21.0354 170.296 20.9029C170.241 20.7683 170.154 20.6493 170.042 20.5566C169.904 20.4466 169.744 20.3674 169.573 20.3242C169.339 20.2642 169.099 20.2362 168.858 20.241H167.736V22.4065ZM172.347 19.6623H174.153C174.785 19.6623 175.283 19.7997 175.648 20.0744C176.013 20.3492 176.196 20.7642 176.196 21.3194C176.196 21.8747 176.014 22.2912 175.648 22.5687C175.283 22.8463 174.785 22.9852 174.153 22.9851H172.979V25.8696H172.347V19.6623ZM172.979 22.4065H173.996C174.237 22.4116 174.477 22.3821 174.71 22.3188C174.88 22.2733 175.04 22.1944 175.179 22.0866C175.292 21.9961 175.379 21.8784 175.434 21.7447C175.487 21.6093 175.514 21.4649 175.512 21.3194C175.513 21.1768 175.486 21.0354 175.434 20.903C175.379 20.7684 175.291 20.6494 175.179 20.5566C175.041 20.4467 174.881 20.3675 174.71 20.3243C174.477 20.2642 174.237 20.2362 173.996 20.241H172.979L172.979 22.4065ZM182.535 24.8877C182.424 25.0522 182.293 25.2024 182.145 25.3348C181.985 25.4787 181.806 25.601 181.614 25.6986C181.409 25.8032 181.193 25.8841 180.97 25.9397C180.73 25.9992 180.485 26.0286 180.238 26.0274C179.798 26.0315 179.361 25.9481 178.953 25.7819C178.176 25.4678 177.56 24.8505 177.248 24.0723C177.081 23.6572 176.998 23.2133 177.003 22.7659C176.998 22.3186 177.081 21.8746 177.248 21.4596C177.56 20.6814 178.176 20.0641 178.953 19.75C179.361 19.5839 179.798 19.5004 180.238 19.5045C180.634 19.5067 181.027 19.584 181.395 19.7324C181.787 19.8895 182.13 20.1501 182.386 20.4865L181.833 20.8985C181.759 20.788 181.671 20.6878 181.57 20.6004C181.454 20.4977 181.326 20.4094 181.189 20.3374C181.042 20.2602 180.888 20.1985 180.729 20.1533C180.569 20.1072 180.404 20.0835 180.238 20.0832C179.869 20.0771 179.504 20.152 179.168 20.3024C178.863 20.4407 178.59 20.6407 178.366 20.8897C178.144 21.1394 177.973 21.4297 177.862 21.7446C177.628 22.4054 177.628 23.1264 177.862 23.7873C177.973 24.1021 178.144 24.3924 178.366 24.6421C178.59 24.8912 178.863 25.0912 179.168 25.2295C179.504 25.38 179.869 25.4549 180.238 25.4487C180.401 25.4488 180.564 25.4341 180.724 25.4049C180.888 25.3749 181.047 25.3248 181.198 25.2559C181.357 25.1828 181.505 25.0868 181.636 24.9708C181.784 24.839 181.912 24.687 182.018 24.5194L182.535 24.8877Z" fill="white"/>
<path d="M160.375 21.7029L158.74 20.0802L160.363 18.4454L161.997 20.0681L160.375 21.7029Z" fill="url(#paint11_linear_1205_1704)"/>
<path d="M164.773 20.9705L163.814 20.0187L164.766 19.0598L165.725 20.0116L164.773 20.9705Z" fill="url(#paint12_linear_1205_1704)"/>
<path d="M160.624 19.141L159.642 20.1311L160.632 21.1137L161.469 21.1106L160.591 20.2394L164.928 20.2233L164.548 20.606L164.966 20.6045L165.458 20.1095L164.963 19.6182L164.544 19.6197L164.927 19.9996L160.59 20.0157L161.462 19.1379L160.624 19.141Z" fill="#244B5A"/>
<ellipse cx="103.209" cy="316.399" rx="23" ry="22.9999" fill="#17191B"/>
<path d="M125.857 316.399C125.857 328.907 115.717 339.046 103.209 339.046C90.7013 339.046 80.5615 328.907 80.5615 316.399C80.5615 303.891 90.7013 293.751 103.209 293.751C115.717 293.751 125.857 303.891 125.857 316.399Z" stroke="url(#paint13_linear_1205_1704)" stroke-opacity="0.2" stroke-width="0.704258"/>
<path d="M125.857 316.399C125.857 328.907 115.717 339.046 103.209 339.046C90.7013 339.046 80.5615 328.907 80.5615 316.399C80.5615 303.891 90.7013 293.751 103.209 293.751C115.717 293.751 125.857 303.891 125.857 316.399Z" stroke="#367CB4" stroke-opacity="0.16" stroke-width="0.704258"/>
<g clip-path="url(#clip1_1205_1704)">
<path d="M98.7177 321.342C98.4703 321.108 98.4799 320.676 98.7596 320.476C99.2444 320.11 99.8884 320.138 100.438 319.926C100.847 319.807 101.058 319.41 101.314 319.106C100.841 319.07 100.377 318.949 99.9506 318.74L98.529 320.327C96.7462 322.787 95.0866 321.705 93.5442 317.113C92.0008 312.519 91.4216 308.506 93.4282 306.5C94.9079 305.02 97.3995 304.827 100.807 305.968C102.059 305.132 103.651 305.017 105.096 305.31C105.224 305.326 105.354 305.385 105.485 305.359C109.66 303.967 114.166 306.164 114.135 308.921C114.108 311.34 113.093 315.042 110.79 318.646C112.182 319.233 113.594 318.224 114.154 318.812C114.748 319.701 112.166 321.396 109.564 320.883C109.062 324.263 109.213 326.006 108.084 326.986C106.357 328.284 103.397 328.493 102.973 325.226C102.82 323.872 102.813 322.506 102.818 321.145C101.374 322.419 99.32 321.91 98.7177 321.342ZM110.855 311.141C110.863 312.062 110.548 312.961 110.642 313.885C110.731 314.864 110.942 315.865 110.693 316.838C110.622 317.183 110.442 317.489 110.318 317.814C110.327 317.86 110.346 317.954 110.355 318C112.29 315.116 114.234 309.582 113.117 307.711C111.647 305.94 109.48 305.233 106.659 305.769C108.957 306.829 110.885 309.616 110.855 311.141ZM107.951 312.973C108.269 314.502 109.156 315.816 109.847 317.191C110.362 316.154 110.059 314.979 109.965 313.887C109.889 313.003 110.148 312.144 110.175 311.267C108.471 311.056 107.658 311.561 107.951 312.973ZM95.5232 319.917C95.7987 320.322 96.1131 320.773 96.6071 320.916C97.0296 321.003 97.3674 320.658 97.6119 320.364C98.1816 319.676 98.7871 319.024 99.3668 318.346C98.5156 317.573 98.0553 316.394 98.2105 315.248C98.334 314.37 98.3574 313.481 98.3033 312.596C98.2347 309.984 98.7964 307.886 100.189 306.466C95.8168 305.165 92.384 305.914 92.8481 311.235C93.2836 314.413 94.1724 317.309 95.5232 319.917ZM98.9688 312.096C98.9831 312.832 99.0351 313.569 98.9851 314.305C98.9637 314.955 98.785 315.606 98.9188 316.258C99.1536 317.402 100.158 318.426 101.364 318.414C101.541 317.835 101.746 317.264 101.999 316.713C102.725 315.285 102.607 313.608 102.229 312.1C101.875 310.855 100.047 311.37 98.9688 312.096ZM102.174 319.241C101.702 319.549 101.502 320.146 100.998 320.417C100.476 320.725 99.8445 320.706 99.3046 320.956C100.4 321.514 101.916 321.318 102.673 320.292C103.061 319.932 102.687 319.169 102.174 319.241ZM113.311 319.356C112.377 319.469 111.356 319.695 110.478 319.232C110.272 319.088 110.018 319.21 109.839 319.341C109.614 319.551 109.629 319.883 109.627 320.164C110.123 320.334 110.658 320.316 111.172 320.255C111.95 320.17 112.74 319.911 113.311 319.356ZM108.475 311.736C108.293 311.886 108.49 312.11 108.647 312.181C109.028 312.404 109.55 312.092 109.562 311.657C109.218 311.497 108.787 311.513 108.475 311.736ZM101.737 312.43C101.9 312.338 102.071 312.086 101.884 311.934C101.616 311.716 101.227 311.674 100.902 311.762C100.797 311.799 100.686 311.87 100.708 311.999C100.783 312.436 101.369 312.701 101.737 312.43ZM107.793 311.049C108.423 310.508 109.306 310.54 110.084 310.567C109.616 309.242 108.746 308.065 107.646 307.195C106.314 306.147 104.555 305.686 102.879 305.899C101.863 306.03 100.912 306.58 100.299 307.402C99.4648 308.508 99.1004 309.902 98.9943 311.263C100.948 310.317 102.469 310.447 102.913 312.019C103.187 313.224 103.335 314.493 103.068 315.713C102.861 316.699 102.26 317.551 102.061 318.538C103.173 318.557 103.529 319.394 103.515 320.029C103.437 322.24 103.508 324.156 103.757 325.72C104.035 326.83 104.926 327.254 105.602 327.193C107.21 327.047 108.065 326.563 108.348 324.957C109.077 320.366 108.841 319.559 109.168 319.094L109.17 319.095C109.334 318.798 109.657 318.659 109.946 318.513C109.241 317.433 105.983 312.62 107.793 311.049Z" fill="#367CB4"/>
</g>
<defs>
<filter id="filter0_d_1205_1704" x="110.273" y="133.67" width="85.967" height="85.4729" filterUnits="userSpaceOnUse" color-interpolation-filters="sRGB">
<feFlood flood-opacity="0" result="BackgroundImageFix"/>
<feColorMatrix in="SourceAlpha" type="matrix" values="0 0 0 0 0 0 0 0 0 0 0 0 0 0 0 0 0 0 127 0" result="hardAlpha"/>
<feOffset/>
<feGaussianBlur stdDeviation="10.5754"/>
<feComposite in2="hardAlpha" operator="out"/>
<feColorMatrix type="matrix" values="0 0 0 0 0 0 0 0 0 0 0 0 0 0 0 0 0 0 0.16 0"/>
<feBlend mode="normal" in2="BackgroundImageFix" result="effect1_dropShadow_1205_1704"/>
<feBlend mode="normal" in="SourceGraphic" in2="effect1_dropShadow_1205_1704" result="shape"/>
</filter>
<filter id="filter1_i_1205_1704" x="131.424" y="154.821" width="43.6655" height="53.7468" filterUnits="userSpaceOnUse" color-interpolation-filters="sRGB">
<feFlood flood-opacity="0" result="BackgroundImageFix"/>
<feBlend mode="normal" in="SourceGraphic" in2="BackgroundImageFix" result="shape"/>
<feColorMatrix in="SourceAlpha" type="matrix" values="0 0 0 0 0 0 0 0 0 0 0 0 0 0 0 0 0 0 127 0" result="hardAlpha"/>
<feOffset dy="21.1508"/>
<feGaussianBlur stdDeviation="5.2877"/>
<feComposite in2="hardAlpha" operator="arithmetic" k2="-1" k3="1"/>
<feColorMatrix type="matrix" values="0 0 0 0 1 0 0 0 0 1 0 0 0 0 1 0 0 0 0.2 0"/>
<feBlend mode="normal" in2="shape" result="effect1_innerShadow_1205_1704"/>
</filter>
<filter id="filter2_i_1205_1704" x="127.807" y="151.252" width="50.8987" height="71.4606" filterUnits="userSpaceOnUse" color-interpolation-filters="sRGB">
<feFlood flood-opacity="0" result="BackgroundImageFix"/>
<feBlend mode="normal" in="SourceGraphic" in2="BackgroundImageFix" result="shape"/>
<feColorMatrix in="SourceAlpha" type="matrix" values="0 0 0 0 0 0 0 0 0 0 0 0 0 0 0 0 0 0 127 0" result="hardAlpha"/>
<feOffset dy="21.1508"/>
<feGaussianBlur stdDeviation="10.5754"/>
<feComposite in2="hardAlpha" operator="arithmetic" k2="-1" k3="1"/>
<feColorMatrix type="matrix" values="0 0 0 0 1 0 0 0 0 1 0 0 0 0 1 0 0 0 0.2 0"/>
<feBlend mode="normal" in2="shape" result="effect1_innerShadow_1205_1704"/>
</filter>
<filter id="filter3_di_1205_1704" x="28.3616" y="136.706" width="27.2073" height="29.8202" filterUnits="userSpaceOnUse" color-interpolation-filters="sRGB">
<feFlood flood-opacity="0" result="BackgroundImageFix"/>
<feColorMatrix in="SourceAlpha" type="matrix" values="0 0 0 0 0 0 0 0 0 0 0 0 0 0 0 0 0 0 127 0" result="hardAlpha"/>
<feOffset dy="0.378578"/>
<feGaussianBlur stdDeviation="1.51431"/>
<feComposite in2="hardAlpha" operator="out"/>
<feColorMatrix type="matrix" values="0 0 0 0 0 0 0 0 0 0 0 0 0 0 0 0 0 0 0.1 0"/>
<feBlend mode="normal" in2="BackgroundImageFix" result="effect1_dropShadow_1205_1704"/>
<feBlend mode="normal" in="SourceGraphic" in2="effect1_dropShadow_1205_1704" result="shape"/>
<feColorMatrix in="SourceAlpha" type="matrix" values="0 0 0 0 0 0 0 0 0 0 0 0 0 0 0 0 0 0 127 0" result="hardAlpha"/>
<feOffset dy="1.51431"/>
<feGaussianBlur stdDeviation="0.757155"/>
<feComposite in2="hardAlpha" operator="arithmetic" k2="-1" k3="1"/>
<feColorMatrix type="matrix" values="0 0 0 0 1 0 0 0 0 1 0 0 0 0 1 0 0 0 0.2 0"/>
<feBlend mode="normal" in2="shape" result="effect2_innerShadow_1205_1704"/>
</filter>
<linearGradient id="paint0_linear_1205_1704" x1="153.209" y1="23.5154" x2="153.209" y2="329.446" gradientUnits="userSpaceOnUse">
<stop stop-color="white"/>
<stop offset="1" stop-color="white" stop-opacity="0"/>
</linearGradient>
<linearGradient id="paint1_linear_1205_1704" x1="153.209" y1="23.5154" x2="153.209" y2="329.446" gradientUnits="userSpaceOnUse">
<stop stop-color="white"/>
<stop offset="1" stop-color="white" stop-opacity="0"/>
</linearGradient>
<linearGradient id="paint2_linear_1205_1704" x1="153.21" y1="65.2332" x2="153.21" y2="287.728" gradientUnits="userSpaceOnUse">
<stop stop-color="white"/>
<stop offset="1" stop-color="white" stop-opacity="0"/>
</linearGradient>
<linearGradient id="paint3_linear_1205_1704" x1="153.21" y1="65.2332" x2="153.21" y2="287.728" gradientUnits="userSpaceOnUse">
<stop stop-color="white"/>
<stop offset="1" stop-color="white" stop-opacity="0"/>
</linearGradient>
<linearGradient id="paint4_linear_1205_1704" x1="153.208" y1="106.951" x2="153.208" y2="246.011" gradientUnits="userSpaceOnUse">
<stop stop-color="white"/>
<stop offset="1" stop-color="white" stop-opacity="0"/>
</linearGradient>
<linearGradient id="paint5_linear_1205_1704" x1="153.208" y1="106.951" x2="153.208" y2="246.011" gradientUnits="userSpaceOnUse">
<stop stop-color="white"/>
<stop offset="1" stop-color="white" stop-opacity="0"/>
</linearGradient>
<linearGradient id="paint6_linear_1205_1704" x1="175.525" y1="153.986" x2="135.094" y2="197.452" gradientUnits="userSpaceOnUse">
<stop stop-color="#77DA05"/>
<stop offset="0.5" stop-color="#DBFE01"/>
<stop offset="1" stop-color="#77DA05"/>
</linearGradient>
<linearGradient id="paint7_linear_1205_1704" x1="41.9646" y1="128.545" x2="41.9646" y2="173.959" gradientUnits="userSpaceOnUse">
<stop stop-color="white"/>
<stop offset="1" stop-color="white" stop-opacity="0"/>
</linearGradient>
<linearGradient id="paint8_linear_1205_1704" x1="41.9646" y1="128.545" x2="41.9646" y2="173.959" gradientUnits="userSpaceOnUse">
<stop stop-color="white"/>
<stop offset="1" stop-color="white" stop-opacity="0"/>
</linearGradient>
<linearGradient id="paint9_linear_1205_1704" x1="296.048" y1="210.723" x2="296.048" y2="256.138" gradientUnits="userSpaceOnUse">
<stop stop-color="white"/>
<stop offset="1" stop-color="white" stop-opacity="0"/>
</linearGradient>
<linearGradient id="paint10_linear_1205_1704" x1="170.569" y1="0.808105" x2="170.569" y2="46.2228" gradientUnits="userSpaceOnUse">
<stop stop-color="white"/>
<stop offset="1" stop-color="white" stop-opacity="0"/>
</linearGradient>
<linearGradient id="paint11_linear_1205_1704" x1="-3.10525" y1="-140.565" x2="322.644" y2="-141.776" gradientUnits="userSpaceOnUse">
<stop stop-color="#72C9C9"/>
<stop offset="1" stop-color="#02B0AD"/>
</linearGradient>
<linearGradient id="paint12_linear_1205_1704" x1="68.8838" y1="-74.2082" x2="259.953" y2="-74.9185" gradientUnits="userSpaceOnUse">
<stop stop-color="#03B6B4"/>
<stop offset="1" stop-color="#74CBCA"/>
</linearGradient>
<linearGradient id="paint13_linear_1205_1704" x1="103.209" y1="293.399" x2="103.209" y2="339.399" gradientUnits="userSpaceOnUse">
<stop stop-color="white"/>
<stop offset="1" stop-color="white" stop-opacity="0"/>
</linearGradient>
<clipPath id="clip0_1205_1704">
<rect width="21.15" height="23.7946" fill="white" transform="translate(31.3893 139.355)"/>
</clipPath>
<clipPath id="clip1_1205_1704">
<rect width="22.1339" height="22.9403" fill="white" transform="translate(92.1424 304.928)"/>
</clipPath>
</defs>
</svg>
