<svg width="53" height="53" viewBox="0 0 53 53" fill="none" xmlns="http://www.w3.org/2000/svg">
<g filter="url(#filter0_i_432_13753)">
<path fill-rule="evenodd" clip-rule="evenodd" d="M6.00418 16.1586C3.84583 14.3409 3.71585 11.0932 5.72219 9.11318L8.78008 6.09536C10.757 4.14435 13.9896 4.23587 15.8499 6.29552L18.5387 9.27242C22.6834 13.8611 29.9541 13.8611 34.0988 9.27241L36.7876 6.29553C38.6479 4.23587 41.8805 4.14435 43.8574 6.09536L46.9153 9.11318C48.9216 11.0932 48.7917 14.3409 46.6333 16.1586L44.2627 18.155C39.0618 22.5351 39.0618 30.4664 44.2627 34.8465L46.6333 36.8429C48.7917 38.6606 48.9216 41.9083 46.9153 43.8883L43.9371 46.8275C41.9308 48.8075 38.6401 48.6792 36.7982 46.5492L34.2467 43.5984C30.0859 38.7864 22.5516 38.7864 18.3908 43.5984L15.8393 46.5492C13.9974 48.6792 10.7067 48.8075 8.70036 46.8275L5.72219 43.8883C3.71585 41.9083 3.84583 38.6606 6.00418 36.8429L8.68446 34.5857C13.7228 30.3425 13.7228 22.659 8.68446 18.4158L6.00418 16.1586Z" fill="url(#paint0_linear_432_13753)"/>
</g>
<g filter="url(#filter1_i_432_13753)">
<path d="M6.0252 3.37126L2.96731 6.38909C-0.648713 9.95774 -0.414081 15.8121 3.47536 19.0876L6.15564 21.3449C9.36885 24.051 9.36885 28.9494 6.15564 31.6554L3.47536 33.9127C-0.414081 37.1883 -0.648713 43.0426 2.96731 46.6113L5.94549 49.5504C9.55927 53.1169 15.4853 52.8861 18.8033 49.049L21.3548 46.0982C23.9596 43.0857 28.6781 43.0857 31.2829 46.0982L33.8344 49.049C37.1524 52.8861 43.0784 53.1169 46.6922 49.5504L49.6704 46.6113C53.2864 43.0426 53.0518 37.1883 49.1624 33.9127L46.7918 31.9162C43.416 29.0733 43.416 23.9271 46.7918 21.0841L49.1624 19.0876C53.0518 15.8121 53.2864 9.95774 49.6704 6.38909L46.6125 3.37126C43.0517 -0.142905 37.2303 0.0217106 33.8791 3.73192L31.1904 6.70881C28.5956 9.58158 24.0421 9.58158 21.4474 6.70881L18.7586 3.73192C15.4074 0.0217026 9.58601 -0.142902 6.0252 3.37126ZM6.16532 15.9668C4.11932 14.2437 3.9965 11.167 5.8979 9.29055L8.95579 6.27272C10.8315 4.42161 13.8998 4.50869 15.6645 6.46252L18.3533 9.43941C22.5972 14.138 30.0405 14.138 34.2844 9.43941L36.9732 6.46252C38.7379 4.50869 41.8062 4.42161 43.6819 6.27272L46.7398 9.29055C48.6412 11.167 48.5184 14.2437 46.4724 15.9668L44.1018 17.9632C38.7823 22.4432 38.7823 30.5572 44.1018 35.0371L46.4724 37.0336C48.5184 38.7567 48.6412 41.8333 46.7398 43.7098L43.7616 46.649C41.858 48.5277 38.7346 48.4056 36.9874 46.3851L34.4359 43.4343C30.1754 38.507 22.4623 38.507 18.2018 43.4343L15.6503 46.3851C13.9031 48.4056 10.7797 48.5277 8.87608 46.649L5.8979 43.7098C3.9965 41.8333 4.11932 38.7567 6.16533 37.0336L8.84561 34.7763C14.0026 30.4333 14.0026 22.5671 8.84561 18.224L6.16532 15.9668Z" stroke="#73736D" stroke-width="0.5"/>
</g>
<defs>
<filter id="filter0_i_432_13753" x="4.29761" y="4.68945" width="44.0422" height="47.5439" filterUnits="userSpaceOnUse" color-interpolation-filters="sRGB">
<feFlood flood-opacity="0" result="BackgroundImageFix"/>
<feBlend mode="normal" in="SourceGraphic" in2="BackgroundImageFix" result="shape"/>
<feColorMatrix in="SourceAlpha" type="matrix" values="0 0 0 0 0 0 0 0 0 0 0 0 0 0 0 0 0 0 127 0" result="hardAlpha"/>
<feOffset dy="4"/>
<feGaussianBlur stdDeviation="2"/>
<feComposite in2="hardAlpha" operator="arithmetic" k2="-1" k3="1"/>
<feColorMatrix type="matrix" values="0 0 0 0 0 0 0 0 0 0 0 0 0 0 0 0 0 0 0.2 0"/>
<feBlend mode="normal" in2="shape" result="effect1_innerShadow_432_13753"/>
</filter>
<filter id="filter1_i_432_13753" x="0.149902" y="0.588867" width="52.3379" height="58.8552" filterUnits="userSpaceOnUse" color-interpolation-filters="sRGB">
<feFlood flood-opacity="0" result="BackgroundImageFix"/>
<feBlend mode="normal" in="SourceGraphic" in2="BackgroundImageFix" result="shape"/>
<feColorMatrix in="SourceAlpha" type="matrix" values="0 0 0 0 0 0 0 0 0 0 0 0 0 0 0 0 0 0 127 0" result="hardAlpha"/>
<feOffset dy="7.1111"/>
<feGaussianBlur stdDeviation="3.55555"/>
<feComposite in2="hardAlpha" operator="arithmetic" k2="-1" k3="1"/>
<feColorMatrix type="matrix" values="0 0 0 0 1 0 0 0 0 1 0 0 0 0 1 0 0 0 0.2 0"/>
<feBlend mode="normal" in2="shape" result="effect1_innerShadow_432_13753"/>
</filter>
<linearGradient id="paint0_linear_432_13753" x1="26.3187" y1="1.23746" x2="26.8242" y2="51.6707" gradientUnits="userSpaceOnUse">
<stop stop-color="#DCDCDA" stop-opacity="0.9"/>
<stop offset="1" stop-color="#DCDCDA" stop-opacity="0.1"/>
</linearGradient>
</defs>
</svg>
