<svg width="60" height="59" viewBox="0 0 60 59" fill="none" xmlns="http://www.w3.org/2000/svg">
<g filter="url(#filter0_d_432_13762)">
<path fill-rule="evenodd" clip-rule="evenodd" d="M9.67043 19.1586C7.51209 17.3409 7.38211 14.0932 9.38845 12.1132L12.4463 9.09536C14.4232 7.14435 17.6559 7.23587 19.5162 9.29552L22.205 12.2724C26.3496 16.8611 33.6204 16.8611 37.765 12.2724L40.4538 9.29553C42.3141 7.23587 45.5467 7.14435 47.5236 9.09536L50.5815 12.1132C52.5879 14.0932 52.4579 17.3409 50.2995 19.1586L47.9289 21.155C42.7281 25.5351 42.7281 33.4664 47.9289 37.8465L50.2995 39.8429C52.4579 41.6606 52.5879 44.9083 50.5815 46.8883L47.6033 49.8275C45.597 51.8075 42.3063 51.6792 40.4645 49.5492L37.913 46.5984C33.7522 41.7864 26.2178 41.7864 22.057 46.5984L19.5055 49.5492C17.6637 51.6792 14.373 51.8075 12.3666 49.8275L9.38845 46.8883C7.38211 44.9083 7.51209 41.6606 9.67044 39.8429L12.3507 37.5857C17.3891 33.3425 17.3891 25.659 12.3507 21.4158L9.67043 19.1586Z" fill="#141413" fill-opacity="0.05" shape-rendering="crispEdges"/>
</g>
<g filter="url(#filter1_i_432_13762)">
<path fill-rule="evenodd" clip-rule="evenodd" d="M6.80942 9.56702L9.8673 6.5492C13.3269 3.13493 18.984 3.2951 22.2395 6.89949L24.9283 9.87638C27.6223 12.8591 32.3483 12.8591 35.0424 9.87638L37.7311 6.89949C40.9867 3.2951 46.6438 3.13493 50.1034 6.5492L53.1612 9.56702C56.6723 13.0321 56.4449 18.7154 52.6678 21.8964L50.2972 23.8929C46.8028 26.8357 46.8028 32.1646 50.2972 35.1075L52.6678 37.1039C56.4449 40.2849 56.6723 45.9682 53.1612 49.4333L50.1831 52.3725C46.672 55.8376 40.9132 55.6131 37.69 51.8855L35.1385 48.9347C32.434 45.8069 27.5367 45.8069 24.8321 48.9347L22.2806 51.8855C19.0574 55.6131 13.2987 55.8376 9.78759 52.3725L6.80942 49.4333C3.29833 45.9682 3.5258 40.2849 7.3029 37.1039L9.98318 34.8467C13.315 32.0407 13.315 26.9597 9.98318 24.1537L7.3029 21.8964C3.5258 18.7154 3.29833 13.0321 6.80942 9.56702ZM9.38879 12.1126C7.38246 14.0927 7.51244 17.3403 9.67078 19.158L12.3511 21.4152C17.3894 25.6584 17.3894 33.3419 12.3511 37.5851L9.67078 39.8424C7.51244 41.6601 7.38246 44.9077 9.38879 46.8877L12.367 49.8269C14.3733 51.807 17.664 51.6787 19.5059 49.5486L22.0574 46.5978C26.2182 41.7859 33.7525 41.7859 37.9133 46.5978L40.4648 49.5486C42.3066 51.6787 45.5974 51.807 47.6037 49.8269L50.5819 46.8877C52.5882 44.9077 52.4582 41.6601 50.2999 39.8424L47.9293 37.8459C42.7284 33.4659 42.7284 25.5345 47.9293 21.1544L50.2999 19.158C52.4582 17.3403 52.5882 14.0927 50.5819 12.1126L47.524 9.09478C45.5471 7.14377 42.3145 7.2353 40.4541 9.29495L37.7654 12.2718C33.6207 16.8606 26.3499 16.8606 22.2053 12.2718L19.5165 9.29495C17.6562 7.2353 14.4236 7.14377 12.4467 9.09478L9.38879 12.1126Z" fill="url(#paint0_linear_432_13762)"/>
</g>
<path d="M9.6917 6.37126L6.63381 9.38909C3.01779 12.9577 3.25242 18.8121 7.14186 22.0876L9.82214 24.3449C13.0353 27.051 13.0353 31.9494 9.82214 34.6554L7.14186 36.9127C3.25242 40.1883 3.01779 46.0426 6.63381 49.6113L9.61198 52.5504C13.2258 56.1169 19.1518 55.8861 22.4698 52.049L25.0213 49.0982C27.6261 46.0857 32.3446 46.0857 34.9494 49.0982L37.5009 52.049C40.8188 55.8861 46.7449 56.1169 50.3587 52.5504L53.3369 49.6113C56.9529 46.0426 56.7182 40.1883 52.8288 36.9127L50.4582 34.9162C47.0825 32.0733 47.0825 26.9271 50.4582 24.0841L52.8288 22.0876C56.7182 18.8121 56.9529 12.9577 53.3369 9.38909L50.279 6.37126C46.7182 2.85709 40.8967 3.02171 37.5456 6.73192L34.8568 9.70881C32.2621 12.5816 27.7086 12.5816 25.1138 9.70881L22.4251 6.73192C19.0739 3.0217 13.2525 2.8571 9.6917 6.37126ZM9.83182 18.9668C7.78582 17.2437 7.663 14.167 9.5644 12.2905L12.6223 9.27272C14.498 7.42161 17.5663 7.50869 19.331 9.46252L22.0198 12.4394C26.2637 17.138 33.707 17.138 37.9509 12.4394L40.6397 9.46252C42.4044 7.50869 45.4727 7.42161 47.3484 9.27272L50.4063 12.2905C52.3077 14.167 52.1848 17.2437 50.1388 18.9668L47.7682 20.9632C42.4487 25.4432 42.4487 33.5572 47.7682 38.0371L50.1388 40.0336C52.1848 41.7567 52.3077 44.8333 50.4063 46.7098L47.4281 49.649C45.5244 51.5277 42.401 51.4056 40.6539 49.3851L38.1024 46.4343C33.8419 41.507 26.1288 41.507 21.8682 46.4343L19.3167 49.3851C17.5696 51.4056 14.4462 51.5277 12.5426 49.649L9.5644 46.7098C7.663 44.8333 7.78582 41.7567 9.83182 40.0336L12.5121 37.7763C17.6691 33.4333 17.6691 25.5671 12.5121 21.224L9.83182 18.9668Z" stroke="#BCBCB8" stroke-width="0.5"/>
<g filter="url(#filter2_i_432_13762)">
<path fill-rule="evenodd" clip-rule="evenodd" d="M9.67056 19.1586C7.51222 17.3409 7.38223 14.0932 9.38857 12.1132L12.4465 9.09536C14.4234 7.14435 17.656 7.23587 19.5163 9.29552L22.2051 12.2724C26.3497 16.8611 33.6205 16.8611 37.7651 12.2724L40.4539 9.29553C42.3142 7.23587 45.5468 7.14435 47.5238 9.09536L50.5816 12.1132C52.588 14.0932 52.458 17.3409 50.2997 19.1586L47.9291 21.155C42.7282 25.5351 42.7282 33.4664 47.9291 37.8465L50.2997 39.8429C52.458 41.6606 52.588 44.9083 50.5816 46.8883L47.6035 49.8275C45.5971 51.8075 42.3064 51.6792 40.4646 49.5492L37.9131 46.5984C33.7523 41.7864 26.2179 41.7864 22.0571 46.5984L19.5056 49.5492C17.6638 51.6792 14.3731 51.8075 12.3667 49.8275L9.38857 46.8883C7.38223 44.9083 7.51222 41.6606 9.67056 39.8429L12.3508 37.5857C17.3892 33.3425 17.3892 25.659 12.3508 21.4158L9.67056 19.1586Z" fill="#222221"/>
</g>
<defs>
<filter id="filter0_d_432_13762" x="0.852768" y="0.578354" width="58.2644" height="57.7661" filterUnits="userSpaceOnUse" color-interpolation-filters="sRGB">
<feFlood flood-opacity="0" result="BackgroundImageFix"/>
<feColorMatrix in="SourceAlpha" type="matrix" values="0 0 0 0 0 0 0 0 0 0 0 0 0 0 0 0 0 0 127 0" result="hardAlpha"/>
<feOffset/>
<feGaussianBlur stdDeviation="3.55555"/>
<feComposite in2="hardAlpha" operator="out"/>
<feColorMatrix type="matrix" values="0 0 0 0 0 0 0 0 0 0 0 0 0 0 0 0 0 0 0.16 0"/>
<feBlend mode="normal" in2="BackgroundImageFix" result="effect1_dropShadow_432_13762"/>
<feBlend mode="normal" in="SourceGraphic" in2="effect1_dropShadow_432_13762" result="shape"/>
</filter>
<filter id="filter1_i_432_13762" x="3.81641" y="3.58887" width="52.3379" height="58.8552" filterUnits="userSpaceOnUse" color-interpolation-filters="sRGB">
<feFlood flood-opacity="0" result="BackgroundImageFix"/>
<feBlend mode="normal" in="SourceGraphic" in2="BackgroundImageFix" result="shape"/>
<feColorMatrix in="SourceAlpha" type="matrix" values="0 0 0 0 0 0 0 0 0 0 0 0 0 0 0 0 0 0 127 0" result="hardAlpha"/>
<feOffset dy="7.1111"/>
<feGaussianBlur stdDeviation="3.55555"/>
<feComposite in2="hardAlpha" operator="arithmetic" k2="-1" k3="1"/>
<feColorMatrix type="matrix" values="0 0 0 0 1 0 0 0 0 1 0 0 0 0 1 0 0 0 0.2 0"/>
<feBlend mode="normal" in2="shape" result="effect1_innerShadow_432_13762"/>
</filter>
<filter id="filter2_i_432_13762" x="7.96399" y="7.68945" width="44.0422" height="50.655" filterUnits="userSpaceOnUse" color-interpolation-filters="sRGB">
<feFlood flood-opacity="0" result="BackgroundImageFix"/>
<feBlend mode="normal" in="SourceGraphic" in2="BackgroundImageFix" result="shape"/>
<feColorMatrix in="SourceAlpha" type="matrix" values="0 0 0 0 0 0 0 0 0 0 0 0 0 0 0 0 0 0 127 0" result="hardAlpha"/>
<feOffset dy="7.1111"/>
<feGaussianBlur stdDeviation="3.55555"/>
<feComposite in2="hardAlpha" operator="arithmetic" k2="-1" k3="1"/>
<feColorMatrix type="matrix" values="0 0 0 0 1 0 0 0 0 1 0 0 0 0 1 0 0 0 0.2 0"/>
<feBlend mode="normal" in2="shape" result="effect1_innerShadow_432_13762"/>
</filter>
<linearGradient id="paint0_linear_432_13762" x1="29.9853" y1="4.08887" x2="29.9853" y2="54.8328" gradientUnits="userSpaceOnUse">
<stop stop-color="white"/>
<stop offset="1" stop-color="white" stop-opacity="0"/>
</linearGradient>
</defs>
</svg>
