<svg width="350" height="431" viewBox="0 0 350 431" fill="none" xmlns="http://www.w3.org/2000/svg">
<path d="M248.531 421.244C248.465 420.902 248.29 420.631 248.006 420.431C247.723 420.231 247.406 420.131 247.056 420.131C246.706 420.131 246.419 420.215 246.194 420.381C245.969 420.548 245.856 420.769 245.856 421.044C245.856 421.311 245.99 421.519 246.256 421.669C246.531 421.811 246.881 421.923 247.306 422.006C247.906 422.115 248.398 422.248 248.781 422.406C249.173 422.556 249.477 422.765 249.694 423.031C249.911 423.29 250.019 423.631 250.019 424.056C250.019 424.473 249.89 424.823 249.631 425.106C249.381 425.381 249.052 425.59 248.644 425.731C248.236 425.865 247.79 425.931 247.306 425.931C246.74 425.931 246.236 425.84 245.794 425.656C245.352 425.473 244.998 425.215 244.731 424.881C244.473 424.54 244.327 424.144 244.294 423.694L245.681 423.606C245.731 423.856 245.823 424.073 245.956 424.256C246.098 424.431 246.281 424.569 246.506 424.669C246.731 424.761 246.994 424.806 247.294 424.806C247.644 424.806 247.952 424.744 248.219 424.619C248.486 424.486 248.619 424.277 248.619 423.994C248.619 423.802 248.561 423.648 248.444 423.531C248.336 423.415 248.198 423.331 248.031 423.281C247.873 423.223 247.648 423.161 247.356 423.094C247.29 423.086 247.194 423.069 247.069 423.044C246.502 422.919 246.04 422.79 245.681 422.656C245.323 422.515 245.027 422.319 244.794 422.069C244.569 421.819 244.456 421.494 244.456 421.094C244.456 420.669 244.565 420.302 244.781 419.994C245.006 419.677 245.319 419.436 245.719 419.269C246.127 419.094 246.606 419.006 247.156 419.006C247.881 419.006 248.494 419.202 248.994 419.594C249.494 419.977 249.802 420.502 249.919 421.169L248.531 421.244Z" fill="#DBFE01"/>
<path d="M234.993 419.156L235.043 420.231C235.201 419.84 235.439 419.54 235.755 419.331C236.08 419.115 236.468 419.006 236.918 419.006C237.393 419.006 237.797 419.127 238.13 419.369C238.464 419.602 238.701 419.94 238.843 420.381C238.993 419.931 239.234 419.59 239.568 419.356C239.909 419.123 240.33 419.006 240.83 419.006C241.272 419.006 241.651 419.106 241.968 419.306C242.293 419.498 242.539 419.781 242.705 420.156C242.88 420.531 242.968 420.986 242.968 421.519V425.781H241.63V421.931C241.63 421.348 241.53 420.906 241.33 420.606C241.13 420.298 240.843 420.144 240.468 420.144C240.159 420.144 239.893 420.215 239.668 420.356C239.451 420.49 239.289 420.69 239.18 420.956C239.072 421.223 239.018 421.548 239.018 421.931V425.781H237.743V421.931C237.743 421.548 237.697 421.223 237.605 420.956C237.514 420.69 237.38 420.49 237.205 420.356C237.03 420.215 236.822 420.144 236.58 420.144C236.28 420.144 236.018 420.215 235.793 420.356C235.576 420.498 235.409 420.702 235.293 420.969C235.184 421.236 235.13 421.556 235.13 421.931V425.781H233.78V419.156H234.993Z" fill="#DBFE01"/>
<path d="M226.218 421.144C226.351 420.477 226.664 419.956 227.155 419.581C227.655 419.198 228.289 419.006 229.055 419.006C229.964 419.006 230.655 419.248 231.13 419.731C231.614 420.206 231.855 420.902 231.855 421.819V424.281C231.855 424.431 231.889 424.544 231.955 424.619C232.022 424.686 232.122 424.719 232.255 424.719H232.53V425.781H232.105H232.043C231.818 425.79 231.601 425.769 231.393 425.719C231.185 425.669 231.005 425.569 230.855 425.419C230.714 425.269 230.635 425.052 230.618 424.769C230.46 425.102 230.197 425.381 229.83 425.606C229.464 425.823 229.018 425.931 228.493 425.931C227.81 425.931 227.239 425.761 226.78 425.419C226.33 425.077 226.105 424.619 226.105 424.044C226.105 423.619 226.205 423.277 226.405 423.019C226.605 422.761 226.88 422.561 227.23 422.419C227.58 422.277 228.043 422.148 228.618 422.031L230.505 421.669C230.497 421.136 230.372 420.744 230.13 420.494C229.897 420.236 229.539 420.106 229.055 420.106C228.68 420.106 228.368 420.202 228.118 420.394C227.868 420.586 227.697 420.865 227.605 421.231L226.218 421.144ZM227.505 424.019C227.505 424.277 227.614 424.49 227.83 424.656C228.047 424.815 228.364 424.894 228.78 424.894C229.114 424.894 229.414 424.815 229.68 424.656C229.947 424.49 230.155 424.248 230.305 423.931C230.455 423.606 230.53 423.215 230.53 422.756V422.694L229.13 422.944L228.905 422.981C228.564 423.04 228.301 423.098 228.118 423.156C227.935 423.215 227.785 423.315 227.668 423.456C227.56 423.59 227.505 423.777 227.505 424.019Z" fill="#DBFE01"/>
<path d="M218.757 422.469C218.757 421.769 218.886 421.161 219.144 420.644C219.411 420.119 219.782 419.715 220.257 419.431C220.732 419.148 221.286 419.006 221.919 419.006C222.461 419.006 222.953 419.131 223.394 419.381C223.844 419.623 224.203 420.002 224.469 420.519C224.744 421.027 224.894 421.661 224.919 422.419V422.856H220.182C220.224 423.465 220.394 423.94 220.694 424.281C220.994 424.615 221.403 424.781 221.919 424.781C222.253 424.781 222.553 424.694 222.819 424.519C223.086 424.344 223.29 424.098 223.432 423.781L224.832 423.881C224.632 424.506 224.265 425.006 223.732 425.381C223.207 425.748 222.603 425.931 221.919 425.931C221.286 425.931 220.732 425.79 220.257 425.506C219.782 425.223 219.411 424.823 219.144 424.306C218.886 423.781 218.757 423.169 218.757 422.469ZM223.507 421.844C223.424 421.261 223.24 420.836 222.957 420.569C222.674 420.294 222.328 420.156 221.919 420.156C221.444 420.156 221.057 420.306 220.757 420.606C220.465 420.898 220.278 421.311 220.194 421.844H223.507Z" fill="#DBFE01"/>
<path d="M218.777 418.156H216.064V425.781H214.689V418.156H211.977V416.906H218.777V418.156Z" fill="#DBFE01"/>
<path d="M201.887 422.469C201.887 421.769 202.016 421.161 202.274 420.644C202.541 420.119 202.912 419.715 203.387 419.431C203.862 419.148 204.416 419.006 205.049 419.006C205.591 419.006 206.083 419.131 206.524 419.381C206.974 419.623 207.333 420.002 207.599 420.519C207.874 421.027 208.024 421.661 208.049 422.419V422.856H203.312C203.353 423.465 203.524 423.94 203.824 424.281C204.124 424.615 204.533 424.781 205.049 424.781C205.383 424.781 205.683 424.694 205.949 424.519C206.216 424.344 206.42 424.098 206.562 423.781L207.962 423.881C207.762 424.506 207.395 425.006 206.862 425.381C206.337 425.748 205.733 425.931 205.049 425.931C204.416 425.931 203.862 425.79 203.387 425.506C202.912 425.223 202.541 424.823 202.274 424.306C202.016 423.781 201.887 423.169 201.887 422.469ZM206.637 421.844C206.553 421.261 206.37 420.836 206.087 420.569C205.803 420.294 205.458 420.156 205.049 420.156C204.574 420.156 204.187 420.306 203.887 420.606C203.595 420.898 203.408 421.311 203.324 421.844H206.637Z" fill="#DBFE01"/>
<path d="M199.998 416.906V424.244C199.998 424.385 200.036 424.494 200.111 424.569C200.186 424.644 200.294 424.681 200.436 424.681H200.973V425.781H200.136C199.694 425.781 199.336 425.648 199.061 425.381C198.786 425.106 198.648 424.744 198.648 424.294V416.906H199.998Z" fill="#DBFE01"/>
<path d="M196.776 419.156V425.781H195.426V419.156H196.776ZM196.801 416.906V418.181H195.401V416.906H196.801Z" fill="#DBFE01"/>
<path d="M189.354 416.906V420.031C189.537 419.715 189.808 419.465 190.166 419.281C190.525 419.098 190.921 419.006 191.354 419.006C191.921 419.006 192.416 419.148 192.841 419.431C193.266 419.715 193.591 420.119 193.816 420.644C194.041 421.16 194.154 421.769 194.154 422.469C194.154 423.169 194.041 423.781 193.816 424.306C193.591 424.823 193.266 425.223 192.841 425.506C192.416 425.79 191.921 425.931 191.354 425.931C190.904 425.931 190.496 425.835 190.129 425.644C189.762 425.452 189.483 425.185 189.291 424.844L189.254 425.781H188.004V416.906H189.354ZM189.254 422.469C189.254 422.927 189.325 423.331 189.466 423.681C189.608 424.031 189.812 424.302 190.079 424.494C190.346 424.677 190.654 424.769 191.004 424.769C191.537 424.769 191.962 424.56 192.279 424.144C192.604 423.727 192.766 423.169 192.766 422.469C192.766 421.752 192.608 421.185 192.291 420.769C191.975 420.344 191.546 420.131 191.004 420.131C190.654 420.131 190.346 420.227 190.079 420.419C189.812 420.61 189.608 420.881 189.466 421.231C189.325 421.581 189.254 421.994 189.254 422.469Z" fill="#DBFE01"/>
<path d="M183.577 425.931C182.944 425.931 182.39 425.79 181.915 425.506C181.44 425.223 181.069 424.823 180.802 424.306C180.544 423.781 180.415 423.169 180.415 422.469C180.415 421.769 180.544 421.161 180.802 420.644C181.06 420.119 181.427 419.715 181.902 419.431C182.385 419.148 182.944 419.006 183.577 419.006C184.21 419.006 184.765 419.148 185.24 419.431C185.715 419.715 186.081 420.119 186.34 420.644C186.606 421.161 186.74 421.769 186.74 422.469C186.74 423.169 186.61 423.781 186.352 424.306C186.094 424.823 185.723 425.223 185.24 425.506C184.765 425.79 184.21 425.931 183.577 425.931ZM183.577 424.769C184.135 424.769 184.569 424.569 184.877 424.169C185.185 423.761 185.34 423.194 185.34 422.469C185.34 421.744 185.185 421.181 184.877 420.781C184.569 420.373 184.135 420.169 183.577 420.169C183.019 420.169 182.585 420.373 182.277 420.781C181.969 421.181 181.815 421.744 181.815 422.469C181.815 423.194 181.969 423.761 182.277 424.169C182.585 424.569 183.019 424.769 183.577 424.769Z" fill="#DBFE01"/>
<path d="M171.901 416.906L174.526 424.169L177.151 416.906H179.014V425.781H177.651V419.419L175.289 425.769H173.764L171.414 419.419V425.781H170.039V416.906H171.901Z" fill="#DBFE01"/>
<path d="M160.833 416.406H162.158L158.458 427.156H157.146L160.833 416.406Z" fill="#DBFE01"/>
<path d="M151.352 416.906H152.702V425.781H151.452L151.415 424.844C151.223 425.185 150.944 425.452 150.577 425.644C150.211 425.835 149.802 425.931 149.352 425.931C148.786 425.931 148.29 425.79 147.865 425.506C147.44 425.223 147.115 424.823 146.89 424.306C146.665 423.781 146.552 423.169 146.552 422.469C146.552 421.769 146.665 421.16 146.89 420.644C147.115 420.119 147.44 419.715 147.865 419.431C148.29 419.148 148.786 419.006 149.352 419.006C149.786 419.006 150.181 419.098 150.54 419.281C150.898 419.465 151.169 419.715 151.352 420.031V416.906ZM151.24 423.681C151.381 423.331 151.452 422.927 151.452 422.469C151.452 421.994 151.381 421.581 151.24 421.231C151.098 420.881 150.894 420.61 150.627 420.419C150.361 420.227 150.052 420.131 149.702 420.131C149.161 420.131 148.731 420.344 148.415 420.769C148.098 421.185 147.94 421.752 147.94 422.469C147.94 423.169 148.098 423.727 148.415 424.144C148.74 424.56 149.169 424.769 149.702 424.769C150.052 424.769 150.361 424.677 150.627 424.494C150.894 424.302 151.098 424.031 151.24 423.681Z" fill="#DBFE01"/>
<path d="M140.925 419.156L140.988 420.931L140.825 420.806C140.934 420.198 141.18 419.748 141.563 419.456C141.946 419.156 142.417 419.006 142.975 419.006C143.7 419.006 144.259 419.24 144.65 419.706C145.042 420.165 145.238 420.769 145.238 421.519V425.781H143.888V421.931C143.888 421.531 143.846 421.202 143.763 420.944C143.68 420.677 143.542 420.477 143.35 420.344C143.167 420.211 142.925 420.144 142.625 420.144C142.134 420.144 141.75 420.298 141.475 420.606C141.2 420.906 141.063 421.348 141.063 421.931V425.781H139.713V419.156H140.925Z" fill="#DBFE01"/>
<path d="M132.136 422.469C132.136 421.769 132.265 421.161 132.523 420.644C132.79 420.119 133.161 419.715 133.636 419.431C134.111 419.148 134.665 419.006 135.298 419.006C135.84 419.006 136.332 419.131 136.773 419.381C137.223 419.623 137.582 420.002 137.848 420.519C138.123 421.027 138.273 421.661 138.298 422.419V422.856H133.561C133.602 423.465 133.773 423.94 134.073 424.281C134.373 424.615 134.782 424.781 135.298 424.781C135.632 424.781 135.932 424.694 136.198 424.519C136.465 424.344 136.669 424.098 136.811 423.781L138.211 423.881C138.011 424.506 137.644 425.006 137.111 425.381C136.586 425.748 135.982 425.931 135.298 425.931C134.665 425.931 134.111 425.79 133.636 425.506C133.161 425.223 132.79 424.823 132.523 424.306C132.265 423.781 132.136 423.169 132.136 422.469ZM136.886 421.844C136.802 421.261 136.619 420.836 136.336 420.569C136.052 420.294 135.707 420.156 135.298 420.156C134.823 420.156 134.436 420.306 134.136 420.606C133.844 420.898 133.657 421.311 133.573 421.844H136.886Z" fill="#DBFE01"/>
<path d="M129.556 417.656V423.869C129.556 424.135 129.618 424.34 129.743 424.481C129.876 424.615 130.068 424.681 130.318 424.681H131.306V425.781H130.193C129.543 425.781 129.047 425.619 128.706 425.294C128.372 424.969 128.206 424.494 128.206 423.869V417.656H129.556ZM131.318 419.156V420.256H127.206V419.156H131.318Z" fill="#DBFE01"/>
<path d="M121.602 419.156L121.664 420.931L121.502 420.806C121.61 420.198 121.856 419.748 122.239 419.456C122.622 419.156 123.093 419.006 123.652 419.006C124.377 419.006 124.935 419.24 125.327 419.706C125.718 420.165 125.914 420.769 125.914 421.519V425.781H124.564V421.931C124.564 421.531 124.522 421.202 124.439 420.944C124.356 420.677 124.218 420.477 124.027 420.344C123.843 420.211 123.602 420.144 123.302 420.144C122.81 420.144 122.427 420.298 122.152 420.606C121.877 420.906 121.739 421.348 121.739 421.931V425.781H120.389V419.156H121.602Z" fill="#DBFE01"/>
<path d="M115.828 425.931C115.195 425.931 114.641 425.79 114.166 425.506C113.691 425.223 113.32 424.823 113.053 424.306C112.795 423.781 112.666 423.169 112.666 422.469C112.666 421.769 112.795 421.161 113.053 420.644C113.311 420.119 113.678 419.715 114.153 419.431C114.636 419.148 115.195 419.006 115.828 419.006C116.461 419.006 117.016 419.148 117.491 419.431C117.966 419.715 118.332 420.119 118.591 420.644C118.857 421.161 118.991 421.769 118.991 422.469C118.991 423.169 118.861 423.781 118.603 424.306C118.345 424.823 117.974 425.223 117.491 425.506C117.016 425.79 116.461 425.931 115.828 425.931ZM115.828 424.769C116.386 424.769 116.82 424.569 117.128 424.169C117.436 423.761 117.591 423.194 117.591 422.469C117.591 421.744 117.436 421.181 117.128 420.781C116.82 420.373 116.386 420.169 115.828 420.169C115.27 420.169 114.836 420.373 114.528 420.781C114.22 421.181 114.066 421.744 114.066 422.469C114.066 423.194 114.22 423.761 114.528 424.169C114.836 424.569 115.27 424.769 115.828 424.769Z" fill="#DBFE01"/>
<path d="M109.822 419.156L109.872 420.956L109.76 420.869C109.843 420.277 110.018 419.844 110.285 419.569C110.552 419.294 110.935 419.156 111.435 419.156H112.06V420.256H111.422C111.081 420.256 110.797 420.319 110.572 420.444C110.356 420.569 110.193 420.756 110.085 421.006C109.985 421.248 109.935 421.552 109.935 421.919V425.781H108.585V419.156H109.822Z" fill="#DBFE01"/>
<path d="M107.039 416.906V418.156H101.914L102.651 417.419V421.481L101.914 420.831H106.814V422.056H101.914L102.651 421.406V425.781H101.276V416.906H107.039Z" fill="#DBFE01"/>
<rect y="157.031" width="348.438" height="242.188" rx="12.5" fill="#191918"/>
<rect x="0.75" y="157.781" width="346.938" height="240.688" rx="11.75" stroke="url(#paint0_linear_956_14860)" stroke-opacity="0.5" stroke-width="1.5" stroke-dasharray="3.12 3.12"/>
<rect x="6.75" y="327.844" width="109.417" height="64.625" rx="7.3125" fill="#141413"/>
<rect x="6.75" y="327.844" width="109.417" height="64.625" rx="7.3125" stroke="#222221"/>
<path d="M60.8823 344.039L59.0073 342.164" stroke="#B0CB01" stroke-width="0.999641" stroke-linecap="round" stroke-linejoin="round"/>
<path d="M62.0767 344.039L63.9517 342.164" stroke="#B0CB01" stroke-width="0.999641" stroke-linecap="round" stroke-linejoin="round"/>
<path d="M65.9056 348.365C65.9762 348.368 66.0464 348.353 66.1092 348.32C66.1721 348.288 66.2256 348.24 66.2647 348.182C66.3041 348.125 66.3302 348.06 66.3408 347.992C66.3514 347.923 66.3463 347.853 66.326 347.787C65.919 346.655 65.1667 345.679 64.1753 344.997C63.1838 344.315 62.0033 343.962 60.8002 343.987C59.5966 343.959 58.4148 344.311 57.4229 344.994C56.4309 345.676 55.6792 346.654 55.2745 347.787C55.252 347.853 55.2459 347.923 55.2566 347.992C55.2672 348.061 55.2944 348.126 55.3358 348.182C55.3734 348.24 55.4254 348.287 55.4868 348.319C55.5481 348.352 55.6168 348.368 55.6861 348.365H65.9056Z" stroke="#B0CB01" stroke-width="0.999641" stroke-linecap="round" stroke-linejoin="round"/>
<path d="M60.0749 346.726C59.9539 346.726 59.856 346.628 59.856 346.507C59.856 346.386 59.9539 346.288 60.0749 346.288" stroke="#B0CB01" stroke-width="0.999641"/>
<path d="M59.856 346.726C59.9769 346.726 60.0749 346.628 60.0749 346.507C60.0749 346.386 59.9769 346.288 59.856 346.288" stroke="#B0CB01" stroke-width="0.999641"/>
<path d="M63.1447 346.726C63.0238 346.726 62.9258 346.628 62.9258 346.507C62.9258 346.386 63.0238 346.288 63.1447 346.288" stroke="#B0CB01" stroke-width="0.999641"/>
<path d="M62.9258 346.726C63.0467 346.726 63.1447 346.628 63.1447 346.507C63.1447 346.386 63.0467 346.288 62.9258 346.288" stroke="#B0CB01" stroke-width="0.999641"/>
<path d="M52.9602 358.893V351.45C52.9355 351.272 52.9525 351.09 53.0098 350.919C53.067 350.749 53.1631 350.594 53.2903 350.466C53.4176 350.339 53.5727 350.243 53.7433 350.186C53.9139 350.129 54.0955 350.112 54.2738 350.136H55.5874" stroke="#B0CB01" stroke-width="0.999641" stroke-linecap="round" stroke-linejoin="round"/>
<path d="M69.3903 358.893V351.45C69.415 351.272 69.3981 351.09 69.3408 350.919C69.2836 350.749 69.1875 350.594 69.0602 350.466C68.9329 350.339 68.7779 350.243 68.6073 350.186C68.4367 350.129 68.255 350.112 68.0768 350.136H66.7632" stroke="#B0CB01" stroke-width="0.999641" stroke-linecap="round" stroke-linejoin="round"/>
<path d="M55.2515 357.569V350.125H66.6357V357.569" stroke="#B0CB01" stroke-width="0.999641" stroke-linecap="round" stroke-linejoin="round"/>
<path d="M85.6919 368.071H86.9819V378.721H85.8119L85.7669 377.611C85.5469 378.011 85.2119 378.326 84.7619 378.556C84.3119 378.786 83.8119 378.901 83.2619 378.901C82.5819 378.901 81.9869 378.731 81.4769 378.391C80.9669 378.051 80.5769 377.571 80.3069 376.951C80.0369 376.321 79.9019 375.586 79.9019 374.746C79.9019 373.906 80.0369 373.176 80.3069 372.556C80.5769 371.926 80.9669 371.441 81.4769 371.101C81.9869 370.761 82.5819 370.591 83.2619 370.591C83.7919 370.591 84.2719 370.701 84.7019 370.921C85.1419 371.131 85.4719 371.421 85.6919 371.791V368.071ZM85.5269 376.306C85.7169 375.856 85.8119 375.336 85.8119 374.746C85.8119 374.146 85.7169 373.621 85.5269 373.171C85.3469 372.721 85.0819 372.376 84.7319 372.136C84.3919 371.886 83.9919 371.761 83.5319 371.761C82.8319 371.761 82.2769 372.031 81.8669 372.571C81.4569 373.111 81.2519 373.836 81.2519 374.746C81.2519 375.646 81.4569 376.361 81.8669 376.891C82.2769 377.411 82.8319 377.671 83.5319 377.671C83.9919 377.671 84.3919 377.556 84.7319 377.326C85.0819 377.086 85.3469 376.746 85.5269 376.306Z" fill="#BCBCB8"/>
<path d="M77.9953 370.771V378.721H76.7053V370.771H77.9953ZM78.0253 368.071V369.526H76.6753V368.071H78.0253Z" fill="#BCBCB8"/>
<path d="M71.4472 378.901C70.7172 378.901 70.0772 378.731 69.5272 378.391C68.9772 378.051 68.5522 377.571 68.2522 376.951C67.9522 376.321 67.8022 375.586 67.8022 374.746C67.8022 373.906 67.9522 373.176 68.2522 372.556C68.5522 371.926 68.9772 371.441 69.5272 371.101C70.0772 370.761 70.7172 370.591 71.4472 370.591C72.1772 370.591 72.8172 370.761 73.3672 371.101C73.9172 371.441 74.3422 371.926 74.6422 372.556C74.9422 373.176 75.0922 373.906 75.0922 374.746C75.0922 375.586 74.9422 376.321 74.6422 376.951C74.3422 377.571 73.9172 378.051 73.3672 378.391C72.8172 378.731 72.1772 378.901 71.4472 378.901ZM71.4472 377.671C72.1772 377.671 72.7422 377.416 73.1422 376.906C73.5422 376.386 73.7422 375.666 73.7422 374.746C73.7422 373.826 73.5422 373.111 73.1422 372.601C72.7422 372.081 72.1772 371.821 71.4472 371.821C70.7172 371.821 70.1522 372.081 69.7522 372.601C69.3522 373.111 69.1522 373.826 69.1522 374.746C69.1522 375.666 69.3522 376.386 69.7522 376.906C70.1522 377.416 70.7172 377.671 71.4472 377.671Z" fill="#BCBCB8"/>
<path d="M64.2953 370.771L64.3553 372.841L64.2353 372.721C64.3253 372.041 64.5253 371.546 64.8353 371.236C65.1553 370.926 65.6153 370.771 66.2153 370.771H66.9953V371.911H66.2153C65.8153 371.911 65.4803 371.991 65.2103 372.151C64.9503 372.301 64.7553 372.531 64.6253 372.841C64.5053 373.141 64.4453 373.521 64.4453 373.981V378.721H63.1553V370.771H64.2953Z" fill="#BCBCB8"/>
<path d="M59.6909 368.071H60.9809V378.721H59.8109L59.7659 377.611C59.5459 378.011 59.2109 378.326 58.7609 378.556C58.3109 378.786 57.8109 378.901 57.2609 378.901C56.5809 378.901 55.9859 378.731 55.4759 378.391C54.9659 378.051 54.5759 377.571 54.3059 376.951C54.0359 376.321 53.9009 375.586 53.9009 374.746C53.9009 373.906 54.0359 373.176 54.3059 372.556C54.5759 371.926 54.9659 371.441 55.4759 371.101C55.9859 370.761 56.5809 370.591 57.2609 370.591C57.7909 370.591 58.2709 370.701 58.7009 370.921C59.1409 371.131 59.4709 371.421 59.6909 371.791V368.071ZM59.5259 376.306C59.7159 375.856 59.8109 375.336 59.8109 374.746C59.8109 374.146 59.7159 373.621 59.5259 373.171C59.3459 372.721 59.0809 372.376 58.7309 372.136C58.3909 371.886 57.9909 371.761 57.5309 371.761C56.8309 371.761 56.2759 372.031 55.8659 372.571C55.4559 373.111 55.2509 373.836 55.2509 374.746C55.2509 375.646 55.4559 376.361 55.8659 376.891C56.2759 377.411 56.8309 377.671 57.5309 377.671C57.9909 377.671 58.3909 377.556 58.7309 377.326C59.0809 377.086 59.3459 376.746 59.5259 376.306Z" fill="#BCBCB8"/>
<path d="M47.0548 370.771L47.1148 372.796L46.9498 372.616C47.0898 371.946 47.3898 371.441 47.8498 371.101C48.3198 370.761 48.8798 370.591 49.5298 370.591C50.3998 370.591 51.0648 370.871 51.5248 371.431C51.9848 371.991 52.2148 372.716 52.2148 373.606V378.721H50.9248V373.966C50.9248 373.476 50.8648 373.066 50.7448 372.736C50.6348 372.406 50.4548 372.156 50.2048 371.986C49.9648 371.816 49.6498 371.731 49.2598 371.731C48.6198 371.731 48.1098 371.926 47.7298 372.316C47.3598 372.696 47.1748 373.246 47.1748 373.966V378.721H45.8848V370.771H47.0548Z" fill="#BCBCB8"/>
<path d="M38.7619 368.071H40.5319L44.3719 378.721H42.9319L41.8819 375.706H37.4119L36.3619 378.721H34.9219L38.7619 368.071ZM41.4319 374.416L39.6469 369.226L37.8619 374.416H41.4319Z" fill="#BCBCB8"/>
<rect x="120.292" y="327.844" width="109.417" height="64.625" rx="7.3125" fill="#141413"/>
<rect x="120.292" y="327.844" width="109.417" height="64.625" rx="7.3125" stroke="#222221"/>
<g clip-path="url(#clip0_956_14860)">
<path d="M179.041 352.829C179.048 352.271 179.195 351.723 179.471 351.237C179.746 350.751 180.14 350.342 180.616 350.05C180.313 349.619 179.915 349.264 179.452 349.013C178.99 348.762 178.475 348.621 177.949 348.601C176.812 348.49 175.72 349.27 175.155 349.27C174.59 349.27 173.669 348.616 172.747 348.631C172.128 348.647 171.524 348.824 170.993 349.145C170.463 349.465 170.025 349.918 169.723 350.459C168.437 352.688 169.396 356.002 170.652 357.815C171.261 358.699 171.997 359.695 172.955 359.658C173.914 359.621 174.233 359.064 175.348 359.064C176.463 359.064 176.782 359.658 177.756 359.643C178.729 359.628 179.383 358.737 179.985 357.852C180.42 357.221 180.763 356.53 181.003 355.801C180.42 355.553 179.923 355.139 179.574 354.611C179.226 354.082 179.04 353.462 179.041 352.829Z" stroke="#B0CB01" stroke-width="0.999641" stroke-linecap="round" stroke-linejoin="round"/>
<path d="M177.725 345.118C178.352 344.377 178.664 343.419 178.594 342.451C177.642 342.54 176.761 342.992 176.134 343.714C175.819 344.069 175.58 344.485 175.431 344.936C175.281 345.387 175.225 345.864 175.265 346.337C175.741 346.336 176.21 346.225 176.637 346.014C177.063 345.803 177.435 345.496 177.725 345.118Z" stroke="#B0CB01" stroke-width="0.999641" stroke-linecap="round" stroke-linejoin="round"/>
</g>
<path d="M179.993 375.226C180.093 375.706 180.268 376.126 180.518 376.486C180.768 376.846 181.098 377.126 181.508 377.326C181.918 377.516 182.398 377.611 182.948 377.611C183.408 377.611 183.803 377.551 184.133 377.431C184.473 377.311 184.733 377.136 184.913 376.906C185.103 376.666 185.198 376.376 185.198 376.036C185.198 375.506 184.958 375.066 184.478 374.716C183.998 374.356 183.223 374.041 182.153 373.771C181.163 373.521 180.363 373.156 179.753 372.676C179.143 372.196 178.838 371.556 178.838 370.756C178.838 370.166 178.983 369.651 179.273 369.211C179.573 368.771 179.983 368.431 180.503 368.191C181.033 367.951 181.638 367.831 182.318 367.831C183.068 367.831 183.733 367.976 184.313 368.266C184.903 368.556 185.368 368.956 185.708 369.466C186.058 369.976 186.273 370.561 186.353 371.221L184.973 371.311C184.913 370.871 184.763 370.486 184.523 370.156C184.283 369.826 183.973 369.571 183.593 369.391C183.213 369.211 182.783 369.121 182.303 369.121C181.693 369.121 181.193 369.271 180.803 369.571C180.413 369.861 180.218 370.256 180.218 370.756C180.218 371.136 180.343 371.451 180.593 371.701C180.843 371.941 181.138 372.131 181.478 372.271C181.828 372.401 182.288 372.546 182.858 372.706L183.098 372.766C184.158 373.066 185.003 373.471 185.633 373.981C186.263 374.491 186.578 375.131 186.578 375.901C186.578 376.531 186.403 377.076 186.053 377.536C185.713 377.986 185.258 378.326 184.688 378.556C184.118 378.786 183.503 378.901 182.843 378.901C182.073 378.901 181.378 378.756 180.758 378.466C180.138 378.166 179.638 377.746 179.258 377.206C178.888 376.656 178.673 376.026 178.613 375.316L179.993 375.226Z" fill="#BCBCB8"/>
<path d="M172.118 378.961C171.108 378.961 170.238 378.741 169.508 378.301C168.778 377.851 168.218 377.211 167.828 376.381C167.438 375.541 167.243 374.551 167.243 373.411C167.243 372.261 167.438 371.271 167.828 370.441C168.218 369.601 168.778 368.956 169.508 368.506C170.238 368.056 171.108 367.831 172.118 367.831C173.128 367.831 173.998 368.056 174.728 368.506C175.458 368.956 176.018 369.601 176.408 370.441C176.798 371.271 176.993 372.261 176.993 373.411C176.993 374.551 176.798 375.541 176.408 376.381C176.018 377.211 175.458 377.851 174.728 378.301C173.998 378.741 173.128 378.961 172.118 378.961ZM172.118 377.671C172.838 377.671 173.458 377.501 173.978 377.161C174.508 376.821 174.913 376.331 175.193 375.691C175.473 375.051 175.613 374.291 175.613 373.411C175.613 372.521 175.473 371.756 175.193 371.116C174.913 370.476 174.508 369.986 173.978 369.646C173.458 369.296 172.838 369.121 172.118 369.121C171.398 369.121 170.773 369.296 170.243 369.646C169.723 369.986 169.323 370.476 169.043 371.116C168.763 371.756 168.623 372.521 168.623 373.411C168.623 374.291 168.763 375.051 169.043 375.691C169.323 376.331 169.723 376.821 170.243 377.161C170.773 377.501 171.398 377.671 172.118 377.671Z" fill="#BCBCB8"/>
<path d="M165.526 370.771V378.721H164.236V370.771H165.526ZM165.556 368.071V369.526H164.206V368.071H165.556Z" fill="#BCBCB8"/>
<rect x="233.833" y="327.844" width="109.417" height="64.625" rx="7.3125" fill="#141413"/>
<rect x="233.833" y="327.844" width="109.417" height="64.625" rx="7.3125" stroke="#222221"/>
<path d="M294.899 343.157H281.136C280.336 343.157 279.687 343.806 279.687 344.606V356.196C279.687 356.996 280.336 357.645 281.136 357.645H294.899C295.699 357.645 296.348 356.996 296.348 356.196V344.606C296.348 343.806 295.699 343.157 294.899 343.157Z" stroke="#B0CB01" stroke-width="0.833034" stroke-linecap="round" stroke-linejoin="round"/>
<path d="M279.687 345.97H296.348" stroke="#B0CB01" stroke-width="0.833034" stroke-linecap="round" stroke-linejoin="round"/>
<path d="M281.743 345.395C281.643 345.395 281.562 345.314 281.562 345.214C281.562 345.114 281.643 345.032 281.743 345.032" stroke="#B0CB01" stroke-width="0.833034"/>
<path d="M281.562 345.395C281.662 345.395 281.743 345.314 281.743 345.214C281.743 345.114 281.662 345.032 281.562 345.032" stroke="#B0CB01" stroke-width="0.833034"/>
<path d="M283.618 345.395C283.518 345.395 283.437 345.314 283.437 345.214C283.437 345.114 283.518 345.032 283.618 345.032" stroke="#B0CB01" stroke-width="0.833034"/>
<path d="M285.312 345.395C285.412 345.395 285.493 345.314 285.493 345.214C285.493 345.114 285.412 345.032 285.312 345.032" stroke="#B0CB01" stroke-width="0.833034"/>
<path d="M286.431 345.395C286.331 345.395 286.25 345.314 286.25 345.214C286.25 345.114 286.331 345.032 286.431 345.032" stroke="#B0CB01" stroke-width="0.833034"/>
<path d="M286.25 345.395C286.35 345.395 286.431 345.314 286.431 345.214C286.431 345.114 286.35 345.032 286.25 345.032" stroke="#B0CB01" stroke-width="0.833034"/>
<path d="M282.5 350.657L284.375 352.468L282.5 354.279" stroke="#B0CB01" stroke-width="0.833034" stroke-linecap="round" stroke-linejoin="round"/>
<path d="M288.125 352.532H291.022" stroke="#B0CB01" stroke-width="0.833034" stroke-linecap="round" stroke-linejoin="round"/>
<path d="M297.177 368.438V372.158C297.397 371.788 297.722 371.498 298.152 371.288C298.592 371.068 299.077 370.958 299.607 370.958C300.287 370.958 300.882 371.128 301.392 371.468C301.902 371.808 302.292 372.293 302.562 372.923C302.832 373.543 302.967 374.273 302.967 375.113C302.967 375.953 302.832 376.688 302.562 377.318C302.292 377.938 301.902 378.418 301.392 378.758C300.882 379.098 300.287 379.268 299.607 379.268C299.057 379.268 298.557 379.153 298.107 378.923C297.657 378.693 297.322 378.378 297.102 377.978L297.057 379.088H295.887V368.438H297.177ZM297.057 375.113C297.057 375.703 297.147 376.223 297.327 376.673C297.517 377.113 297.782 377.453 298.122 377.693C298.472 377.923 298.877 378.038 299.337 378.038C300.037 378.038 300.592 377.778 301.002 377.258C301.412 376.728 301.617 376.013 301.617 375.113C301.617 374.203 301.412 373.478 301.002 372.938C300.592 372.398 300.037 372.128 299.337 372.128C298.877 372.128 298.472 372.253 298.122 372.503C297.782 372.743 297.517 373.088 297.327 373.538C297.147 373.988 297.057 374.513 297.057 375.113Z" fill="#BCBCB8"/>
<path d="M287.16 375.113C287.16 374.273 287.31 373.543 287.61 372.923C287.91 372.293 288.335 371.808 288.885 371.468C289.435 371.128 290.075 370.958 290.805 370.958C291.415 370.958 291.97 371.098 292.47 371.378C292.98 371.648 293.395 372.083 293.715 372.683C294.035 373.273 294.215 374.023 294.255 374.933L294.27 375.518H288.525C288.585 376.318 288.81 376.938 289.2 377.378C289.6 377.818 290.135 378.038 290.805 378.038C291.235 378.038 291.625 377.923 291.975 377.693C292.325 377.463 292.59 377.143 292.77 376.733L294.15 376.838C293.92 377.578 293.495 378.168 292.875 378.608C292.265 379.048 291.575 379.268 290.805 379.268C290.075 379.268 289.435 379.098 288.885 378.758C288.335 378.418 287.91 377.938 287.61 377.318C287.31 376.688 287.16 375.953 287.16 375.113ZM292.86 374.378C292.75 373.608 292.51 373.053 292.14 372.713C291.77 372.363 291.325 372.188 290.805 372.188C290.185 372.188 289.68 372.378 289.29 372.758C288.91 373.138 288.665 373.678 288.555 374.378H292.86Z" fill="#BCBCB8"/>
<path d="M275.275 368.438L277.435 377.273L279.61 368.438H281.095L283.285 377.273L285.43 368.438H286.885L284.095 379.088H282.445L280.36 371.123L278.275 379.088H276.625L273.835 368.438H275.275Z" fill="#BCBCB8"/>
<path d="M72.6455 307.664L72.6455 305.438C72.6455 300.824 76.3973 297.088 81.0121 297.108L146.972 297.395C151.586 297.415 155.338 293.68 155.338 289.065L155.338 274.935" stroke="#DBFE01" stroke-width="1.5" stroke-linecap="square" stroke-dasharray="2.78 2.78"/>
<path d="M274.099 307.664L274.099 305.439C274.099 300.824 270.346 297.088 265.731 297.109L201.548 297.394C196.932 297.415 193.18 293.679 193.18 289.064L193.18 274.935" stroke="#DBFE01" stroke-width="1.5" stroke-linecap="square" stroke-dasharray="2.78 2.78"/>
<path d="M174.332 273.139C174.332 279.866 174.332 283.637 174.332 290.364L174.332 308.303" stroke="#DBFE01" stroke-width="1.5" stroke-linecap="square" stroke-dasharray="2.78 2.78"/>
<path d="M155.338 280.223L155.338 269.29M161.325 274.366L155.555 268.595L149.784 274.366" stroke="#DBFE01" stroke-width="1.5" stroke-linecap="square"/>
<path d="M174.331 280.738L174.331 269.804M180.117 274.935L174.346 269.165L168.576 274.935" stroke="#DBFE01" stroke-width="1.5" stroke-linecap="square"/>
<path d="M193.172 280.722L193.172 269.788M198.958 274.919L193.187 269.149L187.417 274.919" stroke="#DBFE01" stroke-width="1.5" stroke-linecap="square"/>
<path d="M72.6456 308.297L72.6456 319.23M78.4307 314.099L72.6602 319.869L66.8896 314.099" stroke="#DBFE01" stroke-width="1.5" stroke-linecap="square"/>
<path d="M174.332 308.297L174.332 319.23M180.117 314.099L174.346 319.869L168.576 314.099" stroke="#DBFE01" stroke-width="1.5" stroke-linecap="square"/>
<path d="M274.084 308.297L274.084 319.23M279.869 314.099L274.099 319.869L268.328 314.099" stroke="#DBFE01" stroke-width="1.5" stroke-linecap="square"/>
<g filter="url(#filter0_ddd_956_14860)">
<g clip-path="url(#clip1_956_14860)">
<rect x="65.7031" y="178.125" width="214.688" height="80.625" rx="9.99642" fill="#DBFE01"/>
<g opacity="0.4">
<line x1="156.309" y1="383.017" x2="7.15381" y2="233.862" stroke="#B0CB01" stroke-width="1.2"/>
<line x1="158.961" y1="380.365" x2="9.80567" y2="231.21" stroke="#B0CB01" stroke-width="1.2"/>
<line x1="161.612" y1="377.714" x2="12.457" y2="228.558" stroke="#B0CB01" stroke-width="1.2"/>
<line x1="164.264" y1="375.062" x2="15.1089" y2="225.907" stroke="#B0CB01" stroke-width="1.2"/>
<line x1="166.916" y1="372.41" x2="17.7603" y2="223.255" stroke="#B0CB01" stroke-width="1.2"/>
<line x1="169.567" y1="369.759" x2="20.4121" y2="220.604" stroke="#B0CB01" stroke-width="1.2"/>
<line x1="172.219" y1="367.107" x2="23.064" y2="217.952" stroke="#B0CB01" stroke-width="1.2"/>
<line x1="174.871" y1="364.456" x2="25.7153" y2="215.3" stroke="#B0CB01" stroke-width="1.2"/>
<line x1="177.523" y1="361.804" x2="28.3672" y2="212.649" stroke="#B0CB01" stroke-width="1.2"/>
<line x1="180.174" y1="359.152" x2="31.0186" y2="209.997" stroke="#B0CB01" stroke-width="1.2"/>
<line x1="182.826" y1="356.501" x2="33.6704" y2="207.345" stroke="#B0CB01" stroke-width="1.2"/>
<line x1="185.478" y1="353.849" x2="36.3223" y2="204.693" stroke="#B0CB01" stroke-width="1.2"/>
<line x1="188.129" y1="351.197" x2="38.9736" y2="202.042" stroke="#B0CB01" stroke-width="1.2"/>
<line x1="190.781" y1="348.546" x2="41.6255" y2="199.39" stroke="#B0CB01" stroke-width="1.2"/>
<line x1="193.432" y1="345.894" x2="44.2769" y2="196.739" stroke="#B0CB01" stroke-width="1.2"/>
<line x1="196.084" y1="343.242" x2="46.9287" y2="194.087" stroke="#B0CB01" stroke-width="1.2"/>
<line x1="198.735" y1="340.591" x2="49.5801" y2="191.435" stroke="#B0CB01" stroke-width="1.2"/>
<line x1="201.387" y1="337.939" x2="52.2319" y2="188.784" stroke="#B0CB01" stroke-width="1.2"/>
<line x1="204.039" y1="335.288" x2="54.8838" y2="186.132" stroke="#B0CB01" stroke-width="1.2"/>
<line x1="206.69" y1="332.636" x2="57.5352" y2="183.48" stroke="#B0CB01" stroke-width="1.2"/>
<line x1="209.342" y1="329.984" x2="60.187" y2="180.829" stroke="#B0CB01" stroke-width="1.2"/>
<line x1="211.994" y1="327.332" x2="62.8384" y2="178.177" stroke="#B0CB01" stroke-width="1.2"/>
<line x1="214.646" y1="324.681" x2="65.4902" y2="175.526" stroke="#B0CB01" stroke-width="1.2"/>
<line x1="217.297" y1="322.029" x2="68.1416" y2="172.874" stroke="#B0CB01" stroke-width="1.2"/>
<line x1="219.949" y1="319.378" x2="70.7935" y2="170.222" stroke="#B0CB01" stroke-width="1.2"/>
<line x1="222.601" y1="316.726" x2="73.4453" y2="167.57" stroke="#B0CB01" stroke-width="1.2"/>
<line x1="225.252" y1="314.074" x2="76.0967" y2="164.919" stroke="#B0CB01" stroke-width="1.2"/>
<line x1="227.904" y1="311.423" x2="78.7485" y2="162.267" stroke="#B0CB01" stroke-width="1.2"/>
<line x1="230.555" y1="308.771" x2="81.3999" y2="159.616" stroke="#B0CB01" stroke-width="1.2"/>
<line x1="233.207" y1="306.119" x2="84.0518" y2="156.964" stroke="#B0CB01" stroke-width="1.2"/>
<line x1="235.859" y1="303.467" x2="86.7036" y2="154.312" stroke="#B0CB01" stroke-width="1.2"/>
<line x1="238.51" y1="300.816" x2="89.355" y2="151.661" stroke="#B0CB01" stroke-width="1.2"/>
<line x1="241.162" y1="298.164" x2="92.0068" y2="149.009" stroke="#B0CB01" stroke-width="1.2"/>
<line x1="243.814" y1="295.513" x2="94.6582" y2="146.357" stroke="#B0CB01" stroke-width="1.2"/>
<line x1="246.465" y1="292.861" x2="97.3101" y2="143.706" stroke="#B0CB01" stroke-width="1.2"/>
<line x1="249.117" y1="290.209" x2="99.9614" y2="141.054" stroke="#B0CB01" stroke-width="1.2"/>
<line x1="251.769" y1="287.558" x2="102.613" y2="138.402" stroke="#B0CB01" stroke-width="1.2"/>
<line x1="254.42" y1="284.906" x2="105.265" y2="135.751" stroke="#B0CB01" stroke-width="1.2"/>
<line x1="257.072" y1="282.254" x2="107.917" y2="133.099" stroke="#B0CB01" stroke-width="1.2"/>
<line x1="259.724" y1="279.603" x2="110.568" y2="130.447" stroke="#B0CB01" stroke-width="1.2"/>
<line x1="262.375" y1="276.951" x2="113.22" y2="127.796" stroke="#B0CB01" stroke-width="1.2"/>
<line x1="265.027" y1="274.3" x2="115.872" y2="125.144" stroke="#B0CB01" stroke-width="1.2"/>
<line x1="267.678" y1="271.648" x2="118.523" y2="122.492" stroke="#B0CB01" stroke-width="1.2"/>
<line x1="270.33" y1="268.996" x2="121.175" y2="119.841" stroke="#B0CB01" stroke-width="1.2"/>
<line x1="272.982" y1="266.344" x2="123.827" y2="117.189" stroke="#B0CB01" stroke-width="1.2"/>
<line x1="275.633" y1="263.693" x2="126.478" y2="114.537" stroke="#B0CB01" stroke-width="1.2"/>
<line x1="278.285" y1="261.041" x2="129.13" y2="111.886" stroke="#B0CB01" stroke-width="1.2"/>
<line x1="280.937" y1="258.39" x2="131.781" y2="109.234" stroke="#B0CB01" stroke-width="1.2"/>
<line x1="283.588" y1="255.738" x2="134.433" y2="106.582" stroke="#B0CB01" stroke-width="1.2"/>
<line x1="286.24" y1="253.086" x2="137.084" y2="103.931" stroke="#B0CB01" stroke-width="1.2"/>
<line x1="288.892" y1="250.435" x2="139.736" y2="101.279" stroke="#B0CB01" stroke-width="1.2"/>
<line x1="291.544" y1="247.783" x2="142.388" y2="98.6276" stroke="#B0CB01" stroke-width="1.2"/>
<line x1="294.195" y1="245.131" x2="145.04" y2="95.976" stroke="#B0CB01" stroke-width="1.2"/>
<line x1="296.847" y1="242.48" x2="147.691" y2="93.3243" stroke="#B0CB01" stroke-width="1.2"/>
<line x1="299.499" y1="239.828" x2="150.343" y2="90.6727" stroke="#B0CB01" stroke-width="1.2"/>
<line x1="302.15" y1="237.176" x2="152.995" y2="88.0209" stroke="#B0CB01" stroke-width="1.2"/>
<line x1="304.802" y1="234.525" x2="155.646" y2="85.3695" stroke="#B0CB01" stroke-width="1.2"/>
<line x1="307.453" y1="231.873" x2="158.298" y2="82.7177" stroke="#B0CB01" stroke-width="1.2"/>
<line x1="310.105" y1="229.221" x2="160.95" y2="80.066" stroke="#B0CB01" stroke-width="1.2"/>
<line x1="312.756" y1="226.57" x2="163.601" y2="77.4144" stroke="#B0CB01" stroke-width="1.2"/>
<line x1="315.408" y1="223.918" x2="166.253" y2="74.7628" stroke="#B0CB01" stroke-width="1.2"/>
<line x1="318.06" y1="221.266" x2="168.904" y2="72.111" stroke="#B0CB01" stroke-width="1.2"/>
<line x1="320.711" y1="218.615" x2="171.556" y2="69.4594" stroke="#B0CB01" stroke-width="1.2"/>
<line x1="323.363" y1="215.963" x2="174.208" y2="66.8077" stroke="#B0CB01" stroke-width="1.2"/>
<line x1="326.015" y1="213.311" x2="176.859" y2="64.1561" stroke="#B0CB01" stroke-width="1.2"/>
<line x1="328.667" y1="210.66" x2="179.511" y2="61.5045" stroke="#B0CB01" stroke-width="1.2"/>
<line x1="331.318" y1="208.008" x2="182.163" y2="58.8529" stroke="#B0CB01" stroke-width="1.2"/>
</g>
<path fill-rule="evenodd" clip-rule="evenodd" d="M115.773 213.916C114.784 213.083 114.725 211.595 115.644 210.687L117.046 209.304C117.952 208.41 119.433 208.452 120.286 209.396L121.518 210.76C123.418 212.863 126.75 212.863 128.65 210.76L129.882 209.396C130.735 208.452 132.217 208.41 133.123 209.304L134.524 210.687C135.444 211.595 135.384 213.083 134.395 213.916L133.309 214.831C130.925 216.839 130.925 220.474 133.309 222.482L134.395 223.397C135.384 224.23 135.444 225.718 134.524 226.626L133.159 227.973C132.24 228.88 130.732 228.822 129.887 227.845L128.718 226.493C126.811 224.287 123.358 224.287 121.451 226.493L120.281 227.845C119.437 228.822 117.929 228.88 117.009 227.973L115.644 226.626C114.725 225.718 114.784 224.23 115.773 223.397L117.002 222.362C119.311 220.417 119.311 216.896 117.002 214.951L115.773 213.916Z" fill="#191918"/>
<path d="M224.765 228.974C221.448 228.974 218.933 227.469 218.88 224.381L222.919 224.196C222.919 225.041 223.454 225.753 224.685 225.753C225.514 225.753 226.076 225.305 226.076 224.697C226.076 222.902 220.11 222.849 220.11 219.048C220.11 216.487 222.277 214.771 225.514 214.771C228.564 214.771 231.051 216.276 231.105 219.233L227.039 219.391C227.012 218.441 226.45 217.992 225.514 217.992C224.926 217.992 224.31 218.282 224.31 218.916C224.31 220.658 230.356 220.526 230.356 224.381C230.356 227.205 228.055 228.974 224.765 228.974Z" fill="#141413"/>
<path d="M216.28 213.148C215.023 213.148 214.113 212.25 214.113 211.062C214.113 209.716 215.264 208.66 216.681 208.66C217.939 208.66 218.848 209.557 218.848 210.745C218.848 212.065 217.698 213.148 216.28 213.148ZM210.395 233.027C209.539 233.027 208.656 232.868 207.88 232.499L208.496 228.988C208.763 229.146 209.084 229.278 209.619 229.278C210.582 229.278 211.224 228.697 211.411 227.562L213.685 214.679H217.912L215.504 228.301C214.969 231.311 212.963 233.027 210.395 233.027Z" fill="#141413"/>
<path d="M206.407 228.026C205.123 228.026 204.213 227.075 204.213 225.834C204.213 224.435 205.39 223.326 206.835 223.326C208.092 223.326 208.975 224.25 208.975 225.491C208.975 226.917 207.825 228.026 206.407 228.026Z" fill="#141413"/>
<path d="M203.671 221.001C203.671 221.793 203.564 222.48 203.323 223.166H193.559C193.827 224.513 194.817 225.463 196.315 225.463C197.438 225.463 198.321 224.909 198.642 224.513L202.922 224.697C201.986 226.704 199.498 228.974 196.101 228.974C192.436 228.974 189.547 226.229 189.547 222.48C189.547 218.599 192.864 214.771 197.358 214.771C200.836 214.771 203.671 217.358 203.671 221.001ZM197.01 218.229C195.539 218.229 194.362 219.233 193.827 220.579H199.766C199.605 219.391 198.749 218.229 197.01 218.229Z" fill="#141413"/>
<path d="M181.988 228.974C178.671 228.974 176.156 227.469 176.103 224.381L180.142 224.196C180.142 225.041 180.677 225.753 181.907 225.753C182.737 225.753 183.298 225.305 183.298 224.697C183.298 222.902 177.333 222.849 177.333 219.048C177.333 216.487 179.5 214.771 182.737 214.771C185.786 214.771 188.274 216.276 188.328 219.233L184.261 219.391C184.235 218.441 183.673 217.992 182.737 217.992C182.148 217.992 181.533 218.282 181.533 218.916C181.533 220.658 187.579 220.526 187.579 224.381C187.579 227.205 185.278 228.974 181.988 228.974Z" fill="#141413"/>
<path d="M166.378 228.605C162.74 228.605 160.921 225.859 161.563 222.321L162.901 214.771H167.127L165.816 222.057C165.602 223.377 166.351 224.75 167.983 224.75C169.241 224.75 170.284 223.773 170.498 222.427L171.835 214.771H176.062L173.681 228.235H170.578L170.177 226.994H170.043C169.321 227.865 168.037 228.605 166.378 228.605Z" fill="#141413"/>
<path d="M161.945 209.882L161.223 214.079H152.636L151.967 217.907H159.297L158.574 221.92H151.245L150.094 228.362H145.547L148.837 209.882H161.945Z" fill="#141413"/>
</g>
<rect x="66.3031" y="178.725" width="213.488" height="79.425" rx="9.39642" stroke="#B0CB01" stroke-width="1.2"/>
</g>
<rect width="1.5625" height="103.125" transform="matrix(-4.37114e-08 1 1 4.37114e-08 117.969 157.031)" fill="#1A1A19"/>
<line x1="117.265" y1="157.824" x2="226.406" y2="157.824" stroke="url(#paint1_linear_956_14860)" stroke-width="1.5625" stroke-dasharray="3.12 3.12"/>
<path d="M72.6455 123.586L72.6455 125.925C72.6455 130.54 76.3975 134.276 81.0125 134.255L146.971 133.965C151.586 133.945 155.338 137.68 155.338 142.295L155.338 156.666" stroke="#92928C" stroke-width="1.5" stroke-linecap="square" stroke-dasharray="2.78 2.78"/>
<path d="M274.849 123.586L274.849 122.836L273.349 122.836L273.349 123.586L274.849 123.586ZM265.731 134.254L265.727 135.004L265.731 134.254ZM201.548 133.966L201.551 133.216L201.548 133.966ZM273.349 123.586L273.349 124.171L274.849 124.171L274.849 123.586L273.349 123.586ZM273.349 125.34L273.349 125.924L274.849 125.924L274.849 125.34L273.349 125.34ZM273.349 125.924C273.349 126.433 273.299 126.929 273.204 127.409L274.675 127.701C274.789 127.126 274.849 126.532 274.849 125.924L273.349 125.924ZM272.065 130.146C271.509 130.974 270.793 131.687 269.962 132.24L270.793 133.489C271.787 132.827 272.644 131.974 273.31 130.983L272.065 130.146ZM267.219 133.366C266.739 133.459 266.243 133.507 265.734 133.505L265.727 135.004C266.335 135.007 266.929 134.95 267.505 134.839L267.219 133.366ZM265.734 133.505L264.397 133.498L264.39 134.998L265.727 135.004L265.734 133.505ZM261.723 133.486L259.048 133.474L259.042 134.974L261.716 134.986L261.723 133.486ZM256.374 133.462L253.7 133.45L253.693 134.95L256.367 134.962L256.374 133.462ZM251.026 133.438L248.351 133.426L248.345 134.926L251.019 134.938L251.026 133.438ZM245.677 133.414L243.003 133.402L242.996 134.902L245.67 134.914L245.677 133.414ZM240.329 133.39L237.654 133.378L237.647 134.878L240.322 134.89L240.329 133.39ZM234.98 133.366L232.306 133.354L232.299 134.854L234.973 134.866L234.98 133.366ZM229.631 133.342L226.957 133.33L226.95 134.83L229.625 134.842L229.631 133.342ZM224.283 133.318L221.609 133.306L221.602 134.806L224.276 134.818L224.283 133.318ZM218.934 133.294L216.26 133.282L216.253 134.782L218.928 134.794L218.934 133.294ZM213.586 133.27L210.911 133.258L210.905 134.758L213.579 134.77L213.586 133.27ZM208.237 133.246L205.563 133.234L205.556 134.734L208.23 134.746L208.237 133.246ZM202.889 133.222L201.551 133.216L201.545 134.716L202.882 134.722L202.889 133.222ZM201.551 133.216C200.944 133.213 200.35 133.27 199.774 133.382L200.06 134.854C200.539 134.761 201.036 134.714 201.545 134.716L201.551 133.216ZM196.486 134.732C195.492 135.393 194.635 136.246 193.969 137.238L195.214 138.074C195.77 137.246 196.486 136.533 197.317 135.98L196.486 134.732ZM192.604 140.52C192.49 141.095 192.43 141.689 192.43 142.296L193.93 142.296C193.93 141.787 193.98 141.291 194.075 140.812L192.604 140.52ZM192.43 142.296L192.43 143.494L193.93 143.494L193.93 142.296L192.43 142.296ZM192.43 145.889L192.43 148.284L193.93 148.284L193.93 145.889L192.43 145.889ZM192.43 150.678L192.43 153.073L193.93 153.073L193.93 150.678L192.43 150.678ZM192.43 155.468L192.43 156.666L193.93 156.666L193.93 155.468L192.43 155.468Z" fill="#92928C"/>
<path d="M174.332 157.155C174.332 150.611 174.332 146.942 174.332 140.398L174.332 122.947" stroke="#92928C" stroke-width="1.5" stroke-linecap="square" stroke-dasharray="2.78 2.78"/>
<path d="M155.332 157.624L155.332 168.557M161.117 163.426L155.347 169.197L149.576 163.426" stroke="#92928C" stroke-width="1.5" stroke-linecap="square"/>
<path d="M174.327 157.624L174.327 168.557M180.112 163.426L174.341 169.197L168.571 163.426" stroke="#92928C" stroke-width="1.5" stroke-linecap="square"/>
<path d="M193.165 157.624L193.165 168.557M198.951 163.426L193.18 169.197L187.41 163.426" stroke="#92928C" stroke-width="1.5" stroke-linecap="square"/>
<path d="M72.631 122.947L72.631 112.014M78.416 117.145L72.6455 111.374L66.875 117.145" stroke="#92928C" stroke-width="1.5" stroke-linecap="square"/>
<path d="M174.332 122.947L174.332 112.014M180.117 117.145L174.346 111.375L168.576 117.145" stroke="#92928C" stroke-width="1.5" stroke-linecap="square"/>
<path d="M274.084 122.947L274.084 112.014M279.869 117.145L274.099 111.374L268.328 117.145" stroke="#92928C" stroke-width="1.5" stroke-linecap="square"/>
<rect x="0.694196" y="29.6004" width="348.612" height="73.6116" rx="11.8058" fill="#141413"/>
<rect x="0.694196" y="29.6004" width="348.612" height="73.6116" rx="11.8058" stroke="#222221" stroke-width="1.38839" stroke-dasharray="2.78 2.78"/>
<rect x="5.1875" y="34.0938" width="110.458" height="64.625" rx="7.3125" fill="#191918"/>
<rect x="5.1875" y="34.0938" width="110.458" height="64.625" rx="7.3125" stroke="#222221"/>
<path d="M41.3151 73.6737C41.6853 74.1533 42.1664 74.5412 42.7194 74.8059C43.3175 75.0944 43.9774 75.2402 44.6448 75.2314C45.1844 75.2452 45.7215 75.156 46.2259 74.9688C46.6293 74.8145 46.9894 74.5693 47.2768 74.2534C47.5465 73.9456 47.7434 73.5838 47.8535 73.1937C47.9736 72.772 48.033 72.3362 48.0301 71.8986V70.3771H47.9931C47.6433 70.9169 47.1388 71.3451 46.5419 71.6089C45.9728 71.8501 45.3584 71.9735 44.7377 71.9711C44.1295 71.9756 43.5261 71.8648 42.9613 71.6451C42.4265 71.4383 41.9372 71.134 41.5196 70.7484C41.1053 70.3611 40.7762 69.8958 40.5523 69.3807C40.3141 68.837 40.1937 68.2511 40.1989 67.66C40.1938 67.0706 40.3076 66.4859 40.5338 65.9392C40.7477 65.4219 41.0601 64.9487 41.4545 64.5445C41.8489 64.1436 42.3238 63.826 42.8497 63.6116C43.4124 63.3838 44.0168 63.2698 44.6262 63.2765C44.9036 63.2781 45.1805 63.3023 45.4538 63.3489C45.7544 63.4 46.0478 63.4852 46.3281 63.6026C46.9936 63.8834 47.5688 64.3341 47.9931 64.9069H48.0301V63.4939H49.258V71.8986C49.2538 72.3925 49.1945 72.8844 49.0812 73.3658C48.9627 73.8862 48.7277 74.3748 48.393 74.7967C48.0122 75.2621 47.5248 75.6344 46.9699 75.8837C46.3622 76.1734 45.5685 76.3182 44.5888 76.3182C43.793 76.3314 43.0025 76.1898 42.2637 75.9017C41.5568 75.6068 40.9227 75.1684 40.4037 74.6158L41.3151 73.6737ZM41.5382 67.6239C41.5352 68.0556 41.6206 68.4835 41.7894 68.8827C41.9504 69.2657 42.1838 69.6159 42.4775 69.9151C42.7695 70.2116 43.1167 70.4514 43.5007 70.6216C43.9006 70.7986 44.3356 70.8883 44.7749 70.8842C45.6449 70.8873 46.4833 70.5666 47.1186 69.9877C47.4307 69.701 47.675 69.3517 47.8349 68.9641C48.0072 68.5379 48.0864 68.0815 48.0675 67.6239C48.0706 67.1946 47.995 66.7683 47.8442 66.3649C47.7009 65.9815 47.4794 65.6303 47.1931 65.3324C46.8988 65.0305 46.5443 64.7902 46.1514 64.626C45.7164 64.446 45.2475 64.3565 44.7749 64.3633C44.3356 64.3594 43.9007 64.4491 43.5007 64.626C43.1168 64.7964 42.7697 65.0361 42.4775 65.3324C42.1839 65.6317 41.9505 65.9819 41.7893 66.3649C41.6205 66.7641 41.5352 67.1921 41.5382 67.6239ZM54.2616 71.9711H52.9223V59.1465H56.9775C58.3168 59.1465 59.3739 59.4303 60.149 59.9979C60.9239 60.5656 61.3115 61.423 61.3117 62.57C61.3353 63.4026 61.025 64.2114 60.4467 64.8251C59.87 65.435 59.036 65.7882 57.9448 65.8847L61.7395 71.9711H60.1025L56.4939 66.0117H54.2617L54.2616 71.9711ZM54.2616 64.8162H56.6427C57.1543 64.8267 57.6648 64.7656 58.1586 64.635C58.5198 64.5409 58.8581 64.3778 59.1539 64.1551C59.3924 63.9681 59.5781 63.725 59.6932 63.4487C59.8064 63.169 59.8633 62.8707 59.8607 62.57C59.8621 62.2755 59.8052 61.9834 59.6932 61.7097C59.5767 61.4316 59.3915 61.1858 59.1539 60.9942C58.861 60.767 58.5217 60.6034 58.1586 60.5141C57.6637 60.39 57.1537 60.3322 56.6427 60.3421H54.2616V64.8162ZM64.0458 59.1465H67.8779C69.2171 59.1465 70.2742 59.4303 71.0493 59.998C71.8242 60.5657 72.2118 61.4231 72.212 62.5702C72.212 63.7175 71.8244 64.5779 71.0493 65.1513C70.2742 65.7249 69.2171 66.0117 67.8779 66.0117H65.3853V71.9711H64.0458V59.1465ZM65.3854 64.8163H67.5432C68.0548 64.8268 68.5654 64.7657 69.0592 64.6351C69.4204 64.541 69.7587 64.3779 70.0544 64.1552C70.293 63.9682 70.4786 63.7251 70.5938 63.4488C70.707 63.1691 70.7639 62.8708 70.7613 62.5702C70.7627 62.2756 70.7058 61.9835 70.5938 61.7099C70.4773 61.4317 70.292 61.1859 70.0544 60.9943C69.7615 60.7672 69.4222 60.6035 69.0592 60.5143C68.5642 60.3902 68.0542 60.3323 67.5432 60.3422H65.3853L65.3854 64.8163ZM85.6606 69.9424C85.4249 70.2824 85.147 70.5927 84.8331 70.8662C84.4932 71.1635 84.1149 71.4162 83.7076 71.6178C83.2728 71.834 82.8142 72.0011 82.3405 72.1161C81.8324 72.2389 81.3105 72.2997 80.787 72.2971C79.8532 72.3056 78.9269 72.1333 78.0621 71.79C76.4127 71.141 75.1062 69.8655 74.444 68.2578C74.0896 67.4003 73.9126 66.4831 73.9232 65.5588C73.9126 64.6345 74.0896 63.7173 74.444 62.8598C75.1062 61.2521 76.4127 59.9767 78.0621 59.3278C78.9269 58.9845 79.8531 58.8121 80.787 58.8206C81.6287 58.825 82.462 58.9848 83.2425 59.2915C84.0751 59.6159 84.8015 60.1543 85.3444 60.8493L84.1727 61.7007C84.0152 61.4723 83.8276 61.2652 83.6144 61.0848C83.3683 60.8725 83.0967 60.6901 82.8055 60.5414C82.4944 60.3819 82.1671 60.2544 81.8288 60.1611C81.4902 60.0657 81.1395 60.0169 80.787 60.0161C80.0057 60.0036 79.231 60.1582 78.5177 60.469C77.8705 60.7549 77.2911 61.168 76.8158 61.6824C76.3453 62.1983 75.982 62.7982 75.746 63.4487C75.25 64.814 75.25 66.3036 75.746 67.6689C75.982 68.3194 76.3453 68.9192 76.8158 69.4351C77.291 69.9497 77.8704 70.3629 78.5177 70.6487C79.2309 70.9596 80.0056 71.1143 80.787 71.1016C81.1333 71.1018 81.4788 71.0715 81.8195 71.011C82.166 70.949 82.5034 70.8456 82.824 70.7031C83.162 70.5522 83.4753 70.3538 83.7541 70.1143C84.0673 69.8418 84.3397 69.5279 84.5631 69.1816L85.6606 69.9424Z" fill="white"/>
<path d="M38.6436 63.363L35.175 60.0105L38.6179 56.6329L42.0864 59.9855L38.6436 63.363Z" fill="url(#paint2_linear_956_14860)"/>
<path d="M47.9751 61.8496L45.9406 59.8832L47.96 57.9021L49.9945 59.8685L47.9751 61.8496Z" fill="url(#paint3_linear_956_14860)"/>
<path d="M39.1733 58.0699L37.0884 60.1153L39.1888 62.1456L40.9658 62.1392L39.1024 60.3392L48.3038 60.306L47.4974 61.0966L48.3859 61.0934L49.4284 60.0707L48.3781 59.0556L47.4896 59.0588L48.3022 59.8437L39.1007 59.8769L40.9502 58.0635L39.1733 58.0699Z" fill="#244B5A"/>
<rect x="119.771" y="34.0938" width="110.458" height="64.625" rx="7.3125" fill="#191918"/>
<rect x="119.771" y="34.0938" width="110.458" height="64.625" rx="7.3125" stroke="#222221"/>
<path d="M185.414 50.9442V54.2867C185.414 55.0904 185.821 55.4557 186.784 55.4557V57.0996C185.821 57.0996 185.414 57.4649 185.414 58.2685V61.6111C185.414 63.5289 184.377 64.4969 182.359 64.4969H181.286V62.6522H182.211C182.989 62.6522 183.452 62.2321 183.452 61.4101V58.1224C183.452 56.99 184.118 56.4786 184.729 56.2776C184.118 56.0767 183.452 55.5653 183.452 54.4329V51.1452C183.452 50.3232 182.989 49.9031 182.211 49.9031H181.286V48.0583H182.359C184.377 48.0583 185.414 49.0264 185.414 50.9442Z" fill="#51AC9D"/>
<path d="M174.821 53.6878C174.08 53.6878 173.525 53.1216 173.525 52.4092C173.525 51.6969 174.08 51.1489 174.821 51.1489C175.561 51.1489 176.117 51.6969 176.117 52.4092C176.117 53.1216 175.561 53.6878 174.821 53.6878ZM174.821 60.6102C174.08 60.6102 173.525 60.044 173.525 59.3317C173.525 58.6194 174.08 58.0714 174.821 58.0714C175.561 58.0714 176.117 58.6194 176.117 59.3317C176.117 60.044 175.561 60.6102 174.821 60.6102Z" fill="#51AC9D"/>
<path d="M166.189 51.1449V54.4326C166.189 55.5651 165.504 56.0765 164.893 56.2774C165.504 56.4783 166.189 56.9897 166.189 58.1222V61.4099C166.189 62.2318 166.652 62.6519 167.411 62.6519H168.336V64.4967H167.281C165.263 64.4967 164.227 63.5286 164.227 61.6108V58.2683C164.227 57.4646 163.82 57.0993 162.857 57.0993V55.4555C163.82 55.4555 164.227 55.0902 164.227 54.2865V50.944C164.227 49.0262 165.263 48.0581 167.281 48.0581H168.355V49.9029H167.411C166.652 49.9029 166.189 50.323 166.189 51.1449Z" fill="#51AC9D"/>
<path d="M187.129 73.2375V80.8576C187.129 81.1876 187.209 81.4376 187.369 81.6076C187.529 81.7676 187.764 81.8476 188.074 81.8476H189.229V82.9876H188.074C187.354 82.9876 186.799 82.8026 186.409 82.4326C186.029 82.0626 185.839 81.5376 185.839 80.8576V73.2375H187.129ZM189.259 75.0376V76.1776H184.684V75.0376H189.259Z" fill="#BCBCB8"/>
<path d="M182.104 77.4977C182.014 77.0677 181.779 76.7277 181.399 76.4777C181.029 76.2177 180.619 76.0877 180.169 76.0877C179.719 76.0877 179.344 76.1977 179.044 76.4177C178.744 76.6277 178.594 76.9127 178.594 77.2727C178.594 77.6227 178.769 77.8927 179.119 78.0827C179.479 78.2727 179.929 78.4227 180.469 78.5327C181.149 78.6627 181.709 78.8177 182.149 78.9977C182.599 79.1677 182.954 79.4127 183.214 79.7327C183.474 80.0427 183.604 80.4527 183.604 80.9627C183.604 81.4527 183.454 81.8627 183.154 82.1927C182.854 82.5227 182.469 82.7677 181.999 82.9277C181.529 83.0877 181.029 83.1677 180.499 83.1677C179.869 83.1677 179.299 83.0577 178.789 82.8377C178.279 82.6177 177.869 82.3077 177.559 81.9077C177.259 81.4977 177.089 81.0227 177.049 80.4827L178.399 80.3927C178.459 80.7127 178.579 80.9877 178.759 81.2177C178.939 81.4477 179.174 81.6277 179.464 81.7577C179.764 81.8777 180.109 81.9377 180.499 81.9377C180.959 81.9377 181.364 81.8577 181.714 81.6977C182.074 81.5277 182.254 81.2577 182.254 80.8877C182.254 80.6277 182.179 80.4227 182.029 80.2727C181.879 80.1227 181.699 80.0127 181.489 79.9427C181.279 79.8727 180.984 79.7977 180.604 79.7177C180.524 79.7077 180.404 79.6827 180.244 79.6427C179.624 79.5027 179.109 79.3577 178.699 79.2077C178.289 79.0477 177.944 78.8177 177.664 78.5177C177.384 78.2177 177.244 77.8277 177.244 77.3477C177.244 76.8477 177.369 76.4127 177.619 76.0427C177.879 75.6627 178.239 75.3727 178.699 75.1727C179.159 74.9627 179.694 74.8577 180.304 74.8577C181.104 74.8577 181.794 75.0927 182.374 75.5627C182.964 76.0227 183.324 76.6377 183.454 77.4077L182.104 77.4977Z" fill="#BCBCB8"/>
<path d="M168.524 79.0127C168.524 78.1727 168.674 77.4427 168.974 76.8227C169.274 76.1927 169.699 75.7077 170.249 75.3677C170.799 75.0277 171.439 74.8577 172.169 74.8577C172.779 74.8577 173.334 74.9977 173.834 75.2777C174.344 75.5477 174.759 75.9827 175.079 76.5827C175.399 77.1727 175.579 77.9227 175.619 78.8327L175.634 79.4177H169.889C169.949 80.2177 170.174 80.8377 170.564 81.2777C170.964 81.7177 171.499 81.9377 172.169 81.9377C172.599 81.9377 172.989 81.8227 173.339 81.5927C173.689 81.3627 173.954 81.0427 174.134 80.6327L175.514 80.7377C175.284 81.4777 174.859 82.0677 174.239 82.5077C173.629 82.9477 172.939 83.1677 172.169 83.1677C171.439 83.1677 170.799 82.9977 170.249 82.6577C169.699 82.3177 169.274 81.8377 168.974 81.2177C168.674 80.5877 168.524 79.8527 168.524 79.0127ZM174.224 78.2777C174.114 77.5077 173.874 76.9527 173.504 76.6127C173.134 76.2627 172.689 76.0877 172.169 76.0877C171.549 76.0877 171.044 76.2777 170.654 76.6577C170.274 77.0377 170.029 77.5777 169.919 78.2777H174.224Z" fill="#BCBCB8"/>
<path d="M163.376 72.3376C164.116 72.3376 164.756 72.4676 165.296 72.7276C165.846 72.9876 166.266 73.3626 166.556 73.8526C166.856 74.3426 167.006 74.9126 167.006 75.5626C167.006 76.0226 166.896 76.4426 166.676 76.8226C166.466 77.2027 166.186 77.5077 165.836 77.7377C165.496 77.9577 165.146 78.0777 164.786 78.0977L164.321 77.9627C165.171 77.9627 165.781 78.1027 166.151 78.3827C166.521 78.6627 166.741 79.1527 166.811 79.8527L167.111 82.9877H165.776L165.506 79.9877C165.466 79.5177 165.271 79.1877 164.921 78.9977C164.581 78.8077 164.021 78.7127 163.241 78.7127H160.646V82.9877H159.326V72.3376H163.376ZM163.376 77.4227C164.096 77.4227 164.651 77.2627 165.041 76.9426C165.431 76.6126 165.626 76.1426 165.626 75.5326C165.626 74.9226 165.431 74.4526 165.041 74.1226C164.651 73.7926 164.096 73.6276 163.376 73.6276H160.646V77.4227H163.376Z" fill="#BCBCB8"/>
<rect x="234.354" y="34.0938" width="110.458" height="64.625" rx="7.3125" fill="#191918"/>
<rect x="234.354" y="34.0938" width="110.458" height="64.625" rx="7.3125" stroke="#222221"/>
<g clip-path="url(#clip2_956_14860)">
<path d="M284.175 62.342C283.927 62.1085 283.937 61.6766 284.217 61.4766C284.702 61.1101 285.346 61.1387 285.896 60.9264C286.304 60.807 286.515 60.41 286.771 60.1059C286.298 60.0701 285.834 59.9497 285.408 59.7405L283.986 61.327C282.203 63.7876 280.544 62.7054 279.001 58.1136C277.458 53.519 276.879 49.5067 278.885 47.5002C280.365 46.0205 282.857 45.8274 286.264 46.9685C287.516 46.1326 289.109 46.0172 290.553 46.3102C290.681 46.3265 290.811 46.3857 290.943 46.3591C295.117 44.9668 299.623 47.1639 299.592 49.9211C299.566 52.3398 298.55 56.0425 296.247 59.6466C297.639 60.2332 299.051 59.2245 299.611 59.8119C300.205 60.7012 297.623 62.3958 295.021 61.8828C294.519 65.2636 294.67 67.0059 293.541 67.9861C291.814 69.2841 288.854 69.4933 288.43 66.2265C288.277 64.8721 288.271 63.5066 288.275 62.1451C286.831 63.419 284.777 62.9106 284.175 62.342ZM296.312 52.141C296.32 53.0626 296.005 53.9617 296.099 54.8854C296.189 55.8642 296.399 56.8654 296.15 57.838C296.079 58.183 295.899 58.4892 295.775 58.8138C295.784 58.8607 295.803 58.9546 295.812 59.0005C297.747 56.1166 299.692 50.5825 298.574 48.7117C297.104 46.9402 294.938 46.2335 292.116 46.7694C294.414 47.829 296.342 50.6164 296.312 52.141ZM293.408 53.973C293.726 55.5027 294.613 56.8164 295.304 58.1912C295.819 57.1542 295.517 55.9794 295.423 54.8874C295.347 54.0035 295.605 53.1442 295.632 52.2675C293.928 52.0558 293.116 52.5612 293.408 53.973ZM280.98 60.9173C281.256 61.3224 281.57 61.7736 282.064 61.9164C282.487 62.0032 282.825 61.6586 283.069 61.3638C283.639 60.6766 284.244 60.0242 284.824 59.3465C283.973 58.5729 283.513 57.3941 283.668 56.2479C283.791 55.3702 283.815 54.4812 283.761 53.5964C283.692 50.9844 284.254 48.8864 285.647 47.4665C281.274 46.1651 277.841 46.9144 278.305 52.2348C278.741 55.4137 279.63 58.3097 280.98 60.9173ZM284.426 53.0963C284.44 53.8321 284.492 54.569 284.442 55.3049C284.421 55.955 284.242 56.6061 284.376 57.2578C284.611 58.4018 285.615 59.4261 286.821 59.4139C286.998 58.8352 287.203 58.2647 287.456 57.7135C288.182 56.2857 288.065 54.6078 287.686 53.1003C287.332 51.8551 285.505 52.3707 284.426 53.0963ZM287.631 60.2416C287.159 60.5488 286.959 61.1459 286.455 61.4174C285.933 61.7256 285.302 61.7062 284.762 61.9562C285.857 62.5145 287.373 62.3181 288.13 61.2923C288.518 60.9321 288.144 60.1691 287.631 60.2416ZM298.768 60.3559C297.834 60.4692 296.813 60.6948 295.936 60.2324C295.729 60.0885 295.475 60.21 295.297 60.3416C295.071 60.5509 295.086 60.8836 295.084 61.1642C295.58 61.3347 296.115 61.3163 296.63 61.2551C297.407 61.1704 298.197 60.9111 298.768 60.3559ZM293.933 52.736C293.75 52.886 293.947 53.1105 294.105 53.181C294.485 53.4045 295.007 53.0922 295.019 52.6574C294.675 52.4971 294.244 52.5135 293.933 52.736ZM287.194 53.43C287.357 53.3381 287.529 53.086 287.341 52.934C287.073 52.7166 286.685 52.6747 286.359 52.7625C286.254 52.7993 286.144 52.8707 286.165 52.9993C286.241 53.4361 286.826 53.7015 287.194 53.43ZM293.25 52.0491C293.88 51.5082 294.763 51.5398 295.542 51.5674C295.073 50.2426 294.204 49.0648 293.103 48.1952C291.771 47.1471 290.012 46.6857 288.336 46.8991C287.32 47.0307 286.369 47.5798 285.756 48.4024C284.922 49.5078 284.558 50.9019 284.452 52.2634C286.405 51.3169 287.927 51.4469 288.371 53.0197C288.644 54.224 288.792 55.4937 288.525 56.7133C288.319 57.6992 287.718 58.5515 287.518 59.5384C288.63 59.5573 288.986 60.3938 288.972 61.0295C288.894 63.2403 288.965 65.1566 289.214 66.7205C289.493 67.8302 290.383 68.2544 291.059 68.193C292.667 68.0469 293.523 67.5628 293.806 65.9571C294.534 61.3664 294.299 60.5593 294.625 60.0946L294.627 60.0957C294.791 59.7987 295.114 59.6588 295.403 59.5129C294.698 58.4332 291.44 53.6206 293.25 52.0491Z" fill="#367CB4"/>
</g>
<path d="M322.408 74.2158H323.816V84.9198L323.096 84.1998H329.48V85.5758H322.408V74.2158Z" fill="#BCBCB8"/>
<path d="M315.153 85.8317C314.087 85.8317 313.164 85.5704 312.385 85.0477C311.617 84.5251 311.025 83.8157 310.609 82.9197C310.204 82.0237 310.001 81.0211 310.001 79.9117C310.001 78.8024 310.204 77.7944 310.609 76.8877C311.015 75.981 311.607 75.2664 312.385 74.7437C313.164 74.221 314.087 73.9597 315.153 73.9597C316.22 73.9597 317.143 74.221 317.921 74.7437C318.7 75.2664 319.292 75.981 319.697 76.8877C320.103 77.7944 320.305 78.8024 320.305 79.9117C320.305 80.9677 320.113 81.9331 319.729 82.8077C319.356 83.6824 318.823 84.3811 318.129 84.9037L319.505 86.6797H318.033L317.105 85.4797C316.497 85.7144 315.847 85.8317 315.153 85.8317ZM311.473 79.9117C311.473 80.7544 311.612 81.5224 311.889 82.2157C312.167 82.8984 312.583 83.4424 313.137 83.8477C313.692 84.2531 314.364 84.4557 315.153 84.4557C315.537 84.4557 315.889 84.4077 316.209 84.3117L314.609 82.2477H316.081L317.265 83.7837C317.777 83.3784 318.167 82.8397 318.433 82.1677C318.7 81.4851 318.833 80.7331 318.833 79.9117C318.833 79.0584 318.695 78.2904 318.417 77.6077C318.14 76.9144 317.724 76.365 317.169 75.9597C316.625 75.5437 315.953 75.3357 315.153 75.3357C314.353 75.3357 313.676 75.5437 313.121 75.9597C312.577 76.365 312.167 76.9144 311.889 77.6077C311.612 78.2904 311.473 79.0584 311.473 79.9117Z" fill="#BCBCB8"/>
<path d="M301.243 81.8477C301.35 82.3597 301.536 82.8077 301.803 83.1917C302.07 83.5757 302.422 83.8744 302.859 84.0877C303.296 84.2904 303.808 84.3917 304.395 84.3917C304.886 84.3917 305.307 84.3277 305.659 84.1997C306.022 84.0717 306.299 83.8851 306.491 83.6397C306.694 83.3837 306.795 83.0744 306.795 82.7117C306.795 82.1464 306.539 81.6771 306.027 81.3037C305.515 80.9197 304.688 80.5837 303.547 80.2957C302.491 80.0291 301.638 79.6397 300.987 79.1277C300.336 78.6157 300.011 77.933 300.011 77.0797C300.011 76.4504 300.166 75.901 300.475 75.4317C300.795 74.9624 301.232 74.5997 301.787 74.3437C302.352 74.0877 302.998 73.9597 303.723 73.9597C304.523 73.9597 305.232 74.1144 305.851 74.4237C306.48 74.733 306.976 75.1597 307.339 75.7037C307.712 76.2477 307.942 76.8717 308.027 77.5757L306.555 77.6717C306.491 77.2024 306.331 76.7917 306.075 76.4397C305.819 76.0877 305.488 75.8157 305.083 75.6237C304.678 75.4317 304.219 75.3357 303.707 75.3357C303.056 75.3357 302.523 75.4957 302.107 75.8157C301.691 76.125 301.483 76.5464 301.483 77.0797C301.483 77.485 301.616 77.821 301.883 78.0877C302.15 78.3437 302.464 78.5464 302.827 78.6957C303.2 78.8344 303.691 78.989 304.299 79.1597L304.555 79.2237C305.686 79.5437 306.587 79.9757 307.259 80.5197C307.931 81.0637 308.267 81.7464 308.267 82.5677C308.267 83.2397 308.08 83.8211 307.707 84.3117C307.344 84.7917 306.859 85.1544 306.251 85.3997C305.643 85.6451 304.987 85.7677 304.283 85.7677C303.462 85.7677 302.72 85.6131 302.059 85.3037C301.398 84.9837 300.864 84.5357 300.459 83.9597C300.064 83.3731 299.835 82.7011 299.771 81.9437L301.243 81.8477Z" fill="#BCBCB8"/>
<path d="M290.485 81.3358C290.485 80.4398 290.645 79.6611 290.965 78.9998C291.285 78.3278 291.738 77.8105 292.325 77.4478C292.912 77.0851 293.594 76.9038 294.373 76.9038C295.024 76.9038 295.616 77.0531 296.149 77.3518C296.693 77.6398 297.136 78.1038 297.477 78.7438C297.818 79.3731 298.01 80.1731 298.053 81.1438L298.069 81.7678H291.941C292.005 82.6211 292.245 83.2825 292.661 83.7518C293.088 84.2211 293.658 84.4558 294.373 84.4558C294.832 84.4558 295.248 84.3331 295.621 84.0878C295.994 83.8425 296.277 83.5011 296.469 83.0638L297.941 83.1758C297.696 83.9651 297.242 84.5945 296.581 85.0638C295.93 85.5331 295.194 85.7678 294.373 85.7678C293.594 85.7678 292.912 85.5865 292.325 85.2238C291.738 84.8611 291.285 84.3491 290.965 83.6878C290.645 83.0158 290.485 82.2318 290.485 81.3358ZM296.565 80.5518C296.448 79.7305 296.192 79.1385 295.797 78.7758C295.402 78.4025 294.928 78.2158 294.373 78.2158C293.712 78.2158 293.173 78.4185 292.757 78.8238C292.352 79.2291 292.09 79.8051 291.973 80.5518H296.565Z" fill="#BCBCB8"/>
<path d="M286.745 77.0957L286.809 79.3037L286.681 79.1757C286.777 78.4504 286.99 77.9224 287.321 77.5917C287.662 77.261 288.153 77.0957 288.793 77.0957H289.625V78.3117H288.793C288.366 78.3117 288.009 78.397 287.721 78.5677C287.443 78.7277 287.235 78.973 287.097 79.3037C286.969 79.6237 286.905 80.029 286.905 80.5197V85.5757H285.529V77.0957H286.745Z" fill="#BCBCB8"/>
<path d="M279.182 85.1278C278.457 85.1278 277.811 84.9571 277.246 84.6158C276.681 84.2638 276.238 83.7785 275.918 83.1598C275.598 82.5305 275.438 81.8158 275.438 81.0158C275.438 80.2158 275.593 79.5065 275.902 78.8878C276.222 78.2585 276.665 77.7731 277.23 77.4318C277.795 77.0798 278.441 76.9038 279.166 76.9038C279.742 76.9038 280.254 77.0425 280.702 77.3198C281.15 77.5865 281.47 77.9491 281.662 78.4078V77.0958H282.974V84.7438C282.974 85.4798 282.814 86.1038 282.494 86.6158C282.185 87.1278 281.747 87.5118 281.182 87.7678C280.617 88.0345 279.961 88.1678 279.214 88.1678C278.617 88.1678 278.073 88.0665 277.582 87.8638C277.091 87.6611 276.681 87.3731 276.35 86.9998C276.019 86.6265 275.79 86.1945 275.662 85.7038L277.102 85.6078C277.283 86.0025 277.55 86.3065 277.902 86.5198C278.265 86.7438 278.702 86.8558 279.214 86.8558C279.971 86.8558 280.558 86.7011 280.974 86.3918C281.39 86.0825 281.598 85.6398 281.598 85.0638V83.6718C281.385 84.1198 281.059 84.4771 280.622 84.7438C280.195 84.9998 279.715 85.1278 279.182 85.1278ZM276.878 81.0158C276.878 81.8798 277.091 82.5625 277.518 83.0638C277.945 83.5651 278.526 83.8158 279.262 83.8158C279.731 83.8158 280.142 83.7038 280.494 83.4798C280.846 83.2558 281.118 82.9358 281.31 82.5198C281.513 82.0931 281.614 81.5918 281.614 81.0158C281.625 80.4398 281.534 79.9438 281.342 79.5278C281.161 79.1011 280.889 78.7758 280.526 78.5518C280.174 78.3278 279.753 78.2158 279.262 78.2158C278.526 78.2158 277.945 78.4665 277.518 78.9678C277.091 79.4691 276.878 80.1518 276.878 81.0158Z" fill="#BCBCB8"/>
<path d="M272.049 75.1758V83.3038C272.049 83.6558 272.135 83.9224 272.305 84.1038C272.476 84.2744 272.727 84.3598 273.057 84.3598H274.289V85.5758H273.057C272.289 85.5758 271.697 85.3784 271.281 84.9838C270.876 84.5891 270.673 84.0291 270.673 83.3038V75.1758H272.049ZM274.321 77.0958V78.3118H269.441V77.0958H274.321Z" fill="#BCBCB8"/>
<path d="M266.689 79.7198C266.593 79.2611 266.343 78.8985 265.937 78.6318C265.543 78.3545 265.105 78.2158 264.625 78.2158C264.145 78.2158 263.745 78.3331 263.425 78.5678C263.105 78.7918 262.945 79.0958 262.945 79.4798C262.945 79.8531 263.132 80.1411 263.505 80.3438C263.889 80.5465 264.369 80.7065 264.945 80.8238C265.671 80.9625 266.268 81.1278 266.737 81.3198C267.217 81.5011 267.596 81.7625 267.873 82.1038C268.151 82.4345 268.289 82.8718 268.289 83.4158C268.289 83.9385 268.129 84.3758 267.809 84.7278C267.489 85.0798 267.079 85.3411 266.577 85.5118C266.076 85.6825 265.543 85.7678 264.977 85.7678C264.305 85.7678 263.697 85.6505 263.153 85.4158C262.609 85.1811 262.172 84.8505 261.841 84.4238C261.521 83.9865 261.34 83.4798 261.297 82.9038L262.737 82.8078C262.801 83.1491 262.929 83.4425 263.121 83.6878C263.313 83.9331 263.564 84.1251 263.873 84.2638C264.193 84.3918 264.561 84.4558 264.977 84.4558C265.468 84.4558 265.9 84.3705 266.273 84.1998C266.657 84.0185 266.849 83.7305 266.849 83.3358C266.849 83.0585 266.769 82.8398 266.609 82.6798C266.449 82.5198 266.257 82.4025 266.033 82.3278C265.809 82.2531 265.495 82.1731 265.089 82.0878C265.004 82.0771 264.876 82.0505 264.705 82.0078C264.044 81.8585 263.495 81.7038 263.057 81.5438C262.62 81.3731 262.252 81.1278 261.953 80.8078C261.655 80.4878 261.505 80.0718 261.505 79.5598C261.505 79.0265 261.639 78.5625 261.905 78.1678C262.183 77.7625 262.567 77.4531 263.057 77.2398C263.548 77.0158 264.119 76.9038 264.769 76.9038C265.623 76.9038 266.359 77.1545 266.977 77.6558C267.607 78.1465 267.991 78.8025 268.129 79.6238L266.689 79.7198Z" fill="#BCBCB8"/>
<path d="M255.904 85.7678C255.125 85.7678 254.443 85.5865 253.856 85.2238C253.269 84.8611 252.816 84.3491 252.496 83.6878C252.176 83.0158 252.016 82.2318 252.016 81.3358C252.016 80.4398 252.176 79.6611 252.496 78.9998C252.816 78.3278 253.269 77.8105 253.856 77.4478C254.443 77.0851 255.125 76.9038 255.904 76.9038C256.683 76.9038 257.365 77.0851 257.952 77.4478C258.539 77.8105 258.992 78.3278 259.312 78.9998C259.632 79.6611 259.792 80.4398 259.792 81.3358C259.792 82.2318 259.632 83.0158 259.312 83.6878C258.992 84.3491 258.539 84.8611 257.952 85.2238C257.365 85.5865 256.683 85.7678 255.904 85.7678ZM255.904 84.4558C256.683 84.4558 257.285 84.1838 257.712 83.6398C258.139 83.0851 258.352 82.3171 258.352 81.3358C258.352 80.3545 258.139 79.5918 257.712 79.0478C257.285 78.4931 256.683 78.2158 255.904 78.2158C255.125 78.2158 254.523 78.4931 254.096 79.0478C253.669 79.5918 253.456 80.3545 253.456 81.3358C253.456 82.3171 253.669 83.0851 254.096 83.6398C254.523 84.1838 255.125 84.4558 255.904 84.4558Z" fill="#BCBCB8"/>
<path d="M246.785 74.2158C247.628 74.2158 248.348 74.3545 248.945 74.6318C249.553 74.8985 250.017 75.2932 250.337 75.8158C250.657 76.3278 250.817 76.9412 250.817 77.6558C250.817 78.3918 250.657 79.0265 250.337 79.5598C250.017 80.0825 249.553 80.4825 248.945 80.7598C248.348 81.0372 247.628 81.1758 246.785 81.1758H244.113V85.5758H242.705V74.2158H246.785ZM246.785 79.7998C247.638 79.7998 248.278 79.6238 248.705 79.2718C249.132 78.9092 249.345 78.3705 249.345 77.6558C249.345 76.9625 249.132 76.4452 248.705 76.1038C248.278 75.7625 247.638 75.5918 246.785 75.5918H244.113V79.7998H246.785Z" fill="#BCBCB8"/>
<path d="M220.266 9.5251C220.2 9.18343 220.025 8.9126 219.741 8.7126C219.458 8.5126 219.141 8.4126 218.791 8.4126C218.441 8.4126 218.154 8.49593 217.929 8.6626C217.704 8.82926 217.591 9.0501 217.591 9.3251C217.591 9.59176 217.725 9.8001 217.991 9.9501C218.266 10.0918 218.616 10.2043 219.041 10.2876C219.641 10.3959 220.133 10.5293 220.516 10.6876C220.908 10.8376 221.212 11.0459 221.429 11.3126C221.645 11.5709 221.754 11.9126 221.754 12.3376C221.754 12.7543 221.625 13.1043 221.366 13.3876C221.116 13.6626 220.787 13.8709 220.379 14.0126C219.97 14.1459 219.525 14.2126 219.041 14.2126C218.475 14.2126 217.97 14.1209 217.529 13.9376C217.087 13.7543 216.733 13.4959 216.466 13.1626C216.208 12.8209 216.062 12.4251 216.029 11.9751L217.416 11.8876C217.466 12.1376 217.558 12.3543 217.691 12.5376C217.833 12.7126 218.016 12.8501 218.241 12.9501C218.466 13.0418 218.729 13.0876 219.029 13.0876C219.379 13.0876 219.687 13.0251 219.954 12.9001C220.22 12.7668 220.354 12.5584 220.354 12.2751C220.354 12.0834 220.295 11.9293 220.179 11.8126C220.07 11.6959 219.933 11.6126 219.766 11.5626C219.608 11.5043 219.383 11.4418 219.091 11.3751C219.025 11.3668 218.929 11.3501 218.804 11.3251C218.237 11.2001 217.775 11.0709 217.416 10.9376C217.058 10.7959 216.762 10.6001 216.529 10.3501C216.304 10.1001 216.191 9.7751 216.191 9.3751C216.191 8.9501 216.3 8.58343 216.516 8.2751C216.741 7.95843 217.054 7.71676 217.454 7.5501C217.862 7.3751 218.341 7.2876 218.891 7.2876C219.616 7.2876 220.229 7.48343 220.729 7.8751C221.229 8.25843 221.537 8.78343 221.654 9.4501L220.266 9.5251Z" fill="#DCDCDA"/>
<path d="M206.728 7.4376L206.778 8.5126C206.936 8.12093 207.173 7.82093 207.49 7.6126C207.815 7.39593 208.203 7.2876 208.653 7.2876C209.128 7.2876 209.532 7.40843 209.865 7.6501C210.198 7.88343 210.436 8.22093 210.578 8.6626C210.728 8.2126 210.969 7.87093 211.303 7.6376C211.644 7.40426 212.065 7.2876 212.565 7.2876C213.007 7.2876 213.386 7.3876 213.703 7.5876C214.028 7.77926 214.273 8.0626 214.44 8.4376C214.615 8.8126 214.703 9.26676 214.703 9.8001V14.0626H213.365V10.2126C213.365 9.62926 213.265 9.1876 213.065 8.8876C212.865 8.57926 212.578 8.4251 212.203 8.4251C211.894 8.4251 211.628 8.49593 211.403 8.6376C211.186 8.77093 211.023 8.97093 210.915 9.2376C210.807 9.50426 210.753 9.82926 210.753 10.2126V14.0626H209.478V10.2126C209.478 9.82926 209.432 9.50426 209.34 9.2376C209.248 8.97093 209.115 8.77093 208.94 8.6376C208.765 8.49593 208.557 8.4251 208.315 8.4251C208.015 8.4251 207.753 8.49593 207.528 8.6376C207.311 8.77926 207.144 8.98343 207.028 9.2501C206.919 9.51677 206.865 9.8376 206.865 10.2126V14.0626H205.515V7.4376H206.728Z" fill="#DCDCDA"/>
<path d="M197.953 9.4251C198.086 8.75843 198.399 8.2376 198.89 7.8626C199.39 7.47926 200.024 7.2876 200.79 7.2876C201.699 7.2876 202.39 7.52926 202.865 8.0126C203.349 8.4876 203.59 9.18343 203.59 10.1001V12.5626C203.59 12.7126 203.624 12.8251 203.69 12.9001C203.757 12.9668 203.857 13.0001 203.99 13.0001H204.265V14.0626H203.84H203.778C203.553 14.0709 203.336 14.0501 203.128 14.0001C202.919 13.9501 202.74 13.8501 202.59 13.7001C202.449 13.5501 202.369 13.3334 202.353 13.0501C202.194 13.3834 201.932 13.6626 201.565 13.8876C201.199 14.1043 200.753 14.2126 200.228 14.2126C199.544 14.2126 198.974 14.0418 198.515 13.7001C198.065 13.3584 197.84 12.9001 197.84 12.3251C197.84 11.9001 197.94 11.5584 198.14 11.3001C198.34 11.0418 198.615 10.8418 198.965 10.7001C199.315 10.5584 199.778 10.4293 200.353 10.3126L202.24 9.9501C202.232 9.41677 202.107 9.0251 201.865 8.7751C201.632 8.51677 201.274 8.3876 200.79 8.3876C200.415 8.3876 200.103 8.48343 199.853 8.6751C199.603 8.86677 199.432 9.14593 199.34 9.5126L197.953 9.4251ZM199.24 12.3001C199.24 12.5584 199.349 12.7709 199.565 12.9376C199.782 13.0959 200.099 13.1751 200.515 13.1751C200.849 13.1751 201.149 13.0959 201.415 12.9376C201.682 12.7709 201.89 12.5293 202.04 12.2126C202.19 11.8876 202.265 11.4959 202.265 11.0376V10.9751L200.865 11.2251L200.64 11.2626C200.299 11.3209 200.036 11.3793 199.853 11.4376C199.669 11.4959 199.519 11.5959 199.403 11.7376C199.294 11.8709 199.24 12.0584 199.24 12.3001Z" fill="#DCDCDA"/>
<path d="M190.492 10.7501C190.492 10.0501 190.621 9.44176 190.879 8.9251C191.146 8.4001 191.517 7.99593 191.992 7.7126C192.467 7.42926 193.021 7.2876 193.654 7.2876C194.196 7.2876 194.688 7.4126 195.129 7.6626C195.579 7.90426 195.938 8.28343 196.204 8.8001C196.479 9.30843 196.629 9.94176 196.654 10.7001V11.1376H191.917C191.958 11.7459 192.129 12.2209 192.429 12.5626C192.729 12.8959 193.138 13.0626 193.654 13.0626C193.988 13.0626 194.288 12.9751 194.554 12.8001C194.821 12.6251 195.025 12.3793 195.167 12.0626L196.567 12.1626C196.367 12.7876 196 13.2876 195.467 13.6626C194.942 14.0293 194.338 14.2126 193.654 14.2126C193.021 14.2126 192.467 14.0709 191.992 13.7876C191.517 13.5043 191.146 13.1043 190.879 12.5876C190.621 12.0626 190.492 11.4501 190.492 10.7501ZM195.242 10.1251C195.158 9.54176 194.975 9.11676 194.692 8.8501C194.408 8.5751 194.063 8.4376 193.654 8.4376C193.179 8.4376 192.792 8.5876 192.492 8.8876C192.2 9.17926 192.013 9.59176 191.929 10.1251H195.242Z" fill="#DCDCDA"/>
<path d="M190.511 6.4375H187.799V14.0625H186.424V6.4375H183.711V5.1875H190.511V6.4375Z" fill="#DCDCDA"/>
<path d="M178.055 5.1875H179.405V14.0625H178.155L178.118 13.125C177.926 13.4667 177.647 13.7333 177.28 13.925C176.914 14.1167 176.505 14.2125 176.055 14.2125C175.489 14.2125 174.993 14.0708 174.568 13.7875C174.143 13.5042 173.818 13.1042 173.593 12.5875C173.368 12.0625 173.255 11.45 173.255 10.75C173.255 10.05 173.368 9.44167 173.593 8.925C173.818 8.4 174.143 7.99583 174.568 7.7125C174.993 7.42917 175.489 7.2875 176.055 7.2875C176.489 7.2875 176.885 7.37917 177.243 7.5625C177.601 7.74583 177.872 7.99583 178.055 8.3125V5.1875ZM177.943 11.9625C178.085 11.6125 178.155 11.2083 178.155 10.75C178.155 10.275 178.085 9.8625 177.943 9.5125C177.801 9.1625 177.597 8.89167 177.33 8.7C177.064 8.50833 176.755 8.4125 176.405 8.4125C175.864 8.4125 175.435 8.625 175.118 9.05C174.801 9.46667 174.643 10.0333 174.643 10.75C174.643 11.45 174.801 12.0083 175.118 12.425C175.443 12.8417 175.872 13.05 176.405 13.05C176.755 13.05 177.064 12.9583 177.33 12.775C177.597 12.5833 177.801 12.3125 177.943 11.9625Z" fill="#DCDCDA"/>
<path d="M167.629 7.4376L167.691 9.2126L167.529 9.0876C167.637 8.47927 167.883 8.02926 168.266 7.7376C168.649 7.4376 169.12 7.2876 169.679 7.2876C170.404 7.2876 170.962 7.52093 171.354 7.9876C171.745 8.44593 171.941 9.0501 171.941 9.8001V14.0626H170.591V10.2126C170.591 9.8126 170.549 9.48343 170.466 9.2251C170.383 8.95843 170.245 8.75843 170.054 8.6251C169.87 8.49176 169.629 8.4251 169.329 8.4251C168.837 8.4251 168.454 8.57926 168.179 8.8876C167.904 9.1876 167.766 9.62926 167.766 10.2126V14.0626H166.416V7.4376H167.629Z" fill="#DCDCDA"/>
<path d="M158.839 10.7501C158.839 10.0501 158.968 9.44176 159.226 8.9251C159.493 8.4001 159.864 7.99593 160.339 7.7126C160.814 7.42926 161.368 7.2876 162.001 7.2876C162.543 7.2876 163.035 7.4126 163.476 7.6626C163.926 7.90426 164.285 8.28343 164.551 8.8001C164.826 9.30843 164.976 9.94176 165.001 10.7001V11.1376H160.264C160.306 11.7459 160.476 12.2209 160.776 12.5626C161.076 12.8959 161.485 13.0626 162.001 13.0626C162.335 13.0626 162.635 12.9751 162.901 12.8001C163.168 12.6251 163.372 12.3793 163.514 12.0626L164.914 12.1626C164.714 12.7876 164.347 13.2876 163.814 13.6626C163.289 14.0293 162.685 14.2126 162.001 14.2126C161.368 14.2126 160.814 14.0709 160.339 13.7876C159.864 13.5043 159.493 13.1043 159.226 12.5876C158.968 12.0626 158.839 11.4501 158.839 10.7501ZM163.589 10.1251C163.506 9.54176 163.322 9.11676 163.039 8.8501C162.756 8.5751 162.41 8.4376 162.001 8.4376C161.526 8.4376 161.139 8.5876 160.839 8.8876C160.547 9.17926 160.36 9.59176 160.276 10.1251H163.589Z" fill="#DCDCDA"/>
<path d="M153.655 5.1875V10.6875L156.567 7.4375H158.28L155.692 10.2125L158.405 14.0625H156.83L154.805 11.0625L153.655 12.3125V14.0625H152.305V5.1875H153.655Z" fill="#DCDCDA"/>
<path d="M149.574 9.7626C149.507 9.35427 149.332 9.03343 149.049 8.8001C148.765 8.56676 148.432 8.4501 148.049 8.4501C147.49 8.4501 147.057 8.65427 146.749 9.0626C146.44 9.4626 146.286 10.0251 146.286 10.7501C146.286 11.4751 146.44 12.0418 146.749 12.4501C147.057 12.8501 147.49 13.0501 148.049 13.0501C148.449 13.0501 148.79 12.9251 149.074 12.6751C149.365 12.4251 149.545 12.0751 149.611 11.6251L151.024 11.7001C150.957 12.2084 150.782 12.6543 150.499 13.0376C150.224 13.4126 149.874 13.7043 149.449 13.9126C149.024 14.1126 148.557 14.2126 148.049 14.2126C147.415 14.2126 146.861 14.0709 146.386 13.7876C145.911 13.5043 145.54 13.1043 145.274 12.5876C145.015 12.0626 144.886 11.4501 144.886 10.7501C144.886 10.0501 145.015 9.44176 145.274 8.9251C145.54 8.4001 145.911 7.99593 146.386 7.7126C146.861 7.42926 147.415 7.2876 148.049 7.2876C148.54 7.2876 148.999 7.3876 149.424 7.5876C149.849 7.77926 150.199 8.05843 150.474 8.4251C150.749 8.78343 150.915 9.20426 150.974 9.6876L149.574 9.7626Z" fill="#DCDCDA"/>
<path d="M137.736 9.4251C137.869 8.75843 138.181 8.2376 138.673 7.8626C139.173 7.47926 139.806 7.2876 140.573 7.2876C141.481 7.2876 142.173 7.52926 142.648 8.0126C143.131 8.4876 143.373 9.18343 143.373 10.1001V12.5626C143.373 12.7126 143.406 12.8251 143.473 12.9001C143.54 12.9668 143.64 13.0001 143.773 13.0001H144.048V14.0626H143.623H143.561C143.336 14.0709 143.119 14.0501 142.911 14.0001C142.702 13.9501 142.523 13.8501 142.373 13.7001C142.231 13.5501 142.152 13.3334 142.136 13.0501C141.977 13.3834 141.715 13.6626 141.348 13.8876C140.981 14.1043 140.536 14.2126 140.011 14.2126C139.327 14.2126 138.756 14.0418 138.298 13.7001C137.848 13.3584 137.623 12.9001 137.623 12.3251C137.623 11.9001 137.723 11.5584 137.923 11.3001C138.123 11.0418 138.398 10.8418 138.748 10.7001C139.098 10.5584 139.561 10.4293 140.136 10.3126L142.023 9.9501C142.015 9.41677 141.89 9.0251 141.648 8.7751C141.415 8.51677 141.056 8.3876 140.573 8.3876C140.198 8.3876 139.886 8.48343 139.636 8.6751C139.386 8.86677 139.215 9.14593 139.123 9.5126L137.736 9.4251ZM139.023 12.3001C139.023 12.5584 139.131 12.7709 139.348 12.9376C139.565 13.0959 139.881 13.1751 140.298 13.1751C140.631 13.1751 140.931 13.0959 141.198 12.9376C141.465 12.7709 141.673 12.5293 141.823 12.2126C141.973 11.8876 142.048 11.4959 142.048 11.0376V10.9751L140.648 11.2251L140.423 11.2626C140.081 11.3209 139.819 11.3793 139.636 11.4376C139.452 11.4959 139.302 11.5959 139.186 11.7376C139.077 11.8709 139.023 12.0584 139.023 12.3001Z" fill="#DCDCDA"/>
<path d="M129.542 5.1875H132.667C133.767 5.1875 134.592 5.39167 135.142 5.8C135.692 6.2 135.967 6.81667 135.967 7.65C135.967 8.025 135.888 8.35 135.729 8.625C135.571 8.9 135.338 9.1125 135.029 9.2625C134.729 9.4125 134.375 9.49167 133.967 9.5L133.954 9.45C134.704 9.46667 135.288 9.6625 135.704 10.0375C136.129 10.4042 136.342 10.9083 136.342 11.55C136.342 12.3667 136.067 12.9917 135.517 13.425C134.975 13.85 134.192 14.0625 133.167 14.0625H129.542V5.1875ZM133.179 12.825C133.738 12.825 134.167 12.7125 134.467 12.4875C134.775 12.2542 134.929 11.925 134.929 11.5C134.929 11.0667 134.775 10.7333 134.467 10.5C134.167 10.2583 133.738 10.1375 133.179 10.1375H130.917V12.825H133.179ZM132.717 8.9625C133.3 8.9625 133.75 8.85417 134.067 8.6375C134.392 8.42083 134.554 8.10833 134.554 7.7C134.554 7.26667 134.4 6.94583 134.092 6.7375C133.784 6.52917 133.325 6.425 132.717 6.425H130.917V8.9625H132.717Z" fill="#DCDCDA"/>
<defs>
<filter id="filter0_ddd_956_14860" x="27.1753" y="147.927" width="291.743" height="157.681" filterUnits="userSpaceOnUse" color-interpolation-filters="sRGB">
<feFlood flood-opacity="0" result="BackgroundImageFix"/>
<feColorMatrix in="SourceAlpha" type="matrix" values="0 0 0 0 0 0 0 0 0 0 0 0 0 0 0 0 0 0 127 0" result="hardAlpha"/>
<feMorphology radius="1.04129" operator="erode" in="SourceAlpha" result="effect1_dropShadow_956_14860"/>
<feOffset dy="0.833035"/>
<feGaussianBlur stdDeviation="1.24955"/>
<feComposite in2="hardAlpha" operator="out"/>
<feColorMatrix type="matrix" values="0 0 0 0 0.886275 0 0 0 0 0.992157 0 0 0 0 0.321569 0 0 0 0.04 0"/>
<feBlend mode="normal" in2="BackgroundImageFix" result="effect1_dropShadow_956_14860"/>
<feColorMatrix in="SourceAlpha" type="matrix" values="0 0 0 0 0 0 0 0 0 0 0 0 0 0 0 0 0 0 127 0" result="hardAlpha"/>
<feMorphology radius="2.08259" operator="erode" in="SourceAlpha" result="effect2_dropShadow_956_14860"/>
<feOffset dy="2.4991"/>
<feGaussianBlur stdDeviation="4.99821"/>
<feComposite in2="hardAlpha" operator="out"/>
<feColorMatrix type="matrix" values="0 0 0 0 0.886275 0 0 0 0 0.992157 0 0 0 0 0.321569 0 0 0 0.03 0"/>
<feBlend mode="normal" in2="effect1_dropShadow_956_14860" result="effect2_dropShadow_956_14860"/>
<feColorMatrix in="SourceAlpha" type="matrix" values="0 0 0 0 0 0 0 0 0 0 0 0 0 0 0 0 0 0 127 0" result="hardAlpha"/>
<feMorphology radius="3.12388" operator="erode" in="SourceAlpha" result="effect3_dropShadow_956_14860"/>
<feOffset dy="8.33035"/>
<feGaussianBlur stdDeviation="20.8259"/>
<feComposite in2="hardAlpha" operator="out"/>
<feColorMatrix type="matrix" values="0 0 0 0 0.886275 0 0 0 0 0.992157 0 0 0 0 0.321569 0 0 0 0.1 0"/>
<feBlend mode="normal" in2="effect2_dropShadow_956_14860" result="effect3_dropShadow_956_14860"/>
<feBlend mode="normal" in="SourceGraphic" in2="effect3_dropShadow_956_14860" result="shape"/>
</filter>
<linearGradient id="paint0_linear_956_14860" x1="181.244" y1="275.309" x2="306.577" y2="242.819" gradientUnits="userSpaceOnUse">
<stop offset="0.235033" stop-color="#DBFE01"/>
<stop offset="0.479167" stop-color="#DBFE01"/>
<stop offset="1" stop-color="#77DA05"/>
</linearGradient>
<linearGradient id="paint1_linear_956_14860" x1="117.265" y1="158.606" x2="227.457" y2="158.606" gradientUnits="userSpaceOnUse">
<stop stop-color="#7B8C0D"/>
<stop offset="0.5" stop-color="#7B8C0D" stop-opacity="0"/>
<stop offset="1" stop-color="#7B8C0D"/>
</linearGradient>
<linearGradient id="paint2_linear_956_14860" x1="-308.212" y1="-271.891" x2="382.93" y2="-274.529" gradientUnits="userSpaceOnUse">
<stop stop-color="#72C9C9"/>
<stop offset="1" stop-color="#02B0AD"/>
</linearGradient>
<linearGradient id="paint3_linear_956_14860" x1="-155.474" y1="-134.794" x2="249.917" y2="-136.342" gradientUnits="userSpaceOnUse">
<stop stop-color="#03B6B4"/>
<stop offset="1" stop-color="#74CBCA"/>
</linearGradient>
<clipPath id="clip0_956_14860">
<rect width="19.9928" height="19.9928" fill="white" transform="translate(165.256 340.916)"/>
</clipPath>
<clipPath id="clip1_956_14860">
<rect x="65.7031" y="178.125" width="214.688" height="80.625" rx="9.99642" fill="white"/>
</clipPath>
<clipPath id="clip2_956_14860">
<rect width="22.1339" height="22.9403" fill="white" transform="translate(277.6 45.9287)"/>
</clipPath>
</defs>
</svg>
