<svg width="50" height="50" viewBox="0 0 50 50" fill="none" xmlns="http://www.w3.org/2000/svg">
<g filter="url(#filter0_d_432_13965)">
<path fill-rule="evenodd" clip-rule="evenodd" d="M10.0031 17.2439C8.38431 15.8806 8.28683 13.4449 9.79158 11.9599L12.085 9.69652C13.5677 8.23326 15.9921 8.3019 17.3874 9.84664L19.404 12.0793C22.5125 15.5209 27.9655 15.5209 31.074 12.0793L33.0906 9.84664C34.4859 8.30191 36.9103 8.23326 38.393 9.69652L40.6864 11.9599C42.1912 13.4449 42.0937 15.8806 40.4749 17.2439L38.697 18.7413C34.7963 22.0263 34.7963 27.9748 38.697 31.2599L40.4749 32.7572C42.0937 34.1205 42.1912 36.5562 40.6864 38.0412L38.4528 40.2456C36.948 41.7306 34.48 41.6344 33.0986 40.0369L31.185 37.8238C28.0644 34.2148 22.4136 34.2148 19.293 37.8238L17.3794 40.0369C15.998 41.6344 13.53 41.7306 12.0252 40.2456L9.79158 38.0412C8.28683 36.5562 8.38431 34.1205 10.0031 32.7572L12.0133 31.0643C15.7921 27.8819 15.7921 22.1192 12.0133 18.9369L10.0031 17.2439Z" fill="#141413" fill-opacity="0.05" shape-rendering="crispEdges"/>
</g>
<g filter="url(#filter1_i_432_13965)">
<path fill-rule="evenodd" clip-rule="evenodd" d="M10.0031 17.2439C8.38431 15.8806 8.28683 13.4449 9.79158 11.9599L12.085 9.69652C13.5677 8.23326 15.9921 8.3019 17.3874 9.84664L19.404 12.0793C22.5125 15.5209 27.9655 15.5209 31.074 12.0793L33.0906 9.84664C34.4859 8.30191 36.9103 8.23326 38.393 9.69652L40.6864 11.9599C42.1912 13.4449 42.0937 15.8806 40.4749 17.2439L38.697 18.7413C34.7963 22.0263 34.7963 27.9748 38.697 31.2599L40.4749 32.7572C42.0937 34.1205 42.1912 36.5562 40.6864 38.0412L38.4528 40.2456C36.948 41.7306 34.48 41.6344 33.0986 40.0369L31.185 37.8238C28.0644 34.2148 22.4136 34.2148 19.293 37.8238L17.3794 40.0369C15.998 41.6344 13.53 41.7306 12.0252 40.2456L9.79158 38.0412C8.28683 36.5562 8.38431 34.1205 10.0031 32.7572L12.0133 31.0643C15.7921 27.8819 15.7921 22.1192 12.0133 18.9369L10.0031 17.2439Z" fill="url(#paint0_linear_432_13965)"/>
</g>
<g filter="url(#filter2_i_432_13965)">
<path d="M10.0628 7.69768L7.76938 9.96105C5.0836 12.6117 5.25778 16.9596 8.14678 19.3927L10.157 21.0856C12.5965 23.1402 12.5965 26.8596 10.157 28.9141L8.14678 30.6071C5.25778 33.0401 5.0836 37.3881 7.76938 40.0387L10.003 42.2431C12.6877 44.8926 17.0904 44.7211 19.5552 41.8706L21.4688 39.6575C23.4473 37.3694 27.0309 37.3694 29.0095 39.6575L30.9231 41.8706C33.3879 44.7211 37.7906 44.8926 40.4753 42.2431L42.7089 40.0387C45.3947 37.3881 45.2205 33.0401 42.3315 30.6071L40.5536 29.1097C37.9921 26.9525 37.9921 23.0472 40.5536 20.89L42.3315 19.3927C45.2205 16.9596 45.3947 12.6117 42.7089 9.96105L40.4155 7.69768C37.7702 5.08704 33.4452 5.20939 30.9557 7.96559L28.9391 10.1983C26.9683 12.3803 23.51 12.3803 21.5391 10.1983L19.5225 7.96559C17.0331 5.20938 12.7081 5.08704 10.0628 7.69768ZM10.0837 17.1476C8.52114 15.8317 8.42724 13.4814 9.87952 12.0482L12.1729 9.78481C13.605 8.3715 15.9473 8.43792 17.2948 9.92975L19.3114 12.1624C22.4695 15.6589 28.0088 15.6589 31.1669 12.1624L33.1835 9.92975C34.531 8.43793 36.8733 8.3715 38.3053 9.78481L40.5988 12.0482C42.051 13.4814 41.9571 15.8317 40.3946 17.1476L38.6166 18.645C34.6566 21.98 34.6566 28.0198 38.6166 31.3548L40.3946 32.8521C41.9571 34.1681 42.051 36.5183 40.5988 37.9516L38.3651 40.156C36.9117 41.5903 34.5273 41.4972 33.1933 39.9544L31.2797 37.7414C28.1092 34.0747 22.3691 34.0747 19.1986 37.7414L17.285 39.9544C15.951 41.4972 13.5666 41.5903 12.1132 40.156L9.87952 37.9516C8.42724 36.5183 8.52114 34.1681 10.0837 32.8521L12.0939 31.1592C15.932 27.9269 15.932 22.0729 12.0939 18.8406L10.0837 17.1476Z" stroke="#92928C" stroke-width="0.25"/>
</g>
<defs>
<filter id="filter0_d_432_13965" x="0.723145" y="0.64209" width="49.0317" height="48.6577" filterUnits="userSpaceOnUse" color-interpolation-filters="sRGB">
<feFlood flood-opacity="0" result="BackgroundImageFix"/>
<feColorMatrix in="SourceAlpha" type="matrix" values="0 0 0 0 0 0 0 0 0 0 0 0 0 0 0 0 0 0 127 0" result="hardAlpha"/>
<feOffset/>
<feGaussianBlur stdDeviation="4"/>
<feComposite in2="hardAlpha" operator="out"/>
<feColorMatrix type="matrix" values="0 0 0 0 0 0 0 0 0 0 0 0 0 0 0 0 0 0 0.06 0"/>
<feBlend mode="normal" in2="BackgroundImageFix" result="effect1_dropShadow_432_13965"/>
<feBlend mode="normal" in="SourceGraphic" in2="effect1_dropShadow_432_13965" result="shape"/>
</filter>
<filter id="filter1_i_432_13965" x="8.72314" y="8.64209" width="33.0317" height="39.7688" filterUnits="userSpaceOnUse" color-interpolation-filters="sRGB">
<feFlood flood-opacity="0" result="BackgroundImageFix"/>
<feBlend mode="normal" in="SourceGraphic" in2="BackgroundImageFix" result="shape"/>
<feColorMatrix in="SourceAlpha" type="matrix" values="0 0 0 0 0 0 0 0 0 0 0 0 0 0 0 0 0 0 127 0" result="hardAlpha"/>
<feOffset dy="7.1111"/>
<feGaussianBlur stdDeviation="3.55555"/>
<feComposite in2="hardAlpha" operator="arithmetic" k2="-1" k3="1"/>
<feColorMatrix type="matrix" values="0 0 0 0 0 0 0 0 0 0 0 0 0 0 0 0 0 0 0.06 0"/>
<feBlend mode="normal" in2="shape" result="effect1_innerShadow_432_13965"/>
</filter>
<filter id="filter2_i_432_13965" x="5.73743" y="5.69141" width="39.0034" height="45.6692" filterUnits="userSpaceOnUse" color-interpolation-filters="sRGB">
<feFlood flood-opacity="0" result="BackgroundImageFix"/>
<feBlend mode="normal" in="SourceGraphic" in2="BackgroundImageFix" result="shape"/>
<feColorMatrix in="SourceAlpha" type="matrix" values="0 0 0 0 0 0 0 0 0 0 0 0 0 0 0 0 0 0 127 0" result="hardAlpha"/>
<feOffset dy="7.1111"/>
<feGaussianBlur stdDeviation="3.55555"/>
<feComposite in2="hardAlpha" operator="arithmetic" k2="-1" k3="1"/>
<feColorMatrix type="matrix" values="0 0 0 0 1 0 0 0 0 1 0 0 0 0 1 0 0 0 0.2 0"/>
<feBlend mode="normal" in2="shape" result="effect1_innerShadow_432_13965"/>
</filter>
<linearGradient id="paint0_linear_432_13965" x1="25.239" y1="8.64209" x2="25.239" y2="41.3" gradientUnits="userSpaceOnUse">
<stop stop-color="#EBEBEA"/>
<stop offset="1" stop-color="#EBEBEA" stop-opacity="0"/>
</linearGradient>
</defs>
</svg>
