<svg width="448" height="551" viewBox="0 0 448 551" fill="none" xmlns="http://www.w3.org/2000/svg">
<path d="M318.12 539.192C318.035 538.755 317.811 538.408 317.448 538.152C317.085 537.896 316.68 537.768 316.232 537.768C315.784 537.768 315.416 537.875 315.128 538.088C314.84 538.301 314.696 538.584 314.696 538.936C314.696 539.277 314.867 539.544 315.208 539.736C315.56 539.917 316.008 540.061 316.552 540.168C317.32 540.307 317.949 540.477 318.44 540.68C318.941 540.872 319.331 541.139 319.608 541.48C319.885 541.811 320.024 542.248 320.024 542.792C320.024 543.325 319.859 543.773 319.528 544.136C319.208 544.488 318.787 544.755 318.264 544.936C317.741 545.107 317.171 545.192 316.552 545.192C315.827 545.192 315.181 545.075 314.616 544.84C314.051 544.605 313.597 544.275 313.256 543.848C312.925 543.411 312.739 542.904 312.696 542.328L314.472 542.216C314.536 542.536 314.653 542.813 314.824 543.048C315.005 543.272 315.24 543.448 315.528 543.576C315.816 543.693 316.152 543.752 316.536 543.752C316.984 543.752 317.379 543.672 317.72 543.512C318.061 543.341 318.232 543.075 318.232 542.712C318.232 542.467 318.157 542.269 318.008 542.12C317.869 541.971 317.693 541.864 317.48 541.8C317.277 541.725 316.989 541.645 316.616 541.56C316.531 541.549 316.408 541.528 316.248 541.496C315.523 541.336 314.931 541.171 314.472 541C314.013 540.819 313.635 540.568 313.336 540.248C313.048 539.928 312.904 539.512 312.904 539C312.904 538.456 313.043 537.987 313.32 537.592C313.608 537.187 314.008 536.877 314.52 536.664C315.043 536.44 315.656 536.328 316.36 536.328C317.288 536.328 318.072 536.579 318.712 537.08C319.352 537.571 319.747 538.243 319.896 539.096L318.12 539.192Z" fill="#DBFE01"/>
<path d="M300.791 536.52L300.855 537.896C301.058 537.395 301.362 537.011 301.767 536.744C302.183 536.467 302.679 536.328 303.255 536.328C303.863 536.328 304.38 536.483 304.807 536.792C305.234 537.091 305.538 537.523 305.719 538.088C305.911 537.512 306.22 537.075 306.647 536.776C307.084 536.477 307.623 536.328 308.263 536.328C308.828 536.328 309.314 536.456 309.719 536.712C310.135 536.957 310.45 537.32 310.663 537.8C310.887 538.28 310.999 538.861 310.999 539.544V545H309.287V540.072C309.287 539.325 309.159 538.76 308.903 538.376C308.647 537.981 308.279 537.784 307.799 537.784C307.404 537.784 307.063 537.875 306.775 538.056C306.498 538.227 306.29 538.483 306.151 538.824C306.012 539.165 305.943 539.581 305.943 540.072V545H304.311V540.072C304.311 539.581 304.252 539.165 304.135 538.824C304.018 538.483 303.847 538.227 303.623 538.056C303.399 537.875 303.132 537.784 302.823 537.784C302.439 537.784 302.103 537.875 301.815 538.056C301.538 538.237 301.324 538.499 301.175 538.84C301.036 539.181 300.967 539.592 300.967 540.072V545H299.239V536.52H300.791Z" fill="#DBFE01"/>
<path d="M289.559 539.064C289.729 538.211 290.129 537.544 290.759 537.064C291.399 536.573 292.209 536.328 293.191 536.328C294.353 536.328 295.239 536.637 295.847 537.256C296.465 537.864 296.775 538.755 296.775 539.928V543.08C296.775 543.272 296.817 543.416 296.903 543.512C296.988 543.597 297.116 543.64 297.287 543.64H297.639V545H297.095H297.015C296.727 545.011 296.449 544.984 296.183 544.92C295.916 544.856 295.687 544.728 295.495 544.536C295.313 544.344 295.212 544.067 295.191 543.704C294.988 544.131 294.652 544.488 294.183 544.776C293.713 545.053 293.143 545.192 292.471 545.192C291.596 545.192 290.865 544.973 290.279 544.536C289.703 544.099 289.415 543.512 289.415 542.776C289.415 542.232 289.543 541.795 289.799 541.464C290.055 541.133 290.407 540.877 290.855 540.696C291.303 540.515 291.895 540.349 292.631 540.2L295.047 539.736C295.036 539.053 294.876 538.552 294.567 538.232C294.268 537.901 293.809 537.736 293.191 537.736C292.711 537.736 292.311 537.859 291.991 538.104C291.671 538.349 291.452 538.707 291.335 539.176L289.559 539.064ZM291.207 542.744C291.207 543.075 291.345 543.347 291.623 543.56C291.9 543.763 292.305 543.864 292.839 543.864C293.265 543.864 293.649 543.763 293.991 543.56C294.332 543.347 294.599 543.037 294.791 542.632C294.983 542.216 295.079 541.715 295.079 541.128V541.048L293.287 541.368L292.999 541.416C292.561 541.491 292.225 541.565 291.991 541.64C291.756 541.715 291.564 541.843 291.415 542.024C291.276 542.195 291.207 542.435 291.207 542.744Z" fill="#DBFE01"/>
<path d="M280.009 540.76C280.009 539.864 280.174 539.085 280.505 538.424C280.846 537.752 281.321 537.235 281.929 536.872C282.537 536.509 283.246 536.328 284.057 536.328C284.75 536.328 285.379 536.488 285.945 536.808C286.521 537.117 286.979 537.603 287.321 538.264C287.673 538.915 287.865 539.725 287.897 540.696V541.256H281.833C281.886 542.035 282.105 542.643 282.489 543.08C282.873 543.507 283.395 543.72 284.057 543.72C284.483 543.72 284.867 543.608 285.209 543.384C285.55 543.16 285.811 542.845 285.993 542.44L287.785 542.568C287.529 543.368 287.059 544.008 286.377 544.488C285.705 544.957 284.931 545.192 284.057 545.192C283.246 545.192 282.537 545.011 281.929 544.648C281.321 544.285 280.846 543.773 280.505 543.112C280.174 542.44 280.009 541.656 280.009 540.76ZM286.089 539.96C285.982 539.213 285.747 538.669 285.385 538.328C285.022 537.976 284.579 537.8 284.057 537.8C283.449 537.8 282.953 537.992 282.569 538.376C282.195 538.749 281.955 539.277 281.849 539.96H286.089Z" fill="#DBFE01"/>
<path d="M280.034 535.24H276.562V545H274.802V535.24H271.33V533.64H280.034V535.24Z" fill="#DBFE01"/>
<path d="M258.415 540.76C258.415 539.864 258.58 539.085 258.911 538.424C259.252 537.752 259.727 537.235 260.335 536.872C260.943 536.509 261.652 536.328 262.463 536.328C263.156 536.328 263.785 536.488 264.351 536.808C264.927 537.117 265.385 537.603 265.727 538.264C266.079 538.915 266.271 539.725 266.303 540.696V541.256H260.239C260.292 542.035 260.511 542.643 260.895 543.08C261.279 543.507 261.801 543.72 262.463 543.72C262.889 543.72 263.273 543.608 263.615 543.384C263.956 543.16 264.217 542.845 264.399 542.44L266.191 542.568C265.935 543.368 265.465 544.008 264.783 544.488C264.111 544.957 263.337 545.192 262.463 545.192C261.652 545.192 260.943 545.011 260.335 544.648C259.727 544.285 259.252 543.773 258.911 543.112C258.58 542.44 258.415 541.656 258.415 540.76ZM264.495 539.96C264.388 539.213 264.153 538.669 263.791 538.328C263.428 537.976 262.985 537.8 262.463 537.8C261.855 537.8 261.359 537.992 260.975 538.376C260.601 538.749 260.361 539.277 260.255 539.96H264.495Z" fill="#DBFE01"/>
<path d="M255.998 533.64V543.032C255.998 543.213 256.046 543.352 256.142 543.448C256.238 543.544 256.377 543.592 256.558 543.592H257.246V545H256.174C255.609 545 255.15 544.829 254.798 544.488C254.446 544.136 254.27 543.672 254.27 543.096V533.64H255.998Z" fill="#DBFE01"/>
<path d="M251.873 536.52V545H250.145V536.52H251.873ZM251.905 533.64V535.272H250.113V533.64H251.905Z" fill="#DBFE01"/>
<path d="M242.373 533.64V537.64C242.608 537.235 242.955 536.915 243.413 536.68C243.872 536.445 244.379 536.328 244.933 536.328C245.659 536.328 246.293 536.509 246.837 536.872C247.381 537.235 247.797 537.752 248.085 538.424C248.373 539.085 248.517 539.864 248.517 540.76C248.517 541.656 248.373 542.44 248.085 543.112C247.797 543.773 247.381 544.285 246.837 544.648C246.293 545.011 245.659 545.192 244.933 545.192C244.357 545.192 243.835 545.069 243.365 544.824C242.896 544.579 242.539 544.237 242.293 543.8L242.245 545H240.645V533.64H242.373ZM242.245 540.76C242.245 541.347 242.336 541.864 242.517 542.312C242.699 542.76 242.96 543.107 243.301 543.352C243.643 543.587 244.037 543.704 244.485 543.704C245.168 543.704 245.712 543.437 246.117 542.904C246.533 542.371 246.741 541.656 246.741 540.76C246.741 539.843 246.539 539.117 246.133 538.584C245.728 538.04 245.179 537.768 244.485 537.768C244.037 537.768 243.643 537.891 243.301 538.136C242.96 538.381 242.699 538.728 242.517 539.176C242.336 539.624 242.245 540.152 242.245 540.76Z" fill="#DBFE01"/>
<path d="M234.979 545.192C234.168 545.192 233.459 545.011 232.851 544.648C232.243 544.285 231.768 543.773 231.427 543.112C231.096 542.44 230.931 541.656 230.931 540.76C230.931 539.864 231.096 539.085 231.427 538.424C231.757 537.752 232.227 537.235 232.835 536.872C233.453 536.509 234.168 536.328 234.979 536.328C235.789 536.328 236.499 536.509 237.107 536.872C237.715 537.235 238.184 537.752 238.515 538.424C238.856 539.085 239.027 539.864 239.027 540.76C239.027 541.656 238.861 542.44 238.531 543.112C238.2 543.773 237.725 544.285 237.107 544.648C236.499 545.011 235.789 545.192 234.979 545.192ZM234.979 543.704C235.693 543.704 236.248 543.448 236.643 542.936C237.037 542.413 237.235 541.688 237.235 540.76C237.235 539.832 237.037 539.112 236.643 538.6C236.248 538.077 235.693 537.816 234.979 537.816C234.264 537.816 233.709 538.077 233.315 538.6C232.92 539.112 232.723 539.832 232.723 540.76C232.723 541.688 232.92 542.413 233.315 542.936C233.709 543.448 234.264 543.704 234.979 543.704Z" fill="#DBFE01"/>
<path d="M220.033 533.64L223.393 542.936L226.753 533.64H229.137V545H227.393V536.856L224.369 544.984H222.417L219.409 536.856V545H217.649V533.64H220.033Z" fill="#DBFE01"/>
<path d="M205.867 533H207.563L202.827 546.76H201.147L205.867 533Z" fill="#DBFE01"/>
<path d="M193.731 533.64H195.459V545H193.859L193.811 543.8C193.565 544.237 193.208 544.579 192.739 544.824C192.269 545.069 191.747 545.192 191.171 545.192C190.445 545.192 189.811 545.011 189.267 544.648C188.723 544.285 188.307 543.773 188.019 543.112C187.731 542.44 187.587 541.656 187.587 540.76C187.587 539.864 187.731 539.085 188.019 538.424C188.307 537.752 188.723 537.235 189.267 536.872C189.811 536.509 190.445 536.328 191.171 536.328C191.725 536.328 192.232 536.445 192.691 536.68C193.149 536.915 193.496 537.235 193.731 537.64V533.64ZM193.587 542.312C193.768 541.864 193.859 541.347 193.859 540.76C193.859 540.152 193.768 539.624 193.587 539.176C193.405 538.728 193.144 538.381 192.803 538.136C192.461 537.891 192.067 537.768 191.619 537.768C190.925 537.768 190.376 538.04 189.971 538.584C189.565 539.117 189.363 539.843 189.363 540.76C189.363 541.656 189.565 542.371 189.971 542.904C190.387 543.437 190.936 543.704 191.619 543.704C192.067 543.704 192.461 543.587 192.803 543.352C193.144 543.107 193.405 542.76 193.587 542.312Z" fill="#DBFE01"/>
<path d="M180.385 536.52L180.465 538.792L180.257 538.632C180.395 537.853 180.71 537.277 181.201 536.904C181.691 536.52 182.294 536.328 183.009 536.328C183.937 536.328 184.651 536.627 185.153 537.224C185.654 537.811 185.905 538.584 185.905 539.544V545H184.177V540.072C184.177 539.56 184.123 539.139 184.017 538.808C183.91 538.467 183.734 538.211 183.489 538.04C183.254 537.869 182.945 537.784 182.561 537.784C181.931 537.784 181.441 537.981 181.089 538.376C180.737 538.76 180.561 539.325 180.561 540.072V545H178.833V536.52H180.385Z" fill="#DBFE01"/>
<path d="M169.134 540.76C169.134 539.864 169.299 539.085 169.63 538.424C169.971 537.752 170.446 537.235 171.054 536.872C171.662 536.509 172.371 536.328 173.182 536.328C173.875 536.328 174.504 536.488 175.07 536.808C175.646 537.117 176.104 537.603 176.446 538.264C176.798 538.915 176.99 539.725 177.022 540.696V541.256H170.958C171.011 542.035 171.23 542.643 171.614 543.08C171.998 543.507 172.52 543.72 173.182 543.72C173.608 543.72 173.992 543.608 174.334 543.384C174.675 543.16 174.936 542.845 175.118 542.44L176.91 542.568C176.654 543.368 176.184 544.008 175.502 544.488C174.83 544.957 174.056 545.192 173.182 545.192C172.371 545.192 171.662 545.011 171.054 544.648C170.446 544.285 169.971 543.773 169.63 543.112C169.299 542.44 169.134 541.656 169.134 540.76ZM175.214 539.96C175.107 539.213 174.872 538.669 174.51 538.328C174.147 537.976 173.704 537.8 173.182 537.8C172.574 537.8 172.078 537.992 171.694 538.376C171.32 538.749 171.08 539.277 170.974 539.96H175.214Z" fill="#DBFE01"/>
<path d="M165.831 534.6V542.552C165.831 542.893 165.911 543.155 166.071 543.336C166.242 543.507 166.487 543.592 166.807 543.592H168.071V545H166.647C165.815 545 165.181 544.792 164.743 544.376C164.317 543.96 164.103 543.352 164.103 542.552V534.6H165.831ZM168.087 536.52V537.928H162.823V536.52H168.087Z" fill="#DBFE01"/>
<path d="M155.65 536.52L155.73 538.792L155.522 538.632C155.661 537.853 155.976 537.277 156.466 536.904C156.957 536.52 157.56 536.328 158.274 536.328C159.202 536.328 159.917 536.627 160.418 537.224C160.92 537.811 161.17 538.584 161.17 539.544V545H159.442V540.072C159.442 539.56 159.389 539.139 159.282 538.808C159.176 538.467 159 538.211 158.754 538.04C158.52 537.869 158.21 537.784 157.826 537.784C157.197 537.784 156.706 537.981 156.354 538.376C156.002 538.76 155.826 539.325 155.826 540.072V545H154.098V536.52H155.65Z" fill="#DBFE01"/>
<path d="M148.26 545.192C147.449 545.192 146.74 545.011 146.132 544.648C145.524 544.285 145.049 543.773 144.708 543.112C144.377 542.44 144.212 541.656 144.212 540.76C144.212 539.864 144.377 539.085 144.708 538.424C145.038 537.752 145.508 537.235 146.116 536.872C146.734 536.509 147.449 536.328 148.26 536.328C149.07 536.328 149.78 536.509 150.388 536.872C150.996 537.235 151.465 537.752 151.796 538.424C152.137 539.085 152.308 539.864 152.308 540.76C152.308 541.656 152.142 542.44 151.812 543.112C151.481 543.773 151.006 544.285 150.388 544.648C149.78 545.011 149.07 545.192 148.26 545.192ZM148.26 543.704C148.974 543.704 149.529 543.448 149.924 542.936C150.318 542.413 150.516 541.688 150.516 540.76C150.516 539.832 150.318 539.112 149.924 538.6C149.529 538.077 148.974 537.816 148.26 537.816C147.545 537.816 146.99 538.077 146.596 538.6C146.201 539.112 146.004 539.832 146.004 540.76C146.004 541.688 146.201 542.413 146.596 542.936C146.99 543.448 147.545 543.704 148.26 543.704Z" fill="#DBFE01"/>
<path d="M140.573 536.52L140.637 538.824L140.493 538.712C140.6 537.955 140.824 537.4 141.165 537.048C141.506 536.696 141.997 536.52 142.637 536.52H143.437V537.928H142.621C142.184 537.928 141.821 538.008 141.533 538.168C141.256 538.328 141.048 538.568 140.909 538.888C140.781 539.197 140.717 539.587 140.717 540.056V545H138.989V536.52H140.573Z" fill="#DBFE01"/>
<path d="M137.01 533.64V535.24H130.45L131.394 534.296V539.496L130.45 538.664H136.722V540.232H130.45L131.394 539.4V545H129.634V533.64H137.01Z" fill="#DBFE01"/>
<rect y="201" width="446" height="310" rx="16" fill="#191918"/>
<rect x="1" y="202" width="444" height="308" rx="15" stroke="url(#paint0_linear_758_6133)" stroke-opacity="0.5" stroke-width="2" stroke-dasharray="4 4"/>
<rect x="8.44429" y="419.444" width="140.445" height="83.1114" rx="9.55571" fill="#141413"/>
<rect x="8.44429" y="419.444" width="140.445" height="83.1114" rx="9.55571" stroke="#222221" stroke-width="0.888571"/>
<path d="M78.0381 443.736L76.0381 441.736" stroke="#B0CB01" stroke-width="1.06628" stroke-linecap="round" stroke-linejoin="round"/>
<path d="M79.3125 443.736L81.3125 441.736" stroke="#B0CB01" stroke-width="1.06628" stroke-linecap="round" stroke-linejoin="round"/>
<path d="M83.3967 448.351C83.472 448.354 83.5468 448.338 83.6139 448.303C83.6809 448.269 83.738 448.218 83.7797 448.155C83.8217 448.095 83.8495 448.025 83.8608 447.952C83.8721 447.88 83.8667 447.805 83.845 447.735C83.411 446.527 82.6085 445.486 81.551 444.758C80.4934 444.031 79.2342 443.654 77.9509 443.681C76.667 443.651 75.4065 444.027 74.3484 444.755C73.2903 445.483 72.4884 446.525 72.0568 447.735C72.0328 447.805 72.0263 447.88 72.0377 447.953C72.0491 448.026 72.0781 448.096 72.1222 448.155C72.1623 448.217 72.2178 448.268 72.2832 448.302C72.3487 448.337 72.4219 448.354 72.4958 448.351H83.3967Z" stroke="#B0CB01" stroke-width="1.06628" stroke-linecap="round" stroke-linejoin="round"/>
<path d="M77.1774 446.602C77.0484 446.602 76.9438 446.498 76.9438 446.369C76.9438 446.24 77.0484 446.135 77.1774 446.135" stroke="#B0CB01" stroke-width="1.06628"/>
<path d="M76.9438 446.602C77.0728 446.602 77.1774 446.498 77.1774 446.369C77.1774 446.24 77.0728 446.135 76.9438 446.135" stroke="#B0CB01" stroke-width="1.06628"/>
<path d="M80.4518 446.602C80.3228 446.602 80.2183 446.498 80.2183 446.369C80.2183 446.24 80.3228 446.135 80.4518 446.135" stroke="#B0CB01" stroke-width="1.06628"/>
<path d="M80.2183 446.602C80.3473 446.602 80.4518 446.498 80.4518 446.369C80.4518 446.24 80.3473 446.135 80.2183 446.135" stroke="#B0CB01" stroke-width="1.06628"/>
<path d="M69.5882 459.581V451.641C69.5618 451.451 69.5799 451.258 69.641 451.076C69.7021 450.894 69.8045 450.728 69.9403 450.592C70.076 450.457 70.2414 450.354 70.4234 450.293C70.6054 450.232 70.7992 450.214 70.9893 450.24H72.3905" stroke="#B0CB01" stroke-width="1.06628" stroke-linecap="round" stroke-linejoin="round"/>
<path d="M87.1136 459.581V451.641C87.1399 451.451 87.1219 451.258 87.0608 451.076C86.9997 450.894 86.8972 450.728 86.7614 450.592C86.6257 450.457 86.4604 450.354 86.2783 450.293C86.0963 450.232 85.9026 450.214 85.7124 450.24H84.3113" stroke="#B0CB01" stroke-width="1.06628" stroke-linecap="round" stroke-linejoin="round"/>
<path d="M72.0325 458.168V450.229H84.1757V458.168" stroke="#B0CB01" stroke-width="1.06628" stroke-linecap="round" stroke-linejoin="round"/>
<path d="M104.501 469.371H105.877V480.731H104.629L104.581 479.547C104.347 479.973 103.989 480.309 103.509 480.555C103.029 480.8 102.496 480.923 101.909 480.923C101.184 480.923 100.549 480.741 100.005 480.379C99.4614 480.016 99.0454 479.504 98.7574 478.843C98.4694 478.171 98.3254 477.387 98.3254 476.491C98.3254 475.595 98.4694 474.816 98.7574 474.155C99.0454 473.483 99.4614 472.965 100.005 472.603C100.549 472.24 101.184 472.059 101.909 472.059C102.475 472.059 102.987 472.176 103.445 472.411C103.915 472.635 104.267 472.944 104.501 473.339V469.371ZM104.325 478.155C104.528 477.675 104.629 477.12 104.629 476.491C104.629 475.851 104.528 475.291 104.325 474.811C104.133 474.331 103.851 473.963 103.477 473.707C103.115 473.44 102.688 473.307 102.197 473.307C101.451 473.307 100.859 473.595 100.421 474.171C99.9841 474.747 99.7654 475.52 99.7654 476.491C99.7654 477.451 99.9841 478.213 100.421 478.779C100.859 479.333 101.451 479.611 102.197 479.611C102.688 479.611 103.115 479.488 103.477 479.243C103.851 478.987 104.133 478.624 104.325 478.155Z" fill="#BCBCB8"/>
<path d="M96.292 472.251V480.731H94.916V472.251H96.292ZM96.324 469.371V470.923H94.884V469.371H96.324Z" fill="#BCBCB8"/>
<path d="M89.3072 480.923C88.5285 480.923 87.8459 480.741 87.2592 480.379C86.6725 480.016 86.2192 479.504 85.8992 478.843C85.5792 478.171 85.4192 477.387 85.4192 476.491C85.4192 475.595 85.5792 474.816 85.8992 474.155C86.2192 473.483 86.6725 472.965 87.2592 472.603C87.8459 472.24 88.5285 472.059 89.3072 472.059C90.0859 472.059 90.7685 472.24 91.3552 472.603C91.9419 472.965 92.3952 473.483 92.7152 474.155C93.0352 474.816 93.1952 475.595 93.1952 476.491C93.1952 477.387 93.0352 478.171 92.7152 478.843C92.3952 479.504 91.9419 480.016 91.3552 480.379C90.7685 480.741 90.0859 480.923 89.3072 480.923ZM89.3072 479.611C90.0859 479.611 90.6885 479.339 91.1152 478.795C91.5419 478.24 91.7552 477.472 91.7552 476.491C91.7552 475.509 91.5419 474.747 91.1152 474.203C90.6885 473.648 90.0859 473.371 89.3072 473.371C88.5285 473.371 87.9259 473.648 87.4992 474.203C87.0725 474.747 86.8592 475.509 86.8592 476.491C86.8592 477.472 87.0725 478.24 87.4992 478.795C87.9259 479.339 88.5285 479.611 89.3072 479.611Z" fill="#BCBCB8"/>
<path d="M81.6789 472.25L81.7429 474.458L81.6149 474.33C81.7109 473.605 81.9242 473.077 82.2549 472.746C82.5962 472.416 83.0869 472.25 83.7269 472.25H84.5589V473.466H83.7269C83.3002 473.466 82.9429 473.552 82.6549 473.722C82.3776 473.882 82.1696 474.128 82.0309 474.458C81.9029 474.778 81.8389 475.184 81.8389 475.674V480.73H80.4629V472.25H81.6789Z" fill="#BCBCB8"/>
<path d="M76.7671 469.371H78.1431V480.731H76.8951L76.8471 479.547C76.6124 479.973 76.2551 480.309 75.7751 480.555C75.2951 480.8 74.7617 480.923 74.1751 480.923C73.4497 480.923 72.8151 480.741 72.2711 480.379C71.7271 480.016 71.3111 479.504 71.0231 478.843C70.7351 478.171 70.5911 477.387 70.5911 476.491C70.5911 475.595 70.7351 474.816 71.0231 474.155C71.3111 473.483 71.7271 472.965 72.2711 472.603C72.8151 472.24 73.4497 472.059 74.1751 472.059C74.7404 472.059 75.2524 472.176 75.7111 472.411C76.1804 472.635 76.5324 472.944 76.7671 473.339V469.371ZM76.5911 478.155C76.7937 477.675 76.8951 477.12 76.8951 476.491C76.8951 475.851 76.7937 475.291 76.5911 474.811C76.3991 474.331 76.1164 473.963 75.7431 473.707C75.3804 473.44 74.9537 473.307 74.4631 473.307C73.7164 473.307 73.1244 473.595 72.6871 474.171C72.2497 474.747 72.0311 475.52 72.0311 476.491C72.0311 477.451 72.2497 478.213 72.6871 478.779C73.1244 479.333 73.7164 479.611 74.4631 479.611C74.9537 479.611 75.3804 479.488 75.7431 479.243C76.1164 478.987 76.3991 478.624 76.5911 478.155Z" fill="#BCBCB8"/>
<path d="M63.289 472.251L63.353 474.411L63.177 474.219C63.3263 473.504 63.6463 472.965 64.137 472.603C64.6383 472.24 65.2357 472.059 65.929 472.059C66.857 472.059 67.5664 472.357 68.057 472.955C68.5477 473.552 68.793 474.325 68.793 475.275V480.731H67.417V475.659C67.417 475.136 67.353 474.699 67.225 474.347C67.1077 473.995 66.9157 473.728 66.649 473.547C66.393 473.365 66.057 473.275 65.641 473.275C64.9584 473.275 64.4143 473.483 64.009 473.899C63.6143 474.304 63.417 474.891 63.417 475.659V480.731H62.041V472.251H63.289Z" fill="#BCBCB8"/>
<path d="M54.4429 469.371H56.3309L60.4269 480.731H58.8909L57.7709 477.515H53.0029L51.8829 480.731H50.3469L54.4429 469.371ZM57.2909 476.139L55.3869 470.603L53.4829 476.139H57.2909Z" fill="#BCBCB8"/>
<rect x="153.778" y="419.444" width="140.445" height="83.1114" rx="9.55571" fill="#141413"/>
<rect x="153.778" y="419.444" width="140.445" height="83.1114" rx="9.55571" stroke="#222221" stroke-width="0.888571"/>
<path d="M228.365 453.112C228.371 452.517 228.529 451.932 228.823 451.414C229.117 450.895 229.537 450.46 230.045 450.148C229.722 449.689 229.297 449.31 228.803 449.042C228.31 448.774 227.761 448.623 227.199 448.602C225.987 448.484 224.822 449.316 224.219 449.316C223.617 449.316 222.634 448.618 221.651 448.634C220.991 448.652 220.346 448.841 219.78 449.182C219.215 449.524 218.748 450.007 218.425 450.584C217.054 452.962 218.076 456.497 219.416 458.431C220.066 459.374 220.851 460.436 221.873 460.397C222.896 460.357 223.236 459.762 224.425 459.762C225.614 459.762 225.955 460.397 226.993 460.381C228.032 460.365 228.729 459.414 229.371 458.471C229.836 457.797 230.201 457.06 230.457 456.283C229.836 456.018 229.306 455.577 228.933 455.013C228.561 454.449 228.364 453.788 228.365 453.112Z" stroke="#B0CB01" stroke-width="1.06628" stroke-linecap="round" stroke-linejoin="round"/>
<path d="M226.961 444.887C227.63 444.097 227.963 443.075 227.888 442.042C226.873 442.137 225.933 442.619 225.264 443.389C224.928 443.769 224.673 444.212 224.513 444.693C224.354 445.174 224.294 445.683 224.337 446.187C224.845 446.186 225.345 446.068 225.8 445.843C226.255 445.618 226.652 445.291 226.961 444.887Z" stroke="#B0CB01" stroke-width="1.06628" stroke-linecap="round" stroke-linejoin="round"/>
<path d="M229.381 477.002C229.487 477.514 229.674 477.962 229.941 478.346C230.207 478.73 230.559 479.029 230.997 479.242C231.434 479.445 231.946 479.546 232.533 479.546C233.023 479.546 233.445 479.482 233.797 479.354C234.159 479.226 234.437 479.04 234.629 478.794C234.831 478.538 234.933 478.229 234.933 477.866C234.933 477.301 234.677 476.832 234.165 476.458C233.653 476.074 232.826 475.738 231.685 475.45C230.629 475.184 229.775 474.794 229.125 474.282C228.474 473.77 228.149 473.088 228.149 472.234C228.149 471.605 228.303 471.056 228.613 470.586C228.933 470.117 229.37 469.754 229.925 469.498C230.49 469.242 231.135 469.114 231.861 469.114C232.661 469.114 233.37 469.269 233.989 469.578C234.618 469.888 235.114 470.314 235.477 470.858C235.85 471.402 236.079 472.026 236.165 472.73L234.693 472.826C234.629 472.357 234.469 471.946 234.213 471.594C233.957 471.242 233.626 470.97 233.221 470.778C232.815 470.586 232.357 470.49 231.845 470.49C231.194 470.49 230.661 470.65 230.245 470.97C229.829 471.28 229.621 471.701 229.621 472.234C229.621 472.64 229.754 472.976 230.021 473.242C230.287 473.498 230.602 473.701 230.965 473.85C231.338 473.989 231.829 474.144 232.437 474.314L232.693 474.378C233.823 474.698 234.725 475.13 235.397 475.674C236.069 476.218 236.405 476.901 236.405 477.722C236.405 478.394 236.218 478.976 235.845 479.466C235.482 479.946 234.997 480.309 234.389 480.554C233.781 480.8 233.125 480.922 232.421 480.922C231.599 480.922 230.858 480.768 230.197 480.458C229.535 480.138 229.002 479.69 228.597 479.114C228.202 478.528 227.973 477.856 227.909 477.098L229.381 477.002Z" fill="#BCBCB8"/>
<path d="M220.98 480.986C219.902 480.986 218.974 480.752 218.196 480.282C217.417 479.802 216.82 479.12 216.404 478.234C215.988 477.338 215.78 476.282 215.78 475.066C215.78 473.84 215.988 472.784 216.404 471.898C216.82 471.002 217.417 470.314 218.196 469.834C218.974 469.354 219.902 469.114 220.98 469.114C222.057 469.114 222.985 469.354 223.764 469.834C224.542 470.314 225.14 471.002 225.556 471.898C225.972 472.784 226.18 473.84 226.18 475.066C226.18 476.282 225.972 477.338 225.556 478.234C225.14 479.12 224.542 479.802 223.764 480.282C222.985 480.752 222.057 480.986 220.98 480.986ZM220.98 479.61C221.748 479.61 222.409 479.429 222.964 479.066C223.529 478.704 223.961 478.181 224.26 477.498C224.558 476.816 224.708 476.005 224.708 475.066C224.708 474.117 224.558 473.301 224.26 472.618C223.961 471.936 223.529 471.413 222.964 471.05C222.409 470.677 221.748 470.49 220.98 470.49C220.212 470.49 219.545 470.677 218.98 471.05C218.425 471.413 217.998 471.936 217.7 472.618C217.401 473.301 217.252 474.117 217.252 475.066C217.252 476.005 217.401 476.816 217.7 477.498C217.998 478.181 218.425 478.704 218.98 479.066C219.545 479.429 220.212 479.61 220.98 479.61Z" fill="#BCBCB8"/>
<path d="M213.949 472.25V480.73H212.573V472.25H213.949ZM213.981 469.37V470.922H212.541V469.37H213.981Z" fill="#BCBCB8"/>
<rect x="299.111" y="419.444" width="140.445" height="83.1114" rx="9.55571" fill="#141413"/>
<rect x="299.111" y="419.444" width="140.445" height="83.1114" rx="9.55571" stroke="#222221" stroke-width="0.888571"/>
<path d="M376.125 442.874H361.445C360.591 442.874 359.899 443.566 359.899 444.419V456.782C359.899 457.636 360.591 458.327 361.445 458.327H376.125C376.979 458.327 377.671 457.636 377.671 456.782V444.419C377.671 443.566 376.979 442.874 376.125 442.874Z" stroke="#B0CB01" stroke-width="0.888571" stroke-linecap="round" stroke-linejoin="round"/>
<path d="M359.899 445.874H377.671" stroke="#B0CB01" stroke-width="0.888571" stroke-linecap="round" stroke-linejoin="round"/>
<path d="M362.093 445.26C361.986 445.26 361.899 445.174 361.899 445.067C361.899 444.961 361.986 444.874 362.093 444.874" stroke="#B0CB01" stroke-width="0.888571"/>
<path d="M361.899 445.26C362.006 445.26 362.093 445.174 362.093 445.067C362.093 444.961 362.006 444.874 361.899 444.874" stroke="#B0CB01" stroke-width="0.888571"/>
<path d="M364.093 445.26C363.986 445.26 363.899 445.174 363.899 445.067C363.899 444.961 363.986 444.874 364.093 444.874" stroke="#B0CB01" stroke-width="0.888571"/>
<path d="M365.899 445.26C366.006 445.26 366.093 445.174 366.093 445.067C366.093 444.961 366.006 444.874 365.899 444.874" stroke="#B0CB01" stroke-width="0.888571"/>
<path d="M367.093 445.26C366.986 445.26 366.899 445.174 366.899 445.067C366.899 444.961 366.986 444.874 367.093 444.874" stroke="#B0CB01" stroke-width="0.888571"/>
<path d="M366.899 445.26C367.006 445.26 367.093 445.174 367.093 445.067C367.093 444.961 367.006 444.874 366.899 444.874" stroke="#B0CB01" stroke-width="0.888571"/>
<path d="M362.899 450.874L364.899 452.806L362.899 454.737" stroke="#B0CB01" stroke-width="0.888571" stroke-linecap="round" stroke-linejoin="round"/>
<path d="M368.899 452.874H371.99" stroke="#B0CB01" stroke-width="0.888571" stroke-linecap="round" stroke-linejoin="round"/>
<path d="M378.555 469.84V473.808C378.79 473.413 379.137 473.104 379.595 472.88C380.065 472.645 380.582 472.528 381.147 472.528C381.873 472.528 382.507 472.709 383.051 473.072C383.595 473.435 384.011 473.952 384.299 474.624C384.587 475.285 384.731 476.064 384.731 476.96C384.731 477.856 384.587 478.64 384.299 479.312C384.011 479.973 383.595 480.485 383.051 480.848C382.507 481.211 381.873 481.392 381.147 481.392C380.561 481.392 380.027 481.269 379.547 481.024C379.067 480.779 378.71 480.443 378.475 480.016L378.427 481.2H377.179V469.84H378.555ZM378.427 476.96C378.427 477.589 378.523 478.144 378.715 478.624C378.918 479.093 379.201 479.456 379.563 479.712C379.937 479.957 380.369 480.08 380.859 480.08C381.606 480.08 382.198 479.803 382.635 479.248C383.073 478.683 383.291 477.92 383.291 476.96C383.291 475.989 383.073 475.216 382.635 474.64C382.198 474.064 381.606 473.776 380.859 473.776C380.369 473.776 379.937 473.909 379.563 474.176C379.201 474.432 378.918 474.8 378.715 475.28C378.523 475.76 378.427 476.32 378.427 476.96Z" fill="#BCBCB8"/>
<path d="M367.87 476.96C367.87 476.064 368.03 475.285 368.35 474.624C368.67 473.952 369.123 473.434 369.71 473.072C370.297 472.709 370.979 472.528 371.758 472.528C372.409 472.528 373.001 472.677 373.534 472.976C374.078 473.264 374.521 473.728 374.862 474.368C375.203 474.997 375.395 475.797 375.438 476.768L375.454 477.392H369.326C369.39 478.245 369.63 478.906 370.046 479.376C370.473 479.845 371.043 480.08 371.758 480.08C372.217 480.08 372.633 479.957 373.006 479.712C373.379 479.466 373.662 479.125 373.854 478.688L375.326 478.8C375.081 479.589 374.627 480.218 373.966 480.688C373.315 481.157 372.579 481.392 371.758 481.392C370.979 481.392 370.297 481.21 369.71 480.848C369.123 480.485 368.67 479.973 368.35 479.312C368.03 478.64 367.87 477.856 367.87 476.96ZM373.95 476.176C373.833 475.354 373.577 474.762 373.182 474.4C372.787 474.026 372.313 473.84 371.758 473.84C371.097 473.84 370.558 474.042 370.142 474.448C369.737 474.853 369.475 475.429 369.358 476.176H373.95Z" fill="#BCBCB8"/>
<path d="M355.193 469.84L357.497 479.264L359.817 469.84H361.401L363.737 479.264L366.025 469.84H367.577L364.601 481.2H362.841L360.617 472.704L358.393 481.2H356.633L353.657 469.84H355.193Z" fill="#BCBCB8"/>
<path d="M92.9861 393.81L92.9861 387.913C92.9861 382.002 97.7947 377.219 103.706 377.251L188.113 377.701C194.024 377.733 198.833 372.95 198.833 367.038L198.833 342.468" stroke="#DBFE01" stroke-width="2" stroke-linecap="square" stroke-dasharray="3.55 3.55"/>
<path d="M350.847 393.81L350.847 387.915C350.847 382.003 346.037 377.22 340.126 377.252L257.992 377.7C252.081 377.732 247.271 372.949 247.271 367.037L247.271 342.468" stroke="#DBFE01" stroke-width="2" stroke-linecap="square" stroke-dasharray="3.55 3.55"/>
<path d="M223.144 341.843C223.144 351.94 223.144 357.602 223.144 367.7L223.144 394.628" stroke="#DBFE01" stroke-width="2" stroke-linecap="square" stroke-dasharray="3.55 3.55"/>
<path d="M198.785 338.865L198.785 324.87M206.19 331.438L198.803 324.051L191.417 331.438" stroke="#DBFE01" stroke-width="2" stroke-linecap="square"/>
<path d="M223.144 338.865L223.144 324.87M230.549 331.438L223.163 324.051L215.777 331.438" stroke="#DBFE01" stroke-width="2" stroke-linecap="square"/>
<path d="M247.335 338.864L247.335 324.869M254.74 331.437L247.354 324.051L239.968 331.437" stroke="#DBFE01" stroke-width="2" stroke-linecap="square"/>
<path d="M92.9863 394.549L92.9863 408.544M100.391 401.976L93.0049 409.363L85.6187 401.976" stroke="#DBFE01" stroke-width="2" stroke-linecap="square"/>
<g clip-path="url(#clip0_758_6133)">
<path d="M223.144 394.549L223.144 408.544" stroke="#DBFE01" stroke-width="2" stroke-linecap="square" stroke-linejoin="round"/>
<path d="M230.549 401.977L223.163 409.363L215.777 401.977" stroke="#DBFE01" stroke-width="2" stroke-linecap="square"/>
</g>
<g clip-path="url(#clip1_758_6133)">
<path d="M350.847 394.549L350.847 408.544" stroke="#DBFE01" stroke-width="2" stroke-linecap="square" stroke-linejoin="round"/>
<path d="M358.251 401.977L350.865 409.363L343.479 401.977" stroke="#DBFE01" stroke-width="2" stroke-linecap="square"/>
</g>
<g filter="url(#filter0_ddd_758_6133)">
<g clip-path="url(#clip2_758_6133)">
<rect x="107" y="228" width="229" height="86" rx="10.6628" fill="#DBFE01"/>
<g opacity="0.4">
<line x1="203.746" y1="446.453" x2="44.6466" y2="287.354" stroke="#B0CB01"/>
<line x1="206.574" y1="443.624" x2="47.4749" y2="284.525" stroke="#B0CB01"/>
<line x1="209.402" y1="440.796" x2="50.3033" y2="281.697" stroke="#B0CB01"/>
<line x1="212.231" y1="437.967" x2="53.1317" y2="278.868" stroke="#B0CB01"/>
<line x1="215.059" y1="435.139" x2="55.96" y2="276.04" stroke="#B0CB01"/>
<line x1="217.888" y1="432.311" x2="58.7886" y2="273.212" stroke="#B0CB01"/>
<line x1="220.716" y1="429.482" x2="61.617" y2="270.383" stroke="#B0CB01"/>
<line x1="223.544" y1="426.653" x2="64.4454" y2="267.554" stroke="#B0CB01"/>
<line x1="226.373" y1="423.825" x2="67.2738" y2="264.726" stroke="#B0CB01"/>
<line x1="229.201" y1="420.997" x2="70.1024" y2="261.898" stroke="#B0CB01"/>
<line x1="232.03" y1="418.168" x2="72.9307" y2="259.069" stroke="#B0CB01"/>
<line x1="234.858" y1="415.34" x2="75.7591" y2="256.241" stroke="#B0CB01"/>
<line x1="237.686" y1="412.511" x2="78.5875" y2="253.412" stroke="#B0CB01"/>
<line x1="240.515" y1="409.683" x2="81.4161" y2="250.584" stroke="#B0CB01"/>
<line x1="243.343" y1="406.855" x2="84.2445" y2="247.755" stroke="#B0CB01"/>
<line x1="246.172" y1="404.026" x2="87.0728" y2="244.927" stroke="#B0CB01"/>
<line x1="249" y1="401.198" x2="89.9012" y2="242.099" stroke="#B0CB01"/>
<line x1="251.829" y1="398.369" x2="92.7298" y2="239.27" stroke="#B0CB01"/>
<line x1="254.657" y1="395.541" x2="95.5582" y2="236.442" stroke="#B0CB01"/>
<line x1="257.486" y1="392.712" x2="98.3866" y2="233.613" stroke="#B0CB01"/>
<line x1="260.314" y1="389.884" x2="101.215" y2="230.785" stroke="#B0CB01"/>
<line x1="263.143" y1="387.056" x2="104.044" y2="227.957" stroke="#B0CB01"/>
<line x1="265.971" y1="384.227" x2="106.872" y2="225.128" stroke="#B0CB01"/>
<line x1="268.799" y1="381.399" x2="109.7" y2="222.3" stroke="#B0CB01"/>
<line x1="271.628" y1="378.57" x2="112.529" y2="219.471" stroke="#B0CB01"/>
<line x1="274.456" y1="375.742" x2="115.357" y2="216.643" stroke="#B0CB01"/>
<line x1="277.285" y1="372.914" x2="118.186" y2="213.815" stroke="#B0CB01"/>
<line x1="280.113" y1="370.085" x2="121.014" y2="210.986" stroke="#B0CB01"/>
<line x1="282.941" y1="367.256" x2="123.842" y2="208.157" stroke="#B0CB01"/>
<line x1="285.77" y1="364.428" x2="126.671" y2="205.329" stroke="#B0CB01"/>
<line x1="288.598" y1="361.6" x2="129.499" y2="202.501" stroke="#B0CB01"/>
<line x1="291.427" y1="358.772" x2="132.328" y2="199.672" stroke="#B0CB01"/>
<line x1="294.255" y1="355.943" x2="135.156" y2="196.844" stroke="#B0CB01"/>
<line x1="297.083" y1="353.114" x2="137.984" y2="194.015" stroke="#B0CB01"/>
<line x1="299.912" y1="350.286" x2="140.813" y2="191.187" stroke="#B0CB01"/>
<line x1="302.74" y1="347.458" x2="143.641" y2="188.359" stroke="#B0CB01"/>
<line x1="305.569" y1="344.629" x2="146.47" y2="185.53" stroke="#B0CB01"/>
<line x1="308.397" y1="341.801" x2="149.298" y2="182.702" stroke="#B0CB01"/>
<line x1="311.226" y1="338.972" x2="152.127" y2="179.873" stroke="#B0CB01"/>
<line x1="314.054" y1="336.144" x2="154.955" y2="177.045" stroke="#B0CB01"/>
<line x1="316.883" y1="333.315" x2="157.784" y2="174.216" stroke="#B0CB01"/>
<line x1="319.711" y1="330.487" x2="160.612" y2="171.388" stroke="#B0CB01"/>
<line x1="322.539" y1="327.659" x2="163.44" y2="168.56" stroke="#B0CB01"/>
<line x1="325.368" y1="324.83" x2="166.269" y2="165.731" stroke="#B0CB01"/>
<line x1="328.196" y1="322.002" x2="169.097" y2="162.903" stroke="#B0CB01"/>
<line x1="331.025" y1="319.173" x2="171.926" y2="160.074" stroke="#B0CB01"/>
<line x1="333.853" y1="316.345" x2="174.754" y2="157.246" stroke="#B0CB01"/>
<line x1="336.682" y1="313.517" x2="177.583" y2="154.418" stroke="#B0CB01"/>
<line x1="339.51" y1="310.688" x2="180.411" y2="151.589" stroke="#B0CB01"/>
<line x1="342.338" y1="307.859" x2="183.239" y2="148.76" stroke="#B0CB01"/>
<line x1="345.167" y1="305.031" x2="186.068" y2="145.932" stroke="#B0CB01"/>
<line x1="347.995" y1="302.203" x2="188.896" y2="143.104" stroke="#B0CB01"/>
<line x1="350.824" y1="299.375" x2="191.725" y2="140.276" stroke="#B0CB01"/>
<line x1="353.652" y1="296.546" x2="194.553" y2="137.447" stroke="#B0CB01"/>
<line x1="356.48" y1="293.717" x2="197.381" y2="134.618" stroke="#B0CB01"/>
<line x1="359.309" y1="290.889" x2="200.21" y2="131.79" stroke="#B0CB01"/>
<line x1="362.137" y1="288.061" x2="203.038" y2="128.962" stroke="#B0CB01"/>
<line x1="364.966" y1="285.232" x2="205.867" y2="126.133" stroke="#B0CB01"/>
<line x1="367.794" y1="282.404" x2="208.695" y2="123.305" stroke="#B0CB01"/>
<line x1="370.623" y1="279.575" x2="211.524" y2="120.476" stroke="#B0CB01"/>
<line x1="373.451" y1="276.747" x2="214.352" y2="117.648" stroke="#B0CB01"/>
<line x1="376.28" y1="273.918" x2="217.18" y2="114.819" stroke="#B0CB01"/>
<line x1="379.108" y1="271.09" x2="220.009" y2="111.991" stroke="#B0CB01"/>
<line x1="381.936" y1="268.262" x2="222.837" y2="109.163" stroke="#B0CB01"/>
<line x1="384.765" y1="265.433" x2="225.666" y2="106.334" stroke="#B0CB01"/>
<line x1="387.593" y1="262.605" x2="228.494" y2="103.506" stroke="#B0CB01"/>
<line x1="390.422" y1="259.776" x2="231.323" y2="100.677" stroke="#B0CB01"/>
</g>
<path fill-rule="evenodd" clip-rule="evenodd" d="M174.187 263.068C173.107 262.159 173.042 260.535 174.046 259.545L175.574 258.036C176.563 257.061 178.179 257.107 179.109 258.137L180.454 259.625C182.526 261.919 186.162 261.919 188.234 259.625L189.578 258.137C190.508 257.107 192.125 257.061 193.113 258.036L194.642 259.545C195.645 260.535 195.58 262.159 194.501 263.068L193.316 264.066C190.715 266.256 190.715 270.222 193.316 272.412L194.501 273.41C195.58 274.319 195.645 275.943 194.642 276.933L193.153 278.403C192.15 279.393 190.505 279.328 189.584 278.263L188.308 276.788C186.227 274.382 182.46 274.382 180.38 276.788L179.104 278.263C178.183 279.328 176.538 279.393 175.535 278.403L174.046 276.933C173.042 275.943 173.107 274.319 174.187 273.41L175.527 272.282C178.046 270.16 178.046 266.318 175.527 264.197L174.187 263.068Z" fill="#191918"/>
<path d="M270.075 270.797C270.075 271.661 269.958 272.41 269.696 273.158H259.044C259.336 274.627 260.416 275.664 262.05 275.664C263.276 275.664 264.239 275.059 264.589 274.627L269.258 274.829C268.237 277.018 265.523 279.494 261.816 279.494C257.818 279.494 254.667 276.499 254.667 272.41C254.667 268.176 258.285 264 263.188 264C266.982 264 270.075 266.822 270.075 270.797ZM262.809 267.773C261.204 267.773 259.92 268.867 259.336 270.336H265.814C265.639 269.04 264.705 267.773 262.809 267.773Z" fill="#141413"/>
<path d="M246.42 279.494C242.802 279.494 240.058 277.853 240 274.483L244.407 274.282C244.407 275.203 244.99 275.981 246.333 275.981C247.237 275.981 247.85 275.491 247.85 274.829C247.85 272.87 241.342 272.813 241.342 268.666C241.342 265.872 243.706 264 247.237 264C250.564 264 253.278 265.642 253.336 268.867L248.901 269.04C248.871 268.003 248.259 267.514 247.237 267.514C246.595 267.514 245.924 267.83 245.924 268.522C245.924 270.422 252.519 270.278 252.519 274.483C252.519 277.565 250.01 279.494 246.42 279.494Z" fill="#141413"/>
<path d="M229.391 279.091C225.423 279.091 223.438 276.096 224.139 272.237L225.598 264H230.209L228.779 271.949C228.545 273.389 229.362 274.886 231.142 274.886C232.514 274.886 233.652 273.821 233.886 272.352L235.345 264H239.955L237.358 278.688H233.973L233.535 277.334H233.389C232.602 278.285 231.201 279.091 229.391 279.091Z" fill="#141413"/>
<path d="M224.556 258.667L223.768 263.246H214.4L213.671 267.422H221.666L220.879 271.799H212.883L211.628 278.827H206.667L210.256 258.667H224.556Z" fill="#141413"/>
</g>
<rect x="107.5" y="228.5" width="228" height="85" rx="10.1628" stroke="#B0CB01"/>
</g>
<rect width="2" height="132" transform="matrix(-4.37114e-08 1 1 4.37114e-08 151 201)" fill="#1A1A19"/>
<line x1="150.099" y1="202.015" x2="289.799" y2="202.015" stroke="url(#paint1_linear_758_6133)" stroke-width="2" stroke-dasharray="4 4"/>
<path d="M92.9861 158.191L92.9861 161.184C92.9861 167.092 97.7886 171.873 103.696 171.847L188.123 171.476C194.03 171.45 198.833 176.231 198.833 182.138L198.833 200.533" stroke="#92928C" stroke-width="2" stroke-linecap="square" stroke-dasharray="3.55 3.55"/>
<path d="M351.846 158.191L351.846 157.191L349.846 157.191L349.846 158.191L351.846 158.191ZM340.136 171.846L340.14 170.846L340.136 171.846ZM257.982 171.477L257.986 170.477L257.982 171.477ZM349.846 158.191L349.846 158.939L351.846 158.939L351.846 158.191L349.846 158.191ZM349.846 160.435L349.846 161.183L351.846 161.183L351.846 160.435L349.846 160.435ZM349.846 161.183C349.846 161.832 349.783 162.465 349.661 163.076L351.623 163.465C351.77 162.726 351.846 161.963 351.846 161.183L349.846 161.183ZM348.21 166.565C347.501 167.621 346.588 168.529 345.529 169.234L346.637 170.899C347.915 170.049 349.015 168.954 349.87 167.68L348.21 166.565ZM342.033 170.67C341.422 170.788 340.789 170.849 340.14 170.846L340.131 172.846C340.911 172.85 341.674 172.776 342.414 172.633L342.033 170.67ZM340.14 170.846L338.429 170.838L338.42 172.838L340.131 172.846L340.14 170.846ZM335.006 170.823L331.582 170.808L331.573 172.808L334.997 172.823L335.006 170.823ZM328.159 170.792L324.736 170.777L324.727 172.777L328.15 172.792L328.159 170.792ZM321.313 170.761L317.89 170.746L317.881 172.746L321.304 172.761L321.313 170.761ZM314.467 170.731L311.044 170.715L311.035 172.715L314.458 172.731L314.467 170.731ZM307.621 170.7L304.198 170.684L304.189 172.684L307.612 172.7L307.621 170.7ZM300.775 170.669L297.352 170.654L297.343 172.654L300.766 172.669L300.775 170.669ZM293.929 170.638L290.505 170.623L290.496 172.623L293.92 172.638L293.929 170.638ZM287.082 170.607L283.659 170.592L283.65 172.592L287.073 172.607L287.082 170.607ZM280.236 170.577L276.813 170.561L276.804 172.561L280.227 172.577L280.236 170.577ZM273.39 170.546L269.967 170.531L269.958 172.531L273.381 172.546L273.39 170.546ZM266.544 170.515L263.121 170.5L263.112 172.5L266.535 172.515L266.544 170.515ZM259.698 170.484L257.986 170.477L257.977 172.477L259.689 172.484L259.698 170.484ZM257.986 170.477C257.206 170.473 256.443 170.546 255.704 170.69L256.084 172.653C256.696 172.535 257.329 172.474 257.977 172.477L257.986 170.477ZM251.48 172.423C250.203 173.273 249.103 174.369 248.247 175.642L249.907 176.758C250.616 175.702 251.529 174.793 252.588 174.088L251.48 172.423ZM246.494 179.858C246.348 180.596 246.271 181.359 246.271 182.139L248.271 182.139C248.271 181.491 248.335 180.858 248.456 180.247L246.494 179.858ZM246.271 182.139L246.271 183.672L248.271 183.672L248.271 182.139L246.271 182.139ZM246.271 186.738L246.271 189.803L248.271 189.803L248.271 186.738L246.271 186.738ZM246.271 192.869L246.271 195.934L248.271 195.934L248.271 192.869L246.271 192.869ZM246.271 199L246.271 200.533L248.271 200.533L248.271 199L246.271 199Z" fill="#92928C"/>
<path d="M223.144 201.158C223.144 192.782 223.144 188.086 223.144 179.71L223.144 157.373" stroke="#92928C" stroke-width="2" stroke-linecap="square" stroke-dasharray="3.55 3.55"/>
<path d="M198.825 203.316L198.825 217.311M206.23 210.744L198.844 218.13L191.458 210.744" stroke="#92928C" stroke-width="2" stroke-linecap="square"/>
<g clip-path="url(#clip3_758_6133)">
<path d="M223.144 204.135L223.144 218.13" stroke="#92928C" stroke-width="2" stroke-linecap="square" stroke-linejoin="round"/>
<path d="M230.549 211.562L223.163 218.949L215.777 211.562" stroke="#92928C" stroke-width="2" stroke-linecap="square"/>
</g>
<g clip-path="url(#clip4_758_6133)">
<path d="M247.213 203.833L247.213 217.828" stroke="#92928C" stroke-width="2" stroke-linecap="square" stroke-linejoin="round"/>
<path d="M254.599 211.441L247.213 218.828L239.826 211.441" stroke="#92928C" stroke-width="2" stroke-linecap="square"/>
</g>
<g clip-path="url(#clip5_758_6133)">
<path d="M92.9861 157.451L92.9861 143.456" stroke="#92928C" stroke-width="2" stroke-linecap="square" stroke-linejoin="round"/>
<path d="M100.391 150.023L93.0049 142.637L85.6187 150.023" stroke="#92928C" stroke-width="2" stroke-linecap="square"/>
</g>
<g clip-path="url(#clip6_758_6133)">
<path d="M223.145 157.451L223.145 143.456" stroke="#92928C" stroke-width="2" stroke-linecap="square" stroke-linejoin="round"/>
<path d="M230.549 150.023L223.163 142.637L215.777 150.023" stroke="#92928C" stroke-width="2" stroke-linecap="square"/>
</g>
<g clip-path="url(#clip7_758_6133)">
<path d="M350.847 157.451L350.847 143.456" stroke="#92928C" stroke-width="2" stroke-linecap="square" stroke-linejoin="round"/>
<path d="M358.251 150.023L350.865 142.637L343.479 150.023" stroke="#92928C" stroke-width="2" stroke-linecap="square"/>
</g>
<rect x="0.888571" y="37.8886" width="446.223" height="94.2229" rx="15.1114" fill="#141413"/>
<rect x="0.888571" y="37.8886" width="446.223" height="94.2229" rx="15.1114" stroke="#222221" stroke-width="1.77714" stroke-dasharray="3.55 3.55"/>
<rect x="6.44429" y="43.4443" width="141.778" height="83.1114" rx="9.55571" fill="#191918"/>
<rect x="6.44429" y="43.4443" width="141.778" height="83.1114" rx="9.55571" stroke="#222221" stroke-width="0.888571"/>
<path d="M56.9584 92.7669C57.3533 93.2785 57.8665 93.6922 58.4563 93.9746C59.0942 94.2823 59.7982 94.4378 60.51 94.4285C61.0856 94.4432 61.6585 94.348 62.1965 94.1484C62.6268 93.9837 63.011 93.7222 63.3175 93.3852C63.6052 93.0569 63.8152 92.671 63.9327 92.2548C64.0608 91.8051 64.1242 91.3402 64.1211 90.8735V89.2506H64.0815C63.7085 89.8264 63.1704 90.2831 62.5337 90.5644C61.9266 90.8218 61.2712 90.9533 60.6091 90.9508C59.9604 90.9556 59.3168 90.8374 58.7143 90.6031C58.1439 90.3825 57.6219 90.0579 57.1765 89.6466C56.7346 89.2335 56.3835 88.7371 56.1447 88.1877C55.8906 87.6077 55.7623 86.9829 55.7678 86.3523C55.7623 85.7236 55.8837 85.0999 56.125 84.5168C56.3532 83.9651 56.6864 83.4603 57.1071 83.0291C57.5277 82.6015 58.0343 82.2628 58.5952 82.0341C59.1955 81.7911 59.8402 81.6695 60.4902 81.6766C60.7861 81.6783 61.0814 81.7041 61.373 81.7538C61.6936 81.8084 62.0066 81.8992 62.3056 82.0244C63.0154 82.324 63.629 82.8047 64.0815 83.4157H64.1211V81.9084H65.4308V90.8735C65.4263 91.4003 65.3631 91.925 65.2422 92.4385C65.1158 92.9936 64.8651 93.5148 64.5081 93.9648C64.1019 94.4612 63.5821 94.8583 62.9902 95.1242C62.3419 95.4332 61.4953 95.5877 60.4503 95.5877C59.6015 95.6018 58.7583 95.4507 57.9702 95.1434C57.2162 94.8289 56.5398 94.3612 55.9862 93.7718L56.9584 92.7669ZM57.1964 86.3138C57.1931 86.7743 57.2842 87.2307 57.4643 87.6565C57.6361 88.0651 57.885 88.4386 58.1983 88.7577C58.5097 89.074 58.8801 89.3298 59.2896 89.5113C59.7163 89.7002 60.1802 89.7958 60.6488 89.7915C61.5769 89.7947 62.4712 89.4526 63.1488 88.8352C63.4816 88.5294 63.7423 88.1568 63.9128 87.7433C64.0966 87.2888 64.1811 86.8019 64.1609 86.3138C64.1643 85.8559 64.0836 85.4011 63.9227 84.9708C63.7699 84.5619 63.5336 84.1873 63.2282 83.8696C62.9143 83.5475 62.5362 83.2912 62.1171 83.1161C61.6531 82.924 61.153 82.8286 60.6488 82.8359C60.1802 82.8317 59.7163 82.9273 59.2896 83.1161C58.8802 83.2978 58.5099 83.5535 58.1983 83.8696C57.8851 84.1888 57.6361 84.5623 57.4642 84.9708C57.2842 85.3967 57.1931 85.8533 57.1964 86.3138ZM70.7679 90.9508H69.3394V77.2713H73.6649C75.0935 77.2713 76.2211 77.574 77.0478 78.1794C77.8745 78.785 78.2879 79.6995 78.2881 80.923C78.3132 81.8111 77.9823 82.6738 77.3654 83.3284C76.7502 83.979 75.8606 84.3558 74.6967 84.4587L78.7444 90.9508H76.9982L73.1491 84.5941H70.7681L70.7679 90.9508ZM70.7679 83.3189H73.3078C73.8535 83.3301 74.3981 83.265 74.9248 83.1256C75.3101 83.0253 75.6709 82.8513 75.9864 82.6137C76.2409 82.4143 76.4389 82.155 76.5617 81.8602C76.6824 81.5619 76.7431 81.2437 76.7403 80.923C76.7418 80.6088 76.6811 80.2973 76.5617 80.0054C76.4375 79.7087 76.2398 79.4465 75.9864 79.2421C75.674 78.9998 75.3121 78.8252 74.9248 78.7301C74.3968 78.5977 73.8528 78.536 73.3078 78.5466H70.7679V83.3189ZM81.2044 77.2713H85.292C86.7205 77.2713 87.8481 77.574 88.6748 78.1795C89.5015 78.7851 89.9149 79.6996 89.915 80.9232C89.915 82.147 89.5016 83.0647 88.6748 83.6763C87.8481 84.2883 86.7205 84.5942 85.292 84.5941H82.6332V90.9508H81.2044V77.2713ZM82.6334 83.319H84.935C85.4808 83.3302 86.0253 83.2651 86.5521 83.1258C86.9373 83.0254 87.2982 82.8514 87.6137 82.6139C87.8681 82.4144 88.0661 82.1551 88.189 81.8604C88.3097 81.562 88.3704 81.2438 88.3676 80.9232C88.3691 80.6089 88.3085 80.2974 88.189 80.0055C88.0647 79.7088 87.8671 79.4466 87.6137 79.2422C87.3012 79 86.9393 78.8254 86.5521 78.7302C86.0241 78.5979 85.4801 78.5361 84.935 78.5467H82.6332L82.6334 83.319ZM104.26 88.7868C104.009 89.1495 103.712 89.4805 103.378 89.7723C103.015 90.0894 102.611 90.3589 102.177 90.5739C101.713 90.8045 101.224 90.9828 100.719 91.1054C100.177 91.2364 99.6202 91.3013 99.0617 91.2986C98.0656 91.3076 97.0776 91.1238 96.1551 90.7577C94.3958 90.0654 93.0022 88.7049 92.2958 86.99C91.9178 86.0753 91.729 85.0969 91.7404 84.111C91.729 83.1251 91.9178 82.1468 92.2958 81.2321C93.0022 79.5173 94.3958 78.1568 96.1551 77.4647C97.0776 77.0985 98.0656 76.9146 99.0617 76.9237C99.9596 76.9283 100.848 77.0988 101.681 77.4259C102.569 77.772 103.344 78.3463 103.923 79.0876L102.673 79.9957C102.505 79.7521 102.305 79.5312 102.078 79.3387C101.815 79.1124 101.525 78.9178 101.215 78.7592C100.883 78.589 100.534 78.453 100.173 78.3535C99.8118 78.2517 99.4377 78.1997 99.0617 78.1988C98.2283 78.1855 97.402 78.3504 96.6411 78.6819C95.9508 78.9869 95.3328 79.4275 94.8257 79.9763C94.3239 80.5266 93.9364 81.1664 93.6846 81.8602C93.1556 83.3166 93.1556 84.9055 93.6846 86.3618C93.9364 87.0557 94.3239 87.6955 94.8257 88.2457C95.3326 88.7946 95.9507 89.2354 96.6411 89.5402C97.4019 89.8719 98.2283 90.0368 99.0617 90.0234C99.4311 90.0235 99.7997 89.9912 100.163 89.9267C100.533 89.8606 100.893 89.7502 101.235 89.5983C101.595 89.4373 101.929 89.2257 102.227 88.9702C102.561 88.6796 102.851 88.3447 103.09 87.9754L104.26 88.7868Z" fill="white"/>
<path d="M54.1084 81.769L50.4086 78.193L54.081 74.5903L57.7808 78.1663L54.1084 81.769Z" fill="url(#paint2_linear_758_6133)"/>
<path d="M64.0625 80.1548L61.8924 78.0573L64.0464 75.9441L66.2165 78.0416L64.0625 80.1548Z" fill="url(#paint3_linear_758_6133)"/>
<path d="M54.6739 76.1226L52.45 78.3044L54.6904 80.4699L56.5859 80.4631L54.5982 78.5431L64.4131 78.5077L63.5529 79.351L64.5006 79.3476L65.6127 78.2567L64.4924 77.174L63.5446 77.1774L64.4113 78.0146L54.5964 78.05L56.5692 76.1157L54.6739 76.1226Z" fill="#244B5A"/>
<rect x="153.111" y="43.4443" width="141.778" height="83.1114" rx="9.55571" fill="#191918"/>
<rect x="153.111" y="43.4443" width="141.778" height="83.1114" rx="9.55571" stroke="#222221" stroke-width="0.888571"/>
<path d="M234.957 68.338V71.9034C234.957 72.7606 235.392 73.1503 236.419 73.1503V74.9037C235.392 74.9037 234.957 75.2934 234.957 76.1506V79.716C234.957 81.7617 233.852 82.7942 231.699 82.7942H230.554V80.8265H231.541C232.371 80.8265 232.864 80.3784 232.864 79.5017V75.9948C232.864 74.7868 233.575 74.2413 234.227 74.027C233.575 73.8127 232.864 73.2672 232.864 72.0592V68.5524C232.864 67.6756 232.371 67.2275 231.541 67.2275H230.554V65.2598H231.699C233.852 65.2598 234.957 66.2924 234.957 68.338Z" fill="#51AC9D"/>
<path d="M223.658 71.2643C222.868 71.2643 222.275 70.6603 222.275 69.9005C222.275 69.1406 222.868 68.5562 223.658 68.5562C224.447 68.5562 225.04 69.1406 225.04 69.9005C225.04 70.6603 224.447 71.2643 223.658 71.2643ZM223.658 78.6482C222.868 78.6482 222.275 78.0443 222.275 77.2844C222.275 76.5246 222.868 75.9401 223.658 75.9401C224.447 75.9401 225.04 76.5246 225.04 77.2844C225.04 78.0443 224.447 78.6482 223.658 78.6482Z" fill="#51AC9D"/>
<path d="M214.451 68.5519V72.0588C214.451 73.2667 213.72 73.8122 213.069 74.0265C213.72 74.2408 214.451 74.7863 214.451 75.9943V79.5012C214.451 80.3779 214.944 80.826 215.754 80.826H216.741V82.7938H215.616C213.463 82.7938 212.358 81.7612 212.358 79.7155V76.1501C212.358 75.2929 211.923 74.9032 210.896 74.9032V73.1498C211.923 73.1498 212.358 72.7601 212.358 71.9029V68.3376C212.358 66.2919 213.463 65.2593 215.616 65.2593H216.761V67.227H215.754C214.944 67.227 214.451 67.6751 214.451 68.5519Z" fill="#51AC9D"/>
<path d="M236.786 92.1177V100.246C236.786 100.598 236.872 100.864 237.042 101.046C237.213 101.216 237.464 101.302 237.794 101.302H239.026V102.518H237.794C237.026 102.518 236.434 102.32 236.018 101.926C235.613 101.531 235.41 100.971 235.41 100.246V92.1177H236.786ZM239.058 94.0377V95.2537H234.178V94.0377H239.058Z" fill="#BCBCB8"/>
<path d="M231.427 96.6617C231.331 96.203 231.08 95.8404 230.675 95.5737C230.28 95.2964 229.843 95.1577 229.363 95.1577C228.883 95.1577 228.483 95.275 228.163 95.5097C227.843 95.7337 227.683 96.0377 227.683 96.4217C227.683 96.795 227.869 97.083 228.243 97.2857C228.627 97.4884 229.107 97.6484 229.683 97.7657C230.408 97.9044 231.005 98.0697 231.475 98.2617C231.955 98.443 232.333 98.7044 232.611 99.0457C232.888 99.3764 233.027 99.8137 233.027 100.358C233.027 100.88 232.867 101.318 232.547 101.67C232.227 102.022 231.816 102.283 231.315 102.454C230.813 102.624 230.28 102.71 229.715 102.71C229.043 102.71 228.435 102.592 227.891 102.358C227.347 102.123 226.909 101.792 226.579 101.366C226.259 100.928 226.077 100.422 226.035 99.8457L227.475 99.7497C227.539 100.091 227.667 100.384 227.859 100.63C228.051 100.875 228.301 101.067 228.611 101.206C228.931 101.334 229.299 101.398 229.715 101.398C230.205 101.398 230.637 101.312 231.011 101.142C231.395 100.96 231.587 100.672 231.587 100.278C231.587 100 231.507 99.7817 231.347 99.6217C231.187 99.4617 230.995 99.3444 230.771 99.2697C230.547 99.195 230.232 99.115 229.827 99.0297C229.741 99.019 229.613 98.9924 229.443 98.9497C228.781 98.8004 228.232 98.6457 227.795 98.4857C227.357 98.315 226.989 98.0697 226.691 97.7497C226.392 97.4297 226.243 97.0137 226.243 96.5017C226.243 95.9684 226.376 95.5044 226.643 95.1097C226.92 94.7044 227.304 94.395 227.795 94.1817C228.285 93.9577 228.856 93.8457 229.507 93.8457C230.36 93.8457 231.096 94.0964 231.715 94.5977C232.344 95.0884 232.728 95.7444 232.867 96.5657L231.427 96.6617Z" fill="#BCBCB8"/>
<path d="M216.941 98.2777C216.941 97.3817 217.101 96.603 217.421 95.9417C217.741 95.2697 218.194 94.7524 218.781 94.3897C219.368 94.027 220.05 93.8457 220.829 93.8457C221.48 93.8457 222.072 93.995 222.605 94.2937C223.149 94.5817 223.592 95.0457 223.933 95.6857C224.274 96.315 224.466 97.115 224.509 98.0857L224.525 98.7097H218.397C218.461 99.563 218.701 100.224 219.117 100.694C219.544 101.163 220.114 101.398 220.829 101.398C221.288 101.398 221.704 101.275 222.077 101.03C222.45 100.784 222.733 100.443 222.925 100.006L224.397 100.118C224.152 100.907 223.698 101.536 223.037 102.006C222.386 102.475 221.65 102.71 220.829 102.71C220.05 102.71 219.368 102.528 218.781 102.166C218.194 101.803 217.741 101.291 217.421 100.63C217.101 99.9577 216.941 99.1737 216.941 98.2777ZM223.021 97.4937C222.904 96.6724 222.648 96.0804 222.253 95.7177C221.858 95.3444 221.384 95.1577 220.829 95.1577C220.168 95.1577 219.629 95.3604 219.213 95.7657C218.808 96.171 218.546 96.747 218.429 97.4937H223.021Z" fill="#BCBCB8"/>
<path d="M211.45 91.1577C212.239 91.1577 212.922 91.2964 213.498 91.5737C214.084 91.851 214.532 92.251 214.842 92.7737C215.162 93.2964 215.322 93.9044 215.322 94.5977C215.322 95.0884 215.204 95.5364 214.97 95.9417C214.746 96.347 214.447 96.6724 214.074 96.9177C213.711 97.1524 213.338 97.2804 212.954 97.3017L212.458 97.1577C213.364 97.1577 214.015 97.307 214.41 97.6057C214.804 97.9044 215.039 98.427 215.114 99.1737L215.434 102.518H214.01L213.722 99.3177C213.679 98.8164 213.471 98.4644 213.098 98.2617C212.735 98.059 212.138 97.9577 211.306 97.9577H208.538V102.518H207.13V91.1577H211.45ZM211.45 96.5817C212.218 96.5817 212.81 96.411 213.226 96.0697C213.642 95.7177 213.85 95.2164 213.85 94.5657C213.85 93.915 213.642 93.4137 213.226 93.0617C212.81 92.7097 212.218 92.5337 211.45 92.5337H208.538V96.5817H211.45Z" fill="#BCBCB8"/>
<rect x="299.778" y="43.4443" width="141.778" height="83.1114" rx="9.55571" fill="#191918"/>
<rect x="299.778" y="43.4443" width="141.778" height="83.1114" rx="9.55571" stroke="#222221" stroke-width="0.888571"/>
<g clip-path="url(#clip8_758_6133)">
<path d="M366.175 79.342C365.927 79.1085 365.937 78.6766 366.217 78.4766C366.702 78.1101 367.346 78.1387 367.896 77.9264C368.304 77.807 368.515 77.41 368.771 77.1059C368.298 77.0701 367.834 76.9497 367.408 76.7405L365.986 78.327C364.203 80.7876 362.544 79.7054 361.001 75.1136C359.458 70.519 358.879 66.5067 360.885 64.5002C362.365 63.0205 364.857 62.8274 368.264 63.9685C369.516 63.1326 371.109 63.0172 372.553 63.3102C372.681 63.3265 372.811 63.3857 372.943 63.3591C377.117 61.9668 381.623 64.1639 381.592 66.9211C381.566 69.3398 380.55 73.0425 378.247 76.6466C379.639 77.2332 381.051 76.2245 381.611 76.8119C382.205 77.7012 379.623 79.3958 377.021 78.8828C376.519 82.2636 376.67 84.0059 375.541 84.9861C373.814 86.2841 370.854 86.4933 370.43 83.2265C370.277 81.8721 370.271 80.5066 370.275 79.1451C368.831 80.419 366.777 79.9106 366.175 79.342ZM378.312 69.141C378.32 70.0626 378.005 70.9617 378.099 71.8854C378.189 72.8642 378.399 73.8654 378.15 74.838C378.079 75.183 377.899 75.4892 377.775 75.8138C377.784 75.8607 377.803 75.9546 377.812 76.0005C379.747 73.1166 381.692 67.5825 380.574 65.7117C379.104 63.9402 376.938 63.2335 374.116 63.7694C376.414 64.829 378.342 67.6164 378.312 69.141ZM375.408 70.973C375.726 72.5027 376.613 73.8164 377.304 75.1912C377.819 74.1542 377.517 72.9794 377.423 71.8874C377.347 71.0035 377.605 70.1442 377.632 69.2675C375.928 69.0558 375.116 69.5612 375.408 70.973ZM362.98 77.9173C363.256 78.3224 363.57 78.7736 364.064 78.9164C364.487 79.0032 364.825 78.6586 365.069 78.3638C365.639 77.6766 366.244 77.0242 366.824 76.3465C365.973 75.5729 365.513 74.3941 365.668 73.2479C365.791 72.3702 365.815 71.4812 365.761 70.5964C365.692 67.9844 366.254 65.8864 367.647 64.4665C363.274 63.1651 359.841 63.9144 360.305 69.2348C360.741 72.4137 361.63 75.3097 362.98 77.9173ZM366.426 70.0963C366.44 70.8321 366.492 71.569 366.442 72.3049C366.421 72.955 366.242 73.6061 366.376 74.2578C366.611 75.4018 367.615 76.4261 368.821 76.4139C368.998 75.8352 369.203 75.2647 369.456 74.7135C370.182 73.2857 370.065 71.6078 369.686 70.1003C369.332 68.8551 367.505 69.3707 366.426 70.0963ZM369.631 77.2416C369.159 77.5488 368.959 78.1459 368.455 78.4174C367.933 78.7256 367.302 78.7062 366.762 78.9562C367.857 79.5145 369.373 79.3181 370.13 78.2923C370.518 77.9321 370.144 77.1691 369.631 77.2416ZM380.768 77.3559C379.834 77.4692 378.813 77.6948 377.936 77.2324C377.729 77.0885 377.475 77.21 377.297 77.3416C377.071 77.5509 377.086 77.8836 377.084 78.1642C377.58 78.3347 378.115 78.3163 378.63 78.2551C379.407 78.1704 380.197 77.9111 380.768 77.3559ZM375.933 69.736C375.75 69.886 375.947 70.1105 376.105 70.181C376.485 70.4045 377.007 70.0922 377.019 69.6574C376.675 69.4971 376.244 69.5135 375.933 69.736ZM369.194 70.43C369.357 70.3381 369.529 70.086 369.341 69.934C369.073 69.7166 368.685 69.6747 368.359 69.7625C368.254 69.7993 368.144 69.8707 368.165 69.9993C368.241 70.4361 368.826 70.7015 369.194 70.43ZM375.25 69.0491C375.88 68.5082 376.763 68.5398 377.542 68.5674C377.073 67.2426 376.204 66.0648 375.103 65.1952C373.771 64.1471 372.012 63.6857 370.336 63.8991C369.32 64.0307 368.369 64.5798 367.756 65.4024C366.922 66.5078 366.558 67.9019 366.452 69.2634C368.405 68.3169 369.927 68.4469 370.371 70.0197C370.644 71.224 370.792 72.4937 370.525 73.7133C370.319 74.6992 369.718 75.5515 369.518 76.5384C370.63 76.5573 370.986 77.3938 370.972 78.0295C370.894 80.2403 370.965 82.1566 371.214 83.7205C371.493 84.8302 372.383 85.2544 373.059 85.193C374.667 85.0469 375.523 84.5628 375.806 82.9571C376.534 78.3664 376.299 77.5593 376.625 77.0946L376.627 77.0957C376.791 76.7987 377.114 76.6588 377.403 76.5129C376.698 75.4332 373.44 70.6206 375.25 69.0491Z" fill="#367CB4"/>
</g>
<path d="M407.408 94.2153H408.816V104.919L408.096 104.199H414.48V105.575H407.408V94.2153Z" fill="#BCBCB8"/>
<path d="M400.153 105.831C399.087 105.831 398.164 105.57 397.385 105.047C396.617 104.525 396.025 103.815 395.609 102.919C395.204 102.023 395.001 101.021 395.001 99.9115C395.001 98.8021 395.204 97.7941 395.609 96.8875C396.015 95.9808 396.607 95.2661 397.385 94.7435C398.164 94.2208 399.087 93.9595 400.153 93.9595C401.22 93.9595 402.143 94.2208 402.921 94.7435C403.7 95.2661 404.292 95.9808 404.697 96.8875C405.103 97.7941 405.305 98.8021 405.305 99.9115C405.305 100.967 405.113 101.933 404.729 102.807C404.356 103.682 403.823 104.381 403.129 104.903L404.505 106.679H403.033L402.105 105.479C401.497 105.714 400.847 105.831 400.153 105.831ZM396.473 99.9115C396.473 100.754 396.612 101.522 396.889 102.215C397.167 102.898 397.583 103.442 398.137 103.847C398.692 104.253 399.364 104.455 400.153 104.455C400.537 104.455 400.889 104.407 401.209 104.311L399.609 102.247H401.081L402.265 103.783C402.777 103.378 403.167 102.839 403.433 102.167C403.7 101.485 403.833 100.733 403.833 99.9115C403.833 99.0581 403.695 98.2901 403.417 97.6075C403.14 96.9141 402.724 96.3648 402.169 95.9595C401.625 95.5435 400.953 95.3355 400.153 95.3355C399.353 95.3355 398.676 95.5435 398.121 95.9595C397.577 96.3648 397.167 96.9141 396.889 97.6075C396.612 98.2901 396.473 99.0581 396.473 99.9115Z" fill="#BCBCB8"/>
<path d="M386.243 101.847C386.349 102.359 386.536 102.807 386.803 103.191C387.069 103.575 387.421 103.874 387.859 104.087C388.296 104.29 388.808 104.391 389.395 104.391C389.885 104.391 390.307 104.327 390.659 104.199C391.021 104.071 391.299 103.885 391.491 103.639C391.693 103.383 391.795 103.074 391.795 102.711C391.795 102.146 391.539 101.677 391.027 101.303C390.515 100.919 389.688 100.583 388.547 100.295C387.491 100.029 386.637 99.6395 385.987 99.1275C385.336 98.6155 385.011 97.9328 385.011 97.0795C385.011 96.4501 385.165 95.9008 385.475 95.4315C385.795 94.9621 386.232 94.5995 386.787 94.3435C387.352 94.0875 387.997 93.9595 388.723 93.9595C389.523 93.9595 390.232 94.1141 390.851 94.4235C391.48 94.7328 391.976 95.1595 392.339 95.7035C392.712 96.2475 392.941 96.8715 393.027 97.5755L391.555 97.6715C391.491 97.2021 391.331 96.7915 391.075 96.4395C390.819 96.0875 390.488 95.8155 390.083 95.6235C389.677 95.4315 389.219 95.3355 388.707 95.3355C388.056 95.3355 387.523 95.4955 387.107 95.8155C386.691 96.1248 386.483 96.5461 386.483 97.0795C386.483 97.4848 386.616 97.8208 386.883 98.0875C387.149 98.3435 387.464 98.5461 387.827 98.6955C388.2 98.8341 388.691 98.9888 389.299 99.1595L389.555 99.2235C390.685 99.5435 391.587 99.9755 392.259 100.519C392.931 101.063 393.267 101.746 393.267 102.567C393.267 103.239 393.08 103.821 392.707 104.311C392.344 104.791 391.859 105.154 391.251 105.399C390.643 105.645 389.987 105.767 389.283 105.767C388.461 105.767 387.72 105.613 387.059 105.303C386.397 104.983 385.864 104.535 385.459 103.959C385.064 103.373 384.835 102.701 384.771 101.943L386.243 101.847Z" fill="#BCBCB8"/>
<path d="M375.485 101.335C375.485 100.439 375.645 99.6607 375.965 98.9993C376.285 98.3273 376.738 97.81 377.325 97.4473C377.912 97.0847 378.594 96.9033 379.373 96.9033C380.024 96.9033 380.616 97.0527 381.149 97.3513C381.693 97.6393 382.136 98.1033 382.477 98.7433C382.818 99.3727 383.01 100.173 383.053 101.143L383.069 101.767H376.941C377.005 102.621 377.245 103.282 377.661 103.751C378.088 104.221 378.658 104.455 379.373 104.455C379.832 104.455 380.248 104.333 380.621 104.087C380.994 103.842 381.277 103.501 381.469 103.063L382.941 103.175C382.696 103.965 382.242 104.594 381.581 105.063C380.93 105.533 380.194 105.767 379.373 105.767C378.594 105.767 377.912 105.586 377.325 105.223C376.738 104.861 376.285 104.349 375.965 103.687C375.645 103.015 375.485 102.231 375.485 101.335ZM381.565 100.551C381.448 99.73 381.192 99.138 380.797 98.7753C380.402 98.402 379.928 98.2153 379.373 98.2153C378.712 98.2153 378.173 98.418 377.757 98.8233C377.352 99.2287 377.09 99.8047 376.973 100.551H381.565Z" fill="#BCBCB8"/>
<path d="M371.745 97.0957L371.809 99.3037L371.681 99.1757C371.777 98.4504 371.99 97.9224 372.321 97.5917C372.662 97.261 373.153 97.0957 373.793 97.0957H374.625V98.3117H373.793C373.366 98.3117 373.009 98.397 372.721 98.5677C372.443 98.7277 372.235 98.973 372.097 99.3037C371.969 99.6237 371.905 100.029 371.905 100.52V105.576H370.529V97.0957H371.745Z" fill="#BCBCB8"/>
<path d="M364.182 105.127C363.457 105.127 362.812 104.957 362.246 104.615C361.681 104.263 361.238 103.778 360.918 103.159C360.598 102.53 360.438 101.815 360.438 101.015C360.438 100.215 360.593 99.506 360.902 98.8873C361.222 98.258 361.665 97.7727 362.23 97.4313C362.796 97.0793 363.441 96.9033 364.166 96.9033C364.742 96.9033 365.254 97.042 365.702 97.3193C366.15 97.586 366.47 97.9487 366.662 98.4073V97.0953H367.974V104.743C367.974 105.479 367.814 106.103 367.494 106.615C367.185 107.127 366.748 107.511 366.182 107.767C365.617 108.034 364.961 108.167 364.214 108.167C363.617 108.167 363.073 108.066 362.582 107.863C362.092 107.661 361.681 107.373 361.35 106.999C361.02 106.626 360.79 106.194 360.662 105.703L362.102 105.607C362.284 106.002 362.55 106.306 362.902 106.519C363.265 106.743 363.702 106.855 364.214 106.855C364.972 106.855 365.558 106.701 365.974 106.391C366.39 106.082 366.598 105.639 366.598 105.063V103.671C366.385 104.119 366.06 104.477 365.622 104.743C365.196 104.999 364.716 105.127 364.182 105.127ZM361.878 101.015C361.878 101.879 362.092 102.562 362.518 103.063C362.945 103.565 363.526 103.815 364.262 103.815C364.732 103.815 365.142 103.703 365.494 103.479C365.846 103.255 366.118 102.935 366.31 102.519C366.513 102.093 366.614 101.591 366.614 101.015C366.625 100.439 366.534 99.9433 366.342 99.5273C366.161 99.1007 365.889 98.7753 365.526 98.5513C365.174 98.3273 364.753 98.2153 364.262 98.2153C363.526 98.2153 362.945 98.466 362.518 98.9673C362.092 99.4687 361.878 100.151 361.878 101.015Z" fill="#BCBCB8"/>
<path d="M357.049 95.1753V103.303C357.049 103.655 357.134 103.922 357.305 104.103C357.476 104.274 357.726 104.359 358.057 104.359H359.289V105.575H358.057C357.289 105.575 356.697 105.378 356.281 104.983C355.876 104.589 355.673 104.029 355.673 103.303V95.1753H357.049ZM359.321 97.0953V98.3113H354.441V97.0953H359.321Z" fill="#BCBCB8"/>
<path d="M351.69 99.7193C351.594 99.2607 351.343 98.898 350.938 98.6313C350.543 98.354 350.106 98.2153 349.626 98.2153C349.146 98.2153 348.746 98.3327 348.426 98.5673C348.106 98.7913 347.946 99.0953 347.946 99.4793C347.946 99.8527 348.132 100.141 348.506 100.343C348.89 100.546 349.37 100.706 349.946 100.823C350.671 100.962 351.268 101.127 351.738 101.319C352.218 101.501 352.596 101.762 352.874 102.103C353.151 102.434 353.29 102.871 353.29 103.415C353.29 103.938 353.13 104.375 352.81 104.727C352.49 105.079 352.079 105.341 351.578 105.511C351.076 105.682 350.543 105.767 349.978 105.767C349.306 105.767 348.698 105.65 348.154 105.415C347.61 105.181 347.172 104.85 346.842 104.423C346.522 103.986 346.34 103.479 346.298 102.903L347.738 102.807C347.802 103.149 347.93 103.442 348.122 103.687C348.314 103.933 348.564 104.125 348.874 104.263C349.194 104.391 349.562 104.455 349.978 104.455C350.468 104.455 350.9 104.37 351.274 104.199C351.658 104.018 351.85 103.73 351.85 103.335C351.85 103.058 351.77 102.839 351.61 102.679C351.45 102.519 351.258 102.402 351.034 102.327C350.81 102.253 350.495 102.173 350.09 102.087C350.004 102.077 349.876 102.05 349.706 102.007C349.044 101.858 348.495 101.703 348.058 101.543C347.62 101.373 347.252 101.127 346.954 100.807C346.655 100.487 346.506 100.071 346.506 99.5593C346.506 99.026 346.639 98.562 346.906 98.1673C347.183 97.762 347.567 97.4527 348.058 97.2393C348.548 97.0153 349.119 96.9033 349.77 96.9033C350.623 96.9033 351.359 97.154 351.978 97.6553C352.607 98.146 352.991 98.802 353.13 99.6233L351.69 99.7193Z" fill="#BCBCB8"/>
<path d="M340.904 105.767C340.126 105.767 339.443 105.586 338.856 105.223C338.27 104.861 337.816 104.349 337.496 103.687C337.176 103.015 337.016 102.231 337.016 101.335C337.016 100.439 337.176 99.6607 337.496 98.9993C337.816 98.3273 338.27 97.81 338.856 97.4473C339.443 97.0847 340.126 96.9033 340.904 96.9033C341.683 96.9033 342.366 97.0847 342.952 97.4473C343.539 97.81 343.992 98.3273 344.312 98.9993C344.632 99.6607 344.792 100.439 344.792 101.335C344.792 102.231 344.632 103.015 344.312 103.687C343.992 104.349 343.539 104.861 342.952 105.223C342.366 105.586 341.683 105.767 340.904 105.767ZM340.904 104.455C341.683 104.455 342.286 104.183 342.712 103.639C343.139 103.085 343.352 102.317 343.352 101.335C343.352 100.354 343.139 99.5913 342.712 99.0473C342.286 98.4927 341.683 98.2153 340.904 98.2153C340.126 98.2153 339.523 98.4927 339.096 99.0473C338.67 99.5913 338.456 100.354 338.456 101.335C338.456 102.317 338.67 103.085 339.096 103.639C339.523 104.183 340.126 104.455 340.904 104.455Z" fill="#BCBCB8"/>
<path d="M331.785 94.2153C332.628 94.2153 333.348 94.354 333.945 94.6313C334.553 94.898 335.017 95.2927 335.337 95.8153C335.657 96.3273 335.817 96.9407 335.817 97.6553C335.817 98.3913 335.657 99.026 335.337 99.5593C335.017 100.082 334.553 100.482 333.945 100.759C333.348 101.037 332.628 101.175 331.785 101.175H329.113V105.575H327.705V94.2153H331.785ZM331.785 99.7993C332.638 99.7993 333.278 99.6233 333.705 99.2713C334.132 98.9087 334.345 98.37 334.345 97.6553C334.345 96.962 334.132 96.4447 333.705 96.1033C333.278 95.762 332.638 95.5913 331.785 95.5913H329.113V99.7993H331.785Z" fill="#BCBCB8"/>
<path d="M281.941 12.1921C281.855 11.7548 281.631 11.4081 281.269 11.1521C280.906 10.8961 280.501 10.7681 280.053 10.7681C279.605 10.7681 279.237 10.8748 278.949 11.0881C278.661 11.3015 278.517 11.5841 278.517 11.9361C278.517 12.2775 278.687 12.5441 279.029 12.7361C279.381 12.9175 279.829 13.0615 280.373 13.1681C281.141 13.3068 281.77 13.4775 282.261 13.6801C282.762 13.8721 283.151 14.1388 283.429 14.4801C283.706 14.8108 283.845 15.2481 283.845 15.7921C283.845 16.3255 283.679 16.7735 283.349 17.1361C283.029 17.4881 282.607 17.7548 282.085 17.9361C281.562 18.1068 280.991 18.1921 280.373 18.1921C279.647 18.1921 279.002 18.0748 278.437 17.8401C277.871 17.6055 277.418 17.2748 277.077 16.8481C276.746 16.4108 276.559 15.9041 276.517 15.3281L278.293 15.2161C278.357 15.5361 278.474 15.8135 278.645 16.0481C278.826 16.2721 279.061 16.4481 279.349 16.5761C279.637 16.6935 279.973 16.7521 280.357 16.7521C280.805 16.7521 281.199 16.6721 281.541 16.5121C281.882 16.3415 282.053 16.0748 282.053 15.7121C282.053 15.4668 281.978 15.2695 281.829 15.1201C281.69 14.9708 281.514 14.8641 281.301 14.8001C281.098 14.7255 280.81 14.6455 280.437 14.5601C280.351 14.5495 280.229 14.5281 280.069 14.4961C279.343 14.3361 278.751 14.1708 278.293 14.0001C277.834 13.8188 277.455 13.5681 277.157 13.2481C276.869 12.9281 276.725 12.5121 276.725 12.0001C276.725 11.4561 276.863 10.9868 277.141 10.5921C277.429 10.1868 277.829 9.87746 278.341 9.66413C278.863 9.44013 279.477 9.32812 280.181 9.32812C281.109 9.32812 281.893 9.57879 282.533 10.0801C283.173 10.5708 283.567 11.2428 283.717 12.0961L281.941 12.1921Z" fill="#DCDCDA"/>
<path d="M264.611 9.52013L264.675 10.8961C264.878 10.3948 265.182 10.0108 265.587 9.74413C266.003 9.46679 266.499 9.32812 267.075 9.32812C267.683 9.32812 268.201 9.48279 268.627 9.79213C269.054 10.0908 269.358 10.5228 269.539 11.0881C269.731 10.5121 270.041 10.0748 270.467 9.77613C270.905 9.47746 271.443 9.32812 272.083 9.32812C272.649 9.32812 273.134 9.45613 273.539 9.71213C273.955 9.95746 274.27 10.3201 274.483 10.8001C274.707 11.2801 274.819 11.8615 274.819 12.5441V18.0001H273.107V13.0721C273.107 12.3255 272.979 11.7601 272.723 11.3761C272.467 10.9815 272.099 10.7841 271.619 10.7841C271.225 10.7841 270.883 10.8748 270.595 11.0561C270.318 11.2268 270.11 11.4828 269.971 11.8241C269.833 12.1655 269.763 12.5815 269.763 13.0721V18.0001H268.131V13.0721C268.131 12.5815 268.073 12.1655 267.955 11.8241C267.838 11.4828 267.667 11.2268 267.443 11.0561C267.219 10.8748 266.953 10.7841 266.643 10.7841C266.259 10.7841 265.923 10.8748 265.635 11.0561C265.358 11.2375 265.145 11.4988 264.995 11.8401C264.857 12.1815 264.787 12.5921 264.787 13.0721V18.0001H263.059V9.52013H264.611Z" fill="#DCDCDA"/>
<path d="M253.379 12.0641C253.55 11.2108 253.95 10.5441 254.579 10.0641C255.219 9.57346 256.03 9.32812 257.011 9.32812C258.174 9.32812 259.059 9.63746 259.667 10.2561C260.286 10.8641 260.595 11.7548 260.595 12.9281V16.0801C260.595 16.2721 260.638 16.4161 260.723 16.5121C260.809 16.5975 260.937 16.6401 261.107 16.6401H261.459V18.0001H260.915H260.835C260.547 18.0108 260.27 17.9841 260.003 17.9201C259.737 17.8561 259.507 17.7281 259.315 17.5361C259.134 17.3441 259.033 17.0668 259.011 16.7041C258.809 17.1308 258.473 17.4881 258.003 17.7761C257.534 18.0535 256.963 18.1921 256.291 18.1921C255.417 18.1921 254.686 17.9735 254.099 17.5361C253.523 17.0988 253.235 16.5121 253.235 15.7761C253.235 15.2321 253.363 14.7948 253.619 14.4641C253.875 14.1335 254.227 13.8775 254.675 13.6961C255.123 13.5148 255.715 13.3495 256.451 13.2001L258.867 12.7361C258.857 12.0535 258.697 11.5521 258.387 11.2321C258.089 10.9015 257.63 10.7361 257.011 10.7361C256.531 10.7361 256.131 10.8588 255.811 11.1041C255.491 11.3495 255.273 11.7068 255.155 12.1761L253.379 12.0641ZM255.027 15.7441C255.027 16.0748 255.166 16.3468 255.443 16.5601C255.721 16.7628 256.126 16.8641 256.659 16.8641C257.086 16.8641 257.47 16.7628 257.811 16.5601C258.153 16.3468 258.419 16.0375 258.611 15.6321C258.803 15.2161 258.899 14.7148 258.899 14.1281V14.0481L257.107 14.3681L256.819 14.4161C256.382 14.4908 256.046 14.5655 255.811 14.6401C255.577 14.7148 255.385 14.8428 255.235 15.0241C255.097 15.1948 255.027 15.4348 255.027 15.7441Z" fill="#DCDCDA"/>
<path d="M243.829 13.7601C243.829 12.8641 243.994 12.0855 244.325 11.4241C244.666 10.7521 245.141 10.2348 245.749 9.87213C246.357 9.50946 247.066 9.32812 247.877 9.32812C248.57 9.32812 249.2 9.48813 249.765 9.80813C250.341 10.1175 250.8 10.6028 251.141 11.2641C251.493 11.9148 251.685 12.7255 251.717 13.6961V14.2561H245.653C245.706 15.0348 245.925 15.6428 246.309 16.0801C246.693 16.5068 247.216 16.7201 247.877 16.7201C248.304 16.7201 248.688 16.6081 249.029 16.3841C249.37 16.1601 249.632 15.8455 249.813 15.4401L251.605 15.5681C251.349 16.3681 250.88 17.0081 250.197 17.4881C249.525 17.9575 248.752 18.1921 247.877 18.1921C247.066 18.1921 246.357 18.0108 245.749 17.6481C245.141 17.2855 244.666 16.7735 244.325 16.1121C243.994 15.4401 243.829 14.6561 243.829 13.7601ZM249.909 12.9601C249.802 12.2135 249.568 11.6695 249.205 11.3281C248.842 10.9761 248.4 10.8001 247.877 10.8001C247.269 10.8001 246.773 10.9921 246.389 11.3761C246.016 11.7495 245.776 12.2775 245.669 12.9601H249.909Z" fill="#DCDCDA"/>
<path d="M243.854 8.24014H240.382V18.0001H238.622V8.24014H235.15V6.64014H243.854V8.24014Z" fill="#DCDCDA"/>
<path d="M227.91 6.64014H229.638V18.0001H228.038L227.99 16.8001C227.745 17.2375 227.388 17.5788 226.918 17.8241C226.449 18.0695 225.926 18.1921 225.35 18.1921C224.625 18.1921 223.99 18.0108 223.446 17.6481C222.902 17.2855 222.486 16.7735 222.198 16.1121C221.91 15.4401 221.766 14.6561 221.766 13.7601C221.766 12.8641 221.91 12.0855 222.198 11.4241C222.486 10.7521 222.902 10.2348 223.446 9.87214C223.99 9.50947 224.625 9.32814 225.35 9.32814C225.905 9.32814 226.412 9.44547 226.87 9.68014C227.329 9.9148 227.676 10.2348 227.91 10.6401V6.64014ZM227.766 15.3121C227.948 14.8641 228.038 14.3468 228.038 13.7601C228.038 13.1521 227.948 12.6241 227.766 12.1761C227.585 11.7281 227.324 11.3815 226.982 11.1361C226.641 10.8908 226.246 10.7681 225.798 10.7681C225.105 10.7681 224.556 11.0401 224.15 11.5841C223.745 12.1175 223.542 12.8428 223.542 13.7601C223.542 14.6561 223.745 15.3708 224.15 15.9041C224.566 16.4375 225.116 16.7041 225.798 16.7041C226.246 16.7041 226.641 16.5868 226.982 16.3521C227.324 16.1068 227.585 15.7601 227.766 15.3121Z" fill="#DCDCDA"/>
<path d="M214.564 9.52013L214.644 11.7921L214.436 11.6321C214.575 10.8535 214.89 10.2775 215.38 9.90413C215.871 9.52013 216.474 9.32812 217.188 9.32812C218.116 9.32812 218.831 9.62679 219.332 10.2241C219.834 10.8108 220.084 11.5841 220.084 12.5441V18.0001H218.356V13.0721C218.356 12.5601 218.303 12.1388 218.196 11.8081C218.09 11.4668 217.914 11.2108 217.668 11.0401C217.434 10.8695 217.124 10.7841 216.74 10.7841C216.111 10.7841 215.62 10.9815 215.268 11.3761C214.916 11.7601 214.74 12.3255 214.74 13.0721V18.0001H213.012V9.52013H214.564Z" fill="#DCDCDA"/>
<path d="M203.313 13.7601C203.313 12.8641 203.479 12.0855 203.809 11.4241C204.151 10.7521 204.625 10.2348 205.233 9.87213C205.841 9.50946 206.551 9.32812 207.361 9.32812C208.055 9.32812 208.684 9.48813 209.249 9.80813C209.825 10.1175 210.284 10.6028 210.625 11.2641C210.977 11.9148 211.169 12.7255 211.201 13.6961V14.2561H205.137C205.191 15.0348 205.409 15.6428 205.793 16.0801C206.177 16.5068 206.7 16.7201 207.361 16.7201C207.788 16.7201 208.172 16.6081 208.513 16.3841C208.855 16.1601 209.116 15.8455 209.297 15.4401L211.089 15.5681C210.833 16.3681 210.364 17.0081 209.681 17.4881C209.009 17.9575 208.236 18.1921 207.361 18.1921C206.551 18.1921 205.841 18.0108 205.233 17.6481C204.625 17.2855 204.151 16.7735 203.809 16.1121C203.479 15.4401 203.313 14.6561 203.313 13.7601ZM209.393 12.9601C209.287 12.2135 209.052 11.6695 208.689 11.3281C208.327 10.9761 207.884 10.8001 207.361 10.8001C206.753 10.8001 206.257 10.9921 205.873 11.3761C205.5 11.7495 205.26 12.2775 205.153 12.9601H209.393Z" fill="#DCDCDA"/>
<path d="M196.678 6.64014V13.6801L200.406 9.52014H202.598L199.286 13.0721L202.758 18.0001H200.742L198.15 14.1601L196.678 15.7601V18.0001H194.95V6.64014H196.678Z" fill="#DCDCDA"/>
<path d="M191.454 12.4961C191.369 11.9735 191.145 11.5628 190.782 11.2641C190.419 10.9655 189.993 10.8161 189.502 10.8161C188.787 10.8161 188.233 11.0775 187.838 11.6001C187.443 12.1121 187.246 12.8321 187.246 13.7601C187.246 14.6881 187.443 15.4135 187.838 15.9361C188.233 16.4481 188.787 16.7041 189.502 16.7041C190.014 16.7041 190.451 16.5441 190.814 16.2241C191.187 15.9041 191.417 15.4561 191.502 14.8801L193.31 14.9761C193.225 15.6268 193.001 16.1975 192.638 16.6881C192.286 17.1681 191.838 17.5415 191.294 17.8081C190.75 18.0641 190.153 18.1921 189.502 18.1921C188.691 18.1921 187.982 18.0108 187.374 17.6481C186.766 17.2855 186.291 16.7735 185.95 16.1121C185.619 15.4401 185.454 14.6561 185.454 13.7601C185.454 12.8641 185.619 12.0855 185.95 11.4241C186.291 10.7521 186.766 10.2348 187.374 9.87213C187.982 9.50946 188.691 9.32812 189.502 9.32812C190.131 9.32812 190.718 9.45613 191.262 9.71213C191.806 9.95746 192.254 10.3148 192.606 10.7841C192.958 11.2428 193.171 11.7815 193.246 12.4001L191.454 12.4961Z" fill="#DCDCDA"/>
<path d="M176.301 12.0641C176.472 11.2108 176.872 10.5441 177.501 10.0641C178.141 9.57346 178.952 9.32812 179.933 9.32812C181.096 9.32812 181.981 9.63746 182.589 10.2561C183.208 10.8641 183.517 11.7548 183.517 12.9281V16.0801C183.517 16.2721 183.56 16.4161 183.645 16.5121C183.73 16.5975 183.858 16.6401 184.029 16.6401H184.381V18.0001H183.837H183.757C183.469 18.0108 183.192 17.9841 182.925 17.9201C182.658 17.8561 182.429 17.7281 182.237 17.5361C182.056 17.3441 181.954 17.0668 181.933 16.7041C181.73 17.1308 181.394 17.4881 180.925 17.7761C180.456 18.0535 179.885 18.1921 179.213 18.1921C178.338 18.1921 177.608 17.9735 177.021 17.5361C176.445 17.0988 176.157 16.5121 176.157 15.7761C176.157 15.2321 176.285 14.7948 176.541 14.4641C176.797 14.1335 177.149 13.8775 177.597 13.6961C178.045 13.5148 178.637 13.3495 179.373 13.2001L181.789 12.7361C181.778 12.0535 181.618 11.5521 181.309 11.2321C181.01 10.9015 180.552 10.7361 179.933 10.7361C179.453 10.7361 179.053 10.8588 178.733 11.1041C178.413 11.3495 178.194 11.7068 178.077 12.1761L176.301 12.0641ZM177.949 15.7441C177.949 16.0748 178.088 16.3468 178.365 16.5601C178.642 16.7628 179.048 16.8641 179.581 16.8641C180.008 16.8641 180.392 16.7628 180.733 16.5601C181.074 16.3468 181.341 16.0375 181.533 15.6321C181.725 15.2161 181.821 14.7148 181.821 14.1281V14.0481L180.029 14.3681L179.741 14.4161C179.304 14.4908 178.968 14.5655 178.733 14.6401C178.498 14.7148 178.306 14.8428 178.157 15.0241C178.018 15.1948 177.949 15.4348 177.949 15.7441Z" fill="#DCDCDA"/>
<path d="M165.813 6.64014H169.813C171.221 6.64014 172.277 6.90147 172.981 7.42414C173.685 7.93614 174.037 8.72547 174.037 9.79214C174.037 10.2721 173.936 10.6881 173.733 11.0401C173.531 11.3921 173.232 11.6641 172.837 11.8561C172.453 12.0481 172 12.1495 171.477 12.1601L171.461 12.0961C172.421 12.1175 173.168 12.3681 173.701 12.8481C174.245 13.3175 174.517 13.9628 174.517 14.7841C174.517 15.8295 174.165 16.6295 173.461 17.1841C172.768 17.7281 171.765 18.0001 170.453 18.0001H165.813V6.64014ZM170.469 16.4161C171.184 16.4161 171.733 16.2721 172.117 15.9841C172.512 15.6855 172.709 15.2641 172.709 14.7201C172.709 14.1655 172.512 13.7388 172.117 13.4401C171.733 13.1308 171.184 12.9761 170.469 12.9761H167.573V16.4161H170.469ZM169.877 11.4721C170.624 11.4721 171.2 11.3335 171.605 11.0561C172.021 10.7788 172.229 10.3788 172.229 9.85614C172.229 9.30147 172.032 8.8908 171.637 8.62414C171.243 8.35747 170.656 8.22414 169.877 8.22414H167.573V11.4721H169.877Z" fill="#DCDCDA"/>
<defs>
<filter id="filter0_ddd_758_6133" x="65.9036" y="195.789" width="311.193" height="168.193" filterUnits="userSpaceOnUse" color-interpolation-filters="sRGB">
<feFlood flood-opacity="0" result="BackgroundImageFix"/>
<feColorMatrix in="SourceAlpha" type="matrix" values="0 0 0 0 0 0 0 0 0 0 0 0 0 0 0 0 0 0 127 0" result="hardAlpha"/>
<feMorphology radius="1.11071" operator="erode" in="SourceAlpha" result="effect1_dropShadow_758_6133"/>
<feOffset dy="0.888571"/>
<feGaussianBlur stdDeviation="1.33286"/>
<feComposite in2="hardAlpha" operator="out"/>
<feColorMatrix type="matrix" values="0 0 0 0 0.886275 0 0 0 0 0.992157 0 0 0 0 0.321569 0 0 0 0.04 0"/>
<feBlend mode="normal" in2="BackgroundImageFix" result="effect1_dropShadow_758_6133"/>
<feColorMatrix in="SourceAlpha" type="matrix" values="0 0 0 0 0 0 0 0 0 0 0 0 0 0 0 0 0 0 127 0" result="hardAlpha"/>
<feMorphology radius="2.22143" operator="erode" in="SourceAlpha" result="effect2_dropShadow_758_6133"/>
<feOffset dy="2.66571"/>
<feGaussianBlur stdDeviation="5.33142"/>
<feComposite in2="hardAlpha" operator="out"/>
<feColorMatrix type="matrix" values="0 0 0 0 0.886275 0 0 0 0 0.992157 0 0 0 0 0.321569 0 0 0 0.03 0"/>
<feBlend mode="normal" in2="effect1_dropShadow_758_6133" result="effect2_dropShadow_758_6133"/>
<feColorMatrix in="SourceAlpha" type="matrix" values="0 0 0 0 0 0 0 0 0 0 0 0 0 0 0 0 0 0 127 0" result="hardAlpha"/>
<feMorphology radius="3.33214" operator="erode" in="SourceAlpha" result="effect3_dropShadow_758_6133"/>
<feOffset dy="8.88571"/>
<feGaussianBlur stdDeviation="22.2143"/>
<feComposite in2="hardAlpha" operator="out"/>
<feColorMatrix type="matrix" values="0 0 0 0 0.886275 0 0 0 0 0.992157 0 0 0 0 0.321569 0 0 0 0.1 0"/>
<feBlend mode="normal" in2="effect2_dropShadow_758_6133" result="effect3_dropShadow_758_6133"/>
<feBlend mode="normal" in="SourceGraphic" in2="effect3_dropShadow_758_6133" result="shape"/>
</filter>
<linearGradient id="paint0_linear_758_6133" x1="231.992" y1="352.395" x2="392.418" y2="310.809" gradientUnits="userSpaceOnUse">
<stop offset="0.235033" stop-color="#DBFE01"/>
<stop offset="0.479167" stop-color="#DBFE01"/>
<stop offset="1" stop-color="#77DA05"/>
</linearGradient>
<linearGradient id="paint1_linear_758_6133" x1="150.099" y1="203.015" x2="291.145" y2="203.015" gradientUnits="userSpaceOnUse">
<stop stop-color="#7B8C0D"/>
<stop offset="0.5" stop-color="#7B8C0D" stop-opacity="0"/>
<stop offset="1" stop-color="#7B8C0D"/>
</linearGradient>
<linearGradient id="paint2_linear_758_6133" x1="-315.871" y1="-275.834" x2="421.347" y2="-278.648" gradientUnits="userSpaceOnUse">
<stop stop-color="#72C9C9"/>
<stop offset="1" stop-color="#02B0AD"/>
</linearGradient>
<linearGradient id="paint3_linear_758_6133" x1="-152.95" y1="-129.598" x2="279.467" y2="-131.249" gradientUnits="userSpaceOnUse">
<stop stop-color="#03B6B4"/>
<stop offset="1" stop-color="#74CBCA"/>
</linearGradient>
<clipPath id="clip0_758_6133">
<rect width="18.66" height="18.66" fill="white" transform="matrix(-1 0 0 1 232.149 392.172)"/>
</clipPath>
<clipPath id="clip1_758_6133">
<rect width="18.66" height="18.66" fill="white" transform="matrix(-1 0 0 1 359.851 392.172)"/>
</clipPath>
<clipPath id="clip2_758_6133">
<rect x="107" y="228" width="229" height="86" rx="10.6628" fill="white"/>
</clipPath>
<clipPath id="clip3_758_6133">
<rect width="18.66" height="18.66" fill="white" transform="matrix(-1 -8.74228e-08 -8.74228e-08 1 232.149 201.758)"/>
</clipPath>
<clipPath id="clip4_758_6133">
<rect width="18.66" height="18.66" fill="white" transform="matrix(-1 -8.74228e-08 -8.74228e-08 1 255.66 202)"/>
</clipPath>
<clipPath id="clip5_758_6133">
<rect width="18.66" height="18.66" fill="white" transform="matrix(-1 0 0 -1 101.991 159.828)"/>
</clipPath>
<clipPath id="clip6_758_6133">
<rect width="18.66" height="18.66" fill="white" transform="matrix(-1 0 0 -1 232.149 159.828)"/>
</clipPath>
<clipPath id="clip7_758_6133">
<rect width="18.66" height="18.66" fill="white" transform="matrix(-1 0 0 -1 359.851 159.828)"/>
</clipPath>
<clipPath id="clip8_758_6133">
<rect width="22.1339" height="22.9403" fill="white" transform="translate(359.6 62.9287)"/>
</clipPath>
</defs>
</svg>
