<svg width="1440" height="578" viewBox="0 0 1440 578" fill="none" xmlns="http://www.w3.org/2000/svg">
<path fill-rule="evenodd" clip-rule="evenodd" d="M-167.676 -162.875C-261.988 -242.228 -267.667 -384.006 -179.998 -470.447L-46.3802 -602.193C40.003 -687.366 181.256 -683.37 262.545 -593.455L380.035 -463.495C561.14 -263.17 878.845 -263.171 1059.95 -463.496L1177.44 -593.454C1258.73 -683.37 1399.98 -687.366 1486.36 -602.193L1619.98 -470.447C1707.65 -384.006 1701.97 -242.228 1607.66 -162.875L1504.07 -75.7174C1276.82 115.498 1276.82 461.748 1504.07 652.963L1607.66 740.121C1701.97 819.474 1707.65 961.252 1619.98 1047.69L1489.85 1176C1402.18 1262.45 1258.39 1256.84 1177.91 1163.86L1066.41 1035.04C884.603 824.966 555.381 824.966 373.57 1035.04L262.079 1163.86C181.598 1256.85 37.8062 1262.45 -49.863 1176L-179.998 1047.69C-267.667 961.252 -261.987 819.474 -167.676 740.121L-50.5581 641.578C169.599 456.338 169.599 120.908 -50.5582 -64.3318L-167.676 -162.875Z" fill="white"/>
<path d="M-180.7 -471.159C-268.79 -384.304 -263.081 -241.841 -168.32 -162.11L-51.202 -63.5667C168.48 121.273 168.48 455.972 -51.2019 640.812L-168.32 739.355C-263.081 819.087 -268.789 961.549 -180.7 1048.4L-50.5651 1176.72C37.5148 1263.56 181.976 1257.94 262.835 1164.51L374.326 1035.69C555.739 826.081 884.246 826.081 1065.66 1035.69L1177.15 1164.51C1258.01 1257.94 1402.47 1263.56 1490.55 1176.72L1620.68 1048.4C1708.77 961.55 1703.07 819.087 1608.3 739.355L1504.72 652.198C1277.93 461.382 1277.93 115.863 1504.72 -74.9522L1608.3 -162.11C1703.07 -241.842 1708.77 -384.304 1620.68 -471.159L1487.07 -602.905C1400.28 -688.477 1258.37 -684.464 1176.7 -594.125L1059.21 -464.166C878.5 -264.28 561.484 -264.28 380.777 -464.166L263.287 -594.125C181.616 -684.464 39.7057 -688.477 -47.0823 -602.905L-180.7 -471.159Z" stroke="url(#paint0_linear_432_13745)" stroke-opacity="0.8" stroke-width="2"/>
<defs>
<linearGradient id="paint0_linear_432_13745" x1="1603.82" y1="-602.328" x2="0.388087" y2="1122.77" gradientUnits="userSpaceOnUse">
<stop stop-color="#77DA05"/>
<stop offset="0.5" stop-color="#DBFE01"/>
<stop offset="1" stop-color="#77DA05"/>
</linearGradient>
</defs>
</svg>
