<svg xmlns="http://www.w3.org/2000/svg" width="392" height="392" fill="none" viewBox="0 0 392 392">
  <circle cx="196" cy="196" r="196" fill="url(#a)" fill-opacity=".02"/>
  <circle cx="196" cy="196" r="196" fill="#D346A7" fill-opacity=".02"/>
  <path stroke="url(#b)" stroke-opacity=".12" stroke-width=".891" d="M391.554 196c0 108.002-87.552 195.555-195.554 195.555S.445 304.002.445 196C.445 87.998 87.998.445 196 .445 304.002.445 391.554 87.998 391.554 196Z"/>
  <path stroke="#D346A7" stroke-opacity=".16" stroke-width=".891" d="M391.554 196c0 108.002-87.552 195.555-195.554 195.555S.445 304.002.445 196C.445 87.998 87.998.445 196 .445 304.002.445 391.554 87.998 391.554 196Z"/>
  <circle cx="196" cy="196" r="142.545" fill="url(#c)" fill-opacity=".04"/>
  <circle cx="196" cy="196" r="142.545" fill="#D346A7" fill-opacity=".02"/>
  <path stroke="url(#d)" stroke-opacity=".2" stroke-width=".891" d="M338.1 196c0 78.48-63.62 142.1-142.1 142.1-78.48 0-142.1-63.62-142.1-142.1 0-78.48 63.62-142.1 142.1-142.1 78.48 0 142.1 63.62 142.1 142.1Z"/>
  <path stroke="#D346A7" stroke-opacity=".16" stroke-width=".891" d="M338.1 196c0 78.48-63.62 142.1-142.1 142.1-78.48 0-142.1-63.62-142.1-142.1 0-78.48 63.62-142.1 142.1-142.1 78.48 0 142.1 63.62 142.1 142.1Z"/>
  <circle cx="196" cy="196" r="89.091" fill="url(#e)" fill-opacity=".06"/>
  <circle cx="196" cy="196" r="89.091" fill="#D346A7" fill-opacity=".03"/>
  <path stroke="url(#f)" stroke-opacity=".2" stroke-width=".891" d="M284.645 196c0 48.958-39.687 88.646-88.645 88.646S107.355 244.958 107.355 196c0-48.957 39.687-88.645 88.645-88.645s88.645 39.688 88.645 88.645Z"/>
  <path stroke="#D346A7" stroke-opacity=".16" stroke-width=".891" d="M284.645 196c0 48.958-39.687 88.646-88.645 88.646S107.355 244.958 107.355 196c0-48.957 39.687-88.645 88.645-88.645s88.645 39.688 88.645 88.645Z"/>
  <g clip-path="url(#g)" filter="url(#h)">
    <path fill="#E535AB" fill-rule="evenodd" d="m201.331 172.05 12.907 7.453a5.61 5.61 0 0 1 1.27-1.005 5.606 5.606 0 0 1 7.646 2.052 5.606 5.606 0 0 1-2.052 7.646 5.604 5.604 0 0 1-1.491.593v14.91a5.607 5.607 0 0 1 1.475.59 5.579 5.579 0 0 1 2.052 7.646c-1.539 2.677-4.969 3.59-7.646 2.052a5.575 5.575 0 0 1-1.384-1.123l-12.828 7.406a5.6 5.6 0 0 1-5.312 7.358 5.59 5.59 0 0 1-5.594-5.595c0-.55.079-1.081.226-1.583L177.697 213a5.62 5.62 0 0 1-1.253.987c-2.692 1.538-6.107.625-7.646-2.052a5.607 5.607 0 0 1 2.052-7.646 5.607 5.607 0 0 1 1.475-.59v-14.91a5.604 5.604 0 0 1-1.491-.593c-2.677-1.539-3.59-4.969-2.052-7.646 1.539-2.677 4.969-3.591 7.646-2.052.467.27.893.607 1.264.998l12.911-7.454a5.565 5.565 0 0 1-.229-1.591c0-3.093 2.5-5.594 5.594-5.594a5.589 5.589 0 0 1 5.594 5.594c0 .556-.08 1.093-.231 1.599Zm-1.345 2.296 12.938 7.47a5.588 5.588 0 0 0 4.027 6.96v14.929a5.318 5.318 0 0 0-.217.057l-16.898-29.266c.051-.049.101-.099.15-.149v-.001Zm-7.882.153-16.898 29.266a5.48 5.48 0 0 0-.22-.059v-14.93a5.561 5.561 0 0 0 3.494-2.632 5.585 5.585 0 0 0 .53-4.336l12.934-7.468a4.8 4.8 0 0 0 .16.159Zm5.427 1.326 16.894 29.259a5.6 5.6 0 0 0-1.575 2.731h-33.764a5.567 5.567 0 0 0-1.573-2.724l16.897-29.265a5.632 5.632 0 0 0 3.121-.001Zm2.574 42.44 12.854-7.422a5.113 5.113 0 0 1-.103-.367h-33.777a5.329 5.329 0 0 1-.058.217l12.917 7.457a5.569 5.569 0 0 1 4.03-1.711 5.577 5.577 0 0 1 4.137 1.826Z" clip-rule="evenodd"/>
  </g>
  <defs>
    <linearGradient id="a" x1="196" x2="196" y1="0" y2="392" gradientUnits="userSpaceOnUse">
      <stop stop-color="#fff"/>
      <stop offset="1" stop-color="#fff" stop-opacity="0"/>
    </linearGradient>
    <linearGradient id="b" x1="196" x2="196" y1="0" y2="392" gradientUnits="userSpaceOnUse">
      <stop stop-color="#fff"/>
      <stop offset="1" stop-color="#fff" stop-opacity="0"/>
    </linearGradient>
    <linearGradient id="c" x1="196" x2="196" y1="53.455" y2="338.545" gradientUnits="userSpaceOnUse">
      <stop stop-color="#fff"/>
      <stop offset="1" stop-color="#fff" stop-opacity="0"/>
    </linearGradient>
    <linearGradient id="d" x1="196" x2="196" y1="53.455" y2="338.545" gradientUnits="userSpaceOnUse">
      <stop stop-color="#fff"/>
      <stop offset="1" stop-color="#fff" stop-opacity="0"/>
    </linearGradient>
    <linearGradient id="e" x1="196" x2="196" y1="106.909" y2="285.091" gradientUnits="userSpaceOnUse">
      <stop stop-color="#fff"/>
      <stop offset="1" stop-color="#fff" stop-opacity="0"/>
    </linearGradient>
    <linearGradient id="f" x1="196" x2="196" y1="106.909" y2="285.091" gradientUnits="userSpaceOnUse">
      <stop stop-color="#fff"/>
      <stop offset="1" stop-color="#fff" stop-opacity="0"/>
    </linearGradient>
    <clipPath id="g">
      <path fill="#fff" d="M168.036 164.853h55.865v62.855h-55.865z"/>
    </clipPath>
    <filter id="h" width="71.865" height="78.771" x="160.035" y="157.857" color-interpolation-filters="sRGB" filterUnits="userSpaceOnUse">
      <feFlood flood-opacity="0" result="BackgroundImageFix"/>
      <feColorMatrix in="SourceAlpha" result="hardAlpha" values="0 0 0 0 0 0 0 0 0 0 0 0 0 0 0 0 0 0 127 0"/>
      <feOffset dy="1"/>
      <feGaussianBlur stdDeviation="4"/>
      <feComposite in2="hardAlpha" operator="out"/>
      <feColorMatrix values="0 0 0 0 0 0 0 0 0 0 0 0 0 0 0 0 0 0 0.1 0"/>
      <feBlend in2="BackgroundImageFix" result="effect1_dropShadow_414_645"/>
      <feBlend in="SourceGraphic" in2="effect1_dropShadow_414_645" result="shape"/>
      <feColorMatrix in="SourceAlpha" result="hardAlpha" values="0 0 0 0 0 0 0 0 0 0 0 0 0 0 0 0 0 0 127 0"/>
      <feOffset dy="4"/>
      <feGaussianBlur stdDeviation="2"/>
      <feComposite in2="hardAlpha" k2="-1" k3="1" operator="arithmetic"/>
      <feColorMatrix values="0 0 0 0 1 0 0 0 0 1 0 0 0 0 1 0 0 0 0.2 0"/>
      <feBlend in2="shape" result="effect2_innerShadow_414_645"/>
    </filter>
  </defs>
</svg>
