<svg xmlns="http://www.w3.org/2000/svg" width="5402" height="1470" fill="none">
  <path stroke="url(#a)" d="M2090 0v565"/>
  <path stroke="url(#b)" d="M1988 0v565"/>
  <path stroke="url(#c)" d="M2192 0v565"/>
  <path stroke="url(#d)" d="M2293 0v565"/>
  <path stroke="url(#e)" d="M2395 0v565"/>
  <path stroke="url(#f)" d="M2497 0v565"/>
  <path stroke="url(#g)" d="M2599 0v565"/>
  <path stroke="url(#h)" d="M2701 0v565"/>
  <path stroke="url(#i)" d="M2802 0v565"/>
  <path stroke="url(#j)" d="M2904 0v565"/>
  <path stroke="url(#k)" d="M3006 0v565"/>
  <path stroke="url(#l)" d="M3108 0v565"/>
  <path stroke="url(#m)" d="M3210 0v565"/>
  <path stroke="url(#n)" d="M3311 0v565"/>
  <path stroke="url(#o)" d="M3413 0v565"/>
  <path stroke="url(#p)" d="M3515 0v565"/>
  <path stroke="url(#q)" d="M3617 0v565"/>
  <path stroke="url(#r)" d="M3719 0v565"/>
  <path stroke="url(#s)" d="M3821 0v565"/>
  <path stroke="url(#t)" d="M3923 0v565"/>
  <path stroke="url(#u)" d="M4025 0v565"/>
  <path stroke="url(#v)" d="M4127 0v565"/>
  <path stroke="url(#w)" d="M1886 0v565"/>
  <path stroke="url(#x)" d="M1682 0v565"/>
  <path stroke="url(#y)" d="M1478 0v565"/>
  <path stroke="url(#z)" d="M1274 0v565"/>
  <path stroke="url(#A)" d="M1784 0v565"/>
  <path stroke="url(#B)" d="M1580 0v565"/>
  <path stroke="url(#C)" d="M1376 0v565"/>
  <path stroke="#F3F3F3" d="M1274 165h2853"/>
  <path stroke="#ECECEC" d="M1274 265h1222M2905 265h1222"/>
  <path stroke="#EDEDED" d="M3107 365h1020M1274 365h1018"/>
  <path stroke="#E8E8E8" d="M1274 465h2853"/>
  <path stroke="#FBFBFB" d="M1274 65h2853"/>
  <path stroke="#E3E3E3" d="M1.563 1468.56H5400.91M1.563 1254.65H5400.91M1.563 1109.82H5400.91M1.563 1005.09H5400.91M1.563 925.994H5400.91M1.563 863.604H5400.91M1.563 813.47H5400.91M1.563 773.363H5400.91M540.932 1469.11 2293.56 565.027m0 0h-101.77m101.77 0h101.78M1 1469.11l2190.79-904.083m0 0h-101.78M1080.87 1469.11l1314.47-904.083m0 0h101.78m-876.31 904.083 876.31-904.083m0 0h101.78m-438.16 904.083 438.16-904.083m0 0h101.78m0 904.083V565.027m0 0h101.77m438.16 904.083-438.16-904.083m0 0h101.78m876.32 904.083-876.32-904.083m0 0h101.78m1314.47 904.083L3006.01 565.027m0 0h101.78m1752.62 904.083L3107.79 565.027m0 0h101.78m2190.78 904.083L3209.57 565.027m0 0h101.78m-1933.79 0h-101.77l-68.04 10.027m169.81-10.027h101.78m-101.78 0L1.563 783.429M1207.75 575.054l-75.59 11.141m75.59-11.141h2985.84m-2714.25-10.027h101.78m-101.78 0L1.563 819.13M1581.12 565.027h101.78m-101.78 0L1.563 861.322M1682.9 565.027h101.78m-101.78 0L1.562 911.952M1784.68 565.027h101.77m-101.77 0L1.562 973.833M1886.45 565.027h101.78m-101.78 0L1.562 1051.18M1988.23 565.027h101.78m-101.78 0L1.562 1150.64M2090.01 565.027 1.562 1283.24M3311.35 565.027h101.77m-101.77 0 2089.56 718.603M3413.12 565.027h101.77m-101.77 0 1987.79 585.933M3514.89 565.027h101.78m-101.78 0L5401 1051.5M3616.67 565.027h101.78m-101.78 0L5400.91 974.09M3718.45 565.027h101.78m-101.78 0 1682.46 347.156M3820.23 565.027h101.78m-101.78 0 1580.68 296.505m-1478.9-296.505h101.78m-101.78 0 1478.9 254.295M4023.79 565.027h101.78l68.02 10.027m-169.8-10.027 1377.12 218.58M4193.59 575.054l75.59 11.141M96.569 738.826l196.537-28.967M96.569 738.826 1.562 752.828m95.007-14.002H5304.78M293.106 709.859l173.858-25.624m-173.858 25.624H5108.25m196.53 28.967-196.53-28.967m196.53 28.967 96.13 14.168M466.964 684.235l143.617-21.168m-143.617 21.168H4934.38m173.87 25.624-173.87-25.624M610.581 663.067l128.509-18.939m-128.509 18.939H4790.77m143.61 21.168-143.61-21.168M739.09 644.128l113.389-16.712M739.09 644.128h3923.17m128.51 18.939-128.51-18.939M852.479 627.416l105.825-15.597m-105.825 15.597H4548.87m113.39 16.712-113.39-16.712M958.304 611.819l90.706-13.369m-90.706 13.369H4443.05m105.82 15.597-105.82-15.597M1049.01 598.45l83.15-12.255m-83.15 12.255h3303.33m90.71 13.369-90.71-13.369m-3220.18-12.255h3137.02m83.16 12.255-83.16-12.255"/>
  <g filter="url(#D)">
    <path fill="#DBFE01" fill-opacity=".5" d="M3208.99 475.555h11.32v89.578l101.79 46.918h-13.63l-99.48-46.918v-89.578Z"/>
  </g>
  <g filter="url(#E)">
    <path fill="#DBFE01" fill-opacity=".5" d="M2182.63 474.738h8.25v89.579l-111.15 45.516h-13.63l116.53-46.919v-88.176Z"/>
  </g>
  <path stroke="url(#F)" d="M3209.6 537.584v27.366l23.78 10.013"/>
  <path stroke="url(#G)" d="M2191.71 518.717v46.25l-49.59 20.778"/>
  <path stroke="url(#H)" d="m3165.37 165.052 44.23-.001v31.593"/>
  <path stroke="url(#I)" d="M2243.36 165.092h-51.27v31.593"/>
  <path stroke="url(#J)" d="M2192 264.027v200"/>
  <path stroke="url(#K)" d="m3290.59 598.49 32.11 13.288-46.94-.685"/>
  <path stroke="url(#L)" d="M3311.39 537.869V565l26.03 9.126"/>
  <path fill="url(#M)" fill-rule="evenodd" d="M3209.16 284.664h1.6v3h-1.6v-3Zm0 30h1.6v3h-1.6v-3Zm1.6-25h-1.6v3h1.6v-3Zm-1.6 20h1.6v3h-1.6v-3Zm1.6-15h-1.6v3h1.6v-3Zm-1.6 5h1.6v3h-1.6v-3Zm1.6 5h-1.6v3h1.6v-3Z" clip-rule="evenodd"/>
  <defs>
    <linearGradient id="a" x1="2090.5" x2="2090.5" y1="0" y2="565" gradientUnits="userSpaceOnUse">
      <stop stop-color="#E3E3E3" stop-opacity="0"/>
      <stop offset="1" stop-color="#E3E3E3"/>
    </linearGradient>
    <linearGradient id="b" x1="1988.5" x2="1988.5" y1="0" y2="565" gradientUnits="userSpaceOnUse">
      <stop stop-color="#E3E3E3" stop-opacity="0"/>
      <stop offset="1" stop-color="#E3E3E3"/>
    </linearGradient>
    <linearGradient id="c" x1="2192.5" x2="2192.5" y1="0" y2="565" gradientUnits="userSpaceOnUse">
      <stop stop-color="#E3E3E3" stop-opacity="0"/>
      <stop offset="1" stop-color="#E3E3E3"/>
    </linearGradient>
    <linearGradient id="d" x1="2293.5" x2="2293.5" y1="0" y2="565" gradientUnits="userSpaceOnUse">
      <stop stop-color="#E3E3E3" stop-opacity="0"/>
      <stop offset="1" stop-color="#E3E3E3"/>
    </linearGradient>
    <linearGradient id="e" x1="2395.5" x2="2395.5" y1="0" y2="565" gradientUnits="userSpaceOnUse">
      <stop stop-color="#E3E3E3" stop-opacity="0"/>
      <stop offset="1" stop-color="#E3E3E3"/>
    </linearGradient>
    <linearGradient id="f" x1="2497.5" x2="2497.5" y1="0" y2="565" gradientUnits="userSpaceOnUse">
      <stop stop-color="#E3E3E3" stop-opacity="0"/>
      <stop offset="1" stop-color="#E3E3E3"/>
    </linearGradient>
    <linearGradient id="g" x1="2599.5" x2="2599.5" y1="0" y2="565" gradientUnits="userSpaceOnUse">
      <stop stop-color="#E3E3E3" stop-opacity="0"/>
      <stop offset="1" stop-color="#E3E3E3"/>
    </linearGradient>
    <linearGradient id="h" x1="2701.5" x2="2701.5" y1="0" y2="565" gradientUnits="userSpaceOnUse">
      <stop stop-color="#E3E3E3" stop-opacity="0"/>
      <stop offset="1" stop-color="#E3E3E3"/>
    </linearGradient>
    <linearGradient id="i" x1="2802.5" x2="2802.5" y1="0" y2="565" gradientUnits="userSpaceOnUse">
      <stop stop-color="#E3E3E3" stop-opacity="0"/>
      <stop offset="1" stop-color="#E3E3E3"/>
    </linearGradient>
    <linearGradient id="j" x1="2904.5" x2="2904.5" y1="0" y2="565" gradientUnits="userSpaceOnUse">
      <stop stop-color="#E3E3E3" stop-opacity="0"/>
      <stop offset="1" stop-color="#E3E3E3"/>
    </linearGradient>
    <linearGradient id="k" x1="3006.5" x2="3006.5" y1="0" y2="565" gradientUnits="userSpaceOnUse">
      <stop stop-color="#E3E3E3" stop-opacity="0"/>
      <stop offset="1" stop-color="#E3E3E3"/>
    </linearGradient>
    <linearGradient id="l" x1="3108.5" x2="3108.5" y1="0" y2="565" gradientUnits="userSpaceOnUse">
      <stop stop-color="#E3E3E3" stop-opacity="0"/>
      <stop offset="1" stop-color="#E3E3E3"/>
    </linearGradient>
    <linearGradient id="m" x1="3210.5" x2="3210.5" y1="0" y2="565" gradientUnits="userSpaceOnUse">
      <stop stop-color="#E3E3E3" stop-opacity="0"/>
      <stop offset="1" stop-color="#E3E3E3"/>
    </linearGradient>
    <linearGradient id="n" x1="3311.5" x2="3311.5" y1="0" y2="565" gradientUnits="userSpaceOnUse">
      <stop stop-color="#E3E3E3" stop-opacity="0"/>
      <stop offset="1" stop-color="#E3E3E3"/>
    </linearGradient>
    <linearGradient id="o" x1="3413.5" x2="3413.5" y1="0" y2="565" gradientUnits="userSpaceOnUse">
      <stop stop-color="#E3E3E3" stop-opacity="0"/>
      <stop offset="1" stop-color="#E3E3E3"/>
    </linearGradient>
    <linearGradient id="p" x1="3515.5" x2="3515.5" y1="0" y2="565" gradientUnits="userSpaceOnUse">
      <stop stop-color="#E3E3E3" stop-opacity="0"/>
      <stop offset="1" stop-color="#E3E3E3"/>
    </linearGradient>
    <linearGradient id="q" x1="3617.5" x2="3617.5" y1="0" y2="565" gradientUnits="userSpaceOnUse">
      <stop stop-color="#E3E3E3" stop-opacity="0"/>
      <stop offset="1" stop-color="#E3E3E3"/>
    </linearGradient>
    <linearGradient id="r" x1="3719.5" x2="3719.5" y1="0" y2="565" gradientUnits="userSpaceOnUse">
      <stop stop-color="#E3E3E3" stop-opacity="0"/>
      <stop offset="1" stop-color="#E3E3E3"/>
    </linearGradient>
    <linearGradient id="s" x1="3821.5" x2="3821.5" y1="0" y2="565" gradientUnits="userSpaceOnUse">
      <stop stop-color="#E3E3E3" stop-opacity="0"/>
      <stop offset="1" stop-color="#E3E3E3"/>
    </linearGradient>
    <linearGradient id="t" x1="3923.5" x2="3923.5" y1="0" y2="565" gradientUnits="userSpaceOnUse">
      <stop stop-color="#E3E3E3" stop-opacity="0"/>
      <stop offset="1" stop-color="#E3E3E3"/>
    </linearGradient>
    <linearGradient id="u" x1="4025.5" x2="4025.5" y1="0" y2="565" gradientUnits="userSpaceOnUse">
      <stop stop-color="#E3E3E3" stop-opacity="0"/>
      <stop offset="1" stop-color="#E3E3E3"/>
    </linearGradient>
    <linearGradient id="v" x1="4127.5" x2="4127.5" y1="0" y2="565" gradientUnits="userSpaceOnUse">
      <stop stop-color="#E3E3E3" stop-opacity="0"/>
      <stop offset="1" stop-color="#E3E3E3"/>
    </linearGradient>
    <linearGradient id="w" x1="1886.5" x2="1886.5" y1="0" y2="565" gradientUnits="userSpaceOnUse">
      <stop stop-color="#E3E3E3" stop-opacity="0"/>
      <stop offset="1" stop-color="#E3E3E3"/>
    </linearGradient>
    <linearGradient id="x" x1="1682.5" x2="1682.5" y1="0" y2="565" gradientUnits="userSpaceOnUse">
      <stop stop-color="#E3E3E3" stop-opacity="0"/>
      <stop offset="1" stop-color="#E3E3E3"/>
    </linearGradient>
    <linearGradient id="y" x1="1478.5" x2="1478.5" y1="0" y2="565" gradientUnits="userSpaceOnUse">
      <stop stop-color="#E3E3E3" stop-opacity="0"/>
      <stop offset="1" stop-color="#E3E3E3"/>
    </linearGradient>
    <linearGradient id="z" x1="1274.5" x2="1274.5" y1="0" y2="565" gradientUnits="userSpaceOnUse">
      <stop stop-color="#E3E3E3" stop-opacity="0"/>
      <stop offset="1" stop-color="#E3E3E3"/>
    </linearGradient>
    <linearGradient id="A" x1="1784.5" x2="1784.5" y1="0" y2="565" gradientUnits="userSpaceOnUse">
      <stop stop-color="#E3E3E3" stop-opacity="0"/>
      <stop offset="1" stop-color="#E3E3E3"/>
    </linearGradient>
    <linearGradient id="B" x1="1580.5" x2="1580.5" y1="0" y2="565" gradientUnits="userSpaceOnUse">
      <stop stop-color="#E3E3E3" stop-opacity="0"/>
      <stop offset="1" stop-color="#E3E3E3"/>
    </linearGradient>
    <linearGradient id="C" x1="1376.5" x2="1376.5" y1="0" y2="565" gradientUnits="userSpaceOnUse">
      <stop stop-color="#E3E3E3" stop-opacity="0"/>
      <stop offset="1" stop-color="#E3E3E3"/>
    </linearGradient>
    <linearGradient id="F" x1="3209.6" x2="3233.18" y1="537.584" y2="575.092" gradientUnits="userSpaceOnUse">
      <stop stop-color="#CAEB01" stop-opacity="0"/>
      <stop offset=".5" stop-color="#CAEB01"/>
      <stop offset="1" stop-color="#CAEB01" stop-opacity="0"/>
    </linearGradient>
    <linearGradient id="G" x1="2190.52" x2="2142.12" y1="536.978" y2="585.746" gradientUnits="userSpaceOnUse">
      <stop stop-color="#CAEB01" stop-opacity="0"/>
      <stop offset=".5" stop-color="#CAEB01"/>
      <stop offset="1" stop-color="#CAEB01" stop-opacity="0"/>
    </linearGradient>
    <linearGradient id="K" x1="3321.86" x2="3345.29" y1="583.961" y2="621.019" gradientUnits="userSpaceOnUse">
      <stop stop-color="#CAEB01" stop-opacity="0"/>
      <stop offset=".5" stop-color="#CAEB01"/>
      <stop offset="1" stop-color="#CAEB01" stop-opacity="0"/>
    </linearGradient>
    <linearGradient id="L" x1="3311.39" x2="3334.83" y1="537.463" y2="574.521" gradientUnits="userSpaceOnUse">
      <stop stop-color="#CAEB01" stop-opacity="0"/>
      <stop offset=".5" stop-color="#CAEB01"/>
      <stop offset="1" stop-color="#CAEB01" stop-opacity="0"/>
    </linearGradient>
    <radialGradient id="H" cx="0" cy="0" r="1" gradientTransform="matrix(0 21.3711 -43.9766 0 3209.6 164.435)" gradientUnits="userSpaceOnUse">
      <stop stop-color="#CAEB01"/>
      <stop offset="1" stop-color="#CAEB01" stop-opacity="0"/>
    </radialGradient>
    <radialGradient id="I" cx="0" cy="0" r="1" gradientTransform="matrix(0 21.3711 -43.9766 0 2192.09 164.477)" gradientUnits="userSpaceOnUse">
      <stop stop-color="#CAEB01"/>
      <stop offset="1" stop-color="#CAEB01" stop-opacity="0"/>
    </radialGradient>
    <radialGradient id="J" cx="0" cy="0" r="1" gradientTransform="rotate(89.995 932.775 1259.297) scale(90.1152 185.435)" gradientUnits="userSpaceOnUse">
      <stop stop-color="#CAEB01"/>
      <stop offset="1" stop-color="#CAEB01" stop-opacity="0"/>
    </radialGradient>
    <radialGradient id="M" cx="0" cy="0" r="1" gradientTransform="matrix(.15234 25.79375 -2.0988 .0124 3209.81 296.544)" gradientUnits="userSpaceOnUse">
      <stop stop-color="#CAEB01"/>
      <stop offset="1" stop-color="#CAEB01" stop-opacity="0"/>
    </radialGradient>
    <filter id="D" width="353.108" height="376.497" x="3088.99" y="355.555" color-interpolation-filters="sRGB" filterUnits="userSpaceOnUse">
      <feFlood flood-opacity="0" result="BackgroundImageFix"/>
      <feBlend in="SourceGraphic" in2="BackgroundImageFix" result="shape"/>
      <feGaussianBlur result="effect1_foregroundBlur_311_11520" stdDeviation="60"/>
    </filter>
    <filter id="E" width="364.78" height="375.094" x="1946.1" y="354.738" color-interpolation-filters="sRGB" filterUnits="userSpaceOnUse">
      <feFlood flood-opacity="0" result="BackgroundImageFix"/>
      <feBlend in="SourceGraphic" in2="BackgroundImageFix" result="shape"/>
      <feGaussianBlur result="effect1_foregroundBlur_311_11520" stdDeviation="60"/>
    </filter>
  </defs>
</svg>
